<?xml version="1.0" encoding="utf-8"?>
<!-- Generator: Adobe Illustrator 16.0.0, SVG Export Plug-In . SVG Version: 6.00 Build 0)  -->
<!DOCTYPE svg PUBLIC "-//W3C//DTD SVG 1.1//EN" "http://www.w3.org/Graphics/SVG/1.1/DTD/svg11.dtd">
<svg version="1.1" id="Ebene_1" xmlns="http://www.w3.org/2000/svg" xmlns:xlink="http://www.w3.org/1999/xlink" x="0px" y="0px"
	 width="24px" height="15px" viewBox="0 0 24 15" enable-background="new 0 0 24 15" xml:space="preserve">
	 
	 <!--
		@author		Alexander Ebert
		@copyright	2001-2013 WoltLab GmbH 
		@license	Public Domain
		
		This is a modified version of https://en.wikipedia.org/wiki/File:Flag_of_Albania.svg (10:29, 23 February 2011)
	 -->
	 
<polygon id="_148171424" fill="#CF1327" points="0,0 0,15 24,15 24,0 "/>
<g id="g12" transform="matrix(2.6398763,0,0,2.6358507,0.2337429,0.10212981)">
	<path id="_148172456" fill="#010202" d="M4.457,1.597C4.405,1.588,4.404,1.573,4.43,1.536
		c0.011-0.015,0.002-0.024-0.034-0.014C4.369,1.53,4.339,1.493,4.325,1.476C4.313,1.46,4.314,1.458,4.329,1.458
		c0.015,0,0.043-0.013,0.05-0.022c0.007-0.009,0.006-0.02-0.015-0.017C4.344,1.422,4.283,1.392,4.26,1.361
		C4.249,1.346,4.247,1.339,4.266,1.333c0.019-0.006,0.037-0.017,0.05-0.026c0.013-0.009,0.006-0.02-0.018-0.024
		s-0.077-0.032-0.1-0.061C4.189,1.212,4.182,1.201,4.204,1.196C4.227,1.19,4.28,1.153,4.295,1.132
		C4.31,1.112,4.312,1.09,4.269,1.108C4.227,1.127,4.141,1.132,4.091,1.121c-0.106-0.05-0.26-0.115-0.32-0.02
		C3.671,1.095,3.55,1.09,3.572,1.214c0.02-0.002,0.031-0.013,0.037-0.026C3.618,1.17,3.648,1.167,3.677,1.177
		c0.025,0.009,0.045,0.022,0.026,0.044C3.694,1.232,3.658,1.237,3.635,1.232C3.613,1.226,3.572,1.22,3.547,1.217
		C3.531,1.215,3.499,1.195,3.484,1.166C3.469,1.137,3.431,1.103,3.407,1.123c-0.024,0.02,0.005,0.055,0.029,0.076
		C3.46,1.221,3.509,1.248,3.535,1.248c0.034,0,0.068,0.008,0.085,0.012c0.009,0.066,0.095,0.095,0.167,0.094
		C3.861,1.351,3.956,1.387,4.044,1.46C4.159,1.554,4.24,1.866,4.046,1.866c-0.121,0-0.102-0.121-0.098-0.19
		c0.004-0.069-0.033-0.143-0.115-0.173C3.751,1.474,3.584,1.416,3.537,1.39C3.519,1.377,3.499,1.423,3.496,1.45
		C3.494,1.468,3.473,1.47,3.414,1.452C3.247,1.4,3.095,1.31,3.022,1.173C2.95,1.035,2.813,1.171,2.881,1.286
		c0.082,0.139,0.355,0.253,0.528,0.275c0.08,0.01,0.08,0.106,0.004,0.117C3.255,1.701,3.1,1.698,3.004,1.573
		C2.93,1.476,2.856,1.563,2.889,1.639c0.069,0.164,0.302,0.232,0.53,0.123C3.472,1.736,3.53,1.74,3.483,1.805
		C3.366,1.967,3.21,1.991,3.015,1.872C2.957,1.836,2.913,1.842,2.9,1.864C2.877,1.903,2.867,1.939,2.933,1.987
		C3.08,2.093,3.25,2.085,3.387,2.015c0.054-0.028,0.152-0.05,0.065,0.065C3.364,2.195,3.141,2.255,3.05,2.189
		C2.959,2.124,2.846,2.184,2.918,2.284c0.072,0.1,0.223,0.074,0.292,0.037c0.069-0.037,0.175-0.087,0.219-0.108
		c0.045-0.021,0.065,0.014,0.015,0.072c-0.113,0.13-0.23,0.239-0.388,0.188C2.965,2.444,2.881,2.44,2.905,2.552
		C2.93,2.663,3.117,2.671,3.21,2.615c0.093-0.056,0.176-0.119,0.232-0.173c0.056-0.054,0.112-0.052,0.05,0.039
		C3.353,2.686,3.234,2.836,3.035,2.797C2.851,2.762,2.897,2.872,2.937,2.907c0.113,0.099,0.312,0.073,0.55-0.219
		c0.019-0.023,0.05-0.016,0.033,0.026C3.415,2.987,3.238,3.163,3.067,3.12C2.978,3.098,2.891,3.148,2.981,3.226
		C3.084,3.316,3.27,3.282,3.403,3.133c0.134-0.149,0.216-0.255,0.245-0.31c0.03-0.056,0.074-0.057,0.069,0.015
		C3.712,2.91,3.658,3.052,3.563,3.098c-0.049,0.024-0.093,0.078,0,0.119c0.093,0.041,0.203-0.124,0.292-0.366
		c0.01-0.028,0.072-0.036,0.071,0.019c-0.002,0.076-0.039,0.139-0.08,0.177C3.805,3.083,3.837,3.146,3.892,3.12
		C3.97,3.085,4.02,3.033,4.05,2.955c0.017-0.043,0.054-0.057,0.033,0.009c-0.063,0.201-0.204,0.297-0.39,0.39
		c0.028,0.028,0.053,0.059,0.078,0.084C3.657,3.497,3.537,3.536,3.442,3.575C3.367,3.525,3.3,3.497,3.267,3.449
		C3.256,3.385,3.178,3.358,3.127,3.385C3.041,3.352,2.98,3.36,2.974,3.441c0.05-0.008,0.092-0.017,0.128,0.017
		c0.017,0.039,0.07,0.059,0.12,0.041c0.056,0.034,0.103,0.067,0.137,0.089c-0.106-0.003-0.184-0.008-0.24-0.014
		C3.066,3.522,3.016,3.522,2.977,3.558C2.913,3.544,2.863,3.574,2.846,3.63C2.894,3.624,2.939,3.607,2.97,3.624
		c0.026,0.048,0.099,0.05,0.145,0.015c0.071-0.002,0.208-0.004,0.24-0.004c-0.046,0.028-0.102,0.061-0.13,0.078
		c-0.11-0.022-0.169,0.02-0.162,0.1C3.037,3.855,3.039,3.912,3.071,3.938c0.007-0.033,0.026-0.076,0.052-0.1
		C3.19,3.851,3.238,3.828,3.259,3.754c0.043-0.028,0.098-0.063,0.121-0.078c0.022-0.015,0.04-0.032,0.091-0.009
		c0.05,0.022,0.097,0.041,0.126,0.057c0.017,0.065,0.08,0.069,0.121,0.039c0.026,0.015,0.048,0.041,0.063,0.069
		c0.024-0.043,0.011-0.1-0.035-0.115C3.729,3.667,3.669,3.65,3.626,3.674C3.591,3.66,3.541,3.635,3.519,3.626
		C3.591,3.6,3.775,3.531,3.84,3.504C3.901,3.55,3.97,3.594,4.02,3.581C4.028,3.537,4.051,3.5,4.082,3.436
		C4.131,3.335,4.192,3.24,4.243,3.182c0.05-0.059,0.101-0.025,0.097,0.056C4.332,3.433,4.188,3.724,3.976,3.735
		C3.903,3.74,3.875,3.754,3.914,3.808c0.037,0.05,0.152,0.057,0.217,0.009C4.195,3.77,4.217,3.773,4.204,3.836
		C4.191,3.899,4.119,3.923,4.065,3.927c-0.078,0.006-0.167,0.034-0.095,0.1c0.073,0.067,0.191,0.03,0.279-0.071
		c0.03-0.035,0.054-0.044,0.052,0.011C4.297,4.064,4.24,4.126,4.18,4.139C4.121,4.152,4.061,4.167,4.078,4.202
		C4.106,4.26,4.199,4.269,4.251,4.241C4.303,4.213,4.359,4.161,4.37,4.13c0.011-0.031,0.034-0.014,0.028,0.03
		C4.385,4.252,4.32,4.25,4.32,4.327c0,0.076,0.063,0.15,0.138,0.234c0.074-0.084,0.138-0.158,0.138-0.234
		c0-0.076-0.065-0.074-0.078-0.167C4.51,4.116,4.533,4.098,4.544,4.13c0.011,0.031,0.067,0.084,0.119,0.112
		C4.715,4.269,4.809,4.26,4.836,4.202c0.017-0.035-0.043-0.05-0.102-0.063c-0.06-0.013-0.117-0.074-0.121-0.171
		C4.611,3.912,4.635,3.922,4.665,3.957c0.087,0.1,0.206,0.138,0.279,0.071c0.073-0.067-0.017-0.095-0.095-0.1
		C4.796,3.923,4.723,3.899,4.71,3.836C4.697,3.773,4.719,3.77,4.783,3.817C4.847,3.865,4.963,3.858,5,3.808
		C5.04,3.754,5.011,3.74,4.938,3.735C4.726,3.724,4.583,3.433,4.574,3.238C4.571,3.157,4.621,3.123,4.672,3.182
		c0.05,0.059,0.112,0.153,0.161,0.255c0.031,0.064,0.054,0.1,0.061,0.145c0.05,0.013,0.119-0.031,0.18-0.078
		C5.139,3.531,5.323,3.6,5.396,3.626C5.373,3.635,5.323,3.66,5.288,3.674C5.245,3.65,5.186,3.667,5.169,3.717
		C5.122,3.732,5.109,3.79,5.134,3.832c0.015-0.028,0.037-0.054,0.063-0.069c0.041,0.03,0.104,0.026,0.121-0.039
		c0.03-0.017,0.076-0.035,0.127-0.057c0.051-0.023,0.068-0.006,0.091,0.009c0.022,0.015,0.078,0.05,0.121,0.078
		c0.021,0.074,0.069,0.096,0.136,0.083c0.026,0.024,0.045,0.067,0.052,0.1c0.031-0.026,0.033-0.083,0.007-0.124
		c0.007-0.08-0.052-0.123-0.162-0.1c-0.028-0.017-0.084-0.05-0.13-0.078c0.031,0,0.169,0.002,0.24,0.004
		c0.047,0.035,0.119,0.033,0.145-0.015c0.031-0.017,0.076,0,0.125,0.006C6.052,3.574,6.002,3.544,5.937,3.558
		C5.898,3.522,5.848,3.522,5.795,3.575c-0.056,0.006-0.134,0.011-0.24,0.014c0.034-0.022,0.081-0.056,0.137-0.089
		c0.05,0.017,0.103-0.003,0.12-0.041C5.848,3.424,5.89,3.433,5.94,3.441C5.935,3.36,5.873,3.352,5.787,3.385
		c-0.05-0.028-0.128,0-0.139,0.064C5.614,3.497,5.547,3.525,5.472,3.575C5.377,3.536,5.257,3.497,5.143,3.438
		c0.025-0.025,0.05-0.056,0.078-0.084c-0.186-0.093-0.327-0.189-0.39-0.39C4.81,2.898,4.847,2.913,4.864,2.955
		c0.031,0.078,0.08,0.13,0.158,0.165c0.055,0.025,0.087-0.037,0.047-0.074c-0.041-0.037-0.078-0.1-0.08-0.177
		c-0.001-0.054,0.06-0.047,0.071-0.019c0.089,0.242,0.199,0.407,0.292,0.366c0.093-0.041,0.049-0.095,0-0.119
		C5.256,3.052,5.203,2.91,5.197,2.838C5.191,2.766,5.236,2.767,5.265,2.823c0.03,0.056,0.112,0.162,0.245,0.31
		c0.134,0.149,0.32,0.182,0.422,0.093c0.09-0.079,0.003-0.128-0.085-0.106C5.676,3.163,5.5,2.987,5.394,2.714
		C5.378,2.671,5.409,2.665,5.427,2.688c0.238,0.292,0.437,0.318,0.55,0.219c0.04-0.034,0.086-0.145-0.098-0.109
		C5.68,2.836,5.561,2.686,5.422,2.481C5.36,2.39,5.416,2.388,5.472,2.442c0.056,0.054,0.139,0.117,0.232,0.173
		c0.093,0.056,0.28,0.048,0.305-0.063c0.024-0.112-0.06-0.108-0.151-0.078C5.7,2.525,5.583,2.416,5.47,2.286
		C5.419,2.228,5.44,2.193,5.485,2.214c0.045,0.02,0.151,0.071,0.219,0.108c0.069,0.037,0.219,0.063,0.292-0.037
		c0.073-0.1-0.041-0.16-0.132-0.095C5.773,2.255,5.55,2.195,5.463,2.08C5.375,1.965,5.474,1.987,5.528,2.015
		c0.137,0.071,0.307,0.078,0.454-0.028c0.067-0.048,0.056-0.084,0.033-0.123C6.002,1.842,5.957,1.836,5.899,1.872
		c-0.195,0.12-0.351,0.095-0.468-0.067C5.384,1.74,5.442,1.736,5.496,1.762c0.228,0.11,0.461,0.041,0.53-0.123
		c0.032-0.077-0.041-0.164-0.115-0.067C5.814,1.698,5.659,1.701,5.501,1.678C5.426,1.668,5.425,1.572,5.505,1.561
		c0.173-0.022,0.446-0.136,0.528-0.275c0.068-0.116-0.069-0.251-0.141-0.113S5.667,1.4,5.5,1.452C5.441,1.47,5.42,1.468,5.418,1.45
		C5.415,1.423,5.396,1.377,5.377,1.39C5.331,1.416,5.163,1.474,5.082,1.504C5,1.533,4.963,1.608,4.967,1.677
		c0.004,0.069,0.022,0.19-0.099,0.19c-0.193,0-0.112-0.312,0.002-0.407c0.088-0.073,0.184-0.108,0.257-0.106
		C5.199,1.355,5.285,1.325,5.294,1.26c0.017-0.004,0.051-0.012,0.085-0.012c0.026,0,0.075-0.027,0.1-0.048
		c0.024-0.021,0.053-0.056,0.028-0.076C5.483,1.103,5.445,1.137,5.43,1.166C5.415,1.195,5.383,1.215,5.367,1.217
		C5.343,1.22,5.301,1.226,5.279,1.232s-0.058,0-0.068-0.011C5.193,1.199,5.213,1.186,5.238,1.177
		c0.028-0.01,0.058-0.007,0.067,0.011c0.006,0.013,0.017,0.024,0.037,0.026C5.364,1.09,5.243,1.095,5.143,1.101
		c-0.06-0.095-0.214-0.03-0.32,0.02c-0.05,0.011-0.136,0.006-0.178-0.013C4.602,1.09,4.604,1.112,4.619,1.132
		C4.634,1.153,4.688,1.19,4.71,1.196c0.023,0.006,0.015,0.017,0.008,0.026C4.694,1.251,4.641,1.279,4.617,1.283
		C4.593,1.287,4.585,1.298,4.598,1.307c0.013,0.009,0.032,0.02,0.05,0.026c0.018,0.006,0.017,0.013,0.006,0.028
		C4.631,1.392,4.57,1.422,4.55,1.419C4.53,1.415,4.528,1.426,4.535,1.435c0.007,0.009,0.035,0.022,0.05,0.022
		c0.015,0,0.016,0.003,0.004,0.019C4.576,1.493,4.545,1.53,4.519,1.523c-0.036-0.01-0.045-0.001-0.034,0.014
		C4.51,1.573,4.509,1.588,4.457,1.597L4.457,1.597z"/>
	<path id="_148171544" fill="#CF1327" d="M3.965,1.181C3.934,1.165,3.9,1.16,3.874,1.171
		C3.848,1.183,3.842,1.209,3.872,1.218s0.069,0.009,0.089,0.004C3.981,1.216,3.991,1.194,3.965,1.181L3.965,1.181z"/>
	<path id="_148172312" fill="#CF1327" d="M4.949,1.181C4.98,1.165,5.015,1.16,5.041,1.171
		c0.026,0.011,0.031,0.037,0.001,0.046c-0.03,0.009-0.068,0.009-0.089,0.004C4.933,1.216,4.924,1.194,4.949,1.181L4.949,1.181z"/>
</g>
</svg>
