<?xml version="1.0" encoding="utf-8"?>
<!-- Generator: Adobe Illustrator 16.0.0, SVG Export Plug-In . SVG Version: 6.00 Build 0)  -->
<!DOCTYPE svg PUBLIC "-//W3C//DTD SVG 1.1//EN" "http://www.w3.org/Graphics/SVG/1.1/DTD/svg11.dtd">
<svg version="1.1" id="Ebene_1" xmlns="http://www.w3.org/2000/svg" xmlns:xlink="http://www.w3.org/1999/xlink" x="0px" y="0px"
	 width="24px" height="15px" viewBox="0 0 24 15" enable-background="new 0 0 24 15" xml:space="preserve">
	 
	 <!--
		@author		Alexander Ebert
		@copyright	2001-2013 WoltLab GmbH 
		@license	Public Domain
		
		This is a modified version of https://en.wikipedia.org/wiki/File:Flag_of_Belarus.svg (20:40, 7 June 2012)
	 -->
	 
<rect id="red" fill="#C9323F" width="24" height="15"/>
<rect id="grn" y="10" fill="#4AA657" width="24" height="5"/>
<rect id="bg" fill="#FFFFFF" width="2.667" height="15"/>
<path id="orn" fill="#C9323F" d="M0,14.752h0.117v-0.124v-0.125H0v0.125V14.752z M0,14.019h0.117
	v0.124v0.125h0.117v0.111v0.124h0.117v0.125v0.124h0.117v0.123V15h0.105H0.69h0.117v-0.125v-0.124h0.117v-0.123v-0.125h0.117v-0.124
	v-0.111h0.117v-0.125v-0.124h0.117v-0.124v-0.124H1.158v-0.124v-0.125H1.041v-0.123v-0.125H0.924v-0.111v-0.125H0.807v-0.123v-0.125
	H0.69v-0.124v-0.124H0.573v0.124v0.124H0.468v0.125v0.123H0.351v0.125v0.111H0.234v0.125v0.123H0.117v0.125v0.124H0v0.124V14.019
	L0,14.019z M0,13.273h0.117v-0.11v-0.125H0v0.125V13.273z M0,12.293h0.117v0.124v0.124h0.117v0.125v0.125h0.117v-0.125v-0.125h0.117
	v-0.124v-0.124h0.105v-0.124v-0.124H0.468V11.92v-0.111H0.351v-0.124v-0.124H0.234v0.124v0.124H0.117v0.111v0.125H0v0.124V12.293z
	 M0,11.313h0.117v-0.125v-0.124H0v0.124V11.313z M0,10.58h0.117v0.123v0.112h0.117v0.124v0.125h0.117v0.123v0.125h0.117v0.124v0.125
	h0.105v0.123v0.124H0.69v-0.124v-0.123h0.117v-0.125v-0.124h0.117v-0.125v-0.123h0.117v-0.125v-0.124h0.117v-0.112V10.58h0.117
	v-0.125v-0.124h0.117v0.124v0.125h0.117v0.123v0.112h0.117v0.124v0.125h0.117v0.123v0.125H1.86v0.124v0.125h0.105v0.123v0.124h0.117
	v-0.124v-0.123h0.117v-0.125v-0.124h0.117v-0.125v-0.123h0.117v-0.125v-0.124H2.55v-0.112V10.58h0.117v-0.125v-0.124v-0.124v-0.124
	H2.55V9.959V9.834H2.433V9.711V9.586H2.316V9.462V9.337H2.199v0.125v0.124H2.082v0.125v0.123H1.965v0.125v0.124h0.117h0.117v0.124
	v0.124H2.082H1.965H1.859v-0.124v-0.124H1.743V9.959V9.834H1.625V9.711V9.586h0.117V9.462V9.337h0.117v-0.11V9.102h0.105V8.977
	V8.854h0.117V8.729V8.604h0.117V8.48V8.357h0.117V8.48v0.124h0.117v0.125v0.124H2.55v0.123v0.125h0.117V8.977V8.854V8.729V8.604
	V8.48V8.357H2.55V8.244V8.12H2.433V7.997V7.872H2.316V7.749V7.625H2.199V7.5V7.376h0.117V7.251V7.128h0.117V7.003V6.879H2.55V6.755
	V6.643h0.117V6.519V6.395V6.271V6.146V6.022V5.898H2.55v0.125v0.124H2.433v0.124v0.124H2.316v0.125v0.124H2.199V6.519V6.395H2.082
	V6.271V6.146H1.965V6.022V5.898H1.859V5.774V5.662H1.743V5.538V5.414H1.625V5.289V5.166h0.117V5.041V4.917h0.117V4.792V4.668h0.105
	h0.117h0.117v0.124v0.125H2.082H1.965v0.124v0.125h0.117v0.124v0.125h0.117v0.124v0.125h0.117V5.538V5.414h0.117V5.289V5.166H2.55
	V5.041V4.917h0.117V4.792V4.668V4.545V4.42H2.55V4.296V4.185H2.433V4.06V3.936H2.316V3.812V3.688H2.199V3.563V3.439H2.082V3.315
	V3.191H1.965v0.124v0.125H1.859v0.124v0.124H1.743v0.124v0.125H1.625V4.06v0.125H1.509v0.112V4.42H1.392v0.125v0.124H1.275V4.545
	V4.42H1.158V4.296V4.185H1.041V4.06V3.936H0.924V3.812V3.688H0.807V3.563V3.439H0.69V3.315V3.191H0.573v0.124v0.125H0.468v0.124
	v0.124H0.351v0.124v0.125H0.234V4.06v0.125H0.117v0.112V4.42H0v0.125v0.124v0.124v0.125h0.117v0.124v0.125h0.117v0.124v0.125h0.117
	v0.124v0.125h0.117V5.538V5.414h0.105V5.289V5.166H0.69V5.041V4.917H0.573H0.468V4.792V4.668h0.105H0.69h0.117v0.124v0.125h0.117
	v0.124v0.125h0.117v0.124v0.125H0.924v0.124v0.125H0.807v0.112v0.124H0.69v0.125v0.124H0.573v0.124v0.124H0.468v0.118v0.006v0.124
	H0.351V6.519V6.513V6.395H0.234V6.271V6.146H0.117V6.022V5.898H0v0.125v0.124v0.124v0.124v0.125v0.124h0.117v0.112v0.125h0.117
	v0.124v0.125h0.117v0.124v0.125h0.117V7.5v0.125H0.351v0.124v0.123H0.234v0.125V8.12H0.117v0.124v0.113H0v0.124v0.124v0.124v0.124
	v0.125v0.123h0.117V8.979V8.854h0.117V8.729V8.605h0.117V8.487V8.481V8.357h0.117v0.124v0.006v0.118h0.105v0.124v0.124H0.69v0.125
	v0.123h0.117v0.125v0.111h0.117v0.125v0.123h0.117v0.125v0.124H0.924v0.124v0.124H0.807v0.124v0.125H0.69H0.573H0.468v-0.125v-0.124
	h0.105H0.69V9.959V9.835H0.573V9.711V9.586H0.468V9.463V9.338H0.351v0.125v0.123H0.234v0.125v0.124H0.117v0.124v0.124H0v0.124v0.125
	v0.123V10.58L0,10.58L0,10.58z M0,9.586h0.117V9.462V9.337H0v0.125V9.586z M0,5.662h0.117V5.538V5.414H0v0.124V5.662z M0,3.936
	h0.117V3.813V3.688H0v0.125V3.936z M0,2.955h0.117v0.124v0.112h0.117v0.124V3.44h0.117V3.315V3.191h0.117V3.079V2.955h0.105V2.832
	V2.707H0.468V2.583V2.458H0.351V2.334V2.21H0.234v0.125v0.124H0.117v0.125v0.124H0v0.125V2.955L0,2.955z M0,1.962h0.117V1.838V1.726
	H0v0.112V1.962L0,1.962z M0,1.229h0.117v0.124v0.124h0.117v0.124v0.125h0.117v0.112v0.124h0.117v0.124V2.21h0.105v0.125v0.124H0.69
	V2.334V2.21h0.117V2.086V1.962h0.117V1.838V1.726h0.117V1.602V1.478h0.117V1.354V1.229h0.117V1.105V0.981H1.158V0.857V0.732H1.041
	V0.621V0.497H0.924V0.372V0.249H0.807V0.125V0H0.69H0.573H0.468v0.125v0.124H0.351v0.124v0.125H0.234v0.124v0.112H0.117v0.125v0.124
	H0v0.125V1.229L0,1.229z M0,0.497h0.117V0.372V0.249H0v0.124V0.497z M0.234,12.293v-0.124v-0.124h0.117v0.124v0.124H0.234z
	 M0.234,2.955V2.832V2.707h0.117v0.125v0.124H0.234z M0.351,14.019v-0.123v-0.125h0.117v-0.124v-0.125h0.105v-0.123v-0.125H0.69
	v0.125v0.123h0.117v0.125v0.124h0.117v0.125v0.123H0.807v0.124v0.125H0.69v0.111v0.124H0.573v-0.124v-0.111H0.468v-0.125v-0.124
	H0.351z M0.351,1.229V1.105V0.981h0.117V0.857V0.732h0.105V0.621V0.497H0.69v0.124v0.112h0.117v0.125v0.124h0.117v0.125v0.124H0.807
	v0.124v0.124H0.69v0.125v0.124H0.573V1.602V1.478H0.468V1.354V1.229H0.351L0.351,1.229z M0.573,14.019H0.69v-0.123v-0.125H0.573
	v0.125V14.019z M0.573,1.229H0.69V1.105V0.981H0.573v0.125V1.229z M0.69,12.293h0.117v0.124v0.124h0.117v0.125v0.125h0.117v-0.125
	v-0.125h0.117v-0.124v-0.124h0.117v-0.124v-0.124H1.158V11.92v-0.111H1.041v-0.124v-0.124H0.924v0.124v0.124H0.807v0.111v0.125H0.69
	v0.124V12.293z M0.69,8.12V7.997V7.872V7.749V7.625V7.5V7.376V7.251V7.128V7.003V6.879h0.117V6.755V6.643h0.117V6.519V6.395h0.117
	V6.271V6.146h0.117V6.022V5.898h0.117V5.774V5.662h0.117v0.112v0.124h0.117v0.125v0.124h0.117v0.124v0.124h0.117v0.125v0.124H1.86
	v0.112v0.125h0.105v0.124v0.125v0.124v0.125V7.5v0.125v0.124v0.123v0.125V8.12H1.86v0.124v0.113H1.743v0.124v0.124H1.626v0.124
	v0.124H1.509v0.125v0.123H1.392v0.125v0.111H1.275V9.227V9.102H1.158V8.979V8.854H1.041V8.729V8.605H0.924V8.481V8.357H0.807V8.244
	V8.12H0.69L0.69,8.12z M0.69,2.955h0.117v0.124v0.112h0.117v0.124V3.44h0.117V3.315V3.191h0.117V3.079V2.955h0.117V2.832V2.707
	H1.158V2.583V2.458H1.041V2.334V2.21H0.924v0.125v0.124H0.807v0.125v0.124H0.69v0.125V2.955z M0.831,7.625h0.117V7.5V7.376H0.831
	V7.5V7.625z M0.924,12.293v-0.124v-0.124h0.117v0.124v0.124H0.924z M0.924,2.955V2.832V2.707h0.117v0.125v0.124H0.924z M1.041,8.357
	h0.117V8.244V8.12h0.117V7.997V7.872h0.117v0.125V8.12h0.117v0.124v0.113h0.117V8.244V8.12V7.997V7.872H1.509V7.749V7.625H1.392V7.5
	V7.376h0.117V7.251V7.128h0.117V7.003V6.879V6.755V6.643H1.509v0.112v0.125H1.392v0.124v0.125H1.275V7.003V6.879H1.158V6.755V6.643
	H1.041v0.112v0.125v0.124v0.125h0.117v0.124v0.125h0.117V7.5v0.125H1.158v0.124v0.123H1.041v0.125V8.12v0.124V8.357z M1.275,15
	h0.117v-0.125v-0.124v-0.123v-0.125H1.275v0.125v0.123v0.124V15z M1.275,13.273h0.117v-0.11v-0.125v-0.124v-0.125H1.275v0.125v0.124
	v0.125V13.273z M1.275,11.561h0.117v-0.124v-0.124v-0.125v-0.124H1.275v0.124v0.125v0.124V11.561z M1.275,8.854h0.117V8.729V8.604
	H1.275v0.125V8.854z M1.275,6.395h0.117V6.271V6.146H1.275v0.124V6.395z M1.275,3.936h0.117V3.813V3.688V3.564V3.439H1.275v0.125
	v0.124v0.125V3.936z M1.275,2.21h0.117V2.086V1.962V1.838V1.726H1.275v0.112v0.124v0.124V2.21z M1.275,0.497h0.117V0.372V0.249
	V0.125V0H1.275v0.125v0.124v0.124V0.497z M1.392,14.019h0.117v0.124v0.125h0.117v0.111v0.124h0.117v0.125v0.124H1.86v0.123V15h0.105
	h0.117h0.117v-0.125v-0.124h0.117v-0.123v-0.125h0.117v-0.124v-0.111H2.55v-0.125v-0.124h0.117v-0.124v-0.124H2.55v-0.124v-0.125
	H2.433v-0.123v-0.125H2.316v-0.111v-0.125H2.199v-0.123v-0.125H2.082v-0.124v-0.124H1.965v0.124v0.124H1.859v0.125v0.123H1.743
	v0.125v0.111H1.625v0.125v0.123H1.509v0.125v0.124H1.392v0.124L1.392,14.019L1.392,14.019L1.392,14.019z M1.392,12.293h0.117v0.124
	v0.124h0.117v0.125v0.125h0.117v-0.125v-0.125H1.86v-0.124v-0.124h0.105v-0.124v-0.124H1.86V11.92v-0.111H1.743v-0.124v-0.124H1.626
	v0.124v0.124H1.509v0.111v0.125H1.392v0.124V12.293z M1.392,2.955h0.117v0.124v0.112h0.117v0.124V3.44h0.117V3.315V3.191H1.86V3.079
	V2.955h0.105V2.832V2.707H1.86V2.583V2.458H1.743V2.334V2.21H1.626v0.125v0.124H1.509v0.125v0.124H1.392v0.125V2.955z M1.392,1.229
	h0.117v0.124v0.124h0.117v0.124v0.125h0.117v0.112v0.124H1.86v0.124V2.21h0.105v0.125v0.124h0.117V2.334V2.21h0.117V2.086V1.962
	h0.117V1.838V1.726h0.117V1.602V1.478H2.55V1.354V1.229h0.117V1.105V0.981H2.55V0.857V0.732H2.433V0.621V0.497H2.316V0.372V0.249
	H2.199V0.125V0H2.082H1.965H1.859v0.125v0.124H1.743v0.124v0.125H1.625v0.124v0.112H1.509v0.125v0.124H1.392v0.125L1.392,1.229
	L1.392,1.229L1.392,1.229z M1.626,12.293v-0.124v-0.124h0.117v0.124v0.124H1.626z M1.626,2.955V2.832V2.707h0.117v0.125v0.124H1.626
	z M1.719,7.625h0.117V7.5V7.376H1.719V7.5V7.625z M1.743,14.019v-0.123v-0.125H1.86v-0.124v-0.125h0.105v-0.123v-0.125h0.117v0.125
	v0.123h0.117v0.125v0.124h0.117v0.125v0.123H2.199v0.124v0.125H2.082v0.111v0.124H1.965v-0.124v-0.111H1.86v-0.125v-0.124H1.743z
	 M1.743,1.229V1.105V0.981H1.86V0.857V0.732h0.105V0.621V0.497h0.117v0.124v0.112h0.117v0.125v0.124h0.117v0.125v0.124H2.199v0.124
	v0.124H2.082v0.125v0.124H1.965V1.602V1.478H1.86V1.354V1.229H1.743L1.743,1.229z M1.965,14.019h0.117v-0.123v-0.125H1.965v0.125
	V14.019z M1.965,1.229h0.117V1.105V0.981H1.965v0.125V1.229z M2.082,12.293h0.117v0.124v0.124h0.117v0.125v0.125h0.006h0.111v-0.125
	v-0.125H2.55v-0.124v-0.124h0.117v-0.124v-0.124H2.55V11.92v-0.111H2.433v-0.124v-0.124H2.316v0.124v0.124H2.199v0.111v0.125H2.082
	v0.124V12.293L2.082,12.293z M2.082,2.955h0.117v0.124v0.112h0.117v0.124V3.44h0.117V3.315V3.191H2.55V3.079V2.955h0.117V2.832
	V2.707H2.55V2.583V2.458H2.433V2.334V2.21H2.322H2.316v0.125v0.124H2.199v0.125v0.124H2.082v0.125V2.955L2.082,2.955z M2.316,12.293
	v-0.124v-0.124h0.117v0.124v0.124H2.316z M2.316,2.955V2.832V2.707h0.117v0.125v0.124H2.316z M2.55,14.752h0.117v-0.124v-0.125H2.55
	v0.125V14.752z M2.55,13.273h0.117v-0.11v-0.125H2.55v0.125V13.273z M2.55,11.313h0.117v-0.125v-0.124H2.55v0.124V11.313z
	 M2.55,9.586h0.117V9.462V9.337H2.55v0.125V9.586z M2.55,5.662h0.117V5.538V5.414H2.55v0.124V5.662z M2.55,3.936h0.117V3.813V3.688
	H2.55v0.125V3.936z M2.55,1.962h0.117V1.838V1.726H2.55v0.112V1.962z M2.55,0.497h0.117V0.372V0.249H2.55v0.124V0.497L2.55,0.497z"
	/>
</svg>
