<?xml version="1.0" encoding="utf-8"?>
<!-- Generator: Adobe Illustrator 16.0.0, SVG Export Plug-In . SVG Version: 6.00 Build 0)  -->
<!DOCTYPE svg PUBLIC "-//W3C//DTD SVG 1.1//EN" "http://www.w3.org/Graphics/SVG/1.1/DTD/svg11.dtd">
<svg version="1.1" id="Ebene_1" xmlns="http://www.w3.org/2000/svg" xmlns:xlink="http://www.w3.org/1999/xlink" x="0px" y="0px"
	 width="24px" height="15px" viewBox="0 0 24 15" enable-background="new 0 0 24 15" xml:space="preserve">
	 
	 <!--
		@author		Alexander Ebert
		@copyright	2001-2013 WoltLab GmbH 
		@license	Public Domain
	 -->
	 
<g>
	<rect fill="#DE2A14" width="24" height="15"/>
	<polygon fill="#FFDE04" points="3.75,1.5 4.278,3.223 6,3.219 4.604,4.279 5.141,6 3.75,4.933 2.359,6 2.895,4.279 1.5,3.219 
		3.222,3.223 	"/>
	<polygon fill="#FFDE04" points="7.72,0.716 7.689,1.315 8.229,1.511 7.67,1.684 7.642,2.284 7.329,1.791 6.771,1.967 7.135,1.489 
		6.819,0.998 7.358,1.195 	"/>
	<polygon fill="#FFDE04" points="8.692,2.223 9.094,2.668 9.614,2.425 9.342,2.941 9.746,3.386 9.176,3.26 8.906,3.777 8.825,3.183 
		8.254,3.059 8.775,2.817 	"/>
	<polygon fill="#FFDE04" points="9,4.5 9.176,5.074 9.75,5.073 9.285,5.427 9.463,6 9,5.645 8.537,6 8.715,5.427 8.25,5.073 
		8.824,5.074 	"/>
	<polygon fill="#FFDE04" points="7.72,5.966 7.689,6.565 8.229,6.761 7.67,6.934 7.642,7.534 7.329,7.041 6.771,7.217 7.135,6.739 
		6.819,6.248 7.358,6.445 	"/>
</g>
</svg>
