<?xml version="1.0" encoding="utf-8"?>
<!-- Generator: Adobe Illustrator 16.0.0, SVG Export Plug-In . SVG Version: 6.00 Build 0)  -->
<!DOCTYPE svg PUBLIC "-//W3C//DTD SVG 1.1//EN" "http://www.w3.org/Graphics/SVG/1.1/DTD/svg11.dtd">
<svg version="1.1" id="Ebene_1" xmlns="http://www.w3.org/2000/svg" xmlns:xlink="http://www.w3.org/1999/xlink" x="0px" y="0px"
	 width="24px" height="15px" viewBox="0 0 24 15" enable-background="new 0 0 24 15" xml:space="preserve">
	 
	 <!--
		@author		Alexander Ebert
		@copyright	2001-2013 WoltLab GmbH 
		@license	Public Domain
		
		This is a modified version of https://en.wikipedia.org/wiki/File:Flag_of_Iran.svg (09:36, 27 June 2012)
	 -->
	 
<rect fill="#219F3F" width="24" height="5"/>
<rect y="10" fill="#DA0E15" width="24" height="5"/>
<rect y="5" fill="#FFFFFF" width="24" height="5"/>
<g id="h" transform="scale(225)">
	<path fill="#DA0E15" d="M0.053,0.026c0,0,0.001,0.001,0.001,0.001v0.005l0,0.009L0.053,0.042l0,0L0.053,0.026z M0.048,0.041
		c0.005,0,0.009-0.004,0.009-0.009c0-0.002,0-0.004-0.002-0.005C0.06,0.03,0.06,0.035,0.057,0.038
		C0.055,0.041,0.052,0.042,0.048,0.041 M0.059,0.039c0.003-0.004,0.002-0.01-0.002-0.013c0,0,0,0,0,0
		c0.004,0.001,0.006,0.005,0.005,0.008C0.062,0.037,0.061,0.038,0.059,0.039 M0.053,0.026c0,0.001,0.001,0.001,0.002,0
		c0.001,0,0.001-0.001,0.001-0.002C0.055,0.025,0.055,0.026,0.053,0.026C0.054,0.025,0.054,0.025,0.053,0.026L0.053,0.026z"/>
</g>
<g id="h_1_" transform="scale(225)">
	<path fill="#DA0E15" d="M0.053,0.026c0,0-0.001,0.001-0.001,0.001v0.005l0,0.009l0.001,0.001l0,0L0.053,0.026z M0.058,0.041
		c-0.005,0-0.009-0.004-0.009-0.009c0-0.002,0-0.004,0.002-0.005C0.047,0.03,0.047,0.035,0.049,0.038
		C0.052,0.041,0.055,0.042,0.058,0.041 M0.048,0.039C0.045,0.035,0.046,0.03,0.05,0.027c0,0,0,0,0,0
		C0.046,0.027,0.044,0.031,0.045,0.035C0.045,0.037,0.046,0.038,0.048,0.039 M0.053,0.026c0,0.001-0.001,0.001-0.002,0
		c-0.001,0-0.001-0.001-0.001-0.002C0.051,0.025,0.052,0.026,0.053,0.026C0.053,0.025,0.053,0.025,0.053,0.026L0.053,0.026z"/>
</g>
</svg>
