<?xml version="1.0" encoding="utf-8"?>
<!-- Generator: Adobe Illustrator 16.0.0, SVG Export Plug-In . SVG Version: 6.00 Build 0)  -->
<!DOCTYPE svg PUBLIC "-//W3C//DTD SVG 1.1//EN" "http://www.w3.org/Graphics/SVG/1.1/DTD/svg11.dtd">
<svg version="1.1" id="Ebene_1" xmlns="http://www.w3.org/2000/svg" xmlns:xlink="http://www.w3.org/1999/xlink" x="0px" y="0px"
	 width="24px" height="15px" viewBox="0 0 24 15" enable-background="new 0 0 24 15" xml:space="preserve">
	 
	 <!--
		@author		Alexander Ebert
		@copyright	2001-2013 WoltLab GmbH 
		@license	Public Domain
		
		Note: This is a modified version of https://en.wikipedia.org/wiki/File:Flag_of_Saudi_Arabia.svg (03:46, 10 November 2011)
	 -->
	 
<rect fill="#036D36" width="24" height="15"/>
<path fill="#FFFFFF" d="M10.448,3.543c-0.011,0-0.029,0.006-0.053,0.021c-0.055,0.037-0.164,0.15-0.167,0.28
	c-0.003,0.074-0.017,0.073,0.031,0.12c0.035,0.05,0.069,0.045,0.14,0.008c0.04-0.03,0.054-0.049,0.067-0.099
	c0.017-0.083-0.088,0.04-0.101-0.053c-0.023-0.086,0.043-0.122,0.106-0.205C10.473,3.576,10.474,3.543,10.448,3.543z M11.47,3.548
	c-0.02,0.003-0.043,0.028-0.077,0.088C11.37,3.7,11.267,3.795,11.341,3.993c0.061,0.125,0.086,0.329,0.058,0.555
	c-0.042,0.064-0.052,0.086-0.107,0.151c-0.077,0.083-0.161,0.062-0.226,0.031c-0.061-0.041-0.107-0.061-0.135-0.19
	c0.005-0.206,0.017-0.542-0.021-0.613c-0.055-0.11-0.146-0.071-0.186-0.038c-0.188,0.171-0.28,0.461-0.336,0.691
	c-0.052,0.168-0.107,0.119-0.146,0.052c-0.095-0.089-0.102-0.783-0.216-0.668c-0.183,0.523,0.105,1.096,0.305,1.041
	c0.144,0.06,0.235-0.214,0.294-0.515c0.041-0.084,0.071-0.094,0.092-0.051c-0.005,0.399,0.029,0.488,0.131,0.609
	c0.229,0.177,0.418,0.022,0.433,0.008c0.015-0.015,0.178-0.178,0.178-0.178c0.04-0.042,0.092-0.044,0.148-0.008
	c0.055,0.05,0.048,0.135,0.164,0.194c0.098,0.039,0.308,0.009,0.357-0.075c0.064-0.112,0.081-0.15,0.111-0.193
	c0.047-0.062,0.127-0.035,0.127-0.015c-0.008,0.035-0.055,0.069-0.023,0.131c0.056,0.042,0.068,0.015,0.102,0.005
	c0.116-0.055,0.203-0.307,0.203-0.307c0.006-0.094-0.048-0.087-0.082-0.068c-0.045,0.027-0.048,0.037-0.092,0.064
	c-0.057,0.008-0.167,0.046-0.222-0.039c-0.056-0.101-0.056-0.243-0.099-0.345c0-0.008-0.074-0.161-0.006-0.171
	c0.035,0.006,0.109,0.026,0.121-0.037c0.037-0.061-0.078-0.233-0.156-0.319c-0.068-0.075-0.161-0.083-0.252-0.008
	c-0.063,0.059-0.054,0.124-0.066,0.186c-0.017,0.071-0.013,0.159,0.059,0.253c0.063,0.125,0.179,0.285,0.141,0.512
	c0,0-0.067,0.108-0.185,0.094c-0.049-0.011-0.129-0.032-0.171-0.346c-0.032-0.238,0.008-0.571-0.093-0.727
	C11.522,3.601,11.503,3.544,11.47,3.548z M11.147,3.574c-0.031,0.002-0.064,0.038-0.092,0.107c-0.024,0.052-0.053,0.325-0.048,0.325
	c-0.019,0.082,0.085,0.116,0.132,0.011c0.071-0.191,0.071-0.273,0.076-0.354C11.204,3.601,11.177,3.571,11.147,3.574z M12.342,3.595
	c-0.031,0.003-0.057,0.021-0.066,0.067c-0.012,0.109-0.006,0.168,0.012,0.259c0.015,0.061,0.103,0.162,0.146,0.221
	c0.206,0.278,0.405,0.557,0.598,0.846c0.03,0.215,0.053,0.425,0.066,0.634c0.031,0.458,0.041,1.029,0.013,1.513
	c0.086,0.003,0.224-0.139,0.271-0.348c0.031-0.288-0.011-0.875-0.014-1.045c-0.002-0.07-0.007-0.155-0.012-0.243
	c0.224,0.365,0.44,0.752,0.653,1.177c0.078-0.036,0.061-0.474,0.016-0.535c-0.171-0.367-0.406-0.729-0.481-0.868
	c-0.027-0.05-0.119-0.19-0.229-0.353c-0.021-0.231-0.042-0.427-0.057-0.485c-0.035-0.244,0.101,0.027,0.082-0.115
	c-0.044-0.244-0.179-0.409-0.338-0.633c-0.051-0.072-0.05-0.087-0.129,0.018c-0.048,0.107-0.047,0.196-0.033,0.28
	c-0.021-0.03-0.047-0.066-0.083-0.111c-0.138-0.118-0.146-0.124-0.26-0.22C12.462,3.63,12.394,3.591,12.342,3.595z M15.881,3.632
	c-0.015-0.002-0.031,0.005-0.05,0.033c-0.036,0.032-0.075,0.088-0.073,0.162c0.009,0.128,0.031,0.26,0.04,0.389
	c0.003,0.018,0.006,0.035,0.01,0.052c-0.015-0.018-0.026-0.031-0.033-0.039c-0.251-0.263,0.115-0.043-0.048-0.247
	c-0.138-0.151-0.179-0.199-0.296-0.291c-0.06-0.038-0.096-0.111-0.114,0.013C15.309,3.813,15.3,3.94,15.308,4.032
	c-0.001,0.051,0.053,0.147,0.099,0.204c0.167,0.206,0.338,0.424,0.51,0.653c0.036,0.465,0.046,0.892,0.082,1.358
	c-0.005,0.199-0.066,0.464-0.124,0.489c0,0-0.089,0.052-0.148-0.005c-0.043-0.018-0.216-0.288-0.216-0.288
	c-0.088-0.081-0.146-0.058-0.21,0c-0.173,0.168-0.251,0.48-0.369,0.697c-0.03,0.047-0.116,0.088-0.211-0.004
	c-0.241-0.33-0.101-0.8-0.13-0.679c-0.216,0.242-0.12,0.644-0.071,0.73c0.07,0.143,0.128,0.232,0.266,0.303
	c0.126,0.093,0.224,0.035,0.277-0.029c0.127-0.131,0.129-0.467,0.188-0.533c0.042-0.121,0.146-0.101,0.197-0.047
	c0.049,0.071,0.107,0.117,0.18,0.156c0.118,0.104,0.259,0.123,0.397,0.027c0.095-0.053,0.156-0.121,0.212-0.258
	c0.06-0.16,0.03-0.995,0.018-1.459c0.089,0.125,0.177,0.253,0.264,0.383c0.039,0.408,0.056,0.809,0.043,1.195
	c-0.009,0.076,0.268-0.229,0.266-0.373c-0.001-0.127,0-0.242,0-0.348c0.134,0.214,0.264,0.431,0.387,0.651
	c0.075-0.039,0.05-0.47,0.002-0.529c-0.129-0.215-0.293-0.448-0.421-0.628c-0.024-0.228-0.059-0.496-0.074-0.578
	c-0.024-0.128-0.049-0.32-0.086-0.473c-0.01-0.059-0.04-0.249-0.03-0.267c0.015-0.042,0.071,0.001,0.099-0.048
	c0.042-0.045-0.145-0.528-0.238-0.666c-0.034-0.062-0.096-0.041-0.172,0.06c-0.07,0.066-0.045,0.217-0.018,0.36
	c0.069,0.365,0.132,0.737,0.182,1.108c-0.092-0.136-0.203-0.301-0.313-0.459c-0.003-0.016-0.014-0.071-0.014-0.072
	c0-0.006-0.016-0.299-0.028-0.369c-0.002-0.028-0.009-0.036,0.021-0.033c0.031,0.026,0.036,0.028,0.056,0.037
	c0.031,0.006,0.06-0.048,0.04-0.098c-0.098-0.181-0.196-0.363-0.294-0.543C15.91,3.646,15.896,3.634,15.881,3.632z M6.745,3.641
	C6.691,3.64,6.631,3.673,6.654,3.739C6.641,3.774,6.761,3.895,6.782,3.961C6.801,4.008,6.763,4.16,6.803,4.174
	c0.036,0.016,0.086-0.105,0.105-0.217c0.01-0.061,0.002-0.27-0.14-0.313C6.761,3.643,6.753,3.642,6.745,3.641L6.745,3.641z
	 M17.152,3.642c-0.013,0.001-0.027,0.021-0.051,0.07c-0.056,0.091-0.074,0.254-0.052,0.398c0.134,0.906,0.233,1.784,0.254,2.586
	c-0.012,0.076-0.016,0.117-0.051,0.213c-0.079,0.102-0.166,0.229-0.249,0.29c-0.082,0.062-0.257,0.12-0.313,0.165
	c-0.182,0.104-0.183,0.225-0.036,0.229c0.253-0.029,0.552-0.05,0.758-0.36c0.055-0.088,0.12-0.324,0.123-0.469
	c0.02-0.847-0.011-1.676-0.138-2.288c-0.009-0.06-0.035-0.197-0.024-0.215c0.016-0.042,0.099,0.004,0.128-0.044
	c0.044-0.044-0.214-0.373-0.304-0.514C17.18,3.669,17.168,3.641,17.152,3.642z M14.503,3.656c-0.01,0.002-0.025,0.018-0.054,0.055
	c-0.071,0.231-0.096,0.419-0.069,0.563c0.182,0.946,0.367,1.808,0.338,2.708c0.086,0,0.186-0.197,0.228-0.392
	C14.969,6.322,14.93,6.158,14.923,6s-0.179-1.44-0.214-1.56c-0.042-0.226,0.168-0.03,0.145-0.161
	c-0.072-0.166-0.253-0.407-0.31-0.551C14.523,3.689,14.521,3.653,14.503,3.656z M8.052,3.674C8.03,3.678,8.008,3.696,8,3.727
	C7.996,3.747,8.009,3.779,7.991,3.79C7.981,3.8,7.942,3.793,7.943,3.738c0-0.018-0.013-0.036-0.021-0.047
	C7.915,3.686,7.91,3.685,7.896,3.685c-0.017,0-0.017,0.005-0.026,0.02C7.865,3.719,7.86,3.733,7.86,3.75
	C7.858,3.77,7.85,3.776,7.835,3.779c-0.016,0-0.012,0.001-0.025-0.007C7.803,3.764,7.793,3.761,7.793,3.746S7.79,3.708,7.785,3.697
	c-0.007-0.009-0.018-0.014-0.03-0.017c-0.067,0-0.072,0.078-0.068,0.107C7.682,3.793,7.679,3.93,7.771,3.968
	c0.124,0.059,0.355,0.034,0.345-0.165c0-0.018-0.003-0.077-0.005-0.093C8.098,3.681,8.074,3.67,8.052,3.674L8.052,3.674z
	 M9.708,3.676C9.665,3.678,9.627,3.69,9.595,3.707C9.514,3.785,9.494,3.911,9.559,3.989c0.063,0.029,0.125,0.092,0.083,0.127
	C9.465,4.306,9.003,4.622,8.98,4.68c0,0-0.001,0.001-0.001,0.001c0,0,0,0.002,0,0.002c0,0,0,0.001,0,0.001c0,0,0,0.001,0.001,0.002
	c0,0,0,0.001,0.001,0.001c0,0,0,0,0.001,0l0,0.001c0,0,0.001,0,0.001,0c0,0,0.001,0.001,0.001,0.001
	C9.008,4.705,9.297,4.705,9.329,4.69c0,0,0-0.001,0.001-0.001h0.001V4.688c0.099-0.037,0.57-0.575,0.57-0.575
	C9.876,4.093,9.854,4.078,9.83,4.057c-0.026-0.022-0.023-0.045,0-0.067c0.117-0.068,0.08-0.217,0.019-0.285
	C9.798,3.682,9.75,3.674,9.708,3.676L9.708,3.676z M14.035,3.678c-0.013,0.001-0.027,0.021-0.051,0.069
	c-0.056,0.091-0.093,0.25-0.089,0.398c0.121,0.834,0.157,1.565,0.236,2.399c0.007,0.08-0.005,0.197-0.059,0.244
	c-0.199,0.207-0.485,0.463-0.796,0.58c-0.034,0.038,0.083,0.199,0.234,0.198c0.252-0.029,0.475-0.171,0.68-0.544
	c0.056-0.088,0.152-0.274,0.155-0.419c0.02-0.847-0.043-1.506-0.17-2.119c-0.008-0.06-0.003-0.13,0.008-0.148
	c0.017-0.02,0.071,0,0.101-0.048c0.044-0.044-0.115-0.41-0.205-0.55C14.063,3.705,14.051,3.676,14.035,3.678z M7.331,3.703
	c-0.035,0.004-0.067,0.032-0.083,0.07C7.242,3.907,7.241,4.041,7.256,4.165c0.061,0.216,0.08,0.406,0.109,0.628
	c0.008,0.297-0.171,0.128-0.163-0.019c0.042-0.191,0.03-0.492-0.006-0.568C7.167,4.129,7.133,4.11,7.062,4.123
	C7.006,4.12,6.86,4.278,6.819,4.541c0,0-0.034,0.135-0.049,0.255c-0.02,0.136-0.11,0.232-0.172-0.019
	C6.544,4.595,6.511,4.146,6.42,4.251c-0.026,0.351-0.057,0.967,0.241,1.03c0.36,0.035,0.161-0.609,0.292-0.726
	c0.024-0.058,0.07-0.059,0.074,0.014c0,0.182,0,0.364,0,0.546C7.023,5.294,7.14,5.347,7.231,5.384
	c0.094-0.007,0.157-0.005,0.194,0.087C7.44,5.786,7.455,6.102,7.47,6.417c0,0,0.218,0.063,0.229-0.531
	c0.01-0.349-0.069-0.642-0.022-0.71c0.001-0.066,0.087-0.07,0.146-0.037c0.094,0.066,0.136,0.148,0.282,0.115
	c0.223-0.062,0.357-0.169,0.36-0.34C8.452,4.751,8.433,4.588,8.362,4.426C8.372,4.396,8.32,4.319,8.33,4.29
	c0.04,0.063,0.101,0.058,0.114,0C8.406,4.165,8.347,4.045,8.252,3.994c-0.079-0.069-0.194-0.055-0.236,0.09
	C7.996,4.25,8.076,4.448,8.197,4.61c0.026,0.063,0.062,0.168,0.046,0.262C8.179,4.909,8.115,4.894,8.061,4.836
	c0,0-0.177-0.132-0.177-0.162c0.047-0.301,0.01-0.335-0.016-0.419C7.849,4.14,7.794,4.104,7.75,4.025
	c-0.044-0.047-0.104-0.047-0.133,0C7.539,4.161,7.576,4.452,7.632,4.583c0.041,0.12,0.104,0.195,0.074,0.195
	C7.682,4.845,7.631,4.83,7.595,4.751C7.542,4.589,7.532,4.348,7.532,4.239C7.516,4.104,7.499,3.816,7.41,3.744
	C7.386,3.711,7.358,3.7,7.331,3.703z M8.596,3.705C8.578,3.707,8.558,3.717,8.535,3.723c-0.077,0.024-0.148,0.091-0.126,0.22
	c0.091,0.55,0.15,0.97,0.24,1.52c0.014,0.064-0.04,0.149-0.11,0.141C8.421,5.522,8.392,5.36,8.19,5.367
	C8.044,5.369,7.877,5.528,7.856,5.681c-0.024,0.122-0.033,0.254,0,0.36C7.959,6.165,8.082,6.152,8.19,6.124
	C8.279,6.087,8.352,6,8.383,6.021c0,0,0,0,0.001,0c0,0,0,0.001,0,0.001c0.019,0.034-0.002,0.32-0.418,0.541
	C7.71,6.678,7.506,6.705,7.397,6.496C7.329,6.365,7.402,5.868,7.235,5.983C6.74,7.258,8.393,7.436,8.577,6.036
	c0.012-0.04,0.048-0.079,0.074-0.069c0.011,0.005,0.021,0.02,0.025,0.049C8.638,7.282,7.398,7.369,7.188,6.971
	C7.136,6.877,7.12,6.667,7.115,6.542c-0.01-0.076-0.029-0.12-0.051-0.137c-0.05-0.038-0.118,0.061-0.132,0.232
	C6.911,6.773,6.917,6.813,6.917,6.943c0.066,1.002,1.662,0.571,1.921-0.256c0.128-0.427-0.003-0.749,0.04-0.789
	c0,0,0.001-0.001,0.002-0.001c0,0,0.001-0.001,0.002-0.001c0,0,0.001-0.001,0.002-0.001c0.001,0,0.004-0.001,0.005-0.001
	c0.159,0.17,0.381,0.021,0.43-0.038c0.021-0.029,0.073-0.048,0.109-0.01c0.124,0.089,0.34,0.047,0.386-0.11
	C9.84,5.584,9.862,5.427,9.867,5.263C9.787,5.288,9.722,5.307,9.696,5.334C9.689,5.341,9.685,5.349,9.684,5.357
	C9.676,5.402,9.67,5.448,9.663,5.493c0,0.004-0.002,0.007-0.003,0.01C9.656,5.509,9.65,5.514,9.644,5.517
	C9.616,5.533,9.566,5.524,9.563,5.482C9.525,5.309,9.368,5.286,9.272,5.556C9.208,5.608,9.09,5.618,9.078,5.54
	c0.016-0.181-0.057-0.205-0.203-0.12C8.827,5.061,8.781,4.719,8.734,4.36c0.061-0.002,0.117,0.042,0.172-0.027
	c-0.06-0.188-0.188-0.569-0.26-0.604c0,0-0.001-0.001-0.002-0.001c-0.003-0.004-0.007-0.007-0.01-0.01
	C8.633,3.716,8.631,3.714,8.63,3.713C8.628,3.712,8.626,3.711,8.625,3.71C8.622,3.709,8.619,3.708,8.616,3.707
	C8.609,3.705,8.603,3.704,8.596,3.705L8.596,3.705z M13.526,3.708c-0.063-0.002-0.134,0.038-0.106,0.117
	c-0.016,0.043,0.137,0.189,0.161,0.27c0.044,0.123-0.034,0.241,0.012,0.258c0.042,0.019,0.101-0.127,0.123-0.263
	c0.025-0.109-0.053-0.333-0.163-0.38C13.544,3.708,13.535,3.708,13.526,3.708L13.526,3.708z M9.686,3.843
	C9.714,3.84,9.749,3.866,9.766,3.904c0.018,0.04,0.009,0.078-0.021,0.085C9.716,3.996,9.677,3.97,9.659,3.93
	C9.641,3.89,9.65,3.851,9.68,3.844C9.682,3.843,9.684,3.843,9.686,3.843L9.686,3.843z M16.811,4.027
	c-0.058-0.002-0.121,0.042-0.096,0.127C16.7,4.202,16.838,4.361,16.86,4.447c0.02,0.062-0.031,0.261,0.011,0.28
	c0.039,0.021,0.093-0.138,0.112-0.284c0.012-0.08-0.048-0.361-0.148-0.412C16.827,4.029,16.818,4.028,16.811,4.027z M12.871,4.125
	c0.005,0.023,0.011,0.047,0.014,0.071c0.012,0.052,0.022,0.104,0.033,0.155c-0.046-0.063-0.083-0.113-0.1-0.131
	C12.716,4.097,12.82,4.139,12.871,4.125z M13.778,4.571c-0.022,0.004-0.044,0.023-0.052,0.053c-0.005,0.02,0.01,0.052-0.008,0.062
	c-0.011,0.01-0.051,0.004-0.049-0.051c0-0.017-0.013-0.037-0.021-0.048c-0.008-0.005-0.014-0.006-0.027-0.006
	c-0.018,0-0.017,0.005-0.026,0.02c-0.004,0.015-0.01,0.029-0.01,0.046c-0.002,0.02-0.009,0.026-0.023,0.029
	c-0.016,0-0.013,0.002-0.026-0.006c-0.007-0.009-0.017-0.012-0.017-0.026c0-0.015-0.004-0.039-0.008-0.049
	c-0.007-0.009-0.019-0.013-0.03-0.016c-0.067,0-0.071,0.077-0.067,0.106c-0.005,0.006-0.009,0.144,0.083,0.182
	c0.123,0.059,0.355,0.033,0.346-0.166c0-0.018-0.005-0.077-0.006-0.093C13.824,4.579,13.801,4.567,13.778,4.571z M9.635,4.612
	C9.62,4.611,9.6,4.617,9.577,4.63C9.467,4.689,9.425,4.864,9.493,4.967c0.063,0.09,0.164,0.057,0.177,0.057
	c0.107,0.014,0.17-0.201,0.17-0.201s0.003-0.06-0.124,0.054c-0.054,0.01-0.061-0.009-0.074-0.04C9.632,4.782,9.634,4.726,9.66,4.67
	C9.672,4.636,9.66,4.615,9.635,4.612z M15.492,4.64c-0.061-0.003-0.125,0.036-0.142,0.119c0,0.049,0.022,0.076,0.018,0.12
	c-0.006,0.025-0.032,0.042-0.095,0.012c0.01-0.009-0.04-0.08-0.04-0.08c-0.049-0.029-0.113,0.002-0.155,0.029
	c-0.023,0.042-0.041,0.115-0.015,0.188c0.07,0.129,0.309,0.349,0.423,0.351c0.002-0.116,0.014-0.271,0.02-0.367
	c0.003-0.036,0.012-0.076,0.046-0.085c0.035-0.009,0.096,0.035,0.096-0.003c-0.006-0.074-0.021-0.183-0.063-0.234
	C15.563,4.659,15.528,4.642,15.492,4.64L15.492,4.64z M10.644,5.044c-0.002,0-0.003,0.002-0.005,0.002c0,0-0.002,0.001-0.003,0.002
	c-0.012,0.009-0.026,0.03-0.058,0.053c-0.054,0.061-0.063,0.104-0.06,0.226c0.003,0.013,0.102,0.288,0.186,0.481
	c0.056,0.201,0.108,0.431,0.07,0.648C10.642,6.742,10.376,7,10.119,7.141c-0.13,0.041-0.243,0.027-0.273-0.002c0,0-0.001,0-0.001,0
	C9.77,7.088,9.768,6.998,9.772,6.982V6.981L9.773,6.98c0.216-0.15,0.464-0.272,0.657-0.68c0.057-0.155,0.075-0.249,0.018-0.489
	c-0.022-0.089-0.049-0.163-0.11-0.227c0,0,0,0,0.001,0c0.037-0.018,0.132,0.053,0.147,0.008c-0.022-0.115-0.1-0.269-0.188-0.348
	c-0.077-0.07-0.161-0.078-0.231-0.014c-0.08,0.044-0.096,0.203-0.058,0.342c0.042,0.105,0.157,0.123,0.239,0.334v0.001
	c0.001,0.013,0.028,0.157-0.013,0.216C10.2,6.227,9.771,6.565,9.741,6.586c0,0-0.002,0.002-0.003,0.002c0,0-0.001,0-0.001,0.001
	c0,0,0,0.001-0.001,0.001c0,0-0.001,0-0.001,0.001c0,0,0,0-0.001,0h0c0-0.001-0.001-0.001-0.001-0.001V6.589
	c0-0.001-0.001-0.001-0.001-0.002c-0.001-0.009,0.001-0.03,0-0.065C9.729,6.459,9.755,6.315,9.753,6.291V6.29
	c0,0-0.001,0-0.001-0.001c0,0,0,0,0-0.001c0,0-0.001,0-0.001,0C9.609,6.379,9.562,6.66,9.536,6.744
	C9.177,6.992,8.769,7.176,8.534,7.428c-0.123,0.191,0.843-0.219,0.955-0.27C9.49,7.16,9.491,7.16,9.492,7.162
	C9.514,7.186,9.515,7.268,9.58,7.341c0.1,0.136,0.313,0.22,0.521,0.167c0.348-0.125,0.549-0.362,0.753-0.625
	c0.029-0.043,0.075-0.076,0.117-0.044c0.14,0.314,0.545,0.538,1.068,0.562c0.121-0.148,0.063-0.221,0.014-0.251
	c-0.016-0.011-0.26-0.105-0.298-0.2c-0.024-0.089,0.034-0.168,0.151-0.227c0.336-0.041,0.666-0.086,0.985-0.188
	c0.003-0.107,0.066-0.268,0.108-0.337c0.029-0.048,0.049-0.053,0.056-0.06c0,0,0.001,0,0.001-0.001c0,0,0.001,0,0.001-0.001l0.001,0
	c0,0,0-0.002,0-0.002c0-0.002,0-0.006-0.001-0.009l-0.055-0.032l-1.071-0.004c-0.013-0.005-0.023-0.01-0.029-0.015
	c0,0-0.001-0.001-0.001-0.002c0,0-0.001,0-0.001-0.001c0,0-0.001,0-0.001-0.001c0,0-0.001-0.001-0.001-0.002
	c0,0-0.001,0-0.001-0.001v0c0,0-0.001-0.001-0.001-0.001c0,0,0-0.001,0-0.001V6.061V6.06V6.059c0,0,0,0,0-0.001V6.057V6.056
	c0,0,0,0,0-0.001c0,0,0.001,0,0.001-0.001s0-0.001,0.001-0.001c0.005-0.007,0.018-0.014,0.034-0.02
	c0.256-0.035,0.71-0.109,0.74-0.546c-0.004-0.228-0.097-0.377-0.376-0.418c-0.206,0.016-0.352,0.214-0.329,0.433
	c-0.01,0.059,0.02,0.174-0.041,0.188c-0.394,0.036-0.824,0.283-0.838,0.459h-0.001c0,0-0.001,0.001-0.001,0.001
	c0,0-0.001,0.001-0.002,0.001c0,0-0.001,0-0.002,0c0,0-0.002,0.001-0.002,0.001s-0.001,0-0.001,0c0,0-0.001,0-0.002,0
	s-0.001,0-0.001,0c0,0-0.001,0-0.002,0c-0.001,0-0.003,0-0.004-0.001c-0.025-0.007-0.059-0.049-0.053-0.108
	c-0.015-0.306-0.114-0.651-0.27-0.917c-0.056-0.056-0.08-0.078-0.096-0.081c0,0-0.001,0-0.002,0s-0.002,0-0.002,0s-0.001,0-0.001,0
	H10.644L10.644,5.044L10.644,5.044z M11.669,5.205c-0.022,0.004-0.043,0.022-0.051,0.052c-0.005,0.02,0.009,0.053-0.009,0.063
	c-0.01,0.01-0.05,0.004-0.048-0.051c0-0.018-0.013-0.037-0.021-0.048c-0.008-0.005-0.012-0.006-0.026-0.006
	c-0.018,0-0.018,0.005-0.027,0.02c-0.004,0.015-0.009,0.029-0.009,0.046c-0.002,0.02-0.009,0.026-0.023,0.029
	c-0.016,0-0.012,0.001-0.025-0.007C11.42,5.295,11.41,5.292,11.41,5.277c0-0.015-0.003-0.039-0.007-0.049
	c-0.007-0.009-0.019-0.013-0.031-0.016c-0.067,0-0.072,0.077-0.068,0.106c-0.005,0.005-0.008,0.144,0.083,0.182
	c0.124,0.059,0.417,0.024,0.346-0.166c0-0.018-0.005-0.077-0.007-0.093C11.715,5.212,11.691,5.201,11.669,5.205z M15.809,5.375
	c-0.004,0-0.007,0-0.011,0.001c0,0-0.572,0.407-0.586,0.421c-0.057,0.051-0.028,0.228,0,0.208c0.041,0.016,0.616-0.375,0.605-0.42
	C15.843,5.585,15.854,5.383,15.809,5.375L15.809,5.375z M12.21,5.436c0.023-0.002,0.054,0.005,0.083,0.022
	c0.043,0.025,0.069,0.062,0.066,0.089c0,0,0,0.002,0,0.002c0,0.001-0.002,0.002-0.002,0.003c0,0.001-0.001,0.002-0.001,0.003
	c-0.001,0-0.001,0.001-0.001,0.002s-0.001,0.001-0.001,0.002c-0.001,0.002-0.004,0.004-0.006,0.006
	c-0.021,0.019-0.067,0.017-0.112-0.009c-0.043-0.024-0.068-0.062-0.066-0.089c0.001,0,0.002-0.002,0.002-0.002
	c0-0.003,0.002-0.006,0.004-0.01c0-0.001,0-0.002,0.002-0.003c0,0,0-0.001,0-0.001c0.002-0.001,0.004-0.003,0.005-0.005
	C12.189,5.44,12.199,5.437,12.21,5.436L12.21,5.436z M7.203,5.539C6.907,5.544,6.473,5.927,6.461,6.14
	c0.313-0.15,0.62-0.294,0.938-0.45C7.348,5.613,7.396,5.544,7.203,5.539z M8.163,5.672c0.029,0,0.06,0.015,0.076,0.055
	c0.015,0.038,0,0.077-0.017,0.096c0,0,0,0.001,0,0.001c0,0,0,0.001-0.001,0.002C8.208,5.842,8.165,5.835,8.134,5.835
	C8.096,5.833,8.078,5.827,8.055,5.796C8.044,5.763,8.077,5.729,8.092,5.704c0,0,0,0,0-0.001c0.002-0.002,0.004-0.005,0.007-0.007
	C8.11,5.685,8.13,5.675,8.15,5.673C8.155,5.672,8.159,5.672,8.163,5.672L8.163,5.672z M15.697,5.79
	c-0.053,0.006-0.103,0.056-0.079,0.136c-0.015,0.047,0.071,0.21,0.094,0.297c0.02,0.062-0.026,0.237,0.016,0.255
	c0.038,0.021,0.14-0.104,0.136-0.26c0.012-0.08-0.028-0.375-0.129-0.425C15.723,5.79,15.71,5.789,15.697,5.79L15.697,5.79z
	 M9.298,6.079C9.251,6.082,9.21,6.107,9.229,6.172C9.226,6.22,9.36,6.278,9.369,6.388C9.388,6.434,9.34,6.579,9.38,6.592
	c0.037,0.016,0.087-0.1,0.106-0.208C9.497,6.325,9.44,6.119,9.344,6.083C9.329,6.079,9.313,6.078,9.298,6.079z M11.213,6.34
	c0.003,0,0.007,0,0.01,0c0.001,0,0.001,0,0.002,0c0.12,0.032,0.295,0.036,0.448,0.052c0.125,0.008,0.186,0.105,0.069,0.146
	c-0.115,0.04-0.226,0.07-0.226,0.236c0.015,0.082,0.012,0.126-0.001,0.146c-0.001,0.002-0.002,0.004-0.003,0.004
	c0,0-0.001,0.002-0.001,0.002c0,0-0.001,0-0.001,0c0,0-0.001,0.002-0.001,0.002h-0.001c0,0-0.001,0.001-0.002,0.002
	c-0.001,0-0.004,0.002-0.005,0.002c-0.002,0.001-0.004,0.001-0.006,0.001c-0.027,0.005-0.067-0.022-0.097-0.037
	c-0.071-0.052-0.27-0.175-0.298-0.439C11.097,6.397,11.142,6.345,11.213,6.34L11.213,6.34z M6.535,6.544
	c-0.007,0-0.022,0.022-0.042,0.048C6.317,6.873,6.301,7.291,6.398,7.416c0.052,0.06,0.137,0.086,0.2,0.066
	c0.111-0.047,0.159-0.271,0.133-0.354C6.694,7.07,6.665,7.062,6.628,7.111C6.55,7.27,6.518,7.161,6.511,7.072
	C6.499,6.904,6.515,6.75,6.533,6.628C6.543,6.565,6.543,6.543,6.535,6.544z M12.54,6.912c-0.013,0-0.027,0.002-0.042,0.008
	c-0.002,0-0.125,0.084-0.165,0.143c-0.024,0.018-0.021,0.034-0.015,0.066c0.02,0.043,0.053,0.029,0.09,0.01
	c0.051-0.008,0.075,0.025,0.07,0.086c-0.022,0.074,0.011,0.104,0.011,0.107c0,0.005,0.049,0.047,0.105,0.014
	c0.119-0.046,0.194-0.09,0.361-0.127C13,7.218,12.998,7.1,12.928,7.096c-0.091,0.005-0.174,0.01-0.265,0.081
	c-0.056,0.013-0.065-0.021-0.078-0.052c-0.014-0.076,0.032-0.129,0.022-0.186C12.61,6.941,12.579,6.914,12.54,6.912z M16.385,7.056
	c-0.022,0.001-0.046,0.004-0.08,0.007c-0.036,0.008-0.049,0.023-0.056,0.068c0.002,0.067,0.044,0.064,0.086,0.091
	c0.024,0.031,0.04,0.06-0.002,0.11c-0.04,0.037-0.068,0.057-0.108,0.094c-0.02,0.032-0.031,0.082,0.027,0.098
	c0.106,0.03,0.354-0.131,0.354-0.135c0.041-0.029,0.027-0.086,0.023-0.086c-0.022-0.027-0.075-0.012-0.111-0.016
	c-0.017,0-0.072-0.008-0.046-0.057c0.022-0.031,0.03-0.049,0.045-0.087c0.017-0.036,0.002-0.062-0.058-0.081
	C16.428,7.057,16.407,7.055,16.385,7.056z M14.778,10.308C14.778,10.308,14.778,10.309,14.778,10.308
	c-0.179,0.047-0.173,0.231-0.059,0.313c-1.878,0-4.759-0.032-5.377-0.032c-0.346,0-1.44-0.041-1.461-0.041
	c0.235,0.343,0.575,0.413,1.019,0.42c0.834,0,4.699-0.01,5.799-0.01c-0.078,0.139,0.007,0.361,0.068,0.402
	c0.001,0.001,0.003,0.003,0.005,0.003c0.002,0.001,0.005,0.003,0.007,0.003c0.001,0,0.003,0,0.003,0
	c0.073,0.018,0.105-0.035,0.13-0.074c0.118,0.011,0.782,0.021,0.844-0.001c0,0,0-0.001,0.001-0.001
	c0.041,0.061,0.082,0.118,0.16,0.108c0.137-0.029,0.245-0.045,0.248-0.323c0,0-0.014-0.474-0.325-0.444
	c-0.073,0.012-0.28,0.032-0.28,0.032c-0.239-0.028-0.414-0.031-0.684-0.041c0.025-0.031,0.069-0.159,0.016-0.205
	c-0.015-0.012-0.035-0.019-0.064-0.017c0,0,0,0-0.001,0c0,0-0.001,0-0.002,0v-0.001c-0.001,0-0.003,0-0.003-0.001
	c-0.002-0.001-0.004-0.003-0.005-0.004c0-0.001-0.002-0.002-0.002-0.002c-0.014-0.021-0.021-0.068-0.03-0.081l-0.001-0.001
	l-0.001-0.001c0,0-0.001-0.001-0.002-0.001C14.78,10.308,14.78,10.308,14.778,10.308C14.779,10.308,14.779,10.308,14.778,10.308
	L14.778,10.308z M14.906,10.985L14.906,10.985c0.275,0.014,0.532,0.003,0.807,0.017c0.043,0.036,0.021,0.121-0.007,0.137
	c-0.001,0-0.004,0.001-0.005,0.002c-0.001,0-0.003,0-0.004,0s-0.003,0-0.004,0c-0.089-0.003-0.141-0.005-0.229-0.007
	c0-0.005,0-0.009-0.002-0.013c-0.021-0.063-0.174-0.059-0.21-0.01c0,0.001-0.001,0.002-0.002,0.003c0,0.001-0.001,0.003-0.002,0.004
	c0,0.001-0.001,0.003-0.002,0.004c0,0.002,0,0.005,0,0.007c-0.001,0.002-0.002,0.005-0.001,0.008
	c-0.121,0.015-0.229-0.004-0.35-0.009C14.86,11.084,14.865,11.005,14.906,10.985L14.906,10.985z"/>
</svg>
