<?xml version="1.0" encoding="utf-8"?>
<!-- Generator: Adobe Illustrator 16.0.0, SVG Export Plug-In . SVG Version: 6.00 Build 0)  -->
<!DOCTYPE svg PUBLIC "-//W3C//DTD SVG 1.1//EN" "http://www.w3.org/Graphics/SVG/1.1/DTD/svg11.dtd">
<svg version="1.1" id="Ebene_1" xmlns="http://www.w3.org/2000/svg" xmlns:xlink="http://www.w3.org/1999/xlink" x="0px" y="0px"
	 width="24px" height="15px" viewBox="0 0 24 15" enable-background="new 0 0 24 15" xml:space="preserve">
	 
	 <!--
		@author		Alexander Ebert
		@copyright	2001-2013 WoltLab GmbH 
		@license	Public Domain
		
		Note: This is a modified version of https://en.wikipedia.org/wiki/File:Flag_of_Slovakia.svg (20:19, 10 July 2012)
	 -->
	 
<rect fill="#FFFFFF" width="24" height="15"/>
<rect y="5" fill="#144F9F" width="24" height="5"/>
<rect y="10" fill="#E5262B" width="24" height="5"/>
<path id="path43" fill="#FFFFFF" d="M5.123,7.314c0-2.215,0.131-3.457,0.131-3.457h2.953h2.954c0,0,0.131,1.242,0.131,3.457
	c0,2.358-1.792,3.534-2.971,4.102l-0.114,0.055l-0.113-0.055C6.914,10.848,5.123,9.672,5.123,7.314z"/>
<path id="use50" fill="#E5262B" d="M8.207,11.18c-1.161-0.56-2.822-1.67-2.822-3.866c0-2.196,0.105-3.195,0.105-3.195h2.718h2.717
	c0,0,0.105,0.999,0.105,3.195C11.03,9.51,9.369,10.62,8.207,11.18z"/>
<path id="path57" fill="#FFFFFF" d="M8.456,6.738C8.77,6.743,9.384,6.755,9.93,6.573c0,0-0.014,0.195-0.014,0.423
	c0,0.228,0.014,0.423,0.014,0.423C9.429,7.251,8.81,7.248,8.456,7.252v1.212H7.959V7.252C7.604,7.248,6.986,7.251,6.485,7.419
	c0,0,0.014-0.195,0.014-0.423c0-0.228-0.014-0.423-0.014-0.423c0.546,0.183,1.16,0.17,1.474,0.165V5.976
	c-0.287-0.002-0.7,0.011-1.167,0.167c0,0,0.015-0.195,0.015-0.423c0-0.228-0.015-0.423-0.015-0.423
	c0.466,0.156,0.879,0.17,1.165,0.167c-0.015-0.482-0.155-1.09-0.155-1.09s0.29,0.022,0.405,0.022c0.116,0,0.405-0.022,0.405-0.022
	s-0.141,0.608-0.155,1.09c0.287,0.002,0.699-0.011,1.165-0.167c0,0-0.014,0.196-0.014,0.423c0,0.228,0.014,0.423,0.014,0.423
	c-0.467-0.156-0.88-0.17-1.167-0.167V6.738L8.456,6.738L8.456,6.738z"/>
<path fill="#144F9F" d="M9.757,8.761c-0.478,0-0.651,0.385-0.651,0.385S8.792,8.334,8.207,8.334c-0.584,0-0.898,0.812-0.898,0.812
	S7.135,8.761,6.658,8.761c-0.323,0-0.558,0.286-0.709,0.552c0.587,0.934,1.521,1.513,2.258,1.867
	c0.737-0.354,1.671-0.934,2.258-1.867C10.314,9.047,10.079,8.761,9.757,8.761z"/>
</svg>
