<?xml version="1.0" encoding="utf-8"?>
<!--<?xml-stylesheet type="text/css" href="svg.css"?>-->
<!DOCTYPE svg PUBLIC "-//W3C//DTD SVG 1.1//EN" "http://www.w3.org/Graphics/SVG/1.1/DTD/svg11.dtd">
<svg version="1.1" xmlns="http://www.w3.org/2000/svg" xmlns:xlink="http://www.w3.org/1999/xlink" x="0px" y="0px" width="83px" height="15px" viewBox="0 0 83 15" xml:space="preserve">
	
	<title>WCF-Logo</title> 
	<desc>WoltLab® Community Framework™ Logo</desc> 
	
	<!--
		@author		Harald Szekely 
		@copyright	2011 WoltLab GmbH 
		@license	GNU Lesser General Public License <http://opensource.org/licenses/lgpl-license.php> 
	--> 
	
	<defs>
		
	</defs>
	
	<g id="LogoWCF">
		<path id="Outline" style="fill: none; stroke: #000; stroke-width: .1; stroke-miterlimit: 1;" d="M21.7739258,6.6420898
			c0,0.0166016-0.0043945,0.0336914-0.012207,0.0498047l-0.6391602,1.3535156
			c-0.0385742,0.0786133-0.1000977,0.1201172-0.1831055,0.1201172c-0.0810547,0-0.1391602-0.0375977-0.1733398-0.1118164
			l-0.5107422-1.0942383l-0.5268555,1.097168c-0.0317383,0.0639648-0.0898438,0.0976562-0.171875,0.0976562
			c-0.0898438,0-0.1503906-0.0351562-0.1821289-0.1049805l-0.6362305-1.3579102
			c-0.0083008-0.0161133-0.0112305-0.03125-0.0112305-0.0454102c0-0.0351562,0.0175781-0.0634766,0.0537109-0.0839844
			c0.0307617-0.0166016,0.065918-0.0253906,0.1040039-0.0253906c0.0625,0,0.1054688,0.0209961,0.1269531,0.0649414
			l0.5449219,1.1606445l0.5175781-1.1152344c0.0371094-0.0786133,0.0961914-0.1201172,0.1782227-0.1201172
			c0.027832,0,0.0605469,0.012207,0.0961914,0.034668c0.0361328,0.0229492,0.0610352,0.0473633,0.0732422,0.0756836l0.5258789,1.125
			l0.5361328-1.1567383c0.0205078-0.0458984,0.0664062-0.0664062,0.1386719-0.0664062
			c0.0351562,0,0.0693359,0.0078125,0.0986328,0.0229492C21.7568359,6.581543,21.7739258,6.6083984,21.7739258,6.6420898
			L21.7739258,6.6420898z M30.7270508,7.7543945c0,0.0849609-0.0458984,0.1386719-0.1396484,0.1611328
			c-0.0214844,0.003418-0.0507812,0.0078125-0.090332,0.0112305c-0.0390625,0.0014648-0.0893555,0.0039062-0.1508789,0.0039062
			h-0.3999023c-0.0424805,0-0.0854492-0.0024414-0.1279297-0.0073242c-0.0424805-0.0078125-0.0854492-0.0126953-0.128418-0.0224609
			c-0.1210938-0.0288086-0.1801758-0.0737305-0.1801758-0.1328125V7.1362305h0.8388672
			c0.2524414,0,0.378418,0.0551758,0.378418,0.1645508V7.7543945L30.7270508,7.7543945z M31.0083008,7.7631836V7.2958984
			c0-0.2636719-0.2216797-0.3955078-0.6640625-0.3955078h-0.8344727V6.6518555c0-0.0703125-0.0356445-0.1049805-0.1040039-0.1049805
			c-0.0698242,0-0.1103516,0.0029297-0.1210938,0.0078125c-0.0371094,0.0131836-0.0551758,0.0449219-0.0551758,0.0957031v1.1176758
			c0,0.1376953,0.0839844,0.2426758,0.253418,0.3134766c0.1303711,0.0551758,0.2749023,0.0839844,0.4321289,0.0839844h0.4291992
			C30.7866211,8.1655273,31.0083008,8.0317383,31.0083008,7.7631836L31.0083008,7.7631836z M28.7851562,7.7158203
			c0,0.0947266-0.0268555,0.15625-0.0800781,0.1850586c-0.0385742,0.0180664-0.1113281,0.0297852-0.2148438,0.0297852h-0.6948242
			c-0.0703125,0-0.1318359-0.0087891-0.1855469-0.0288086c-0.081543-0.0249023-0.1235352-0.0600586-0.1235352-0.1083984V7.6323242
			c0-0.0424805,0.0400391-0.0800781,0.1191406-0.1079102c0.0625-0.0209961,0.1230469-0.0332031,0.1821289-0.0332031h0.9931641
			L28.78125,7.5395508l0.0024414,0.0634766l0.0014648,0.0664062V7.7158203L28.7851562,7.7158203z M29.0600586,7.7807617V7.28125
			c0-0.1728516-0.1010742-0.2866211-0.3051758-0.3452148C28.6362305,6.90625,28.465332,6.8896484,28.2416992,6.8896484
			c-0.0693359,0-0.1040039,0.0341797-0.1040039,0.1030273c0,0.0878906,0.034668,0.1318359,0.1040039,0.1318359h0.0327148h0.0205078
			h0.0126953h0.0126953l0.0478516-0.0009766l0.0351562-0.0024414c0.2387695,0,0.3647461,0.0449219,0.3803711,0.137207H27.793457
			c-0.152832,0-0.2797852,0.0249023-0.3813477,0.0761719C27.2744141,7.4023438,27.2050781,7.5,27.2050781,7.6333008v0.1625977
			c0,0.1230469,0.0732422,0.2197266,0.2172852,0.2871094c0.1064453,0.0546875,0.2333984,0.0825195,0.3798828,0.0825195h0.6855469
			C28.8691406,8.1655273,29.0600586,8.0366211,29.0600586,7.7807617L29.0600586,7.7807617z M27.0146484,8.0605469
			c0-0.0922852-0.0356445-0.137207-0.1044922-0.137207H25.980957c-0.1582031,0-0.2592773-0.0078125-0.3032227-0.0175781
			c-0.1347656-0.0263672-0.2041016-0.0825195-0.2041016-0.1679688V6.6479492c0-0.0517578-0.0219727-0.0834961-0.0625-0.0957031
			c-0.019043-0.0053711-0.0605469-0.0087891-0.1274414-0.0087891c-0.0693359,0-0.1040039,0.034668-0.1040039,0.1035156V7.737793
			c0,0.1811523,0.0932617,0.3051758,0.2797852,0.3691406c0.121582,0.0390625,0.2895508,0.0585938,0.5058594,0.0585938h0.9448242
			C26.9790039,8.1655273,27.0146484,8.1318359,27.0146484,8.0605469L27.0146484,8.0605469z M25.0913086,7.0302734
			c0-0.0854492-0.0356445-0.1298828-0.1054688-0.1298828h-0.4438477V6.6484375c0-0.0488281-0.019043-0.0800781-0.0566406-0.09375
			c-0.012207-0.0068359-0.0517578-0.0112305-0.1201172-0.0112305S24.262207,6.5791016,24.262207,6.6479492v0.2524414
			c-0.0366211,0-0.0673828,0.0014648-0.090332,0.0019531c-0.0239258,0.0019531-0.0410156,0.0039062-0.0493164,0.0058594
			c-0.0458984,0.0136719-0.0668945,0.0512695-0.0668945,0.1098633s0.0209961,0.0952148,0.0668945,0.1103516
			c0.0083008,0.0014648,0.0253906,0.0043945,0.0493164,0.0053711c0.0229492,0.0024414,0.0537109,0.0024414,0.090332,0.0024414
			v0.921875c0,0.0498047,0.0180664,0.0830078,0.0571289,0.0961914c0.0117188,0.0073242,0.0507812,0.0112305,0.1196289,0.0112305
			c0.0693359,0,0.1030273-0.0336914,0.1030273-0.1049805V7.1362305h0.4438477
			C25.0556641,7.1362305,25.0913086,7.1000977,25.0913086,7.0302734L25.0913086,7.0302734z M23.9208984,8.0605469V6.6469727
			c0-0.0507812-0.0185547-0.0825195-0.0561523-0.0947266C23.8486328,6.546875,23.8085938,6.543457,23.7441406,6.543457
			c-0.0693359,0-0.1035156,0.034668-0.1035156,0.1035156v1.4111328c0,0.0498047,0.0185547,0.0830078,0.0576172,0.0961914
			C23.7080078,8.1616211,23.75,8.1655273,23.8168945,8.1655273C23.8857422,8.1655273,23.9208984,8.1293945,23.9208984,8.0605469
			L23.9208984,8.0605469z M23.1572266,7.7680664c0,0.0576172-0.0458984,0.1015625-0.1347656,0.1298828
			c-0.0664062,0.0209961-0.1357422,0.0327148-0.2094727,0.0327148h-0.4550781c-0.0869141,0-0.1621094-0.0087891-0.2275391-0.0288086
			C22.0341797,7.875,21.9838867,7.8291016,21.9838867,7.7680664v-0.46875c0-0.0625,0.0483398-0.1079102,0.144043-0.1411133
			c0.0678711-0.0205078,0.144043-0.0322266,0.2280273-0.0322266h0.4550781c0.2304688,0,0.3461914,0.0527344,0.3461914,0.1513672
			V7.7680664L23.1572266,7.7680664z M23.4394531,7.7680664v-0.472168c0-0.2705078-0.206543-0.40625-0.6206055-0.40625h-0.4672852
			c-0.1655273,0-0.3051758,0.0288086-0.4165039,0.0859375c-0.1542969,0.0732422-0.2304688,0.1816406-0.2304688,0.3237305v0.46875
			c0,0.1425781,0.0761719,0.25,0.230957,0.3188477c0.1245117,0.0507812,0.2636719,0.0786133,0.4179688,0.0786133h0.465332
			c0.1689453,0,0.3041992-0.0244141,0.4057617-0.0761719C23.3681641,8.0205078,23.4394531,7.9145508,23.4394531,7.7680664
			L23.4394531,7.7680664z M31.5537109,6.1489258v0.0517578c0,0.0253906-0.0209961,0.0375977-0.0625,0.0375977h-0.1767578V6.1083984
			h0.1674805C31.5302734,6.1083984,31.5537109,6.121582,31.5537109,6.1489258L31.5537109,6.1489258z M31.6123047,6.2006836V6.1489258
			c0-0.0639648-0.046875-0.0981445-0.140625-0.0981445h-0.2036133c-0.0112305,0-0.0166016,0.0068359-0.0166016,0.0195312v0.3613281
			c0,0.0219727,0.0097656,0.0332031,0.0292969,0.0332031c0.0224609,0,0.0336914-0.0112305,0.0336914-0.0332031v-0.140625
			l0.2519531,0.1723633c0.0102539,0.0019531,0.015625,0.003418,0.0166016,0.003418
			c0.0097656,0,0.0170898-0.0029297,0.0229492-0.0087891c0.0063477-0.0063477,0.0097656-0.0131836,0.0097656-0.0214844
			c0-0.0112305-0.0043945-0.0170898-0.0146484-0.0200195l-0.1796875-0.1225586h0.0629883
			C31.5698242,6.2939453,31.6123047,6.2636719,31.6123047,6.2006836L31.6123047,6.2006836z M31.7441406,6.2641602
			c0,0.0888672-0.0292969,0.1650391-0.090332,0.2285156c-0.0585938,0.0625-0.1308594,0.0942383-0.2158203,0.0942383
			c-0.0820312,0-0.1552734-0.0317383-0.215332-0.0942383c-0.0600586-0.0629883-0.0888672-0.1376953-0.0888672-0.2285156
			c0-0.090332,0.0288086-0.1660156,0.0888672-0.2275391c0.0585938-0.0634766,0.1313477-0.0942383,0.215332-0.0942383
			c0.0849609,0,0.1572266,0.0307617,0.2158203,0.0942383C31.7148438,6.1000977,31.7441406,6.1772461,31.7441406,6.2641602
			L31.7441406,6.2641602z M31.8085938,6.2636719c0-0.1074219-0.0371094-0.1977539-0.1103516-0.2714844
			c-0.0722656-0.0751953-0.1577148-0.1142578-0.2602539-0.1142578c-0.1005859,0-0.1865234,0.0390625-0.2573242,0.1142578
			c-0.0712891,0.0756836-0.1069336,0.1660156-0.1069336,0.2714844c0,0.1074219,0.0356445,0.1992188,0.1069336,0.2753906
			c0.0708008,0.0737305,0.1582031,0.1103516,0.2573242,0.1103516c0.1025391,0,0.1889648-0.0366211,0.2612305-0.1103516
			C31.7714844,6.4628906,31.8085938,6.3710938,31.8085938,6.2636719L31.8085938,6.2636719z M15.5976562,9.6484375
			c0-0.1835938-0.0698242-0.2758789-0.2084961-0.2758789h-2.1367188c-0.1132812,0-0.2104492,0.003418-0.2939453,0.0083008
			c-0.0825195,0.0063477-0.1513672,0.0151367-0.2094727,0.0249023c-0.2246094,0.0415039-0.4169922,0.1240234-0.5727539,0.2426758
			c-0.1879883,0.1459961-0.2817383,0.3193359-0.2817383,0.5283203v1.6293945c0,0.1660156,0.0380859,0.3017578,0.1152344,0.4072266
			c0.0644531,0.0898438,0.1767578,0.1772461,0.3369141,0.2612305c0.1420898,0.0722656,0.2768555,0.1210938,0.4082031,0.1459961
			c0.1201172,0.0229492,0.3164062,0.0336914,0.5908203,0.0336914H15.375c0.1445312,0,0.2172852-0.0834961,0.2172852-0.2495117
			c0-0.1655273-0.0727539-0.246582-0.2172852-0.246582h-2.0292969c-0.5717773,0-0.8569336-0.1230469-0.8569336-0.3671875v-1.6176758
			c0-0.206543,0.2583008-0.3095703,0.7744141-0.3095703h2.1259766C15.527832,9.8637695,15.5976562,9.7919922,15.5976562,9.6484375
			L15.5976562,9.6484375z M19.5595703,11.8520508v-0.9550781c0-0.550293-0.4179688-0.8237305-1.2563477-0.8237305h-0.9443359
			c-0.3369141,0-0.6181641,0.0576172-0.8452148,0.1723633c-0.3100586,0.1474609-0.4643555,0.3657227-0.4643555,0.6572266v0.9492188
			c0,0.2875977,0.1552734,0.5039062,0.4672852,0.6435547c0.2514648,0.1049805,0.5341797,0.1586914,0.8447266,0.1586914h0.9418945
			c0.3422852,0,0.6166992-0.0537109,0.8217773-0.1572266C19.4150391,12.3608398,19.5595703,12.1469727,19.5595703,11.8520508
			L19.5595703,11.8520508z M18.9868164,11.8535156c0,0.1162109-0.0908203,0.2021484-0.2734375,0.2607422
			c-0.1328125,0.0439453-0.2719727,0.0654297-0.421875,0.0654297h-0.9208984c-0.175293,0-0.3286133-0.019043-0.4599609-0.0571289
			c-0.1967773-0.0581055-0.2939453-0.1469727-0.2939453-0.269043V10.902832c0-0.1269531,0.0957031-0.222168,0.2885742-0.2851562
			c0.1367188-0.0424805,0.2905273-0.0654297,0.4624023-0.0654297h0.9213867c0.4658203,0,0.6977539,0.1030273,0.6977539,0.3071289
			V11.8535156L18.9868164,11.8535156z M24.8198242,12.4418945v-1.527832c0-0.5595703-0.3964844-0.8408203-1.190918-0.8408203
			c-0.2954102,0-0.5058594,0.0078125-0.6308594,0.0214844c-0.2368164,0.0297852-0.4360352,0.0961914-0.5976562,0.1972656
			c-0.1806641-0.1064453-0.3769531-0.1762695-0.5908203-0.2026367c-0.050293-0.0073242-0.1274414-0.0083008-0.2299805-0.012207
			c-0.1035156-0.0039062-0.2353516-0.0039062-0.3994141-0.0039062c-0.8242188,0-1.2363281,0.28125-1.2363281,0.8408203v1.527832
			c0,0.1411133,0.0698242,0.2124023,0.2104492,0.2124023c0.1386719,0,0.2202148-0.0073242,0.2441406-0.0234375
			c0.0742188-0.0263672,0.112793-0.090332,0.112793-0.1923828v-1.5839844c0-0.2080078,0.2431641-0.3129883,0.7285156-0.3129883
			c0.0185547,0,0.0415039,0.0014648,0.0673828,0.0014648c0.0273438,0,0.0581055,0.0039062,0.09375,0.0039062
			c0.0019531,0,0.0102539,0,0.0244141,0h0.0239258h0.0463867h0.0693359c0.1699219,0,0.2910156,0.0185547,0.3671875,0.0561523
			c0.109375,0.0561523,0.1625977,0.1582031,0.1625977,0.3110352v1.5268555c0,0.1420898,0.0712891,0.2133789,0.2128906,0.2133789
			c0.1401367,0,0.2211914-0.0073242,0.2446289-0.0234375c0.0771484-0.0263672,0.1162109-0.090332,0.1162109-0.1923828v-1.5185547
			c0-0.168457,0.0839844-0.2792969,0.2519531-0.3291016c0.0756836-0.0229492,0.2290039-0.0400391,0.4609375-0.0493164
			c0.0019531,0,0.012207,0,0.0317383,0h0.0351562h0.0751953c0.4819336,0,0.7236328,0.1030273,0.7236328,0.3071289v1.5898438
			c0,0.1020508,0.0390625,0.1660156,0.1162109,0.1923828c0.0234375,0.0161133,0.105957,0.0234375,0.2460938,0.0234375
			C24.7490234,12.6542969,24.8198242,12.5830078,24.8198242,12.4418945L24.8198242,12.4418945z M30.0795898,12.4418945v-1.527832
			c0-0.5595703-0.3969727-0.8408203-1.1914062-0.8408203c-0.2954102,0-0.5058594,0.0078125-0.6303711,0.0214844
			c-0.2373047,0.0297852-0.4360352,0.0961914-0.5976562,0.1972656c-0.1806641-0.1064453-0.3774414-0.1762695-0.5913086-0.2026367
			c-0.050293-0.0073242-0.1264648-0.0083008-0.2299805-0.012207c-0.1025391-0.0039062-0.2348633-0.0039062-0.3989258-0.0039062
			c-0.8232422,0-1.2363281,0.28125-1.2363281,0.8408203v1.527832c0,0.1411133,0.0693359,0.2124023,0.2099609,0.2124023
			c0.1391602,0,0.2207031-0.0073242,0.2441406-0.0234375c0.0751953-0.0263672,0.1137695-0.090332,0.1137695-0.1923828v-1.5839844
			c0-0.2080078,0.2431641-0.3129883,0.7290039-0.3129883c0.0175781,0,0.0400391,0.0014648,0.0664062,0.0014648
			c0.0268555,0,0.0576172,0.0039062,0.09375,0.0039062c0.0019531,0,0.0097656,0,0.0249023,0h0.0229492h0.0463867h0.0708008
			c0.1694336,0,0.2905273,0.0185547,0.3662109,0.0561523c0.109375,0.0561523,0.1640625,0.1582031,0.1640625,0.3110352v1.5268555
			c0,0.1420898,0.0698242,0.2133789,0.2114258,0.2133789c0.1401367,0,0.2216797-0.0073242,0.2451172-0.0234375
			c0.0761719-0.0263672,0.1157227-0.090332,0.1157227-0.1923828v-1.5185547c0-0.168457,0.0844727-0.2792969,0.253418-0.3291016
			c0.0742188-0.0229492,0.2280273-0.0400391,0.4589844-0.0493164c0.0019531,0,0.0126953,0,0.0317383,0h0.0356445h0.0756836
			c0.4829102,0,0.7226562,0.1030273,0.7226562,0.3071289v1.5898438c0,0.1020508,0.0395508,0.1660156,0.1171875,0.1923828
			c0.0229492,0.0161133,0.1049805,0.0234375,0.2451172,0.0234375C30.0092773,12.6542969,30.0795898,12.5830078,30.0795898,12.4418945
			L30.0795898,12.4418945z M34.0786133,11.8823242v-1.5966797c0-0.1411133-0.0703125-0.2124023-0.2114258-0.2124023
			c-0.1401367,0-0.2226562,0.0048828-0.2456055,0.0161133c-0.0771484,0.0263672-0.1152344,0.0927734-0.1152344,0.1962891v1.6064453
			c0,0.1928711-0.2661133,0.2875977-0.7978516,0.2875977h-0.8476562c-0.5419922,0-0.8144531-0.0986328-0.8144531-0.2939453
			v-1.6000977c0-0.1035156-0.0375977-0.1699219-0.112793-0.1962891c-0.0234375-0.0112305-0.1049805-0.0161133-0.2436523-0.0161133
			c-0.1401367,0-0.2094727,0.0712891-0.2094727,0.2124023v1.5976562c0,0.5126953,0.4589844,0.7709961,1.3798828,0.7709961h0.1206055
			h0.078125h0.0429688h0.0244141c0.0131836,0,0.0195312,0,0.0214844,0c0.0649414,0.0014648,0.1201172,0.0039062,0.1699219,0.0048828
			c0.0483398,0,0.0878906,0,0.1171875,0C33.5302734,12.6591797,34.0786133,12.3994141,34.0786133,11.8823242L34.0786133,11.8823242z
			 M37.9907227,12.4418945v-1.6391602c0-0.4858398-0.4277344-0.7294922-1.2851562-0.7294922h-0.9257812
			c-0.8671875,0-1.2998047,0.2436523-1.2998047,0.7333984v1.6318359c0,0.1020508,0.0380859,0.1660156,0.1123047,0.1923828
			c0.0234375,0.0161133,0.1049805,0.0234375,0.2446289,0.0234375c0.1401367,0,0.2094727-0.0712891,0.2094727-0.2124023v-1.6391602
			c0-0.1157227,0.0917969-0.1923828,0.2744141-0.2275391c0.0395508-0.0073242,0.0922852-0.012207,0.1591797-0.0161133
			c0.0673828-0.0039062,0.1508789-0.0068359,0.2485352-0.0068359h0.9770508c0.1074219,0,0.1953125,0.0024414,0.2661133,0.0043945
			c0.0712891,0.0024414,0.1230469,0.0073242,0.1572266,0.0151367c0.1933594,0.034668,0.2895508,0.1113281,0.2895508,0.2270508
			v1.6396484c0,0.1020508,0.0385742,0.1660156,0.1157227,0.1923828c0.0234375,0.0161133,0.1044922,0.0234375,0.2451172,0.0234375
			C37.9204102,12.6542969,37.9907227,12.5830078,37.9907227,12.4418945L37.9907227,12.4418945z M39.0961914,9.7172852
			c0-0.0927734-0.0395508-0.1645508-0.1181641-0.2182617c-0.0673828-0.0473633-0.1518555-0.0717773-0.2495117-0.0717773
			c-0.0996094,0-0.1821289,0.0244141-0.2495117,0.0717773c-0.0795898,0.0537109-0.1186523,0.1254883-0.1186523,0.2182617
			c0,0.0952148,0.0390625,0.1694336,0.1186523,0.2226562c0.0673828,0.0458984,0.1499023,0.0693359,0.2495117,0.0693359
			c0.0976562,0,0.1821289-0.0234375,0.2495117-0.0693359C39.0566406,9.8867188,39.0961914,9.8125,39.0961914,9.7172852
			L39.0961914,9.7172852z M39.0185547,12.4384766v-2.1679688c0-0.1010742-0.0366211-0.1635742-0.1123047-0.1894531
			c-0.0239258-0.0151367-0.1035156-0.0205078-0.2407227-0.0205078c-0.1425781,0-0.2138672,0.0703125-0.2138672,0.2099609v2.1679688
			c0,0.1020508,0.0375977,0.1660156,0.1108398,0.1923828c0.0229492,0.0161133,0.1049805,0.0234375,0.2431641,0.0234375
			C38.9482422,12.6542969,39.0185547,12.5805664,39.0185547,12.4384766L39.0185547,12.4384766z M41.4208984,10.359375
			c0-0.1762695-0.0703125-0.2646484-0.2124023-0.2646484h-0.8974609V9.5864258c0-0.1005859-0.0385742-0.1640625-0.1162109-0.1904297
			c-0.0229492-0.0151367-0.1030273-0.0234375-0.2407227-0.0234375c-0.140625,0-0.2099609,0.0708008-0.2099609,0.2124023v0.5097656
			c-0.0751953,0-0.1362305,0.0024414-0.184082,0.0053711c-0.0483398,0.0014648-0.081543,0.0053711-0.1010742,0.0092773
			c-0.0898438,0.0302734-0.1342773,0.1049805-0.1342773,0.2236328c0,0.1176758,0.0444336,0.1923828,0.1342773,0.222168
			c0.0195312,0.0039062,0.0527344,0.0078125,0.1010742,0.0087891c0.0478516,0.0039062,0.1088867,0.0053711,0.184082,0.0053711
			v1.8691406c0,0.0996094,0.0390625,0.1660156,0.1147461,0.1923828c0.0244141,0.0161133,0.1044922,0.0234375,0.2431641,0.0234375
			s0.2089844-0.0712891,0.2089844-0.2124023v-1.8725586h0.8974609C41.3505859,10.5693359,41.4208984,10.4980469,41.4208984,10.359375
			L41.4208984,10.359375z M45.2436523,12.6142578v-2.3286133c0-0.1035156-0.0375977-0.1699219-0.1113281-0.1962891
			c-0.0244141-0.0112305-0.1069336-0.0161133-0.2460938-0.0161133c-0.1425781,0-0.2133789,0.0712891-0.2133789,0.2124023v1.8725586
			h-1.6923828c-0.4760742,0-0.7128906-0.1000977-0.7128906-0.296875v-1.5756836c0-0.1411133-0.0693359-0.2124023-0.2089844-0.2124023
			s-0.2207031,0.0048828-0.2456055,0.0161133c-0.0742188,0.0263672-0.1118164,0.0927734-0.1118164,0.1938477v1.578125
			c0,0.5126953,0.425293,0.7695312,1.2792969,0.7695312h1.6923828c0,0.1660156-0.2519531,0.2480469-0.7583008,0.2480469
			c-0.019043,0-0.0439453-0.0009766-0.0708008-0.0009766c-0.027832,0-0.0615234-0.0014648-0.1010742-0.0039062
			c-0.0014648,0-0.0102539,0-0.0288086,0h-0.0273438h-0.0449219h-0.0727539c-0.1416016,0-0.2128906,0.0712891-0.2128906,0.2143555
			c0,0.097168,0.0126953,0.1630859,0.0351562,0.1977539c0.0297852,0.0527344,0.0898438,0.0791016,0.1777344,0.0791016
			c0.5351562,0,0.8833008-0.0224609,1.0375977-0.0678711C45.0327148,13.1914062,45.2436523,12.9633789,45.2436523,12.6142578
			L45.2436523,12.6142578z M50.8115234,11.0292969c0-0.1625977-0.0742188-0.2441406-0.2231445-0.2441406h-2.855957v-0.6230469
			c0-0.1987305,0.4013672-0.2983398,1.2050781-0.2983398c0.1401367,0,0.2109375-0.0717773,0.2109375-0.215332
			c0-0.1835938-0.0708008-0.2758789-0.2109375-0.2758789h-0.4472656c-0.309082,0-0.5908203,0.0532227-0.8500977,0.1621094
			c-0.3344727,0.1401367-0.5029297,0.3398438-0.5029297,0.6025391v2.3012695c0,0.1020508,0.0424805,0.1660156,0.1289062,0.1923828
			c0.0229492,0.0161133,0.1098633,0.0234375,0.2563477,0.0234375c0.1381836,0,0.2099609-0.0712891,0.2099609-0.2124023v-1.1665039
			h2.855957C50.7373047,11.2753906,50.8115234,11.1933594,50.8115234,11.0292969L50.8115234,11.0292969z M52.4326172,10.3417969
			c0-0.1796875-0.0712891-0.2685547-0.2128906-0.2685547c-0.4179688,0-0.7324219,0.0375977-0.9428711,0.1123047
			c-0.347168,0.1210938-0.519043,0.3486328-0.519043,0.6860352v1.5668945c0,0.1445312,0.0668945,0.2158203,0.2026367,0.2158203
			c0.1323242,0,0.2128906-0.0063477,0.2446289-0.0161133c0.0805664-0.0288086,0.1191406-0.0922852,0.1191406-0.1972656V10.871582
			c0-0.2163086,0.2182617-0.324707,0.6533203-0.324707c0.0239258,0,0.0571289,0.0014648,0.1010742,0.0039062
			c0.0444336,0.0014648,0.078125,0.0014648,0.1010742,0.0014648C52.3466797,10.5522461,52.4326172,10.4829102,52.4326172,10.3417969
			L52.4326172,10.3417969z M56.5,11.878418v-1.0117188c0-0.3500977-0.2060547-0.5810547-0.6171875-0.6982422
			c-0.2416992-0.0654297-0.5878906-0.0952148-1.0400391-0.0952148c-0.1411133,0-0.2094727,0.0698242-0.2094727,0.2099609
			c0,0.1762695,0.0683594,0.2636719,0.2094727,0.2636719h0.0673828h0.0424805h0.0244141c0.0136719,0,0.0224609,0,0.0263672,0
			c0.0361328,0,0.0673828-0.0039062,0.0947266-0.0039062s0.0527344-0.0014648,0.0712891-0.0014648
			c0.4824219,0,0.7397461,0.0932617,0.769043,0.277832H53.9375c-0.3105469,0-0.5698242,0.0488281-0.7744141,0.1533203
			c-0.277832,0.1357422-0.4174805,0.3374023-0.4174805,0.6044922v0.3305664c0,0.2480469,0.1479492,0.4418945,0.4389648,0.5830078
			c0.2167969,0.109375,0.4726562,0.1635742,0.7705078,0.1635742h1.3862305C56.1132812,12.6542969,56.5,12.3959961,56.5,11.878418
			L56.5,11.878418z M55.9448242,11.7446289c0,0.1938477-0.0546875,0.3173828-0.1660156,0.3720703
			c-0.0776367,0.0415039-0.222168,0.0629883-0.4350586,0.0629883h-1.4047852c-0.1401367,0-0.265625-0.0205078-0.3735352-0.0585938
			c-0.1674805-0.050293-0.2514648-0.1235352-0.2514648-0.21875V11.574707c0-0.0898438,0.081543-0.1621094,0.2426758-0.2172852
			c0.1264648-0.0449219,0.2470703-0.065918,0.3657227-0.065918h2.0097656c0,0.0249023,0,0.0571289,0.0014648,0.0947266
			c0.0024414,0.0375977,0.0024414,0.0810547,0.0048828,0.1323242c0,0.050293,0.0024414,0.0952148,0.0039062,0.1323242
			C55.9423828,11.6889648,55.9448242,11.7197266,55.9448242,11.7446289L55.9448242,11.7446289z M61.7548828,12.4418945v-1.527832
			c0-0.5595703-0.3979492-0.8408203-1.1904297-0.8408203c-0.2973633,0-0.5068359,0.0078125-0.6323242,0.0214844
			c-0.2353516,0.0297852-0.4360352,0.0961914-0.5961914,0.1972656c-0.1801758-0.1064453-0.3779297-0.1762695-0.5932617-0.2026367
			c-0.0473633-0.0073242-0.1259766-0.0083008-0.2265625-0.012207c-0.1054688-0.0039062-0.2373047-0.0039062-0.4003906-0.0039062
			c-0.8242188,0-1.2363281,0.28125-1.2363281,0.8408203v1.527832c0,0.1411133,0.0693359,0.2124023,0.2104492,0.2124023
			c0.1386719,0,0.2192383-0.0073242,0.2441406-0.0234375c0.074707-0.0263672,0.1118164-0.090332,0.1118164-0.1923828v-1.5839844
			c0-0.2080078,0.2431641-0.3129883,0.7294922-0.3129883c0.0170898,0,0.0415039,0.0014648,0.0673828,0.0014648
			c0.0263672,0,0.0585938,0.0039062,0.0947266,0.0039062c0.0009766,0,0.0097656,0,0.0224609,0h0.0249023h0.0463867h0.0683594
			c0.1694336,0,0.2915039,0.0185547,0.3676758,0.0561523c0.1083984,0.0561523,0.1635742,0.1582031,0.1635742,0.3110352v1.5268555
			c0,0.1420898,0.0708008,0.2133789,0.2109375,0.2133789c0.140625,0,0.2216797-0.0073242,0.2456055-0.0234375
			c0.078125-0.0263672,0.1166992-0.090332,0.1166992-0.1923828v-1.5185547c0-0.168457,0.0839844-0.2792969,0.2524414-0.3291016
			c0.0742188-0.0229492,0.2294922-0.0400391,0.4594727-0.0493164c0.0009766,0,0.012207,0,0.0341797,0h0.0336914h0.0751953
			c0.4833984,0,0.722168,0.1030273,0.722168,0.3071289v1.5898438c0,0.1020508,0.0395508,0.1660156,0.1176758,0.1923828
			c0.0234375,0.0161133,0.1040039,0.0234375,0.2451172,0.0234375C61.6831055,12.6542969,61.7548828,12.5830078,61.7548828,12.4418945
			L61.7548828,12.4418945z M65.6176758,11.4052734v-0.6225586c0-0.2524414-0.1376953-0.440918-0.4057617-0.5668945
			c-0.1943359-0.1000977-0.4404297-0.1474609-0.737793-0.1474609h-1.0561523c-0.3637695,0-0.6547852,0.0512695-0.8754883,0.15625
			c-0.3203125,0.1420898-0.480957,0.3637695-0.480957,0.6616211v0.949707c0,0.2197266,0.1040039,0.4121094,0.3139648,0.5761719
			c0.1464844,0.1137695,0.3759766,0.1879883,0.6855469,0.21875c0.0625,0.0083008,0.1552734,0.0161133,0.2768555,0.0170898
			c0.1186523,0.0039062,0.2758789,0.0063477,0.465332,0.0063477c0.1396484,0,0.2094727-0.0712891,0.2094727-0.2124023
			c0-0.1757812-0.0698242-0.262207-0.2094727-0.262207c-0.184082,0-0.3354492-0.003418-0.4560547-0.012207
			c-0.1171875-0.0083008-0.2099609-0.0205078-0.2719727-0.0327148c-0.2866211-0.0727539-0.4287109-0.2294922-0.4287109-0.4760742
			v-0.0185547h2.8125C65.5634766,11.6401367,65.6176758,11.5625,65.6176758,11.4052734L65.6176758,11.4052734z
			 M65.0600586,11.1484375H62.628418v-0.2978516c0-0.1313477,0.1191406-0.2202148,0.3569336-0.2651367
			c0.1660156-0.0332031,0.4750977-0.050293,0.9277344-0.050293c0.765625,0,1.1469727,0.0996094,1.1469727,0.2939453V11.1484375
			L65.0600586,11.1484375z M70.9165039,10.2456055c0-0.1225586-0.0898438-0.1850586-0.269043-0.1850586
			c-0.1552734,0-0.2548828,0.0424805-0.2988281,0.1264648L69.480957,11.871582l-0.8486328-1.5722656
			c-0.0673828-0.1225586-0.1757812-0.1845703-0.3237305-0.1845703c-0.1513672,0-0.2597656,0.0620117-0.3261719,0.1884766
			l-0.8505859,1.5683594l-0.8691406-1.6845703c-0.0483398-0.0839844-0.1464844-0.1264648-0.3012695-0.1264648
			c-0.1757812,0-0.2670898,0.0625-0.2670898,0.1850586c0,0.0200195,0.0131836,0.0649414,0.0400391,0.1337891l1.0273438,2.043457
			c0.0600586,0.1240234,0.1796875,0.1865234,0.3520508,0.1865234c0.168457,0,0.2822266-0.0585938,0.3476562-0.1772461
			l0.847168-1.5742188l0.8369141,1.5717773c0.0639648,0.1162109,0.1762695,0.1748047,0.3354492,0.1748047
			c0.1689453,0,0.2832031-0.0610352,0.3442383-0.1816406l1.0512695-2.0424805
			C70.902832,10.3291016,70.9165039,10.2856445,70.9165039,10.2456055L70.9165039,10.2456055z M74.6005859,11.8520508v-0.9550781
			c0-0.550293-0.4189453-0.8237305-1.2558594-0.8237305h-0.9448242c-0.3369141,0-0.6166992,0.0576172-0.8461914,0.1723633
			c-0.3081055,0.1474609-0.4628906,0.3657227-0.4628906,0.6572266v0.9492188c0,0.2875977,0.1557617,0.5039062,0.4667969,0.6435547
			c0.2509766,0.1049805,0.534668,0.1586914,0.8447266,0.1586914h0.9423828c0.3422852,0,0.6166992-0.0537109,0.8222656-0.1572266
			C74.4560547,12.3608398,74.6005859,12.1469727,74.6005859,11.8520508L74.6005859,11.8520508z M74.027832,11.8535156
			c0,0.1162109-0.0908203,0.2021484-0.2739258,0.2607422c-0.1308594,0.0439453-0.2729492,0.0654297-0.4208984,0.0654297h-0.921875
			c-0.1743164,0-0.3291016-0.019043-0.4575195-0.0571289c-0.1972656-0.0581055-0.2973633-0.1469727-0.2973633-0.269043V10.902832
			c0-0.1269531,0.0976562-0.222168,0.2910156-0.2851562c0.1347656-0.0424805,0.2895508-0.0654297,0.4614258-0.0654297h0.9213867
			c0.4672852,0,0.6977539,0.1030273,0.6977539,0.3071289V11.8535156L74.027832,11.8535156z M76.5820312,10.3417969
			c0-0.1796875-0.0693359-0.2685547-0.2104492-0.2685547c-0.418457,0-0.7333984,0.0375977-0.9458008,0.1123047
			c-0.3457031,0.1210938-0.5166016,0.3486328-0.5166016,0.6860352v1.5668945c0,0.1445312,0.0664062,0.2158203,0.2011719,0.2158203
			c0.1333008,0,0.2148438-0.0063477,0.2470703-0.0161133c0.0776367-0.0288086,0.1166992-0.0922852,0.1166992-0.1972656V10.871582
			c0-0.2163086,0.2177734-0.324707,0.6538086-0.324707c0.0224609,0,0.0561523,0.0014648,0.1010742,0.0039062
			c0.043457,0.0014648,0.0776367,0.0014648,0.1005859,0.0014648C76.4980469,10.5522461,76.5820312,10.4829102,76.5820312,10.3417969
			L76.5820312,10.3417969z M79.909668,12.4545898c0-0.0888672-0.0473633-0.15625-0.1459961-0.2036133l-1.7768555-0.8935547
			l1.7373047-0.8657227c0.0957031-0.0488281,0.144043-0.1162109,0.144043-0.2036133
			c0-0.128418-0.0800781-0.1948242-0.2387695-0.1948242c-0.1230469,0-0.2099609,0.0068359-0.2573242,0.0214844l-1.9106445,0.9580078
			h-0.0029297V9.5825195c0-0.1030273-0.0380859-0.168457-0.1098633-0.1914062
			c-0.0297852-0.0126953-0.1123047-0.0185547-0.2416992-0.0185547c-0.1401367,0-0.2114258,0.0708008-0.2114258,0.2099609v2.859375
			c0,0.1411133,0.0712891,0.2124023,0.2114258,0.2124023c0.1352539,0,0.2158203-0.0073242,0.237793-0.0234375
			c0.0742188-0.0263672,0.1137695-0.0927734,0.1137695-0.1923828v-0.7797852l1.9360352,0.972168
			c0.0336914,0.0161133,0.1240234,0.0234375,0.2758789,0.0234375C79.8291016,12.6542969,79.909668,12.5869141,79.909668,12.4545898
			L79.909668,12.4545898z M82,8.7114258V8.1743164c0-0.0795898-0.0385742-0.1186523-0.1171875-0.1186523
			c-0.0214844,0-0.0410156,0.0048828-0.0585938,0.0112305c-0.015625,0.0097656-0.0322266,0.0224609-0.0458984,0.0371094
			l-0.3515625,0.4414062l-0.3603516-0.4384766c-0.0258789-0.0341797-0.0629883-0.0512695-0.1049805-0.0512695h-0.7661133
			c-0.0390625,0-0.0639648,0.0146484-0.0776367,0.0439453c-0.0087891,0.0131836-0.0151367,0.0371094-0.0151367,0.065918
			c0,0.0629883,0.0327148,0.09375,0.0927734,0.09375h0.1992188v0.4521484c0,0.0249023,0.0048828,0.0439453,0.0141602,0.059082
			c0.0107422,0.0131836,0.0258789,0.0258789,0.050293,0.03125c0.0039062,0.0024414,0.0112305,0.003418,0.0200195,0.003418
			s0.0234375,0,0.0410156,0c0.03125,0,0.0537109-0.0063477,0.0693359-0.0229492
			c0.0146484-0.0141602,0.0205078-0.0400391,0.0205078-0.0708008V8.2592773h0.2348633v0.4521484
			c0,0.0463867,0.0234375,0.0756836,0.065918,0.090332c0.003418,0.0024414,0.012207,0.003418,0.0209961,0.003418
			c0.0112305,0,0.0234375,0,0.0410156,0c0.0600586,0,0.090332-0.0297852,0.090332-0.09375V8.4399414l0.2529297,0.3178711
			c0.0273438,0.0332031,0.0634766,0.0512695,0.1108398,0.0512695c0.0458984,0,0.0834961-0.0180664,0.1123047-0.0512695
			l0.2426758-0.3071289v0.2607422c0,0.0639648,0.0307617,0.09375,0.0913086,0.09375h0.0380859c0.0039062,0,0.0053711,0,0.0087891,0
			c0.0039062,0,0.0078125-0.0009766,0.0102539-0.003418C81.9760742,8.7871094,82,8.7578125,82,8.7114258L82,8.7114258z
			 M10.1689453,9.1074219c-0.6611328,2.0117188-1.2885742,2.6499023-3.7602539,3.3994141
			C7.5439453,10.1992188,8.2143555,9.5512695,10.1689453,9.1074219L10.1689453,9.1074219z M10.4858398,8.7792969H5.2431641
			c-0.9643555,0-1.7470703,0.7841797-1.7470703,1.7509766v3.5019531h5.2426758c0.965332,0,1.7470703-0.7822266,1.7470703-1.75
			V8.7792969L10.4858398,8.7792969z M4.9526367,2.9921875c2.6518555,0.5991211,3.5625,1.4804688,5.1035156,4.6108398
			C6.7021484,6.5869141,5.8486328,5.7197266,4.9526367,2.9921875L4.9526367,2.9921875z M10.4858398,3.4086914
			c0-1.3129883-1.0605469-2.3769531-2.371582-2.3769531H1V5.784668c0,1.3115234,1.0625,2.3769531,2.371582,2.3769531h7.1142578
			V3.4086914L10.4858398,3.4086914z M14.3266602,5.0898438c-0.5327148,1.6206055-1.0395508,2.1362305-3.0317383,2.7392578
			C12.2099609,5.9697266,12.7504883,5.4458008,14.3266602,5.0898438L14.3266602,5.0898438z M11.1020508,5.3374023v2.8242188
			h4.2275391c0.7783203,0,1.409668-0.6333008,1.409668-1.4121094v-2.824707H12.512207
			C11.7338867,3.9248047,11.1020508,4.5571289,11.1020508,5.3374023L11.1020508,5.3374023z"/>
		<path id="Logo" style="fill: #fff;" d="M21.7739258,6.6420898c0,0.0166016-0.0043945,0.0336914-0.012207,0.0498047
			l-0.6391602,1.3535156c-0.0385742,0.0786133-0.1000977,0.1201172-0.1831055,0.1201172
			c-0.0810547,0-0.1391602-0.0375977-0.1733398-0.1118164l-0.5107422-1.0942383l-0.5268555,1.097168
			c-0.0317383,0.0639648-0.0898438,0.0976562-0.171875,0.0976562c-0.0898438,0-0.1503906-0.0351562-0.1821289-0.1049805
			l-0.6362305-1.3579102c-0.0083008-0.0161133-0.0112305-0.03125-0.0112305-0.0454102
			c0-0.0351562,0.0175781-0.0634766,0.0537109-0.0839844c0.0307617-0.0166016,0.065918-0.0253906,0.1040039-0.0253906
			c0.0625,0,0.1054688,0.0209961,0.1269531,0.0649414l0.5449219,1.1606445l0.5175781-1.1152344
			c0.0371094-0.0786133,0.0961914-0.1201172,0.1782227-0.1201172c0.027832,0,0.0605469,0.012207,0.0961914,0.034668
			c0.0361328,0.0229492,0.0610352,0.0473633,0.0732422,0.0756836l0.5258789,1.125l0.5361328-1.1567383
			c0.0205078-0.0458984,0.0664062-0.0664062,0.1386719-0.0664062c0.0351562,0,0.0693359,0.0078125,0.0986328,0.0229492
			C21.7568359,6.581543,21.7739258,6.6083984,21.7739258,6.6420898L21.7739258,6.6420898z M30.7270508,7.7543945
			c0,0.0849609-0.0458984,0.1386719-0.1396484,0.1611328c-0.0214844,0.003418-0.0507812,0.0078125-0.090332,0.0112305
			c-0.0390625,0.0014648-0.0893555,0.0039062-0.1508789,0.0039062h-0.3999023c-0.0424805,0-0.0854492-0.0024414-0.1279297-0.0073242
			c-0.0424805-0.0078125-0.0854492-0.0126953-0.128418-0.0224609c-0.1210938-0.0288086-0.1801758-0.0737305-0.1801758-0.1328125
			V7.1362305h0.8388672c0.2524414,0,0.378418,0.0551758,0.378418,0.1645508V7.7543945L30.7270508,7.7543945z M31.0083008,7.7631836
			V7.2958984c0-0.2636719-0.2216797-0.3955078-0.6640625-0.3955078h-0.8344727V6.6518555
			c0-0.0703125-0.0356445-0.1049805-0.1040039-0.1049805c-0.0698242,0-0.1103516,0.0029297-0.1210938,0.0078125
			c-0.0371094,0.0131836-0.0551758,0.0449219-0.0551758,0.0957031v1.1176758c0,0.1376953,0.0839844,0.2426758,0.253418,0.3134766
			c0.1303711,0.0551758,0.2749023,0.0839844,0.4321289,0.0839844h0.4291992
			C30.7866211,8.1655273,31.0083008,8.0317383,31.0083008,7.7631836L31.0083008,7.7631836z M28.7851562,7.7158203
			c0,0.0947266-0.0268555,0.15625-0.0800781,0.1850586c-0.0385742,0.0180664-0.1113281,0.0297852-0.2148438,0.0297852h-0.6948242
			c-0.0703125,0-0.1318359-0.0087891-0.1855469-0.0288086c-0.081543-0.0249023-0.1235352-0.0600586-0.1235352-0.1083984V7.6323242
			c0-0.0424805,0.0400391-0.0800781,0.1191406-0.1079102c0.0625-0.0209961,0.1230469-0.0332031,0.1821289-0.0332031h0.9931641
			L28.78125,7.5395508l0.0024414,0.0634766l0.0014648,0.0664062V7.7158203L28.7851562,7.7158203z M29.0600586,7.7807617V7.28125
			c0-0.1728516-0.1010742-0.2866211-0.3051758-0.3452148C28.6362305,6.90625,28.465332,6.8896484,28.2416992,6.8896484
			c-0.0693359,0-0.1040039,0.0341797-0.1040039,0.1030273c0,0.0878906,0.034668,0.1318359,0.1040039,0.1318359h0.0327148h0.0205078
			h0.0126953h0.0126953l0.0478516-0.0009766l0.0351562-0.0024414c0.2387695,0,0.3647461,0.0449219,0.3803711,0.137207H27.793457
			c-0.152832,0-0.2797852,0.0249023-0.3813477,0.0761719C27.2744141,7.4023438,27.2050781,7.5,27.2050781,7.6333008v0.1625977
			c0,0.1230469,0.0732422,0.2197266,0.2172852,0.2871094c0.1064453,0.0546875,0.2333984,0.0825195,0.3798828,0.0825195h0.6855469
			C28.8691406,8.1655273,29.0600586,8.0366211,29.0600586,7.7807617L29.0600586,7.7807617z M27.0146484,8.0605469
			c0-0.0922852-0.0356445-0.137207-0.1044922-0.137207H25.980957c-0.1582031,0-0.2592773-0.0078125-0.3032227-0.0175781
			c-0.1347656-0.0263672-0.2041016-0.0825195-0.2041016-0.1679688V6.6479492c0-0.0517578-0.0219727-0.0834961-0.0625-0.0957031
			c-0.019043-0.0053711-0.0605469-0.0087891-0.1274414-0.0087891c-0.0693359,0-0.1040039,0.034668-0.1040039,0.1035156V7.737793
			c0,0.1811523,0.0932617,0.3051758,0.2797852,0.3691406c0.121582,0.0390625,0.2895508,0.0585938,0.5058594,0.0585938h0.9448242
			C26.9790039,8.1655273,27.0146484,8.1318359,27.0146484,8.0605469L27.0146484,8.0605469z M25.0913086,7.0302734
			c0-0.0854492-0.0356445-0.1298828-0.1054688-0.1298828h-0.4438477V6.6484375c0-0.0488281-0.019043-0.0800781-0.0566406-0.09375
			c-0.012207-0.0068359-0.0517578-0.0112305-0.1201172-0.0112305S24.262207,6.5791016,24.262207,6.6479492v0.2524414
			c-0.0366211,0-0.0673828,0.0014648-0.090332,0.0019531c-0.0239258,0.0019531-0.0410156,0.0039062-0.0493164,0.0058594
			c-0.0458984,0.0136719-0.0668945,0.0512695-0.0668945,0.1098633s0.0209961,0.0952148,0.0668945,0.1103516
			c0.0083008,0.0014648,0.0253906,0.0043945,0.0493164,0.0053711c0.0229492,0.0024414,0.0537109,0.0024414,0.090332,0.0024414
			v0.921875c0,0.0498047,0.0180664,0.0830078,0.0571289,0.0961914c0.0117188,0.0073242,0.0507812,0.0112305,0.1196289,0.0112305
			c0.0693359,0,0.1030273-0.0336914,0.1030273-0.1049805V7.1362305h0.4438477
			C25.0556641,7.1362305,25.0913086,7.1000977,25.0913086,7.0302734L25.0913086,7.0302734z M23.9208984,8.0605469V6.6469727
			c0-0.0507812-0.0185547-0.0825195-0.0561523-0.0947266C23.8486328,6.546875,23.8085938,6.543457,23.7441406,6.543457
			c-0.0693359,0-0.1035156,0.034668-0.1035156,0.1035156v1.4111328c0,0.0498047,0.0185547,0.0830078,0.0576172,0.0961914
			C23.7080078,8.1616211,23.75,8.1655273,23.8168945,8.1655273C23.8857422,8.1655273,23.9208984,8.1293945,23.9208984,8.0605469
			L23.9208984,8.0605469z M23.1572266,7.7680664c0,0.0576172-0.0458984,0.1015625-0.1347656,0.1298828
			c-0.0664062,0.0209961-0.1357422,0.0327148-0.2094727,0.0327148h-0.4550781c-0.0869141,0-0.1621094-0.0087891-0.2275391-0.0288086
			C22.0341797,7.875,21.9838867,7.8291016,21.9838867,7.7680664v-0.46875c0-0.0625,0.0483398-0.1079102,0.144043-0.1411133
			c0.0678711-0.0205078,0.144043-0.0322266,0.2280273-0.0322266h0.4550781c0.2304688,0,0.3461914,0.0527344,0.3461914,0.1513672
			V7.7680664L23.1572266,7.7680664z M23.4394531,7.7680664v-0.472168c0-0.2705078-0.206543-0.40625-0.6206055-0.40625h-0.4672852
			c-0.1655273,0-0.3051758,0.0288086-0.4165039,0.0859375c-0.1542969,0.0732422-0.2304688,0.1816406-0.2304688,0.3237305v0.46875
			c0,0.1425781,0.0761719,0.25,0.230957,0.3188477c0.1245117,0.0507812,0.2636719,0.0786133,0.4179688,0.0786133h0.465332
			c0.1689453,0,0.3041992-0.0244141,0.4057617-0.0761719C23.3681641,8.0205078,23.4394531,7.9145508,23.4394531,7.7680664
			L23.4394531,7.7680664z M31.5537109,6.1489258v0.0517578c0,0.0253906-0.0209961,0.0375977-0.0625,0.0375977h-0.1767578V6.1083984
			h0.1674805C31.5302734,6.1083984,31.5537109,6.121582,31.5537109,6.1489258L31.5537109,6.1489258z M31.6123047,6.2006836V6.1489258
			c0-0.0639648-0.046875-0.0981445-0.140625-0.0981445h-0.2036133c-0.0112305,0-0.0166016,0.0068359-0.0166016,0.0195312v0.3613281
			c0,0.0219727,0.0097656,0.0332031,0.0292969,0.0332031c0.0224609,0,0.0336914-0.0112305,0.0336914-0.0332031v-0.140625
			l0.2519531,0.1723633c0.0102539,0.0019531,0.015625,0.003418,0.0166016,0.003418
			c0.0097656,0,0.0170898-0.0029297,0.0229492-0.0087891c0.0063477-0.0063477,0.0097656-0.0131836,0.0097656-0.0214844
			c0-0.0112305-0.0043945-0.0170898-0.0146484-0.0200195l-0.1796875-0.1225586h0.0629883
			C31.5698242,6.2939453,31.6123047,6.2636719,31.6123047,6.2006836L31.6123047,6.2006836z M31.7441406,6.2641602
			c0,0.0888672-0.0292969,0.1650391-0.090332,0.2285156c-0.0585938,0.0625-0.1308594,0.0942383-0.2158203,0.0942383
			c-0.0820312,0-0.1552734-0.0317383-0.215332-0.0942383c-0.0600586-0.0629883-0.0888672-0.1376953-0.0888672-0.2285156
			c0-0.090332,0.0288086-0.1660156,0.0888672-0.2275391c0.0585938-0.0634766,0.1313477-0.0942383,0.215332-0.0942383
			c0.0849609,0,0.1572266,0.0307617,0.2158203,0.0942383C31.7148438,6.1000977,31.7441406,6.1772461,31.7441406,6.2641602
			L31.7441406,6.2641602z M31.8085938,6.2636719c0-0.1074219-0.0371094-0.1977539-0.1103516-0.2714844
			c-0.0722656-0.0751953-0.1577148-0.1142578-0.2602539-0.1142578c-0.1005859,0-0.1865234,0.0390625-0.2573242,0.1142578
			c-0.0712891,0.0756836-0.1069336,0.1660156-0.1069336,0.2714844c0,0.1074219,0.0356445,0.1992188,0.1069336,0.2753906
			c0.0708008,0.0737305,0.1582031,0.1103516,0.2573242,0.1103516c0.1025391,0,0.1889648-0.0366211,0.2612305-0.1103516
			C31.7714844,6.4628906,31.8085938,6.3710938,31.8085938,6.2636719L31.8085938,6.2636719z M15.5976562,9.6484375
			c0-0.1835938-0.0698242-0.2758789-0.2084961-0.2758789h-2.1367188c-0.1132812,0-0.2104492,0.003418-0.2939453,0.0083008
			c-0.0825195,0.0063477-0.1513672,0.0151367-0.2094727,0.0249023c-0.2246094,0.0415039-0.4169922,0.1240234-0.5727539,0.2426758
			c-0.1879883,0.1459961-0.2817383,0.3193359-0.2817383,0.5283203v1.6293945c0,0.1660156,0.0380859,0.3017578,0.1152344,0.4072266
			c0.0644531,0.0898438,0.1767578,0.1772461,0.3369141,0.2612305c0.1420898,0.0722656,0.2768555,0.1210938,0.4082031,0.1459961
			c0.1201172,0.0229492,0.3164062,0.0336914,0.5908203,0.0336914H15.375c0.1445312,0,0.2172852-0.0834961,0.2172852-0.2495117
			c0-0.1655273-0.0727539-0.246582-0.2172852-0.246582h-2.0292969c-0.5717773,0-0.8569336-0.1230469-0.8569336-0.3671875v-1.6176758
			c0-0.206543,0.2583008-0.3095703,0.7744141-0.3095703h2.1259766C15.527832,9.8637695,15.5976562,9.7919922,15.5976562,9.6484375
			L15.5976562,9.6484375z M19.5595703,11.8520508v-0.9550781c0-0.550293-0.4179688-0.8237305-1.2563477-0.8237305h-0.9443359
			c-0.3369141,0-0.6181641,0.0576172-0.8452148,0.1723633c-0.3100586,0.1474609-0.4643555,0.3657227-0.4643555,0.6572266v0.9492188
			c0,0.2875977,0.1552734,0.5039062,0.4672852,0.6435547c0.2514648,0.1049805,0.5341797,0.1586914,0.8447266,0.1586914h0.9418945
			c0.3422852,0,0.6166992-0.0537109,0.8217773-0.1572266C19.4150391,12.3608398,19.5595703,12.1469727,19.5595703,11.8520508
			L19.5595703,11.8520508z M18.9868164,11.8535156c0,0.1162109-0.0908203,0.2021484-0.2734375,0.2607422
			c-0.1328125,0.0439453-0.2719727,0.0654297-0.421875,0.0654297h-0.9208984c-0.175293,0-0.3286133-0.019043-0.4599609-0.0571289
			c-0.1967773-0.0581055-0.2939453-0.1469727-0.2939453-0.269043V10.902832c0-0.1269531,0.0957031-0.222168,0.2885742-0.2851562
			c0.1367188-0.0424805,0.2905273-0.0654297,0.4624023-0.0654297h0.9213867c0.4658203,0,0.6977539,0.1030273,0.6977539,0.3071289
			V11.8535156L18.9868164,11.8535156z M24.8198242,12.4418945v-1.527832c0-0.5595703-0.3964844-0.8408203-1.190918-0.8408203
			c-0.2954102,0-0.5058594,0.0078125-0.6308594,0.0214844c-0.2368164,0.0297852-0.4360352,0.0961914-0.5976562,0.1972656
			c-0.1806641-0.1064453-0.3769531-0.1762695-0.5908203-0.2026367c-0.050293-0.0073242-0.1274414-0.0083008-0.2299805-0.012207
			c-0.1035156-0.0039062-0.2353516-0.0039062-0.3994141-0.0039062c-0.8242188,0-1.2363281,0.28125-1.2363281,0.8408203v1.527832
			c0,0.1411133,0.0698242,0.2124023,0.2104492,0.2124023c0.1386719,0,0.2202148-0.0073242,0.2441406-0.0234375
			c0.0742188-0.0263672,0.112793-0.090332,0.112793-0.1923828v-1.5839844c0-0.2080078,0.2431641-0.3129883,0.7285156-0.3129883
			c0.0185547,0,0.0415039,0.0014648,0.0673828,0.0014648c0.0273438,0,0.0581055,0.0039062,0.09375,0.0039062
			c0.0019531,0,0.0102539,0,0.0244141,0h0.0239258h0.0463867h0.0693359c0.1699219,0,0.2910156,0.0185547,0.3671875,0.0561523
			c0.109375,0.0561523,0.1625977,0.1582031,0.1625977,0.3110352v1.5268555c0,0.1420898,0.0712891,0.2133789,0.2128906,0.2133789
			c0.1401367,0,0.2211914-0.0073242,0.2446289-0.0234375c0.0771484-0.0263672,0.1162109-0.090332,0.1162109-0.1923828v-1.5185547
			c0-0.168457,0.0839844-0.2792969,0.2519531-0.3291016c0.0756836-0.0229492,0.2290039-0.0400391,0.4609375-0.0493164
			c0.0019531,0,0.012207,0,0.0317383,0h0.0351562h0.0751953c0.4819336,0,0.7236328,0.1030273,0.7236328,0.3071289v1.5898438
			c0,0.1020508,0.0390625,0.1660156,0.1162109,0.1923828c0.0234375,0.0161133,0.105957,0.0234375,0.2460938,0.0234375
			C24.7490234,12.6542969,24.8198242,12.5830078,24.8198242,12.4418945L24.8198242,12.4418945z M30.0795898,12.4418945v-1.527832
			c0-0.5595703-0.3969727-0.8408203-1.1914062-0.8408203c-0.2954102,0-0.5058594,0.0078125-0.6303711,0.0214844
			c-0.2373047,0.0297852-0.4360352,0.0961914-0.5976562,0.1972656c-0.1806641-0.1064453-0.3774414-0.1762695-0.5913086-0.2026367
			c-0.050293-0.0073242-0.1264648-0.0083008-0.2299805-0.012207c-0.1025391-0.0039062-0.2348633-0.0039062-0.3989258-0.0039062
			c-0.8232422,0-1.2363281,0.28125-1.2363281,0.8408203v1.527832c0,0.1411133,0.0693359,0.2124023,0.2099609,0.2124023
			c0.1391602,0,0.2207031-0.0073242,0.2441406-0.0234375c0.0751953-0.0263672,0.1137695-0.090332,0.1137695-0.1923828v-1.5839844
			c0-0.2080078,0.2431641-0.3129883,0.7290039-0.3129883c0.0175781,0,0.0400391,0.0014648,0.0664062,0.0014648
			c0.0268555,0,0.0576172,0.0039062,0.09375,0.0039062c0.0019531,0,0.0097656,0,0.0249023,0h0.0229492h0.0463867h0.0708008
			c0.1694336,0,0.2905273,0.0185547,0.3662109,0.0561523c0.109375,0.0561523,0.1640625,0.1582031,0.1640625,0.3110352v1.5268555
			c0,0.1420898,0.0698242,0.2133789,0.2114258,0.2133789c0.1401367,0,0.2216797-0.0073242,0.2451172-0.0234375
			c0.0761719-0.0263672,0.1157227-0.090332,0.1157227-0.1923828v-1.5185547c0-0.168457,0.0844727-0.2792969,0.253418-0.3291016
			c0.0742188-0.0229492,0.2280273-0.0400391,0.4589844-0.0493164c0.0019531,0,0.0126953,0,0.0317383,0h0.0356445h0.0756836
			c0.4829102,0,0.7226562,0.1030273,0.7226562,0.3071289v1.5898438c0,0.1020508,0.0395508,0.1660156,0.1171875,0.1923828
			c0.0229492,0.0161133,0.1049805,0.0234375,0.2451172,0.0234375C30.0092773,12.6542969,30.0795898,12.5830078,30.0795898,12.4418945
			L30.0795898,12.4418945z M34.0786133,11.8823242v-1.5966797c0-0.1411133-0.0703125-0.2124023-0.2114258-0.2124023
			c-0.1401367,0-0.2226562,0.0048828-0.2456055,0.0161133c-0.0771484,0.0263672-0.1152344,0.0927734-0.1152344,0.1962891v1.6064453
			c0,0.1928711-0.2661133,0.2875977-0.7978516,0.2875977h-0.8476562c-0.5419922,0-0.8144531-0.0986328-0.8144531-0.2939453
			v-1.6000977c0-0.1035156-0.0375977-0.1699219-0.112793-0.1962891c-0.0234375-0.0112305-0.1049805-0.0161133-0.2436523-0.0161133
			c-0.1401367,0-0.2094727,0.0712891-0.2094727,0.2124023v1.5976562c0,0.5126953,0.4589844,0.7709961,1.3798828,0.7709961h0.1206055
			h0.078125h0.0429688h0.0244141c0.0131836,0,0.0195312,0,0.0214844,0c0.0649414,0.0014648,0.1201172,0.0039062,0.1699219,0.0048828
			c0.0483398,0,0.0878906,0,0.1171875,0C33.5302734,12.6591797,34.0786133,12.3994141,34.0786133,11.8823242L34.0786133,11.8823242z
			 M37.9907227,12.4418945v-1.6391602c0-0.4858398-0.4277344-0.7294922-1.2851562-0.7294922h-0.9257812
			c-0.8671875,0-1.2998047,0.2436523-1.2998047,0.7333984v1.6318359c0,0.1020508,0.0380859,0.1660156,0.1123047,0.1923828
			c0.0234375,0.0161133,0.1049805,0.0234375,0.2446289,0.0234375c0.1401367,0,0.2094727-0.0712891,0.2094727-0.2124023v-1.6391602
			c0-0.1157227,0.0917969-0.1923828,0.2744141-0.2275391c0.0395508-0.0073242,0.0922852-0.012207,0.1591797-0.0161133
			c0.0673828-0.0039062,0.1508789-0.0068359,0.2485352-0.0068359h0.9770508c0.1074219,0,0.1953125,0.0024414,0.2661133,0.0043945
			c0.0712891,0.0024414,0.1230469,0.0073242,0.1572266,0.0151367c0.1933594,0.034668,0.2895508,0.1113281,0.2895508,0.2270508
			v1.6396484c0,0.1020508,0.0385742,0.1660156,0.1157227,0.1923828c0.0234375,0.0161133,0.1044922,0.0234375,0.2451172,0.0234375
			C37.9204102,12.6542969,37.9907227,12.5830078,37.9907227,12.4418945L37.9907227,12.4418945z M39.0961914,9.7172852
			c0-0.0927734-0.0395508-0.1645508-0.1181641-0.2182617c-0.0673828-0.0473633-0.1518555-0.0717773-0.2495117-0.0717773
			c-0.0996094,0-0.1821289,0.0244141-0.2495117,0.0717773c-0.0795898,0.0537109-0.1186523,0.1254883-0.1186523,0.2182617
			c0,0.0952148,0.0390625,0.1694336,0.1186523,0.2226562c0.0673828,0.0458984,0.1499023,0.0693359,0.2495117,0.0693359
			c0.0976562,0,0.1821289-0.0234375,0.2495117-0.0693359C39.0566406,9.8867188,39.0961914,9.8125,39.0961914,9.7172852
			L39.0961914,9.7172852z M39.0185547,12.4384766v-2.1679688c0-0.1010742-0.0366211-0.1635742-0.1123047-0.1894531
			c-0.0239258-0.0151367-0.1035156-0.0205078-0.2407227-0.0205078c-0.1425781,0-0.2138672,0.0703125-0.2138672,0.2099609v2.1679688
			c0,0.1020508,0.0375977,0.1660156,0.1108398,0.1923828c0.0229492,0.0161133,0.1049805,0.0234375,0.2431641,0.0234375
			C38.9482422,12.6542969,39.0185547,12.5805664,39.0185547,12.4384766L39.0185547,12.4384766z M41.4208984,10.359375
			c0-0.1762695-0.0703125-0.2646484-0.2124023-0.2646484h-0.8974609V9.5864258c0-0.1005859-0.0385742-0.1640625-0.1162109-0.1904297
			c-0.0229492-0.0151367-0.1030273-0.0234375-0.2407227-0.0234375c-0.140625,0-0.2099609,0.0708008-0.2099609,0.2124023v0.5097656
			c-0.0751953,0-0.1362305,0.0024414-0.184082,0.0053711c-0.0483398,0.0014648-0.081543,0.0053711-0.1010742,0.0092773
			c-0.0898438,0.0302734-0.1342773,0.1049805-0.1342773,0.2236328c0,0.1176758,0.0444336,0.1923828,0.1342773,0.222168
			c0.0195312,0.0039062,0.0527344,0.0078125,0.1010742,0.0087891c0.0478516,0.0039062,0.1088867,0.0053711,0.184082,0.0053711
			v1.8691406c0,0.0996094,0.0390625,0.1660156,0.1147461,0.1923828c0.0244141,0.0161133,0.1044922,0.0234375,0.2431641,0.0234375
			s0.2089844-0.0712891,0.2089844-0.2124023v-1.8725586h0.8974609C41.3505859,10.5693359,41.4208984,10.4980469,41.4208984,10.359375
			L41.4208984,10.359375z M45.2436523,12.6142578v-2.3286133c0-0.1035156-0.0375977-0.1699219-0.1113281-0.1962891
			c-0.0244141-0.0112305-0.1069336-0.0161133-0.2460938-0.0161133c-0.1425781,0-0.2133789,0.0712891-0.2133789,0.2124023v1.8725586
			h-1.6923828c-0.4760742,0-0.7128906-0.1000977-0.7128906-0.296875v-1.5756836c0-0.1411133-0.0693359-0.2124023-0.2089844-0.2124023
			s-0.2207031,0.0048828-0.2456055,0.0161133c-0.0742188,0.0263672-0.1118164,0.0927734-0.1118164,0.1938477v1.578125
			c0,0.5126953,0.425293,0.7695312,1.2792969,0.7695312h1.6923828c0,0.1660156-0.2519531,0.2480469-0.7583008,0.2480469
			c-0.019043,0-0.0439453-0.0009766-0.0708008-0.0009766c-0.027832,0-0.0615234-0.0014648-0.1010742-0.0039062
			c-0.0014648,0-0.0102539,0-0.0288086,0h-0.0273438h-0.0449219h-0.0727539c-0.1416016,0-0.2128906,0.0712891-0.2128906,0.2143555
			c0,0.097168,0.0126953,0.1630859,0.0351562,0.1977539c0.0297852,0.0527344,0.0898438,0.0791016,0.1777344,0.0791016
			c0.5351562,0,0.8833008-0.0224609,1.0375977-0.0678711C45.0327148,13.1914062,45.2436523,12.9633789,45.2436523,12.6142578
			L45.2436523,12.6142578z M50.8115234,11.0292969c0-0.1625977-0.0742188-0.2441406-0.2231445-0.2441406h-2.855957v-0.6230469
			c0-0.1987305,0.4013672-0.2983398,1.2050781-0.2983398c0.1401367,0,0.2109375-0.0717773,0.2109375-0.215332
			c0-0.1835938-0.0708008-0.2758789-0.2109375-0.2758789h-0.4472656c-0.309082,0-0.5908203,0.0532227-0.8500977,0.1621094
			c-0.3344727,0.1401367-0.5029297,0.3398438-0.5029297,0.6025391v2.3012695c0,0.1020508,0.0424805,0.1660156,0.1289062,0.1923828
			c0.0229492,0.0161133,0.1098633,0.0234375,0.2563477,0.0234375c0.1381836,0,0.2099609-0.0712891,0.2099609-0.2124023v-1.1665039
			h2.855957C50.7373047,11.2753906,50.8115234,11.1933594,50.8115234,11.0292969L50.8115234,11.0292969z M52.4326172,10.3417969
			c0-0.1796875-0.0712891-0.2685547-0.2128906-0.2685547c-0.4179688,0-0.7324219,0.0375977-0.9428711,0.1123047
			c-0.347168,0.1210938-0.519043,0.3486328-0.519043,0.6860352v1.5668945c0,0.1445312,0.0668945,0.2158203,0.2026367,0.2158203
			c0.1323242,0,0.2128906-0.0063477,0.2446289-0.0161133c0.0805664-0.0288086,0.1191406-0.0922852,0.1191406-0.1972656V10.871582
			c0-0.2163086,0.2182617-0.324707,0.6533203-0.324707c0.0239258,0,0.0571289,0.0014648,0.1010742,0.0039062
			c0.0444336,0.0014648,0.078125,0.0014648,0.1010742,0.0014648C52.3466797,10.5522461,52.4326172,10.4829102,52.4326172,10.3417969
			L52.4326172,10.3417969z M56.5,11.878418v-1.0117188c0-0.3500977-0.2060547-0.5810547-0.6171875-0.6982422
			c-0.2416992-0.0654297-0.5878906-0.0952148-1.0400391-0.0952148c-0.1411133,0-0.2094727,0.0698242-0.2094727,0.2099609
			c0,0.1762695,0.0683594,0.2636719,0.2094727,0.2636719h0.0673828h0.0424805h0.0244141c0.0136719,0,0.0224609,0,0.0263672,0
			c0.0361328,0,0.0673828-0.0039062,0.0947266-0.0039062s0.0527344-0.0014648,0.0712891-0.0014648
			c0.4824219,0,0.7397461,0.0932617,0.769043,0.277832H53.9375c-0.3105469,0-0.5698242,0.0488281-0.7744141,0.1533203
			c-0.277832,0.1357422-0.4174805,0.3374023-0.4174805,0.6044922v0.3305664c0,0.2480469,0.1479492,0.4418945,0.4389648,0.5830078
			c0.2167969,0.109375,0.4726562,0.1635742,0.7705078,0.1635742h1.3862305C56.1132812,12.6542969,56.5,12.3959961,56.5,11.878418
			L56.5,11.878418z M55.9448242,11.7446289c0,0.1938477-0.0546875,0.3173828-0.1660156,0.3720703
			c-0.0776367,0.0415039-0.222168,0.0629883-0.4350586,0.0629883h-1.4047852c-0.1401367,0-0.265625-0.0205078-0.3735352-0.0585938
			c-0.1674805-0.050293-0.2514648-0.1235352-0.2514648-0.21875V11.574707c0-0.0898438,0.081543-0.1621094,0.2426758-0.2172852
			c0.1264648-0.0449219,0.2470703-0.065918,0.3657227-0.065918h2.0097656c0,0.0249023,0,0.0571289,0.0014648,0.0947266
			c0.0024414,0.0375977,0.0024414,0.0810547,0.0048828,0.1323242c0,0.050293,0.0024414,0.0952148,0.0039062,0.1323242
			C55.9423828,11.6889648,55.9448242,11.7197266,55.9448242,11.7446289L55.9448242,11.7446289z M61.7548828,12.4418945v-1.527832
			c0-0.5595703-0.3979492-0.8408203-1.1904297-0.8408203c-0.2973633,0-0.5068359,0.0078125-0.6323242,0.0214844
			c-0.2353516,0.0297852-0.4360352,0.0961914-0.5961914,0.1972656c-0.1801758-0.1064453-0.3779297-0.1762695-0.5932617-0.2026367
			c-0.0473633-0.0073242-0.1259766-0.0083008-0.2265625-0.012207c-0.1054688-0.0039062-0.2373047-0.0039062-0.4003906-0.0039062
			c-0.8242188,0-1.2363281,0.28125-1.2363281,0.8408203v1.527832c0,0.1411133,0.0693359,0.2124023,0.2104492,0.2124023
			c0.1386719,0,0.2192383-0.0073242,0.2441406-0.0234375c0.074707-0.0263672,0.1118164-0.090332,0.1118164-0.1923828v-1.5839844
			c0-0.2080078,0.2431641-0.3129883,0.7294922-0.3129883c0.0170898,0,0.0415039,0.0014648,0.0673828,0.0014648
			c0.0263672,0,0.0585938,0.0039062,0.0947266,0.0039062c0.0009766,0,0.0097656,0,0.0224609,0h0.0249023h0.0463867h0.0683594
			c0.1694336,0,0.2915039,0.0185547,0.3676758,0.0561523c0.1083984,0.0561523,0.1635742,0.1582031,0.1635742,0.3110352v1.5268555
			c0,0.1420898,0.0708008,0.2133789,0.2109375,0.2133789c0.140625,0,0.2216797-0.0073242,0.2456055-0.0234375
			c0.078125-0.0263672,0.1166992-0.090332,0.1166992-0.1923828v-1.5185547c0-0.168457,0.0839844-0.2792969,0.2524414-0.3291016
			c0.0742188-0.0229492,0.2294922-0.0400391,0.4594727-0.0493164c0.0009766,0,0.012207,0,0.0341797,0h0.0336914h0.0751953
			c0.4833984,0,0.722168,0.1030273,0.722168,0.3071289v1.5898438c0,0.1020508,0.0395508,0.1660156,0.1176758,0.1923828
			c0.0234375,0.0161133,0.1040039,0.0234375,0.2451172,0.0234375C61.6831055,12.6542969,61.7548828,12.5830078,61.7548828,12.4418945
			L61.7548828,12.4418945z M65.6176758,11.4052734v-0.6225586c0-0.2524414-0.1376953-0.440918-0.4057617-0.5668945
			c-0.1943359-0.1000977-0.4404297-0.1474609-0.737793-0.1474609h-1.0561523c-0.3637695,0-0.6547852,0.0512695-0.8754883,0.15625
			c-0.3203125,0.1420898-0.480957,0.3637695-0.480957,0.6616211v0.949707c0,0.2197266,0.1040039,0.4121094,0.3139648,0.5761719
			c0.1464844,0.1137695,0.3759766,0.1879883,0.6855469,0.21875c0.0625,0.0083008,0.1552734,0.0161133,0.2768555,0.0170898
			c0.1186523,0.0039062,0.2758789,0.0063477,0.465332,0.0063477c0.1396484,0,0.2094727-0.0712891,0.2094727-0.2124023
			c0-0.1757812-0.0698242-0.262207-0.2094727-0.262207c-0.184082,0-0.3354492-0.003418-0.4560547-0.012207
			c-0.1171875-0.0083008-0.2099609-0.0205078-0.2719727-0.0327148c-0.2866211-0.0727539-0.4287109-0.2294922-0.4287109-0.4760742
			v-0.0185547h2.8125C65.5634766,11.6401367,65.6176758,11.5625,65.6176758,11.4052734L65.6176758,11.4052734z
			 M65.0600586,11.1484375H62.628418v-0.2978516c0-0.1313477,0.1191406-0.2202148,0.3569336-0.2651367
			c0.1660156-0.0332031,0.4750977-0.050293,0.9277344-0.050293c0.765625,0,1.1469727,0.0996094,1.1469727,0.2939453V11.1484375
			L65.0600586,11.1484375z M70.9165039,10.2456055c0-0.1225586-0.0898438-0.1850586-0.269043-0.1850586
			c-0.1552734,0-0.2548828,0.0424805-0.2988281,0.1264648L69.480957,11.871582l-0.8486328-1.5722656
			c-0.0673828-0.1225586-0.1757812-0.1845703-0.3237305-0.1845703c-0.1513672,0-0.2597656,0.0620117-0.3261719,0.1884766
			l-0.8505859,1.5683594l-0.8691406-1.6845703c-0.0483398-0.0839844-0.1464844-0.1264648-0.3012695-0.1264648
			c-0.1757812,0-0.2670898,0.0625-0.2670898,0.1850586c0,0.0200195,0.0131836,0.0649414,0.0400391,0.1337891l1.0273438,2.043457
			c0.0600586,0.1240234,0.1796875,0.1865234,0.3520508,0.1865234c0.168457,0,0.2822266-0.0585938,0.3476562-0.1772461
			l0.847168-1.5742188l0.8369141,1.5717773c0.0639648,0.1162109,0.1762695,0.1748047,0.3354492,0.1748047
			c0.1689453,0,0.2832031-0.0610352,0.3442383-0.1816406l1.0512695-2.0424805
			C70.902832,10.3291016,70.9165039,10.2856445,70.9165039,10.2456055L70.9165039,10.2456055z M74.6005859,11.8520508v-0.9550781
			c0-0.550293-0.4189453-0.8237305-1.2558594-0.8237305h-0.9448242c-0.3369141,0-0.6166992,0.0576172-0.8461914,0.1723633
			c-0.3081055,0.1474609-0.4628906,0.3657227-0.4628906,0.6572266v0.9492188c0,0.2875977,0.1557617,0.5039062,0.4667969,0.6435547
			c0.2509766,0.1049805,0.534668,0.1586914,0.8447266,0.1586914h0.9423828c0.3422852,0,0.6166992-0.0537109,0.8222656-0.1572266
			C74.4560547,12.3608398,74.6005859,12.1469727,74.6005859,11.8520508L74.6005859,11.8520508z M74.027832,11.8535156
			c0,0.1162109-0.0908203,0.2021484-0.2739258,0.2607422c-0.1308594,0.0439453-0.2729492,0.0654297-0.4208984,0.0654297h-0.921875
			c-0.1743164,0-0.3291016-0.019043-0.4575195-0.0571289c-0.1972656-0.0581055-0.2973633-0.1469727-0.2973633-0.269043V10.902832
			c0-0.1269531,0.0976562-0.222168,0.2910156-0.2851562c0.1347656-0.0424805,0.2895508-0.0654297,0.4614258-0.0654297h0.9213867
			c0.4672852,0,0.6977539,0.1030273,0.6977539,0.3071289V11.8535156L74.027832,11.8535156z M76.5820312,10.3417969
			c0-0.1796875-0.0693359-0.2685547-0.2104492-0.2685547c-0.418457,0-0.7333984,0.0375977-0.9458008,0.1123047
			c-0.3457031,0.1210938-0.5166016,0.3486328-0.5166016,0.6860352v1.5668945c0,0.1445312,0.0664062,0.2158203,0.2011719,0.2158203
			c0.1333008,0,0.2148438-0.0063477,0.2470703-0.0161133c0.0776367-0.0288086,0.1166992-0.0922852,0.1166992-0.1972656V10.871582
			c0-0.2163086,0.2177734-0.324707,0.6538086-0.324707c0.0224609,0,0.0561523,0.0014648,0.1010742,0.0039062
			c0.043457,0.0014648,0.0776367,0.0014648,0.1005859,0.0014648C76.4980469,10.5522461,76.5820312,10.4829102,76.5820312,10.3417969
			L76.5820312,10.3417969z M79.909668,12.4545898c0-0.0888672-0.0473633-0.15625-0.1459961-0.2036133l-1.7768555-0.8935547
			l1.7373047-0.8657227c0.0957031-0.0488281,0.144043-0.1162109,0.144043-0.2036133
			c0-0.128418-0.0800781-0.1948242-0.2387695-0.1948242c-0.1230469,0-0.2099609,0.0068359-0.2573242,0.0214844l-1.9106445,0.9580078
			h-0.0029297V9.5825195c0-0.1030273-0.0380859-0.168457-0.1098633-0.1914062
			c-0.0297852-0.0126953-0.1123047-0.0185547-0.2416992-0.0185547c-0.1401367,0-0.2114258,0.0708008-0.2114258,0.2099609v2.859375
			c0,0.1411133,0.0712891,0.2124023,0.2114258,0.2124023c0.1352539,0,0.2158203-0.0073242,0.237793-0.0234375
			c0.0742188-0.0263672,0.1137695-0.0927734,0.1137695-0.1923828v-0.7797852l1.9360352,0.972168
			c0.0336914,0.0161133,0.1240234,0.0234375,0.2758789,0.0234375C79.8291016,12.6542969,79.909668,12.5869141,79.909668,12.4545898
			L79.909668,12.4545898z M82,8.7114258V8.1743164c0-0.0795898-0.0385742-0.1186523-0.1171875-0.1186523
			c-0.0214844,0-0.0410156,0.0048828-0.0585938,0.0112305c-0.015625,0.0097656-0.0322266,0.0224609-0.0458984,0.0371094
			l-0.3515625,0.4414062l-0.3603516-0.4384766c-0.0258789-0.0341797-0.0629883-0.0512695-0.1049805-0.0512695h-0.7661133
			c-0.0390625,0-0.0639648,0.0146484-0.0776367,0.0439453c-0.0087891,0.0131836-0.0151367,0.0371094-0.0151367,0.065918
			c0,0.0629883,0.0327148,0.09375,0.0927734,0.09375h0.1992188v0.4521484c0,0.0249023,0.0048828,0.0439453,0.0141602,0.059082
			c0.0107422,0.0131836,0.0258789,0.0258789,0.050293,0.03125c0.0039062,0.0024414,0.0112305,0.003418,0.0200195,0.003418
			s0.0234375,0,0.0410156,0c0.03125,0,0.0537109-0.0063477,0.0693359-0.0229492
			c0.0146484-0.0141602,0.0205078-0.0400391,0.0205078-0.0708008V8.2592773h0.2348633v0.4521484
			c0,0.0463867,0.0234375,0.0756836,0.065918,0.090332c0.003418,0.0024414,0.012207,0.003418,0.0209961,0.003418
			c0.0112305,0,0.0234375,0,0.0410156,0c0.0600586,0,0.090332-0.0297852,0.090332-0.09375V8.4399414l0.2529297,0.3178711
			c0.0273438,0.0332031,0.0634766,0.0512695,0.1108398,0.0512695c0.0458984,0,0.0834961-0.0180664,0.1123047-0.0512695
			l0.2426758-0.3071289v0.2607422c0,0.0639648,0.0307617,0.09375,0.0913086,0.09375h0.0380859c0.0039062,0,0.0053711,0,0.0087891,0
			c0.0039062,0,0.0078125-0.0009766,0.0102539-0.003418C81.9760742,8.7871094,82,8.7578125,82,8.7114258L82,8.7114258z
			 M10.1689453,9.1074219c-0.6611328,2.0117188-1.2885742,2.6499023-3.7602539,3.3994141
			C7.5439453,10.1992188,8.2143555,9.5512695,10.1689453,9.1074219L10.1689453,9.1074219z M10.4858398,8.7792969H5.2431641
			c-0.9643555,0-1.7470703,0.7841797-1.7470703,1.7509766v3.5019531h5.2426758c0.965332,0,1.7470703-0.7822266,1.7470703-1.75
			V8.7792969L10.4858398,8.7792969z M4.9526367,2.9921875c2.6518555,0.5991211,3.5625,1.4804688,5.1035156,4.6108398
			C6.7021484,6.5869141,5.8486328,5.7197266,4.9526367,2.9921875L4.9526367,2.9921875z M10.4858398,3.4086914
			c0-1.3129883-1.0605469-2.3769531-2.371582-2.3769531H1V5.784668c0,1.3115234,1.0625,2.3769531,2.371582,2.3769531h7.1142578
			V3.4086914L10.4858398,3.4086914z M14.3266602,5.0898438c-0.5327148,1.6206055-1.0395508,2.1362305-3.0317383,2.7392578
			C12.2099609,5.9697266,12.7504883,5.4458008,14.3266602,5.0898438L14.3266602,5.0898438z M11.1020508,5.3374023v2.8242188
			h4.2275391c0.7783203,0,1.409668-0.6333008,1.409668-1.4121094v-2.824707H12.512207
			C11.7338867,3.9248047,11.1020508,4.5571289,11.1020508,5.3374023L11.1020508,5.3374023z"/>
	</g>
</svg>
