<?xml version="1.0" encoding="utf-8"?>
<!--<?xml-stylesheet type="text/css" href="svg.css"?>-->
<!DOCTYPE svg PUBLIC "-//W3C//DTD SVG 1.1//EN" "http://www.w3.org/Graphics/SVG/1.1/DTD/svg11.dtd">
<svg version="1.1" xmlns="http://www.w3.org/2000/svg" xmlns:xlink="http://www.w3.org/1999/xlink" x="0px" y="0px" width="16px" height="16px" viewBox="0 0 16 16" xml:space="preserve">
	
	<title>Add</title>
	<desc>Add Icon (outlined)</desc>
	
	<!--
		@author		Harald Szekely 
		@copyright	2011 WoltLab GmbH 
		@license	GNU Lesser General Public License <http://opensource.org/licenses/lgpl-license.php> 
	--> 
	
	<defs>
		<style type="text/css">
			<![CDATA[
				.Upper1 {fill: #666;}
				.Lower1 {fill: #fff;}
			]]>
		</style>
	</defs>
	
	<g id="IconAdd">
		<g class="Lower1">
			<path id="Circle2" style="fill-rule: evenodd; clip-rule: evenodd;" d="M2.347168,8.5
				c0,2.8476562,2.3066406,5.1533203,5.152832,5.1533203c2.8447266,0,5.1523438-2.3056641,5.1523438-5.1533203
				c0-2.8466797-2.3076172-5.1533203-5.1523438-5.1533203C4.6538086,3.3466797,2.347168,5.6533203,2.347168,8.5z M1,8.5
				C1,4.9101562,3.909668,2,7.5,2C11.0898438,2,14,4.9101562,14,8.5c0,3.5908203-2.9101562,6.5-6.5,6.5
				C3.909668,15,1,12.0908203,1,8.5z"/>
			<path id="Plus2" style="fill-rule: evenodd; clip-rule: evenodd;" d="M11.5,8.5
				c0-0.4394531-0.359375-0.800293-0.7998047-0.800293H9.0996094c-0.4404297,0-0.7998047-0.359375-0.7998047-0.7998047V5.3007812
				c0-0.4399414-0.359375-0.800293-0.7998047-0.800293l0,0c-0.4404297,0-0.7998047,0.3603516-0.7998047,0.800293v1.5991211
				c0,0.4404297-0.359375,0.7998047-0.800293,0.7998047H4.2998047C3.859375,7.699707,3.5,8.0605469,3.5,8.5l0,0
				c0,0.4404297,0.359375,0.7998047,0.7998047,0.7998047h1.6000977c0.440918,0,0.800293,0.359375,0.800293,0.7998047v1.6005859
				C6.7001953,12.140625,7.0595703,12.5,7.5,12.5l0,0c0.4404297,0,0.7998047-0.359375,0.7998047-0.7998047v-1.6005859
				c0-0.4404297,0.359375-0.7998047,0.7998047-0.7998047h1.6005859C11.140625,9.2998047,11.5,8.9404297,11.5,8.5L11.5,8.5z"/>
		</g>
		<g class="Upper1">
			<path id="Circle1" style="fill-rule: evenodd; clip-rule: evenodd;" d="M2.347168,7.5
				c0,2.8476562,2.3066406,5.1533203,5.152832,5.1533203c2.8447266,0,5.1523438-2.3056641,5.1523438-5.1533203
				c0-2.8466797-2.3076172-5.1533203-5.1523438-5.1533203C4.6538086,2.3466797,2.347168,4.6533203,2.347168,7.5z M1,7.5
				C1,3.9101562,3.909668,1,7.5,1C11.0898438,1,14,3.9101562,14,7.5c0,3.5908203-2.9101562,6.5-6.5,6.5
				C3.909668,14,1,11.0908203,1,7.5z"/>
			<path id="Plus1" style="fill-rule: evenodd; clip-rule: evenodd;" d="M11.5,7.5
				c0-0.4394531-0.359375-0.800293-0.7998047-0.800293H9.0996094c-0.4404297,0-0.7998047-0.359375-0.7998047-0.7998047V4.3007812
				c0-0.4399414-0.359375-0.800293-0.7998047-0.800293l0,0c-0.4404297,0-0.7998047,0.3603516-0.7998047,0.800293v1.5991211
				c0,0.4404297-0.359375,0.7998047-0.800293,0.7998047H4.2998047C3.859375,6.699707,3.5,7.0605469,3.5,7.5l0,0
				c0,0.4404297,0.359375,0.7998047,0.7998047,0.7998047h1.6000977c0.440918,0,0.800293,0.359375,0.800293,0.7998047v1.6005859
				C6.7001953,11.140625,7.0595703,11.5,7.5,11.5l0,0c0.4404297,0,0.7998047-0.359375,0.7998047-0.7998047V9.0996094
				c0-0.4404297,0.359375-0.7998047,0.7998047-0.7998047h1.6005859C11.140625,8.2998047,11.5,7.9404297,11.5,7.5L11.5,7.5z"/>
		</g>
	</g>
</svg>
