<?xml version="1.0" encoding="utf-8"?>
<!--<?xml-stylesheet type="text/css" href="svg.css"?>-->
<!DOCTYPE svg PUBLIC "-//W3C//DTD SVG 1.1//EN" "http://www.w3.org/Graphics/SVG/1.1/DTD/svg11.dtd">
<svg version="1.1" xmlns="http://www.w3.org/2000/svg" xmlns:xlink="http://www.w3.org/1999/xlink" x="0px" y="0px" width="16px" height="16px" viewBox="0 0 16 16" xml:space="preserve">
	
	<title>Plus</title> 
	<desc>Plus Icon (outlined)</desc> 
	
	<!--
		@author		Harald Szekely 
		@copyright	2011 WoltLab GmbH 
		@license	GNU Lesser General Public License <http://opensource.org/licenses/lgpl-license.php> 
	--> 
	
	<defs>
		
	</defs>
	
	<g id="IconPlus">
		<g class="Lower">
			<path id="Circle1" style="fill-rule: evenodd; clip-rule: evenodd; fill: #fff;" d="M2.347168,8.5
				c0,2.8476562,2.3066406,5.1533203,5.152832,5.1533203c2.8447266,0,5.1523438-2.3056641,5.1523438-5.1533203
				c0-2.8466797-2.3076172-5.1533203-5.1523438-5.1533203C4.6538086,3.3466797,2.347168,5.6533203,2.347168,8.5z M1,8.5
				C1,4.9101562,3.909668,2,7.5,2C11.0898438,2,14,4.9101562,14,8.5c0,3.5908203-2.9101562,6.5-6.5,6.5
				C3.909668,15,1,12.0908203,1,8.5z"/>
			<path id="Plus1" style="fill: #fff;" d="M10.5,7.5h-2v-2c0-0.5292969-0.4472656-1-0.9995117-1
				C6.9477539,4.5,6.5,4.9707031,6.5,5.5v2h-2c-0.5288086,0-1,0.4477539-1,1.0004883C3.5,9.0527344,4.1083984,9.5,4.637207,9.5H6.5v2
				c0,0.5283203,0.4477539,1,1.0004883,1C8.0527344,12.5,8.5,12.0283203,8.5,11.5v-2h2c0.5292969,0,1-0.4472656,1-0.9995117
				C11.5,7.9477539,11.0292969,7.5,10.5,7.5z"/>
		</g>
		<g class="Upper">
			<path id="Circle2" style="fill-rule: evenodd; clip-rule: evenodd; fill: #666;" d="M2.347168,7.5
				c0,2.8476562,2.3066406,5.1533203,5.152832,5.1533203c2.8447266,0,5.1523438-2.3056641,5.1523438-5.1533203
				c0-2.8466797-2.3076172-5.1533203-5.1523438-5.1533203C4.6538086,2.3466797,2.347168,4.6533203,2.347168,7.5z M1,7.5
				C1,3.9101562,3.909668,1,7.5,1C11.0898438,1,14,3.9101562,14,7.5c0,3.5908203-2.9101562,6.5-6.5,6.5
				C3.909668,14,1,11.0908203,1,7.5z"/>
			<path id="Plus2" style="fill: #666;" d="M10.5,6.5h-2v-2c0-0.5292969-0.4477539-1-0.9995117-1
				C6.9477539,3.5,6.5,3.9707031,6.5,4.5v2h-2c-0.5288086,0-1,0.4477539-1,1.0004883C3.5,8.0522461,3.9711914,8.5,4.5,8.5h2v2
				c0,0.5283203,0.4477539,1,1.0004883,1C8.0522461,11.5,8.5,11.0283203,8.5,10.5v-2h2c0.5292969,0,1-0.4477539,1-0.9995117
				C11.5,6.9477539,11.0292969,6.5,10.5,6.5z"/>
		</g>
	</g>
</svg>
