<?xml version="1.0" encoding="utf-8"?>
<!--<?xml-stylesheet type="text/css" href="svg.css"?>-->
<!DOCTYPE svg PUBLIC "-//W3C//DTD SVG 1.1//EN" "http://www.w3.org/Graphics/SVG/1.1/DTD/svg11.dtd">
<svg version="1.1" xmlns="http://www.w3.org/2000/svg" xmlns:xlink="http://www.w3.org/1999/xlink" x="0px" y="0px" width="16px" height="16px" viewBox="0 0 16 16" xml:space="preserve">
	
	<title>Alt</title>
	<desc>Alternate Arrow Icon</desc>
	
	<!--
		@author		Harald Szekely
		@copyright	2001-2012 WoltLab GmbH 
		@license	GNU Lesser General Public License <http://opensource.org/licenses/lgpl-license.php> 
	--> 
	
	<defs>
		<style type="text/css">
			<![CDATA[
				.surface { fill: #666; }
				.shadow { fill: #fff; }
			]]>
		</style>
	</defs>
	
	<g id="IconAlternate">
		<polygon class="shadow" opacity=".8" style="fill-rule: evenodd; clip-rule: evenodd;" points="11.0058594,2 8.9941406,4.012207 
			11.5732422,4.012207 8.0009766,7.5854492 4.4316406,4.0175781 6.9951172,4.0170898 4.9780273,2 1,2 1,5.9951172 
			3.0107422,8.0058594 3.0107422,5.4248047 7,9.4150391 7,15 9,15 9,9.4160156 13.0087891,5.4047852 13.0097656,7.9951172 
			15,6.0048828 15,2"/>
		<polygon class="surface" style="fill-rule: evenodd; clip-rule: evenodd;" points="11.0058594,0.9995117 8.9941406,3.0117188 
			11.5732422,3.0117188 8.0009766,6.5849609 4.4316406,3.0170898 6.9951172,3.0166016 4.9780273,0.9995117 1,0.9995117 1,4.9946289 
			3.0107422,7.0048828 3.0107422,4.4243164 7,8.4145508 7,14 9,14 9,8.4160156 13.0087891,4.4042969 13.0097656,6.9946289 
			15,5.0043945 15,0.9995117"/>
	</g>
</svg>
