<?xml version="1.0" encoding="utf-8"?>
<!-- Generator: Adobe Illustrator 15.1.0, SVG Export Plug-In . SVG Version: 6.00 Build 0)  -->
<!DOCTYPE svg PUBLIC "-//W3C//DTD SVG 1.1//EN" "http://www.w3.org/Graphics/SVG/1.1/DTD/svg11.dtd">
<svg version="1.1" id="Ebene_1" xmlns="http://www.w3.org/2000/svg" xmlns:xlink="http://www.w3.org/1999/xlink" x="0px" y="0px" width="16px" height="16px" viewBox="0 0 16 16" enable-background="new 0 0 16 16" xml:space="preserve">
	<title>Asterisk</title>
	<desc>Asterisk Icon</desc>
	
	<!--
		@author		Harald Szekely
		@copyright	2001-2012 WoltLab GmbH 
		@license	GNU Lesser General Public License <http://opensource.org/licenses/lgpl-license.php> 
	--> 
	
	<defs>
		<style type="text/css">
			<![CDATA[
				.surface { fill: #666; }
				.shadow { fill: #fff; }
			]]>
		</style>
	</defs>
	
	<g id="IconNew">
		<g>
			<path class="shadow" opacity=".8" d="M14.5,8.5c0-0.55-0.45-1-1-1h-2.086c-0.55,0-0.682-0.318-0.293-0.707l1.476-1.475
				c0.389-0.389,0.389-1.025,0-1.414h-0.001c-0.389-0.389-1.025-0.389-1.414,0L9.707,5.378C9.318,5.767,9,5.635,9,5.085V3
				c0-0.55-0.45-1-1-1l0,0C7.45,2,7,2.45,7,3v2.086c0,0.55-0.318,0.682-0.707,0.293L4.818,3.903c-0.389-0.389-1.025-0.389-1.414,0
				s-0.389,1.025,0,1.414l1.475,1.475C5.268,7.181,5.136,7.5,4.586,7.5H2.5c-0.55,0-1,0.45-1,1v0c0,0.55,0.45,1,1,1h2.085
				c0.55,0,0.682,0.318,0.293,0.707l-1.475,1.475c-0.389,0.389-0.389,1.025,0,1.414s1.025,0.389,1.414,0l1.475-1.475
				C6.682,11.232,7,11.364,7,11.914V14c0,0.55,0.45,1,1,1l0,0c0.55,0,1-0.45,1-1v-2.086c0-0.55,0.318-0.682,0.707-0.293l1.475,1.475
				c0.389,0.389,1.025,0.389,1.414,0h0.001c0.389-0.389,0.389-1.025,0-1.414l-1.475-1.475C10.733,9.818,10.865,9.5,11.415,9.5H13.5
				C14.05,9.5,14.5,9.05,14.5,8.5L14.5,8.5z"/>
		</g>
		<g>
			<path class="surface" d="M14.5,7.5c0-0.55-0.45-1-1-1h-2.086c-0.55,0-0.682-0.318-0.293-0.707l1.476-1.475
				c0.389-0.389,0.389-1.025,0-1.414h-0.001c-0.389-0.389-1.025-0.389-1.414,0L9.707,4.378C9.318,4.767,9,4.635,9,4.085V2
				c0-0.55-0.45-1-1-1l0,0C7.45,1,7,1.45,7,2v2.085c0,0.55-0.318,0.682-0.707,0.293L4.818,2.904c-0.389-0.389-1.025-0.389-1.414,0
				s-0.389,1.025,0,1.414l1.475,1.475C5.267,6.182,5.135,6.5,4.585,6.5H2.5c-0.55,0-1,0.45-1,1l0,0c0,0.55,0.45,1,1,1h2.085
				c0.55,0,0.682,0.318,0.293,0.707l-1.475,1.475c-0.389,0.389-0.389,1.025,0,1.414v0.001c0.389,0.389,1.025,0.389,1.414,0
				l1.475-1.476C6.682,10.232,7,10.364,7,10.914V13c0,0.55,0.45,1,1,1l0,0c0.55,0,1-0.45,1-1v-2.085c0-0.55,0.318-0.682,0.707-0.293
				l1.475,1.475c0.389,0.389,1.025,0.389,1.414,0l0.001-0.001c0.389-0.389,0.389-1.025,0-1.414l-1.475-1.475
				C10.733,8.818,10.865,8.5,11.415,8.5H13.5C14.05,8.5,14.5,8.05,14.5,7.5L14.5,7.5z"/>
		</g>
	</g>
</svg>
