<?xml version="1.0" encoding="utf-8"?>
<!--<?xml-stylesheet type="text/css" href="svg.css"?>-->
<!DOCTYPE svg PUBLIC "-//W3C//DTD SVG 1.1//EN" "http://www.w3.org/Graphics/SVG/1.1/DTD/svg11.dtd">
<svg version="1.1" xmlns="http://www.w3.org/2000/svg" xmlns:xlink="http://www.w3.org/1999/xlink" x="0px" y="0px" width="16px" height="16px" viewBox="0 0 16 16" xml:space="preserve">
	
	<title>Atom</title>
	<desc>Atom Icon</desc>
	
	<!--
		@author		Harald Szekely 
		@copyright	2011 WoltLab GmbH 
		@license	GNU Lesser General Public License <http://opensource.org/licenses/lgpl-license.php> 
	--> 
	
	<defs>
		<style type="text/css">
			<![CDATA[
				.Upper1 {fill: #666;}
				.Lower1 {fill: #fff;}
			]]>
		</style>
	</defs>
	
	<g id="IconAtom">
		<g class="Lower1">
			<ellipse id="Circle2" cx="7.0004883" cy="8.5002441" rx="1.5268555" ry="1.4997559"/>
			<path id="Orbits2" d="M12.7304688,5.2504883C12.2597656,4.4516602,11.25,4.0561523,9.9765625,4.0561523
				c-0.1152344,0-0.2460938,0.0229492-0.3671875,0.0297852C8.9594727,2.8061523,8.0336914,2.0004883,7.0004883,2.0004883
				c-1.0322266,0-1.9589844,0.8056641-2.6088867,2.0854492C4.2705078,4.0791016,4.140625,4.0561523,4.0239258,4.0561523
				C2.7514648,4.0566406,1.7402344,4.4516602,1.2709961,5.2504883C0.7563477,6.1259766,0.9995117,7.3120117,1.7954102,8.5009766
				C1,9.6894531,0.7568359,10.875,1.2709961,11.75c0.4697266,0.7988281,1.4804688,1.1953125,2.7529297,1.1953125
				c0.1166992,0,0.246582-0.0234375,0.3676758-0.0292969C5.0415039,14.1953125,5.9682617,15,7.0004883,15
				c1.0332031,0,1.9589844-0.8046875,2.6088867-2.0839844c0.1210938,0.0058594,0.25,0.0292969,0.3671875,0.0292969
				c1.2714844,0,2.2832031-0.3964844,2.7539062-1.1953125c0.5136719-0.875,0.2714844-2.0605469-0.5253906-3.2495117
				C13.0019531,7.3115234,13.2441406,6.1254883,12.7304688,5.2504883z M9.9765625,4.8061523
				c0.6015625,0,1.6738281,0.1064453,2.0917969,0.8193359c0.3125,0.5307617,0.1757812,1.3378906-0.3535156,2.2231445
				c-0.3671875-0.4389648-0.8085938-0.8701172-1.3125-1.2783203c-0.1074219-0.6342773-0.2675781-1.2255859-0.4707031-1.7602539
				C9.9472656,4.8100586,9.9628906,4.8061523,9.9765625,4.8061523z M3.4672852,9.2939453
				c-0.2729492-0.2646484-0.5117188-0.5288086-0.7202148-0.793457C2.9555664,8.2353516,3.1943359,7.9711914,3.4672852,7.706543
				C3.4501953,7.9672852,3.4379883,8.2314453,3.4379883,8.5004883S3.4501953,9.0332031,3.4672852,9.2939453z M5.6010742,10.8828125
				c-0.4750977-0.2695312-0.8925781-0.5625-1.2832031-0.8613281C4.2495117,9.5410156,4.2016602,9.0390625,4.2016602,8.5004883
				c0-0.5390625,0.0478516-1.0400391,0.1162109-1.5219727c0.390625-0.2988281,0.8081055-0.590332,1.2832031-0.8598633
				c0.4584961-0.2602539,0.9287109-0.4716797,1.3994141-0.6591797c0.4707031,0.1875,0.9404297,0.3989258,1.3994141,0.6591797
				C8.862793,6.3813477,9.2832031,6.6748047,9.6835938,6.9799805c0.0683594,0.4814453,0.1152344,0.9819336,0.1152344,1.5205078
				s-0.046875,1.0385742-0.1152344,1.5209961c-0.4003906,0.3046875-0.8208008,0.5976562-1.2836914,0.8613281
				c-0.4589844,0.2597656-0.9287109,0.4707031-1.3994141,0.6582031C6.5297852,11.3535156,6.0595703,11.1425781,5.6010742,10.8828125z
				 M5.956543,11.8964844c-0.3696289,0.1015625-0.7304688,0.1777344-1.0810547,0.2265625
				C4.7451172,11.8125,4.6313477,11.4765625,4.534668,11.109375c0.2211914,0.1464844,0.4477539,0.2871094,0.6845703,0.421875
				C5.4643555,11.6699219,5.7104492,11.7773438,5.956543,11.8964844z M4.534668,5.890625
				c0.0966797-0.3657227,0.2104492-0.7016602,0.3408203-1.012207c0.3505859,0.0483398,0.7114258,0.1235352,1.081543,0.2255859
				c-0.246582,0.1186523-0.4926758,0.2265625-0.737793,0.3652344C4.9824219,5.6040039,4.7558594,5.7456055,4.534668,5.890625z
				 M8.0444336,5.1040039C8.4135742,5.0019531,8.7749023,4.9267578,9.125,4.8789062
				C9.2558594,5.1889648,9.3691406,5.5249023,9.4667969,5.890625C9.2460938,5.7456055,9.0195312,5.6040039,8.7817383,5.4692383
				C8.5375977,5.3305664,8.2905273,5.2226562,8.0444336,5.1040039z M8.7817383,11.53125
				c0.237793-0.1347656,0.4624023-0.2753906,0.6850586-0.421875C9.3691406,11.4765625,9.2558594,11.8125,9.125,12.1230469
				c-0.3500977-0.0488281-0.7114258-0.125-1.0805664-0.2265625C8.2905273,11.7773438,8.5375977,11.6699219,8.7817383,11.53125z
				 M10.5332031,7.7084961c0.2675781,0.2578125,0.5058594,0.5214844,0.7207031,0.7919922
				c-0.2148438,0.2705078-0.453125,0.534668-0.7207031,0.7924805C10.5507812,9.0322266,10.5625,8.769043,10.5625,8.5004883
				S10.5507812,7.96875,10.5332031,7.7084961z M7.0004883,2.7504883c0.6162109,0,1.2607422,0.5283203,1.7773438,1.4169922
				C8.2094727,4.262207,7.6098633,4.4365234,7.0004883,4.6601562C6.3916016,4.4365234,5.7919922,4.262207,5.2226562,4.1674805
				C5.7407227,3.2788086,6.3842773,2.7504883,7.0004883,2.7504883z M1.9316406,5.6254883
				c0.4189453-0.7124023,1.4912109-0.8188477,2.0927734-0.8193359c0.0146484,0,0.0307617,0.0039062,0.0449219,0.0039062
				c-0.2021484,0.534668-0.3632812,1.1254883-0.4711914,1.7602539c-0.5019531,0.40625-0.9404297,0.8354492-1.3085938,1.2719727
				C1.7675781,6.9589844,1.6240234,6.1489258,1.9316406,5.6254883z M4.0239258,12.1953125
				c-0.6015625,0-1.6733398-0.1074219-2.0922852-0.8203125c-0.3076172-0.5234375-0.1640625-1.3339844,0.3579102-2.2167969
				c0.3681641,0.4375,0.8066406,0.8671875,1.3085938,1.2734375c0.1079102,0.6328125,0.269043,1.2246094,0.4711914,1.7597656
				C4.0546875,12.1914062,4.0385742,12.1953125,4.0239258,12.1953125z M7.0004883,14.25
				c-0.6162109,0-1.2597656-0.5273438-1.777832-1.4160156c0.5693359-0.0957031,1.168457-0.2695312,1.777832-0.4941406
				c0.609375,0.2246094,1.2089844,0.3984375,1.7773438,0.4941406C8.2612305,13.7226562,7.6166992,14.25,7.0004883,14.25z
				 M12.0683594,11.375c-0.4199219,0.7128906-1.4902344,0.8203125-2.0917969,0.8203125
				c-0.0136719,0-0.03125-0.0039062-0.0449219-0.0039062c0.203125-0.5351562,0.3632812-1.1269531,0.4707031-1.7597656
				c0.5039062-0.4082031,0.9453125-0.8398438,1.3125-1.2792969C12.2441406,10.0390625,12.3808594,10.8457031,12.0683594,11.375z"/>
		</g>
		<g class="Upper1">
			<ellipse id="Circle1" cx="7.0004883" cy="7.5" rx="1.5268555" ry="1.5"/>
			<path id="Orbits1" d="M12.7304688,4.25C12.2597656,3.4511719,11.25,3.0556641,9.9765625,3.0556641
				c-0.1152344,0-0.2460938,0.0229492-0.3671875,0.0297852C8.9594727,1.8056641,8.0336914,1,7.0004883,1
				C5.9682617,1,5.0415039,1.8056641,4.3916016,3.0854492C4.2705078,3.0786133,4.140625,3.0556641,4.0239258,3.0556641
				C2.7514648,3.0561523,1.7402344,3.4511719,1.2709961,4.25C0.7563477,5.1254883,0.9995117,6.3115234,1.7954102,7.5004883
				C1,8.6894531,0.7568359,9.875,1.2709961,10.75c0.4697266,0.7988281,1.4804688,1.1943359,2.7529297,1.1943359
				c0.1166992,0,0.246582-0.0234375,0.3676758-0.0292969C5.0415039,13.1943359,5.9682617,14,7.0004883,14
				c1.0332031,0,1.9589844-0.8056641,2.6088867-2.0849609c0.1210938,0.0058594,0.25,0.0292969,0.3671875,0.0292969
				c1.2714844,0,2.2832031-0.3955078,2.7539062-1.1943359c0.5136719-0.875,0.2714844-2.0605469-0.5253906-3.25
				C13.0019531,6.3110352,13.2441406,5.125,12.7304688,4.25z M9.9765625,3.8056641
				c0.6015625,0,1.6738281,0.1064453,2.0917969,0.8193359c0.3125,0.5307617,0.1757812,1.3378906-0.3535156,2.2231445
				c-0.3671875-0.4389648-0.8085938-0.8701172-1.3125-1.2783203c-0.1074219-0.6342773-0.2675781-1.2255859-0.4707031-1.7602539
				C9.9472656,3.8095703,9.9628906,3.8056641,9.9765625,3.8056641z M3.4672852,8.293457
				C3.1943359,8.0292969,2.9555664,7.7646484,2.7470703,7.5c0.2084961-0.2651367,0.4472656-0.5292969,0.7202148-0.7939453
				C3.4501953,6.9667969,3.4379883,7.230957,3.4379883,7.5S3.4501953,8.0332031,3.4672852,8.293457z M5.6010742,9.8818359
				C5.1259766,9.6123047,4.7084961,9.3203125,4.3178711,9.0214844C4.2495117,8.5400391,4.2016602,8.0390625,4.2016602,7.5
				s0.0478516-1.0400391,0.1162109-1.5219727c0.390625-0.2988281,0.8081055-0.590332,1.2832031-0.8598633
				c0.4584961-0.2602539,0.9287109-0.4716797,1.3994141-0.6591797c0.4707031,0.1875,0.9404297,0.3989258,1.3994141,0.6591797
				C8.862793,5.3808594,9.2832031,5.6743164,9.6835938,5.9794922C9.7519531,6.4609375,9.7988281,6.9614258,9.7988281,7.5
				s-0.046875,1.0390625-0.1152344,1.5205078C9.2832031,9.3251953,8.862793,9.6191406,8.3999023,9.8818359
				c-0.4589844,0.2597656-0.9287109,0.4716797-1.3994141,0.6591797C6.5297852,10.3535156,6.0595703,10.1416016,5.6010742,9.8818359z
				 M5.956543,10.8964844c-0.3696289,0.1015625-0.7304688,0.1777344-1.0810547,0.2255859
				c-0.1303711-0.3105469-0.2441406-0.6464844-0.3408203-1.0126953c0.2211914,0.1455078,0.4477539,0.2871094,0.6845703,0.421875
				C5.4643555,10.6699219,5.7104492,10.7773438,5.956543,10.8964844z M4.534668,4.8901367
				c0.0966797-0.3657227,0.2104492-0.7016602,0.3408203-1.012207c0.3505859,0.0483398,0.7114258,0.1235352,1.081543,0.2255859
				C5.7104492,4.222168,5.4643555,4.3300781,5.2192383,4.46875C4.9824219,4.6035156,4.7558594,4.7451172,4.534668,4.8901367z
				 M8.0444336,4.1035156C8.4135742,4.0014648,8.7749023,3.9262695,9.125,3.878418
				c0.1308594,0.3100586,0.2441406,0.6459961,0.3417969,1.0117188C9.2460938,4.7451172,9.0195312,4.6035156,8.7817383,4.46875
				C8.5375977,4.3300781,8.2905273,4.222168,8.0444336,4.1035156z M8.7817383,10.53125
				c0.237793-0.1347656,0.4624023-0.2763672,0.6850586-0.421875C9.3691406,10.4755859,9.2558594,10.8115234,9.125,11.1220703
				c-0.3500977-0.0478516-0.7114258-0.1240234-1.0805664-0.2255859C8.2905273,10.7773438,8.5375977,10.6699219,8.7817383,10.53125z
				 M10.5332031,6.7080078C10.8007812,6.9658203,11.0390625,7.2294922,11.2539062,7.5
				c-0.2148438,0.2705078-0.453125,0.5341797-0.7207031,0.7919922C10.5507812,8.0317383,10.5625,7.7685547,10.5625,7.5
				S10.5507812,6.9682617,10.5332031,6.7080078z M7.0004883,1.75c0.6162109,0,1.2607422,0.5283203,1.7773438,1.4169922
				C8.2094727,3.2617188,7.6098633,3.4360352,7.0004883,3.659668c-0.6088867-0.2236328-1.2084961-0.3979492-1.777832-0.4926758
				C5.7407227,2.2783203,6.3842773,1.75,7.0004883,1.75z M1.9316406,4.625
				c0.4189453-0.7124023,1.4912109-0.8188477,2.0927734-0.8193359c0.0146484,0,0.0307617,0.0039062,0.0449219,0.0039062
				c-0.2021484,0.534668-0.3632812,1.1254883-0.4711914,1.7602539c-0.5019531,0.40625-0.9404297,0.8354492-1.3085938,1.2719727
				C1.7675781,5.9584961,1.6240234,5.1484375,1.9316406,4.625z M4.0239258,11.1943359
				c-0.6015625,0-1.6733398-0.1064453-2.0922852-0.8193359C1.6240234,9.8515625,1.7675781,9.0410156,2.2895508,8.1582031
				c0.3681641,0.4365234,0.8066406,0.8662109,1.3085938,1.2724609c0.1079102,0.6337891,0.269043,1.2255859,0.4711914,1.7597656
				C4.0546875,11.1904297,4.0385742,11.1943359,4.0239258,11.1943359z M7.0004883,13.25
				c-0.6162109,0-1.2597656-0.5283203-1.777832-1.4169922c0.5693359-0.0947266,1.168457-0.2695312,1.777832-0.4931641
				c0.609375,0.2236328,1.2089844,0.3984375,1.7773438,0.4931641C8.2612305,12.7216797,7.6166992,13.25,7.0004883,13.25z
				 M12.0683594,10.375c-0.4199219,0.7128906-1.4902344,0.8193359-2.0917969,0.8193359
				c-0.0136719,0-0.03125-0.0039062-0.0449219-0.0039062c0.203125-0.5341797,0.3632812-1.1259766,0.4707031-1.7597656
				c0.5039062-0.4082031,0.9453125-0.8398438,1.3125-1.2783203C12.2441406,9.0380859,12.3808594,9.8447266,12.0683594,10.375z"/>
		</g>
	</g>
</svg>
