<?xml version="1.0" encoding="utf-8"?>
<!-- Generator: Adobe Illustrator 15.1.0, SVG Export Plug-In . SVG Version: 6.00 Build 0)  -->
<!DOCTYPE svg PUBLIC "-//W3C//DTD SVG 1.1//EN" "http://www.w3.org/Graphics/SVG/1.1/DTD/svg11.dtd">
<svg version="1.1" id="Ebene_1" xmlns="http://www.w3.org/2000/svg" xmlns:xlink="http://www.w3.org/1999/xlink" x="0px" y="0px" width="16px" height="16px" viewBox="0 0 16 16" enable-background="new 0 0 16 16" xml:space="preserve">
	<title>Atom</title>
	<desc>Atom Icon</desc>
	
	<!--
		@author		Alexander Ebert
		@copyright	2001-2012 WoltLab GmbH 
		@license	GNU Lesser General Public License <http://opensource.org/licenses/lgpl-license.php> 
	--> 
	
	<defs>
		<style type="text/css">
			<![CDATA[
				.surface { fill: #666; }
				.shadow { fill: #fff; }
			]]>
		</style>
	</defs>
	
	<g id="IconAtom">
		<g>
			<ellipse id="Circle2" class="shadow" opacity=".8" cx="8" cy="8.5" rx="1.527" ry="1.5"/>
			<path id="Orbits2" class="shadow" opacity=".8" d="M13.73,5.25c-0.471-0.799-1.48-1.194-2.754-1.194c-0.115,0-0.246,0.023-0.367,0.03
				C9.959,2.806,9.033,2,8,2C6.968,2,6.042,2.806,5.392,4.086c-0.121-0.007-0.251-0.03-0.368-0.03c-1.272,0-2.284,0.396-2.753,1.194
				C1.756,6.126,2,7.312,2.795,8.501C2,9.689,1.757,10.875,2.271,11.75c0.47,0.799,1.48,1.195,2.753,1.195
				c0.117,0,0.247-0.023,0.368-0.029C6.042,14.195,6.968,15,8,15c1.033,0,1.958-0.805,2.609-2.084
				c0.121,0.006,0.25,0.029,0.367,0.029c1.271,0,2.283-0.396,2.754-1.195c0.514-0.875,0.271-2.061-0.525-3.25
				C14.002,7.312,14.244,6.125,13.73,5.25z M10.977,4.806c0.602,0,1.674,0.106,2.092,0.819c0.313,0.531,0.176,1.338-0.354,2.223
				c-0.367-0.439-0.809-0.87-1.313-1.278c-0.107-0.634-0.268-1.226-0.471-1.76C10.947,4.81,10.963,4.806,10.977,4.806z M4.467,9.294
				C4.194,9.029,3.956,8.766,3.747,8.5c0.208-0.265,0.447-0.529,0.72-0.793C4.45,7.967,4.438,8.231,4.438,8.5
				C4.438,8.77,4.45,9.033,4.467,9.294z M6.601,10.883c-0.475-0.27-0.893-0.563-1.283-0.861C5.25,9.541,5.202,9.039,5.202,8.5
				c0-0.539,0.048-1.04,0.116-1.521c0.391-0.299,0.808-0.59,1.283-0.86C7.06,5.858,7.53,5.647,8,5.459
				c0.471,0.188,0.941,0.399,1.4,0.659c0.463,0.263,0.883,0.556,1.283,0.861c0.068,0.481,0.115,0.982,0.115,1.52
				c0,0.539-0.047,1.039-0.115,1.521c-0.4,0.305-0.82,0.598-1.283,0.861c-0.459,0.26-0.929,0.471-1.4,0.658
				C7.53,11.354,7.06,11.143,6.601,10.883z M6.957,11.896c-0.37,0.102-0.73,0.178-1.081,0.227c-0.13-0.311-0.244-0.646-0.341-1.014
				c0.221,0.146,0.448,0.287,0.685,0.422C6.464,11.67,6.71,11.777,6.957,11.896z M5.535,5.891c0.097-0.366,0.21-0.702,0.341-1.012
				c0.351,0.048,0.711,0.124,1.082,0.226C6.71,5.223,6.464,5.331,6.219,5.469C5.982,5.604,5.756,5.746,5.535,5.891z M9.045,5.104
				c0.369-0.102,0.73-0.177,1.08-0.225c0.131,0.31,0.244,0.646,0.342,1.012c-0.221-0.145-0.447-0.287-0.686-0.421
				C9.537,5.331,9.291,5.223,9.045,5.104z M9.781,11.531c0.238-0.135,0.463-0.275,0.686-0.422c-0.098,0.367-0.211,0.703-0.342,1.014
				c-0.35-0.049-0.711-0.125-1.08-0.227C9.291,11.777,9.537,11.67,9.781,11.531z M11.533,7.708c0.268,0.258,0.506,0.521,0.721,0.792
				c-0.215,0.271-0.453,0.535-0.721,0.793c0.018-0.261,0.029-0.523,0.029-0.793C11.563,8.232,11.551,7.969,11.533,7.708z M8,2.75
				c0.617,0,1.261,0.528,1.777,1.417C9.209,4.262,8.609,4.437,8,4.66C7.392,4.437,6.792,4.262,6.223,4.167
				C6.741,3.279,7.384,2.75,8,2.75z M2.932,5.625c0.419-0.712,1.491-0.819,2.093-0.819c0.015,0,0.031,0.004,0.045,0.004
				C4.867,5.345,4.706,5.936,4.598,6.57C4.096,6.977,3.658,7.406,3.29,7.842C2.768,6.959,2.624,6.149,2.932,5.625z M5.024,12.195
				c-0.602,0-1.673-0.107-2.092-0.82c-0.308-0.523-0.164-1.334,0.358-2.217c0.368,0.438,0.807,0.867,1.309,1.273
				c0.108,0.633,0.269,1.225,0.471,1.76C5.055,12.191,5.039,12.195,5.024,12.195z M8,14.25c-0.616,0-1.26-0.527-1.778-1.416
				C6.792,12.738,7.391,12.564,8,12.34c0.609,0.225,1.208,0.398,1.777,0.494C9.262,13.723,8.617,14.25,8,14.25z M13.068,11.375
				c-0.42,0.713-1.49,0.82-2.092,0.82c-0.014,0-0.031-0.004-0.045-0.004c0.203-0.535,0.363-1.127,0.471-1.76
				c0.504-0.408,0.945-0.84,1.313-1.279C13.244,10.039,13.381,10.846,13.068,11.375z"/>
		</g>
		<g>
			<ellipse id="Circle1" class="surface" cx="8" cy="7.5" rx="1.527" ry="1.5"/>
			<path id="Orbits1" class="surface" d="M13.73,4.25c-0.471-0.799-1.48-1.194-2.754-1.194c-0.115,0-0.246,0.023-0.367,0.03
				C9.959,1.806,9.033,1,8,1C6.968,1,6.042,1.806,5.392,3.085c-0.121-0.007-0.251-0.03-0.368-0.03c-1.272,0-2.284,0.396-2.753,1.194
				C1.756,5.125,2,6.312,2.795,7.5C2,8.689,1.757,9.875,2.271,10.75c0.47,0.799,1.48,1.194,2.753,1.194
				c0.117,0,0.247-0.023,0.368-0.029C6.042,13.194,6.968,14,8,14c1.033,0,1.958-0.806,2.609-2.085
				c0.121,0.006,0.25,0.029,0.367,0.029c1.271,0,2.283-0.396,2.754-1.194c0.514-0.875,0.271-2.061-0.525-3.25
				C14.002,6.311,14.244,5.125,13.73,4.25z M10.977,3.806c0.602,0,1.674,0.106,2.092,0.819c0.313,0.531,0.176,1.338-0.354,2.223
				c-0.367-0.439-0.809-0.87-1.313-1.278c-0.107-0.634-0.268-1.226-0.471-1.76C10.947,3.81,10.963,3.806,10.977,3.806z M4.467,8.293
				C4.194,8.029,3.956,7.765,3.747,7.5c0.208-0.265,0.447-0.529,0.72-0.794C4.45,6.967,4.438,7.231,4.438,7.5S4.45,8.033,4.467,8.293
				z M6.601,9.882c-0.475-0.27-0.893-0.562-1.283-0.86C5.25,8.54,5.202,8.039,5.202,7.5S5.25,6.46,5.318,5.978
				c0.391-0.299,0.808-0.59,1.283-0.86C7.06,4.858,7.53,4.646,8,4.459c0.471,0.188,0.941,0.399,1.4,0.659
				c0.463,0.263,0.883,0.556,1.283,0.861c0.068,0.481,0.115,0.982,0.115,1.521s-0.047,1.039-0.115,1.521
				c-0.4,0.305-0.82,0.599-1.283,0.861c-0.459,0.26-0.929,0.472-1.4,0.659C7.53,10.354,7.06,10.142,6.601,9.882z M6.957,10.896
				c-0.37,0.102-0.73,0.178-1.081,0.226c-0.13-0.311-0.244-0.646-0.341-1.013c0.221,0.146,0.448,0.287,0.685,0.422
				C6.464,10.67,6.71,10.777,6.957,10.896z M5.535,4.89c0.097-0.366,0.21-0.702,0.341-1.012c0.351,0.048,0.711,0.124,1.082,0.226
				C6.71,4.222,6.464,4.33,6.219,4.469C5.982,4.604,5.756,4.745,5.535,4.89z M9.045,4.104c0.369-0.102,0.73-0.177,1.08-0.225
				c0.131,0.31,0.244,0.646,0.342,1.012c-0.221-0.145-0.447-0.287-0.686-0.421C9.537,4.33,9.291,4.222,9.045,4.104z M9.781,10.531
				c0.238-0.135,0.463-0.276,0.686-0.422c-0.098,0.366-0.211,0.702-0.342,1.013c-0.35-0.048-0.711-0.124-1.08-0.226
				C9.291,10.777,9.537,10.67,9.781,10.531z M11.533,6.708c0.268,0.258,0.506,0.521,0.721,0.792
				c-0.215,0.271-0.453,0.534-0.721,0.792c0.018-0.26,0.029-0.523,0.029-0.792S11.551,6.968,11.533,6.708z M8,1.75
				c0.617,0,1.261,0.528,1.777,1.417C9.209,3.262,8.609,3.436,8,3.66C7.392,3.436,6.792,3.262,6.223,3.167
				C6.741,2.278,7.384,1.75,8,1.75z M2.932,4.625c0.419-0.712,1.491-0.819,2.093-0.819c0.015,0,0.031,0.004,0.045,0.004
				C4.867,4.344,4.706,4.935,4.598,5.57C4.096,5.976,3.658,6.405,3.29,6.842C2.768,5.958,2.624,5.148,2.932,4.625z M5.024,11.194
				c-0.602,0-1.673-0.106-2.092-0.819C2.624,9.852,2.768,9.041,3.29,8.158c0.368,0.437,0.807,0.866,1.309,1.272
				c0.108,0.634,0.269,1.226,0.471,1.76C5.055,11.19,5.039,11.194,5.024,11.194z M8,13.25c-0.616,0-1.26-0.528-1.778-1.417
				C6.792,11.738,7.391,11.563,8,11.34c0.609,0.224,1.208,0.398,1.777,0.493C9.262,12.722,8.617,13.25,8,13.25z M13.068,10.375
				c-0.42,0.713-1.49,0.819-2.092,0.819c-0.014,0-0.031-0.004-0.045-0.004c0.203-0.534,0.363-1.126,0.471-1.76
				c0.504-0.408,0.945-0.84,1.313-1.278C13.244,9.038,13.381,9.845,13.068,10.375z"/>
		</g>
	</g>
</svg>
