<?xml version="1.0" encoding="utf-8"?>
<!-- Generator: Adobe Illustrator 15.1.0, SVG Export Plug-In . SVG Version: 6.00 Build 0)  -->
<!DOCTYPE svg PUBLIC "-//W3C//DTD SVG 1.1//EN" "http://www.w3.org/Graphics/SVG/1.1/DTD/svg11.dtd">
<svg version="1.1" id="Ebene_1" xmlns="http://www.w3.org/2000/svg" xmlns:xlink="http://www.w3.org/1999/xlink" x="0px" y="0px" width="16px" height="16px" viewBox="0 0 16 16" enable-background="new 0 0 16 16" xml:space="preserve">
	<title>Attachment</title>
	<desc>Attachment Icon (tilt)</desc>
	
	<!--
		@author		Alexander Ebert
		@copyright	2001-2012 WoltLab GmbH 
		@license	GNU Lesser General Public License <http://opensource.org/licenses/lgpl-license.php> 
	--> 
	
	<defs>
		<style type="text/css">
			<![CDATA[
				.surface { fill: #fff; }
				.shadow { fill: #000; }
			]]>
		</style>
	</defs>
	
	<g id="IconAttachment">
		<path class="shadow" transform="translate(0 -1)" opacity=".8" d="M2.217,13.773C0.945,12.49,1.264,9.51,4.001,6.746l3.576-3.611c0.22-0.222,0.563-0.233,0.768-0.027
			C8.549,3.313,8.537,3.66,8.318,3.882L4.741,7.494c-2.14,2.161-2.622,4.577-1.729,5.479s3.287,0.416,5.428-1.744l4.772-4.819
			c0.175-0.185,0.328-0.471,0.043-0.759l-1.864-1.882c-0.299-0.301-0.586-0.149-0.772,0.032L5.851,8.613
			c-0.796,0.803-0.793,1.607-0.446,1.957c0.346,0.35,1.146,0.324,1.926-0.463l3.577-3.61c0.218-0.222,0.563-0.234,0.767-0.028
			c0.205,0.206,0.193,0.553-0.027,0.774L8.07,10.855c-0.959,0.969-2.366,1.621-3.466,0.51c-1.11-1.119-0.451-2.529,0.507-3.498
			l4.774-4.819c0.478-0.483,1.486-0.905,2.301-0.083l1.864,1.882c0.803,0.811,0.382,1.825-0.099,2.309l-4.771,4.818
			C6.443,14.74,3.491,15.061,2.217,13.773L2.217,13.773z"/>
		<path class="surface" transform="translate(0 1)" d="M2.217,12.775C0.945,11.49,1.264,8.51,4.001,5.747l3.576-3.611c0.22-0.222,0.563-0.233,0.768-0.027
			c0.204,0.206,0.192,0.553-0.027,0.775L4.741,6.494c-2.14,2.162-2.622,4.578-1.729,5.479c0.893,0.904,3.287,0.418,5.428-1.744
			l4.772-4.819c0.175-0.185,0.328-0.471,0.043-0.759l-1.864-1.882c-0.299-0.301-0.586-0.149-0.772,0.032L5.851,7.614
			C5.055,8.417,5.058,9.223,5.405,9.572c0.346,0.35,1.146,0.324,1.926-0.463l3.577-3.612c0.218-0.222,0.563-0.234,0.767-0.028
			c0.205,0.206,0.193,0.553-0.027,0.774L8.07,9.855c-0.959,0.969-2.366,1.623-3.466,0.512c-1.11-1.121-0.451-2.53,0.507-3.499
			l4.774-4.819c0.478-0.483,1.486-0.905,2.301-0.083l1.864,1.882c0.803,0.811,0.382,1.825-0.099,2.309l-4.771,4.819
			C6.443,13.74,3.491,14.063,2.217,12.775L2.217,12.775z"/>
	</g>
</svg>
