<?xml version="1.0" encoding="utf-8"?>
<!--<?xml-stylesheet type="text/css" href="svg.css"?>-->
<!DOCTYPE svg PUBLIC "-//W3C//DTD SVG 1.1//EN" "http://www.w3.org/Graphics/SVG/1.1/DTD/svg11.dtd">
<svg version="1.1" xmlns="http://www.w3.org/2000/svg" xmlns:xlink="http://www.w3.org/1999/xlink" x="0px" y="0px" width="16px" height="16px" viewBox="0 0 16 16" xml:space="preserve">
	
	<title>Attachment</title>
	<desc>Attachment Icon (tilt)</desc>
	
	<!--
		@author		Harald Szekely 
		@copyright	2011 WoltLab GmbH 
		@license	GNU Lesser General Public License <http://opensource.org/licenses/lgpl-license.php> 
	--> 
	
	<defs>
		<style type="text/css">
			<![CDATA[
				.Upper1 {fill: #666;}
				.Lower1 {fill: #fff;}
			]]>
		</style>
	</defs>
	
	<g id="IconAttachment">
		<path class="Lower1" d="M1.7172852,14.2734375c-1.2724609-1.2832031-0.953125-4.2636719,1.7841797-7.027832
			l3.5761719-3.6113281C7.2973633,3.4125977,7.640625,3.4008789,7.8452148,3.6069336
			C8.0493164,3.8129883,8.0375977,4.159668,7.8178711,4.3818359L4.2407227,7.9931641
			c-2.1396484,2.1611328-2.621582,4.5771484-1.7285156,5.4794922s3.2871094,0.4160156,5.4277344-1.7441406l4.7719727-4.8198242
			c0.1748047-0.1845703,0.328125-0.4707031,0.0429688-0.7592773L10.890625,4.2675781
			c-0.2988281-0.3012695-0.5859375-0.1494141-0.7724609,0.0317383L5.3510742,9.1132812
			c-0.7958984,0.8027344-0.7929688,1.6074219-0.4462891,1.9570312c0.3461914,0.3496094,1.1464844,0.3242188,1.9257812-0.4628906
			l3.5766602-3.6108398c0.2177734-0.222168,0.5625-0.2338867,0.7666016-0.027832
			c0.2050781,0.2055664,0.1933594,0.5527344-0.0273438,0.7744141l-3.5766602,3.6123047
			c-0.9589844,0.96875-2.3662109,1.6210938-3.4663086,0.5097656c-1.1103516-1.1191406-0.4511719-2.5292969,0.5073242-3.4980469
			l4.7739258-4.8193359c0.4775391-0.4833984,1.4863281-0.9052734,2.3007812-0.0830078l1.8642578,1.8823242
			c0.8027344,0.8110352,0.3818359,1.824707-0.0986328,2.309082l-4.7705078,4.8183594
			C5.9428711,15.2402344,2.9907227,15.5605469,1.7172852,14.2734375L1.7172852,14.2734375z"/>
		<path class="Upper1" d="M1.7172852,13.2744141c-1.2724609-1.2841797-0.953125-4.2646484,1.7841797-7.0283203
			l3.5761719-3.6113281C7.2973633,2.4130859,7.640625,2.4013672,7.8452148,2.6074219
			c0.2041016,0.2060547,0.1923828,0.5527344-0.0273438,0.7749023L4.2407227,6.9936523
			c-2.1396484,2.1616211-2.621582,4.5776367-1.7285156,5.4790039c0.8930664,0.9033203,3.2871094,0.4169922,5.4277344-1.7441406
			l4.7719727-4.8193359c0.1748047-0.1845703,0.328125-0.4707031,0.0429688-0.7592773L10.890625,3.2680664
			c-0.2988281-0.3012695-0.5859375-0.1494141-0.7724609,0.0317383L5.3510742,8.1137695
			c-0.7958984,0.8032227-0.7929688,1.6079102-0.4462891,1.9575195c0.3461914,0.3496094,1.1464844,0.3242188,1.9257812-0.4628906
			l3.5766602-3.6113281c0.2177734-0.222168,0.5625-0.2338867,0.7666016-0.027832
			c0.2050781,0.2055664,0.1933594,0.5527344-0.0273438,0.7744141l-3.5766602,3.6118164
			c-0.9589844,0.96875-2.3662109,1.6220703-3.4663086,0.5107422C2.9931641,9.7460938,3.6523438,8.3364258,4.6108398,7.3676758
			l4.7739258-4.8193359c0.4775391-0.4833984,1.4863281-0.9052734,2.3007812-0.0830078l1.8642578,1.8823242
			c0.8027344,0.8110352,0.3818359,1.824707-0.0986328,2.309082l-4.7705078,4.8188477
			C5.9428711,14.2402344,2.9907227,14.5615234,1.7172852,13.2744141L1.7172852,13.2744141z"/>
	</g>
</svg>
