<?xml version="1.0" encoding="utf-8"?>
<!-- Generator: Adobe Illustrator 16.0.0, SVG Export Plug-In . SVG Version: 6.00 Build 0)  -->
<!DOCTYPE svg PUBLIC "-//W3C//DTD SVG 1.1//EN" "http://www.w3.org/Graphics/SVG/1.1/DTD/svg11.dtd">
<svg version="1.1" id="Ebene_1" xmlns="http://www.w3.org/2000/svg" xmlns:xlink="http://www.w3.org/1999/xlink" x="0px" y="0px" width="16px" height="16px" viewBox="0 0 16 16" enable-background="new 0 0 16 16" xml:space="preserve">
	<title>Attention</title>
	<desc>Attention Icon</desc>
	
	<!--
		@author		Alexander Ebert
		@copyright	2001-2012 WoltLab GmbH 
		@license	GNU Lesser General Public License <http://opensource.org/licenses/lgpl-license.php> 
	--> 
	
	<defs>
		<style type="text/css">
			<![CDATA[
				.surface { fill: #666; }
				.shadow { fill: #fff; }
			]]>
		</style>
	</defs>
	
	<path class="shadow" transform="translate(-0.5 0)" d="M14.5,14c0,0.553-0.447,1-1,1h-11c-0.552,0-1-0.447-1-1V3c0-0.552,0.448-1,1-1h11c0.553,0,1,0.448,1,1V14z
		M7.054,6.624c0,0.55,0.1,1.438,0.222,1.975l0.044,0.194C7.441,9.33,7.744,9.769,7.994,9.769S8.551,9.33,8.676,8.795l0.045-0.196
		c0.125-0.536,0.227-1.425,0.227-1.975V5.269c0-0.55-0.426-1-0.947-1c-0.52,0-0.946,0.45-0.946,1V6.624z M9.053,11.692
		c0-0.576-0.471-1.039-1.051-1.039c-0.582,0-1.055,0.463-1.055,1.039c0,0.572,0.473,1.039,1.055,1.039
		C8.582,12.731,9.053,12.265,9.053,11.692z"/>
	<path class="surface" transform="translate(-0.5 0)" d="M14.5,13c0,0.553-0.447,1-1,1h-11c-0.552,0-1-0.447-1-1V2c0-0.552,0.448-1,1-1h11c0.553,0,1,0.448,1,1V13z
		 M7.054,5.624c0,0.55,0.1,1.439,0.222,1.975l0.044,0.194C7.441,8.33,7.744,8.769,7.994,8.769S8.551,8.33,8.676,7.795l0.045-0.196
		c0.125-0.536,0.227-1.425,0.227-1.975V4.269c0-0.55-0.426-1-0.947-1c-0.52,0-0.946,0.45-0.946,1V5.624z M9.053,10.692
		c0-0.576-0.471-1.039-1.051-1.039c-0.582,0-1.055,0.463-1.055,1.039c0,0.572,0.473,1.039,1.055,1.039
		C8.582,11.731,9.053,11.265,9.053,10.692z"/>
</svg>
