<?xml version="1.0" encoding="utf-8"?>
<!--<?xml-stylesheet type="text/css" href="svg.css"?>-->
<!DOCTYPE svg PUBLIC "-//W3C//DTD SVG 1.1//EN" "http://www.w3.org/Graphics/SVG/1.1/DTD/svg11.dtd">
<svg version="1.1" xmlns="http://www.w3.org/2000/svg" xmlns:xlink="http://www.w3.org/1999/xlink" x="0px" y="0px" width="16px" height="16px" viewBox="0 0 16 16" xml:space="preserve">
	
	<title>Cache</title>
	<desc>Cache Icon (type 2)</desc>
	
	<!--
		@author		Harald Szekely 
		@copyright	2011 WoltLab GmbH 
		@license	GNU Lesser General Public License <http://opensource.org/licenses/lgpl-license.php> 
	--> 
	
	<defs>
		<style type="text/css">
			<![CDATA[
				.Upper1 {fill: #666;}
				.Lower1 {fill: #fff;}
			]]>
		</style>
	</defs>
	
	<g id="IconCache2">
		<g class="Lower1">
			<path id="CoverArrows2" d="M14.5527344,5.9995117H1.4477539
				c-0.2749023,0-0.4750977,0.2236328-0.4448242,0.4970703l0.9418945,8.0063477C1.9750977,14.7763672,2.2250977,15,2.5,15h11
				c0.2753906,0,0.5244141-0.2236328,0.5556641-0.4970703l0.9414062-8.0063477
				C15.0283203,6.2231445,14.828125,5.9995117,14.5527344,5.9995117z M9.0751953,13.984375H6.9248047l-1.0742188-1.0771484h1.3818359
				L4.2294922,9.8994141l0.7607422-0.7607422L8,12.1533203v-1.4003906l1.0751953,1.0771484V13.984375z M11.0048828,11.8457031
				L8,8.8466797v1.3857422L6.921875,9.1552734V7h2.1572266l1.0791016,1.0771484H8.7568359l3.0107422,3.0068359L11.0048828,11.8457031z"/>
			<path id="Backside2" d="M2,5.7294922V5.5C2,5.2250977,2.2250977,5,2.5,5h1C3.7749023,5,4,4.7749023,4,4.5
				l0,0C4,4.2250977,4.2250977,4,4.5,4h3C7.7749023,4,8,4.2250977,8,4.5l0,0C8,4.7749023,8.2246094,5,8.5,5h5
				C13.7753906,5,14,5.2250977,14,5.5v0.2294922H2z"/>
		</g>
		<g class="Upper1">
			<path id="CoverArrows1" d="M14.5527344,4.9995117H1.4477539
				c-0.2749023,0-0.4750977,0.2236328-0.4448242,0.4970703l0.9418945,8.0063477C1.9750977,13.7763672,2.2250977,14,2.5,14h11
				c0.2753906,0,0.5244141-0.2236328,0.5556641-0.4970703l0.9414062-8.0063477
				C15.0283203,5.2231445,14.828125,4.9995117,14.5527344,4.9995117z M9.0859375,13H6.9355469l-1.0742188-1.0771484h1.3818359
				L4.2402344,8.9150391l0.7607422-0.7607422l3.0097656,3.0146484V9.7685547l1.0751953,1.0771484V13z M11.0048828,10.8457031
				L8,7.8466797v1.3857422L6.921875,8.1552734V6h2.1572266l1.0791016,1.0771484H8.7568359l3.0107422,3.0068359L11.0048828,10.8457031z"/>
			<path id="Backside1" d="M2,4.7294922V4.5C2,4.2250977,2.2250977,4,2.5,4h1C3.7749023,4,4,3.7749023,4,3.5
				l0,0C4,3.2250977,4.2250977,3,4.5,3h3C7.7749023,3,8,3.2250977,8,3.5l0,0C8,3.7749023,8.2246094,4,8.5,4h5
				C13.7753906,4,14,4.2250977,14,4.5v0.2294922H2z"/>
		</g>
	</g>
</svg>
