<?xml version="1.0" encoding="utf-8"?>
<!--<?xml-stylesheet type="text/css" href="svg.css"?>-->
<!DOCTYPE svg PUBLIC "-//W3C//DTD SVG 1.1//EN" "http://www.w3.org/Graphics/SVG/1.1/DTD/svg11.dtd">
<svg version="1.1" xmlns="http://www.w3.org/2000/svg" xmlns:xlink="http://www.w3.org/1999/xlink" x="0px" y="0px" width="16px" height="16px" viewBox="0 0 16 16" xml:space="preserve">
	<title>Camera</title>
	<desc>Camera Icon</desc>
	
	<!--
		@author		Alexander Ebert
		@copyright	2001-2012 WoltLab GmbH 
		@license	GNU Lesser General Public License <http://opensource.org/licenses/lgpl-license.php> 
	--> 
	
	<defs>
		<style type="text/css">
			<![CDATA[
				.surface { fill: #369; }
				.shadow { fill: #fff; }
			]]>
		</style>
	</defs>
	
	<g id="IconCamera">
		<path class="shadow" opacity=".8" transform="translate(-0.5 0.5)" style="fill-rule: evenodd; clip-rule: evenodd;" d="M7.4990234,5.9995117
			c-2.2084961,0-4,1.7915039-4,4.0004883s1.7915039,4,4,4C9.7089844,14,11.5,12.2089844,11.5,10
			S9.7089844,5.9995117,7.4990234,5.9995117z M7.5,13c-1.65625,0-3-1.3417969-3-3c0-1.65625,1.34375-3,3-3s3,1.34375,3,3
			C10.5,11.6582031,9.15625,13,7.5,13z M13,6h-2c-0.5498047,0-1-0.5874023-1-1c0-0.5415039-0.4501953-1-1-1H6
			C5.4501953,4,5,4.4165039,5,5c0,0.4125977-0.4501953,1-1,1H3V5.5H2V6C1.4501953,6,1,6.4501953,1,7v6c0,0.5498047,0.4501953,1,1,1
			h11c0.5498047,0,1-0.4501953,1-1V7C14,6.4501953,13.5498047,6,13,6z"/>
		<path class="surface" transform="translate(-0.5 0.5)" style="fill-rule: evenodd; clip-rule: evenodd;" d="M7.4990234,4.9995117
			c-2.2084961,0-4,1.7915039-4,4.0004883s1.7915039,4,4,4C9.7089844,13,11.5,11.2089844,11.5,9
			S9.7089844,4.9995117,7.4990234,4.9995117z M7.5,12c-1.65625,0-3-1.3417969-3-3c0-1.65625,1.34375-3,3-3s3,1.34375,3,3
			C10.5,10.6582031,9.15625,12,7.5,12z M13,5h-2c-0.5498047,0-1-0.5874023-1-1c0-0.5415039-0.4501953-1-1-1H6
			C5.4501953,3,5,3.4165039,5,4c0,0.4125977-0.4501953,1-1,1H3V4.5H2V5C1.4501953,5,1,5.4501953,1,6v6c0,0.5498047,0.4501953,1,1,1
			h11c0.5498047,0,1-0.4501953,1-1V6C14,5.4501953,13.5498047,5,13,5z"/>
	</g>
</svg>
