<?xml version="1.0" encoding="utf-8"?>
<!--<?xml-stylesheet type="text/css" href="svg.css"?>-->
<!DOCTYPE svg PUBLIC "-//W3C//DTD SVG 1.1//EN" "http://www.w3.org/Graphics/SVG/1.1/DTD/svg11.dtd">
<svg version="1.1" xmlns="http://www.w3.org/2000/svg" xmlns:xlink="http://www.w3.org/1999/xlink" x="0px" y="0px" width="16px" height="16px" viewBox="0 0 16 16" xml:space="preserve">
	
	<title>Statistics</title>
	<desc>Statistics Icon</desc>
	
	<!--
		@author		Harald Szekely 
		@copyright	2011 WoltLab GmbH 
		@license	GNU Lesser General Public License <http://opensource.org/licenses/lgpl-license.php> 
	--> 
	
	<defs>
		<style type="text/css">
			<![CDATA[
				.Upper1 {fill: #666;}
				.Lower1 {fill: #fff;}
			]]>
		</style>
	</defs>
	
	<g id="IconStatistics">
		<path class="Lower1" style="fill-rule: evenodd; clip-rule: evenodd; fill: #fff;" d="M1,10.5C1,10.2246094,1.2250977,10,1.5,10h2
			C3.7749023,10,4,10.2246094,4,10.5v4C4,14.7753906,3.7749023,15,3.5,15h-2C1.2250977,15,1,14.7753906,1,14.5V10.5z M5,14.5
			C5,14.7753906,5.2250977,15,5.5,15h2C7.7749023,15,8,14.7753906,8,14.5v-12C8,2.2250977,7.7749023,2,7.5,2h-2
			C5.2250977,2,5,2.2250977,5,2.5V14.5z M9.5,6C9.2246094,6,9,6.2250977,9,6.5v8C9,14.7753906,9.2246094,15,9.5,15h2
			c0.2753906,0,0.5-0.2246094,0.5-0.5v-8C12,6.2250977,11.7753906,6,11.5,6H9.5z"/>
		<path class="Upper1" style="fill-rule: evenodd; clip-rule: evenodd; fill: #666;" d="M1,9.5C1,9.2246094,1.2250977,9,1.5,9h2
			C3.7749023,9,4,9.2246094,4,9.5v4C4,13.7753906,3.7749023,14,3.5,14h-2C1.2250977,14,1,13.7753906,1,13.5V9.5z M5,13.5
			C5,13.7753906,5.2250977,14,5.5,14h2C7.7749023,14,8,13.7753906,8,13.5v-12C8,1.2250977,7.7749023,1,7.5,1h-2
			C5.2250977,1,5,1.2250977,5,1.5V13.5z M9.5,5C9.2246094,5,9,5.2250977,9,5.5v8C9,13.7753906,9.2246094,14,9.5,14h2
			c0.2753906,0,0.5-0.2246094,0.5-0.5v-8C12,5.2250977,11.7753906,5,11.5,5H9.5z"/>
	</g>
</svg>
