<?xml version="1.0" encoding="utf-8"?>
<!-- Generator: Adobe Illustrator 15.1.0, SVG Export Plug-In . SVG Version: 6.00 Build 0)  -->
<!DOCTYPE svg PUBLIC "-//W3C//DTD SVG 1.1//EN" "http://www.w3.org/Graphics/SVG/1.1/DTD/svg11.dtd">
<svg version="1.1" id="Ebene_1" xmlns="http://www.w3.org/2000/svg" xmlns:xlink="http://www.w3.org/1999/xlink" x="0px" y="0px" width="16px" height="16px" viewBox="0 0 16 16" enable-background="new 0 0 16 16" xml:space="preserve">
	<title>Chart Horizontal</title>
	<desc>Chart Horizontal Icon</desc>
	
	<!--
		@author		Harald Szekely
		@copyright	2001-2012 WoltLab GmbH 
		@license	GNU Lesser General Public License <http://opensource.org/licenses/lgpl-license.php> 
	--> 
	
	<defs>
		<style type="text/css">
			<![CDATA[
				.surface { fill: #369; }
				.shadow { fill: #fff; }
			]]>
		</style>
	</defs>
	
	<g id="IconPoll">
		<g>
			<path class="shadow" d="M6,14c0.275,0,0.5-0.225,0.5-0.5v-2C6.5,11.225,6.275,11,6,11H2c-0.275,0-0.5,0.225-0.5,0.5v2
				C1.5,13.775,1.725,14,2,14H6z M2,6C1.725,6,1.5,5.775,1.5,5.5v-2C1.5,3.225,1.725,3,2,3h12c0.275,0,0.5,0.225,0.5,0.5v2
				C14.5,5.775,14.275,6,14,6H2z M10.5,9.5c0,0.275-0.225,0.5-0.5,0.5H2c-0.275,0-0.5-0.225-0.5-0.5v-2C1.5,7.225,1.725,7,2,7h8
				c0.275,0,0.5,0.225,0.5,0.5V9.5z"/>
		</g>
		<g>
			<path class="surface" d="M6,13c0.275,0,0.5-0.225,0.5-0.5v-2C6.5,10.225,6.274,10,6,10H2c-0.275,0-0.5,0.225-0.5,0.5v2
				C1.5,12.775,1.725,13,2,13H6z M2.001,5c-0.275,0-0.5-0.225-0.5-0.5v-2c0-0.275,0.225-0.5,0.5-0.5H14c0.275,0,0.5,0.225,0.5,0.5v2
				C14.5,4.775,14.275,5,14,5H2.001z M10.499,8.5c0,0.275-0.225,0.5-0.5,0.5H2C1.725,9,1.5,8.775,1.5,8.5v-2C1.5,6.225,1.725,6,2,6
				h7.999c0.275,0,0.5,0.225,0.5,0.5V8.5z"/>
		</g>
	</g>
</svg>
