<?xml version="1.0" encoding="utf-8"?>
<!-- Generator: Adobe Illustrator 15.1.0, SVG Export Plug-In . SVG Version: 6.00 Build 0)  -->
<!DOCTYPE svg PUBLIC "-//W3C//DTD SVG 1.1//EN" "http://www.w3.org/Graphics/SVG/1.1/DTD/svg11.dtd">
<svg version="1.1" id="Ebene_1" xmlns="http://www.w3.org/2000/svg" xmlns:xlink="http://www.w3.org/1999/xlink" x="0px" y="0px" width="16px" height="16px" viewBox="0 0 16 16" enable-background="new 0 0 16 16" xml:space="preserve">
	<title>Chart Vertical</title>
	<desc>Chart Vertical Icon</desc>
	
	<!--
		@author		Alexander Ebert
		@copyright	2001-2012 WoltLab GmbH 
		@license	GNU Lesser General Public License <http://opensource.org/licenses/lgpl-license.php> 
	--> 
	
	<defs>
		<style type="text/css">
			<![CDATA[
				.surface { fill: #fff; }
				.shadow { fill: #000; }
			]]>
		</style>
	</defs>
	
	<g id="IconStatistics">
		<path class="shadow" transform="translate(0 -1)" opacity=".8" d="M2.5,10.5C2.5,10.225,2.725,10,3,10h2c0.275,0,0.5,0.225,0.5,0.5v4C5.5,14.775,5.275,15,5,15H3
			c-0.275,0-0.5-0.225-0.5-0.5V10.5z M6.5,14.5C6.5,14.775,6.725,15,7,15h2c0.275,0,0.5-0.225,0.5-0.5v-12C9.5,2.225,9.275,2,9,2H7
			C6.725,2,6.5,2.225,6.5,2.5V14.5z M11,6c-0.275,0-0.5,0.225-0.5,0.5v8c0,0.275,0.225,0.5,0.5,0.5h2c0.275,0,0.5-0.225,0.5-0.5v-8
			C13.5,6.225,13.275,6,13,6H11z"/>
		<path class="surface" transform="translate(0 1)" d="M2.5,9.5C2.5,9.225,2.725,9,3,9h2c0.275,0,0.5,0.225,0.5,0.5v4C5.5,13.775,5.275,14,5,14H3
			c-0.275,0-0.5-0.225-0.5-0.5V9.5z M6.5,13.5C6.5,13.775,6.725,14,7,14h2c0.275,0,0.5-0.225,0.5-0.5v-12C9.5,1.225,9.275,1,9,1H7
			C6.725,1,6.5,1.225,6.5,1.5V13.5z M11,5c-0.275,0-0.5,0.225-0.5,0.5v8c0,0.275,0.225,0.5,0.5,0.5h2c0.275,0,0.5-0.225,0.5-0.5v-8
			C13.5,5.225,13.275,5,13,5H11z"/>
	</g>
</svg>
