<?xml version="1.0" encoding="utf-8"?>
<!-- Generator: Adobe Illustrator 15.1.0, SVG Export Plug-In . SVG Version: 6.00 Build 0)  -->
<!DOCTYPE svg PUBLIC "-//W3C//DTD SVG 1.1//EN" "http://www.w3.org/Graphics/SVG/1.1/DTD/svg11.dtd">
<svg version="1.1" id="Ebene_1" xmlns="http://www.w3.org/2000/svg" xmlns:xlink="http://www.w3.org/1999/xlink" x="0px" y="0px" width="16px" height="16px" viewBox="0 0 16 16" enable-background="new 0 0 16 16" xml:space="preserve">
	<title>Check</title>
	<desc>Check Icon</desc>
	
	<!--
		@author		Alexander Ebert
		@copyright	2001-2012 WoltLab GmbH 
		@license	GNU Lesser General Public License <http://opensource.org/licenses/lgpl-license.php> 
	--> 
	
	<defs>
		<style type="text/css">
			<![CDATA[
				.surface { fill: #369; }
				.shadow { fill: #fff; }
			]]>
		</style>
	</defs>
	
	<g id="IconCheck">
		<path class="shadow" opacity=".8" d="M14.729,2.219L6.665,14.934C6.64,14.974,6.596,14.997,6.55,15H6.544c-0.045,0-0.088-0.022-0.114-0.055
			L1.28,8.25C1.248,8.208,1.24,8.149,1.265,8.101C1.29,8.053,1.34,8.008,1.394,8.008h2.473L6.144,11.1l5.471-9.012
			C11.641,2.046,11.688,2,11.736,2h2.871l0,0c0.051,0,0.1,0.028,0.125,0.074C14.758,2.119,14.755,2.175,14.729,2.219z"/>
		<path class="surface" d="M14.729,1.219L6.665,13.934C6.64,13.974,6.596,13.997,6.55,14H6.544c-0.045,0-0.088-0.022-0.114-0.055
			L1.28,7.25C1.248,7.208,1.24,7.149,1.265,7.101C1.29,7.053,1.34,7.008,1.394,7.008h2.473L6.144,10.1l5.471-9.012
			C11.641,1.046,11.688,1,11.736,1h2.871l0,0c0.051,0,0.1,0.028,0.125,0.074C14.758,1.119,14.755,1.175,14.729,1.219z"/>
	</g>
</svg>
