<?xml version="1.0" encoding="utf-8"?>
<!-- Generator: Adobe Illustrator 15.1.0, SVG Export Plug-In . SVG Version: 6.00 Build 0)  -->
<!DOCTYPE svg PUBLIC "-//W3C//DTD SVG 1.1//EN" "http://www.w3.org/Graphics/SVG/1.1/DTD/svg11.dtd">
<svg version="1.1" id="Ebene_1" xmlns="http://www.w3.org/2000/svg" xmlns:xlink="http://www.w3.org/1999/xlink" x="0px" y="0px" width="16px" height="16px" viewBox="0 0 16 16" enable-background="new 0 0 16 16" xml:space="preserve">
	<title>Arrow Down (Circle)</title>
	<desc>Arrow Down (Circle) Icon</desc>
	
	<!--
		@author		Alexander Ebert
		@copyright	2001-2012 WoltLab GmbH 
		@license	GNU Lesser General Public License <http://opensource.org/licenses/lgpl-license.php> 
	--> 
	
	<defs>
		<style type="text/css">
			<![CDATA[
				.surface { fill: #666; }
				.shadow { fill: #fff; }
			]]>
		</style>
	</defs>
	
	<g id="IconToBottom">
		<path class="shadow" opacity=".8" transform="translate(-0.5 0)" d="M8,14.91c-3.59,0-6.5-2.91-6.5-6.5c0-3.067,2.141-5.637,5-6.319v6.82H4l4,5l4-5H9.5V2.09
			c2.865,0.679,5,3.247,5,6.319C14.5,12,11.59,14.91,8,14.91z"/>
		<path class="surface" transform="translate(-0.5 0)" d="M8,13.91c-3.59,0-6.5-2.91-6.5-6.5c0-3.067,2.141-5.637,5-6.319V7.91H4l4,5l4-5.001l-2.5,0V1.09
			c2.865,0.679,5,3.247,5,6.319C14.5,11,11.59,13.91,8,13.91z"/>
	</g>
</svg>
