<?xml version="1.0" encoding="utf-8"?>
<!--<?xml-stylesheet type="text/css" href="svg.css"?>-->
<!DOCTYPE svg PUBLIC "-//W3C//DTD SVG 1.1//EN" "http://www.w3.org/Graphics/SVG/1.1/DTD/svg11.dtd">
<svg version="1.1" xmlns="http://www.w3.org/2000/svg" xmlns:xlink="http://www.w3.org/1999/xlink" x="0px" y="0px" width="16px" height="16px" viewBox="0 0 16 16" xml:space="preserve">
	
	<title>To Top</title>
	<desc>Arrow To Top Of Page Icon</desc>
	
	<!--
		@author		Harald Szekely 
		@copyright	2011 WoltLab GmbH 
		@license	GNU Lesser General Public License <http://opensource.org/licenses/lgpl-license.php> 
	--> 
	
	<defs>
		<style type="text/css">
			<![CDATA[
				.Upper {fill: #369;}
				.Lower {fill: #fff;}
			]]>
		</style>
	</defs>
	
	<g id="IconToTop">
		<path class="Lower" style="fill-rule: evenodd; clip-rule: evenodd;" d="M7.5,2C3.909668,2,1,4.909668,1,8.5
			c0,3.0673828,2.1411133,5.6367188,5,6.3193359V7.9995117L3.5,8l4-5l4,5.0004883L9,8v6.8193359
			C11.8652344,14.140625,14,11.5722656,14,8.5C14,4.909668,11.0898438,2,7.5,2z"/>
		<path class="Upper" style="fill-rule: evenodd; clip-rule: evenodd;" d="M7.5,1C3.909668,1,1,3.909668,1,7.5
			c0,3.0673828,2.1411133,5.6367188,5,6.3193359V6.9995117L3.5,7l4-5l4,5.0004883L9,7v6.8193359
			C11.8652344,13.140625,14,10.5722656,14,7.5C14,3.909668,11.0898438,1,7.5,1z"/>
	</g>
</svg>
