<?xml version="1.0" encoding="utf-8"?>
<!-- Generator: Adobe Illustrator 15.1.0, SVG Export Plug-In . SVG Version: 6.00 Build 0)  -->
<!DOCTYPE svg PUBLIC "-//W3C//DTD SVG 1.1//EN" "http://www.w3.org/Graphics/SVG/1.1/DTD/svg11.dtd">
<svg version="1.1" id="Ebene_1" xmlns="http://www.w3.org/2000/svg" xmlns:xlink="http://www.w3.org/1999/xlink" x="0px" y="0px" width="16px" height="16px" viewBox="0 0 16 16" enable-background="new 0 0 16 16" xml:space="preserve">
	<title>Arrow Right (Circle)</title>
	<desc>Arrow Right (Circle) Icon</desc>
	
	<!--
		@author		Alexander Ebert
		@copyright	2001-2012 WoltLab GmbH 
		@license	GNU Lesser General Public License <http://opensource.org/licenses/lgpl-license.php> 
	--> 
	
	<defs>
		<style type="text/css">
			<![CDATA[
				.surface { fill: #666; }
				.shadow { fill: #fff; }
			]]>
		</style>
	</defs>
	
	<g id="IconToRight">
		<path class="shadow" opacity=".8" transform="translate(-0.5 0)" d="M14.41,8.5c0-3.59-2.91-6.5-6.5-6.5C4.842,2,2.273,4.141,1.59,7h6.82L8.41,4.5l5,4l-5.001,4L8.41,10H1.59
			c0.679,2.865,3.247,5,6.319,5C11.5,15,14.41,12.09,14.41,8.5z"/>
		<path class="surface" transform="translate(-0.5 0)" d="M14.41,7.5c0-3.59-2.91-6.5-6.5-6.5C4.842,1,2.273,3.141,1.59,6h6.82L8.41,3.5l5,4l-5.001,4L8.41,9H1.59
			c0.679,2.865,3.247,5,6.319,5C11.5,14,14.41,11.09,14.41,7.5z"/>
	</g>
</svg>
