<?xml version="1.0" encoding="utf-8"?>
<!-- Generator: Adobe Illustrator 15.1.0, SVG Export Plug-In . SVG Version: 6.00 Build 0)  -->
<!DOCTYPE svg PUBLIC "-//W3C//DTD SVG 1.1//EN" "http://www.w3.org/Graphics/SVG/1.1/DTD/svg11.dtd">
<svg version="1.1" id="Ebene_1" xmlns="http://www.w3.org/2000/svg" xmlns:xlink="http://www.w3.org/1999/xlink" x="0px" y="0px" width="16px" height="16px" viewBox="0 0 16 16" enable-background="new 0 0 16 16" xml:space="preserve">
	<title>Star (Circle)</title>
	<desc>Star (Circle) Icon</desc>
	
	<!--
		@author		Harald Szekely
		@copyright	2001-2012 WoltLab GmbH 
		@license	GNU Lesser General Public License <http://opensource.org/licenses/lgpl-license.php> 
	--> 
	
	<defs>
		<style type="text/css">
			<![CDATA[
				.surface { fill: #369; }
				.shadow { fill: #fff; }
			]]>
		</style>
	</defs>
	
	<g id="IconThreadstarter">
		<path class="shadow" d="M8,2C4.41,2,1.5,4.91,1.5,8.5C1.5,12.089,4.41,15,8,15c3.59,0,6.5-2.911,6.5-6.5C14.5,4.91,11.59,2,8,2z
			 M10.884,12.469L8,10.374l-2.883,2.095l1.101-3.39L3.334,6.984h3.564L8,3.594l1.102,3.39h3.564L9.782,9.079L10.884,12.469z"/>
		<path class="surface" d="M8,1C4.41,1,1.5,3.91,1.5,7.5C1.5,11.089,4.41,14,8,14c3.59,0,6.5-2.911,6.5-6.5C14.5,3.91,11.59,1,8,1z
			 M10.884,11.469L8,9.374l-2.883,2.095l1.101-3.39L3.334,5.984h3.564L8,2.594l1.102,3.39h3.564L9.782,8.079L10.884,11.469z"/>
	</g>
</svg>
