<?xml version="1.0" encoding="utf-8"?>
<!-- Generator: Adobe Illustrator 15.1.0, SVG Export Plug-In . SVG Version: 6.00 Build 0)  -->
<!DOCTYPE svg PUBLIC "-//W3C//DTD SVG 1.1//EN" "http://www.w3.org/Graphics/SVG/1.1/DTD/svg11.dtd">
<svg version="1.1" id="Ebene_1" xmlns="http://www.w3.org/2000/svg" xmlns:xlink="http://www.w3.org/1999/xlink" x="0px" y="0px" width="16px" height="16px" viewBox="0 0 16 16" enable-background="new 0 0 16 16" xml:space="preserve">
	<title>Arrow Left (Circle)</title>
	<desc>Arrow Left (Circle) Icon</desc>
	
	<!--
		@author		Harald Szekely
		@copyright	2001-2012 WoltLab GmbH 
		@license	GNU Lesser General Public License <http://opensource.org/licenses/lgpl-license.php> 
	--> 
	
	<defs>
		<style type="text/css">
			<![CDATA[
				.surface { fill: #666; }
				.shadow { fill: #fff; }
			]]>
		</style>
	</defs>
	
	<g id="IconToLeft">
		<path class="shadow" opacity=".8" d="M1.59,8.5C1.59,4.91,4.5,2,8.09,2c3.068,0,5.637,2.141,6.32,5H7.59V4.5l-5,4l5.002,4L7.59,10h6.82
			c-0.68,2.865-3.248,5-6.32,5C4.5,15,1.59,12.09,1.59,8.5z"/>
		<path class="surface" d="M1.59,7.5C1.59,3.91,4.5,1,8.09,1c3.068,0,5.637,2.141,6.32,5H7.59V3.5l-5,4l5.002,4L7.59,9h6.82
			c-0.68,2.865-3.248,5-6.32,5C4.5,14,1.59,11.09,1.59,7.5z"/>
	</g>
</svg>
