<?xml version="1.0" encoding="utf-8"?>
<!--<?xml-stylesheet type="text/css" href="svg.css"?>-->
<!DOCTYPE svg PUBLIC "-//W3C//DTD SVG 1.1//EN" "http://www.w3.org/Graphics/SVG/1.1/DTD/svg11.dtd">
<svg version="1.1" xmlns="http://www.w3.org/2000/svg" xmlns:xlink="http://www.w3.org/1999/xlink" x="0px" y="0px" width="16px" height="16px" viewBox="0 0 16 16" xml:space="preserve">
	
	<title>Time</title>
	<desc>Time Icon (outlined)</desc>
	
	<!--
		@author		Harald Szekely 
		@copyright	2011 WoltLab GmbH 
		@license	GNU Lesser General Public License <http://opensource.org/licenses/lgpl-license.php> 
	--> 
	
	<defs>
		<style type="text/css">
			<![CDATA[
				.Upper1 {fill: #666;}
				.Lower1 {fill: #fff;}
			]]>
		</style>
	</defs>
	
	<g id="IconTime">
		<g class="Lower1">
			<path id="Face2" style="fill-rule: evenodd; clip-rule: evenodd;" d="M2.347168,8.5004883
				c0,2.8452148,2.3071289,5.1518555,5.152832,5.1518555c2.8447266,0,5.1523438-2.3066406,5.1523438-5.1518555
				c0-2.8466797-2.3076172-5.1533203-5.1523438-5.1533203C4.6542969,3.347168,2.347168,5.6538086,2.347168,8.5004883z M1,8.5004883
				c0-3.590332,2.909668-6.5,6.5-6.5c3.5898438,0,6.5,2.909668,6.5,6.5C14,12.0898438,11.0898438,15,7.5,15
				C3.909668,15,1,12.0898438,1,8.5004883z"/>
			<path id="Hands2" d="M10.5527344,8H8V2.5483398c0-0.3012695-0.2250977-0.5478516-0.5-0.5478516
				S7,2.2470703,7,2.5483398v5.8901367v0.0136719v0.109375C7,8.8027344,7.2011719,9,7.4472656,9h3.1054688
				C10.7988281,9,11,8.8027344,11,8.5615234V8.4384766C11,8.1972656,10.7988281,8,10.5527344,8z"/>
		</g>
		<g class="Upper1">
			<path id="Face1" style="fill-rule: evenodd; clip-rule: evenodd;" d="M2.347168,7.5004883
				c0,2.8452148,2.3071289,5.1518555,5.152832,5.1518555c2.8447266,0,5.1523438-2.3066406,5.1523438-5.1518555
				c0-2.8466797-2.3076172-5.1533203-5.1523438-5.1533203C4.6542969,2.347168,2.347168,4.6538086,2.347168,7.5004883z M1,7.5004883
				c0-3.590332,2.909668-6.5,6.5-6.5c3.5898438,0,6.5,2.909668,6.5,6.5C14,11.0898438,11.0898438,14,7.5,14
				C3.909668,14,1,11.0898438,1,7.5004883z"/>
			<path id="Hands1" d="M10.5527344,7H8V1.5483398c0-0.3012695-0.2250977-0.5478516-0.5-0.5478516
				S7,1.2470703,7,1.5483398v5.8901367v0.0136719v0.109375C7,7.8027344,7.2011719,8,7.4472656,8h3.1054688
				C10.7988281,8,11,7.8027344,11,7.5615234V7.4384766C11,7.1972656,10.7988281,7,10.5527344,7z"/>
		</g>
	</g>
</svg>
