<?xml version="1.0" encoding="utf-8"?>
<!-- Generator: Adobe Illustrator 15.1.0, SVG Export Plug-In . SVG Version: 6.00 Build 0)  -->
<!DOCTYPE svg PUBLIC "-//W3C//DTD SVG 1.1//EN" "http://www.w3.org/Graphics/SVG/1.1/DTD/svg11.dtd">
<svg version="1.1" id="Ebene_1" xmlns="http://www.w3.org/2000/svg" xmlns:xlink="http://www.w3.org/1999/xlink" x="0px" y="0px" width="16px" height="16px" viewBox="0 0 16 16" enable-background="new 0 0 16 16" xml:space="preserve">
	<title>Clock</title>
	<desc>Clock Icon</desc>
	
	<!--
		@author		Harald Szekely
		@copyright	2001-2012 WoltLab GmbH 
		@license	GNU Lesser General Public License <http://opensource.org/licenses/lgpl-license.php> 
	--> 
	
	<defs>
		<style type="text/css">
			<![CDATA[
				.surface { fill: #369; }
				.shadow { fill: #fff; }
			]]>
		</style>
	</defs>
	
	<g id="IconTime">
		<g>
			<path id="Face2" class="shadow" d="M2.847,8.5c0,2.846,2.307,5.152,5.153,5.152c2.845,0,5.152-2.307,5.152-5.152
				c0-2.846-2.308-5.153-5.152-5.153C5.154,3.347,2.847,5.654,2.847,8.5z M1.5,8.5C1.5,4.91,4.41,2,8,2c3.59,0,6.5,2.91,6.5,6.5
				S11.59,15,8,15C4.41,15,1.5,12.09,1.5,8.5z"/>
			<path id="Hands2" class="shadow" d="M11.053,8H8.5V2.548C8.5,2.247,8.275,2,8,2S7.5,2.247,7.5,2.548v5.89v0.014v0.109
				C7.5,8.803,7.701,9,7.947,9h3.105C11.299,9,11.5,8.803,11.5,8.562V8.438C11.5,8.197,11.299,8,11.053,8z"/>
		</g>
		<g>
			<path id="Face1" class="surface" d="M2.847,7.5c0,2.845,2.307,5.152,5.153,5.152c2.845,0,5.152-2.307,5.152-5.152
				c0-2.847-2.308-5.153-5.152-5.153C5.154,2.347,2.847,4.654,2.847,7.5z M1.5,7.5C1.5,3.91,4.41,1,8,1c3.59,0,6.5,2.91,6.5,6.5
				c0,3.589-2.91,6.5-6.5,6.5C4.41,14,1.5,11.09,1.5,7.5z"/>
			<path id="Hands1" class="surface" d="M11.053,7H8.5V1.548C8.5,1.247,8.275,1,8,1S7.5,1.247,7.5,1.548v5.89v0.014v0.109
				C7.5,7.803,7.701,8,7.947,8h3.105C11.299,8,11.5,7.803,11.5,7.562V7.438C11.5,7.197,11.299,7,11.053,7z"/>
		</g>
	</g>
</svg>
