<?xml version="1.0" encoding="utf-8"?>
<!--<?xml-stylesheet type="text/css" href="svg.css"?>-->
<!DOCTYPE svg PUBLIC "-//W3C//DTD SVG 1.1//EN" "http://www.w3.org/Graphics/SVG/1.1/DTD/svg11.dtd">
<svg version="1.1" xmlns="http://www.w3.org/2000/svg" xmlns:xlink="http://www.w3.org/1999/xlink" x="0px" y="0px" width="16px" height="16px" viewBox="0 0 16 16" xml:space="preserve">
	
	<title>Cloud</title>
	<desc>Cloud Icon</desc>
	
	<!--
		@author		Harald Szekely 
		@copyright	2001-2012 WoltLab GmbH 
		@license	GNU Lesser General Public License <http://opensource.org/licenses/lgpl-license.php> 
	--> 
	
	<defs>
		<style type="text/css">
			<![CDATA[
				.surface {fill: #666;}
				.shadow {fill: #fff;}
			]]>
		</style>
	</defs>
	
	<g id="IconCloud">
		<path class="shadow" d="M9.3232422,4.0004883c-1.2280273,0-2.4589844,0.5708008-3.1201172,1.8120117
			C5.8120117,5.6884766,5.3847656,5.5810547,4.9663086,5.5810547c-0.2988281,0-0.5927734,0.0546875-0.8657227,0.1967773
			c-0.6386719,0.3017578-0.7270508,1.0097656-0.9375,1.5864258C1.4941406,8.0654297,0.237793,10.1875,1.5395508,11.796875
			c0.8017578,0.9892578,2.0693359,1.1416016,3.8295898,1.1416016c0.7802734,0,1.6572266-0.0302734,2.6333008-0.0302734
			c1.1108398,0,2.3461914,0.0908203,3.362793,0.0908203c0.6865234,0,1.2734375-0.0410156,1.6533203-0.1806641
			c1.6835938-0.6210938,2.6308594-2.3828125,1.4658203-4.1347656c-0.3232422-0.6699219-1.1582031-0.7856445-1.5888672-1.3359375
			C12.9033203,5.21875,11.1162109,4.0004883,9.3232422,4.0004883L9.3232422,4.0004883z"/>
		<path class="surface" d="M9.3232422,3C8.0952148,3,6.8642578,3.5708008,6.203125,4.8120117
			C5.8120117,4.6879883,5.3847656,4.5805664,4.9663086,4.5805664c-0.2988281,0-0.5927734,0.0546875-0.8657227,0.1967773
			c-0.6386719,0.3017578-0.7270508,1.0097656-0.9375,1.5864258c-1.6689453,0.7011719-2.925293,2.8227539-1.6235352,4.4321289
			c0.8017578,0.9902344,2.0698242,1.1425781,3.8305664,1.1425781c0.7802734,0,1.65625-0.0302734,2.6323242-0.0302734
			c1.1108398,0,2.3461914,0.0908203,3.362793,0.0908203c0.6865234,0,1.2734375-0.0410156,1.6533203-0.1806641
			c1.6835938-0.6210938,2.6308594-2.3837891,1.4658203-4.1352539c-0.3232422-0.6699219-1.1582031-0.7856445-1.5888672-1.3359375
			C12.9033203,4.2182617,11.1162109,3,9.3232422,3L9.3232422,3z"/>
	</g>
</svg>
