<?xml version="1.0" encoding="utf-8"?>
<!--<?xml-stylesheet type="text/css" href="svg.css"?>-->
<!DOCTYPE svg PUBLIC "-//W3C//DTD SVG 1.1//EN" "http://www.w3.org/Graphics/SVG/1.1/DTD/svg11.dtd">
<svg version="1.1" xmlns="http://www.w3.org/2000/svg" xmlns:xlink="http://www.w3.org/1999/xlink" x="0px" y="0px" width="16px" height="16px" viewBox="0 0 16 16" xml:space="preserve">
	
	<title>Comment</title>
	<desc>Comment Icon</desc>
	
	<!--
		@author		Alexander Ebert 
		@copyright	2001-2012 WoltLab GmbH 
		@license	GNU Lesser General Public License <http://opensource.org/licenses/lgpl-license.php> 
	--> 
	
	<defs>
		<style type="text/css">
			<![CDATA[
				.surface {fill: #666;}
				.shadow {fill: #fff;}
			]]>
		</style>
	</defs>
	
	<g id="IconQuote">
		<path class="shadow" opacity=".8" transform="translate(-0.5 0)" d="M8,2C4.1337891,2,1,4.4848633,1,7.5507812
			c0,1.2231445,0.5004883,2.3535156,1.3461914,3.2705078L1.0454102,14L5.5,12.6796875
			c0.578125,0.125,2.2792969,0.3837891,2.925293,0.4003906c0.0732422,0.0019531,0.1464844,0.0029297,0.21875,0.0029297
			C12.3916016,13.0830078,15,10.5576172,15,7.5507812C15,4.4848633,11.8662109,2,8,2z M11.9375,10h-7.875
			C3.753418,10,3.5,9.7753906,3.5,9.5S3.753418,9,4.0625,9h7.875C12.2470703,9,12.5,9.2246094,12.5,9.5S12.2470703,10,11.9375,10z
			 M11.9375,8h-7.875C3.753418,8,3.5,7.7749023,3.5,7.5S3.753418,7,4.0625,7h7.875C12.2470703,7,12.5,7.2250977,12.5,7.5
			S12.2470703,8,11.9375,8z M11.9375,6h-7.875C3.753418,6,3.5,5.7749023,3.5,5.5S3.753418,5,4.0625,5h7.875
			C12.2470703,5,12.5,5.2250977,12.5,5.5S12.2470703,6,11.9375,6z"/>
		<path class="surface" transform="translate(-0.5 0)" d="M8,1C4.1337891,1,1,3.4848633,1,6.5507812
			c0,1.2231445,0.5004883,2.3535156,1.3461914,3.2705078L1.0454102,13L5.5,11.6796875
			c0.578125,0.125,2.2792969,0.3837891,2.925293,0.4003906c0.0732422,0.0019531,0.1464844,0.0029297,0.21875,0.0029297
			C12.3916016,12.0830078,15,9.5576172,15,6.5507812C15,3.4848633,11.8662109,1,8,1z M11.9375,9h-7.875
			C3.753418,9,3.5,8.7749023,3.5,8.5S3.753418,8,4.0625,8h7.875C12.2470703,8,12.5,8.2250977,12.5,8.5S12.2470703,9,11.9375,9z
			 M11.9375,7h-7.875C3.753418,7,3.5,6.7749023,3.5,6.5S3.753418,6,4.0625,6h7.875C12.2470703,6,12.5,6.2250977,12.5,6.5
			S12.2470703,7,11.9375,7z M11.9375,5h-7.875C3.753418,5,3.5,4.7749023,3.5,4.5S3.753418,4,4.0625,4h7.875
			C12.2470703,4,12.5,4.2250977,12.5,4.5S12.2470703,5,11.9375,5z"/>
	</g>
</svg>
