<?xml version="1.0" encoding="utf-8"?>
<!--<?xml-stylesheet type="text/css" href="svg.css"?>-->
<!DOCTYPE svg PUBLIC "-//W3C//DTD SVG 1.1//EN" "http://www.w3.org/Graphics/SVG/1.1/DTD/svg11.dtd">
<svg version="1.1" xmlns="http://www.w3.org/2000/svg" xmlns:xlink="http://www.w3.org/1999/xlink" x="0px" y="0px" width="16px" height="16px" viewBox="0 0 16 16" xml:space="preserve">
	
	<title>Dashboard</title>
	<desc>Dashboard Icon</desc>
	
	<!--
		@author		Harald Szekely 
		@copyright	2011 WoltLab GmbH 
		@license	GNU Lesser General Public License <http://opensource.org/licenses/lgpl-license.php> 
	--> 
	
	<defs>
		<style type="text/css">
			<![CDATA[
				.Upper1 {fill: #369;}
				.Lower1 {fill: #fff;}
			]]>
		</style>
	</defs>
	
	<g id="IconDashboard">
		<g class="Lower1">
			<path id="Circle2" style="fill-rule: evenodd; clip-rule: evenodd;" d="M2.4511719,8.5
				c0,2.8447266,2.4833984,5.1523438,5.5488281,5.1523438c3.0634766,0,5.5488281-2.3076172,5.5488281-5.1523438
				c0-2.8466797-2.4853516-5.1533203-5.5488281-5.1533203C4.9345703,3.3466797,2.4511719,5.6533203,2.4511719,8.5z M1,8.5
				C1,4.909668,4.1337891,2,8,2s7,2.909668,7,6.5c0,3.5888672-3.1337891,6.5-7,6.5S1,12.0888672,1,8.5z"/>
			<ellipse id="Mask2" style="fill-rule: evenodd; clip-rule: evenodd;" cx="7.9997559" cy="13" rx="3.0002441" ry="2"/>
			<path id="Hand2" d="M8.4770508,12.8017578l-2.6928711-6
				c-0.1074219-0.2397461-0.4018555-0.3666992-0.6704102-0.265625C4.9829102,6.5869141,4.8774414,6.6884766,4.8251953,6.8149414
				C4.7744141,6.9389648,4.7758789,7.0751953,4.8310547,7.1987305l2.6918945,5.9995117C7.6054688,13.3818359,7.7924805,13.5,8,13.5
				c0.0693359,0,0.1357422-0.0126953,0.1933594-0.0361328c0.1313477-0.0507812,0.2368164-0.1523438,0.2890625-0.2792969
				C8.5336914,13.0605469,8.5322266,12.9248047,8.4770508,12.8017578z"/>
			<path id="Points2" d="M8.5385742,4.1499023c0,0.2763672-0.2407227,0.5-0.5385742,0.5
				s-0.5385742-0.2236328-0.5385742-0.5s0.2407227-0.5,0.5385742-0.5S8.5385742,3.8735352,8.5385742,4.1499023z M5.3081055,4.5
				C5.0102539,4.5,4.7695312,4.7236328,4.7695312,5s0.2407227,0.5,0.5385742,0.5c0.296875,0,0.5380859-0.2236328,0.5380859-0.5
				S5.6049805,4.5,5.3081055,4.5z M3.6918945,6.5c-0.296875,0-0.5380859,0.2236328-0.5380859,0.5s0.2412109,0.5,0.5380859,0.5
				c0.2978516,0,0.5385742-0.2236328,0.5385742-0.5S3.9897461,6.5,3.6918945,6.5z M10.6923828,4.5
				c-0.2978516,0-0.5390625,0.2236328-0.5390625,0.5s0.2412109,0.5,0.5390625,0.5s0.5380859-0.2236328,0.5380859-0.5
				S10.9902344,4.5,10.6923828,4.5z M12.3076172,6.5c-0.2978516,0-0.5380859,0.2236328-0.5380859,0.5s0.2402344,0.5,0.5380859,0.5
				s0.5390625-0.2236328,0.5390625-0.5S12.6054688,6.5,12.3076172,6.5z"/>
		</g>
		<g class="Upper1">
			<path id="Circle1" style="fill-rule: evenodd; clip-rule: evenodd;" d="M2.4511719,7.5
				c0,2.8447266,2.4833984,5.1523438,5.5488281,5.1523438c3.0634766,0,5.5488281-2.3076172,5.5488281-5.1523438
				c0-2.8466797-2.4853516-5.1533203-5.5488281-5.1533203C4.9345703,2.3466797,2.4511719,4.6533203,2.4511719,7.5z M1,7.5
				C1,3.909668,4.1337891,1,8,1s7,2.909668,7,6.5c0,3.5888672-3.1337891,6.5-7,6.5S1,11.0888672,1,7.5z"/>
			<ellipse id="Mask1" style="fill-rule: evenodd; clip-rule: evenodd;" cx="7.9997559" cy="12" rx="3.0002441" ry="2"/>
			<path id="Hand1" d="M8.4770508,11.8017578l-2.6928711-6
				c-0.1074219-0.2397461-0.4018555-0.3662109-0.6704102-0.265625C4.9829102,5.5869141,4.8774414,5.6884766,4.8251953,5.8149414
				C4.7744141,5.9389648,4.7758789,6.0751953,4.8310547,6.1987305l2.6918945,5.9995117C7.6054688,12.3818359,7.7924805,12.5,8,12.5
				c0.0693359,0,0.1357422-0.0126953,0.1933594-0.0361328c0.1313477-0.0507812,0.2368164-0.1523438,0.2890625-0.2792969
				C8.5336914,12.0605469,8.5322266,11.9248047,8.4770508,11.8017578z"/>
			<path id="Points1" d="M8.5385742,3.1499023c0,0.2763672-0.2407227,0.5-0.5385742,0.5
				s-0.5385742-0.2236328-0.5385742-0.5s0.2407227-0.5,0.5385742-0.5S8.5385742,2.8735352,8.5385742,3.1499023z M5.3081055,3.5
				C5.0102539,3.5,4.7695312,3.7236328,4.7695312,4s0.2407227,0.5,0.5385742,0.5c0.296875,0,0.5380859-0.2236328,0.5380859-0.5
				S5.6049805,3.5,5.3081055,3.5z M3.6918945,5.5c-0.296875,0-0.5380859,0.2236328-0.5380859,0.5s0.2412109,0.5,0.5380859,0.5
				c0.2978516,0,0.5385742-0.2236328,0.5385742-0.5S3.9897461,5.5,3.6918945,5.5z M10.6923828,3.5
				c-0.2978516,0-0.5390625,0.2236328-0.5390625,0.5s0.2412109,0.5,0.5390625,0.5s0.5380859-0.2236328,0.5380859-0.5
				S10.9902344,3.5,10.6923828,3.5z M12.3076172,5.5c-0.2978516,0-0.5380859,0.2236328-0.5380859,0.5s0.2402344,0.5,0.5380859,0.5
				s0.5390625-0.2236328,0.5390625-0.5S12.6054688,5.5,12.3076172,5.5z"/>
		</g>
	</g>
</svg>
