<?xml version="1.0" encoding="utf-8"?>
<!-- Generator: Adobe Illustrator 15.1.0, SVG Export Plug-In . SVG Version: 6.00 Build 0)  -->
<!DOCTYPE svg PUBLIC "-//W3C//DTD SVG 1.1//EN" "http://www.w3.org/Graphics/SVG/1.1/DTD/svg11.dtd">
<svg version="1.1" id="Ebene_1" xmlns="http://www.w3.org/2000/svg" xmlns:xlink="http://www.w3.org/1999/xlink" x="0px" y="0px" width="16px" height="16px" viewBox="0 0 16 16" enable-background="new 0 0 16 16" xml:space="preserve">
	<title>Database</title>
	<desc>Database Icon</desc>
	
	<!--
		@author		Harald Szekely
		@copyright	2001-2012 WoltLab GmbH 
		@license	GNU Lesser General Public License <http://opensource.org/licenses/lgpl-license.php> 
	--> 
	
	<defs>
		<style type="text/css">
			<![CDATA[
				.surface { fill: #369; }
				.shadow { fill: #fff; }
			]]>
		</style>
	</defs>
	
	<g id="IconDatabase">
		<path class="shadow" d="M1.5,4c0-1.104,2.91-2,6.5-2s6.5,0.896,6.5,2S11.59,6,8,6S1.5,5.104,1.5,4z M8,13c-3.59,0-6.5-0.896-6.5-2
			v2c0,1.104,2.91,2,6.5,2s6.5-0.896,6.5-2v-1v-1C14.5,12.104,11.59,13,8,13z M8,10c-3.586,0-6.494-0.895-6.5-1.997v2
			C1.506,11.106,4.414,12,8,12c3.59,0,6.5-0.896,6.5-2V8C14.5,9.104,11.59,10,8,10z M8,7C4.41,7,1.5,6.104,1.5,5v1
			c0,0.001,0,0.002,0,0.003v1C1.506,8.106,4.414,9,8,9c3.59,0,6.5-0.896,6.5-2V6V5C14.5,6.104,11.59,7,8,7z"/>
		<path class="surface" d="M1.5,3c0-1.104,2.91-2,6.5-2s6.5,0.896,6.5,2S11.59,5,8,5S1.5,4.104,1.5,3z M8,12c-3.59,0-6.5-0.896-6.5-2
			v2c0,1.104,2.91,2,6.5,2s6.5-0.896,6.5-2v-1v-1C14.5,11.104,11.59,12,8,12z M8,9C4.414,9,1.506,8.106,1.5,7.003v2
			C1.506,10.106,4.414,11,8,11c3.59,0,6.5-0.896,6.5-2V7C14.5,8.104,11.59,9,8,9z M8,6C4.41,6,1.5,5.104,1.5,4v1
			c0,0.001,0,0.002,0,0.003v1C1.506,7.106,4.414,8,8,8c3.59,0,6.5-0.896,6.5-2V5V4C14.5,5.104,11.59,6,8,6z"/>
	</g>
</svg>
