<?xml version="1.0" encoding="utf-8"?>
<!--<?xml-stylesheet type="text/css" href="svg.css"?>-->
<!DOCTYPE svg PUBLIC "-//W3C//DTD SVG 1.1//EN" "http://www.w3.org/Graphics/SVG/1.1/DTD/svg11.dtd">
<svg version="1.1" xmlns="http://www.w3.org/2000/svg" xmlns:xlink="http://www.w3.org/1999/xlink" x="0px" y="0px" width="16px" height="16px" viewBox="0 0 16 16" xml:space="preserve">
	
	<title>Database</title>
	<desc>Database Icon</desc>
	
	<!--
		@author		Harald Szekely 
		@copyright	2011 WoltLab GmbH 
		@license	GNU Lesser General Public License <http://opensource.org/licenses/lgpl-license.php> 
	--> 
	
	<defs>
		<style type="text/css">
			<![CDATA[
				.Upper1 {fill: #369;}
				.Lower1 {fill: #fff;}
			]]>
		</style>
	</defs>
	
	<g id="IconDatabase">
		<path class="Lower1" style="fill-rule: evenodd; clip-rule: evenodd;" d="M1,4c0-1.1044922,2.9101562-2,6.5-2
			S14,2.8955078,14,4s-2.9101562,2-6.5,2S1,5.1044922,1,4z M7.5,13C3.9101562,13,1,12.1044922,1,11v2c0,1.1044922,2.9101562,2,6.5,2
			s6.5-0.8955078,6.5-2v-1v-1C14,12.1044922,11.0898438,13,7.5,13z M7.5,10c-3.5864258,0-6.4941406-0.8945312-6.4995117-1.9970703v2
			C1.0058594,11.1064453,3.9135742,12,7.5,12c3.5898438,0,6.5-0.8955078,6.5-2V8C14,9.1044922,11.0898438,10,7.5,10z M7.5,7
			C3.9101562,7,1,6.1044922,1,5v1c0,0.0009766,0.0004883,0.0019531,0.0004883,0.0029297v1C1.0058594,8.105957,3.9135742,9,7.5,9
			C11.0898438,9,14,8.1044922,14,7V6V5C14,6.1044922,11.0898438,7,7.5,7z"/>
		<path class="Upper1" style="fill-rule: evenodd; clip-rule: evenodd;" d="M1,3c0-1.1044922,2.9101562-2,6.5-2
			S14,1.8955078,14,3s-2.9101562,2-6.5,2S1,4.1044922,1,3z M7.5,12C3.9101562,12,1,11.1044922,1,10v2c0,1.1044922,2.9101562,2,6.5,2
			s6.5-0.8955078,6.5-2v-1v-1C14,11.1044922,11.0898438,12,7.5,12z M7.5,9C3.9135742,9,1.0058594,8.105957,1.0004883,7.0029297v2
			C1.0058594,10.1064453,3.9135742,11,7.5,11c3.5898438,0,6.5-0.8955078,6.5-2V7C14,8.1044922,11.0898438,9,7.5,9z M7.5,6
			C3.9101562,6,1,5.1044922,1,4v1c0,0.0009766,0.0004883,0.0019531,0.0004883,0.0029297v1C1.0058594,7.105957,3.9135742,8,7.5,8
			C11.0898438,8,14,7.1044922,14,6V5V4C14,5.1044922,11.0898438,6,7.5,6z"/>
	</g>
</svg>
