<?xml version="1.0" encoding="utf-8"?>
<!--<?xml-stylesheet type="text/css" href="svg.css"?>-->
<!DOCTYPE svg PUBLIC "-//W3C//DTD SVG 1.1//EN" "http://www.w3.org/Graphics/SVG/1.1/DTD/svg11.dtd">
<svg version="1.1" xmlns="http://www.w3.org/2000/svg" xmlns:xlink="http://www.w3.org/1999/xlink" x="0px" y="0px" width="16px" height="16px" viewBox="0 0 16 16" xml:space="preserve">
	
	<title>Standard</title>
	<desc>Standard Icon (inverted)</desc>
	
	<!--
		@author		Harald Szekely 
		@copyright	2011 WoltLab GmbH 
		@license	GNU Lesser General Public License <http://opensource.org/licenses/lgpl-license.php> 
	--> 
	
	<defs>
		<style type="text/css">
			<![CDATA[
				.Upper1 {fill: #666;}
				.Lower1 {fill: #fff;}
			]]>
		</style>
	</defs>
	
	<g id="IconStandard">
		<path class="Lower1" style="fill-rule: evenodd; clip-rule: evenodd;" d="M13,2H2C1.4477539,2,1,2.4477539,1,3v11
			c0,0.5527344,0.4477539,1,1,1h11c0.5527344,0,1-0.4472656,1-1V3C14,2.4477539,13.5527344,2,13,2z M13.3496094,4.168457
			L7.15625,13.9501953C7.1376953,13.9794922,7.1040039,13.9980469,7.0683594,14H7.0644531
			c-0.034668,0-0.0668945-0.0146484-0.0878906-0.0419922L3.0229492,8.8076172
			c-0.0253906-0.0336914-0.0302734-0.078125-0.0112305-0.1157227c0.0185547-0.0375977,0.0566406-0.0615234,0.0981445-0.0615234
			l1.9003906,0.0043945l1.746582,2.3671875l4.2001953-6.9355469c0.0205078-0.0322266,0.0556641-0.0527344,0.09375-0.0527344
			L13.2548828,4c0.0009766,0,0.0009766,0,0.0009766,0c0.0400391,0,0.0771484,0.0214844,0.0966797,0.0566406
			C13.3710938,4.0917969,13.3701172,4.1342773,13.3496094,4.168457z"/>
		<path class="Upper1" style="fill-rule: evenodd; clip-rule: evenodd;" d="M13,1H2C1.4477539,1,1,1.4477539,1,2v11
			c0,0.5527344,0.4477539,1,1,1h11c0.5527344,0,1-0.4472656,1-1V2C14,1.4477539,13.5527344,1,13,1z M13.3496094,3.168457
			L7.15625,12.9501953C7.1376953,12.9794922,7.1040039,12.9980469,7.0683594,13H7.0644531
			c-0.034668,0-0.0668945-0.0146484-0.0878906-0.0419922L3.0229492,7.8076172
			c-0.0253906-0.0336914-0.0302734-0.078125-0.0112305-0.1157227c0.0185547-0.0375977,0.0566406-0.0615234,0.0981445-0.0615234
			l1.9003906,0.0043945l1.746582,2.3671875l4.2001953-6.9355469c0.0205078-0.0322266,0.0556641-0.0527344,0.09375-0.0527344
			L13.2548828,3c0.0009766,0,0.0009766,0,0.0009766,0c0.0400391,0,0.0771484,0.0214844,0.0966797,0.0566406
			C13.3710938,3.0917969,13.3701172,3.1342773,13.3496094,3.168457z"/>
	</g>
</svg>
