<?xml version="1.0" encoding="utf-8"?>
<!-- Generator: Adobe Illustrator 15.1.0, SVG Export Plug-In . SVG Version: 6.00 Build 0)  -->
<!DOCTYPE svg PUBLIC "-//W3C//DTD SVG 1.1//EN" "http://www.w3.org/Graphics/SVG/1.1/DTD/svg11.dtd">
<svg version="1.1" id="Ebene_1" xmlns="http://www.w3.org/2000/svg" xmlns:xlink="http://www.w3.org/1999/xlink" x="0px" y="0px" width="16px" height="16px" viewBox="0 0 16 16" enable-background="new 0 0 16 16" xml:space="preserve">
	<title>Default</title>
	<desc>Default Icon</desc>
	
	<!--
		@author		Alexander Ebert
		@copyright	2001-2012 WoltLab GmbH 
		@license	GNU Lesser General Public License <http://opensource.org/licenses/lgpl-license.php> 
	--> 
	
	<defs>
		<style type="text/css">
			<![CDATA[
				.surface { fill: #369; }
				.shadow { fill: #fff; }
			]]>
		</style>
	</defs>
	
	<g id="IconStandard">
		<path class="shadow" opacity=".8" d="M13.5,2h-11c-0.552,0-1,0.448-1,1v11c0,0.553,0.448,1,1,1h11c0.553,0,1-0.447,1-1V3
			C14.5,2.448,14.053,2,13.5,2z M13.85,4.168L7.656,13.95C7.638,13.979,7.604,13.998,7.568,14H7.564
			c-0.035,0-0.067-0.015-0.088-0.042l-3.954-5.15c-0.025-0.034-0.03-0.078-0.011-0.116C3.53,8.654,3.568,8.631,3.61,8.631l1.9,0.004
			l1.747,2.367l4.2-6.936c0.021-0.032,0.056-0.053,0.094-0.053L13.755,4c0.001,0,0.001,0,0.001,0c0.04,0,0.077,0.021,0.097,0.057
			C13.871,4.092,13.87,4.134,13.85,4.168z"/>
		<path class="surface" d="M13.5,1h-11c-0.552,0-1,0.448-1,1v11c0,0.553,0.448,1,1,1h11c0.553,0,1-0.447,1-1V2
			C14.5,1.448,14.053,1,13.5,1z M13.85,3.168L7.656,12.95C7.638,12.979,7.604,12.998,7.568,13H7.564
			c-0.035,0-0.067-0.015-0.088-0.042l-3.954-5.15c-0.025-0.034-0.03-0.078-0.011-0.116C3.53,7.654,3.568,7.63,3.61,7.63l1.9,0.004
			l1.747,2.367l4.2-6.936c0.021-0.032,0.056-0.053,0.094-0.053L13.755,3c0.001,0,0.001,0,0.001,0c0.04,0,0.077,0.021,0.097,0.057
			C13.871,3.092,13.87,3.134,13.85,3.168z"/>
	</g>
</svg>
