<?xml version="1.0" encoding="utf-8"?>
<!-- Generator: Adobe Illustrator 15.1.0, SVG Export Plug-In . SVG Version: 6.00 Build 0)  -->
<!DOCTYPE svg PUBLIC "-//W3C//DTD SVG 1.1//EN" "http://www.w3.org/Graphics/SVG/1.1/DTD/svg11.dtd">
<svg version="1.1" id="Ebene_1" xmlns="http://www.w3.org/2000/svg" xmlns:xlink="http://www.w3.org/1999/xlink" x="0px" y="0px" width="16px" height="16px" viewBox="0 0 16 16" enable-background="new 0 0 16 16" xml:space="preserve">
	<title>Delete</title>
	<desc>Delete Icon</desc>
	
	<!--
		@author		Harald Szekely
		@copyright	2001-2012 WoltLab GmbH 
		@license	GNU Lesser General Public License <http://opensource.org/licenses/lgpl-license.php> 
	--> 
	
	<defs>
		<style type="text/css">
			<![CDATA[
				.surface { fill: #666; }
				.shadow { fill: #fff; }
			]]>
		</style>
	</defs>
	
	<g id="IconDelete">
		<path class="shadow" opacity=".8" d="M8,2C4.41,2,1.5,4.91,1.5,8.5C1.5,12.091,4.41,15,8,15c3.59,0,6.5-2.909,6.5-6.5C14.5,4.91,11.59,2,8,2z
			 M11.694,12.195c-0.405,0.406-1.07,0.406-1.478,0l-1.478-1.479c-0.407-0.405-1.071-0.405-1.478,0l-1.479,1.479
			c-0.407,0.406-1.07,0.406-1.478,0c-0.407-0.407-0.407-1.071,0-1.478l1.479-1.479c0.407-0.406,0.407-1.07,0-1.478L4.305,6.283
			c-0.407-0.407-0.407-1.071,0-1.478c0.406-0.406,1.071-0.408,1.478,0l1.478,1.478c0.408,0.408,1.071,0.408,1.478,0l1.478-1.478
			c0.406-0.406,1.071-0.408,1.478,0c0.407,0.407,0.406,1.072,0,1.478l-1.478,1.478c-0.406,0.407-0.406,1.071,0,1.478l1.479,1.479
			C12.103,11.124,12.102,11.789,11.694,12.195z"/>
		<path class="surface" d="M8,1C4.41,1,1.5,3.91,1.5,7.5C1.5,11.091,4.41,14,8,14c3.59,0,6.5-2.909,6.5-6.5C14.5,3.91,11.59,1,8,1z
			 M11.694,11.195c-0.405,0.406-1.07,0.406-1.478,0L8.739,9.716c-0.407-0.406-1.071-0.406-1.478,0l-1.479,1.479
			c-0.407,0.406-1.07,0.406-1.478,0c-0.407-0.407-0.407-1.071,0-1.478l1.479-1.479c0.407-0.406,0.407-1.07,0-1.478L4.305,5.283
			c-0.407-0.407-0.407-1.071,0-1.478c0.406-0.406,1.071-0.408,1.478,0l1.478,1.478c0.408,0.408,1.071,0.408,1.478,0l1.478-1.478
			c0.406-0.406,1.071-0.408,1.478,0c0.407,0.407,0.406,1.072,0,1.478l-1.478,1.478c-0.406,0.407-0.406,1.071,0,1.478l1.479,1.479
			C12.103,10.124,12.102,10.789,11.694,11.195z"/>
	</g>
</svg>
