<?xml version="1.0" encoding="utf-8"?>
<!--<?xml-stylesheet type="text/css" href="svg.css"?>-->
<!DOCTYPE svg PUBLIC "-//W3C//DTD SVG 1.1//EN" "http://www.w3.org/Graphics/SVG/1.1/DTD/svg11.dtd">
<svg version="1.1" xmlns="http://www.w3.org/2000/svg" xmlns:xlink="http://www.w3.org/1999/xlink" x="0px" y="0px" width="16px" height="16px" viewBox="0 0 16 16" xml:space="preserve">
	
	<title>Delete</title>
	<desc>Delete Icon (inverted)</desc>
	
	<!--
		@author		Harald Szekely 
		@copyright	2011 WoltLab GmbH 
		@license	GNU Lesser General Public License <http://opensource.org/licenses/lgpl-license.php> 
	--> 
	
	<defs>
		<style type="text/css">
			<![CDATA[
				.Upper1 {fill: #666;}
				.Lower1 {fill: #fff;}
			]]>
		</style>
	</defs>
	
	<g id="IconDelete">
		<path class="Lower1" style="fill-rule: evenodd; clip-rule: evenodd;" d="M7.5,2C3.909668,2,1,4.9101562,1,8.5
			C1,12.0908203,3.909668,15,7.5,15c3.5898438,0,6.5-2.9091797,6.5-6.5C14,4.9101562,11.0898438,2,7.5,2z M11.1943359,12.1953125
			c-0.4052734,0.40625-1.0703125,0.40625-1.4775391,0l-1.4775391-1.4794922c-0.4072266-0.4052734-1.0712891-0.4052734-1.4780273,0
			l-1.4785156,1.4794922c-0.4072266,0.40625-1.0703125,0.40625-1.4775391,0c-0.4067383-0.4072266-0.4067383-1.0712891,0-1.4775391
			l1.4785156-1.4794922C5.6904297,8.8325195,5.6904297,8.168457,5.2832031,7.7607422L3.8051758,6.2827148
			c-0.4067383-0.4072266-0.4067383-1.0712891,0-1.4775391c0.4057617-0.40625,1.0712891-0.4077148,1.4780273-0.0004883
			l1.4780273,1.4780273c0.4077148,0.4077148,1.0708008,0.4077148,1.4780273,0.0004883l1.4775391-1.4775391
			c0.40625-0.40625,1.0712891-0.4077148,1.4775391-0.0004883c0.4072266,0.4072266,0.40625,1.0717773,0,1.4780273L9.7167969,7.7607422
			c-0.40625,0.4067383-0.40625,1.0708008,0,1.4775391l1.4794922,1.4794922
			C11.6025391,11.1240234,11.6015625,11.7890625,11.1943359,12.1953125z"/>
		<path class="Upper1" style="fill-rule: evenodd; clip-rule: evenodd;" d="M7.5,1C3.909668,1,1,3.9101562,1,7.5
			C1,11.0908203,3.909668,14,7.5,14c3.5898438,0,6.5-2.9091797,6.5-6.5C14,3.9101562,11.0898438,1,7.5,1z M11.1943359,11.1953125
			c-0.4052734,0.40625-1.0703125,0.40625-1.4775391,0L8.2392578,9.7158203c-0.4072266-0.40625-1.0712891-0.40625-1.4780273,0
			l-1.4785156,1.4794922c-0.4072266,0.40625-1.0703125,0.40625-1.4775391,0c-0.4067383-0.4072266-0.4067383-1.0712891,0-1.4775391
			l1.4785156-1.4790039c0.4067383-0.40625,0.4067383-1.0703125-0.0004883-1.4780273L3.8051758,5.2827148
			c-0.4067383-0.4072266-0.4067383-1.0712891,0-1.4775391c0.4057617-0.40625,1.0712891-0.4077148,1.4780273-0.0004883
			l1.4780273,1.4780273c0.4077148,0.4077148,1.0708008,0.4077148,1.4780273,0.0004883l1.4775391-1.4775391
			c0.40625-0.40625,1.0712891-0.4077148,1.4775391-0.0004883c0.4072266,0.4072266,0.40625,1.0717773,0,1.4780273L9.7167969,6.7607422
			c-0.40625,0.4067383-0.40625,1.0708008,0,1.4780273l1.4794922,1.4790039
			C11.6025391,10.1240234,11.6015625,10.7890625,11.1943359,11.1953125z"/>
	</g>
</svg>
