<?xml version="1.0" encoding="utf-8"?>
<!--<?xml-stylesheet type="text/css" href="svg.css"?>-->
<!DOCTYPE svg PUBLIC "-//W3C//DTD SVG 1.1//EN" "http://www.w3.org/Graphics/SVG/1.1/DTD/svg11.dtd">
<svg version="1.1" xmlns="http://www.w3.org/2000/svg" xmlns:xlink="http://www.w3.org/1999/xlink" x="0px" y="0px" width="16px" height="16px" viewBox="0 0 16 16" xml:space="preserve">
	
	<title>Delete</title>
	<desc>Delete Icon (outlined)</desc>
	
	<!--
		@author		Harald Szekely 
		@copyright	2011 WoltLab GmbH 
		@license	GNU Lesser General Public License <http://opensource.org/licenses/lgpl-license.php> 
	--> 
	
	<defs>
		<style type="text/css">
			<![CDATA[
				.Upper2 {fill: #fff;}
				.Lower2 {fill: #000;}
			]]>
		</style>
	</defs>
	
	<g id="IconDelete">
		<g class="Lower2">
			<path id="Circle2" style="fill-rule: evenodd; clip-rule: evenodd;" d="M2.347168,8.5
				c0,2.8476562,2.3066406,5.1533203,5.152832,5.1533203c2.8447266,0,5.1523438-2.3056641,5.1523438-5.1533203
				c0-2.8466797-2.3076172-5.1533203-5.1523438-5.1533203C4.6538086,3.3466797,2.347168,5.6533203,2.347168,8.5z M1,8.5
				C1,4.9101562,3.909668,2,7.5,2C11.0898438,2,14,4.9101562,14,8.5c0,3.5908203-2.9101562,6.5-6.5,6.5
				C3.909668,15,1,12.0908203,1,8.5z"/>
			<path id="Delete2" style="fill-rule: evenodd; clip-rule: evenodd;" d="M10.328125,11.328125
				c0.3115234-0.3105469,0.3125-0.8193359,0.0009766-1.1308594L9.1972656,9.0654297
				c-0.3115234-0.3115234-0.3115234-0.8198242,0-1.1313477l1.1308594-1.1308594c0.3105469-0.3110352,0.3115234-0.8198242,0-1.1313477
				l0,0c-0.3115234-0.3115234-0.8203125-0.3105469-1.1308594,0.0004883L8.065918,6.8032227
				C7.7543945,7.1147461,7.246582,7.1147461,6.9345703,6.8027344L5.8032227,5.6713867
				C5.4916992,5.3598633,4.9824219,5.3608398,4.671875,5.671875l0,0c-0.3115234,0.3110352-0.3115234,0.8193359,0,1.1308594
				L5.8032227,7.934082c0.3115234,0.3120117,0.3115234,0.8203125,0.0004883,1.1313477L4.671875,10.1972656
				c-0.3115234,0.3115234-0.3115234,0.8193359,0,1.1308594l0,0c0.3115234,0.3115234,0.8193359,0.3115234,1.1308594,0
				l1.1318359-1.1318359c0.3115234-0.3105469,0.8198242-0.3105469,1.1313477,0l1.1313477,1.1318359
				C9.5087891,11.6396484,10.0175781,11.6396484,10.328125,11.328125L10.328125,11.328125z"/>
		</g>
		<g class="Upper2">
			<path id="Circle1" style="fill-rule: evenodd; clip-rule: evenodd;" d="M2.347168,7.5
				c0,2.8476562,2.3066406,5.1533203,5.152832,5.1533203c2.8447266,0,5.1523438-2.3056641,5.1523438-5.1533203
				c0-2.8466797-2.3076172-5.1533203-5.1523438-5.1533203C4.6538086,2.3466797,2.347168,4.6533203,2.347168,7.5z M1,7.5
				C1,3.9101562,3.909668,1,7.5,1C11.0898438,1,14,3.9101562,14,7.5c0,3.5908203-2.9101562,6.5-6.5,6.5
				C3.909668,14,1,11.0908203,1,7.5z"/>
			<path id="Delete1" style="fill-rule: evenodd; clip-rule: evenodd;" d="M10.328125,10.328125
				c0.3115234-0.3105469,0.3125-0.8193359,0.0009766-1.1308594L9.1972656,8.0654297
				c-0.3115234-0.3115234-0.3115234-0.8198242,0-1.1313477l1.1308594-1.1308594c0.3105469-0.3110352,0.3115234-0.8198242,0-1.1313477
				l0,0c-0.3115234-0.3115234-0.8203125-0.3105469-1.1308594,0.0004883L8.065918,5.8032227
				C7.7543945,6.1147461,7.246582,6.1147461,6.9345703,5.8027344L5.8032227,4.6713867
				C5.4916992,4.3598633,4.9824219,4.3608398,4.671875,4.671875l0,0c-0.3115234,0.3110352-0.3115234,0.8193359,0,1.1308594
				L5.8032227,6.934082c0.3115234,0.3120117,0.3115234,0.8203125,0.0004883,1.1313477L4.671875,9.1972656
				c-0.3115234,0.3115234-0.3115234,0.8193359,0,1.1308594l0,0c0.3115234,0.3115234,0.8193359,0.3115234,1.1308594,0
				l1.1318359-1.1318359c0.3115234-0.3110352,0.8198242-0.3110352,1.1313477,0l1.1313477,1.1318359
				C9.5087891,10.6396484,10.0175781,10.6396484,10.328125,10.328125L10.328125,10.328125z"/>
		</g>
	</g>
</svg>
