<?xml version="1.0" encoding="utf-8"?>
<!--<?xml-stylesheet type="text/css" href="svg.css"?>-->
<!DOCTYPE svg PUBLIC "-//W3C//DTD SVG 1.1//EN" "http://www.w3.org/Graphics/SVG/1.1/DTD/svg11.dtd">
<svg version="1.1" xmlns="http://www.w3.org/2000/svg" xmlns:xlink="http://www.w3.org/1999/xlink" x="0px" y="0px" width="16px" height="16px" viewBox="0 0 16 16" xml:space="preserve">
	
	<title>Delete</title> 
	<desc>Delete Icon</desc> 
	
	<!--
		@author		Harald Szekely 
		@copyright	2011 WoltLab GmbH 
		@license	GNU Lesser General Public License <http://opensource.org/licenses/lgpl-license.php> 
	--> 
	
	<defs>
		
	</defs>
	
	<g id="IconDelete">
		<g id="Lower" class="Lower">
			<path id="Circle1" style="fill-rule: evenodd; clip-rule: evenodd; fill: #fff;" d="M2.347168,8.5
				c0,2.8447266,2.3066406,5.1523438,5.152832,5.1523438c2.8447266,0,5.1523438-2.3076172,5.1523438-5.1523438
				c0-2.8466797-2.3076172-5.1533203-5.1523438-5.1533203C4.6538086,3.3466797,2.347168,5.6533203,2.347168,8.5z M1,8.5
				C1,4.909668,3.909668,2,7.5,2C11.0898438,2,14,4.909668,14,8.5c0,3.5888672-2.9101562,6.5-6.5,6.5C3.909668,15,1,12.0888672,1,8.5z"/>
			<path id="X1" style="fill: #fff;" d="M10.328125,9.9130859L8.9140625,8.4990234l1.4140625-1.4140625
				c0.375-0.3745117,0.3916016-1.0234375,0.0009766-1.4140625C9.9375,5.2802734,9.2880859,5.2963867,8.9140625,5.6704102
				L7.5,7.0849609L6.0859375,5.6704102C5.7119141,5.296875,5.0620117,5.2802734,4.6713867,5.6708984
				s-0.3735352,1.0400391,0,1.4140625l1.4145508,1.4140625L4.6713867,9.9130859
				C4.2978516,10.2871094,4.28125,10.9365234,4.671875,11.328125c0.390625,0.390625,1.0405273,0.3730469,1.4140625-0.0009766
				L7.5,9.9130859l1.4140625,1.4140625c0.3740234,0.375,1.0234375,0.3916016,1.4140625,0.0009766
				C10.71875,10.9365234,10.703125,10.2871094,10.328125,9.9130859z"/>
		</g>
		<g id="Upper" class="Upper">
			<path id="Circle2" style="fill-rule: evenodd; clip-rule: evenodd; fill: #666;" d="M2.347168,7.5
				c0,2.8447266,2.3066406,5.1523438,5.152832,5.1523438c2.8447266,0,5.1523438-2.3076172,5.1523438-5.1523438
				c0-2.8466797-2.3076172-5.1533203-5.1523438-5.1533203C4.6538086,2.3466797,2.347168,4.6533203,2.347168,7.5z M1,7.5
				C1,3.909668,3.909668,1,7.5,1C11.0898438,1,14,3.909668,14,7.5c0,3.5888672-2.9101562,6.5-6.5,6.5C3.909668,14,1,11.0888672,1,7.5z"/>
			<path id="X2" style="fill: #666;" d="M10.328125,8.9130859L8.9140625,7.4990234l1.4140625-1.4140625
				c0.375-0.3745117,0.3916016-1.0234375,0.0009766-1.4140625C9.9375,4.2802734,9.2880859,4.2963867,8.9140625,4.6704102
				L7.5,6.0849609L6.0859375,4.6704102C5.7119141,4.296875,5.0620117,4.2802734,4.6713867,4.6708984
				s-0.3735352,1.0400391,0,1.4140625l1.4145508,1.4140625L4.6713867,8.9130859
				C4.2978516,9.2871094,4.28125,9.9365234,4.671875,10.328125c0.390625,0.390625,1.0405273,0.3730469,1.4140625-0.0009766
				L7.5,8.9130859l1.4140625,1.4140625c0.3740234,0.375,1.0234375,0.3916016,1.4140625,0.0009766
				C10.71875,9.9365234,10.703125,9.2871094,10.328125,8.9130859z"/>
		</g>
	</g>
</svg>
