<?xml version="1.0" encoding="utf-8"?>
<!-- Generator: Adobe Illustrator 15.1.0, SVG Export Plug-In . SVG Version: 6.00 Build 0)  -->
<!DOCTYPE svg PUBLIC "-//W3C//DTD SVG 1.1//EN" "http://www.w3.org/Graphics/SVG/1.1/DTD/svg11.dtd">
<svg version="1.1" id="Ebene_1" xmlns="http://www.w3.org/2000/svg" xmlns:xlink="http://www.w3.org/1999/xlink" x="0px" y="0px" width="16px" height="16px" viewBox="0 0 16 16" enable-background="new 0 0 16 16" xml:space="preserve">
	<title>Disabled</title>
	<desc>Disabled Icon</desc>
	
	<!--
		@author		Harald Szekely
		@copyright	2001-2012 WoltLab GmbH 
		@license	GNU Lesser General Public License <http://opensource.org/licenses/lgpl-license.php> 
	--> 
	
	<defs>
		<style type="text/css">
			<![CDATA[
				.surface { fill: #666; }
				.shadow { fill: #fff; }
			]]>
		</style>
	</defs>
	
	<g id="IconDisabled">
		<g>
			<path id="Circle2" class="shadow" d="M11.15,2.845c-0.135-0.064-0.557-0.236-0.807,0.233c-0.332,0.623,0.06,0.904,0.141,0.948
				c1.586,0.873,2.668,2.535,2.668,4.474c0,2.845-2.308,5.152-5.152,5.152c-2.846,0-5.153-2.308-5.153-5.152
				c0-1.926,1.068-3.578,2.636-4.456C5.573,3.994,6,3.672,5.672,3.078C5.41,2.604,4.865,2.836,4.841,2.85
				C2.851,3.955,1.5,6.061,1.5,8.5C1.5,12.089,4.41,15,8,15c3.59,0,6.5-2.911,6.5-6.5C14.5,6.058,13.146,3.949,11.15,2.845z"/>
			<path id="Off2" class="shadow" d="M7,3l0,6c0,0.528,0.448,0.999,1,0.999S9,9.528,9,9V3c0-0.529-0.447-1-0.999-1
				C7.448,2,7,2.471,7,3z"/>
		</g>
		<g>
			<path id="Circle1" class="surface" d="M11.15,1.845c-0.135-0.064-0.557-0.236-0.807,0.233c-0.332,0.623,0.06,0.904,0.141,0.948
				c1.586,0.873,2.668,2.535,2.668,4.474c0,2.845-2.308,5.152-5.152,5.152c-2.846,0-5.153-2.308-5.153-5.152
				c0-1.926,1.068-3.578,2.636-4.456C5.573,2.994,6,2.672,5.672,2.078C5.41,1.604,4.865,1.836,4.841,1.85
				C2.851,2.955,1.5,5.061,1.5,7.5C1.5,11.089,4.41,14,8,14c3.59,0,6.5-2.911,6.5-6.5C14.5,5.058,13.146,2.949,11.15,1.845z"/>
			<path id="Off1" class="surface" d="M9,8V2c0-0.529-0.448-1-1-1C7.447,1,7,1.471,7,2v6C6.999,8.529,7.447,9,7.999,9
				C8.553,8.999,9,8.529,9,8z"/>
		</g>
	</g>
</svg>
