<?xml version="1.0" encoding="utf-8"?>
<!-- Generator: Adobe Illustrator 15.1.0, SVG Export Plug-In . SVG Version: 6.00 Build 0)  -->
<!DOCTYPE svg PUBLIC "-//W3C//DTD SVG 1.1//EN" "http://www.w3.org/Graphics/SVG/1.1/DTD/svg11.dtd">
<svg version="1.1" id="Ebene_1" xmlns="http://www.w3.org/2000/svg" xmlns:xlink="http://www.w3.org/1999/xlink" x="0px" y="0px" width="16px" height="16px" viewBox="0 0 16 16" enable-background="new 0 0 16 16" xml:space="preserve">
	<title>Document</title>
	<desc>Document Icon</desc>
	
	<!--
		@author		Harald Szekely
		@copyright	2001-2012 WoltLab GmbH 
		@license	GNU Lesser General Public License <http://opensource.org/licenses/lgpl-license.php> 
	--> 
	
	<defs>
		<style type="text/css">
			<![CDATA[
				.surface { fill: #666; }
				.shadow { fill: #fff; }
			]]>
		</style>
	</defs>
	
	<g id="IconMessage">
		<g>
			<path id="Sheet2" class="shadow" opacity=".8" d="M4,4v9c0,0.985,0.047,1,1,1h6c0.984,0,1-0.015,1-1V7.4L7.6,3H5C4.031,3,4,2.983,4,4z M3,3
				c0-0.47,0.501-1,1-1h4l5,5v7c0,0.548-0.5,1-1,1H4c-0.516,0-1-0.405-1-1V3z"/>
			<path id="Flap2" class="shadow" opacity=".8" d="M13,7H9C8.453,7,8,6.531,8,6V2L13,7z"/>
		</g>
		<g>
			<path id="Sheet1" class="surface" d="M4,3v9c0,0.985,0.047,1,1,1h6c0.984,0,1-0.015,1-1V6.4L7.6,2H5C4.031,2,4,1.983,4,3z M3,2
				c0-0.47,0.501-1,1-1h4l5,5v7c0,0.548-0.5,1-1,1H4c-0.516,0-1-0.405-1-1V2z"/>
			<path id="Flap1" class="surface" d="M13,6L9,6C8.453,6,8,5.531,8,5V1L13,6z"/>
		</g>
	</g>
</svg>
