<?xml version="1.0" encoding="utf-8"?>
<!-- Generator: Adobe Illustrator 15.1.0, SVG Export Plug-In . SVG Version: 6.00 Build 0)  -->
<!DOCTYPE svg PUBLIC "-//W3C//DTD SVG 1.1//EN" "http://www.w3.org/Graphics/SVG/1.1/DTD/svg11.dtd">
<svg version="1.1" id="Ebene_1" xmlns="http://www.w3.org/2000/svg" xmlns:xlink="http://www.w3.org/1999/xlink" x="0px" y="0px" width="16px" height="16px" viewBox="0 0 16 16" enable-background="new 0 0 16 16" xml:space="preserve">
	<title>Download</title>
	<desc>Download Icon</desc>
	
	<!--
		@author		Alexander Ebert
		@copyright	2001-2012 WoltLab GmbH 
		@license	GNU Lesser General Public License <http://opensource.org/licenses/lgpl-license.php> 
	--> 
	
	<defs>
		<style type="text/css">
			<![CDATA[
				.surface { fill: #666; }
				.shadow { fill: #fff; }
			]]>
		</style>
	</defs>
	
	<g id="IconDownload">
		<g id="Arrow">
			<polygon class="shadow" opacity=".8" transform="translate(-0.5 0)" points="9.5,2 9.5,5 11.5,5 11.5,6 8,9.5 4.5,6 4.5,5 6.5,5 6.5,2 "/>
			<polygon class="surface" transform="translate(-0.5 0)" points="9.5,1 9.5,5 11.5,5 8,8.5 4.5,5 6.5,5 6.5,1 "/>
		</g>
		<g id="Drive">
			<path class="shadow" opacity=".8" transform="translate(-0.5 0)" d="M1.5,12v3h13v-3H1.5z M3,14c-0.276,0-0.5-0.224-0.5-0.5S2.724,13,3,13s0.5,0.224,0.5,0.5S3.276,14,3,14z
				 M14.5,11.75h-13L3,10h10L14.5,11.75z"/>
			<path class="surface" transform="translate(-0.5 0)" d="M1.5,11v3h13v-3H1.5z M3,13c-0.276,0-0.5-0.224-0.5-0.5S2.724,12,3,12s0.5,0.224,0.5,0.5S3.276,13,3,13z
				 M14.5,10.75h-13L3,9h10L14.5,10.75z"/>
		</g>
	</g>
</svg>
