<?xml version="1.0" encoding="utf-8"?>
<!--<?xml-stylesheet type="text/css" href="svg.css"?>-->
<!DOCTYPE svg PUBLIC "-//W3C//DTD SVG 1.1//EN" "http://www.w3.org/Graphics/SVG/1.1/DTD/svg11.dtd">
<svg version="1.1" xmlns="http://www.w3.org/2000/svg" xmlns:xlink="http://www.w3.org/1999/xlink" x="0px" y="0px" width="16px" height="16px" viewBox="0 0 16 16" xml:space="preserve">
	
	<title>Download</title> 
	<desc>Download Icon</desc> 
	
	<!--
		@author		Harald Szekely 
		@copyright	2011 WoltLab GmbH 
		@license	GNU Lesser General Public License <http://opensource.org/licenses/lgpl-license.php> 
	--> 
	
	<defs>
		
	</defs>
	
	<g id="IconDownload">
		<g id="Arrow">
			<polygon class="Lower" style="fill: #fff;" points="9,2 9,5 11,5 11,6 7.5,9.5 4,6 4,5 6,5 6,2"/>
			<polygon class="Upper" style="fill: #666;" points="9,1 9,5 11,5 7.5,8.5 4,5 6,5 6,1"/>
		</g>
		<g id="Drive">
			<path class="Lower" style="fill: #fff;" d="M1,12v3h13v-3H1z M2.5,14C2.2236328,14,2,13.7763672,2,13.5S2.2236328,13,2.5,13
				S3,13.2236328,3,13.5S2.7763672,14,2.5,14z M14,11.75H1L2.5,10h10L14,11.75z"/>
			<path class="Upper" style="fill: #666;" d="M1,11v3h13v-3H1z M2.5,13C2.2236328,13,2,12.7763672,2,12.5S2.2236328,12,2.5,12
				S3,12.2236328,3,12.5S2.7763672,13,2.5,13z M14,10.75H1L2.5,9h10L14,10.75z"/>
		</g>
	</g>
</svg>
