<?xml version="1.0" encoding="utf-8"?>
<!--<?xml-stylesheet type="text/css" href="svg.css"?>-->
<!DOCTYPE svg PUBLIC "-//W3C//DTD SVG 1.1//EN" "http://www.w3.org/Graphics/SVG/1.1/DTD/svg11.dtd">
<svg version="1.1" xmlns="http://www.w3.org/2000/svg" xmlns:xlink="http://www.w3.org/1999/xlink" x="0px" y="0px" width="16px" height="16px" viewBox="0 0 16 16" xml:space="preserve">
	
	<title>Edit</title>
	<desc>Edit Icon (plus line)</desc>
	
	<!--
		@author		Harald Szekely 
		@copyright	2011 WoltLab GmbH 
		@license	GNU Lesser General Public License <http://opensource.org/licenses/lgpl-license.php> 
	--> 
	
	<defs>
		<style type="text/css">
			<![CDATA[
				.Upper {fill: #369;}
				.Lower {fill: #fff;}
			]]>
		</style>
	</defs>
	
	<g id="IconEdit">
		<g id="Line">
			<path class="Lower" d="M1,15c1.6845703,0.171875,3,0.296875,4.1586914-0.125
				c1.1821289-0.4306641,1.3759766-0.3876953,2.1137695-0.5917969C9.2773438,13.7285156,9.9814453,13.9970703,12,13.9970703
				c2.5625,0,2.4150391-1.7333984,1.0205078-1.7783203c-1.4550781-0.046875-3.0664062,0.6044922-4.5688477,1.0029297
				C7.4140625,13.4970703,6.8081055,14.5615234,4,14.71875L1,15z"/>
			<path class="Upper" d="M1,15c1.609375,0,3.484375,0,4.1586914-0.2714844
				c0.6723633-0.2705078,1.2871094-0.4648438,1.8818359-0.7148438C8.6411133,13.3427734,9.9814453,13,12,13
				c2.5625,0,2.4150391-0.9550781,1.0205078-1c-1.4550781-0.046875-3.1611328,0.203125-4.5688477,0.8623047
				C7.190918,13.453125,6.8081055,14.4150391,4,14.5722656L1,15z"/>
		</g>
		<g id="Pencil">
			<path class="Lower" d="M5.4375,12l4.875-4.859375C9.90625,7.15625,9.5625,7.0625,9.28125,6.78125
				c-0.3125-0.3125-0.3710938-0.6577148-0.375-1.015625L4,10.6621094c-0.355957,0.3544922-0.2885742,0.9863281,0.0209961,1.2958984
				C4.3857422,12.3222656,5.1064453,12.3310547,5.4375,12z M2.3242188,13.8818359l1.1870117-0.375
				c-0.2866211-0.1005859-0.4291992-0.0742188-0.6650391-0.3085938c-0.2226562-0.2070312-0.2099609-0.3017578-0.2490234-0.6318359
				l-0.4121094,1.1708984C2.1499023,13.8447266,2.2167969,13.9130859,2.3242188,13.8818359z M1.2324219,14.9882812
				c-0.1679688,0.0488281-0.2719727-0.0585938-0.2177734-0.2246094c0,0,1.3828125-3.7988281,1.4384766-3.8964844
				c0.0566406-0.1015625,0.1289062-0.1972656,0.2177734-0.2871094l8.2294922-8.2963867
				c0.5371094-0.5405273,1.5332031-0.2988281,2.3671875,0.6367188c0.7695312,0.8662109,0.9433594,1.7548828,0.4726562,2.2275391
				L5.4555664,13.5c-0.1738281,0.1738281-0.3720703,0.2753906-0.5830078,0.3183594
				C4.3989258,13.9863281,1.2324219,14.9882812,1.2324219,14.9882812z"/>
			<path class="Upper" d="M5.4375,11l4.875-4.859375C9.90625,6.15625,9.5625,6.0625,9.28125,5.78125
				c-0.3125-0.3125-0.3710938-0.6577148-0.375-1.015625L4,9.6621094c-0.355957,0.3544922-0.2885742,0.9863281,0.0209961,1.2958984
				C4.3857422,11.3222656,5.1064453,11.3310547,5.4375,11z M2.3242188,12.8818359l1.1870117-0.375
				c-0.2866211-0.1005859-0.4291992-0.0742188-0.6650391-0.3085938c-0.2226562-0.2070312-0.2099609-0.3017578-0.2490234-0.6318359
				l-0.4121094,1.1708984C2.1499023,12.8447266,2.2167969,12.9130859,2.3242188,12.8818359z M1.2324219,13.9882812
				c-0.1679688,0.0488281-0.2719727-0.0585938-0.2177734-0.2246094c0,0,1.3828125-3.7988281,1.4384766-3.8964844
				C2.5097656,9.765625,2.5820312,9.6699219,2.6708984,9.5800781l8.2294922-8.2963867
				c0.5371094-0.5405273,1.5332031-0.2988281,2.3671875,0.6367188c0.7695312,0.8662109,0.9433594,1.7548828,0.4726562,2.2275391
				L5.4555664,12.5c-0.1738281,0.1738281-0.3720703,0.2753906-0.5830078,0.3183594
				C4.3989258,12.9863281,1.2324219,13.9882812,1.2324219,13.9882812z"/>
		</g>
	</g>
</svg>
