<?xml version="1.0" encoding="utf-8"?>
<!-- Generator: Adobe Illustrator 15.1.0, SVG Export Plug-In . SVG Version: 6.00 Build 0)  -->
<!DOCTYPE svg PUBLIC "-//W3C//DTD SVG 1.1//EN" "http://www.w3.org/Graphics/SVG/1.1/DTD/svg11.dtd">
<svg version="1.1" id="Ebene_1" xmlns="http://www.w3.org/2000/svg" xmlns:xlink="http://www.w3.org/1999/xlink" x="0px" y="0px" width="16px" height="16px" viewBox="0 0 16 16" enable-background="new 0 0 16 16" xml:space="preserve">
	<title>Edit</title>
	<desc>Edit Icon</desc>
	
	<!--
		@author		Harald Szekely
		@copyright	2001-2012 WoltLab GmbH 
		@license	GNU Lesser General Public License <http://opensource.org/licenses/lgpl-license.php> 
	--> 
	
	<defs>
		<style type="text/css">
			<![CDATA[
				.surface { fill: #369; }
				.shadow { fill: #fff; }
			]]>
		</style>
	</defs>
	
	<g id="IconEdit">
		<g id="Line">
			<path class="shadow" opacity=".8" d="M1.494,14.92c1.685,0.172,3,0.297,4.159-0.125c1.182-0.431,1.376-0.388,2.114-0.592
				c2.005-0.555,2.709-0.286,4.728-0.286c2.563,0,2.415-1.733,1.021-1.778c-1.455-0.047-3.066,0.604-4.569,1.003
				c-1.037,0.275-1.643,1.34-4.451,1.497L1.494,14.92z"/>
			<path class="surface" d="M1.494,14.92c1.609,0,3.484,0,4.159-0.271c0.672-0.271,1.287-0.465,1.882-0.715
				c1.6-0.671,2.941-1.014,4.959-1.014c2.563,0,2.415-0.955,1.021-1c-1.455-0.047-3.161,0.203-4.569,0.862
				c-1.26,0.591-1.643,1.553-4.451,1.71L1.494,14.92z"/>
		</g>
		<g id="Pencil">
			<path class="shadow" opacity=".8" d="M5.932,11.92l4.875-4.859c-0.406,0.016-0.75-0.078-1.031-0.359C9.463,6.389,9.404,6.043,9.4,5.686
				l-4.906,4.896c-0.356,0.354-0.289,0.986,0.021,1.296C4.88,12.242,5.601,12.251,5.932,11.92z M2.818,13.802l1.187-0.375
				c-0.287-0.101-0.429-0.074-0.665-0.309c-0.223-0.207-0.21-0.302-0.249-0.632l-0.412,1.171C2.644,13.765,2.711,13.833,2.818,13.802
				z M1.727,14.908c-0.168,0.049-0.272-0.059-0.218-0.225c0,0,1.383-3.799,1.438-3.896c0.057-0.102,0.129-0.197,0.218-0.287
				l8.229-8.296c0.537-0.541,1.533-0.299,2.367,0.637c0.77,0.866,0.943,1.755,0.473,2.228L5.95,13.42
				c-0.174,0.174-0.372,0.275-0.583,0.318C4.893,13.906,1.727,14.908,1.727,14.908z"/>
			<path class="surface" d="M5.932,10.92l4.875-4.859c-0.406,0.016-0.75-0.078-1.031-0.359C9.463,5.389,9.404,5.043,9.4,4.686
				L4.494,9.582c-0.356,0.354-0.289,0.986,0.021,1.296C4.88,11.242,5.601,11.251,5.932,10.92z M2.818,12.802l1.187-0.375
				c-0.287-0.101-0.429-0.074-0.665-0.309c-0.223-0.207-0.21-0.302-0.249-0.632l-0.412,1.171C2.644,12.765,2.711,12.833,2.818,12.802
				z M1.727,13.908c-0.168,0.049-0.272-0.059-0.218-0.225c0,0,1.383-3.799,1.438-3.896C3.004,9.686,3.076,9.59,3.165,9.5l8.229-8.296
				c0.537-0.541,1.533-0.299,2.367,0.637c0.77,0.866,0.943,1.755,0.473,2.228L5.95,12.42c-0.174,0.174-0.372,0.275-0.583,0.318
				C4.893,12.906,1.727,13.908,1.727,13.908z"/>
		</g>
	</g>
</svg>
