<?xml version="1.0" encoding="utf-8"?>
<!-- Generator: Adobe Illustrator 15.1.0, SVG Export Plug-In . SVG Version: 6.00 Build 0)  -->
<!DOCTYPE svg PUBLIC "-//W3C//DTD SVG 1.1//EN" "http://www.w3.org/Graphics/SVG/1.1/DTD/svg11.dtd">
<svg version="1.1" id="Ebene_1" xmlns="http://www.w3.org/2000/svg" xmlns:xlink="http://www.w3.org/1999/xlink" x="0px" y="0px" width="16px" height="16px" viewBox="0 0 16 16" enable-background="new 0 0 16 16" xml:space="preserve">
	<title>E-Mail</title>
	<desc>E-Mail Icon</desc>
	
	<!--
		@author		Alexander Ebert
		@copyright	2001-2012 WoltLab GmbH 
		@license	GNU Lesser General Public License <http://opensource.org/licenses/lgpl-license.php> 
	--> 
	
	<defs>
		<style type="text/css">
			<![CDATA[
				.surface { fill: #369; }
				.shadow { fill: #fff; }
			]]>
		</style>
	</defs>
	
	<g id="IconEmail">
		<path class="shadow" opacity=".8" transform="translate(-0.5 0)" d="M9.467,5.415c-0.381-0.227-0.781-0.34-1.199-0.34c-0.787,0-1.475,0.271-2.066,0.812
			C5.207,6.805,4.709,7.962,4.709,9.359c0,0.754,0.2,1.361,0.599,1.82c0.399,0.459,0.931,0.689,1.595,0.689
			c0.541,0,1.088-0.189,1.641-0.566c0.208,0.629,0.786,0.943,1.733,0.943c1.205,0,2.211-0.432,3.015-1.293
			c0.806-0.861,1.208-1.94,1.208-3.236c0-0.993-0.239-1.916-0.719-2.765c-0.48-0.849-1.144-1.525-1.991-2.029
			C10.744,2.308,9.614,2,8.397,2C6.996,2,5.723,2.358,4.579,3.075C3.437,3.792,2.6,4.749,2.072,5.943C1.69,6.799,1.5,7.724,1.5,8.717
			c0,1.824,0.584,3.328,1.752,4.51C4.419,14.41,5.926,15,7.77,15H14c0,0,0.5,0,0.5-0.689c0-0.619-0.5-0.619-0.5-0.619H8.255
			C4.862,13.656,3.16,11.965,3.16,8.604c0-1.585,0.479-2.861,1.438-3.83S6.823,3.32,8.397,3.32c1.352,0,2.437,0.406,3.254,1.218
			c0.816,0.811,1.227,1.889,1.227,3.235c0,1.044-0.203,1.865-0.609,2.463c-0.405,0.598-0.959,0.896-1.66,0.896
			c-0.552,0-0.83-0.283-0.83-0.85c0-0.502,0.283-1.672,1.181-4.59c0,0,0.229-0.694-0.646-0.694C9.688,5,9.467,5.415,9.467,5.415z
			 M8.406,9.727c-0.399,0.635-0.858,0.953-1.374,0.953c-0.553,0-0.83-0.352-0.83-1.057c0-0.956,0.204-1.768,0.608-2.435
			c0.406-0.666,0.86-0.999,1.364-0.999c0.554,0,0.829,0.402,0.829,1.207C9.004,8.315,8.805,9.092,8.406,9.727z"/>
		<path class="surface" transform="translate(-0.5 0)" d="M9.467,4.416c-0.381-0.227-0.781-0.34-1.199-0.34c-0.787,0-1.475,0.271-2.066,0.812
			C5.207,5.806,4.709,6.962,4.709,8.359c0,0.755,0.2,1.361,0.599,1.82c0.399,0.46,0.931,0.689,1.595,0.689
			c0.541,0,1.088-0.188,1.641-0.566c0.208,0.63,0.786,0.943,1.733,0.943c1.205,0,2.211-0.431,3.015-1.293
			c0.806-0.861,1.208-1.94,1.208-3.235c0-0.993-0.239-1.916-0.719-2.765c-0.48-0.849-1.144-1.525-1.991-2.029
			C10.744,1.309,9.614,1,8.397,1C6.996,1,5.723,1.358,4.579,2.076C3.437,2.792,2.6,3.749,2.072,4.943C1.69,5.8,1.5,6.724,1.5,7.717
			c0,1.825,0.584,3.328,1.752,4.51C4.419,13.41,5.926,14,7.77,14H14c0,0,0.5,0,0.5-0.688c0-0.619-0.5-0.619-0.5-0.619H8.255
			C4.862,12.656,3.16,10.965,3.16,7.604c0-1.585,0.479-2.861,1.438-3.831s2.225-1.453,3.799-1.453c1.352,0,2.437,0.406,3.254,1.218
			c0.816,0.811,1.227,1.889,1.227,3.235c0,1.044-0.203,1.866-0.609,2.463c-0.405,0.597-0.959,0.896-1.66,0.896
			c-0.552,0-0.83-0.283-0.83-0.849c0-0.503,0.283-1.672,1.181-4.59c0,0,0.229-0.694-0.646-0.694C9.688,4,9.467,4.416,9.467,4.416z
			 M8.406,8.728C8.007,9.362,7.547,9.68,7.032,9.68c-0.553,0-0.83-0.352-0.83-1.057c0-0.956,0.204-1.767,0.608-2.435
			c0.406-0.666,0.86-0.999,1.364-0.999c0.554,0,0.829,0.402,0.829,1.207C9.004,7.315,8.805,8.092,8.406,8.728z"/>
	</g>
</svg>
