<?xml version="1.0" encoding="utf-8"?>
<!--<?xml-stylesheet type="text/css" href="svg.css"?>-->
<!DOCTYPE svg PUBLIC "-//W3C//DTD SVG 1.1//EN" "http://www.w3.org/Graphics/SVG/1.1/DTD/svg11.dtd">
<svg version="1.1" xmlns="http://www.w3.org/2000/svg" xmlns:xlink="http://www.w3.org/1999/xlink" x="0px" y="0px" width="16px" height="16px" viewBox="0 0 16 16" xml:space="preserve">
	
	<title>E-Mail</title>
	<desc>E-Mail Icon</desc>
	
	<!--
		@author		Harald Szekely 
		@copyright	2011 WoltLab GmbH 
		@license	GNU Lesser General Public License <http://opensource.org/licenses/lgpl-license.php> 
	--> 
	
	<defs>
		<style type="text/css">
			<![CDATA[
				.Upper1 {fill: #666;}
				.Lower1 {fill: #fff;}
			]]>
		</style>
	</defs>
	
	<g id="IconEmail">
		<path class="Lower1" d="M8.9672852,5.4150391C8.5859375,5.1879883,8.1850586,5.0751953,7.7680664,5.0751953
			c-0.7866211,0-1.4750977,0.2705078-2.065918,0.8115234C4.706543,6.8051758,4.2089844,7.9619141,4.2089844,9.359375
			c0,0.7539062,0.199707,1.3613281,0.5991211,1.8203125c0.3989258,0.4589844,0.9311523,0.6894531,1.5952148,0.6894531
			c0.5410156,0,1.0883789-0.1894531,1.640625-0.5664062c0.2084961,0.6289062,0.7866211,0.9433594,1.7333984,0.9433594
			c1.2050781,0,2.2109375-0.4316406,3.0146484-1.2929688C13.5976562,10.0917969,14,9.0126953,14,7.7172852
			c0-0.9931641-0.2392578-1.9155273-0.71875-2.7646484c-0.4804688-0.8491211-1.1435547-1.5249023-1.9912109-2.0288086
			c-1.0458984-0.6157227-2.1757812-0.9243164-3.3930664-0.9243164c-1.4013672,0-2.6743164,0.3583984-3.8178711,1.0756836
			C2.9365234,3.7919922,2.1000977,4.7485352,1.5717773,5.9428711C1.1904297,6.7993164,1,7.7236328,1,8.7167969
			c0,1.8242188,0.5839844,3.328125,1.7519531,4.5097656C3.9194336,14.4101562,5.4262695,15,7.2700195,15H13.5
			c0,0,0.5,0,0.5-0.6894531c0-0.6191406-0.5-0.6191406-0.5-0.6191406H7.7548828
			C4.3623047,13.65625,2.659668,11.9648438,2.659668,8.6040039c0-1.5854492,0.4794922-2.8613281,1.4384766-3.8305664
			s2.2246094-1.453125,3.7988281-1.453125c1.3520508,0,2.4370117,0.4057617,3.2543945,1.2177734
			c0.8164062,0.8105469,1.2265625,1.8891602,1.2265625,3.2353516c0,1.0439453-0.203125,1.8652344-0.609375,2.4628906
			c-0.4052734,0.5976562-0.9589844,0.8964844-1.6601562,0.8964844c-0.5517578,0-0.8300781-0.2832031-0.8300781-0.8496094
			c0-0.5019531,0.2832031-1.6713867,1.1806641-4.5898438c0,0,0.2285156-0.6938477-0.6464844-0.6938477
			C9.1875,4.9995117,8.9672852,5.4150391,8.9672852,5.4150391z M7.9057617,9.7265625
			c-0.3989258,0.6347656-0.8583984,0.953125-1.3735352,0.953125c-0.5532227,0-0.8300781-0.3515625-0.8300781-1.0566406
			c0-0.9560547,0.2036133-1.7675781,0.6083984-2.4350586c0.4057617-0.6660156,0.8598633-0.9990234,1.3642578-0.9990234
			c0.5537109,0,0.8295898,0.4018555,0.8295898,1.2070312C8.5043945,8.3149414,8.3051758,9.0917969,7.9057617,9.7265625z"/>
		<path class="Upper1" d="M8.9672852,4.4155273C8.5859375,4.1884766,8.1850586,4.0756836,7.7680664,4.0756836
			c-0.7866211,0-1.4750977,0.2705078-2.065918,0.8115234C4.706543,5.8056641,4.2089844,6.9624023,4.2089844,8.359375
			c0,0.7548828,0.199707,1.3613281,0.5991211,1.8203125c0.3989258,0.4599609,0.9311523,0.6894531,1.5952148,0.6894531
			c0.5410156,0,1.0883789-0.1884766,1.640625-0.5664062c0.2084961,0.6298828,0.7866211,0.9433594,1.7333984,0.9433594
			c1.2050781,0,2.2109375-0.4306641,3.0146484-1.2929688C13.5976562,9.0917969,14,8.0131836,14,6.7177734
			c0-0.9931641-0.2392578-1.9155273-0.71875-2.7646484c-0.4804688-0.8491211-1.1435547-1.5249023-1.9912109-2.0288086
			C10.2441406,1.3085938,9.1142578,1,7.8969727,1C6.4956055,1,5.2226562,1.3583984,4.0791016,2.0756836
			C2.9365234,2.7924805,2.1000977,3.7490234,1.5717773,4.9433594C1.1904297,5.7998047,1,6.7241211,1,7.7172852
			c0,1.824707,0.5839844,3.3276367,1.7519531,4.5102539C3.9194336,13.4101562,5.4262695,14,7.2700195,14H13.5
			c0,0,0.5,0,0.5-0.6884766c0-0.6191406-0.5-0.6191406-0.5-0.6191406H7.7548828
			C4.3623047,12.65625,2.659668,10.9648438,2.659668,7.6044922c0-1.5854492,0.4794922-2.8613281,1.4384766-3.8305664
			s2.2246094-1.453125,3.7988281-1.453125c1.3520508,0,2.4370117,0.4057617,3.2543945,1.2177734
			c0.8164062,0.8105469,1.2265625,1.8891602,1.2265625,3.2353516c0,1.0439453-0.203125,1.8657227-0.609375,2.4633789
			c-0.4052734,0.5966797-0.9589844,0.8955078-1.6601562,0.8955078c-0.5517578,0-0.8300781-0.2832031-0.8300781-0.8486328
			c0-0.5029297,0.2832031-1.671875,1.1806641-4.590332C10.4589844,4.6938477,10.6875,4,9.8125,4
			C9.1875,4,8.9672852,4.4155273,8.9672852,4.4155273z M7.9057617,8.7275391
			C7.5068359,9.3623047,7.0473633,9.6796875,6.5322266,9.6796875c-0.5532227,0-0.8300781-0.3515625-0.8300781-1.0561523
			c0-0.9560547,0.2036133-1.7675781,0.6083984-2.4350586c0.4057617-0.6660156,0.8598633-0.9990234,1.3642578-0.9990234
			c0.5537109,0,0.8295898,0.4018555,0.8295898,1.2070312C8.5043945,7.3154297,8.3051758,8.0922852,7.9057617,8.7275391z"/>
	</g>
</svg>
