<?xml version="1.0" encoding="utf-8"?>
<!--<?xml-stylesheet type="text/css" href="svg.css"?>-->
<!DOCTYPE svg PUBLIC "-//W3C//DTD SVG 1.1//EN" "http://www.w3.org/Graphics/SVG/1.1/DTD/svg11.dtd">
<svg version="1.1" xmlns="http://www.w3.org/2000/svg" xmlns:xlink="http://www.w3.org/1999/xlink" x="0px" y="0px" width="16px" height="16px" viewBox="0 0 16 16" xml:space="preserve">
	
	<title>Enabled</title>
	<desc>Enabled Icon (disabled)</desc>
	
	<!--
		@author		Harald Szekely 
		@copyright	2011 WoltLab GmbH 
		@license	GNU Lesser General Public License <http://opensource.org/licenses/lgpl-license.php> 
	--> 
	
	<defs>
		<style type="text/css">
			<![CDATA[
				.Upper1 {fill: #666;}
				.Lower1 {fill: #fff;}
				.disabled {opacity: .3;}
			]]>
		</style>
	</defs>
	
	<g id="IconEnabled" class="disabled">
		<g class="Lower1">
			<path id="Circle2" style="fill-rule: evenodd; clip-rule: evenodd;" d="M2.347168,8.5
				c0,2.8447266,2.3066406,5.1523438,5.152832,5.1523438c2.8447266,0,5.1523438-2.3076172,5.1523438-5.1523438
				c0-2.8466797-2.3076172-5.1533203-5.1523438-5.1533203C4.6538086,3.3466797,2.347168,5.6533203,2.347168,8.5z M1,8.5
				C1,4.909668,3.909668,2,7.5,2C11.0898438,2,14,4.909668,14,8.5c0,3.5888672-2.9101562,6.5-6.5,6.5C3.909668,15,1,12.0888672,1,8.5z"/>
			<circle id="Point2" cx="7.5" cy="8.5" r="1.5"/>
		</g>
		<g class="Upper1">
			<path id="Circle1" style="fill-rule: evenodd; clip-rule: evenodd;" d="M2.347168,7.5
				c0,2.8447266,2.3066406,5.1523438,5.152832,5.1523438c2.8447266,0,5.1523438-2.3076172,5.1523438-5.1523438
				c0-2.8466797-2.3076172-5.1533203-5.1523438-5.1533203C4.6538086,2.3466797,2.347168,4.6533203,2.347168,7.5z M1,7.5
				C1,3.909668,3.909668,1,7.5,1C11.0898438,1,14,3.909668,14,7.5c0,3.5888672-2.9101562,6.5-6.5,6.5C3.909668,14,1,11.0888672,1,7.5z"/>
			<circle id="Point1" cx="7.5" cy="7.5" r="1.5"/>
		</g>
	</g>
</svg>
