<?xml version="1.0" encoding="utf-8"?>
<!-- Generator: Adobe Illustrator 15.1.0, SVG Export Plug-In . SVG Version: 6.00 Build 0)  -->
<!DOCTYPE svg PUBLIC "-//W3C//DTD SVG 1.1//EN" "http://www.w3.org/Graphics/SVG/1.1/DTD/svg11.dtd">
<svg version="1.1" id="Ebene_1" xmlns="http://www.w3.org/2000/svg" xmlns:xlink="http://www.w3.org/1999/xlink" x="0px" y="0px" width="16px" height="16px" viewBox="0 0 16 16" enable-background="new 0 0 16 16" xml:space="preserve">
	<title>Enabled</title>
	<desc>Enabled Icon</desc>
	
	<!--
		@author		Alexander Ebert
		@copyright	2001-2012 WoltLab GmbH 
		@license	GNU Lesser General Public License <http://opensource.org/licenses/lgpl-license.php> 
	--> 
	
	<defs>
		<style type="text/css">
			<![CDATA[
				.surface { fill: #fff; }
				.shadow { fill: #000; }
			]]>
		</style>
	</defs>
	
	<g id="IconEnabled">
		<g>
			<path id="Circle2" class="shadow" transform="translate(0 -1)" opacity=".8" d="M2.847,8.5c0,2.845,2.307,5.152,5.153,5.152c2.845,0,5.152-2.308,5.152-5.152
				c0-2.847-2.308-5.153-5.152-5.153C5.154,3.347,2.847,5.653,2.847,8.5z M1.5,8.5C1.5,4.91,4.41,2,8,2c3.59,0,6.5,2.91,6.5,6.5
				c0,3.589-2.91,6.5-6.5,6.5C4.41,15,1.5,12.089,1.5,8.5z"/>
			<circle id="Point2" class="shadow" transform="translate(0 -1)" opacity=".8" cx="8" cy="8.5" r="1.5"/>
		</g>
		<g>
			<path id="Circle1" class="surface" transform="translate(0 1)" d="M2.847,7.5c0,2.845,2.307,5.152,5.153,5.152c2.845,0,5.152-2.308,5.152-5.152
				c0-2.847-2.308-5.153-5.152-5.153C5.154,2.347,2.847,4.653,2.847,7.5z M1.5,7.5C1.5,3.91,4.41,1,8,1c3.59,0,6.5,2.91,6.5,6.5
				c0,3.589-2.91,6.5-6.5,6.5C4.41,14,1.5,11.089,1.5,7.5z"/>
			<circle id="Point1" class="surface" transform="translate(0 1)" cx="8" cy="7.5" r="1.5"/>
		</g>
	</g>
</svg>
