<?xml version="1.0" encoding="utf-8"?>
<!-- Generator: Adobe Illustrator 15.1.0, SVG Export Plug-In . SVG Version: 6.00 Build 0)  -->
<!DOCTYPE svg PUBLIC "-//W3C//DTD SVG 1.1//EN" "http://www.w3.org/Graphics/SVG/1.1/DTD/svg11.dtd">
<svg version="1.1" id="Ebene_1" xmlns="http://www.w3.org/2000/svg" xmlns:xlink="http://www.w3.org/1999/xlink" x="0px" y="0px" width="16px" height="16px" viewBox="0 0 16 16" enable-background="new 0 0 16 16" xml:space="preserve">
	<title>Enlarge</title>
	<desc>Enlarge Icon</desc>
	
	<!--
		@author		Alexander Ebert
		@copyright	2001-2012 WoltLab GmbH 
		@license	GNU Lesser General Public License <http://opensource.org/licenses/lgpl-license.php> 
	--> 
	
	<defs>
		<style type="text/css">
			<![CDATA[
				.surface { fill: #369; }
				.shadow { fill: #fff; }
			]]>
		</style>
	</defs>
	
	<g id="IconEnlarge">
		<g>
			<polygon id="ArrowNW2" class="shadow" opacity=".8" transform="translate(-0.5 0)" points="3.5,8 3.5,4 7.5,4 5.5,2 1.5,2 1.5,6 "/>
			<polygon id="ArrowSO2" class="shadow" opacity=".8" transform="translate(-0.5 0)" points="12.5,9 12.5,13 8.5,13 10.5,15 14.5,15 14.5,11 "/>
		</g>
		<g>
			<polygon id="ArrowNW1" class="surface" transform="translate(-0.5 0)" points="3.5,7 3.5,3 7.5,3 5.5,1 1.5,1 1.5,5 "/>
			<polygon id="ArrowSO1" class="surface" transform="translate(-0.5 0)" points="12.5,8 12.5,12 8.5,12 10.5,14 14.5,14 14.5,10 "/>
		</g>
	</g>
</svg>
