<?xml version="1.0" encoding="utf-8"?>
<!-- Generator: Adobe Illustrator 15.1.0, SVG Export Plug-In . SVG Version: 6.00 Build 0)  -->
<!DOCTYPE svg PUBLIC "-//W3C//DTD SVG 1.1//EN" "http://www.w3.org/Graphics/SVG/1.1/DTD/svg11.dtd">
<svg version="1.1" id="Ebene_1" xmlns="http://www.w3.org/2000/svg" xmlns:xlink="http://www.w3.org/1999/xlink" x="0px" y="0px" width="16px" height="16px" viewBox="0 0 16 16" enable-background="new 0 0 16 16" xml:space="preserve">
	<title>Error</title>
	<desc>Error Icon</desc>
	
	<!--
		@author		Harald Szekely
		@copyright	2001-2012 WoltLab GmbH 
		@license	GNU Lesser General Public License <http://opensource.org/licenses/lgpl-license.php> 
	--> 
	
	<defs>
		<style type="text/css">
			<![CDATA[
				.surface { fill: #369; }
				.shadow { fill: #fff; }
			]]>
		</style>
	</defs>
	
	<g id="IconError">
		<path class="shadow" opacity=".8" d="M10.691,2H5.308L1.5,5.807v5.384L5.308,15h5.384l3.809-3.809V5.807L10.691,2z M12.397,7.694
			c0.046,0.106-0.381,0.994-0.381,0.994c-0.125,0.173-0.473,1.233-0.473,1.233c-0.213,1.066-1.197,2.363-1.197,2.363
			c-0.256,0.484-1.277,0.662-1.277,0.662l-0.712-0.002c-1.02,0.227-1.66-0.318-1.66-0.318c-0.481-0.43-0.901-1.156-0.901-1.156
			c0.023-0.115-0.627-1.742-0.627-1.742C5.147,9.605,4.457,8.643,4.457,8.643C4.37,8.507,3.902,7.784,3.902,7.784
			C3.106,6.663,3.68,6.517,3.68,6.517c0.325-0.156,0.694,0.607,0.694,0.607c0.067,0.23,0.305,0.514,0.305,0.514
			C4.78,7.814,5.21,8.272,5.21,8.272c0.155,0.129,0.376,0.389,0.376,0.389C5.798,9.077,6.097,8.72,6.097,8.72
			C6.129,8.667,5.69,7.456,5.69,7.456c-0.13-0.144-0.267-1.278-0.267-1.278C5.343,6.024,5.253,5.453,5.253,5.453
			c-0.146-0.74,0.381-0.658,0.381-0.658c0.455-0.012,0.493,0.925,0.493,0.925c0.059,0.168,0.091,0.452,0.091,0.452
			c0.06,0.051,0.304,0.75,0.304,0.75c0.181,0.233,0.376,0.843,0.376,0.843C7.051,8.25,7.159,7.934,7.159,7.934
			C7.09,7.823,7.043,6.587,7.043,6.587C6.996,6.479,6.913,5.653,6.913,5.653c0.019-0.095-0.128-0.835-0.128-0.835
			C6.509,4.271,6.878,4.006,6.878,4.006c0.582-0.067,0.678,0.466,0.678,0.466c0.062,0.031,0.237,0.855,0.237,0.855
			C7.92,5.372,8.082,6.49,8.082,6.49c0.084,0.037,0.145,0.977,0.145,0.977c0.04,0.482,0.14,0.324,0.14,0.324
			c0.186-0.024,0.174-0.303,0.174-0.303C8.523,7.346,8.599,6.629,8.599,6.629C8.566,6.445,8.681,5.874,8.681,5.874
			c0.054-0.148-0.013-0.497-0.013-0.497l-0.07-0.33C8.471,4.093,9.102,4.333,9.102,4.333c0.336,0.025,0.43,1.031,0.43,1.031
			C9.508,5.597,9.563,5.767,9.563,5.767c0.055,0.069,0.073,1.002,0.073,1.002C9.664,6.853,9.64,7.54,9.64,7.54
			C9.602,7.731,9.647,7.957,9.647,7.957c0.062,0.033,0.129,0.717,0.129,0.717c0.073,0.43,0.635,0.676,0.635,0.676
			c0.149,0.049,0.493-0.875,0.493-0.875c0.059-0.069,0.156-0.326,0.156-0.326c0.328-1.084,1.083-0.999,1.083-0.999
			C12.7,7.198,12.397,7.694,12.397,7.694z"/>
		<path class="surface" d="M10.691,1H5.308L1.5,4.808v5.385L5.308,14h5.384l3.809-3.808V4.808L10.691,1z M12.397,6.695
			c0.046,0.106-0.381,0.994-0.381,0.994c-0.125,0.173-0.473,1.234-0.473,1.234c-0.213,1.065-1.197,2.362-1.197,2.362
			c-0.256,0.484-1.277,0.662-1.277,0.662l-0.712-0.002c-1.02,0.227-1.66-0.318-1.66-0.318c-0.481-0.43-0.901-1.156-0.901-1.156
			c0.023-0.115-0.627-1.742-0.627-1.742C5.147,8.605,4.457,7.643,4.457,7.643C4.37,7.507,3.902,6.785,3.902,6.785
			C3.106,5.664,3.68,5.517,3.68,5.517c0.325-0.156,0.694,0.607,0.694,0.607c0.067,0.23,0.305,0.514,0.305,0.514
			C4.78,6.815,5.21,7.272,5.21,7.272c0.155,0.129,0.376,0.389,0.376,0.389C5.798,8.078,6.097,7.72,6.097,7.72
			C6.129,7.667,5.69,6.456,5.69,6.456c-0.13-0.144-0.267-1.278-0.267-1.278C5.343,5.025,5.253,4.454,5.253,4.454
			c-0.146-0.74,0.381-0.658,0.381-0.658c0.455-0.012,0.493,0.925,0.493,0.925C6.186,4.89,6.218,5.173,6.218,5.173
			c0.06,0.051,0.304,0.75,0.304,0.75c0.181,0.233,0.376,0.843,0.376,0.843C7.051,7.25,7.159,6.935,7.159,6.935
			C7.09,6.823,7.043,5.588,7.043,5.588C6.996,5.48,6.913,4.654,6.913,4.654c0.019-0.095-0.128-0.835-0.128-0.835
			C6.509,3.271,6.878,3.006,6.878,3.006c0.582-0.067,0.678,0.466,0.678,0.466c0.062,0.031,0.237,0.855,0.237,0.855
			C7.92,4.373,8.082,5.49,8.082,5.49c0.084,0.037,0.145,0.977,0.145,0.977c0.04,0.482,0.14,0.324,0.14,0.324
			c0.186-0.024,0.174-0.303,0.174-0.303C8.523,6.347,8.599,5.629,8.599,5.629C8.566,5.445,8.681,4.874,8.681,4.874
			c0.054-0.148-0.013-0.497-0.013-0.497l-0.07-0.33C8.471,3.094,9.102,3.334,9.102,3.334c0.336,0.025,0.43,1.031,0.43,1.031
			C9.508,4.597,9.563,4.767,9.563,4.767C9.618,4.836,9.637,5.77,9.637,5.77C9.664,5.854,9.64,6.541,9.64,6.541
			C9.602,6.731,9.647,6.957,9.647,6.957C9.709,6.99,9.776,7.674,9.776,7.674c0.073,0.43,0.635,0.676,0.635,0.676
			c0.149,0.048,0.493-0.875,0.493-0.875c0.059-0.069,0.156-0.326,0.156-0.326c0.328-1.084,1.083-0.999,1.083-0.999
			C12.7,6.198,12.397,6.695,12.397,6.695z"/>
	</g>
</svg>
