<?xml version="1.0" encoding="utf-8"?>
<!-- Generator: Adobe Illustrator 15.1.0, SVG Export Plug-In . SVG Version: 6.00 Build 0)  -->
<!DOCTYPE svg PUBLIC "-//W3C//DTD SVG 1.1//EN" "http://www.w3.org/Graphics/SVG/1.1/DTD/svg11.dtd">
<svg version="1.1" id="Ebene_1" xmlns="http://www.w3.org/2000/svg" xmlns:xlink="http://www.w3.org/1999/xlink" x="0px" y="0px" width="16px" height="16px" viewBox="0 0 16 16" enable-background="new 0 0 16 16" xml:space="preserve">
	<title>External Link</title>
	<desc>External Link Icon</desc>
	
	<!--
		@author		Alexander Ebert
		@copyright	2001-2012 WoltLab GmbH 
		@license	GNU Lesser General Public License <http://opensource.org/licenses/lgpl-license.php> 
	--> 
	
	<defs>
		<style type="text/css">
			<![CDATA[
				.surface { fill: #fff; }
				.shadow { fill: #000; }
			]]>
		</style>
	</defs>
	
	<g id="IconExternalLink">
		<g>
			<path id="LargeSquare2" class="shadow" transform="translate(0 -1)" opacity=".8" d="M4.455,2.5C4.205,2.5,4,2.705,4,2.955v9.091c0,0.25,0.205,0.454,0.455,0.454h9.091
				c0.25,0,0.454-0.204,0.454-0.454V2.955c0-0.25-0.204-0.455-0.454-0.455H4.455z M13,11.015c0,0.268-0.218,0.485-0.485,0.485h-7.03
				C5.218,11.5,5,11.282,5,11.015v-7.03C5,3.718,5.218,3.5,5.484,3.5h7.03C12.782,3.5,13,3.718,13,3.984V11.015z"/>
			<path id="SmallSquare2" class="shadow" transform="translate(0 -1)" opacity=".8" d="M9,13c0,0.275-0.225,0.5-0.5,0.5h-5C3.225,13.5,3,13.275,3,13V8
				c0-0.275,0.225-0.5,0.5-0.5v-1h-1C2.225,6.5,2,6.725,2,7v7c0,0.275,0.225,0.5,0.5,0.5h7c0.275,0,0.5-0.225,0.5-0.5v-1H9z"/>
		</g>
		<g>
			<path id="LargeSquare1" class="surface" transform="translate(0 1)" d="M4.455,1.5C4.205,1.5,4,1.705,4,1.955v9.091c0,0.25,0.205,0.454,0.455,0.454h9.091
				c0.25,0,0.454-0.204,0.454-0.454V1.955c0-0.25-0.204-0.455-0.454-0.455H4.455z M13,10.015c0,0.268-0.218,0.485-0.485,0.485h-7.03
				C5.218,10.5,5,10.282,5,10.015v-7.03C5,2.718,5.218,2.5,5.484,2.5h7.03C12.782,2.5,13,2.718,13,2.984V10.015z"/>
			<path id="SmallSquare1" class="surface" transform="translate(0 1)" d="M9,12c0,0.275-0.225,0.5-0.5,0.5h-5C3.225,12.5,3,12.275,3,12V7
				c0-0.275,0.225-0.5,0.5-0.5v-1h-1C2.225,5.5,2,5.725,2,6v7c0,0.275,0.225,0.5,0.5,0.5h7c0.275,0,0.5-0.225,0.5-0.5v-1H9z"/>
		</g>
	</g>
</svg>
