<?xml version="1.0" encoding="utf-8"?>
<!--<?xml-stylesheet type="text/css" href="svg.css"?>-->
<!DOCTYPE svg PUBLIC "-//W3C//DTD SVG 1.1//EN" "http://www.w3.org/Graphics/SVG/1.1/DTD/svg11.dtd">
<svg version="1.1" xmlns="http://www.w3.org/2000/svg" xmlns:xlink="http://www.w3.org/1999/xlink" x="0px" y="0px" width="16px" height="16px" viewBox="0 0 16 16" xml:space="preserve">
	
	<title>Eye</title>
	<desc>Eye Icon</desc>
	
	<!--
		@author		Harald Szekely 
		@copyright	2011 WoltLab GmbH 
		@license	GNU Lesser General Public License <http://opensource.org/licenses/lgpl-license.php> 
	--> 
	
	<defs>
		<style type="text/css">
			<![CDATA[
				.Upper1 {fill: #666;}
				.Lower1 {fill: #fff;}
			]]>
		</style>
	</defs>
	
	<g id="IconEye">
		<g class="Lower1">
			<path id="Lids2" d="M8,4C4.409668,4,1,8.5,1,8.5S4.409668,13,8,13c3.5898438,0,7-4.5,7-4.5
				S11.5898438,4,8,4z M8,11.75c-2.1796875,0-4.3369141-1.8105469-5.5-3.25C3.6635742,7.0605469,5.8208008,5.25,8,5.25
				c2.1796875,0,4.3369141,1.8115234,5.5,3.2509766C12.3398438,9.9404297,10.1875,11.75,8,11.75z"/>
			<path id="Pupil2" d="M8,5.9995117c-1.3808594,0-2.5,1.1191406-2.5,2.5C5.5,9.8798828,6.6191406,11,8,11
				s2.5-1.1201172,2.5-2.5004883C10.5,7.1186523,9.3808594,5.9995117,8,5.9995117z M8,9.25c-0.4145508,0-0.75-0.3354492-0.75-0.75
				S7.5854492,7.75,8,7.75S8.75,8.0854492,8.75,8.5S8.4145508,9.25,8,9.25z"/>
		</g>
		<g class="Upper1">
			<path id="Lids1" d="M8,3C4.409668,3,1,7.5,1,7.5S4.409668,12,8,12c3.5898438,0,7-4.5,7-4.5S11.5898438,3,8,3
				z M8,10.75c-2.1796875,0-4.3369141-1.8105469-5.5-3.25C3.6635742,6.0605469,5.8208008,4.25,8,4.25
				c2.1796875,0,4.3369141,1.8115234,5.5,3.2509766C12.3398438,8.9404297,10.1875,10.75,8,10.75z"/>
			<path id="Pupil1" d="M8,4.9995117c-1.3808594,0-2.5,1.1191406-2.5,2.5C5.5,8.8798828,6.6191406,10,8,10
				s2.5-1.1201172,2.5-2.5004883C10.5,6.1186523,9.3808594,4.9995117,8,4.9995117z M8,8.25c-0.4145508,0-0.75-0.3354492-0.75-0.75
				S7.5854492,6.75,8,6.75S8.75,7.0854492,8.75,7.5S8.4145508,8.25,8,8.25z"/>
		</g>
	</g>
</svg>
