<?xml version="1.0" encoding="utf-8"?>
<!-- Generator: Adobe Illustrator 15.1.0, SVG Export Plug-In . SVG Version: 6.00 Build 0)  -->
<!DOCTYPE svg PUBLIC "-//W3C//DTD SVG 1.1//EN" "http://www.w3.org/Graphics/SVG/1.1/DTD/svg11.dtd">
<svg version="1.1" id="Ebene_1" xmlns="http://www.w3.org/2000/svg" xmlns:xlink="http://www.w3.org/1999/xlink" x="0px" y="0px" width="16px" height="16px" viewBox="0 0 16 16" enable-background="new 0 0 16 16" xml:space="preserve">
	<title>Eye</title>
	<desc>Eye Icon</desc>
	
	<!--
		@author		Alexander Ebert
		@copyright	2001-2012 WoltLab GmbH 
		@license	GNU Lesser General Public License <http://opensource.org/licenses/lgpl-license.php> 
	--> 
	
	<defs>
		<style type="text/css">
			<![CDATA[
				.surface { fill: #369; }
				.shadow { fill: #fff; }
			]]>
		</style>
	</defs>
	
	<g id="IconEye">
		<g>
			<path id="Lids2" class="shadow" opacity=".8" transform="translate(-0.5 0)" d="M8,4.5C4.41,4.5,1,9,1,9s3.41,4.5,7,4.5c3.59,0,7-4.5,7-4.5S11.59,4.5,8,4.5z M8,12.25
				c-2.18,0-4.337-1.811-5.5-3.25C3.664,7.561,5.821,5.75,8,5.75c2.18,0,4.337,1.812,5.5,3.251C12.34,10.44,10.188,12.25,8,12.25z"/>
			<path id="Pupil2" class="shadow" opacity=".8" transform="translate(-0.5 0)" d="M8,6.5C6.619,6.5,5.5,7.619,5.5,9c0,1.38,1.119,2.5,2.5,2.5s2.5-1.12,2.5-2.5
				C10.5,7.619,9.381,6.5,8,6.5z M8,9.75C7.585,9.75,7.25,9.414,7.25,9S7.585,8.25,8,8.25S8.75,8.586,8.75,9S8.415,9.75,8,9.75z"/>
		</g>
		<g>
			<path id="Lids1" class="surface" transform="translate(-0.5 0)" d="M8,3.5C4.41,3.5,1,8,1,8s3.41,4.5,7,4.5c3.59,0,7-4.5,7-4.5S11.59,3.5,8,3.5z M8,11.25
				c-2.18,0-4.337-1.811-5.5-3.25C3.664,6.561,5.821,4.75,8,4.75c2.18,0,4.337,1.812,5.5,3.251C12.34,9.44,10.188,11.25,8,11.25z"/>
			<path id="Pupil1" class="surface" transform="translate(-0.5 0)" d="M8,5.5C6.619,5.5,5.5,6.619,5.5,8c0,1.38,1.119,2.5,2.5,2.5s2.5-1.12,2.5-2.5
				C10.5,6.619,9.381,5.5,8,5.5z M8,8.75C7.585,8.75,7.25,8.415,7.25,8S7.585,7.25,8,7.25S8.75,7.585,8.75,8S8.415,8.75,8,8.75z"/>
		</g>
	</g>
</svg>
