<?xml version="1.0" encoding="utf-8"?>
<!-- Generator: Adobe Illustrator 15.1.0, SVG Export Plug-In . SVG Version: 6.00 Build 0)  -->
<!DOCTYPE svg PUBLIC "-//W3C//DTD SVG 1.1//EN" "http://www.w3.org/Graphics/SVG/1.1/DTD/svg11.dtd">
<svg version="1.1" id="Ebene_1" xmlns="http://www.w3.org/2000/svg" xmlns:xlink="http://www.w3.org/1999/xlink" x="0px" y="0px" width="16px" height="16px" viewBox="0 0 16 16" enable-background="new 0 0 16 16" xml:space="preserve">
	<title>Fire</title>
	<desc>Fire Icon</desc>
	
	<!--
		@author		Harald Szekely
		@copyright	2001-2012 WoltLab GmbH 
		@license	GNU Lesser General Public License <http://opensource.org/licenses/lgpl-license.php> 
	--> 
	
	<defs>
		<style type="text/css">
			<![CDATA[
				.surface { fill: #666; }
				.shadow { fill: #fff; }
			]]>
		</style>
	</defs>
	
	<g id="IconFire">
		<path class="shadow" d="M10.484,15.287c0.509-0.242,0.765-1.025,0.529-1.74c-0.328-1.014-1.326-0.902-1.193-2.523
			c-0.619,0.463-0.656,1.035-0.611,1.726c-1.69-0.58,0.895-2.078-0.76-3.864c0.093,1.516-0.297,2.639-1.686,3.333
			c0.088-0.479,0.046-1.122-0.248-1.487c-0.152,1.412-1.125,1.656-1.208,2.729c-0.052,0.69-0.052,1.224,0.655,2.04
			c-0.849-0.357-2.419-0.5-3.124-2.229C1.392,9.717,4.351,8.971,4.5,6.321C4.529,5.8,4.44,5.675,4.104,5.392
			c1.659,0.694,1.559,1.987,1.594,3.51c0.319-0.284,0.493-0.513,0.477-1.573C6.153,5.842,4.544,4.647,7.699,1.5
			c-0.571,3.27-0.937,4.147,2.742,6.39c-0.484-1.17-0.354-2.871,1.359-3.459c-0.43,0.748-0.529,1.614-0.447,2.094
			c0.437,2.528,2.205,1.285,2.205,5.043C13.561,13.836,12.146,15.109,10.484,15.287z"/>
		<path class="surface" d="M10.484,14.287c0.509-0.242,0.765-1.025,0.529-1.74c-0.328-1.014-1.326-0.902-1.193-2.523
			c-0.619,0.463-0.656,1.035-0.611,1.726c-1.69-0.58,0.895-2.078-0.76-3.864c0.093,1.515-0.297,2.638-1.686,3.333
			c0.088-0.479,0.046-1.122-0.248-1.487c-0.152,1.412-1.125,1.656-1.208,2.729c-0.052,0.69-0.052,1.224,0.655,2.04
			c-0.849-0.357-2.419-0.5-3.124-2.229C1.392,8.717,4.351,7.97,4.5,5.321C4.529,4.8,4.44,4.675,4.104,4.392
			c1.659,0.694,1.559,1.987,1.594,3.51c0.319-0.284,0.493-0.513,0.477-1.573C6.153,4.842,4.544,3.647,7.699,0.5
			c-0.571,3.27-0.937,4.147,2.742,6.39c-0.484-1.17-0.354-2.871,1.359-3.459c-0.43,0.748-0.529,1.614-0.447,2.094
			c0.437,2.527,2.205,1.285,2.205,5.043C13.561,12.836,12.146,14.109,10.484,14.287z"/>
	</g>
</svg>
