<?xml version="1.0" encoding="utf-8"?>
<!--<?xml-stylesheet type="text/css" href="svg.css"?>-->
<!DOCTYPE svg PUBLIC "-//W3C//DTD SVG 1.1//EN" "http://www.w3.org/Graphics/SVG/1.1/DTD/svg11.dtd">
<svg version="1.1" xmlns="http://www.w3.org/2000/svg" xmlns:xlink="http://www.w3.org/1999/xlink" x="0px" y="0px" width="16px" height="16px" viewBox="0 0 16 16" xml:space="preserve">
	
	<title>Fire</title>
	<desc>Fire Icon</desc>
	
	<!--
		@author		Harald Szekely 
		@copyright	2011 WoltLab GmbH 
		@license	GNU Lesser General Public License <http://opensource.org/licenses/lgpl-license.php> 
	--> 
	
	<defs>
		<style type="text/css">
			<![CDATA[
				.Upper1 {fill: #369;}
				.Lower1 {fill: #fff;}
			]]>
		</style>
	</defs>
	
	<g id="IconFire">
		<path class="Lower1" d="M9.0273438,14.7871094c0.5078125-0.2421875,0.7636719-1.0253906,0.5292969-1.7402344
			c-0.328125-1.0136719-1.3266602-0.9023438-1.1938477-2.5234375c-0.6201172,0.4628906-0.6572266,1.0351562-0.6123047,1.7246094
			c-1.6899414-0.5800781,0.8935547-2.078125-0.7592773-3.8637695c0.0927734,1.5161133-0.2973633,2.6391602-1.6855469,3.3325195
			c0.0883789-0.4785156,0.0458984-1.1230469-0.2480469-1.4882812c-0.1518555,1.4121094-1.1245117,1.65625-1.2075195,2.7304688
			C3.7973633,13.6503906,3.7973633,14.1835938,4.5039062,15c-0.8486328-0.3574219-2.4194336-0.5-3.1235352-2.2285156
			c-1.4467773-3.5546875,1.512207-4.3012695,1.6616211-6.9501953C3.0708008,5.2998047,2.9824219,5.175293,2.6459961,4.8916016
			C4.3046875,5.5859375,4.2045898,6.878418,4.2402344,8.4018555C4.559082,8.1181641,4.7333984,7.8886719,4.7172852,6.8291016
			C4.6948242,5.3422852,3.0864258,4.1474609,6.2412109,1C5.6704102,4.2695312,5.3041992,5.1469727,8.9848633,7.3901367
			C8.4985352,6.2197266,8.6313477,4.5195312,10.34375,3.9311523C9.9140625,4.6791992,9.8144531,5.5449219,9.8964844,6.0253906
			c0.4355469,2.5268555,2.2050781,1.284668,2.2050781,5.0429688C12.1015625,13.3359375,10.6894531,14.609375,9.0273438,14.7871094z"
			/>
		<path class="Upper1" d="M9.0273438,13.7871094c0.5078125-0.2421875,0.7636719-1.0253906,0.5292969-1.7402344
			c-0.328125-1.0136719-1.3266602-0.9023438-1.1938477-2.5234375c-0.6201172,0.4628906-0.6572266,1.0351562-0.6123047,1.7246094
			c-1.6899414-0.5800781,0.8935547-2.078125-0.7592773-3.8637695c0.0927734,1.5161133-0.2973633,2.6391602-1.6855469,3.3325195
			C5.394043,10.2382812,5.3515625,9.59375,5.0576172,9.2285156c-0.1518555,1.4121094-1.1245117,1.65625-1.2075195,2.7304688
			C3.7973633,12.6503906,3.7973633,13.1835938,4.5039062,14c-0.8486328-0.3574219-2.4194336-0.5-3.1235352-2.2285156
			c-1.4467773-3.5546875,1.512207-4.3012695,1.6616211-6.9501953C3.0708008,4.2998047,2.9824219,4.175293,2.6459961,3.8916016
			C4.3046875,4.5859375,4.2045898,5.878418,4.2402344,7.4018555C4.559082,7.1181641,4.7333984,6.8886719,4.7172852,5.8291016
			C4.6948242,4.3422852,3.0864258,3.1474609,6.2412109,0C5.6704102,3.2695312,5.3041992,4.1469727,8.9848633,6.3901367
			C8.4985352,5.2197266,8.6313477,3.5195312,10.34375,2.9311523C9.9140625,3.6791992,9.8144531,4.5449219,9.8964844,5.0253906
			c0.4355469,2.5268555,2.2050781,1.284668,2.2050781,5.0429688C12.1015625,12.3359375,10.6894531,13.609375,9.0273438,13.7871094z"
			/>
	</g>
</svg>
