<?xml version="1.0" encoding="utf-8"?>
<!--<?xml-stylesheet type="text/css" href="svg.css"?>-->
<!DOCTYPE svg PUBLIC "-//W3C//DTD SVG 1.1//EN" "http://www.w3.org/Graphics/SVG/1.1/DTD/svg11.dtd">
<svg version="1.1" xmlns="http://www.w3.org/2000/svg" xmlns:xlink="http://www.w3.org/1999/xlink" x="0px" y="0px" width="16px" height="16px" viewBox="0 0 16 16" xml:space="preserve">
	
	<title>Flag</title>
	<desc>Flag Icon</desc>
	
	<!--
		@author		Harald Szekely 
		@copyright	2011 WoltLab GmbH 
		@license	GNU Lesser General Public License <http://opensource.org/licenses/lgpl-license.php> 
	--> 
	
	<defs>
		<style type="text/css">
			<![CDATA[
				.Upper1 {fill: #666;}
				.Lower1 {fill: #fff;}
			]]>
		</style>
	</defs>
	
	<g id="IconFlag">
		<g class="Lower1">
			<path id="Flag2" d="M12,3.0004883c0,0.7001953,0,1.0498047,0,1.75
				C10.1220703,4.0302734,8.6445312,4.4799805,7.5,4.75S4.8779297,5.4702148,3,4.7504883c0-0.7001953,0-1.0498047,0-1.75
				c1.8779297,0.7197266,3.3554688,0.2705078,4.5,0S10.1220703,2.2807617,12,3.0004883z M7.5,5.1245117
				C6.3554688,5.3945312,4.8779297,5.84375,3,5.1240234C3,5.8242188,3,6.175293,3,6.8754883
				c1.8779297,0.7197266,3.3554688,0.2705078,4.5,0s2.6220703-0.7202148,4.5,0c0-0.7001953,0-1.0512695,0-1.7514648
				C10.1220703,4.4042969,8.6445312,4.8544922,7.5,5.1245117z M7.5,7.2509766C6.3554688,7.5209961,4.8779297,7.9707031,3,7.2504883
				C3,7.9506836,3,8.300293,3,9c1.8779297,0.7207031,3.3554688,0.2714844,4.5,0c1.1445312-0.2700195,2.6220703-0.7192383,4.5,0
				c0-0.699707,0-1.0493164,0-1.7495117C10.1220703,6.5307617,8.6445312,6.980957,7.5,7.2509766z"/>
			<path id="Mast2" d="M2.5,2.0004883c-0.2749023,0-0.5,0.3183594-0.5,0.7070312v11.5854492
				C2,14.6816406,2.2250977,15,2.5,15S3,14.6816406,3,14.2929688V2.7075195C3,2.3188477,2.7749023,2.0004883,2.5,2.0004883z"/>
		</g>
		<g class="Upper1">
			<path id="Flag1" d="M12,2c0,0.7001953,0,1.0498047,0,1.75
				c-1.8779297-0.7202148-3.3554688-0.2705078-4.5-0.0004883S4.8779297,4.4697266,3,3.75C3,3.0498047,3,2.7001953,3,2
				c1.8779297,0.7197266,3.3554688,0.2705078,4.5,0S10.1220703,1.2802734,12,2z M7.5,4.1240234
				C6.3554688,4.394043,4.8779297,4.8432617,3,4.1235352C3,4.8237305,3,5.1748047,3,5.875
				c1.8779297,0.7197266,3.3554688,0.2705078,4.5,0s2.6220703-0.7202148,4.5,0c0-0.7001953,0-1.0512695,0-1.7514648
				C10.1220703,3.4038086,8.6445312,3.8540039,7.5,4.1240234z M7.5,6.2504883C6.3554688,6.5205078,4.8779297,6.9702148,3,6.25
				C3,6.9501953,3,7.2998047,3,8c1.8779297,0.7197266,3.3554688,0.2705078,4.5,0s2.6220703-0.7197266,4.5,0
				c0-0.7001953,0-1.0498047,0-1.75C10.1220703,5.5302734,8.6445312,5.9804688,7.5,6.2504883z"/>
			<path id="Mast1" d="M2.5,1C2.2250977,1,2,1.3183594,2,1.7070312v11.5859375
				C2,13.6816406,2.2250977,14,2.5,14S3,13.6816406,3,13.2929688V1.7070312C3,1.3183594,2.7749023,1,2.5,1z"/>
		</g>
	</g>
</svg>
