<?xml version="1.0" encoding="utf-8"?>
<!-- Generator: Adobe Illustrator 15.1.0, SVG Export Plug-In . SVG Version: 6.00 Build 0)  -->
<!DOCTYPE svg PUBLIC "-//W3C//DTD SVG 1.1//EN" "http://www.w3.org/Graphics/SVG/1.1/DTD/svg11.dtd">
<svg version="1.1" id="Ebene_1" xmlns="http://www.w3.org/2000/svg" xmlns:xlink="http://www.w3.org/1999/xlink" x="0px" y="0px" width="16px" height="16px" viewBox="0 0 16 16" enable-background="new 0 0 16 16" xml:space="preserve">
	<title>Flag</title>
	<desc>Flag Icon</desc>
	
	<!--
		@author		Alexander Ebert
		@copyright	2001-2012 WoltLab GmbH 
		@license	GNU Lesser General Public License <http://opensource.org/licenses/lgpl-license.php> 
	--> 
	
	<defs>
		<style type="text/css">
			<![CDATA[
				.surface { fill: #369; }
				.shadow { fill: #fff; }
			]]>
		</style>
	</defs>
	
	<g id="IconFlag">
		<g>
			<path id="Flag2" class="shadow" opacity=".8" d="M13,3c0,0.7,0,1.05,0,1.75c-1.878-0.72-3.355-0.271-4.5,0s-2.622,0.72-4.5,0
				C4,4.05,4,3.701,4,3c1.878,0.72,3.355,0.271,4.5,0S11.122,2.281,13,3z M8.5,5.125c-1.145,0.27-2.622,0.719-4.5,0
				c0,0.7,0,1.051,0,1.751c1.878,0.72,3.355,0.271,4.5,0s2.622-0.72,4.5,0c0-0.7,0-1.051,0-1.751C11.122,4.404,9.645,4.854,8.5,5.125
				z M8.5,7.251c-1.145,0.27-2.622,0.72-4.5,0C4,7.951,4,8.3,4,9c1.878,0.721,3.355,0.271,4.5,0c1.145-0.27,2.622-0.719,4.5,0
				c0-0.7,0-1.049,0-1.75C11.122,6.531,9.645,6.981,8.5,7.251z"/>
			<path id="Mast2" class="shadow" opacity=".8" d="M3.5,2C3.225,2,3,2.319,3,2.708v11.585C3,14.682,3.225,15,3.5,15S4,14.682,4,14.293V2.708
				C4,2.319,3.775,2,3.5,2z"/>
		</g>
		<g>
			<path id="Flag1" class="surface" d="M13,2c0,0.7,0,1.05,0,1.75c-1.878-0.72-3.355-0.271-4.5,0s-2.622,0.72-4.5,0C4,3.05,4,2.7,4,2
				c1.878,0.72,3.355,0.271,4.5,0S11.122,1.28,13,2z M8.5,4.124c-1.145,0.27-2.622,0.719-4.5,0c0,0.7,0,1.051,0,1.751
				c1.878,0.72,3.355,0.271,4.5,0s2.622-0.72,4.5,0c0-0.7,0-1.051,0-1.751C11.122,3.404,9.645,3.854,8.5,4.124z M8.5,6.25
				c-1.145,0.27-2.622,0.72-4.5,0C4,6.95,4,7.3,4,8c1.878,0.72,3.355,0.271,4.5,0s2.622-0.72,4.5,0c0-0.7,0-1.05,0-1.75
				C11.122,5.53,9.645,5.98,8.5,6.25z"/>
			<path id="Mast1" class="surface" d="M3.5,1C3.225,1,3,1.318,3,1.707v11.586C3,13.682,3.225,14,3.5,14S4,13.682,4,13.293V1.707
				C4,1.318,3.775,1,3.5,1z"/>
		</g>
	</g>
</svg>
