<?xml version="1.0" encoding="utf-8"?>
<!-- Generator: Adobe Illustrator 15.1.0, SVG Export Plug-In . SVG Version: 6.00 Build 0)  -->
<!DOCTYPE svg PUBLIC "-//W3C//DTD SVG 1.1//EN" "http://www.w3.org/Graphics/SVG/1.1/DTD/svg11.dtd">
<svg version="1.1" id="Ebene_1" xmlns="http://www.w3.org/2000/svg" xmlns:xlink="http://www.w3.org/1999/xlink" x="0px" y="0px" width="16px" height="16px" viewBox="0 0 16 16" enable-background="new 0 0 16 16" xml:space="preserve">
	<title>Flower</title>
	<desc>Flower Icon</desc>
	
	<!--
		@author		Harald Szekely
		@copyright	2001-2012 WoltLab GmbH 
		@license	GNU Lesser General Public License <http://opensource.org/licenses/lgpl-license.php> 
	--> 
	
	<defs>
		<style type="text/css">
			<![CDATA[
				.surface { fill: #369; }
				.shadow { fill: #fff; }
			]]>
		</style>
	</defs>
	
	<g id="IconFlower">
		<path class="shadow" d="M14.5,8.5c0-0.412-1.267-0.769-3.062-0.921c1.478-1.029,2.397-1.971,2.19-2.329s-1.481-0.033-3.111,0.732
			c0.766-1.63,1.09-2.905,0.732-3.112s-1.3,0.713-2.328,2.191C8.77,3.268,8.413,2,8,2S7.231,3.268,7.079,5.062
			C6.05,3.584,5.107,2.665,4.75,2.871S4.717,4.353,5.483,5.983c-1.63-0.766-2.906-1.09-3.112-0.733s0.713,1.3,2.191,2.329
			C2.767,7.731,1.5,8.088,1.5,8.5c0,0.413,1.267,0.77,3.062,0.922c-1.478,1.029-2.397,1.971-2.191,2.328s1.482,0.033,3.112-0.732
			c-0.765,1.631-1.09,2.904-0.732,3.111s1.3-0.713,2.329-2.189C7.231,13.734,7.587,15,8,15s0.77-1.266,0.922-3.061
			c1.028,1.477,1.971,2.396,2.328,2.189s0.033-1.48-0.732-3.111c1.63,0.766,2.904,1.09,3.111,0.732s-0.713-1.299-2.19-2.328
			C13.233,9.27,14.5,8.913,14.5,8.5z"/>
		<path class="surface" d="M14.5,7.5c0-0.413-1.267-0.769-3.062-0.921c1.478-1.029,2.397-1.971,2.19-2.329s-1.481-0.033-3.111,0.732
			c0.766-1.63,1.09-2.905,0.732-3.112s-1.3,0.713-2.328,2.191C8.77,2.267,8.413,1,8,1S7.231,2.267,7.079,4.062
			C6.05,2.583,5.107,1.664,4.75,1.871S4.717,3.353,5.483,4.983c-1.63-0.766-2.906-1.09-3.112-0.733s0.713,1.3,2.191,2.329
			C2.767,6.731,1.5,7.087,1.5,7.5s1.267,0.769,3.062,0.921C3.083,9.45,2.164,10.393,2.371,10.75s1.482,0.032,3.112-0.732
			c-0.765,1.63-1.09,2.904-0.732,3.111s1.3-0.713,2.329-2.19C7.231,12.733,7.587,14,8,14s0.77-1.267,0.922-3.062
			c1.028,1.478,1.971,2.397,2.328,2.19s0.033-1.481-0.732-3.111c1.63,0.766,2.904,1.09,3.111,0.732s-0.713-1.3-2.19-2.329
			C13.233,8.269,14.5,7.913,14.5,7.5z"/>
	</g>
</svg>
