<?xml version="1.0" encoding="utf-8"?>
<!--<?xml-stylesheet type="text/css" href="svg.css"?>-->
<!DOCTYPE svg PUBLIC "-//W3C//DTD SVG 1.1//EN" "http://www.w3.org/Graphics/SVG/1.1/DTD/svg11.dtd">
<svg version="1.1" xmlns="http://www.w3.org/2000/svg" xmlns:xlink="http://www.w3.org/1999/xlink" x="0px" y="0px" width="16px" height="16px" viewBox="0 0 16 16" xml:space="preserve">
	
	<title>Flower</title>
	<desc>Flower Icon</desc>
	
	<!--
		@author		Harald Szekely 
		@copyright	2011 WoltLab GmbH 
		@license	GNU Lesser General Public License <http://opensource.org/licenses/lgpl-license.php> 
	--> 
	
	<defs>
		<style type="text/css">
			<![CDATA[
				.Upper1 {fill: #369;}
				.Lower1 {fill: #fff;}
			]]>
		</style>
	</defs>
	
	<g id="IconFlower">
		<path class="Lower1" d="M14,8.5004883c0-0.4125977-1.2666016-0.769043-3.0615234-0.9213867
			c1.4775391-1.0288086,2.3974609-1.9711914,2.1904297-2.3286133s-1.4814453-0.0327148-3.1113281,0.7324219
			C10.7832031,4.3530273,11.1074219,3.0776367,10.75,2.8710938s-1.2998047,0.7128906-2.3286133,2.190918
			C8.269043,3.2675781,7.9125977,2.0004883,7.5,2.0004883S6.730957,3.2675781,6.5786133,5.0620117
			C5.5498047,3.5839844,4.6074219,2.6645508,4.25,2.8710938S4.2172852,4.3530273,4.9829102,5.9833984
			c-1.6303711-0.765625-2.9057617-1.090332-3.1123047-0.7329102s0.7128906,1.2998047,2.190918,2.3286133
			C2.2670898,7.7314453,1,8.0878906,1,8.5004883s1.2670898,0.769043,3.0615234,0.9213867
			C2.5834961,10.4511719,1.6640625,11.3925781,1.8706055,11.75s1.4819336,0.0332031,3.1118164-0.7324219
			C4.2172852,12.6484375,3.8925781,13.921875,4.25,14.1289062s1.2998047-0.7128906,2.3286133-2.1894531
			C6.730957,13.734375,7.0874023,15,7.5,15s0.769043-1.265625,0.9213867-3.0605469
			c1.0288086,1.4765625,1.9711914,2.3964844,2.3286133,2.1894531s0.0332031-1.4804688-0.7324219-3.1113281
			c1.6298828,0.765625,2.9042969,1.0898438,3.1113281,0.7324219s-0.7128906-1.2988281-2.1904297-2.328125
			C12.7333984,9.2695312,14,8.9130859,14,8.5004883z"/>
		<path class="Upper1" d="M14,7.5c0-0.4125977-1.2666016-0.769043-3.0615234-0.9213867
			C12.4160156,5.5498047,13.3359375,4.6074219,13.1289062,4.25s-1.4814453-0.0327148-3.1113281,0.7324219
			C10.7832031,3.3525391,11.1074219,2.0771484,10.75,1.8706055s-1.2998047,0.7128906-2.3286133,2.190918
			C8.269043,2.2670898,7.9125977,1,7.5,1S6.730957,2.2670898,6.5786133,4.0615234
			C5.5498047,2.5834961,4.6074219,1.6640625,4.25,1.8706055S4.2172852,3.3525391,4.9829102,4.9829102
			C3.3525391,4.2172852,2.0771484,3.8925781,1.8706055,4.25s0.7128906,1.2998047,2.190918,2.3286133
			C2.2670898,6.730957,1,7.0874023,1,7.5s1.2670898,0.769043,3.0615234,0.9213867
			C2.5834961,9.4501953,1.6640625,10.3925781,1.8706055,10.75s1.4819336,0.0322266,3.1118164-0.7324219
			C4.2172852,11.6474609,3.8925781,12.921875,4.25,13.1289062s1.2998047-0.7128906,2.3286133-2.1904297
			C6.730957,12.7333984,7.0874023,14,7.5,14s0.769043-1.2666016,0.9213867-3.0615234
			c1.0288086,1.4775391,1.9711914,2.3974609,2.3286133,2.1904297s0.0332031-1.4814453-0.7324219-3.1113281
			c1.6298828,0.765625,2.9042969,1.0898438,3.1113281,0.7324219s-0.7128906-1.2998047-2.1904297-2.3286133
			C12.7333984,8.269043,14,7.9125977,14,7.5z"/>
	</g>
</svg>
