<?xml version="1.0" encoding="utf-8"?>
<!-- Generator: Adobe Illustrator 15.1.0, SVG Export Plug-In . SVG Version: 6.00 Build 0)  -->
<!DOCTYPE svg PUBLIC "-//W3C//DTD SVG 1.1//EN" "http://www.w3.org/Graphics/SVG/1.1/DTD/svg11.dtd">
<svg version="1.1" id="Ebene_1" xmlns="http://www.w3.org/2000/svg" xmlns:xlink="http://www.w3.org/1999/xlink" x="0px" y="0px" width="16px" height="16px" viewBox="0 0 16 16" enable-background="new 0 0 16 16" xml:space="preserve">
	<title>Folder New</title>
	<desc>Folder New Icon</desc>
	
	<!--
		@author		Harald Szekely
		@copyright	2001-2012 WoltLab GmbH 
		@license	GNU Lesser General Public License <http://opensource.org/licenses/lgpl-license.php> 
	--> 
	
	<defs>
		<style type="text/css">
			<![CDATA[
				.surface { fill: #369; }
				.shadow { fill: #fff; }
			]]>
		</style>
	</defs>
	
	<g id="IconFolderNew">
		<g id="New">
			<path class="shadow" opacity=".8" d="M13.5,3h-3C9.953,3,9.713,3.152,9.521,3.328L8,5H2.5c-0.673,0-1,0.313-1,1v7c0,0.563,0.468,1,1,1h11.027
				c0.535,0,0.973-0.406,0.973-1V4C14.5,3.422,14.094,3,13.5,3z M9.533,9.776l1.123,0.618c0.276,0.152,0.386,0.468,0.245,0.702
				s-0.485,0.304-0.761,0.15l-1.123-0.62c-0.275-0.153-0.502-0.019-0.502,0.298v1.2C8.516,12.441,8.283,12.7,8,12.7
				c-0.284,0-0.516-0.259-0.516-0.575v-1.2c0-0.316-0.227-0.451-0.502-0.298l-1.123,0.62c-0.276,0.153-0.619,0.084-0.76-0.15
				c-0.142-0.234-0.031-0.55,0.246-0.702l1.122-0.618c0.276-0.152,0.276-0.402,0-0.555L5.344,8.604
				C5.068,8.451,4.957,8.134,5.099,7.898C5.24,7.664,5.583,7.598,5.859,7.75l1.123,0.619c0.276,0.152,0.502,0.02,0.502-0.297V6.874
				C7.484,6.558,7.716,6.3,8,6.3c0.283,0,0.516,0.258,0.516,0.574v1.198c0,0.316,0.227,0.449,0.502,0.297l1.123-0.619
				c0.275-0.151,0.62-0.086,0.761,0.148c0.141,0.235,0.031,0.553-0.245,0.706L9.533,9.222C9.258,9.374,9.258,9.624,9.533,9.776z"/>
			<path class="surface" d="M13.5,2h-3C9.953,2,9.713,2.152,9.521,2.328L8,4H2.5c-0.673,0-1,0.313-1,1v7c0,0.563,0.468,1,1,1h11.027
				c0.535,0,0.973-0.406,0.973-1V3C14.5,2.422,14.094,2,13.5,2z M9.533,8.776l1.123,0.618c0.276,0.152,0.386,0.468,0.245,0.702
				s-0.485,0.304-0.761,0.15l-1.123-0.62C8.742,9.474,8.516,9.608,8.516,9.925v1.2C8.516,11.441,8.283,11.7,8,11.7
				c-0.284,0-0.516-0.259-0.516-0.575v-1.2c0-0.316-0.227-0.451-0.502-0.298l-1.123,0.62c-0.276,0.153-0.619,0.084-0.76-0.15
				c-0.142-0.234-0.031-0.55,0.246-0.702l1.122-0.618c0.276-0.152,0.276-0.402,0-0.555L5.344,7.604
				C5.068,7.451,4.957,7.134,5.099,6.899C5.24,6.665,5.583,6.598,5.859,6.75l1.123,0.619c0.276,0.152,0.502,0.019,0.502-0.297V5.874
				C7.484,5.558,7.716,5.3,8,5.3c0.283,0,0.516,0.258,0.516,0.574v1.198c0,0.316,0.227,0.449,0.502,0.297l1.123-0.619
				c0.275-0.151,0.62-0.085,0.761,0.149c0.141,0.235,0.031,0.552-0.245,0.706L9.533,8.222C9.258,8.374,9.258,8.624,9.533,8.776z"/>
		</g>
	</g>
</svg>
