<?xml version="1.0" encoding="utf-8"?>
<!--<?xml-stylesheet type="text/css" href="svg.css"?>-->
<!DOCTYPE svg PUBLIC "-//W3C//DTD SVG 1.1//EN" "http://www.w3.org/Graphics/SVG/1.1/DTD/svg11.dtd">
<svg version="1.1" xmlns="http://www.w3.org/2000/svg" xmlns:xlink="http://www.w3.org/1999/xlink" x="0px" y="0px" width="16px" height="16px" viewBox="0 0 16 16" xml:space="preserve">
	
	<title>Folder</title> 
	<desc>Folder Icon</desc> 
	
	<!--
		@author		Harald Szekely 
		@copyright	2011 WoltLab GmbH 
		@license	GNU Lesser General Public License <http://opensource.org/licenses/lgpl-license.php> 
	--> 
	
	<defs>
		<style type="text/css">
			<![CDATA[
				.Upper1 {fill: #666;}
				.Lower1 {fill: #fff;}
			]]>
		</style>
	</defs>
	
	<g id="IconFolder">
		<path class="Lower1" d="M7.6855469,7H2.6450195C2.125,7,2,7.09375,2,7.6005859v5.7080078
			C2,13.9111328,2.09375,14,2.6328125,14h9.6679688C12.890625,14,13,13.859375,13,13.2265625V5.6313477
			C13,5.15625,12.890625,5,12.3525391,5h-2.0478516C9.921875,5,9.7929688,5.1108398,9.5810547,5.3125L8.3125,6.703125
			C8.140625,6.90625,7.953125,7,7.6855469,7z M2,6.0004883h5.5L9.0205078,4.328125C9.2128906,4.1518555,9.453125,4,10,4h3
			c0.59375,0,1,0.421875,1,1v9c0,0.59375-0.4375,1-0.9726562,1H2c-0.53125,0-0.9995117-0.4375-0.9995117-1V7
			C1.0004883,6.3129883,1.3266602,6.0004883,2,6.0004883z"/>
		<path class="Upper1" d="M7.6855469,6H2.6450195C2.125,6,2,6.09375,2,6.6005859v5.7080078
			C2,12.9111328,2.09375,13,2.6328125,13h9.6679688C12.890625,13,13,12.859375,13,12.2265625V4.6313477
			C13,4.15625,12.890625,4,12.3525391,4h-2.0478516C9.921875,4,9.7929688,4.1108398,9.5810547,4.3125L8.3125,5.703125
			C8.140625,5.90625,7.953125,6,7.6855469,6z M2,5.0004883h5.5L9.0205078,3.328125C9.2128906,3.1518555,9.453125,3,10,3h3
			c0.59375,0,1,0.421875,1,1v9c0,0.59375-0.4375,1-0.9726562,1H2c-0.53125,0-0.9995117-0.4375-0.9995117-1V6
			C1.0004883,5.3129883,1.3266602,5.0004883,2,5.0004883z"/>
	</g>
</svg>