<?xml version="1.0" encoding="utf-8"?>
<!--<?xml-stylesheet type="text/css" href="svg.css"?>-->
<!DOCTYPE svg PUBLIC "-//W3C//DTD SVG 1.1//EN" "http://www.w3.org/Graphics/SVG/1.1/DTD/svg11.dtd">
<svg version="1.1" xmlns="http://www.w3.org/2000/svg" xmlns:xlink="http://www.w3.org/1999/xlink" x="0px" y="0px" width="16px" height="16px" viewBox="0 0 16 16" xml:space="preserve">
	
	<title>Folder New</title> 
	<desc>Folder New Icon</desc> 
	
	<!--
		@author		Harald Szekely 
		@copyright	2011 WoltLab GmbH 
		@license	GNU Lesser General Public License <http://opensource.org/licenses/lgpl-license.php> 
	--> 
	
	<defs>
		<style type="text/css">
			<![CDATA[
				.Upper1 {fill: #666;}
				.Lower1 {fill: #fff;}
			]]>
		</style>
	</defs>
	
	<g id="IconFolderNew">
		<g id="New">
			<path class="Lower1" d="M13,4h-3C9.453125,4,9.2128906,4.1518555,9.0205078,4.328125L7.5,6.0004883H2
				c-0.6733398,0-0.9995117,0.3125-0.9995117,0.9995117v7c0,0.5625,0.4682617,1,0.9995117,1h11.0273438C13.5625,15,14,14.59375,14,14
				V5C14,4.421875,13.59375,4,13,4z M9.0332031,10.7763672l1.1230469,0.6181641
				c0.2763672,0.1523438,0.3857422,0.4677734,0.2451172,0.7021484s-0.4853516,0.3037109-0.7607422,0.1503906l-1.1230469-0.6201172
				c-0.2758789-0.1533203-0.5024414-0.0185547-0.5024414,0.2978516V13.125c0,0.3164062-0.2319336,0.5751953-0.5151367,0.5751953
				c-0.2836914,0-0.515625-0.2587891-0.515625-0.5751953v-1.2001953c0-0.3164062-0.2265625-0.4511719-0.5024414-0.2978516
				l-1.1230469,0.6201172c-0.2763672,0.1533203-0.6191406,0.0839844-0.7602539-0.1503906
				c-0.1416016-0.234375-0.0307617-0.5498047,0.2456055-0.7021484l1.121582-0.6181641
				c0.2758789-0.1523438,0.2758789-0.4023438,0-0.5546875l-1.121582-0.6171875
				c-0.2763672-0.1533203-0.387207-0.4707031-0.2456055-0.7055664C4.7397461,8.6645508,5.0825195,8.5981445,5.3588867,8.75
				l1.1230469,0.6191406C6.7578125,9.5214844,6.984375,9.3886719,6.984375,9.0722656V7.8740234
				c0-0.315918,0.2319336-0.5742188,0.515625-0.5742188c0.2832031,0,0.5151367,0.2583008,0.5151367,0.5742188v1.1982422
				c0,0.3164062,0.2265625,0.4492188,0.5024414,0.296875L9.640625,8.75c0.2753906-0.1513672,0.6201172-0.0854492,0.7607422,0.1489258
				c0.140625,0.2348633,0.03125,0.5522461-0.2451172,0.7055664l-1.1230469,0.6171875
				C8.7578125,10.3740234,8.7578125,10.6240234,9.0332031,10.7763672z"/>
			<path class="Upper1" d="M13,3h-3C9.453125,3,9.2128906,3.1518555,9.0205078,3.328125L7.5,5.0004883H2
				c-0.6733398,0-0.9995117,0.3125-0.9995117,0.9995117v7c0,0.5625,0.4682617,1,0.9995117,1h11.0273438C13.5625,14,14,13.59375,14,13
				V4C14,3.421875,13.59375,3,13,3z M9.0332031,9.7763672l1.1230469,0.6181641
				c0.2763672,0.1523438,0.3857422,0.4677734,0.2451172,0.7021484s-0.4853516,0.3037109-0.7607422,0.1503906l-1.1230469-0.6201172
				c-0.2758789-0.1533203-0.5024414-0.0185547-0.5024414,0.2978516V12.125c0,0.3164062-0.2319336,0.5751953-0.5151367,0.5751953
				c-0.2836914,0-0.515625-0.2587891-0.515625-0.5751953v-1.2001953c0-0.3164062-0.2265625-0.4511719-0.5024414-0.2978516
				l-1.1230469,0.6201172c-0.2763672,0.1533203-0.6191406,0.0839844-0.7602539-0.1503906
				c-0.1416016-0.234375-0.0307617-0.5498047,0.2456055-0.7021484l1.121582-0.6181641
				c0.2758789-0.1523438,0.2758789-0.4023438,0-0.5546875l-1.121582-0.6171875
				c-0.2763672-0.1533203-0.387207-0.4707031-0.2456055-0.7055664C4.7397461,7.6645508,5.0825195,7.5981445,5.3588867,7.75
				l1.1230469,0.6191406c0.2758789,0.152832,0.5024414,0.019043,0.5024414-0.296875V6.8740234
				c0-0.315918,0.2319336-0.5742188,0.515625-0.5742188c0.2832031,0,0.5151367,0.2583008,0.5151367,0.5742188v1.1982422
				c0,0.315918,0.2265625,0.449707,0.5024414,0.296875L9.640625,7.75c0.2753906-0.1513672,0.6201172-0.0854492,0.7607422,0.1489258
				c0.140625,0.2348633,0.03125,0.5522461-0.2451172,0.7055664L9.0332031,9.2216797
				C8.7578125,9.3740234,8.7578125,9.6240234,9.0332031,9.7763672z"/>
		</g>
	</g>
</svg>
