<?xml version="1.0" encoding="utf-8"?>
<!-- Generator: Adobe Illustrator 15.1.0, SVG Export Plug-In . SVG Version: 6.00 Build 0)  -->
<!DOCTYPE svg PUBLIC "-//W3C//DTD SVG 1.1//EN" "http://www.w3.org/Graphics/SVG/1.1/DTD/svg11.dtd">
<svg version="1.1" id="Ebene_1" xmlns="http://www.w3.org/2000/svg" xmlns:xlink="http://www.w3.org/1999/xlink" x="0px" y="0px" width="16px" height="16px" viewBox="0 0 16 16" enable-background="new 0 0 16 16" xml:space="preserve">
	<title>Folder</title>
	<desc>Folder Icon</desc>
	
	<!--
		@author		Harald Szekely
		@copyright	2001-2012 WoltLab GmbH 
		@license	GNU Lesser General Public License <http://opensource.org/licenses/lgpl-license.php> 
	--> 
	
	<defs>
		<style type="text/css">
			<![CDATA[
				.surface { fill: #666; }
				.shadow { fill: #fff; }
			]]>
		</style>
	</defs>
	
	<g id="IconFolder">
		<path class="shadow" opacity=".8" d="M8.186,6H3.145C2.625,6,2.5,6.094,2.5,6.601v5.708C2.5,12.911,2.594,13,3.133,13h9.668
			c0.59,0,0.699-0.141,0.699-0.773V4.631C13.5,4.156,13.391,4,12.854,4h-2.049c-0.383,0-0.512,0.111-0.723,0.313l-1.27,1.391
			C8.641,5.906,8.453,6,8.186,6z M2.5,5H8l1.521-1.672C9.713,3.152,9.953,3,10.5,3h3c0.594,0,1,0.422,1,1v9c0,0.594-0.438,1-0.973,1
			H2.5c-0.531,0-1-0.438-1-1V6C1.5,5.313,1.827,5,2.5,5z"/>
		<path class="surface" d="M8.186,5H3.145C2.625,5,2.5,5.094,2.5,5.601v5.708C2.5,11.911,2.594,12,3.133,12h9.668
			c0.59,0,0.699-0.141,0.699-0.773V3.631C13.5,3.156,13.391,3,12.854,3h-2.049c-0.383,0-0.512,0.111-0.723,0.313l-1.27,1.391
			C8.641,4.906,8.453,5,8.186,5z M2.5,4H8l1.521-1.672C9.713,2.152,9.953,2,10.5,2h3c0.594,0,1,0.422,1,1v9c0,0.594-0.438,1-0.973,1
			H2.5c-0.531,0-1-0.438-1-1V5C1.5,4.313,1.827,4,2.5,4z"/>
	</g>
</svg>
