<?xml version="1.0" encoding="utf-8"?>
<!--<?xml-stylesheet type="text/css" href="svg.css"?>-->
<!DOCTYPE svg PUBLIC "-//W3C//DTD SVG 1.1//EN" "http://www.w3.org/Graphics/SVG/1.1/DTD/svg11.dtd">
<svg version="1.1" xmlns="http://www.w3.org/2000/svg" xmlns:xlink="http://www.w3.org/1999/xlink" x="0px" y="0px" width="16px" height="16px" viewBox="0 0 16 16" xml:space="preserve">
	
	<title>Forbidden</title>
	<desc>Forbidden Icon</desc>
	
	<!--
		@author		Harald Szekely 
		@copyright	2011 WoltLab GmbH 
		@license	GNU Lesser General Public License <http://opensource.org/licenses/lgpl-license.php> 
	--> 
	
	<defs>
		<style type="text/css">
			<![CDATA[
				.Upper1 {fill: #369;}
				.Lower1 {fill: #fff;}
			]]>
		</style>
	</defs>
	
	<g id="IconForbidden">
		<path class="Lower1" style="fill-rule: evenodd; clip-rule: evenodd;" d="M7.5,1.9995117c-3.590332,0-6.5,2.909668-6.5,6.5
			C1,12.0878906,3.909668,15,7.5,15c3.5898438,0,6.5-2.9121094,6.5-6.5004883C14,4.9091797,11.0898438,1.9995117,7.5,1.9995117z
			 M2,10V6.9995117h11V10H2z"/>
		<path class="Upper1" style="fill-rule: evenodd; clip-rule: evenodd;" d="M7.5,1C3.909668,1,1,3.909668,1,7.5
			C1,11.0888672,3.909668,14,7.5,14c3.5898438,0,6.5-2.9111328,6.5-6.5C14,3.909668,11.0898438,1,7.5,1z M2,9V6h11v3H2z"/>
	</g>
</svg>
