<?xml version="1.0" encoding="utf-8"?>
<!--<?xml-stylesheet type="text/css" href="svg.css"?>-->
<!DOCTYPE svg PUBLIC "-//W3C//DTD SVG 1.1//EN" "http://www.w3.org/Graphics/SVG/1.1/DTD/svg11.dtd">
<svg version="1.1" xmlns="http://www.w3.org/2000/svg" xmlns:xlink="http://www.w3.org/1999/xlink" x="0px" y="0px" width="16px" height="16px" viewBox="0 0 16 16" xml:space="preserve">
	
	<title>Gender Female</title>
	<desc>Gender Female</desc>
	
	<!--
		@author		Harald Szekely 
		@copyright	2011 WoltLab GmbH 
		@license	GNU Lesser General Public License <http://opensource.org/licenses/lgpl-license.php> 
	--> 
	
	<defs>
		<style type="text/css">
			<![CDATA[
				.Upper1 {fill: #369;}
				.Lower1 {fill: #fff;}
			]]>
		</style>
	</defs>
	
	<g id="IconGenderFemale">
		<g class="Lower1">
			<path id="Cross2" d="M9,13v-2c0-0.5527344-0.4472656-1-1-1s-1,0.4472656-1,1v2H5v1
				c0,0.5527344,0.4482422,1,1,1h1c0,0.5527344,0.4472656,1,1,1s1-0.4472656,1-1h1c0.5527344,0,1-0.4472656,1-1v-1H9z"/>
			<path id="Circle2" d="M8,1.9995117c-2.7612305,0-5,2.2387695-5,5C3,9.7597656,5.2387695,12,8,12
				c2.7617188,0,5-2.2402344,5-5.0004883C13,4.2382812,10.7617188,1.9995117,8,1.9995117z M8,10
				c-1.6572266,0-3-1.3432617-3-3.0004883c0-1.6567383,1.3427734-3,3-3s3,1.3432617,3,3C11,8.6567383,9.6572266,10,8,10z"/>
		</g>
		<g class="Upper1">
			<path id="Cross1" d="M10,12H9v-2c0-0.5527344-0.4472656-1-1-1s-1,0.4472656-1,1v2H6
				c-0.5527344,0-1,0.4472656-1,1s0.4482422,1,1,1h1c0,0.5527344,0.4472656,1,1,1s1-0.4472656,1-1h1c0.5527344,0,1-0.4472656,1-1
				S10.5527344,12,10,12z"/>
			<path id="Circle1" d="M8,0.9995117c-2.7612305,0-5,2.2387695-5,5C3,8.7602539,5.2387695,11,8,11
				c2.7617188,0,5-2.2397461,5-5.0004883C13,3.2382812,10.7617188,0.9995117,8,0.9995117z M8,8.9995117c-1.6572266,0-3-1.3427734-3-3
				c0-1.6567383,1.3427734-3,3-3s3,1.3432617,3,3C11,7.6567383,9.6572266,8.9995117,8,8.9995117z"/>
		</g>
	</g>
</svg>
