<?xml version="1.0" encoding="utf-8"?>
<!-- Generator: Adobe Illustrator 15.1.0, SVG Export Plug-In . SVG Version: 6.00 Build 0)  -->
<!DOCTYPE svg PUBLIC "-//W3C//DTD SVG 1.1//EN" "http://www.w3.org/Graphics/SVG/1.1/DTD/svg11.dtd">
<svg version="1.1" id="Ebene_1" xmlns="http://www.w3.org/2000/svg" xmlns:xlink="http://www.w3.org/1999/xlink" x="0px" y="0px" width="16px" height="16px" viewBox="0 0 16 16" enable-background="new 0 0 16 16" xml:space="preserve">
	<title>Gender Female</title>
	<desc>Gender Female</desc>
	
	<!--
		@author		Harald Szekely
		@copyright	2001-2012 WoltLab GmbH 
		@license	GNU Lesser General Public License <http://opensource.org/licenses/lgpl-license.php> 
	--> 
	
	<defs>
		<style type="text/css">
			<![CDATA[
				.surface { fill: #369; }
				.shadow { fill: #fff; }
			]]>
		</style>
	</defs>
	
	<g id="IconGenderFemale">
		<g>
			<path id="Cross2" class="shadow" d="M9,12.5v-2c0-0.553-0.447-1-1-1s-1,0.447-1,1v2H5v1c0,0.553,0.448,1,1,1h1
				c0,0.553,0.447,1,1,1s1-0.447,1-1h1c0.553,0,1-0.447,1-1v-1H9z"/>
			<path id="Circle2" class="shadow" d="M8,1.5c-2.761,0-5,2.239-5,5c0,2.76,2.239,5,5,5c2.762,0,5-2.24,5-5
				C13,3.738,10.762,1.5,8,1.5z M8,9.5c-1.657,0-3-1.344-3-3s1.343-3,3-3s3,1.343,3,3S9.657,9.5,8,9.5z"/>
		</g>
		<g>
			<path id="Cross1" class="surface" d="M10,11.5H9v-2c0-0.553-0.447-1-1-1s-1,0.447-1,1v2H6c-0.553,0-1,0.447-1,1s0.448,1,1,1h1
				c0,0.553,0.447,1,1,1s1-0.447,1-1h1c0.553,0,1-0.447,1-1S10.553,11.5,10,11.5z"/>
			<path id="Circle1" class="surface" d="M8,0.5c-2.761,0-5,2.239-5,5c0,2.76,2.239,5,5,5c2.762,0,5-2.24,5-5
				C13,2.738,10.762,0.5,8,0.5z M8,8.5c-1.657,0-3-1.343-3-3c0-1.657,1.343-3,3-3s3,1.343,3,3C11,7.157,9.657,8.5,8,8.5z"/>
		</g>
	</g>
</svg>
