<?xml version="1.0" encoding="utf-8"?>
<!-- Generator: Adobe Illustrator 15.1.0, SVG Export Plug-In . SVG Version: 6.00 Build 0)  -->
<!DOCTYPE svg PUBLIC "-//W3C//DTD SVG 1.1//EN" "http://www.w3.org/Graphics/SVG/1.1/DTD/svg11.dtd">
<svg version="1.1" id="Ebene_1" xmlns="http://www.w3.org/2000/svg" xmlns:xlink="http://www.w3.org/1999/xlink" x="0px" y="0px" width="16px" height="16px" viewBox="0 0 16 16" enable-background="new 0 0 16 16" xml:space="preserve">
	<title>Gender Female</title>
	<desc>Gender Female</desc>
	
	<!--
		@author		Harald Szekely
		@copyright	2001-2012 WoltLab GmbH 
		@license	GNU Lesser General Public License <http://opensource.org/licenses/lgpl-license.php> 
	--> 
	
	<defs>
		<style type="text/css">
			<![CDATA[
				.surface { fill: #369; }
				.shadow { fill: #fff; }
			]]>
		</style>
	</defs>
	
	<g id="IconGenderMale">
		<g>
			<path id="Arrow2" class="shadow" d="M13.5,2h-5v1c0,0.609,0.448,1,1,1h1.543L8.509,6.534l1.414,1.414L12.5,5.371V7
				c0,0.553,0.447,1,1,1s1-0.447,1-1V3C14.5,2.447,14.053,2,13.5,2z"/>
			<path id="Circle2" class="shadow" d="M6.5,5c-2.761,0-5,2.239-5,5c0,2.761,2.239,5,5,5c2.762,0,5-2.239,5-5
				C11.5,7.239,9.262,5,6.5,5z M6.5,13c-1.657,0-3-1.343-3-3c0-1.657,1.343-3,3-3s3,1.343,3,3C9.5,11.657,8.157,13,6.5,13z"/>
		</g>
		<g>
			<path id="Arrow1" class="surface" d="M13.5,1h-4c-0.553,0-1,0.447-1,1s0.448,1,1,1h1.543L8.509,5.534l1.414,1.414L12.5,4.371V6
				c0,0.553,0.447,1,1,1s1-0.447,1-1V2C14.5,1.447,14.053,1,13.5,1z"/>
			<path id="Circle1" class="surface" d="M6.5,4c-2.761,0-5,2.239-5,5c0,2.761,2.239,5,5,5c2.762,0,5-2.239,5-5
				C11.5,6.239,9.262,4,6.5,4z M6.5,12c-1.657,0-3-1.343-3-3c0-1.657,1.343-3,3-3s3,1.343,3,3C9.5,10.657,8.157,12,6.5,12z"/>
		</g>
	</g>
</svg>
