<?xml version="1.0" encoding="utf-8"?>
<!--<?xml-stylesheet type="text/css" href="svg.css"?>-->
<!DOCTYPE svg PUBLIC "-//W3C//DTD SVG 1.1//EN" "http://www.w3.org/Graphics/SVG/1.1/DTD/svg11.dtd">
<svg version="1.1" xmlns="http://www.w3.org/2000/svg" xmlns:xlink="http://www.w3.org/1999/xlink" x="0px" y="0px" width="16px" height="16px" viewBox="0 0 16 16" xml:space="preserve">
	
	<title>Globe</title>
	<desc>Globe Icon</desc>
	
	<!--
		@author		Harald Szekely 
		@copyright	2011 WoltLab GmbH 
		@license	GNU Lesser General Public License <http://opensource.org/licenses/lgpl-license.php> 
	--> 
	
	<defs>
		<style type="text/css">
			<![CDATA[
				.Upper {fill: #666;}
				.Lower {fill: #fff;}
			]]>
		</style>
	</defs>
	
	<g id="IconGlobe">
		<g class="Lower">
			<path id="Map2" d="M9.2617188,11.0029297l0.0449219,0.1425781c0,0,0,0.0527344,0,0.078125
				s-0.0058594,0.0507812-0.0195312,0.078125c-0.0126953,0.0253906-0.0185547,0.1152344-0.0253906,0.1542969
				s-0.0517578,0.0917969-0.0517578,0.1230469c0,0.0332031-0.0654297,0.1230469-0.0654297,0.1425781
				s-0.0644531,0.1054688-0.0576172,0.1230469c0.0058594,0.0195312-0.0263672,0.1054688-0.0195312,0.1757812
				c0.0058594,0.0722656-0.0517578,0.0585938-0.0517578,0.0585938s-0.0517578,0.0449219-0.1035156,0.0449219
				c-0.0527344,0-0.078125,0.0195312-0.078125,0.0195312L8.75,12.0146484c0,0,0-0.1367188-0.0068359-0.1816406
				s0.0253906-0.0585938,0.0585938-0.0722656c0.0322266-0.0117188,0.0517578-0.078125,0.0517578-0.1289062
				c0-0.0527344,0-0.0917969,0.0058594-0.109375c0.0068359-0.0195312,0-0.0917969-0.0195312-0.1503906
				c-0.0185547-0.0585938,0.0390625-0.0449219,0.0390625-0.0449219s0.0654297-0.0332031,0.0908203-0.0390625
				c0.0263672-0.0058594,0.0712891-0.0449219,0.0712891-0.0449219l0.1298828-0.0644531
				C9.1708984,11.1787109,9.2421875,11.0751953,9.2617188,11.0029297z M10.6904297,3.4907227
				c-0.2402344,0.0068359-0.2988281,0.0263672-0.3242188,0.0263672c-0.0263672,0-0.0585938-0.0517578-0.1230469,0.0253906
				c-0.0654297,0.078125-0.1552734,0.1230469-0.2851562,0.1298828S9.8212891,3.659668,9.6982422,3.7045898
				C9.5751953,3.7504883,9.4980469,3.6918945,9.5234375,3.7954102c0.0263672,0.1035156,0.0585938,0.1425781,0.0585938,0.1621094
				S9.5234375,4.1069336,9.4521484,4.0288086S9.2509766,3.6469727,9.3095703,3.8540039S9.4980469,4.1323242,9.375,4.1645508
				C9.2509766,4.1977539,9.2646484,4.1518555,9.2451172,4.1391602s0-0.1035156-0.0068359-0.1552734
				C9.2324219,3.9321289,9.21875,3.8989258,9.1933594,3.8735352C9.1669922,3.847168,9.1738281,3.8081055,9.1220703,3.7954102
				S9.1152344,3.7563477,9.03125,3.7563477S8.8759766,3.7045898,8.8945312,3.8217773
				c0.0195312,0.1162109,0.0390625,0.0390625,0.0908203,0.1484375c0.0517578,0.1103516,0.1494141,0.0332031,0.078125,0.1103516
				c-0.0712891,0.078125-0.2587891,0.0517578-0.3046875,0.0195312C8.7138672,4.0678711,8.7265625,4.112793,8.6425781,4.0551758
				C8.5576172,3.996582,8.5839844,3.9506836,8.4863281,3.996582C8.3896484,4.0415039,8.3574219,4.1264648,8.3183594,4.0932617
				C8.2792969,4.0610352,8.1884766,4.1391602,8.15625,4.1000977s-0.1621094-0.0390625-0.1884766,0
				C7.9423828,4.1391602,7.8642578,4.1323242,7.7539062,4.184082C7.6445312,4.2358398,7.6767578,4.190918,7.5400391,4.3012695
				C7.4042969,4.4116211,7.3261719,4.5024414,7.28125,4.4311523C7.2353516,4.3598633,6.9892578,4.2358398,7.0869141,4.2172852
				C7.1835938,4.1977539,7.2294922,4.1586914,7.28125,4.2036133c0.0517578,0.0458984,0.1357422,0.0322266,0.1494141,0
				c0.0126953-0.0322266,0.0712891-0.0644531-0.0068359-0.1035156S7.3398438,4.0874023,7.2167969,4.0415039
				c-0.1240234-0.0449219,0-0.0322266-0.1689453-0.0576172C6.8789062,3.9575195,6.8076172,3.9448242,6.7626953,3.9321289
				c-0.0449219-0.0136719-0.1103516,0-0.1748047-0.0068359C6.5224609,3.918457,6.4775391,3.9057617,6.4189453,3.9125977
				C6.3613281,3.918457,6.328125,3.9057617,6.2509766,3.9643555C6.1728516,4.0219727,6.1142578,4.0483398,6.0625,4.0932617
				C6.0107422,4.1391602,5.875,4.2299805,5.8359375,4.262207s-0.1748047,0.1357422-0.1875,0.1748047
				C5.6347656,4.4760742,5.6611328,4.5083008,5.609375,4.534668C5.5576172,4.5600586,5.5058594,4.5600586,5.4667969,4.5668945
				s0-0.0585938-0.0390625,0.0068359C5.3886719,4.6381836,5.4013672,4.871582,5.4345703,4.8393555
				C5.4667969,4.8061523,5.4472656,4.7026367,5.5898438,4.800293c0.1425781,0.0966797,0.2333984,0.0839844,0.2265625,0.1748047
				S5.9140625,5.059082,5.9267578,5.0786133s0.078125-0.0253906,0.078125-0.0253906s0.1425781-0.0908203,0.1425781-0.1367188
				c0-0.0449219,0.0898438-0.1484375,0.0898438-0.1484375S6.1728516,4.7348633,6.1728516,4.6704102
				s0.0195312-0.0839844,0.0322266-0.1494141c0.0126953-0.0644531-0.0712891,0,0.1230469-0.1230469
				s0.2080078-0.0380859,0.2080078-0.0380859s0.0253906,0.0253906-0.0068359,0.0644531S6.4384766,4.5668945,6.4257812,4.5795898
				S6.484375,4.6967773,6.5166016,4.6967773s0.0966797-0.0263672,0.1357422-0.0195312
				c0.0390625,0.0058594,0.1035156-0.0195312,0.1230469-0.0068359S6.8408203,4.722168,6.8076172,4.7543945
				C6.7753906,4.7875977,6.7041016,4.8256836,6.6523438,4.8129883S6.5224609,4.7094727,6.5683594,4.8393555
				c0.0449219,0.1289062-0.0068359,0.1621094-0.0458984,0.1552734C6.484375,4.987793,6.3994141,4.9233398,6.4130859,5.0209961
				C6.4257812,5.1176758,6.328125,5.1821289,6.3085938,5.1821289S6.2509766,5.1762695,6.2509766,5.1762695
				S6.1923828,5.1694336,6.1601562,5.1694336S6.0625,5.2016602,6.0429688,5.2280273
				C6.0234375,5.253418,5.9980469,5.2338867,5.9658203,5.2338867c-0.0332031,0,0-0.0380859-0.0654297-0.0517578
				c-0.0644531-0.0126953-0.1035156-0.0253906-0.1425781,0C5.71875,5.2084961,5.6611328,5.2211914,5.6347656,5.2016602
				C5.609375,5.1821289,5.6474609,5.137207,5.5957031,5.1625977c-0.0517578,0.0263672-0.0908203,0.0976562-0.109375,0.1044922
				c-0.0195312,0.0058594,0.0576172,0-0.0195312,0.0058594c-0.078125,0.0068359-0.1103516,0.0263672-0.1494141,0.0390625
				S5.3300781,5.402832,5.2587891,5.4291992C5.1875,5.4545898,5.2392578,5.3959961,5.1679688,5.4545898
				s-0.0839844,0.1103516-0.109375,0.1171875C5.0322266,5.5776367,5.0390625,5.590332,4.9804688,5.597168
				S4.9287109,5.6098633,4.8964844,5.6166992C4.8632812,5.6235352,4.9023438,5.6362305,4.8310547,5.6235352
				C4.7597656,5.6098633,4.7080078,5.6362305,4.7207031,5.6616211C4.734375,5.6879883,4.9736328,5.7592773,4.7919922,5.7524414
				C4.6113281,5.746582,4.6689453,5.7788086,4.7080078,5.8041992c0.0390625,0.0263672,0.0585938,0.0527344,0.078125,0.0585938
				c0.0195312,0.0068359,0.0517578,0.0839844,0.0517578,0.0839844S4.8896484,5.940918,4.8574219,5.9858398
				C4.8251953,6.0322266,4.8701172,6.0439453,4.8378906,6.1025391S4.8056641,6.1220703,4.7792969,6.1357422
				C4.7539062,6.1474609,4.7148438,6.1943359,4.6435547,6.1552734S4.5205078,6.0966797,4.4355469,6.0888672
				C4.3515625,6.0830078,4.4101562,6.0712891,4.3515625,6.1162109S4.2802734,6.2138672,4.2871094,6.2705078
				c0.0058594,0.0585938,0.0126953,0.1367188-0.0068359,0.1757812s-0.0195312,0.078125-0.0058594,0.1367188
				c0.0126953,0.0585938,0.0517578,0.0839844,0.0517578,0.0839844s0.0908203,0.0117188,0.109375,0.0195312
				c0.0195312,0.0058594,0.0585938-0.0136719,0.1103516,0.0195312c0.0517578,0.03125,0.1035156,0.0449219,0.1367188,0.0058594
				c0.0322266-0.0390625,0.1621094-0.0839844,0.2001953-0.1230469C4.921875,6.5498047,4.9482422,6.5361328,4.9287109,6.4990234
				C4.9091797,6.4599609,4.9677734,6.3623047,5,6.3427734s0.1035156-0.0390625,0.1035156-0.0390625l0.078125-0.1171875
				c0,0,0.0644531-0.0703125,0.0966797-0.0644531s0.2138672,0.0722656,0.2011719-0.0136719
				c-0.0126953-0.0839844,0.0126953-0.109375,0.0322266-0.0761719c0.0195312,0.03125,0.0712891,0.0195312,0.0712891,0.0195312
				S5.609375,6.0380859,5.6289062,6.0576172c0.0185547,0.0195312,0.0449219,0.1035156,0.0839844,0.1230469
				s0.0712891,0.0390625,0.0966797,0.0507812c0.0263672,0.0136719,0.0517578,0,0.1044922,0.046875
				c0.0517578,0.0449219,0.1035156,0.0703125,0.109375,0.0898438c0.0068359,0.0195312,0.0517578,0.0644531,0.0517578,0.0644531
				s0.0458984,0.0136719,0.0332031,0.0390625c-0.0136719,0.0273438-0.078125,0.1035156-0.1103516,0.1171875
				S5.8808594,6.5751953,5.9140625,6.6025391c0.0322266,0.0253906,0.0771484,0.0585938,0.0966797,0.0390625
				s0.1425781-0.1503906,0.1425781-0.1503906s-0.0068359,0.0078125,0-0.03125s0-0.0859375,0.0322266-0.0664062
				s0.0517578,0.046875,0.0654297,0.0195312c0.0126953-0.0253906,0.0253906-0.0117188-0.0068359-0.03125
				S6.1337891,6.2509766,6.0947266,6.2451172S5.9589844,6.1748047,5.9589844,6.1748047S5.9394531,6.1552734,5.8945312,6.1025391
				C5.8486328,6.0517578,5.8359375,6.0634766,5.8232422,6.0185547c-0.0136719-0.0454102-0.0527344-0.1040039,0.0195312-0.090332
				C5.9140625,5.940918,5.9589844,5.9858398,6.0234375,6.0244141c0.0654297,0.0390625,0.0517578,0.0527344,0.1103516,0.0917969
				s0.0654297,0.078125,0.1103516,0.0703125c0.0449219-0.0058594,0.0976562,0.0273438,0.0976562,0.0839844
				c0,0.0585938,0.0126953,0.1230469,0.0253906,0.1367188s0.0517578,0.0390625,0.0644531,0.0644531
				c0.0136719,0.0273438,0.0390625,0.0917969,0.0585938,0.1171875s0.0390625,0.0449219,0.0585938,0.078125
				c0.0195312,0.03125,0.0253906-0.0058594,0.0449219,0.0058594c0.0195312,0.0136719,0.0458984,0.0058594,0.0458984-0.0195312
				s0.0058594-0.0703125,0.0058594-0.0703125s0.0908203-0.0273438,0.0654297-0.0390625
				C6.6845703,6.5302734,6.6074219,6.4521484,6.6132812,6.4267578c0.0068359-0.0253906,0-0.078125,0.0322266-0.0703125
				c0.0332031,0.0058594,0.0654297,0.0644531,0.1367188,0.0117188c0.0712891-0.0507812,0.1552734-0.078125,0.1289062,0
				c-0.0253906,0.078125,0.0068359,0.0917969,0,0.1757812C6.9052734,6.6279297,6.9375,6.6025391,6.9833984,6.6474609
				c0.0449219,0.0449219,0.0771484,0.0507812,0.109375,0.0644531c0.0332031,0.0136719,0.0849609,0.0058594,0.1367188,0.0136719
				C7.28125,6.7314453,7.3134766,6.7060547,7.3583984,6.7177734c0.0458984,0.0136719,0.1494141-0.0058594,0.1689453,0.0078125
				C7.546875,6.7373047,7.625,6.6982422,7.6308594,6.7451172c0.0068359,0.0449219,0.0322266-0.0078125,0.0126953,0.0957031
				C7.625,6.9462891,7.5986328,7.0166016,7.5986328,7.0166016C7.5273438,7.1533203,7.5009766,7.1845703,7.46875,7.1923828
				C7.4365234,7.1982422,7.4169922,7.2177734,7.3583984,7.2119141c-0.0576172-0.0078125-0.1289062,0-0.2138672-0.0195312
				C7.0605469,7.1728516,6.9052734,7.2119141,6.8408203,7.1728516c-0.0654297-0.0390625-0.15625-0.0078125-0.1953125-0.0527344
				C6.6074219,7.0751953,6.5419922,7.0810547,6.5166016,7.0556641C6.4902344,7.0302734,6.4775391,6.9580078,6.4775391,7.0615234
				S6.4189453,7.1728516,6.40625,7.2236328C6.3935547,7.2763672,6.4257812,7.2490234,6.3544922,7.2431641
				S6.2636719,7.2763672,6.1601562,7.1982422c-0.1044922-0.078125-0.15625-0.078125-0.2080078-0.109375
				C5.9003906,7.0556641,5.8486328,7.1455078,5.796875,7.0419922S5.6738281,7.0224609,5.6669922,6.9384766
				c-0.0058594-0.0839844,0-0.078125,0.0068359-0.1289062C5.6806641,6.7568359,5.7519531,6.7119141,5.71875,6.6923828
				c-0.0322266-0.0195312-0.0058594-0.0507812-0.0517578-0.03125c-0.0449219,0.0195312-0.109375,0.0253906-0.1621094,0.0449219
				c-0.0517578,0.0195312,0.1171875,0-0.1357422,0.0195312S5.0449219,6.7705078,5.0449219,6.7705078
				S5.0253906,6.7568359,4.9931641,6.7841797c-0.0322266,0.0253906-0.078125,0.0644531-0.1230469,0.0449219
				S4.7988281,6.8154297,4.7597656,6.8232422c-0.0390625,0.0058594-0.0644531-0.0332031-0.1103516,0
				c-0.0449219,0.03125-0.0966797,0.0449219-0.1162109,0.03125S4.4814453,6.7900391,4.4814453,6.7900391L4.3837891,6.9189453
				L4.3193359,6.9833984L4.1894531,7.0556641L4.1699219,7.1142578c0,0-0.0517578,0.0507812-0.0449219,0.0839844
				c0.0058594,0.03125,0.0058594,0.0898438,0.0058594,0.0898438S4.0410156,7.3720703,4.0019531,7.3994141
				C3.9628906,7.4248047,3.9111328,7.4833984,3.9111328,7.4833984S3.8789062,7.5224609,3.859375,7.5341797
				C3.8398438,7.5478516,3.8076172,7.5869141,3.78125,7.6259766S3.7294922,7.6904297,3.7167969,7.7099609
				C3.703125,7.7294922,3.6650391,7.7744141,3.6455078,7.8466797C3.6259766,7.9169922,3.5742188,8.0009766,3.5742188,8.0009766
				L3.5605469,8.0341797c0.0068359,0.109375,0.0068359,0.1289062,0.0195312,0.1679688
				C3.59375,8.2412109,3.6064453,8.2275391,3.59375,8.3134766C3.5800781,8.3974609,3.5800781,8.4287109,3.5673828,8.4677734
				S3.515625,8.5791016,3.5029297,8.6103516C3.4892578,8.6435547,3.5283203,8.7021484,3.5283203,8.7021484
				s0.0195312,0.0839844,0.0068359,0.1035156s0.0068359,0.0585938,0.0068359,0.0585938s0.0771484,0.0449219,0.1035156,0.0703125
				c0.0253906,0.0253906,0.0712891,0.0644531,0.0771484,0.0839844C3.7294922,9.0380859,3.78125,9.1298828,3.7880859,9.1494141
				c0.0058594,0.0195312,0.0576172,0.0898438,0.0712891,0.109375c0.0126953,0.0195312,0.0771484,0.0917969,0.0771484,0.0917969
				s0.0849609,0.0644531,0.1044922,0.0898438C4.0595703,9.4658203,4.1181641,9.4794922,4.1376953,9.5
				c0.0195312,0.0195312,0.0644531,0.0117188,0.0908203,0.03125s0.078125-0.0117188,0.1035156,0
				c0.0263672,0.0136719,0.0976562-0.0117188,0.1171875-0.0253906s0.0644531-0.0595703,0.0966797-0.0400391
				s0.0517578,0,0.078125,0.0078125c0.0253906,0.0058594,0.0644531-0.0273438,0.0908203-0.0273438
				c0.0253906,0,0.0908203-0.0253906,0.1103516-0.0253906c0.0185547,0,0.0839844-0.0390625,0.109375-0.0390625
				c0.0263672,0,0.0585938-0.0253906,0.0908203-0.0136719c0.0322266,0.0136719,0.0195312-0.0253906,0.078125-0.0058594
				s0.078125,0,0.0966797,0.0195312c0.0195312,0.0195312,0.0458984,0,0.0654297,0.0253906
				c0.0195312,0.0273438,0.0517578,0.046875,0.0585938,0.0722656C5.3300781,9.5058594,5.3691406,9.53125,5.3691406,9.53125
				l0.0390625,0.0078125c0,0,0.0517578-0.0390625,0.0644531-0.0136719s0.0712891,0.0195312,0.0712891,0.0195312L5.6025391,9.609375
				l0.0195312,0.0253906c0,0,0.0390625,0.1054688,0.0322266,0.1425781c-0.0068359,0.0390625-0.0068359,0.125-0.0263672,0.1425781
				c-0.0185547,0.0195312-0.0322266,0.1044922-0.0322266,0.1044922s-0.0253906,0.0253906,0.0322266,0.0761719
				c0.0585938,0.0527344,0.0976562,0.0976562,0.1171875,0.1230469c0.0195312,0.0273438,0.0712891,0.0976562,0.078125,0.1425781
				c0.0058594,0.046875,0.0185547,0.0722656,0.0449219,0.1308594s0.0585938,0.0644531,0.0644531,0.1289062
				c0.0068359,0.0644531,0.0195312,0.0644531,0.0136719,0.1113281c-0.0068359,0.0449219-0.0263672,0.0507812-0.0068359,0.0839844
				c0.0195312,0.03125,0.0449219,0.0898438,0.0390625,0.109375c-0.0068359,0.0195312-0.0195312,0.1035156-0.0195312,0.1035156
				l-0.0126953,0.0390625l-0.0585938,0.1113281l-0.0390625,0.0566406c-0.0126953,0.046875-0.0390625,0.0917969-0.0322266,0.15625
				s-0.0322266,0.0644531,0.0195312,0.1289062c0.0517578,0.0664062,0.0771484,0.1367188,0.1103516,0.1953125
				c0.0322266,0.0585938,0.0517578,0.1171875,0.0576172,0.15625c0.0068359,0.0371094,0.0332031,0.0507812,0.0458984,0.1035156
				c0.0126953,0.0507812,0.0195312,0.0761719,0.0195312,0.109375S6.0625,12.2080078,6.0751953,12.2275391
				c0.0136719,0.0195312,0.0195312,0.078125,0.0263672,0.1035156s-0.0195312,0.03125,0.0195312,0.078125
				c0.0390625,0.0449219,0.0644531,0.0703125,0.0908203,0.1035156c0.0253906,0.03125,0.0195312,0.0195312,0.0390625,0.0644531
				c0.0185547,0.0449219,0.0449219,0.0703125,0.0517578,0.109375c0.0058594,0.0390625,0.0126953,0.1367188,0.0322266,0.1816406
				c0.0195312,0.046875,0.0449219,0.0917969,0.0449219,0.0917969s0.0712891,0.0449219,0.0976562,0.0390625
				c0.0253906-0.0078125,0.0771484-0.0664062,0.1162109-0.046875s0.0712891,0,0.1035156,0
				c0.0332031,0,0.0654297-0.0371094,0.0976562-0.0371094s0.078125-0.0527344,0.1035156-0.0390625
				c0.0263672,0.0117188,0.0585938-0.0136719,0.0908203-0.046875c0.0322266-0.03125,0.0517578-0.0566406,0.1103516-0.109375
				s0.0517578-0.0527344,0.0908203-0.0839844c0.0390625-0.0332031,0.078125-0.1035156,0.1230469-0.1171875
				s0.0585938-0.0585938,0.0712891-0.0898438c0.0126953-0.0332031,0.0195312-0.0527344,0.0390625-0.078125
				s0.0058594,0.0058594,0.0390625-0.078125c0.0322266-0.0839844,0.0712891-0.1171875,0.1035156-0.1367188
				s0.0517578-0.0585938,0.0712891-0.0644531s0.0517578,0.0195312,0.0390625-0.0390625
				c-0.0136719-0.0585938,0-0.1425781-0.0136719-0.1621094c-0.0126953-0.0195312-0.0322266,0.0449219-0.0253906-0.0507812
				c0.0068359-0.0976562,0.0771484-0.1953125,0.0771484-0.1953125S7.8125,11.5009766,7.8447266,11.4814453
				s0.0390625-0.0390625,0.0839844-0.0644531c0.0458984-0.0253906,0.1425781-0.0898438,0.1425781-0.1230469
				s0.0390625-0.1171875,0.0390625-0.1367188s0-0.0390625-0.0126953-0.1484375s0.0126953-0.0839844-0.0263672-0.1875
				c-0.0380859-0.1035156-0.0449219-0.234375-0.0703125-0.265625c-0.0263672-0.0332031-0.0136719-0.1171875-0.0136719-0.1425781
				c0-0.0273438,0.0458984-0.0917969,0.0654297-0.1171875C8.0712891,10.2705078,8.15625,10.1669922,8.15625,10.1669922
				s0.1298828-0.1503906,0.1748047-0.2197266C8.3759766,9.875,8.421875,9.8105469,8.4541016,9.7851562
				S8.5644531,9.7011719,8.609375,9.6347656c0.0458984-0.0644531,0.1367188-0.1884766,0.1425781-0.2080078
				c0.0068359-0.0195312,0.0585938-0.0839844,0.0585938-0.0839844s0.0712891-0.0839844,0.0839844-0.1289062
				c0.0136719-0.0449219,0.078125-0.2988281,0.0654297-0.2851562c-0.0136719,0.0117188-0.0908203,0.0253906-0.1171875,0.03125
				C8.8173828,8.9677734,8.8818359,8.9931641,8.6943359,8.9794922C8.5058594,8.9677734,8.4091797,8.9990234,8.4091797,8.9990234
				C8.3505859,8.9873047,8.3046875,9.0517578,8.2851562,8.9599609C8.2666016,8.8701172,8.2529297,8.8173828,8.2138672,8.7529297
				C8.1757812,8.6884766,8.1494141,8.6630859,8.0908203,8.5791016c-0.0576172-0.0859375-0.0517578-0.046875-0.1035156-0.1113281
				S7.9228516,8.4228516,7.890625,8.3388672C7.8574219,8.2548828,7.8320312,8.2861328,7.7929688,8.1708984
				C7.7539062,8.0537109,7.7285156,8.0400391,7.7089844,7.9755859S7.6630859,7.8916016,7.6503906,7.8330078
				s-0.1621094-0.3554688-0.1816406-0.375s-0.0517578-0.125-0.0449219-0.1054688
				c0.0058594,0.0195312,0.0966797,0.0859375,0.0966797,0.0859375s0.0517578-0.0195312,0.0712891-0.0195312
				s0.0976562,0.0703125,0.0976562,0.0957031c0,0.0273438,0.1357422,0.1503906,0.1689453,0.2402344
				c0.0322266,0.0917969,0.0712891,0.15625,0.0771484,0.1816406c0.0068359,0.0253906,0.0712891,0.1289062,0.0976562,0.1679688
				c0.0253906,0.0390625,0.1103516,0.1171875,0.1230469,0.15625s0.1357422,0.1679688,0.1357422,0.2519531
				c0,0.0859375,0.0585938,0.1953125,0.0644531,0.2207031c0.0068359,0.0273438,0.1240234,0.0585938,0.1240234,0.0585938
				l0.1552734-0.0390625c0,0,0.2333984-0.1484375,0.2587891-0.1484375c0.0263672,0,0.2333984-0.0976562,0.2333984-0.0976562
				s0.0839844-0.078125,0.1425781-0.1230469s0.1230469-0.1289062,0.1367188-0.1679688
				c0.0126953-0.0390625,0.0380859-0.0449219,0.0898438-0.1035156c0.0527344-0.0585938,0.1240234-0.1171875,0.078125-0.15625
				C9.5302734,7.9169922,9.5039062,7.9306641,9.4394531,7.8662109C9.3740234,7.7998047,9.3808594,7.8134766,9.3359375,7.7294922
				C9.2900391,7.6455078,9.3417969,7.5478516,9.2451172,7.6455078c-0.0976562,0.0976562-0.0585938,0.1230469-0.15625,0.1425781
				C8.9921875,7.8076172,8.953125,7.8720703,8.9082031,7.8076172C8.8623047,7.7431641,8.8173828,7.7802734,8.7910156,7.6845703
				C8.765625,7.5869141,8.7460938,7.5810547,8.7392578,7.5419922s0-0.0390625-0.0517578-0.1367188
				S8.6748047,7.1591797,8.7070312,7.2431641S8.7910156,7.3408203,8.875,7.3994141
				c0.0849609,0.0585938,0.1240234,0.1035156,0.2011719,0.109375c0.078125,0.0058594,0.1425781,0,0.1552734,0.0136719
				c0.0136719,0.0117188,0.0263672-0.0078125,0.0585938,0.0058594s0.0458984-0.0195312,0.0585938,0.0332031
				c0.0126953,0.0507812,0.0839844,0.0566406,0.1162109,0.0898438s0.0322266,0.0195312,0.1171875,0.0332031
				c0.0839844,0.0117188,0.2011719,0.0117188,0.2011719,0.0117188L9.90625,7.6904297l0.1425781,0.0136719
				c0,0,0.1035156,0.0566406,0.1289062,0.0566406c0.0263672,0,0.0322266,0.0722656,0.0976562,0.1113281
				c0.0644531,0.0390625,0.0771484,0.0449219,0.1162109,0.0898438c0.0390625,0.046875,0.0332031,0.0664062,0.0849609,0.1113281
				S10.6123047,8.0654297,10.625,8.0478516c0.0126953-0.0195312,0.078125-0.0527344,0.0654297,0
				c-0.0136719,0.0507812,0.0644531,0.03125,0.0449219,0.1542969s-0.0322266,0.0917969,0,0.1757812
				s0.1748047,0.34375,0.1816406,0.4199219c0.0068359,0.078125,0.0449219,0.0527344,0.0517578,0.1230469
				c0.0068359,0.0722656,0.0449219,0.0976562,0.0449219,0.1503906c0,0.0507812,0.0458984,0.0644531,0.0517578,0.1035156
				c0.0068359,0.0390625,0.078125,0.0058594,0.0976562,0s0.1103516-0.0917969,0.1103516-0.0917969
				S11.3125,9.0712891,11.3056641,9.0068359c-0.0068359-0.0664062,0-0.0527344,0-0.1503906
				c0-0.0957031-0.0390625-0.0957031-0.0195312-0.1933594s0.0712891-0.15625,0.0839844-0.2011719
				c0.0136719-0.0449219,0.0654297-0.1230469,0.0908203-0.1289062c0.0263672-0.0078125,0.1689453-0.078125,0.2011719-0.125
				c0.0322266-0.0449219,0.0839844-0.0957031,0.1357422-0.1484375c0.0527344-0.0507812,0.1425781-0.1171875,0.1621094-0.0976562
				s0.0136719,0.0136719,0.0458984,0.0136719s0.0908203,0.0253906,0.1357422,0.0332031
				c0.0458984,0.0058594,0.1367188,0.1152344,0.15625,0.1738281C12.3164062,8.2412109,12.3037109,8.2275391,12.375,8.3134766
				c0.0712891,0.0839844,0.1367188,0.03125,0.1367188,0.1347656s0,0.0976562,0.0322266,0.1367188
				s0.0712891-0.0722656,0.109375-0.0585938c0.0390625,0.0136719,0.0458984-0.0136719,0.078125,0.0917969
				c0.0322266,0.1035156,0.0517578,0.1035156,0.0585938,0.2070312c0.0058594,0.1035156-0.0068359,0.0058594-0.0068359,0.0898438
				s-0.0058594,0.0917969,0.0068359,0.1679688c0.0126953,0.078125,0.0585938,0.1054688,0.0517578,0.1171875
				c0,0,0.0390625-0.109375,0.0253906-0.1875c-0.0126953-0.078125,0-0.1875,0.0332031-0.2207031
				c0.0322266-0.03125,0.0644531-0.0644531,0.0908203,0.0195312c0.0253906,0.0839844,0.0380859,0.0195312,0.0966797,0.1171875
				s0.1103516,0.078125,0.1171875,0.1230469c0.0009766,0.0078125,0.0029297,0.0136719,0.0048828,0.0175781
				c0.0390625-0.2519531,0.0605469-0.5117188,0.0654297-0.7734375c-0.0380859-0.0332031-0.0449219-0.0625,0.0009766-0.1289062
				c-0.0068359-1.7714844-0.8134766-3.3549805-2.078125-4.4067383c-0.0996094,0.0068359-0.1503906-0.0029297-0.1259766-0.0419922
				c0.0087891-0.0136719,0.0175781-0.0263672,0.0253906-0.0390625c-0.0625-0.0498047-0.1269531-0.0986328-0.1923828-0.1464844
				c-0.0117188,0-0.0244141-0.0009766-0.0400391-0.0029297C10.7480469,3.5170898,10.9296875,3.4848633,10.6904297,3.4907227z
				 M13.4023438,9.7011719C13.3320312,9.65625,13.3125,9.6367188,13.2792969,9.5976562
				c-0.0322266-0.0390625-0.0712891-0.1494141-0.1230469-0.1435547s-0.0839844-0.0253906-0.0839844-0.0253906l-0.0195312,0.0058594
				c0,0,0.0458984,0.0595703,0.0644531,0.0849609c0.0195312,0.0253906,0.0136719,0.0644531,0.0585938,0.1113281
				c0.0458984,0.0449219,0.0517578,0.0839844,0.078125,0.0957031c0.0253906,0.0136719,0.0771484,0.1308594,0.0966797,0.1699219
				c0.015625,0.03125,0.0439453,0.0605469,0.0673828,0.0917969C13.4472656,9.9023438,13.4746094,9.8144531,13.5,9.7265625
				C13.4648438,9.7011719,13.4521484,9.7324219,13.4023438,9.7011719z"/>
			<path id="Circle2" style="fill-rule: evenodd; clip-rule: evenodd;" d="M7.5,2C3.9101562,2,1,4.9101562,1,8.5
				S3.9101562,15,7.5,15S14,12.0898438,14,8.5S11.0898438,2,7.5,2z M7.5,14C4.4624023,14,2,11.5380859,2,8.5
				C2,5.4624023,4.4624023,3,7.5,3C10.5380859,3,13,5.4624023,13,8.5C13,11.5380859,10.5380859,14,7.5,14z"/>
		</g>
		<g class="Upper">
			<path id="Map1" d="M9.2617188,10.0029297l0.0449219,0.1425781c0,0,0,0.0527344,0,0.078125
				s-0.0058594,0.0507812-0.0195312,0.078125c-0.0126953,0.0253906-0.0185547,0.1152344-0.0253906,0.1542969
				s-0.0517578,0.0917969-0.0517578,0.1230469c0,0.0332031-0.0654297,0.1230469-0.0654297,0.1425781
				s-0.0644531,0.1054688-0.0576172,0.1230469c0.0058594,0.0195312-0.0263672,0.1054688-0.0195312,0.1757812
				c0.0058594,0.0722656-0.0517578,0.0585938-0.0517578,0.0585938s-0.0517578,0.0449219-0.1035156,0.0449219
				c-0.0527344,0-0.078125,0.0195312-0.078125,0.0195312L8.75,11.0146484c0,0,0-0.1367188-0.0068359-0.1816406
				s0.0253906-0.0585938,0.0585938-0.0722656c0.0322266-0.0117188,0.0517578-0.078125,0.0517578-0.1289062
				c0-0.0527344,0-0.0917969,0.0058594-0.109375c0.0068359-0.0195312,0-0.0917969-0.0195312-0.1503906
				c-0.0185547-0.0585938,0.0390625-0.0449219,0.0390625-0.0449219s0.0654297-0.0332031,0.0908203-0.0390625
				c0.0263672-0.0058594,0.0712891-0.0449219,0.0712891-0.0449219l0.1298828-0.0644531
				C9.1708984,10.1787109,9.2421875,10.0751953,9.2617188,10.0029297z M10.6904297,2.4907227
				c-0.2402344,0.0068359-0.2988281,0.0263672-0.3242188,0.0263672c-0.0263672,0-0.0585938-0.0517578-0.1230469,0.0253906
				c-0.0654297,0.078125-0.1552734,0.1230469-0.2851562,0.1298828S9.8212891,2.659668,9.6982422,2.7045898
				C9.5751953,2.7504883,9.4980469,2.6918945,9.5234375,2.7954102c0.0263672,0.1035156,0.0585938,0.1425781,0.0585938,0.1621094
				S9.5234375,3.1069336,9.4521484,3.0288086S9.2509766,2.6469727,9.3095703,2.8540039S9.4980469,3.1323242,9.375,3.1645508
				C9.2509766,3.1977539,9.2646484,3.1518555,9.2451172,3.1391602s0-0.1035156-0.0068359-0.1552734
				C9.2324219,2.9321289,9.21875,2.8989258,9.1933594,2.8735352C9.1669922,2.847168,9.1738281,2.8081055,9.1220703,2.7954102
				S9.1152344,2.7563477,9.03125,2.7563477S8.8759766,2.7045898,8.8945312,2.8217773
				c0.0195312,0.1162109,0.0390625,0.0390625,0.0908203,0.1484375c0.0517578,0.1103516,0.1494141,0.0332031,0.078125,0.1103516
				c-0.0712891,0.078125-0.2587891,0.0517578-0.3046875,0.0195312C8.7138672,3.0678711,8.7265625,3.112793,8.6425781,3.0551758
				C8.5576172,2.996582,8.5839844,2.9506836,8.4863281,2.996582C8.3896484,3.0415039,8.3574219,3.1264648,8.3183594,3.0932617
				C8.2792969,3.0610352,8.1884766,3.1391602,8.15625,3.1000977s-0.1621094-0.0390625-0.1884766,0
				C7.9423828,3.1391602,7.8642578,3.1323242,7.7539062,3.184082C7.6445312,3.2358398,7.6767578,3.190918,7.5400391,3.3012695
				C7.4042969,3.4116211,7.3261719,3.5024414,7.28125,3.4311523C7.2353516,3.3598633,6.9892578,3.2358398,7.0869141,3.2172852
				C7.1835938,3.1977539,7.2294922,3.1586914,7.28125,3.2036133c0.0517578,0.0458984,0.1357422,0.0322266,0.1494141,0
				c0.0126953-0.0322266,0.0712891-0.0644531-0.0068359-0.1035156S7.3398438,3.0874023,7.2167969,3.0415039
				c-0.1240234-0.0449219,0-0.0322266-0.1689453-0.0576172C6.8789062,2.9575195,6.8076172,2.9448242,6.7626953,2.9321289
				c-0.0449219-0.0136719-0.1103516,0-0.1748047-0.0068359C6.5224609,2.918457,6.4775391,2.9057617,6.4189453,2.9125977
				C6.3613281,2.918457,6.328125,2.9057617,6.2509766,2.9643555C6.1728516,3.0219727,6.1142578,3.0483398,6.0625,3.0932617
				C6.0107422,3.1391602,5.875,3.2299805,5.8359375,3.262207s-0.1748047,0.1357422-0.1875,0.1748047
				C5.6347656,3.4760742,5.6611328,3.5083008,5.609375,3.534668C5.5576172,3.5600586,5.5058594,3.5600586,5.4667969,3.5668945
				s0-0.0585938-0.0390625,0.0068359C5.3886719,3.6381836,5.4013672,3.871582,5.4345703,3.8393555
				C5.4667969,3.8061523,5.4472656,3.7026367,5.5898438,3.800293c0.1425781,0.0966797,0.2333984,0.0839844,0.2265625,0.1748047
				S5.9140625,4.059082,5.9267578,4.0786133s0.078125-0.0253906,0.078125-0.0253906s0.1425781-0.0908203,0.1425781-0.1367188
				c0-0.0449219,0.0898438-0.1484375,0.0898438-0.1484375S6.1728516,3.7348633,6.1728516,3.6704102
				s0.0195312-0.0839844,0.0322266-0.1494141c0.0126953-0.0644531-0.0712891,0,0.1230469-0.1230469
				s0.2080078-0.0380859,0.2080078-0.0380859s0.0253906,0.0253906-0.0068359,0.0644531S6.4384766,3.5668945,6.4257812,3.5795898
				S6.484375,3.6967773,6.5166016,3.6967773s0.0966797-0.0263672,0.1357422-0.0195312
				c0.0390625,0.0058594,0.1035156-0.0195312,0.1230469-0.0068359S6.8408203,3.722168,6.8076172,3.7543945
				C6.7753906,3.7875977,6.7041016,3.8256836,6.6523438,3.8129883S6.5224609,3.7094727,6.5683594,3.8393555
				c0.0449219,0.1289062-0.0068359,0.1621094-0.0458984,0.1552734C6.484375,3.987793,6.3994141,3.9233398,6.4130859,4.0209961
				C6.4257812,4.1176758,6.328125,4.1821289,6.3085938,4.1821289S6.2509766,4.1762695,6.2509766,4.1762695
				S6.1923828,4.1694336,6.1601562,4.1694336S6.0625,4.2016602,6.0429688,4.2280273
				C6.0234375,4.253418,5.9980469,4.2338867,5.9658203,4.2338867c-0.0332031,0,0-0.0380859-0.0654297-0.0517578
				c-0.0644531-0.0126953-0.1035156-0.0253906-0.1425781,0C5.71875,4.2084961,5.6611328,4.2211914,5.6347656,4.2016602
				C5.609375,4.1821289,5.6474609,4.137207,5.5957031,4.1625977c-0.0517578,0.0263672-0.0908203,0.0976562-0.109375,0.1044922
				c-0.0195312,0.0058594,0.0576172,0-0.0195312,0.0058594c-0.078125,0.0068359-0.1103516,0.0263672-0.1494141,0.0390625
				S5.3300781,4.402832,5.2587891,4.4291992C5.1875,4.4545898,5.2392578,4.3959961,5.1679688,4.4545898
				s-0.0839844,0.1103516-0.109375,0.1171875C5.0322266,4.5776367,5.0390625,4.590332,4.9804688,4.597168
				S4.9287109,4.6098633,4.8964844,4.6166992C4.8632812,4.6235352,4.9023438,4.6362305,4.8310547,4.6235352
				C4.7597656,4.6098633,4.7080078,4.6362305,4.7207031,4.6616211C4.734375,4.6879883,4.9736328,4.7592773,4.7919922,4.7524414
				C4.6113281,4.746582,4.6689453,4.7788086,4.7080078,4.8041992c0.0390625,0.0263672,0.0585938,0.0527344,0.078125,0.0585938
				c0.0195312,0.0068359,0.0517578,0.0839844,0.0517578,0.0839844S4.8896484,4.940918,4.8574219,4.9858398
				C4.8251953,5.0322266,4.8701172,5.0439453,4.8378906,5.1025391S4.8056641,5.1220703,4.7792969,5.1357422
				C4.7539062,5.1474609,4.7148438,5.1943359,4.6435547,5.1552734S4.5205078,5.0966797,4.4355469,5.0888672
				C4.3515625,5.0830078,4.4101562,5.0712891,4.3515625,5.1162109S4.2802734,5.2138672,4.2871094,5.2705078
				c0.0058594,0.0585938,0.0126953,0.1367188-0.0068359,0.1757812s-0.0195312,0.078125-0.0058594,0.1367188
				c0.0126953,0.0585938,0.0517578,0.0839844,0.0517578,0.0839844s0.0908203,0.0117188,0.109375,0.0195312
				c0.0195312,0.0058594,0.0585938-0.0136719,0.1103516,0.0195312c0.0517578,0.03125,0.1035156,0.0449219,0.1367188,0.0058594
				c0.0322266-0.0390625,0.1621094-0.0839844,0.2001953-0.1230469C4.921875,5.5498047,4.9482422,5.5361328,4.9287109,5.4990234
				C4.9091797,5.4599609,4.9677734,5.3623047,5,5.3427734s0.1035156-0.0390625,0.1035156-0.0390625l0.078125-0.1171875
				c0,0,0.0644531-0.0703125,0.0966797-0.0644531s0.2138672,0.0722656,0.2011719-0.0136719
				c-0.0126953-0.0839844,0.0126953-0.109375,0.0322266-0.0761719c0.0195312,0.03125,0.0712891,0.0195312,0.0712891,0.0195312
				S5.609375,5.0380859,5.6289062,5.0576172c0.0185547,0.0195312,0.0449219,0.1035156,0.0839844,0.1230469
				s0.0712891,0.0390625,0.0966797,0.0507812c0.0263672,0.0136719,0.0517578,0,0.1044922,0.046875
				c0.0517578,0.0449219,0.1035156,0.0703125,0.109375,0.0898438c0.0068359,0.0195312,0.0517578,0.0644531,0.0517578,0.0644531
				s0.0458984,0.0136719,0.0332031,0.0390625c-0.0136719,0.0273438-0.078125,0.1035156-0.1103516,0.1171875
				S5.8808594,5.5751953,5.9140625,5.6025391c0.0322266,0.0253906,0.0771484,0.0585938,0.0966797,0.0390625
				s0.1425781-0.1503906,0.1425781-0.1503906s-0.0068359,0.0078125,0-0.03125s0-0.0859375,0.0322266-0.0664062
				s0.0517578,0.046875,0.0654297,0.0195312c0.0126953-0.0253906,0.0253906-0.0117188-0.0068359-0.03125
				S6.1337891,5.2509766,6.0947266,5.2451172S5.9589844,5.1748047,5.9589844,5.1748047S5.9394531,5.1552734,5.8945312,5.1025391
				C5.8486328,5.0517578,5.8359375,5.0634766,5.8232422,5.0185547c-0.0136719-0.0454102-0.0527344-0.1040039,0.0195312-0.090332
				C5.9140625,4.940918,5.9589844,4.9858398,6.0234375,5.0244141c0.0654297,0.0390625,0.0517578,0.0527344,0.1103516,0.0917969
				s0.0654297,0.078125,0.1103516,0.0703125c0.0449219-0.0058594,0.0976562,0.0273438,0.0976562,0.0839844
				c0,0.0585938,0.0126953,0.1230469,0.0253906,0.1367188s0.0517578,0.0390625,0.0644531,0.0644531
				c0.0136719,0.0273438,0.0390625,0.0917969,0.0585938,0.1171875s0.0390625,0.0449219,0.0585938,0.078125
				c0.0195312,0.03125,0.0253906-0.0058594,0.0449219,0.0058594c0.0195312,0.0136719,0.0458984,0.0058594,0.0458984-0.0195312
				s0.0058594-0.0703125,0.0058594-0.0703125s0.0908203-0.0273438,0.0654297-0.0390625
				C6.6845703,5.5302734,6.6074219,5.4521484,6.6132812,5.4267578c0.0068359-0.0253906,0-0.078125,0.0322266-0.0703125
				c0.0332031,0.0058594,0.0654297,0.0644531,0.1367188,0.0117188c0.0712891-0.0507812,0.1552734-0.078125,0.1289062,0
				c-0.0253906,0.078125,0.0068359,0.0917969,0,0.1757812C6.9052734,5.6279297,6.9375,5.6025391,6.9833984,5.6474609
				c0.0449219,0.0449219,0.0771484,0.0507812,0.109375,0.0644531c0.0332031,0.0136719,0.0849609,0.0058594,0.1367188,0.0136719
				C7.28125,5.7314453,7.3134766,5.7060547,7.3583984,5.7177734c0.0458984,0.0136719,0.1494141-0.0058594,0.1689453,0.0078125
				C7.546875,5.7373047,7.625,5.6982422,7.6308594,5.7451172c0.0068359,0.0449219,0.0322266-0.0078125,0.0126953,0.0957031
				C7.625,5.9462891,7.5986328,6.0166016,7.5986328,6.0166016C7.5273438,6.1533203,7.5009766,6.1845703,7.46875,6.1923828
				C7.4365234,6.1982422,7.4169922,6.2177734,7.3583984,6.2119141c-0.0576172-0.0078125-0.1289062,0-0.2138672-0.0195312
				C7.0605469,6.1728516,6.9052734,6.2119141,6.8408203,6.1728516c-0.0654297-0.0390625-0.15625-0.0078125-0.1953125-0.0527344
				C6.6074219,6.0751953,6.5419922,6.0810547,6.5166016,6.0556641C6.4902344,6.0302734,6.4775391,5.9580078,6.4775391,6.0615234
				S6.4189453,6.1728516,6.40625,6.2236328C6.3935547,6.2763672,6.4257812,6.2490234,6.3544922,6.2431641
				S6.2636719,6.2763672,6.1601562,6.1982422c-0.1044922-0.078125-0.15625-0.078125-0.2080078-0.109375
				C5.9003906,6.0556641,5.8486328,6.1455078,5.796875,6.0419922S5.6738281,6.0224609,5.6669922,5.9384766
				c-0.0058594-0.0839844,0-0.078125,0.0068359-0.1289062C5.6806641,5.7568359,5.7519531,5.7119141,5.71875,5.6923828
				c-0.0322266-0.0195312-0.0058594-0.0507812-0.0517578-0.03125c-0.0449219,0.0195312-0.109375,0.0253906-0.1621094,0.0449219
				c-0.0517578,0.0195312,0.1171875,0-0.1357422,0.0195312S5.0449219,5.7705078,5.0449219,5.7705078
				S5.0253906,5.7568359,4.9931641,5.7841797c-0.0322266,0.0253906-0.078125,0.0644531-0.1230469,0.0449219
				S4.7988281,5.8154297,4.7597656,5.8232422c-0.0390625,0.0058594-0.0644531-0.0332031-0.1103516,0
				c-0.0449219,0.03125-0.0966797,0.0449219-0.1162109,0.03125S4.4814453,5.7900391,4.4814453,5.7900391L4.3837891,5.9189453
				L4.3193359,5.9833984L4.1894531,6.0556641L4.1699219,6.1142578c0,0-0.0517578,0.0507812-0.0449219,0.0839844
				c0.0058594,0.03125,0.0058594,0.0898438,0.0058594,0.0898438S4.0410156,6.3720703,4.0019531,6.3994141
				C3.9628906,6.4248047,3.9111328,6.4833984,3.9111328,6.4833984S3.8789062,6.5224609,3.859375,6.5341797
				C3.8398438,6.5478516,3.8076172,6.5869141,3.78125,6.6259766S3.7294922,6.6904297,3.7167969,6.7099609
				C3.703125,6.7294922,3.6650391,6.7744141,3.6455078,6.8466797C3.6259766,6.9169922,3.5742188,7.0009766,3.5742188,7.0009766
				L3.5605469,7.0341797c0.0068359,0.109375,0.0068359,0.1289062,0.0195312,0.1679688
				C3.59375,7.2412109,3.6064453,7.2275391,3.59375,7.3134766C3.5800781,7.3974609,3.5800781,7.4287109,3.5673828,7.4677734
				S3.515625,7.5791016,3.5029297,7.6103516C3.4892578,7.6435547,3.5283203,7.7021484,3.5283203,7.7021484
				s0.0195312,0.0839844,0.0068359,0.1035156s0.0068359,0.0585938,0.0068359,0.0585938s0.0771484,0.0449219,0.1035156,0.0703125
				c0.0253906,0.0253906,0.0712891,0.0644531,0.0771484,0.0839844C3.7294922,8.0380859,3.78125,8.1298828,3.7880859,8.1494141
				c0.0058594,0.0195312,0.0576172,0.0898438,0.0712891,0.109375c0.0126953,0.0195312,0.0771484,0.0917969,0.0771484,0.0917969
				s0.0849609,0.0644531,0.1044922,0.0898438c0.0185547,0.0253906,0.0771484,0.0390625,0.0966797,0.059082
				c0.0195312,0.0195312,0.0644531,0.0117188,0.0908203,0.03125s0.078125-0.0117188,0.1035156,0
				C4.3583984,8.5444336,4.4296875,8.519043,4.4492188,8.5053711s0.0644531-0.059082,0.0966797-0.0395508
				s0.0517578,0,0.078125,0.0078125c0.0253906,0.0058594,0.0644531-0.0273438,0.0908203-0.0273438
				c0.0253906,0,0.0908203-0.0253906,0.1103516-0.0253906c0.0185547,0,0.0839844-0.0390625,0.109375-0.0390625
				c0.0263672,0,0.0585938-0.0253906,0.0908203-0.0136719c0.0322266,0.0136719,0.0195312-0.0253906,0.078125-0.0058594
				s0.078125,0,0.0966797,0.0195312c0.0195312,0.0195312,0.0458984,0,0.0654297,0.0253906
				c0.0195312,0.0273438,0.0517578,0.046875,0.0585938,0.0722656c0.0058594,0.0258789,0.0449219,0.0512695,0.0449219,0.0512695
				l0.0390625,0.0078125c0,0,0.0517578-0.0390625,0.0644531-0.0136719s0.0712891,0.0195312,0.0712891,0.0195312l0.0585938,0.0644531
				l0.0195312,0.0253906c0,0,0.0390625,0.1054688,0.0322266,0.1425781c-0.0068359,0.0390625-0.0068359,0.125-0.0263672,0.1425781
				C5.609375,8.9389648,5.5957031,9.0244141,5.5957031,9.0244141S5.5703125,9.0498047,5.6279297,9.1005859
				c0.0585938,0.0527344,0.0976562,0.0976562,0.1171875,0.1230469c0.0195312,0.0273438,0.0712891,0.0976562,0.078125,0.1425781
				c0.0058594,0.046875,0.0185547,0.0722656,0.0449219,0.1308594s0.0585938,0.0644531,0.0644531,0.1289062
				c0.0068359,0.0644531,0.0195312,0.0644531,0.0136719,0.1113281C5.9394531,9.7822266,5.9199219,9.7880859,5.9394531,9.8212891
				c0.0195312,0.03125,0.0449219,0.0898438,0.0390625,0.109375c-0.0068359,0.0195312-0.0195312,0.1035156-0.0195312,0.1035156
				l-0.0126953,0.0390625l-0.0585938,0.1113281l-0.0390625,0.0566406c-0.0126953,0.046875-0.0390625,0.0917969-0.0322266,0.15625
				s-0.0322266,0.0644531,0.0195312,0.1289062c0.0517578,0.0664062,0.0771484,0.1367188,0.1103516,0.1953125
				c0.0322266,0.0585938,0.0517578,0.1171875,0.0576172,0.15625c0.0068359,0.0371094,0.0332031,0.0507812,0.0458984,0.1035156
				c0.0126953,0.0507812,0.0195312,0.0761719,0.0195312,0.109375S6.0625,11.2080078,6.0751953,11.2275391
				c0.0136719,0.0195312,0.0195312,0.078125,0.0263672,0.1035156s-0.0195312,0.03125,0.0195312,0.078125
				c0.0390625,0.0449219,0.0644531,0.0703125,0.0908203,0.1035156c0.0253906,0.03125,0.0195312,0.0195312,0.0390625,0.0644531
				c0.0185547,0.0449219,0.0449219,0.0703125,0.0517578,0.109375c0.0058594,0.0390625,0.0126953,0.1367188,0.0322266,0.1816406
				c0.0195312,0.046875,0.0449219,0.0917969,0.0449219,0.0917969s0.0712891,0.0449219,0.0976562,0.0390625
				c0.0253906-0.0078125,0.0771484-0.0664062,0.1162109-0.046875s0.0712891,0,0.1035156,0
				c0.0332031,0,0.0654297-0.0371094,0.0976562-0.0371094s0.078125-0.0527344,0.1035156-0.0390625
				c0.0263672,0.0117188,0.0585938-0.0136719,0.0908203-0.046875c0.0322266-0.03125,0.0517578-0.0566406,0.1103516-0.109375
				s0.0517578-0.0527344,0.0908203-0.0839844c0.0390625-0.0332031,0.078125-0.1035156,0.1230469-0.1171875
				s0.0585938-0.0585938,0.0712891-0.0898438c0.0126953-0.0332031,0.0195312-0.0527344,0.0390625-0.078125
				s0.0058594,0.0058594,0.0390625-0.078125c0.0322266-0.0839844,0.0712891-0.1171875,0.1035156-0.1367188
				s0.0517578-0.0585938,0.0712891-0.0644531s0.0517578,0.0195312,0.0390625-0.0390625
				c-0.0136719-0.0585938,0-0.1425781-0.0136719-0.1621094c-0.0126953-0.0195312-0.0322266,0.0449219-0.0253906-0.0507812
				c0.0068359-0.0976562,0.0771484-0.1953125,0.0771484-0.1953125S7.8125,10.5009766,7.8447266,10.4814453
				s0.0390625-0.0390625,0.0839844-0.0644531c0.0458984-0.0253906,0.1425781-0.0898438,0.1425781-0.1230469
				s0.0390625-0.1171875,0.0390625-0.1367188s0-0.0390625-0.0126953-0.1484375s0.0126953-0.0839844-0.0263672-0.1875
				c-0.0380859-0.1035156-0.0449219-0.234375-0.0703125-0.265625C7.9746094,9.5224609,7.9873047,9.4384766,7.9873047,9.4130859
				c0-0.0273438,0.0458984-0.0917969,0.0654297-0.1171875C8.0712891,9.2705078,8.15625,9.1669922,8.15625,9.1669922
				s0.1298828-0.1503906,0.1748047-0.2202148C8.3759766,8.8745117,8.421875,8.8100586,8.4541016,8.784668
				S8.5644531,8.7006836,8.609375,8.6342773c0.0458984-0.0644531,0.1367188-0.1879883,0.1425781-0.2075195
				c0.0068359-0.0195312,0.0585938-0.0839844,0.0585938-0.0839844s0.0712891-0.0839844,0.0839844-0.1289062
				c0.0136719-0.0449219,0.078125-0.2988281,0.0654297-0.2851562c-0.0136719,0.0117188-0.0908203,0.0253906-0.1171875,0.03125
				C8.8173828,7.9677734,8.8818359,7.9931641,8.6943359,7.9794922C8.5058594,7.9677734,8.4091797,7.9990234,8.4091797,7.9990234
				C8.3505859,7.9873047,8.3046875,8.0517578,8.2851562,7.9599609C8.2666016,7.8701172,8.2529297,7.8173828,8.2138672,7.7529297
				C8.1757812,7.6884766,8.1494141,7.6630859,8.0908203,7.5791016c-0.0576172-0.0859375-0.0517578-0.046875-0.1035156-0.1113281
				S7.9228516,7.4228516,7.890625,7.3388672C7.8574219,7.2548828,7.8320312,7.2861328,7.7929688,7.1708984
				C7.7539062,7.0537109,7.7285156,7.0400391,7.7089844,6.9755859S7.6630859,6.8916016,7.6503906,6.8330078
				s-0.1621094-0.3554688-0.1816406-0.375s-0.0517578-0.125-0.0449219-0.1054688
				c0.0058594,0.0195312,0.0966797,0.0859375,0.0966797,0.0859375s0.0517578-0.0195312,0.0712891-0.0195312
				s0.0976562,0.0703125,0.0976562,0.0957031c0,0.0273438,0.1357422,0.1503906,0.1689453,0.2402344
				c0.0322266,0.0917969,0.0712891,0.15625,0.0771484,0.1816406c0.0068359,0.0253906,0.0712891,0.1289062,0.0976562,0.1679688
				c0.0253906,0.0390625,0.1103516,0.1171875,0.1230469,0.15625s0.1357422,0.1679688,0.1357422,0.2519531
				c0,0.0859375,0.0585938,0.1953125,0.0644531,0.2207031c0.0068359,0.0273438,0.1240234,0.0585938,0.1240234,0.0585938
				l0.1552734-0.0390625c0,0,0.2333984-0.1484375,0.2587891-0.1484375c0.0263672,0,0.2333984-0.0976562,0.2333984-0.0976562
				s0.0839844-0.078125,0.1425781-0.1230469s0.1230469-0.1289062,0.1367188-0.1679688
				c0.0126953-0.0390625,0.0380859-0.0449219,0.0898438-0.1035156c0.0527344-0.0585938,0.1240234-0.1171875,0.078125-0.15625
				C9.5302734,6.9169922,9.5039062,6.9306641,9.4394531,6.8662109C9.3740234,6.7998047,9.3808594,6.8134766,9.3359375,6.7294922
				C9.2900391,6.6455078,9.3417969,6.5478516,9.2451172,6.6455078c-0.0976562,0.0976562-0.0585938,0.1230469-0.15625,0.1425781
				C8.9921875,6.8076172,8.953125,6.8720703,8.9082031,6.8076172C8.8623047,6.7431641,8.8173828,6.7802734,8.7910156,6.6845703
				C8.765625,6.5869141,8.7460938,6.5810547,8.7392578,6.5419922s0-0.0390625-0.0517578-0.1367188
				S8.6748047,6.1591797,8.7070312,6.2431641S8.7910156,6.3408203,8.875,6.3994141
				c0.0849609,0.0585938,0.1240234,0.1035156,0.2011719,0.109375c0.078125,0.0058594,0.1425781,0,0.1552734,0.0136719
				c0.0136719,0.0117188,0.0263672-0.0078125,0.0585938,0.0058594s0.0458984-0.0195312,0.0585938,0.0332031
				c0.0126953,0.0507812,0.0839844,0.0566406,0.1162109,0.0898438s0.0322266,0.0195312,0.1171875,0.0332031
				c0.0839844,0.0117188,0.2011719,0.0117188,0.2011719,0.0117188L9.90625,6.6904297l0.1425781,0.0136719
				c0,0,0.1035156,0.0566406,0.1289062,0.0566406c0.0263672,0,0.0322266,0.0722656,0.0976562,0.1113281
				c0.0644531,0.0390625,0.0771484,0.0449219,0.1162109,0.0898438c0.0390625,0.046875,0.0332031,0.0664062,0.0849609,0.1113281
				S10.6123047,7.0654297,10.625,7.0478516c0.0126953-0.0195312,0.078125-0.0527344,0.0654297,0
				c-0.0136719,0.0507812,0.0644531,0.03125,0.0449219,0.1542969s-0.0322266,0.0917969,0,0.1757812
				s0.1748047,0.34375,0.1816406,0.4199219c0.0068359,0.078125,0.0449219,0.0527344,0.0517578,0.1230469
				c0.0068359,0.0722656,0.0449219,0.0976562,0.0449219,0.1503906c0,0.0507812,0.0458984,0.0644531,0.0517578,0.1035156
				c0.0068359,0.0390625,0.078125,0.0058594,0.0976562,0s0.1103516-0.0917969,0.1103516-0.0917969
				S11.3125,8.0712891,11.3056641,8.0068359c-0.0068359-0.0664062,0-0.0527344,0-0.1503906
				c0-0.0957031-0.0390625-0.0957031-0.0195312-0.1933594s0.0712891-0.15625,0.0839844-0.2011719
				c0.0136719-0.0449219,0.0654297-0.1230469,0.0908203-0.1289062c0.0263672-0.0078125,0.1689453-0.078125,0.2011719-0.125
				c0.0322266-0.0449219,0.0839844-0.0957031,0.1357422-0.1484375c0.0527344-0.0507812,0.1425781-0.1171875,0.1621094-0.0976562
				s0.0136719,0.0136719,0.0458984,0.0136719s0.0908203,0.0253906,0.1357422,0.0332031
				c0.0458984,0.0058594,0.1367188,0.1152344,0.15625,0.1738281C12.3164062,7.2412109,12.3037109,7.2275391,12.375,7.3134766
				c0.0712891,0.0839844,0.1367188,0.03125,0.1367188,0.1347656s0,0.0976562,0.0322266,0.1367188
				s0.0712891-0.0722656,0.109375-0.0585938c0.0390625,0.0136719,0.0458984-0.0136719,0.078125,0.0917969
				c0.0322266,0.1035156,0.0517578,0.1035156,0.0585938,0.2070312c0.0058594,0.1035156-0.0068359,0.0058594-0.0068359,0.0898438
				s-0.0058594,0.0917969,0.0068359,0.1679688c0.0126953,0.078125,0.0585938,0.1054688,0.0517578,0.1171875
				c0,0,0.0390625-0.109375,0.0253906-0.1875c-0.0126953-0.078125,0-0.1875,0.0332031-0.2207031
				c0.0322266-0.03125,0.0644531-0.0644531,0.0908203,0.0195312c0.0253906,0.0839844,0.0380859,0.0195312,0.0966797,0.1171875
				s0.1103516,0.078125,0.1171875,0.1230469c0.0009766,0.0078125,0.0029297,0.0136719,0.0048828,0.0175781
				c0.0390625-0.2519531,0.0605469-0.5117188,0.0654297-0.7734375c-0.0380859-0.0332031-0.0449219-0.0625,0.0009766-0.1289062
				c-0.0068359-1.7714844-0.8134766-3.3549805-2.078125-4.4067383c-0.0996094,0.0068359-0.1503906-0.0029297-0.1259766-0.0419922
				c0.0087891-0.0136719,0.0175781-0.0263672,0.0253906-0.0390625c-0.0625-0.0498047-0.1269531-0.0986328-0.1923828-0.1464844
				c-0.0117188,0-0.0244141-0.0009766-0.0400391-0.0029297C10.7480469,2.5170898,10.9296875,2.4848633,10.6904297,2.4907227z
				 M13.4023438,8.7006836C13.3320312,8.6557617,13.3125,8.6362305,13.2792969,8.597168
				c-0.0322266-0.0390625-0.0712891-0.1489258-0.1230469-0.1430664s-0.0839844-0.0253906-0.0839844-0.0253906l-0.0195312,0.0058594
				c0,0,0.0458984,0.059082,0.0644531,0.0844727c0.0195312,0.0253906,0.0136719,0.0644531,0.0585938,0.1113281
				c0.0458984,0.0449219,0.0517578,0.0839844,0.078125,0.0957031c0.0253906,0.0136719,0.0771484,0.1308594,0.0966797,0.1699219
				c0.015625,0.03125,0.0439453,0.0605469,0.0673828,0.0917969C13.4472656,8.9018555,13.4746094,8.8139648,13.5,8.7260742
				C13.4648438,8.7006836,13.4521484,8.7319336,13.4023438,8.7006836z"/>
			<path id="Circle1" style="fill-rule: evenodd; clip-rule: evenodd;" d="M7.5,1C3.9101562,1,1,3.9101562,1,7.5
				S3.9101562,14,7.5,14S14,11.0898438,14,7.5S11.0898438,1,7.5,1z M7.5,13C4.4624023,13,2,10.5380859,2,7.5
				C2,4.4624023,4.4624023,2,7.5,2C10.5380859,2,13,4.4624023,13,7.5C13,10.5380859,10.5380859,13,7.5,13z"/>
		</g>
	</g>
</svg>
