<?xml version="1.0" encoding="utf-8"?>
<!-- Generator: Adobe Illustrator 15.1.0, SVG Export Plug-In . SVG Version: 6.00 Build 0)  -->
<!DOCTYPE svg PUBLIC "-//W3C//DTD SVG 1.1//EN" "http://www.w3.org/Graphics/SVG/1.1/DTD/svg11.dtd">
<svg version="1.1" id="Ebene_1" xmlns="http://www.w3.org/2000/svg" xmlns:xlink="http://www.w3.org/1999/xlink" x="0px" y="0px" width="16px" height="16px" viewBox="0 0 16 16" enable-background="new 0 0 16 16" xml:space="preserve">
	<title>Globe</title>
	<desc>Globe Icon</desc>
	
	<!--
		@author		Harald Szekely
		@copyright	2001-2012 WoltLab GmbH 
		@license	GNU Lesser General Public License <http://opensource.org/licenses/lgpl-license.php> 
	--> 
	
	<defs>
		<style type="text/css">
			<![CDATA[
				.surface { fill: #666; }
				.shadow { fill: #fff; }
			]]>
		</style>
	</defs>
	
	<g id="IconGlobe">
		<g>
			<path id="Map2" class="shadow" d="M9.762,11.003l0.045,0.143c0,0,0,0.053,0,0.078s-0.006,0.051-0.02,0.078
				c-0.013,0.025-0.019,0.115-0.025,0.154S9.71,11.548,9.71,11.579c0,0.033-0.065,0.123-0.065,0.143s-0.064,0.105-0.058,0.123
				c0.006,0.02-0.026,0.105-0.02,0.176c0.006,0.072-0.052,0.059-0.052,0.059s-0.052,0.045-0.104,0.045
				c-0.053,0-0.078,0.02-0.078,0.02L9.25,12.015c0,0,0-0.137-0.007-0.182s0.025-0.059,0.059-0.072
				c0.032-0.012,0.052-0.078,0.052-0.129c0-0.053,0-0.092,0.006-0.109c0.007-0.02,0-0.092-0.02-0.15
				c-0.019-0.059,0.039-0.045,0.039-0.045s0.065-0.033,0.091-0.039c0.026-0.006,0.071-0.045,0.071-0.045l0.13-0.064
				C9.671,11.179,9.742,11.075,9.762,11.003z M11.19,3.491c-0.24,0.007-0.299,0.026-0.324,0.026c-0.026,0-0.059-0.052-0.123,0.025
				c-0.065,0.078-0.155,0.123-0.285,0.13s-0.137-0.013-0.26,0.032c-0.123,0.046-0.2-0.013-0.175,0.091
				c0.026,0.104,0.059,0.143,0.059,0.162s-0.059,0.149-0.13,0.071S9.751,3.647,9.81,3.854s0.188,0.278,0.065,0.311
				c-0.124,0.033-0.11-0.013-0.13-0.025s0-0.104-0.007-0.155c-0.006-0.052-0.02-0.085-0.045-0.11
				c-0.026-0.026-0.02-0.065-0.071-0.078S9.615,3.756,9.531,3.756S9.376,3.705,9.395,3.822c0.02,0.116,0.039,0.039,0.091,0.148
				c0.052,0.11,0.149,0.033,0.078,0.11C9.492,4.159,9.305,4.132,9.259,4.1C9.214,4.068,9.227,4.113,9.143,4.055
				C9.058,3.997,9.084,3.951,8.986,3.997C8.89,4.042,8.857,4.126,8.818,4.093C8.779,4.061,8.688,4.139,8.656,4.1
				s-0.162-0.039-0.188,0C8.442,4.139,8.364,4.132,8.254,4.184C8.145,4.236,8.177,4.191,8.04,4.301
				c-0.136,0.11-0.214,0.201-0.259,0.13C7.735,4.36,7.489,4.236,7.587,4.217c0.097-0.02,0.143-0.059,0.194-0.014
				c0.052,0.046,0.136,0.032,0.149,0C7.943,4.171,8.002,4.139,7.924,4.1S7.84,4.087,7.717,4.042c-0.124-0.045,0-0.032-0.169-0.058
				c-0.169-0.026-0.24-0.039-0.285-0.052c-0.045-0.014-0.11,0-0.175-0.007c-0.065-0.007-0.11-0.02-0.169-0.013
				C6.861,3.918,6.828,3.906,6.751,3.964C6.673,4.022,6.614,4.048,6.563,4.093C6.511,4.139,6.375,4.23,6.336,4.262
				S6.161,4.398,6.148,4.437C6.135,4.476,6.161,4.508,6.109,4.535C6.058,4.56,6.006,4.56,5.967,4.567s0-0.059-0.039,0.007
				C5.889,4.638,5.901,4.872,5.935,4.839C5.967,4.806,5.947,4.703,6.09,4.8c0.143,0.097,0.233,0.084,0.227,0.175
				s0.098,0.084,0.11,0.104s0.078-0.025,0.078-0.025s0.143-0.091,0.143-0.137c0-0.045,0.09-0.148,0.09-0.148S6.673,4.735,6.673,4.67
				s0.02-0.084,0.032-0.149c0.013-0.064-0.071,0,0.123-0.123S7.036,4.36,7.036,4.36s0.025,0.025-0.007,0.064S6.938,4.567,6.926,4.58
				s0.059,0.117,0.091,0.117s0.097-0.026,0.136-0.02c0.039,0.006,0.104-0.02,0.123-0.007s0.065,0.052,0.032,0.084
				C7.275,4.788,7.204,4.826,7.152,4.813s-0.13-0.104-0.084,0.026c0.045,0.129-0.007,0.162-0.046,0.155
				C6.984,4.988,6.899,4.923,6.913,5.021c0.013,0.097-0.085,0.161-0.104,0.161S6.751,5.176,6.751,5.176S6.692,5.169,6.66,5.169
				S6.563,5.202,6.543,5.228c-0.02,0.025-0.045,0.006-0.077,0.006c-0.033,0,0-0.038-0.065-0.052c-0.064-0.013-0.104-0.025-0.143,0
				c-0.039,0.026-0.097,0.039-0.123,0.02c-0.025-0.02,0.013-0.064-0.039-0.039C6.044,5.189,6.005,5.26,5.986,5.267
				c-0.02,0.006,0.058,0-0.02,0.006C5.889,5.28,5.856,5.299,5.817,5.312S5.83,5.403,5.759,5.429c-0.071,0.025-0.02-0.033-0.091,0.025
				s-0.084,0.11-0.109,0.117C5.532,5.578,5.539,5.59,5.48,5.597S5.429,5.61,5.396,5.617c-0.033,0.007,0.006,0.02-0.065,0.007
				C5.26,5.61,5.208,5.636,5.221,5.662c0.014,0.026,0.253,0.098,0.071,0.091C5.111,5.747,5.169,5.779,5.208,5.804
				c0.039,0.026,0.059,0.053,0.078,0.059c0.02,0.007,0.052,0.084,0.052,0.084s0.052-0.006,0.02,0.039
				C5.325,6.032,5.37,6.044,5.338,6.103s-0.032,0.02-0.059,0.033c-0.025,0.012-0.064,0.059-0.136,0.02S5.021,6.097,4.936,6.089
				C4.852,6.083,4.91,6.071,4.852,6.116S4.78,6.214,4.787,6.271C4.793,6.329,4.8,6.407,4.78,6.446s-0.02,0.078-0.006,0.137
				c0.013,0.059,0.052,0.084,0.052,0.084s0.091,0.012,0.109,0.02c0.02,0.006,0.059-0.014,0.11,0.02
				c0.052,0.031,0.104,0.045,0.137,0.006c0.032-0.039,0.162-0.084,0.2-0.123c0.039-0.039,0.065-0.053,0.046-0.09
				C5.409,6.46,5.468,6.362,5.5,6.343s0.104-0.039,0.104-0.039l0.078-0.117c0,0,0.064-0.07,0.097-0.064s0.214,0.072,0.201-0.014
				C5.967,6.024,5.992,5.999,6.012,6.032c0.02,0.031,0.071,0.02,0.071,0.02s0.026-0.014,0.046,0.006
				c0.019,0.02,0.045,0.104,0.084,0.123S6.284,6.22,6.31,6.231c0.026,0.014,0.052,0,0.104,0.047c0.052,0.045,0.104,0.07,0.109,0.09
				c0.007,0.02,0.052,0.064,0.052,0.064s0.046,0.014,0.033,0.039C6.595,6.499,6.53,6.575,6.498,6.589S6.381,6.575,6.414,6.603
				c0.032,0.025,0.077,0.059,0.097,0.039s0.143-0.15,0.143-0.15s-0.007,0.008,0-0.031s0-0.086,0.032-0.066s0.052,0.047,0.065,0.02
				c0.013-0.025,0.025-0.012-0.007-0.031s-0.11-0.131-0.149-0.137s-0.136-0.07-0.136-0.07s-0.02-0.02-0.064-0.072
				C6.349,6.052,6.336,6.063,6.323,6.019c-0.014-0.045-0.053-0.104,0.02-0.09c0.071,0.013,0.116,0.058,0.181,0.096
				c0.065,0.039,0.052,0.053,0.11,0.092s0.065,0.078,0.11,0.07c0.045-0.006,0.098,0.027,0.098,0.084c0,0.059,0.013,0.123,0.025,0.137
				s0.052,0.039,0.064,0.064C6.945,6.499,6.971,6.563,6.99,6.589s0.039,0.045,0.059,0.078c0.02,0.031,0.025-0.006,0.045,0.006
				c0.02,0.014,0.046,0.006,0.046-0.02s0.006-0.07,0.006-0.07s0.091-0.027,0.065-0.039C7.185,6.53,7.107,6.452,7.113,6.427
				c0.007-0.025,0-0.078,0.032-0.07c0.033,0.006,0.065,0.064,0.137,0.012c0.071-0.051,0.155-0.078,0.129,0
				c-0.025,0.078,0.007,0.092,0,0.176C7.405,6.628,7.438,6.603,7.483,6.647c0.045,0.045,0.077,0.051,0.109,0.064
				c0.033,0.014,0.085,0.006,0.137,0.014c0.052,0.006,0.084-0.02,0.129-0.008c0.046,0.014,0.149-0.006,0.169,0.008
				c0.02,0.012,0.098-0.027,0.104,0.02C8.138,6.79,8.163,6.737,8.144,6.841C8.125,6.946,8.099,7.017,8.099,7.017
				c-0.071,0.137-0.098,0.168-0.13,0.176c-0.032,0.006-0.052,0.025-0.11,0.02c-0.058-0.008-0.129,0-0.214-0.02
				c-0.084-0.02-0.239,0.02-0.304-0.02C7.275,7.134,7.185,7.165,7.146,7.12C7.107,7.075,7.042,7.081,7.017,7.056
				C6.99,7.03,6.978,6.958,6.978,7.062S6.919,7.173,6.906,7.224c-0.013,0.053,0.02,0.025-0.052,0.02S6.764,7.276,6.66,7.198
				C6.556,7.12,6.504,7.12,6.452,7.089C6.4,7.056,6.349,7.146,6.297,7.042s-0.123-0.02-0.13-0.104c-0.006-0.084,0-0.078,0.007-0.129
				c0.007-0.053,0.078-0.098,0.045-0.117c-0.032-0.02-0.006-0.051-0.052-0.031c-0.045,0.02-0.109,0.025-0.162,0.045
				c-0.052,0.02,0.117,0-0.136,0.02S5.545,6.771,5.545,6.771s-0.02-0.014-0.052,0.014C5.461,6.81,5.415,6.849,5.37,6.829
				S5.299,6.815,5.26,6.823c-0.039,0.006-0.064-0.033-0.11,0C5.104,6.854,5.053,6.868,5.033,6.854S4.981,6.79,4.981,6.79L4.884,6.919
				L4.819,6.983l-0.13,0.072L4.67,7.114c0,0-0.052,0.051-0.045,0.084c0.006,0.031,0.006,0.09,0.006,0.09s-0.09,0.084-0.129,0.111
				C4.463,7.425,4.411,7.483,4.411,7.483S4.379,7.522,4.359,7.534C4.34,7.548,4.308,7.587,4.281,7.626S4.229,7.69,4.217,7.71
				c-0.014,0.02-0.052,0.064-0.071,0.137c-0.02,0.07-0.071,0.154-0.071,0.154L4.061,8.034c0.007,0.109,0.007,0.129,0.02,0.168
				c0.014,0.039,0.026,0.025,0.014,0.111C4.08,8.397,4.08,8.429,4.067,8.468S4.016,8.579,4.003,8.61
				C3.989,8.644,4.028,8.702,4.028,8.702s0.02,0.084,0.007,0.104s0.007,0.059,0.007,0.059s0.077,0.045,0.104,0.07
				C4.171,8.96,4.217,8.999,4.223,9.019c0.007,0.02,0.059,0.111,0.065,0.131c0.006,0.02,0.058,0.09,0.071,0.109
				c0.013,0.02,0.077,0.092,0.077,0.092s0.085,0.064,0.104,0.09C4.56,9.466,4.618,9.479,4.638,9.5c0.02,0.02,0.064,0.012,0.091,0.031
				s0.078-0.012,0.104,0C4.858,9.545,4.93,9.52,4.949,9.506s0.064-0.06,0.097-0.04s0.052,0,0.078,0.008
				c0.025,0.006,0.064-0.027,0.091-0.027c0.025,0,0.091-0.025,0.11-0.025c0.019,0,0.084-0.039,0.109-0.039
				c0.026,0,0.059-0.025,0.091-0.014c0.032,0.014,0.02-0.025,0.078-0.006s0.078,0,0.097,0.02c0.02,0.02,0.046,0,0.065,0.025
				c0.02,0.027,0.052,0.047,0.059,0.072C5.83,9.506,5.869,9.531,5.869,9.531l0.039,0.008c0,0,0.052-0.039,0.064-0.014
				s0.071,0.02,0.071,0.02l0.059,0.064l0.02,0.025c0,0,0.039,0.105,0.032,0.143C6.147,9.816,6.147,9.902,6.128,9.92
				c-0.019,0.02-0.032,0.104-0.032,0.104S6.07,10.05,6.128,10.101c0.059,0.053,0.098,0.098,0.117,0.123
				c0.02,0.027,0.071,0.098,0.078,0.143c0.006,0.047,0.019,0.072,0.045,0.131s0.059,0.064,0.064,0.129
				c0.007,0.064,0.02,0.064,0.014,0.111c-0.007,0.045-0.026,0.051-0.007,0.084c0.02,0.031,0.045,0.09,0.039,0.109
				c-0.007,0.02-0.02,0.104-0.02,0.104l-0.013,0.039l-0.059,0.111l-0.039,0.057c-0.013,0.047-0.039,0.092-0.032,0.156
				s-0.032,0.064,0.02,0.129c0.052,0.066,0.077,0.137,0.11,0.195c0.032,0.059,0.052,0.117,0.058,0.156
				c0.007,0.037,0.033,0.051,0.046,0.104c0.013,0.051,0.02,0.076,0.02,0.109s-0.007,0.117,0.006,0.137
				c0.014,0.02,0.02,0.078,0.026,0.104s-0.02,0.031,0.02,0.078c0.039,0.045,0.064,0.07,0.091,0.104
				c0.025,0.031,0.02,0.02,0.039,0.064c0.019,0.045,0.045,0.07,0.052,0.109c0.006,0.039,0.013,0.137,0.032,0.182
				c0.02,0.047,0.045,0.092,0.045,0.092s0.071,0.045,0.098,0.039c0.025-0.008,0.077-0.066,0.116-0.047s0.071,0,0.104,0
				c0.033,0,0.065-0.037,0.098-0.037s0.078-0.053,0.104-0.039c0.026,0.012,0.059-0.014,0.091-0.047
				c0.032-0.031,0.052-0.057,0.11-0.109s0.052-0.053,0.091-0.084c0.039-0.033,0.078-0.104,0.123-0.117s0.059-0.059,0.071-0.09
				c0.013-0.033,0.02-0.053,0.039-0.078s0.006,0.006,0.039-0.078c0.032-0.084,0.071-0.117,0.104-0.137s0.052-0.059,0.071-0.064
				s0.052,0.02,0.039-0.039c-0.014-0.059,0-0.143-0.014-0.162c-0.013-0.02-0.032,0.045-0.025-0.051
				c0.007-0.098,0.077-0.195,0.077-0.195s0.098-0.123,0.13-0.143s0.039-0.039,0.084-0.064c0.046-0.025,0.143-0.09,0.143-0.123
				s0.039-0.117,0.039-0.137s0-0.039-0.013-0.148s0.013-0.084-0.026-0.188c-0.038-0.104-0.045-0.234-0.07-0.266
				c-0.026-0.033-0.014-0.117-0.014-0.143c0-0.027,0.046-0.092,0.065-0.117c0.019-0.025,0.104-0.129,0.104-0.129
				s0.13-0.15,0.175-0.22c0.045-0.072,0.091-0.137,0.123-0.162s0.11-0.084,0.155-0.15C9.155,9.57,9.246,9.446,9.252,9.427
				c0.007-0.02,0.059-0.084,0.059-0.084s0.071-0.084,0.084-0.129C9.408,9.169,9.473,8.915,9.46,8.929
				C9.446,8.94,9.369,8.954,9.343,8.96c-0.025,0.008,0.039,0.033-0.148,0.02c-0.188-0.012-0.285,0.02-0.285,0.02
				C8.851,8.987,8.805,9.052,8.785,8.96C8.767,8.87,8.753,8.817,8.714,8.753c-0.038-0.064-0.064-0.09-0.123-0.174
				C8.533,8.493,8.539,8.532,8.487,8.468S8.423,8.423,8.391,8.339C8.357,8.255,8.332,8.286,8.293,8.171
				C8.254,8.054,8.229,8.04,8.209,7.976S8.163,7.892,8.15,7.833S7.988,7.478,7.969,7.458S7.917,7.333,7.924,7.353
				c0.006,0.02,0.097,0.086,0.097,0.086s0.052-0.02,0.071-0.02s0.098,0.07,0.098,0.096c0,0.027,0.136,0.15,0.169,0.24
				C8.391,7.847,8.43,7.911,8.436,7.937c0.007,0.025,0.071,0.129,0.098,0.168c0.025,0.039,0.11,0.117,0.123,0.156
				s0.136,0.168,0.136,0.252c0,0.086,0.059,0.195,0.064,0.221C8.863,8.761,8.98,8.792,8.98,8.792l0.155-0.039
				c0,0,0.233-0.148,0.259-0.148c0.026,0,0.233-0.098,0.233-0.098s0.084-0.078,0.143-0.123s0.123-0.129,0.137-0.168
				c0.013-0.039,0.038-0.045,0.09-0.104c0.053-0.059,0.124-0.117,0.078-0.156c-0.045-0.039-0.071-0.025-0.136-0.09
				C9.874,7.8,9.881,7.813,9.836,7.729C9.79,7.646,9.842,7.548,9.745,7.646C9.647,7.743,9.687,7.769,9.589,7.788
				c-0.097,0.02-0.136,0.084-0.181,0.02C9.362,7.743,9.317,7.78,9.291,7.685C9.266,7.587,9.246,7.581,9.239,7.542
				s0-0.039-0.052-0.137s-0.013-0.246,0.02-0.162s0.084,0.098,0.168,0.156C9.46,7.458,9.499,7.503,9.576,7.509
				c0.078,0.006,0.143,0,0.155,0.014C9.745,7.534,9.758,7.515,9.79,7.528s0.046-0.02,0.059,0.033c0.013,0.051,0.084,0.057,0.116,0.09
				s0.032,0.02,0.117,0.033c0.084,0.012,0.201,0.012,0.201,0.012l0.123-0.006l0.143,0.014c0,0,0.104,0.057,0.129,0.057
				c0.026,0,0.032,0.072,0.098,0.111c0.064,0.039,0.077,0.045,0.116,0.09c0.039,0.047,0.033,0.066,0.085,0.111
				s0.136-0.008,0.148-0.025c0.013-0.02,0.078-0.053,0.065,0c-0.014,0.051,0.064,0.031,0.045,0.154s-0.032,0.092,0,0.176
				s0.175,0.344,0.182,0.42c0.007,0.078,0.045,0.053,0.052,0.123c0.007,0.072,0.045,0.098,0.045,0.15
				c0,0.051,0.046,0.064,0.052,0.104c0.007,0.039,0.078,0.006,0.098,0s0.11-0.092,0.11-0.092s0.039-0.012,0.032-0.076
				c-0.007-0.066,0-0.053,0-0.15c0-0.096-0.039-0.096-0.02-0.193s0.071-0.156,0.084-0.201c0.014-0.045,0.065-0.123,0.091-0.129
				c0.026-0.008,0.169-0.078,0.201-0.125c0.032-0.045,0.084-0.096,0.136-0.148c0.053-0.051,0.143-0.117,0.162-0.098
				s0.014,0.014,0.046,0.014s0.091,0.025,0.136,0.033c0.046,0.006,0.137,0.115,0.156,0.174c0.019,0.059,0.006,0.045,0.077,0.131
				c0.071,0.084,0.137,0.031,0.137,0.135s0,0.098,0.032,0.137s0.071-0.072,0.109-0.059c0.039,0.014,0.046-0.014,0.078,0.092
				c0.032,0.104,0.052,0.104,0.059,0.207c0.006,0.104-0.007,0.006-0.007,0.09s-0.006,0.092,0.007,0.168
				c0.013,0.078,0.059,0.105,0.052,0.117c0,0,0.039-0.109,0.025-0.188c-0.013-0.078,0-0.188,0.033-0.221
				c0.032-0.031,0.064-0.064,0.091,0.02c0.025,0.084,0.038,0.02,0.097,0.117s0.11,0.078,0.117,0.123
				c0.001,0.008,0.003,0.014,0.005,0.018c0.039-0.252,0.061-0.512,0.065-0.773c-0.038-0.033-0.045-0.063,0.001-0.129
				c-0.007-1.771-0.813-3.355-2.078-4.407c-0.1,0.007-0.15-0.003-0.126-0.042c0.009-0.014,0.018-0.026,0.025-0.039
				c-0.063-0.05-0.127-0.099-0.192-0.146c-0.012,0-0.024-0.001-0.04-0.003C11.248,3.517,11.43,3.485,11.19,3.491z M13.902,9.701
				c-0.07-0.045-0.09-0.064-0.123-0.104c-0.032-0.039-0.071-0.149-0.123-0.144s-0.084-0.025-0.084-0.025l-0.02,0.006
				c0,0,0.046,0.06,0.064,0.085c0.02,0.025,0.014,0.064,0.059,0.111c0.046,0.045,0.052,0.084,0.078,0.096
				c0.025,0.014,0.077,0.131,0.097,0.17c0.016,0.031,0.044,0.061,0.067,0.092C13.947,9.902,13.975,9.814,14,9.727
				C13.965,9.701,13.952,9.732,13.902,9.701z"/>
			<path id="Circle2" class="shadow" d="M8,2C4.41,2,1.5,4.91,1.5,8.5S4.41,15,8,15s6.5-2.91,6.5-6.5S11.59,2,8,2z M8,14
				c-3.038,0-5.5-2.462-5.5-5.5C2.5,5.462,4.962,3,8,3c3.038,0,5.5,2.462,5.5,5.5C13.5,11.538,11.038,14,8,14z"/>
		</g>
		<g>
			<path id="Map1" class="surface" d="M9.762,10.003l0.045,0.143c0,0,0,0.053,0,0.078s-0.006,0.051-0.02,0.078
				c-0.013,0.025-0.019,0.115-0.025,0.154S9.71,10.548,9.71,10.579c0,0.033-0.065,0.123-0.065,0.143s-0.064,0.105-0.058,0.123
				c0.006,0.02-0.026,0.105-0.02,0.176c0.006,0.072-0.052,0.059-0.052,0.059s-0.052,0.045-0.104,0.045
				c-0.053,0-0.078,0.02-0.078,0.02L9.25,11.015c0,0,0-0.137-0.007-0.182s0.025-0.059,0.059-0.072
				c0.032-0.012,0.052-0.078,0.052-0.129c0-0.053,0-0.092,0.006-0.109c0.007-0.02,0-0.092-0.02-0.15
				c-0.019-0.059,0.039-0.045,0.039-0.045s0.065-0.033,0.091-0.039c0.026-0.006,0.071-0.045,0.071-0.045l0.13-0.064
				C9.671,10.179,9.742,10.075,9.762,10.003z M11.19,2.491c-0.24,0.007-0.299,0.026-0.324,0.026c-0.026,0-0.059-0.052-0.123,0.025
				c-0.065,0.078-0.155,0.123-0.285,0.13s-0.137-0.013-0.26,0.032c-0.123,0.046-0.2-0.013-0.175,0.091
				c0.026,0.104,0.059,0.143,0.059,0.162s-0.059,0.149-0.13,0.071S9.751,2.647,9.81,2.854s0.188,0.278,0.065,0.311
				c-0.124,0.033-0.11-0.013-0.13-0.025s0-0.104-0.007-0.155c-0.006-0.052-0.02-0.085-0.045-0.11
				c-0.026-0.026-0.02-0.065-0.071-0.078S9.615,2.756,9.531,2.756S9.376,2.705,9.395,2.822c0.02,0.116,0.039,0.039,0.091,0.148
				c0.052,0.11,0.149,0.033,0.078,0.11C9.492,3.159,9.305,3.132,9.259,3.1C9.214,3.068,9.227,3.113,9.143,3.055
				C9.058,2.997,9.084,2.951,8.986,2.997C8.89,3.042,8.857,3.126,8.818,3.093C8.779,3.061,8.688,3.139,8.656,3.1
				s-0.162-0.039-0.188,0C8.442,3.139,8.364,3.132,8.254,3.184C8.145,3.236,8.177,3.191,8.04,3.301
				c-0.136,0.11-0.214,0.201-0.259,0.13C7.735,3.36,7.489,3.236,7.587,3.217c0.097-0.02,0.143-0.059,0.194-0.014
				c0.052,0.046,0.136,0.032,0.149,0C7.943,3.171,8.002,3.139,7.924,3.1S7.84,3.087,7.717,3.042c-0.124-0.045,0-0.032-0.169-0.058
				c-0.169-0.026-0.24-0.039-0.285-0.052c-0.045-0.014-0.11,0-0.175-0.007c-0.065-0.007-0.11-0.02-0.169-0.013
				C6.861,2.918,6.828,2.906,6.751,2.964C6.673,3.022,6.614,3.048,6.563,3.093C6.511,3.139,6.375,3.23,6.336,3.262
				S6.161,3.398,6.148,3.437C6.135,3.476,6.161,3.508,6.109,3.535C6.058,3.56,6.006,3.56,5.967,3.567s0-0.059-0.039,0.007
				C5.889,3.638,5.901,3.872,5.935,3.839C5.967,3.806,5.947,3.703,6.09,3.8c0.143,0.097,0.233,0.084,0.227,0.175
				s0.098,0.084,0.11,0.104s0.078-0.025,0.078-0.025s0.143-0.091,0.143-0.137c0-0.045,0.09-0.148,0.09-0.148S6.673,3.735,6.673,3.67
				s0.02-0.084,0.032-0.149c0.013-0.064-0.071,0,0.123-0.123S7.036,3.36,7.036,3.36s0.025,0.025-0.007,0.064S6.938,3.567,6.926,3.58
				s0.059,0.117,0.091,0.117s0.097-0.026,0.136-0.02c0.039,0.006,0.104-0.02,0.123-0.007s0.065,0.052,0.032,0.084
				C7.275,3.788,7.204,3.826,7.152,3.813s-0.13-0.104-0.084,0.026c0.045,0.129-0.007,0.162-0.046,0.155
				C6.984,3.988,6.899,3.923,6.913,4.021c0.013,0.097-0.085,0.161-0.104,0.161S6.751,4.176,6.751,4.176S6.692,4.169,6.66,4.169
				S6.563,4.202,6.543,4.228c-0.02,0.025-0.045,0.006-0.077,0.006c-0.033,0,0-0.038-0.065-0.052c-0.064-0.013-0.104-0.025-0.143,0
				c-0.039,0.026-0.097,0.039-0.123,0.02c-0.025-0.02,0.013-0.064-0.039-0.039C6.044,4.189,6.005,4.26,5.986,4.267
				c-0.02,0.006,0.058,0-0.02,0.006C5.889,4.28,5.856,4.299,5.817,4.312S5.83,4.403,5.759,4.429c-0.071,0.025-0.02-0.033-0.091,0.025
				s-0.084,0.11-0.109,0.117C5.532,4.578,5.539,4.59,5.48,4.597S5.429,4.61,5.396,4.617c-0.033,0.007,0.006,0.02-0.065,0.007
				C5.26,4.61,5.208,4.636,5.221,4.662c0.014,0.026,0.253,0.098,0.071,0.091C5.111,4.747,5.169,4.779,5.208,4.804
				c0.039,0.026,0.059,0.053,0.078,0.059c0.02,0.007,0.052,0.084,0.052,0.084s0.052-0.006,0.02,0.039
				C5.325,5.032,5.37,5.044,5.338,5.103s-0.032,0.02-0.059,0.033c-0.025,0.012-0.064,0.059-0.136,0.02S5.021,5.097,4.936,5.089
				C4.852,5.083,4.91,5.071,4.852,5.116S4.78,5.214,4.787,5.271C4.793,5.329,4.8,5.407,4.78,5.446s-0.02,0.078-0.006,0.137
				c0.013,0.059,0.052,0.084,0.052,0.084s0.091,0.012,0.109,0.02c0.02,0.006,0.059-0.014,0.11,0.02
				c0.052,0.031,0.104,0.045,0.137,0.006c0.032-0.039,0.162-0.084,0.2-0.123c0.039-0.039,0.065-0.053,0.046-0.09
				C5.409,5.46,5.468,5.362,5.5,5.343s0.104-0.039,0.104-0.039l0.078-0.117c0,0,0.064-0.07,0.097-0.064s0.214,0.072,0.201-0.014
				C5.967,5.024,5.992,4.999,6.012,5.032c0.02,0.031,0.071,0.02,0.071,0.02s0.026-0.014,0.046,0.006
				c0.019,0.02,0.045,0.104,0.084,0.123S6.284,5.22,6.31,5.231c0.026,0.014,0.052,0,0.104,0.047c0.052,0.045,0.104,0.07,0.109,0.09
				c0.007,0.02,0.052,0.064,0.052,0.064s0.046,0.014,0.033,0.039C6.595,5.499,6.53,5.575,6.498,5.589S6.381,5.575,6.414,5.603
				c0.032,0.025,0.077,0.059,0.097,0.039s0.143-0.15,0.143-0.15s-0.007,0.008,0-0.031s0-0.086,0.032-0.066s0.052,0.047,0.065,0.02
				c0.013-0.025,0.025-0.012-0.007-0.031s-0.11-0.131-0.149-0.137s-0.136-0.07-0.136-0.07s-0.02-0.02-0.064-0.072
				C6.349,5.052,6.336,5.063,6.323,5.019c-0.014-0.045-0.053-0.104,0.02-0.09c0.071,0.013,0.116,0.058,0.181,0.096
				c0.065,0.039,0.052,0.053,0.11,0.092s0.065,0.078,0.11,0.07c0.045-0.006,0.098,0.027,0.098,0.084c0,0.059,0.013,0.123,0.025,0.137
				s0.052,0.039,0.064,0.064C6.945,5.499,6.971,5.563,6.99,5.589s0.039,0.045,0.059,0.078c0.02,0.031,0.025-0.006,0.045,0.006
				c0.02,0.014,0.046,0.006,0.046-0.02s0.006-0.07,0.006-0.07s0.091-0.027,0.065-0.039C7.185,5.53,7.107,5.452,7.113,5.427
				c0.007-0.025,0-0.078,0.032-0.07c0.033,0.006,0.065,0.064,0.137,0.012c0.071-0.051,0.155-0.078,0.129,0
				c-0.025,0.078,0.007,0.092,0,0.176C7.405,5.628,7.438,5.603,7.483,5.647c0.045,0.045,0.077,0.051,0.109,0.064
				c0.033,0.014,0.085,0.006,0.137,0.014c0.052,0.006,0.084-0.02,0.129-0.008c0.046,0.014,0.149-0.006,0.169,0.008
				c0.02,0.012,0.098-0.027,0.104,0.02C8.138,5.79,8.163,5.737,8.144,5.841C8.125,5.946,8.099,6.017,8.099,6.017
				c-0.071,0.137-0.098,0.168-0.13,0.176c-0.032,0.006-0.052,0.025-0.11,0.02c-0.058-0.008-0.129,0-0.214-0.02
				c-0.084-0.02-0.239,0.02-0.304-0.02C7.275,6.134,7.185,6.165,7.146,6.12C7.107,6.075,7.042,6.081,7.017,6.056
				C6.99,6.03,6.978,5.958,6.978,6.062S6.919,6.173,6.906,6.224c-0.013,0.053,0.02,0.025-0.052,0.02S6.764,6.276,6.66,6.198
				C6.556,6.12,6.504,6.12,6.452,6.089C6.4,6.056,6.349,6.146,6.297,6.042s-0.123-0.02-0.13-0.104c-0.006-0.084,0-0.078,0.007-0.129
				c0.007-0.053,0.078-0.098,0.045-0.117c-0.032-0.02-0.006-0.051-0.052-0.031c-0.045,0.02-0.109,0.025-0.162,0.045
				c-0.052,0.02,0.117,0-0.136,0.02S5.545,5.771,5.545,5.771s-0.02-0.014-0.052,0.014C5.461,5.81,5.415,5.849,5.37,5.829
				S5.299,5.815,5.26,5.823c-0.039,0.006-0.064-0.033-0.11,0C5.104,5.854,5.053,5.868,5.033,5.854S4.981,5.79,4.981,5.79L4.884,5.919
				L4.819,5.983l-0.13,0.072L4.67,6.114c0,0-0.052,0.051-0.045,0.084c0.006,0.031,0.006,0.09,0.006,0.09s-0.09,0.084-0.129,0.111
				C4.463,6.425,4.411,6.483,4.411,6.483S4.379,6.522,4.359,6.534C4.34,6.548,4.308,6.587,4.281,6.626S4.229,6.69,4.217,6.71
				c-0.014,0.02-0.052,0.064-0.071,0.137c-0.02,0.07-0.071,0.154-0.071,0.154L4.061,7.034c0.007,0.109,0.007,0.129,0.02,0.168
				c0.014,0.039,0.026,0.025,0.014,0.111C4.08,7.397,4.08,7.429,4.067,7.468S4.016,7.579,4.003,7.61
				C3.989,7.644,4.028,7.702,4.028,7.702s0.02,0.084,0.007,0.104s0.007,0.059,0.007,0.059s0.077,0.045,0.104,0.07
				C4.171,7.96,4.217,7.999,4.223,8.019c0.007,0.02,0.059,0.111,0.065,0.131c0.006,0.02,0.058,0.09,0.071,0.109
				c0.013,0.02,0.077,0.092,0.077,0.092s0.085,0.064,0.104,0.09C4.56,8.466,4.618,8.479,4.638,8.5s0.064,0.012,0.091,0.032
				s0.078-0.012,0.104,0C4.858,8.545,4.93,8.52,4.949,8.506c0.02-0.014,0.064-0.06,0.097-0.04s0.052,0,0.078,0.008
				c0.025,0.006,0.064-0.027,0.091-0.027c0.025,0,0.091-0.025,0.11-0.025c0.019,0,0.084-0.039,0.109-0.039
				c0.026,0,0.059-0.025,0.091-0.014c0.032,0.014,0.02-0.025,0.078-0.006s0.078,0,0.097,0.02c0.02,0.02,0.046,0,0.065,0.025
				c0.02,0.027,0.052,0.047,0.059,0.072C5.83,8.506,5.869,8.531,5.869,8.531l0.039,0.008c0,0,0.052-0.04,0.064-0.014
				c0.013,0.025,0.071,0.02,0.071,0.02l0.059,0.064l0.02,0.025c0,0,0.039,0.105,0.032,0.143C6.147,8.816,6.147,8.902,6.128,8.92
				c-0.019,0.02-0.032,0.104-0.032,0.104S6.07,9.05,6.128,9.101c0.059,0.053,0.098,0.098,0.117,0.123
				c0.02,0.027,0.071,0.098,0.078,0.143c0.006,0.047,0.019,0.072,0.045,0.131s0.059,0.064,0.064,0.129
				C6.439,9.69,6.452,9.69,6.446,9.737C6.439,9.782,6.42,9.788,6.439,9.821c0.02,0.031,0.045,0.09,0.039,0.109
				c-0.007,0.02-0.02,0.104-0.02,0.104l-0.013,0.039l-0.059,0.111l-0.039,0.057c-0.013,0.047-0.039,0.092-0.032,0.156
				s-0.032,0.064,0.02,0.129c0.052,0.066,0.077,0.137,0.11,0.195c0.032,0.059,0.052,0.117,0.058,0.156
				c0.007,0.037,0.033,0.051,0.046,0.104c0.013,0.051,0.02,0.076,0.02,0.109s-0.007,0.117,0.006,0.137
				c0.014,0.02,0.02,0.078,0.026,0.104s-0.02,0.031,0.02,0.078c0.039,0.045,0.064,0.07,0.091,0.104
				c0.025,0.031,0.02,0.02,0.039,0.064c0.019,0.045,0.045,0.07,0.052,0.109c0.006,0.039,0.013,0.137,0.032,0.182
				c0.02,0.047,0.045,0.092,0.045,0.092s0.071,0.045,0.098,0.039c0.025-0.008,0.077-0.066,0.116-0.047s0.071,0,0.104,0
				c0.033,0,0.065-0.037,0.098-0.037s0.078-0.053,0.104-0.039c0.026,0.012,0.059-0.014,0.091-0.047
				c0.032-0.031,0.052-0.057,0.11-0.109s0.052-0.053,0.091-0.084c0.039-0.033,0.078-0.104,0.123-0.117s0.059-0.059,0.071-0.09
				c0.013-0.033,0.02-0.053,0.039-0.078s0.006,0.006,0.039-0.078c0.032-0.084,0.071-0.117,0.104-0.137s0.052-0.059,0.071-0.064
				s0.052,0.02,0.039-0.039c-0.014-0.059,0-0.143-0.014-0.162c-0.013-0.02-0.032,0.045-0.025-0.051
				c0.007-0.098,0.077-0.195,0.077-0.195s0.098-0.123,0.13-0.143s0.039-0.039,0.084-0.064c0.046-0.025,0.143-0.09,0.143-0.123
				s0.039-0.117,0.039-0.137s0-0.039-0.013-0.148S8.61,9.925,8.571,9.821c-0.038-0.104-0.045-0.234-0.07-0.266
				C8.475,9.522,8.487,9.438,8.487,9.413c0-0.027,0.046-0.092,0.065-0.117c0.019-0.025,0.104-0.129,0.104-0.129s0.13-0.15,0.175-0.22
				c0.045-0.072,0.091-0.137,0.123-0.162s0.11-0.084,0.155-0.15C9.155,8.57,9.246,8.446,9.252,8.427
				c0.007-0.02,0.059-0.084,0.059-0.084s0.071-0.084,0.084-0.129C9.408,8.169,9.473,7.915,9.46,7.929
				C9.446,7.94,9.369,7.954,9.343,7.96c-0.025,0.008,0.039,0.033-0.148,0.02c-0.188-0.012-0.285,0.02-0.285,0.02
				C8.851,7.987,8.805,8.052,8.785,7.96C8.767,7.87,8.753,7.817,8.714,7.753c-0.038-0.064-0.064-0.09-0.123-0.174
				C8.533,7.493,8.539,7.532,8.487,7.468S8.423,7.423,8.391,7.339C8.357,7.255,8.332,7.286,8.293,7.171
				C8.254,7.054,8.229,7.04,8.209,6.976S8.163,6.892,8.15,6.833S7.988,6.478,7.969,6.458S7.917,6.333,7.924,6.353
				c0.006,0.02,0.097,0.086,0.097,0.086s0.052-0.02,0.071-0.02s0.098,0.07,0.098,0.096c0,0.027,0.136,0.15,0.169,0.24
				C8.391,6.847,8.43,6.911,8.436,6.937c0.007,0.025,0.071,0.129,0.098,0.168c0.025,0.039,0.11,0.117,0.123,0.156
				s0.136,0.168,0.136,0.252c0,0.086,0.059,0.195,0.064,0.221C8.863,7.761,8.98,7.792,8.98,7.792l0.155-0.039
				c0,0,0.233-0.148,0.259-0.148c0.026,0,0.233-0.098,0.233-0.098s0.084-0.078,0.143-0.123s0.123-0.129,0.137-0.168
				c0.013-0.039,0.038-0.045,0.09-0.104c0.053-0.059,0.124-0.117,0.078-0.156c-0.045-0.039-0.071-0.025-0.136-0.09
				C9.874,6.8,9.881,6.813,9.836,6.729C9.79,6.646,9.842,6.548,9.745,6.646C9.647,6.743,9.687,6.769,9.589,6.788
				c-0.097,0.02-0.136,0.084-0.181,0.02C9.362,6.743,9.317,6.78,9.291,6.685C9.266,6.587,9.246,6.581,9.239,6.542
				s0-0.039-0.052-0.137s-0.013-0.246,0.02-0.162s0.084,0.098,0.168,0.156C9.46,6.458,9.499,6.503,9.576,6.509
				c0.078,0.006,0.143,0,0.155,0.014C9.745,6.534,9.758,6.515,9.79,6.528s0.046-0.02,0.059,0.033c0.013,0.051,0.084,0.057,0.116,0.09
				s0.032,0.02,0.117,0.033c0.084,0.012,0.201,0.012,0.201,0.012l0.123-0.006l0.143,0.014c0,0,0.104,0.057,0.129,0.057
				c0.026,0,0.032,0.072,0.098,0.111c0.064,0.039,0.077,0.045,0.116,0.09c0.039,0.047,0.033,0.066,0.085,0.111
				s0.136-0.008,0.148-0.025c0.013-0.02,0.078-0.053,0.065,0c-0.014,0.051,0.064,0.031,0.045,0.154s-0.032,0.092,0,0.176
				s0.175,0.344,0.182,0.42c0.007,0.078,0.045,0.053,0.052,0.123c0.007,0.072,0.045,0.098,0.045,0.15
				c0,0.051,0.046,0.064,0.052,0.104c0.007,0.039,0.078,0.006,0.098,0s0.11-0.092,0.11-0.092s0.039-0.012,0.032-0.076
				c-0.007-0.066,0-0.053,0-0.15c0-0.096-0.039-0.096-0.02-0.193s0.071-0.156,0.084-0.201c0.014-0.045,0.065-0.123,0.091-0.129
				c0.026-0.008,0.169-0.078,0.201-0.125c0.032-0.045,0.084-0.096,0.136-0.148c0.053-0.051,0.143-0.117,0.162-0.098
				s0.014,0.014,0.046,0.014s0.091,0.025,0.136,0.033c0.046,0.006,0.137,0.115,0.156,0.174c0.019,0.059,0.006,0.045,0.077,0.131
				c0.071,0.084,0.137,0.031,0.137,0.135s0,0.098,0.032,0.137s0.071-0.072,0.109-0.059c0.039,0.014,0.046-0.014,0.078,0.092
				c0.032,0.104,0.052,0.104,0.059,0.207c0.006,0.104-0.007,0.006-0.007,0.09s-0.006,0.092,0.007,0.168
				c0.013,0.078,0.059,0.105,0.052,0.117c0,0,0.039-0.109,0.025-0.188c-0.013-0.078,0-0.188,0.033-0.221
				c0.032-0.031,0.064-0.064,0.091,0.02c0.025,0.084,0.038,0.02,0.097,0.117s0.11,0.078,0.117,0.123
				c0.001,0.008,0.003,0.014,0.005,0.018c0.039-0.252,0.061-0.512,0.065-0.773c-0.038-0.033-0.045-0.063,0.001-0.129
				c-0.007-1.771-0.813-3.355-2.078-4.407c-0.1,0.007-0.15-0.003-0.126-0.042c0.009-0.014,0.018-0.026,0.025-0.039
				c-0.063-0.05-0.127-0.099-0.192-0.146c-0.012,0-0.024-0.001-0.04-0.003C11.248,2.517,11.43,2.485,11.19,2.491z M13.902,8.701
				c-0.07-0.045-0.09-0.064-0.123-0.104c-0.032-0.039-0.071-0.149-0.123-0.144s-0.084-0.025-0.084-0.025l-0.02,0.006
				c0,0,0.046,0.059,0.064,0.085c0.02,0.025,0.014,0.064,0.059,0.111c0.046,0.045,0.052,0.084,0.078,0.096
				c0.025,0.014,0.077,0.131,0.097,0.17c0.016,0.031,0.044,0.061,0.067,0.092C13.947,8.902,13.975,8.814,14,8.727
				C13.965,8.701,13.952,8.732,13.902,8.701z"/>
			<path id="Circle1" class="surface" d="M8,1C4.41,1,1.5,3.91,1.5,7.5S4.41,14,8,14s6.5-2.91,6.5-6.5S11.59,1,8,1z M8,13
				c-3.038,0-5.5-2.462-5.5-5.5C2.5,4.462,4.962,2,8,2c3.038,0,5.5,2.462,5.5,5.5C13.5,10.538,11.038,13,8,13z"/>
		</g>
	</g>
</svg>
