<?xml version="1.0" encoding="utf-8"?>
<!--<?xml-stylesheet type="text/css" href="svg.css"?>-->
<!DOCTYPE svg PUBLIC "-//W3C//DTD SVG 1.1//EN" "http://www.w3.org/Graphics/SVG/1.1/DTD/svg11.dtd">
<svg version="1.1" xmlns="http://www.w3.org/2000/svg" xmlns:xlink="http://www.w3.org/1999/xlink" x="0px" y="0px" width="16px" height="16px" viewBox="0 0 16 16" xml:space="preserve">
	
	<title>Handle</title>
	<desc>Handle Icon/Indicator For Draggable Elements</desc>
	
	<!--
		@author		Harald Szekely 
		@copyright	2011 WoltLab GmbH 
		@license	GNU Lesser General Public License <http://opensource.org/licenses/lgpl-license.php> 
	--> 
	
	<defs>
		<style type="text/css">
			<![CDATA[
				.Upper1 {fill: #666;}
				.Lower1 {fill: #fff;}
			]]>
		</style>
	</defs>
	
	<g id="IconHandle">
		<path class="Lower1" style="fill: #fff;" d="M3,2.9995117c0,0.5522461-0.4477539,1-1,1s-1-0.4477539-1-1s0.4477539-1,1-1
			S3,2.4472656,3,2.9995117z M5.9868164,1.9995117c-0.5522461,0-1,0.4477539-1,1s0.4477539,1,1,1s1-0.4477539,1-1
			S6.5390625,1.9995117,5.9868164,1.9995117z M10,1.9995117c-0.5527344,0-1,0.4477539-1,1s0.4472656,1,1,1s1-0.4477539,1-1
			S10.5527344,1.9995117,10,1.9995117z M14,1.9995117c-0.5527344,0-1,0.4477539-1,1s0.4472656,1,1,1s1-0.4477539,1-1
			S14.5527344,1.9995117,14,1.9995117z M2,5.9995117c-0.5522461,0-1,0.4477539-1,1s0.4477539,1,1,1s1-0.4477539,1-1
			S2.5522461,5.9995117,2,5.9995117z M5.9868164,5.9995117c-0.5522461,0-1,0.4477539-1,1s0.4477539,1,1,1s1-0.4477539,1-1
			S6.5390625,5.9995117,5.9868164,5.9995117z M10,5.9995117c-0.5527344,0-1,0.4477539-1,1s0.4472656,1,1,1s1-0.4477539,1-1
			S10.5527344,5.9995117,10,5.9995117z M14,5.9995117c-0.5527344,0-1,0.4477539-1,1s0.4472656,1,1,1s1-0.4477539,1-1
			S14.5527344,5.9995117,14,5.9995117z M2,9.9990234c-0.5522461,0-1,0.4482422-1,1.0009766c0,0.5507812,0.4477539,1,1,1
			s1-0.4492188,1-1C3,10.4472656,2.5522461,9.9990234,2,9.9990234z M5.9868164,9.9990234c-0.5522461,0-1,0.4482422-1,1.0009766
			c0,0.5507812,0.4477539,1,1,1s1-0.4492188,1-1C6.9868164,10.4472656,6.5390625,9.9990234,5.9868164,9.9990234z M10,9.9990234
			c-0.5527344,0-1,0.4482422-1,1.0009766c0,0.5507812,0.4472656,1,1,1s1-0.4492188,1-1
			C11,10.4472656,10.5527344,9.9990234,10,9.9990234z M14,9.9990234c-0.5527344,0-1,0.4482422-1,1.0009766
			c0,0.5507812,0.4472656,1,1,1s1-0.4492188,1-1C15,10.4472656,14.5527344,9.9990234,14,9.9990234z M2,14
			c-0.5522461,0-1,0.4472656-1,1c0,0.5507812,0.4477539,1,1,1s1-0.4492188,1-1C3,14.4472656,2.5522461,14,2,14z M5.9868164,14
			c-0.5522461,0-1,0.4472656-1,1c0,0.5507812,0.4477539,1,1,1s1-0.4492188,1-1C6.9868164,14.4472656,6.5390625,14,5.9868164,14z
			 M10,14c-0.5527344,0-1,0.4472656-1,1c0,0.5507812,0.4472656,1,1,1s1-0.4492188,1-1C11,14.4472656,10.5527344,14,10,14z M14,14
			c-0.5527344,0-1,0.4472656-1,1c0,0.5507812,0.4472656,1,1,1s1-0.4492188,1-1C15,14.4472656,14.5527344,14,14,14z"/>
		<path class="Upper1" style="fill: #666;" d="M3,2c0,0.5522461-0.4477539,1-1,1S1,2.5522461,1,2s0.4477539-1,1-1S3,1.4477539,3,2z
			 M5.9868164,1c-0.5522461,0-1,0.4477539-1,1s0.4477539,1,1,1s1-0.4477539,1-1S6.5390625,1,5.9868164,1z M10,1
			C9.4472656,1,9,1.4477539,9,2s0.4472656,1,1,1s1-0.4477539,1-1S10.5527344,1,10,1z M14,1c-0.5527344,0-1,0.4477539-1,1
			s0.4472656,1,1,1s1-0.4477539,1-1S14.5527344,1,14,1z M2,5C1.4477539,5,1,5.4477539,1,6s0.4477539,1,1,1s1-0.4477539,1-1
			S2.5522461,5,2,5z M5.9868164,5c-0.5522461,0-1,0.4477539-1,1s0.4477539,1,1,1s1-0.4477539,1-1S6.5390625,5,5.9868164,5z M10,5
			C9.4472656,5,9,5.4477539,9,6s0.4472656,1,1,1s1-0.4477539,1-1S10.5527344,5,10,5z M14,5c-0.5527344,0-1,0.4477539-1,1
			s0.4472656,1,1,1s1-0.4477539,1-1S14.5527344,5,14,5z M2,8.9995117c-0.5522461,0-1,0.4477539-1,1.0004883
			c0,0.5517578,0.4477539,1,1,1s1-0.4482422,1-1C3,9.4472656,2.5522461,8.9995117,2,8.9995117z M5.9868164,8.9995117
			c-0.5522461,0-1,0.4477539-1,1.0004883c0,0.5517578,0.4477539,1,1,1s1-0.4482422,1-1
			C6.9868164,9.4472656,6.5390625,8.9995117,5.9868164,8.9995117z M10,8.9995117c-0.5527344,0-1,0.4477539-1,1.0004883
			c0,0.5517578,0.4472656,1,1,1s1-0.4482422,1-1C11,9.4472656,10.5527344,8.9995117,10,8.9995117z M14,8.9995117
			c-0.5527344,0-1,0.4477539-1,1.0004883c0,0.5517578,0.4472656,1,1,1s1-0.4482422,1-1
			C15,9.4472656,14.5527344,8.9995117,14,8.9995117z M2,13c-0.5522461,0-1,0.4472656-1,1c0,0.5517578,0.4477539,1,1,1
			s1-0.4482422,1-1C3,13.4472656,2.5522461,13,2,13z M5.9868164,13c-0.5522461,0-1,0.4472656-1,1c0,0.5517578,0.4477539,1,1,1
			s1-0.4482422,1-1C6.9868164,13.4472656,6.5390625,13,5.9868164,13z M10,13c-0.5527344,0-1,0.4472656-1,1
			c0,0.5517578,0.4472656,1,1,1s1-0.4482422,1-1C11,13.4472656,10.5527344,13,10,13z M14,13c-0.5527344,0-1,0.4472656-1,1
			c0,0.5517578,0.4472656,1,1,1s1-0.4482422,1-1C15,13.4472656,14.5527344,13,14,13z"/>
	</g>
</svg>
