<?xml version="1.0" encoding="utf-8"?>
<!-- Generator: Adobe Illustrator 15.1.0, SVG Export Plug-In . SVG Version: 6.00 Build 0)  -->
<!DOCTYPE svg PUBLIC "-//W3C//DTD SVG 1.1//EN" "http://www.w3.org/Graphics/SVG/1.1/DTD/svg11.dtd">
<svg version="1.1" id="Ebene_1" xmlns="http://www.w3.org/2000/svg" xmlns:xlink="http://www.w3.org/1999/xlink" x="0px" y="0px" width="16px" height="16px" viewBox="0 0 16 16" enable-background="new 0 0 16 16" xml:space="preserve">
	<title>Hand Stop</title>
	<desc>Hand Stop Icon</desc>
	
	<!--
		@author		Harald Szekely
		@copyright	2001-2012 WoltLab GmbH 
		@license	GNU Lesser General Public License <http://opensource.org/licenses/lgpl-license.php> 
	--> 
	
	<defs>
		<style type="text/css">
			<![CDATA[
				.surface { fill: #666; }
				.shadow { fill: #fff; }
			]]>
		</style>
	</defs>
	
	<g id="IconModeration">
		<path class="shadow" opacity=".8" d="M2.955,10.707c0,0-0.546-1.515-0.734-1.76c0,0-0.652-1.261-0.59-1.418c0,0-0.458-0.702,0.346-0.792
			c0,0,1.088-0.152,1.608,1.396c0,0,0.151,0.367,0.239,0.463c0,0,0.533,1.314,0.747,1.241c0,0,0.805-0.377,0.893-0.998
			c0,0,0.07-0.988,0.158-1.038c0,0,0.057-0.327-0.006-0.601c0,0-0.063-0.987-0.025-1.111c0,0-0.011-1.344,0.064-1.447
			c0,0,0.075-0.246,0.032-0.58c0,0,0.096-1.453,0.58-1.501c0,0,0.904-0.37,0.76,1.009L6.936,4.049c0,0-0.083,0.504,0,0.715
			c0,0,0.188,0.819,0.149,1.085c0,0,0.139,1.03,0.119,1.234c0,0-0.006,0.403,0.263,0.43c0,0,0.152,0.225,0.189-0.472
			c0,0,0.051-1.357,0.171-1.412c0,0,0.188-1.617,0.371-1.686c0,0,0.22-1.194,0.309-1.242c0,0,0.12-0.771,0.963-0.697
			c0,0,0.544,0.368,0.167,1.166c0,0-0.183,1.072-0.151,1.209c0,0-0.088,1.193-0.15,1.351c0,0-0.02,1.78-0.115,1.943
			c0,0,0.17,0.451,0.37-0.253c0,0,0.26-0.886,0.509-1.229c0,0,0.328-1.015,0.412-1.092c0,0,0.037-0.409,0.112-0.655
			c0,0,0.02-1.351,0.681-1.352c0,0,0.759-0.138,0.575,0.934c0,0-0.105,0.827-0.221,1.051c0,0-0.149,1.637-0.333,1.85
			c0,0-0.585,1.763-0.534,1.837c0,0,0.444,0.502,0.735-0.104c0,0,0.308-0.384,0.528-0.576c0,0,0.603-0.676,0.74-0.935
			c0,0,0.334-0.417,0.422-0.75c0,0,0.503-1.113,0.98-0.902c0,0,0.836,0.189-0.27,1.835c0,0-0.649,1.06-0.768,1.258
			c0,0-0.962,1.412-0.988,1.59c0,0-0.874,2.369-0.837,2.531c0,0-0.579,1.066-1.257,1.703c0,0-0.906,0.81-2.389,0.522l-1.031,0.03
			c0,0-1.487-0.221-1.877-0.909C4.781,14.06,3.306,12.234,2.955,10.707z"/>
		<path class="surface" d="M2.954,9.706c0,0-0.545-1.513-0.733-1.759c0,0-0.653-1.262-0.591-1.418c0,0-0.458-0.702,0.346-0.792
			c0,0,1.087-0.153,1.608,1.396c0,0,0.151,0.368,0.238,0.463c0,0,0.534,1.317,0.748,1.241c0,0,0.804-0.376,0.892-0.998
			c0,0,0.069-0.989,0.158-1.037c0,0,0.056-0.329-0.006-0.601c0,0-0.063-0.989-0.025-1.112c0,0-0.011-1.344,0.064-1.447
			c0,0,0.075-0.246,0.031-0.58c0,0,0.096-1.453,0.58-1.502c0,0,0.905-0.369,0.76,1.009L6.936,3.049c0,0-0.083,0.504,0,0.716
			c0,0,0.188,0.819,0.149,1.085c0,0,0.139,1.03,0.12,1.235c0,0-0.006,0.403,0.263,0.43c0,0,0.152,0.225,0.19-0.472
			c0,0,0.05-1.357,0.169-1.413c0,0,0.189-1.617,0.373-1.685c0,0,0.22-1.194,0.308-1.242c0,0,0.12-0.771,0.963-0.698
			c0,0,0.545,0.368,0.168,1.166c0,0-0.183,1.072-0.152,1.21c0,0-0.088,1.193-0.15,1.35c0,0-0.02,1.781-0.115,1.944
			c0,0,0.17,0.451,0.372-0.253c0,0,0.259-0.886,0.51-1.229c0,0,0.327-1.016,0.409-1.091c0,0,0.037-0.409,0.113-0.655
			c0,0,0.02-1.351,0.679-1.351c0,0,0.762-0.139,0.576,0.933c0,0-0.104,0.827-0.22,1.051c0,0-0.15,1.638-0.333,1.85
			c0,0-0.585,1.762-0.534,1.837c0,0,0.444,0.502,0.734-0.104c0,0,0.309-0.383,0.528-0.576c0,0,0.603-0.675,0.741-0.935
			c0,0,0.333-0.416,0.423-0.75c0,0,0.501-1.113,0.98-0.902c0,0,0.834,0.189-0.271,1.835c0,0-0.648,1.059-0.768,1.257
			c0,0-0.963,1.414-0.988,1.592c0,0-0.873,2.368-0.836,2.532c0,0-0.579,1.065-1.258,1.702c0,0-0.905,0.809-2.388,0.521L6.658,13.97
			c0,0-1.488-0.221-1.877-0.909C4.781,13.061,3.306,11.234,2.954,9.706z"/>
	</g>
</svg>
