<?xml version="1.0" encoding="utf-8"?>
<!--<?xml-stylesheet type="text/css" href="svg.css"?>-->
<!DOCTYPE svg PUBLIC "-//W3C//DTD SVG 1.1//EN" "http://www.w3.org/Graphics/SVG/1.1/DTD/svg11.dtd">
<svg version="1.1" xmlns="http://www.w3.org/2000/svg" xmlns:xlink="http://www.w3.org/1999/xlink" x="0px" y="0px" width="16px" height="16px" viewBox="0 0 16 16" xml:space="preserve">
	
	<title>Moderation</title>
	<desc>Moderation Icon</desc>
	
	<!--
		@author		Harald Szekely 
		@copyright	2011 WoltLab GmbH 
		@license	GNU Lesser General Public License <http://opensource.org/licenses/lgpl-license.php> 
	--> 
	
	<defs>
		<style type="text/css">
			<![CDATA[
				.Upper1 {fill: #666;}
				.Lower1 {fill: #fff;}
			]]>
		</style>
	</defs>
	
	<g id="IconModeration">
		<path class="Lower1" style="fill-rule: evenodd; clip-rule: evenodd;" d="M2.4545898,10.7070312
			c0,0-0.5458984-1.5146484-0.734375-1.7602539c0,0-0.6523438-1.2607422-0.590332-1.4174805
			c0,0-0.4584961-0.7021484,0.3457031-0.7924805c0,0,1.0878906-0.1518555,1.6079102,1.3964844
			c0,0,0.1508789,0.3671875,0.2392578,0.4633789c0,0,0.5332031,1.3144531,0.746582,1.2412109
			c0,0,0.8046875-0.3769531,0.8925781-0.9980469c0,0,0.0698242-0.9882812,0.1577148-1.0375977
			c0,0,0.0571289-0.3271484-0.0058594-0.6005859c0,0-0.0625-0.9873047-0.0249023-1.1108398
			c0,0-0.0112305-1.3442383,0.0639648-1.4467773c0,0,0.074707-0.2460938,0.0317383-0.5800781
			c0,0,0.0957031-1.4526367,0.5795898-1.5014648c0,0,0.9038086-0.3696289,0.7602539,1.0087891L6.4360352,4.0493164
			c0,0-0.0830078,0.5039062-0.0004883,0.715332c0,0,0.1875,0.8188477,0.1489258,1.0849609
			c0,0,0.1386719,1.0297852,0.1191406,1.234375c0,0-0.0058594,0.402832,0.2631836,0.4301758
			c0,0,0.1523438,0.2246094,0.1889648-0.472168c0,0,0.0512695-1.3569336,0.1708984-1.4121094
			c0,0,0.1884766-1.6171875,0.3710938-1.6855469c0,0,0.2202148-1.1943359,0.309082-1.2421875
			c0,0,0.1196289-0.7709961,0.9628906-0.6972656c0,0,0.5439453,0.3681641,0.1669922,1.1660156
			c0,0-0.1826172,1.0722656-0.1513672,1.2089844c0,0-0.0878906,1.1933594-0.1503906,1.3510742
			c0,0-0.0195312,1.7802734-0.1152344,1.9433594c0,0,0.1699219,0.4506836,0.3701172-0.2529297
			c0,0,0.2597656-0.8862305,0.5087891-1.2290039c0,0,0.328125-1.0151367,0.4121094-1.0917969
			c0,0,0.0371094-0.4091797,0.1123047-0.6547852c0,0,0.0195312-1.3505859,0.6806641-1.3515625
			c0,0,0.7587891-0.1381836,0.5751953,0.9335938c0,0-0.1054688,0.8266602-0.2207031,1.0512695
			c0,0-0.1494141,1.6367188-0.3330078,1.8496094c0,0-0.5849609,1.7626953-0.5341797,1.8374023
			c0,0,0.4443359,0.5014648,0.7353516-0.1044922c0,0,0.3076172-0.3833008,0.5283203-0.5756836
			c0,0,0.6025391-0.6757812,0.7402344-0.9350586c0,0,0.3339844-0.4165039,0.421875-0.7504883
			c0,0,0.5029297-1.112793,0.9804688-0.9018555c0,0,0.8359375,0.1889648-0.2695312,1.8349609
			c0,0-0.6494141,1.0600586-0.7675781,1.2578125c0,0-0.9619141,1.4125977-0.9882812,1.590332
			c0,0-0.8740234,2.3691406-0.8369141,2.53125c0,0-0.5791016,1.0664062-1.2568359,1.703125
			c0,0-0.9057617,0.8095703-2.3891602,0.5224609L6.1582031,14.96875c0,0-1.4868164-0.2207031-1.8769531-0.9091797
			C4.28125,14.0595703,2.8056641,12.234375,2.4545898,10.7070312z"/>
		<path class="Upper1" style="fill-rule: evenodd; clip-rule: evenodd;" d="M2.4541016,9.7060547
			c0,0-0.5454102-1.5131836-0.7333984-1.7587891c0,0-0.652832-1.2617188-0.5908203-1.4179688
			c0,0-0.4580078-0.7021484,0.3461914-0.7919922c0,0,1.0874023-0.152832,1.6079102,1.3959961
			c0,0,0.1508789,0.3676758,0.2382812,0.4633789c0,0,0.5341797,1.3168945,0.7475586,1.2416992
			c0,0,0.8041992-0.3764648,0.8920898-0.9980469c0,0,0.0693359-0.9887695,0.1582031-1.0366211
			c0,0,0.0561523-0.3286133-0.0058594-0.6010742c0,0-0.0634766-0.9887695-0.0253906-1.1118164
			c0,0-0.0112305-1.3442383,0.0639648-1.4472656c0,0,0.074707-0.2460938,0.03125-0.5795898
			c0,0,0.0957031-1.4526367,0.5795898-1.5019531c0,0,0.9047852-0.3691406,0.7597656,1.0092773L6.4355469,3.0488281
			c0,0-0.0825195,0.5043945-0.0004883,0.7158203c0,0,0.1884766,0.8188477,0.1489258,1.0849609
			c0,0,0.1386719,1.0302734,0.1196289,1.2348633c0,0-0.0058594,0.4033203,0.2626953,0.4296875
			c0,0,0.1523438,0.2246094,0.1899414-0.4716797c0,0,0.050293-1.3574219,0.1694336-1.4130859
			c0,0,0.1889648-1.6166992,0.3725586-1.6850586c0,0,0.2197266-1.1943359,0.3076172-1.2416992
			c0,0,0.1201172-0.7714844,0.9624023-0.6977539c0,0,0.5454102,0.3681641,0.168457,1.1655273
			c0,0-0.1826172,1.0722656-0.1523438,1.2099609c0,0-0.0874023,1.1928711-0.1503906,1.3500977
			c0,0-0.019043,1.7807617-0.1147461,1.9443359c0,0,0.1699219,0.4506836,0.371582-0.2529297
			c0,0,0.2587891-0.8862305,0.5097656-1.2294922c0,0,0.3271484-1.015625,0.4091797-1.0913086
			c0,0,0.0371094-0.4091797,0.1132812-0.6552734c0,0,0.0195312-1.3505859,0.6787109-1.3510742
			c0,0,0.7617188-0.1386719,0.5761719,0.9331055c0,0-0.1044922,0.8266602-0.2197266,1.0507812
			c0,0-0.1503906,1.6376953-0.3330078,1.8500977c0,0-0.5849609,1.7617188-0.5341797,1.8369141
			c0,0,0.4443359,0.5024414,0.734375-0.1035156c0,0,0.3085938-0.3833008,0.5283203-0.5756836
			c0,0,0.6025391-0.675293,0.7412109-0.9350586c0,0,0.3330078-0.4160156,0.4228516-0.7504883
			c0,0,0.5009766-1.1132812,0.9804688-0.9018555c0,0,0.8339844,0.1889648-0.2714844,1.8349609
			c0,0-0.6484375,1.0585938-0.7675781,1.2568359c0,0-0.9628906,1.4140625-0.9882812,1.5917969
			c0,0-0.8730469,2.3681641-0.8359375,2.5322266c0,0-0.5791016,1.0654297-1.2578125,1.7021484
			c0,0-0.9052734,0.8085938-2.3881836,0.5205078l-1.0307617,0.0322266c0,0-1.487793-0.2207031-1.8769531-0.9091797
			C4.28125,13.0605469,2.8056641,11.234375,2.4541016,9.7060547z"/>
	</g>
</svg>
