<?xml version="1.0" encoding="utf-8"?>
<!-- Generator: Adobe Illustrator 15.1.0, SVG Export Plug-In . SVG Version: 6.00 Build 0)  -->
<!DOCTYPE svg PUBLIC "-//W3C//DTD SVG 1.1//EN" "http://www.w3.org/Graphics/SVG/1.1/DTD/svg11.dtd">
<svg version="1.1" id="Ebene_1" xmlns="http://www.w3.org/2000/svg" xmlns:xlink="http://www.w3.org/1999/xlink" x="0px" y="0px" width="16px" height="16px" viewBox="0 0 16 16" enable-background="new 0 0 16 16" xml:space="preserve">
	<title>Heart</title>
	<desc>Heart Icon</desc>
	
	<!--
		@author		Harald Szekely
		@copyright	2001-2012 WoltLab GmbH 
		@license	GNU Lesser General Public License <http://opensource.org/licenses/lgpl-license.php> 
	--> 
	
	<defs>
		<style type="text/css">
			<![CDATA[
				.surface { fill: #666; }
				.shadow { fill: #fff; }
			]]>
		</style>
	</defs>
	
	<g id="IconHeart">
		<path class="shadow" d="M15,6c0,4.5-7,9-7,9s-7-4.521-7-9c0-2.521,1.5-4,3.5-4C7,2,8,4.021,8,4.021S9,2,11.501,2
			C13.501,2,15,3.458,15,6z"/>
		<path class="surface" d="M15,5c0,4.5-7,9-7,9S1,9.479,1,5c0-2.521,1.5-4,3.5-4C7,1,8,3.021,8,3.021S9,1,11.501,1
			C13.501,1,15,2.458,15,5z"/>
	</g>
</svg>
