<?xml version="1.0" encoding="utf-8"?>
<!-- Generator: Adobe Illustrator 15.1.0, SVG Export Plug-In . SVG Version: 6.00 Build 0)  -->
<!DOCTYPE svg PUBLIC "-//W3C//DTD SVG 1.1//EN" "http://www.w3.org/Graphics/SVG/1.1/DTD/svg11.dtd">
<svg version="1.1" id="Ebene_1" xmlns="http://www.w3.org/2000/svg" xmlns:xlink="http://www.w3.org/1999/xlink" x="0px" y="0px" width="16px" height="16px" viewBox="0 0 16 16" enable-background="new 0 0 16 16" xml:space="preserve">
	<title>Help</title>
	<desc>Help Icon</desc>
	
	<!--
		@author		Harald Szekely
		@copyright	2001-2012 WoltLab GmbH 
		@license	GNU Lesser General Public License <http://opensource.org/licenses/lgpl-license.php> 
	--> 
	
	<defs>
		<style type="text/css">
			<![CDATA[
				.surface { fill: #fff; }
				.shadow { fill: #000; }
			]]>
		</style>
	</defs>
	
	<g id="IconHelp">
		<path class="shadow" transform="translate(0 -1)" opacity=".8" d="M8,2C4.41,2,1.5,4.91,1.5,8.5C1.5,12.089,4.41,15,8,15c3.59,0,6.5-2.911,6.5-6.5C14.5,4.91,11.59,2,8,2z
			 M8.001,12.658c-0.553,0-1.001-0.448-1.001-1c0-0.553,0.448-1,1.001-1c0.551,0,0.999,0.447,0.999,1
			C9,12.21,8.552,12.658,8.001,12.658z M10.609,7.477c-0.092,0.226-0.207,0.419-0.346,0.58c-0.137,0.161-0.291,0.298-0.457,0.411
			C9.639,8.58,9.48,8.693,9.33,8.807C9.184,8.92,9.049,9.049,8.936,9.195C8.818,9.342,8.746,9.523,8.717,9.742v0.416h-1.51V9.666
			C7.229,9.353,7.291,9.09,7.392,8.878C7.493,8.666,7.61,8.486,7.744,8.336C7.878,8.187,8.02,8.057,8.169,7.948
			c0.148-0.109,0.286-0.219,0.413-0.329S8.811,7.39,8.89,7.258c0.078-0.131,0.114-0.295,0.106-0.493c0-0.335-0.083-0.583-0.252-0.744
			c-0.168-0.16-0.4-0.241-0.698-0.241c-0.202,0-0.375,0.038-0.52,0.115C7.38,5.972,7.261,6.074,7.168,6.202
			C7.075,6.33,7.006,6.479,6.961,6.65C6.917,6.822,6.894,7.007,6.894,7.203H5.25C5.258,6.809,5.327,6.448,5.457,6.12
			c0.131-0.328,0.313-0.612,0.548-0.854c0.235-0.241,0.519-0.428,0.85-0.563C7.187,4.568,7.558,4.5,7.967,4.5
			c0.529,0,0.971,0.071,1.324,0.213c0.355,0.143,0.641,0.319,0.855,0.531c0.217,0.212,0.371,0.439,0.463,0.684
			c0.096,0.245,0.141,0.473,0.141,0.684C10.75,6.963,10.705,7.251,10.609,7.477z"/>
		<path class="surface" transform="translate(0 1)" d="M8,1C4.41,1,1.5,3.91,1.5,7.5C1.5,11.089,4.41,14,8,14c3.59,0,6.5-2.911,6.5-6.5C14.5,3.91,11.59,1,8,1z
			 M8.001,11.658c-0.553,0-1.001-0.448-1.001-1c0-0.553,0.448-1,1.001-1c0.551,0,0.999,0.447,0.999,1
			C9,11.21,8.552,11.658,8.001,11.658z M10.609,6.477c-0.092,0.226-0.207,0.419-0.346,0.58c-0.137,0.161-0.291,0.297-0.457,0.411
			C9.639,7.581,9.48,7.694,9.33,7.807C9.184,7.92,9.049,8.049,8.936,8.195C8.818,8.341,8.746,8.523,8.717,8.742v0.416h-1.51V8.666
			C7.229,8.353,7.291,8.09,7.392,7.878C7.493,7.666,7.61,7.486,7.744,7.336c0.134-0.15,0.275-0.279,0.425-0.389
			c0.148-0.109,0.286-0.219,0.413-0.329S8.811,6.39,8.89,6.258c0.078-0.131,0.114-0.295,0.106-0.493c0-0.335-0.083-0.583-0.252-0.744
			c-0.168-0.16-0.4-0.241-0.698-0.241c-0.202,0-0.375,0.038-0.52,0.115C7.38,4.972,7.261,5.074,7.168,5.202
			C7.075,5.33,7.006,5.479,6.961,5.65C6.917,5.822,6.894,6.007,6.894,6.203H5.25C5.258,5.809,5.327,5.448,5.457,5.12
			c0.131-0.328,0.313-0.612,0.548-0.854c0.235-0.241,0.519-0.428,0.85-0.563C7.187,3.568,7.558,3.5,7.967,3.5
			c0.529,0,0.971,0.071,1.324,0.213c0.355,0.143,0.641,0.319,0.855,0.531c0.217,0.212,0.371,0.439,0.463,0.684
			c0.096,0.245,0.141,0.473,0.141,0.684C10.75,5.963,10.705,6.251,10.609,6.477z"/>
	</g>
</svg>
