<?xml version="1.0" encoding="utf-8"?>
<!--<?xml-stylesheet type="text/css" href="svg.css"?>-->
<!DOCTYPE svg PUBLIC "-//W3C//DTD SVG 1.1//EN" "http://www.w3.org/Graphics/SVG/1.1/DTD/svg11.dtd">
<svg version="1.1" xmlns="http://www.w3.org/2000/svg" xmlns:xlink="http://www.w3.org/1999/xlink" x="0px" y="0px" width="16px" height="16px" viewBox="0 0 16 16" xml:space="preserve">
	
	<title>Help</title>
	<desc>Help Icon (inverted)</desc>
	
	<!--
		@author		Harald Szekely 
		@copyright	2011 WoltLab GmbH 
		@license	GNU Lesser General Public License <http://opensource.org/licenses/lgpl-license.php> 
	--> 
	
	<defs>
		<style type="text/css">
			<![CDATA[
				.Upper1 {fill: #369;}
				.Lower1 {fill: #fff;}
			]]>
		</style>
	</defs>
	
	<g id="IconHelp">
		<path class="Lower1" style="fill-rule: evenodd; clip-rule: evenodd;" d="M7.5,2C3.909668,2,1,4.909668,1,8.5
			C1,12.0888672,3.909668,15,7.5,15c3.5898438,0,6.5-2.9111328,6.5-6.5C14,4.909668,11.0898438,2,7.5,2z M7.5009766,12.6582031
			c-0.5527344,0-1.0009766-0.4482422-1.0009766-1c0-0.5527344,0.4482422-1,1.0009766-1c0.5507812,0,0.9990234,0.4472656,0.9990234,1
			C8.5,12.2099609,8.0517578,12.6582031,7.5009766,12.6582031z M10.109375,7.4770508
			C10.0175781,7.703125,9.9023438,7.8964844,9.7636719,8.0566406C9.6269531,8.2177734,9.4726562,8.3544922,9.3066406,8.4677734
			C9.1386719,8.5800781,8.9799805,8.6933594,8.8305664,8.8066406c-0.1474609,0.1132812-0.28125,0.2421875-0.3955078,0.3886719
			c-0.1166992,0.1464844-0.1894531,0.328125-0.2182617,0.546875v0.4160156H6.7070312V9.6660156
			c0.0224609-0.3134766,0.0839844-0.5761719,0.1845703-0.7880859c0.1010742-0.2119141,0.2182617-0.3916016,0.3525391-0.5419922
			C7.378418,8.1865234,7.5195312,8.0566406,7.6689453,7.9477539c0.1484375-0.109375,0.2861328-0.2192383,0.4130859-0.3286133
			c0.1274414-0.109375,0.2290039-0.2294922,0.3076172-0.3608398C8.4677734,7.1269531,8.5043945,6.9628906,8.496582,6.765625
			c0-0.3354492-0.0834961-0.5830078-0.2524414-0.7441406C8.0766602,5.8613281,7.84375,5.7807617,7.5458984,5.7807617
			c-0.2016602,0-0.375,0.0380859-0.5200195,0.1147461C6.8803711,5.9716797,6.7612305,6.0742188,6.6679688,6.2021484
			C6.574707,6.3295898,6.5058594,6.4790039,6.4614258,6.6503906C6.4165039,6.8222656,6.394043,7.0068359,6.394043,7.203125H4.7504883
			c0.0078125-0.394043,0.0766602-0.7548828,0.206543-1.0834961c0.1308594-0.328125,0.3134766-0.6123047,0.5478516-0.8535156
			C5.7402344,5.0253906,6.0234375,4.8378906,6.3549805,4.703125C6.6870117,4.5678711,7.0576172,4.5,7.4672852,4.5
			c0.5292969,0,0.9711914,0.0712891,1.3242188,0.2133789c0.3549805,0.1425781,0.6401367,0.3193359,0.8549805,0.53125
			c0.2167969,0.2119141,0.3710938,0.4389648,0.4628906,0.6835938C10.2050781,6.1728516,10.25,6.4008789,10.25,6.6123047
			C10.25,6.9628906,10.2050781,7.2509766,10.109375,7.4770508z"/>
		<path class="Upper1" style="fill-rule: evenodd; clip-rule: evenodd;" d="M7.5,1C3.909668,1,1,3.909668,1,7.5
			C1,11.0888672,3.909668,14,7.5,14c3.5898438,0,6.5-2.9111328,6.5-6.5C14,3.909668,11.0898438,1,7.5,1z M7.5009766,11.6582031
			c-0.5527344,0-1.0009766-0.4482422-1.0009766-1c0-0.5527344,0.4482422-1,1.0009766-1c0.5507812,0,0.9990234,0.4472656,0.9990234,1
			C8.5,11.2099609,8.0517578,11.6582031,7.5009766,11.6582031z M10.109375,6.4770508
			C10.0175781,6.703125,9.9023438,6.8964844,9.7636719,7.0571289C9.6269531,7.2177734,9.4726562,7.3544922,9.3066406,7.4677734
			c-0.1679688,0.112793-0.3266602,0.2260742-0.4760742,0.3388672c-0.1474609,0.1132812-0.28125,0.2421875-0.3955078,0.3881836
			C8.3183594,8.3413086,8.2456055,8.5234375,8.2167969,8.7421875v0.4160156H6.7070312V8.6660156
			c0.0224609-0.3134766,0.0839844-0.5761719,0.1845703-0.7880859c0.1010742-0.2119141,0.2182617-0.3920898,0.3525391-0.5415039
			C7.378418,7.1865234,7.5195312,7.0571289,7.6689453,6.9477539c0.1484375-0.109375,0.2861328-0.2192383,0.4130859-0.3286133
			c0.1274414-0.109375,0.2290039-0.2294922,0.3076172-0.3608398C8.4677734,6.1269531,8.5043945,5.9628906,8.496582,5.765625
			c0-0.3354492-0.0834961-0.5830078-0.2524414-0.7441406C8.0766602,4.8613281,7.84375,4.7807617,7.5458984,4.7807617
			c-0.2016602,0-0.375,0.0380859-0.5200195,0.1147461C6.8803711,4.9716797,6.7612305,5.0742188,6.6679688,5.2021484
			C6.574707,5.3295898,6.5058594,5.4790039,6.4614258,5.6503906C6.4165039,5.8222656,6.394043,6.0068359,6.394043,6.203125H4.7504883
			c0.0078125-0.394043,0.0766602-0.7548828,0.206543-1.0834961c0.1308594-0.328125,0.3134766-0.6123047,0.5478516-0.8535156
			C5.7402344,4.0253906,6.0234375,3.8378906,6.3549805,3.703125C6.6870117,3.5678711,7.0576172,3.5,7.4672852,3.5
			c0.5292969,0,0.9711914,0.0712891,1.3242188,0.2133789c0.3549805,0.1425781,0.6401367,0.3193359,0.8549805,0.53125
			c0.2167969,0.2119141,0.3710938,0.4389648,0.4628906,0.6835938C10.2050781,5.1728516,10.25,5.4008789,10.25,5.6123047
			C10.25,5.9628906,10.2050781,6.2509766,10.109375,6.4770508z"/>
	</g>
</svg>
