<?xml version="1.0" encoding="utf-8"?>
<!--<?xml-stylesheet type="text/css" href="svg.css"?>-->
<!DOCTYPE svg PUBLIC "-//W3C//DTD SVG 1.1//EN" "http://www.w3.org/Graphics/SVG/1.1/DTD/svg11.dtd">
<svg version="1.1" xmlns="http://www.w3.org/2000/svg" xmlns:xlink="http://www.w3.org/1999/xlink" x="0px" y="0px" width="16px" height="16px" viewBox="0 0 16 16" xml:space="preserve">
	
	<title>Home</title>
	<desc>Home Icon</desc>
	
	<!--
		@author		Harald Szekely 
		@copyright	2001-2012 WoltLab GmbH 
		@license	GNU Lesser General Public License <http://opensource.org/licenses/lgpl-license.php> 
	--> 
	
	<defs>
		<style type="text/css">
			<![CDATA[
				.surface {fill: #369;}
				.shadow {fill: #fff;}
			]]>
		</style>
	</defs>
	
	<g id="IconHome">
		<g class="shadow">
			<polygon id="House2" points="3.5,8.15625 3.5,15 2,15 2,9.4511719 0.9995117,10.3212891 
				0.9995117,8.2929688 8,2 9.6015625,3.4609375 9.6015625,2 11.9794922,2 11.9794922,5.6044922 15,8.2929688 15,10.3212891 
				14,9.4511719 14,15 12.5,15 12.5,8.15625 7.9995117,4.2358398"/>
			<path id="Door2" style="fill-rule: evenodd; clip-rule: evenodd;" d="M9.5,15v-4c0-0.5527344-0.4960938-1-1.1083984-1
				H7.6074219c-0.6118164,0-1.1079102,0.4472656-1.1079102,1v4H9.5z"/>
		</g>
		<g class="surface">
			<polygon id="House1" points="3.5,7.15625 3.5,14 2,14 2,8.4511719 0.9995117,9.3212891 0.9995117,7.2929688 
				8,1 9.6015625,2.4609375 9.6015625,1 11.9794922,1 11.9794922,4.6044922 15,7.2929688 15,9.3212891 14,8.4516602 14,14 12.5,14 
				12.5,7.15625 7.9995117,3.2358398"/>
			<path id="Door1" style="fill-rule: evenodd; clip-rule: evenodd;" d="M9.5,14v-4c0-0.5527344-0.4951172-1-1.1083984-1
				H7.6083984C6.9960938,9,6.5,9.4472656,6.5,10v4H9.5z"/>
		</g>
	</g>
</svg>
