<?xml version="1.0" encoding="utf-8"?>
<!--<?xml-stylesheet type="text/css" href="svg.css"?>-->
<!DOCTYPE svg PUBLIC "-//W3C//DTD SVG 1.1//EN" "http://www.w3.org/Graphics/SVG/1.1/DTD/svg11.dtd">
<svg version="1.1" xmlns="http://www.w3.org/2000/svg" xmlns:xlink="http://www.w3.org/1999/xlink" x="0px" y="0px" width="16px" height="16px" viewBox="0 0 16 16" xml:space="preserve">
	
	<title>Image Landscape</title>
	<desc>Image Landscape Icon</desc>
	
	<!--
		@author		Harald Szekely 
		@copyright	2011 WoltLab GmbH 
		@license	GNU Lesser General Public License <http://opensource.org/licenses/lgpl-license.php> 
	--> 
	
	<defs>
		<style type="text/css">
			<![CDATA[
				.Upper1 {fill: #369;}
				.Lower1 {fill: #fff;}
			]]>
		</style>
	</defs>
	
	<g id="IconImageLandscape">
		<g class="Lower1">
			<polygon id="Landscape2" points="2.5,12 12.5,12 10,9 8.5,10 6,6"/>
			<circle id="Sun2" cx="11" cy="6" r="1"/>
			<path id="Frame2" style="fill-rule: evenodd; clip-rule: evenodd;" d="M13,3H2C1.40625,3,1,3.4833984,1,3.9980469
				v9.0039062C1,13.5009766,1.453125,14,2,14h11c0.546875,0,1-0.4990234,1-0.9980469V3.9980469C14,3.4833984,13.59375,3,13,3z M13,13
				H2V3.9980469h11V13z"/>
		</g>
		<g class="Upper1">
			<polygon id="Landscape1" points="2.5,11 12.5,11 10,8 8.5,9 6,5"/>
			<circle id="Sun1" cx="11" cy="5" r="1"/>
			<path id="Frame1" style="fill-rule: evenodd; clip-rule: evenodd;" d="M13,2H2C1.40625,2,1,2.4833984,1,2.9980469
				v9.0039062C1,12.5009766,1.453125,13,2,13h11c0.546875,0,1-0.4990234,1-0.9980469V2.9980469C14,2.4833984,13.59375,2,13,2z M2,12
				V2.9980469h11V12H2z"/>
		</g>
	</g>
</svg>
