<?xml version="1.0" encoding="utf-8"?>
<!--<?xml-stylesheet type="text/css" href="svg.css"?>-->
<!DOCTYPE svg PUBLIC "-//W3C//DTD SVG 1.1//EN" "http://www.w3.org/Graphics/SVG/1.1/DTD/svg11.dtd">
<svg version="1.1" xmlns="http://www.w3.org/2000/svg" xmlns:xlink="http://www.w3.org/1999/xlink" x="0px" y="0px" width="16px" height="16px" viewBox="0 0 16 16" xml:space="preserve">
	
	<title>Image Portrait</title>
	<desc>Image Portrait Icon</desc>
	
	<!--
		@author		Harald Szekely 
		@copyright	2011 WoltLab GmbH 
		@license	GNU Lesser General Public License <http://opensource.org/licenses/lgpl-license.php> 
	--> 
	
	<defs>
		<style type="text/css">
			<![CDATA[
				.Upper1 {fill: #666;}
				.Lower1 {fill: #fff;}
			]]>
		</style>
	</defs>
	
	<g id="IconImagePortrait">
		<g class="Lower1">
			<path id="User2" style="fill-rule: evenodd; clip-rule: evenodd;" d="M5.8227539,7.3720703L5.7148438,7.3833008
				C5.5336914,7.644043,5.6279297,7.574707,5.8823242,8.1982422l0.012207,0.1196289
				c0.1035156,0.40625,0.1933594,0.6713867,0.5771484,0.9106445L6.4960938,9.46875L5.9316406,9.8876953
				c-0.4189453,0.3125-1.0522461,0.3857422-1.4091797,0.8300781C4.15625,11.1738281,4,13,4,13h7
				c-0.140625-0.7207031,0.1220703-2.2646484-0.5224609-2.5498047c-0.5175781-0.2324219-0.9384766-0.5166016-1.2646484-0.8496094
				C9.0683594,9.3847656,8.8222656,9.265625,8.4804688,9.2402344c-0.090332-0.2324219-0.0869141-0.5200195,0.012207-0.8623047
				c0.2060547-0.2270508,0.3417969-0.550293,0.4082031-0.9707031C8.8959961,7.2695312,8.8203125,7.215332,8.6713867,7.2397461
				C8.65625,6.9545898,8.7070312,6.6425781,8.828125,6.3051758L8.7216797,5.9467773L8.6010742,5.862793
				C8.5717773,5.7475586,8.3911133,5.6157227,8.0600586,5.4672852L7.9267578,5.1914062L7.7348633,5.1430664L7.7587891,5
				L7.565918,5.0957031C7.1665039,5.0009766,6.8061523,5.0893555,6.484375,5.359375L6.387207,5.1791992
				C6.2714844,5.5268555,6.0751953,5.8178711,5.7983398,6.0532227H5.6538086l0.0126953,0.2163086L5.5576172,6.5932617
				L5.8227539,7.3720703z"/>
			<path id="Frame2" style="fill-rule: evenodd; clip-rule: evenodd;" d="M13,14V3c0-0.59375-0.4833984-1-0.9980469-1
				H2.9980469C2.4990234,2,2,2.453125,2,3v11c0,0.546875,0.4990234,1,0.9980469,1h9.0039062C12.5166016,15,13,14.59375,13,14z M3,3
				h9.0019531v11H3V3z"/>
		</g>
		<g class="Upper1">
			<path id="User1" style="fill-rule: evenodd; clip-rule: evenodd;" d="M5.8227539,6.3720703L5.7148438,6.3833008
				C5.5336914,6.644043,5.6279297,6.574707,5.8823242,7.1982422l0.012207,0.1196289
				c0.1035156,0.40625,0.1933594,0.6713867,0.5771484,0.9111328L6.4960938,8.46875L5.9316406,8.8876953
				c-0.4189453,0.3125-1.0522461,0.3857422-1.4091797,0.8300781C4.15625,10.1738281,4,12,4,12h7
				c-0.140625-0.7207031,0.1220703-2.2646484-0.5224609-2.5498047C9.9599609,9.2177734,9.5390625,8.9335938,9.2128906,8.6005859
				C9.0683594,8.3842773,8.8222656,8.265625,8.4804688,8.2402344c-0.090332-0.2324219-0.0869141-0.5200195,0.012207-0.8623047
				c0.2060547-0.2270508,0.3417969-0.550293,0.4082031-0.9707031C8.8959961,6.2695312,8.8203125,6.215332,8.6713867,6.2397461
				C8.65625,5.9545898,8.7070312,5.6425781,8.828125,5.3051758L8.7216797,4.9467773L8.6010742,4.862793
				C8.5717773,4.7475586,8.3911133,4.6157227,8.0600586,4.4672852L7.9267578,4.1914062L7.7348633,4.1430664L7.7587891,4
				L7.565918,4.0957031C7.1665039,4.0009766,6.8061523,4.0893555,6.484375,4.359375L6.387207,4.1791992
				C6.2714844,4.5268555,6.0751953,4.8178711,5.7983398,5.0532227H5.6538086l0.0126953,0.2163086L5.5576172,5.5932617
				L5.8227539,6.3720703z"/>
			<path id="Frame1" style="fill-rule: evenodd; clip-rule: evenodd;" d="M13,13V2c0-0.59375-0.4833984-1-0.9980469-1
				H2.9980469C2.4990234,1,2,1.453125,2,2v11c0,0.546875,0.4990234,1,0.9980469,1h9.0039062C12.5166016,14,13,13.59375,13,13z M3,2
				h9.0019531v11H3V2z"/>
		</g>
	</g>
</svg>
