<?xml version="1.0" encoding="utf-8"?>
<!-- Generator: Adobe Illustrator 15.1.0, SVG Export Plug-In . SVG Version: 6.00 Build 0)  -->
<!DOCTYPE svg PUBLIC "-//W3C//DTD SVG 1.1//EN" "http://www.w3.org/Graphics/SVG/1.1/DTD/svg11.dtd">
<svg version="1.1" id="Ebene_1" xmlns="http://www.w3.org/2000/svg" xmlns:xlink="http://www.w3.org/1999/xlink" x="0px" y="0px" width="16px" height="16px" viewBox="0 0 16 16" enable-background="new 0 0 16 16" xml:space="preserve">
	<title>Image Portrait</title>
	<desc>Image Portrait Icon</desc>
	
	<!--
		@author		Harald Szekely
		@copyright	2001-2012 WoltLab GmbH 
		@license	GNU Lesser General Public License <http://opensource.org/licenses/lgpl-license.php> 
	--> 
	
	<defs>
		<style type="text/css">
			<![CDATA[
				.surface { fill: #369; }
				.shadow { fill: #fff; }
			]]>
		</style>
	</defs>
	
	<g id="IconImagePortrait">
		<g>
			<path id="User2" class="shadow" d="M6.323,7.372L6.215,7.383C6.034,7.644,6.128,7.575,6.382,8.198l0.012,0.12
				c0.104,0.407,0.193,0.671,0.577,0.911l0.024,0.24L6.432,9.888c-0.419,0.313-1.052,0.386-1.409,0.83C4.656,11.174,4.5,13,4.5,13h7
				c-0.141-0.721,0.122-2.265-0.522-2.55c-0.518-0.232-0.938-0.517-1.265-0.85C9.568,9.385,9.322,9.266,8.98,9.24
				c-0.09-0.232-0.087-0.52,0.012-0.862C9.199,8.151,9.334,7.828,9.4,7.407C9.396,7.27,9.32,7.215,9.172,7.24
				C9.156,6.955,9.207,6.643,9.328,6.305L9.222,5.947l-0.12-0.084C9.072,5.748,8.891,5.616,8.561,5.467L8.427,5.191L8.235,5.143
				L8.259,5L8.066,5.096c-0.399-0.095-0.76-0.006-1.082,0.264l-0.097-0.18C6.771,5.527,6.575,5.818,6.298,6.053H6.154L6.167,6.27
				L6.058,6.593L6.323,7.372z"/>
			<path id="Frame2" class="shadow" d="M13.5,14V3c0-0.594-0.483-1-0.998-1H3.498C2.999,2,2.5,2.453,2.5,3v11
				c0,0.547,0.499,1,0.998,1h9.004C13.017,15,13.5,14.594,13.5,14z M3.5,3h9.002v11H3.5V3z"/>
		</g>
		<g>
			<path id="User1" class="surface" d="M6.323,6.372L6.215,6.383C6.034,6.644,6.128,6.575,6.382,7.198l0.012,0.12
				c0.104,0.406,0.193,0.671,0.577,0.911l0.024,0.24L6.432,8.888C6.013,9.2,5.379,9.273,5.022,9.718C4.656,10.174,4.5,12,4.5,12h7
				c-0.141-0.721,0.122-2.265-0.522-2.55c-0.518-0.232-0.938-0.517-1.265-0.85C9.568,8.384,9.322,8.266,8.98,8.24
				c-0.09-0.232-0.087-0.52,0.012-0.862C9.199,7.151,9.334,6.828,9.4,6.407C9.396,6.27,9.32,6.215,9.172,6.24
				C9.156,5.955,9.207,5.643,9.328,5.305L9.222,4.947l-0.12-0.084C9.072,4.748,8.891,4.616,8.561,4.467L8.427,4.191L8.235,4.143
				L8.259,4L8.066,4.096c-0.399-0.095-0.76-0.006-1.082,0.264l-0.097-0.18C6.771,4.527,6.575,4.818,6.298,5.053H6.154L6.167,5.27
				L6.058,5.593L6.323,6.372z"/>
			<path id="Frame1" class="surface" d="M13.5,13V2c0-0.594-0.483-1-0.998-1H3.498C2.999,1,2.5,1.453,2.5,2v11
				c0,0.547,0.499,1,0.998,1h9.004C13.017,14,13.5,13.594,13.5,13z M3.5,2h9.002v11H3.5V2z"/>
		</g>
	</g>
</svg>
