<?xml version="1.0" encoding="utf-8"?>
<!--<?xml-stylesheet type="text/css" href="svg.css"?>-->
<!DOCTYPE svg PUBLIC "-//W3C//DTD SVG 1.1//EN" "http://www.w3.org/Graphics/SVG/1.1/DTD/svg11.dtd">
<svg version="1.1" xmlns="http://www.w3.org/2000/svg" xmlns:xlink="http://www.w3.org/1999/xlink" x="0px" y="0px" width="16px" height="16px" viewBox="0 0 16 16" xml:space="preserve">
	
	<title>Info</title>
	<desc>Info Icon (inverted)</desc>
	
	<!--
		@author		Harald Szekely 
		@copyright	2011 WoltLab GmbH 
		@license	GNU Lesser General Public License <http://opensource.org/licenses/lgpl-license.php> 
	--> 
	
	<defs>
		<style type="text/css">
			<![CDATA[
				.Upper1 {fill: #369;}
				.Lower1 {fill: #fff;}
			]]>
		</style>
	</defs>
	
	<g id="IconInfo">
		<path class="Lower1" style="fill-rule: evenodd; clip-rule: evenodd;" d="M7.5,2C3.909668,2,1,4.9101562,1,8.5
			C1,12.0908203,3.909668,15,7.5,15c3.5898438,0,6.5-2.9091797,6.5-6.5C14,4.9101562,11.0898438,2,7.5,2z M8.8740234,12.0800781
			c-0.3549805,0.1337891-0.6376953,0.2333984-0.8491211,0.3027344c-0.2109375,0.0683594-0.456543,0.1035156-0.7358398,0.1035156
			c-0.4296875,0-0.7631836-0.0986328-1.0024414-0.2958984c-0.237793-0.1982422-0.3564453-0.4492188-0.3564453-0.7529297
			c0-0.1181641,0.0092773-0.2392578,0.0268555-0.3623047c0.0180664-0.1240234,0.046875-0.2636719,0.0864258-0.4189453
			l0.4428711-1.4804688c0.0395508-0.1425781,0.0732422-0.2768555,0.1000977-0.4033203
			c0.0268555-0.1274414,0.0395508-0.2426758,0.0395508-0.3476562c0-0.1889648-0.0405273-0.3208008-0.1235352-0.3955078
			c-0.0825195-0.074707-0.2397461-0.1113281-0.4741211-0.1113281c-0.1142578,0-0.2324219,0.0166016-0.3525391,0.0507812
			C5.5556641,8.0024414,5.4521484,8.034668,5.3662109,8.0649414l0.1181641-0.456543
			c0.2910156-0.1113281,0.5688477-0.2070312,0.8334961-0.2861328c0.2651367-0.0795898,0.5161133-0.1196289,0.753418-0.1196289
			c0.4267578,0,0.7553711,0.097168,0.9868164,0.2919922c0.230957,0.1943359,0.3461914,0.4472656,0.3461914,0.7578125
			c0,0.0644531-0.0078125,0.1777344-0.0239258,0.3398438S8.3344727,8.902832,8.2915039,9.0390625l-0.4414062,1.4755859
			c-0.0361328,0.1171875-0.0683594,0.2529297-0.0976562,0.4052734C7.7241211,11.0722656,7.7094727,11.1875,7.7094727,11.2646484
			c0,0.1962891,0.0473633,0.3300781,0.1396484,0.4003906c0.0932617,0.0712891,0.2539062,0.1064453,0.4829102,0.1064453
			c0.1074219,0,0.2285156-0.0166016,0.3642578-0.0537109c0.137207-0.0341797,0.234375-0.0664062,0.2954102-0.0927734
			L8.8740234,12.0800781z M8.7963867,6.0893555c-0.206543,0.1811523-0.4541016,0.2714844-0.7446289,0.2714844
			c-0.2900391,0-0.5385742-0.090332-0.746582-0.2714844c-0.2080078-0.1801758-0.3115234-0.3989258-0.3115234-0.65625
			S7.097168,4.956543,7.3051758,4.7739258S7.7617188,4.5,8.0517578,4.5c0.2905273,0,0.5380859,0.0913086,0.7446289,0.2739258
			C9.0019531,4.956543,9.1044922,5.1757812,9.1044922,5.4331055S9.0019531,5.9091797,8.7963867,6.0893555z"/>
		<path class="Upper1" style="fill-rule: evenodd; clip-rule: evenodd;" d="M7.5,1C3.909668,1,1,3.9101562,1,7.5
			C1,11.0908203,3.909668,14,7.5,14c3.5898438,0,6.5-2.9091797,6.5-6.5C14,3.9101562,11.0898438,1,7.5,1z M8.8740234,11.0800781
			c-0.3549805,0.1337891-0.6376953,0.2333984-0.8491211,0.3027344c-0.2109375,0.0683594-0.456543,0.1035156-0.7358398,0.1035156
			c-0.4296875,0-0.7631836-0.0986328-1.0024414-0.2958984c-0.237793-0.1982422-0.3564453-0.4492188-0.3564453-0.7529297
			c0-0.1181641,0.0092773-0.2392578,0.0268555-0.3623047C5.9750977,9.9511719,6.0039062,9.8115234,6.043457,9.65625
			l0.4428711-1.480957c0.0395508-0.1416016,0.0732422-0.2763672,0.1000977-0.402832
			c0.0268555-0.1274414,0.0395508-0.2426758,0.0395508-0.3476562c0-0.1889648-0.0405273-0.3208008-0.1235352-0.3955078
			c-0.0825195-0.074707-0.2397461-0.1113281-0.4741211-0.1113281c-0.1142578,0-0.2324219,0.0166016-0.3525391,0.0507812
			C5.5556641,7.0024414,5.4521484,7.034668,5.3662109,7.0649414l0.1181641-0.456543
			c0.2910156-0.1113281,0.5688477-0.2070312,0.8334961-0.2861328c0.2651367-0.0795898,0.5161133-0.1196289,0.753418-0.1196289
			c0.4267578,0,0.7553711,0.097168,0.9868164,0.2919922c0.230957,0.1943359,0.3461914,0.4472656,0.3461914,0.7578125
			c0,0.0644531-0.0078125,0.1777344-0.0239258,0.3398438S8.3344727,7.902832,8.2915039,8.0385742L7.8500977,9.5146484
			C7.8139648,9.6318359,7.7817383,9.7675781,7.7524414,9.9199219C7.7241211,10.0722656,7.7094727,10.1875,7.7094727,10.2646484
			c0,0.1962891,0.0473633,0.3300781,0.1396484,0.4003906c0.0932617,0.0712891,0.2539062,0.1064453,0.4829102,0.1064453
			c0.1074219,0,0.2285156-0.0166016,0.3642578-0.0537109c0.137207-0.0341797,0.234375-0.0664062,0.2954102-0.0927734
			L8.8740234,11.0800781z M8.7963867,5.0893555c-0.206543,0.1811523-0.4541016,0.2714844-0.7446289,0.2714844
			c-0.2900391,0-0.5385742-0.090332-0.746582-0.2714844c-0.2080078-0.1801758-0.3115234-0.3989258-0.3115234-0.65625
			S7.097168,3.956543,7.3051758,3.7739258S7.7617188,3.5,8.0517578,3.5c0.2905273,0,0.5380859,0.0913086,0.7446289,0.2739258
			C9.0019531,3.956543,9.1044922,4.1757812,9.1044922,4.4331055S9.0019531,4.9091797,8.7963867,5.0893555z"/>
	</g>
</svg>
