<?xml version="1.0" encoding="utf-8"?>
<!-- Generator: Adobe Illustrator 15.1.0, SVG Export Plug-In . SVG Version: 6.00 Build 0)  -->
<!DOCTYPE svg PUBLIC "-//W3C//DTD SVG 1.1//EN" "http://www.w3.org/Graphics/SVG/1.1/DTD/svg11.dtd">
<svg version="1.1" id="Ebene_1" xmlns="http://www.w3.org/2000/svg" xmlns:xlink="http://www.w3.org/1999/xlink" x="0px" y="0px" width="16px" height="16px" viewBox="0 0 16 16" enable-background="new 0 0 16 16" xml:space="preserve">
	<title>Info</title>
	<desc>Info Icon</desc>
	
	<!--
		@author		Alexander Ebert
		@copyright	2001-2012 WoltLab GmbH 
		@license	GNU Lesser General Public License <http://opensource.org/licenses/lgpl-license.php> 
	--> 
	
	<defs>
		<style type="text/css">
			<![CDATA[
				.surface { fill: #369; }
				.shadow { fill: #fff; }
			]]>
		</style>
	</defs>
	
	<g id="IconInfo">
		<path class="shadow" opacity=".8" d="M8,2C4.41,2,1.5,4.91,1.5,8.5C1.5,12.091,4.41,15,8,15c3.59,0,6.5-2.909,6.5-6.5C14.5,4.91,11.59,2,8,2z
			 M9.374,12.08c-0.354,0.134-0.638,0.233-0.849,0.303c-0.211,0.068-0.457,0.104-0.736,0.104c-0.43,0-0.763-0.099-1.002-0.296
			c-0.238-0.198-0.356-0.449-0.356-0.753c0-0.118,0.009-0.239,0.027-0.362c0.018-0.124,0.047-0.264,0.086-0.419l0.443-1.48
			c0.04-0.143,0.073-0.277,0.1-0.403c0.027-0.128,0.04-0.243,0.04-0.348c0-0.189-0.041-0.321-0.124-0.396
			C6.92,7.955,6.763,7.918,6.528,7.918c-0.114,0-0.232,0.017-0.353,0.051c-0.12,0.034-0.224,0.066-0.31,0.096l0.118-0.457
			c0.291-0.111,0.569-0.207,0.833-0.286c0.265-0.08,0.516-0.12,0.753-0.12c0.427,0,0.755,0.097,0.987,0.292
			c0.23,0.194,0.346,0.447,0.346,0.758c0,0.064-0.008,0.178-0.023,0.339c-0.017,0.162-0.047,0.311-0.09,0.447L8.35,10.515
			c-0.036,0.117-0.068,0.253-0.098,0.405c-0.028,0.152-0.043,0.268-0.043,0.345c0,0.196,0.047,0.33,0.14,0.4
			c0.093,0.071,0.254,0.106,0.483,0.106c0.107,0,0.229-0.017,0.364-0.054c0.138-0.034,0.234-0.066,0.296-0.093L9.374,12.08z
			 M9.297,6.089C9.09,6.271,8.842,6.361,8.552,6.361s-0.539-0.09-0.747-0.271C7.597,5.909,7.494,5.69,7.494,5.433
			s0.104-0.477,0.312-0.659S8.262,4.5,8.552,4.5S9.09,4.591,9.297,4.774c0.205,0.183,0.308,0.402,0.308,0.659
			S9.502,5.909,9.297,6.089z"/>
		<path class="surface" d="M8,1C4.41,1,1.5,3.91,1.5,7.5C1.5,11.091,4.41,14,8,14c3.59,0,6.5-2.909,6.5-6.5C14.5,3.91,11.59,1,8,1z
			 M9.374,11.08c-0.354,0.134-0.638,0.233-0.849,0.303c-0.211,0.068-0.457,0.104-0.736,0.104c-0.43,0-0.763-0.099-1.002-0.296
			c-0.238-0.198-0.356-0.449-0.356-0.753c0-0.118,0.009-0.239,0.027-0.362c0.018-0.124,0.047-0.264,0.086-0.419l0.443-1.481
			c0.04-0.142,0.073-0.276,0.1-0.403c0.027-0.127,0.04-0.243,0.04-0.348c0-0.189-0.041-0.321-0.124-0.396
			C6.92,6.955,6.763,6.918,6.528,6.918c-0.114,0-0.232,0.017-0.353,0.051c-0.12,0.034-0.224,0.066-0.31,0.096l0.118-0.457
			c0.291-0.111,0.569-0.207,0.833-0.286c0.265-0.08,0.516-0.12,0.753-0.12c0.427,0,0.755,0.097,0.987,0.292
			c0.23,0.194,0.346,0.447,0.346,0.758c0,0.064-0.008,0.178-0.023,0.34c-0.017,0.162-0.047,0.311-0.09,0.446L8.35,9.515
			C8.314,9.632,8.282,9.768,8.252,9.92c-0.028,0.152-0.043,0.268-0.043,0.345c0,0.196,0.047,0.33,0.14,0.4
			c0.093,0.071,0.254,0.106,0.483,0.106c0.107,0,0.229-0.017,0.364-0.054c0.138-0.034,0.234-0.066,0.296-0.093L9.374,11.08z
			 M9.297,5.089C9.09,5.271,8.842,5.361,8.552,5.361s-0.539-0.09-0.747-0.271C7.597,4.909,7.494,4.69,7.494,4.433
			s0.104-0.477,0.312-0.659S8.262,3.5,8.552,3.5S9.09,3.591,9.297,3.774c0.205,0.183,0.308,0.402,0.308,0.659
			S9.502,4.909,9.297,5.089z"/>
	</g>
</svg>
