<?xml version="1.0" encoding="utf-8"?>
<!--<?xml-stylesheet type="text/css" href="svg.css"?>-->
<!DOCTYPE svg PUBLIC "-//W3C//DTD SVG 1.1//EN" "http://www.w3.org/Graphics/SVG/1.1/DTD/svg11.dtd">
<svg version="1.1" xmlns="http://www.w3.org/2000/svg" xmlns:xlink="http://www.w3.org/1999/xlink" x="0px" y="0px" width="16px" height="16px" viewBox="0 0 16 16" xml:space="preserve">
	
	<title>Info</title> 
	<desc>Info Icon (outlined)</desc> 
	
	<!--
		@author		Harald Szekely 
		@copyright	2011 WoltLab GmbH 
		@license	GNU Lesser General Public License <http://opensource.org/licenses/lgpl-license.php> 
	--> 
	
	<defs>
		
	</defs>
	
	<g id="IconInfo">
		<g class="Lower">
			<path id="Circle1" style="fill-rule: evenodd; clip-rule: evenodd; fill: #fff;" d="M2.347168,8.5
				c0,2.8476562,2.3066406,5.1533203,5.152832,5.1533203c2.8447266,0,5.1523438-2.3056641,5.1523438-5.1533203
				c0-2.8466797-2.3076172-5.1533203-5.1523438-5.1533203C4.6538086,3.3466797,2.347168,5.6533203,2.347168,8.5z M1,8.5
				C1,4.9101562,3.909668,2,7.5,2C11.0898438,2,14,4.9101562,14,8.5c0,3.5908203-2.9101562,6.5-6.5,6.5
				C3.909668,15,1,12.0908203,1,8.5z"/>
			<path id="Info1" style="fill: #fff;" d="M8.9916992,10.625l-0.1176758,0.9628906
				c-0.3549805,0.1328125-0.6376953,0.2324219-0.8491211,0.3027344c-0.2109375,0.0683594-0.456543,0.1035156-0.7358398,0.1035156
				c-0.4296875,0-0.7631836-0.0996094-1.0024414-0.296875C6.0488281,11.5,5.9301758,11.2480469,5.9301758,10.9453125
				c0-0.1191406,0.0092773-0.2402344,0.0268555-0.3632812c0.0180664-0.1230469,0.046875-0.2636719,0.0864258-0.4179688
				l0.4428711-1.4819336c0.0395508-0.1416016,0.0732422-0.2763672,0.1000977-0.402832
				c0.0268555-0.1274414,0.0395508-0.2426758,0.0395508-0.3476562c0-0.1889648-0.0405273-0.3208008-0.1235352-0.3955078
				c-0.0825195-0.074707-0.2397461-0.1113281-0.4741211-0.1113281c-0.1142578,0-0.2324219,0.0166016-0.3525391,0.0507812
				c-0.1201172,0.0336914-0.2236328,0.065918-0.3095703,0.0961914V7.0649414
				c0.2910156-0.1113281,0.6870117-0.1567383,0.9516602-0.2358398c0.2651367-0.0795898,0.5161133-0.1196289,0.753418-0.1196289
				c0.4267578,0,0.7553711,0.097168,0.9868164,0.2919922c0.230957,0.1943359,0.3461914,0.4472656,0.3461914,0.7578125
				c0,0.0644531-0.0078125,0.1777344-0.0239258,0.3398438S8.3344727,8.409668,8.2915039,8.5454102l-0.4414062,1.4760742
				c-0.0361328,0.1171875-0.0683594,0.2539062-0.0976562,0.40625c-0.0283203,0.1523438-0.0429688,0.2675781-0.0429688,0.34375
				c0,0.1972656,0.0473633,0.3300781,0.1396484,0.4003906C7.9423828,11.2441406,8.9306641,10.6503906,8.9916992,10.625z
				 M9.1044922,4.9399414c0,0.2573242-0.1025391,0.4760742-0.3081055,0.65625
				c-0.206543,0.1811523-0.4541016,0.2714844-0.7446289,0.2714844c-0.2900391,0-0.5385742-0.090332-0.746582-0.2714844
				c-0.2080078-0.1801758-0.3115234-0.3989258-0.3115234-0.65625S7.097168,4.4633789,7.3051758,4.2807617
				s0.456543-0.2739258,0.746582-0.2739258c0.2905273,0,0.5380859,0.0913086,0.7446289,0.2739258
				C9.0019531,4.4633789,9.1044922,4.6826172,9.1044922,4.9399414z"/>
		</g>
		<g class="Upper">
			<path id="Circle2" style="fill-rule: evenodd; clip-rule: evenodd; fill: #666;" d="M2.347168,7.5
				c0,2.8476562,2.3066406,5.1533203,5.152832,5.1533203c2.8447266,0,5.1523438-2.3056641,5.1523438-5.1533203
				c0-2.8466797-2.3076172-5.1533203-5.1523438-5.1533203C4.6538086,2.3466797,2.347168,4.6533203,2.347168,7.5z M1,7.5
				C1,3.9101562,3.909668,1,7.5,1C11.0898438,1,14,3.9101562,14,7.5c0,3.5908203-2.9101562,6.5-6.5,6.5
				C3.909668,14,1,11.0908203,1,7.5z"/>
			<path id="Info2" style="fill: #666;" d="M8.9916992,10.625l-0.1176758,0.4550781
				c-0.3549805,0.1337891-0.6376953,0.2333984-0.8491211,0.3027344c-0.2109375,0.0683594-0.456543,0.1035156-0.7358398,0.1035156
				c-0.4296875,0-0.7631836-0.0986328-1.0024414-0.2958984c-0.237793-0.1982422-0.3564453-0.4492188-0.3564453-0.7529297
				c0-0.1181641,0.0092773-0.2392578,0.0268555-0.3623047C5.9750977,9.9511719,6.0039062,9.8115234,6.043457,9.65625
				l0.4428711-1.480957c0.0395508-0.1416016,0.0732422-0.2763672,0.1000977-0.402832
				c0.0268555-0.1274414,0.0395508-0.2426758,0.0395508-0.3476562c0-0.1889648-0.0405273-0.3208008-0.1235352-0.3955078
				c-0.0825195-0.074707-0.2397461-0.1113281-0.4741211-0.1113281c-0.1142578,0-0.2324219,0.0166016-0.3525391,0.0507812
				C5.5556641,7.0024414,5.4521484,7.034668,5.3662109,7.0649414l0.1181641-0.456543
				c0.2910156-0.1113281,0.5688477-0.2070312,0.8334961-0.2861328c0.2651367-0.0795898,0.5161133-0.1196289,0.753418-0.1196289
				c0.4267578,0,0.7553711,0.097168,0.9868164,0.2919922c0.230957,0.1943359,0.3461914,0.4472656,0.3461914,0.7578125
				c0,0.0644531-0.0078125,0.1777344-0.0239258,0.3398438S8.3344727,7.902832,8.2915039,8.0385742L7.8500977,9.5146484
				C7.8139648,9.6318359,7.7817383,9.7675781,7.7524414,9.9199219C7.7241211,10.0722656,7.7094727,10.1875,7.7094727,10.2646484
				c0,0.1962891,0.0473633,0.3300781,0.1396484,0.4003906c0.0932617,0.0712891,0.2539062,0.1064453,0.4829102,0.1064453
				c0.1074219,0,0.2285156-0.0166016,0.3642578-0.0537109C8.8334961,10.6835938,8.9306641,10.6513672,8.9916992,10.625z
				 M9.1044922,4.4331055c0,0.2573242-0.1025391,0.4760742-0.3081055,0.65625
				c-0.206543,0.1811523-0.4541016,0.2714844-0.7446289,0.2714844c-0.2900391,0-0.5385742-0.090332-0.746582-0.2714844
				c-0.2080078-0.1801758-0.3115234-0.3989258-0.3115234-0.65625S7.097168,3.956543,7.3051758,3.7739258S7.7617188,3.5,8.0517578,3.5
				c0.2905273,0,0.5380859,0.0913086,0.7446289,0.2739258C9.0019531,3.956543,9.1044922,4.1757812,9.1044922,4.4331055z"/>
		</g>
	</g>
</svg>
