<?xml version="1.0" encoding="utf-8"?>
<!-- Generator: Adobe Illustrator 15.1.0, SVG Export Plug-In . SVG Version: 6.00 Build 0)  -->
<!DOCTYPE svg PUBLIC "-//W3C//DTD SVG 1.1//EN" "http://www.w3.org/Graphics/SVG/1.1/DTD/svg11.dtd">
<svg version="1.1" id="Ebene_1" xmlns="http://www.w3.org/2000/svg" xmlns:xlink="http://www.w3.org/1999/xlink" x="0px" y="0px" width="16px" height="16px" viewBox="0 0 16 16" enable-background="new 0 0 16 16" xml:space="preserve">
	<title>Key</title>
	<desc>Key Icon</desc>
	
	<!--
		@author		Harald Szekely
		@copyright	2001-2012 WoltLab GmbH 
		@license	GNU Lesser General Public License <http://opensource.org/licenses/lgpl-license.php> 
	--> 
	
	<defs>
		<style type="text/css">
			<![CDATA[
				.surface { fill: #666; }
				.shadow { fill: #fff; }
			]]>
		</style>
	</defs>
	
	<g id="IconKey">
		<path class="shadow" opacity=".8" d="M2,10.75h3v1.75H2V10.75z M15,7v3c0,0.825-0.675,1.5-1.5,1.5h-1c-0.825,0-1.5-0.675-1.5-1.5V9.5H5v1H2v-1
			H1.513C1.231,9.5,1,9.275,1,9V8c0-0.275,0.231-0.5,0.513-0.5H11V7c0-0.825,0.675-1.5,1.5-1.5h1C14.325,5.5,15,6.175,15,7z M14,7
			c0-0.275-0.225-0.5-0.5-0.5h-1C12.225,6.5,12,6.725,12,7v3c0,0.275,0.225,0.5,0.5,0.5h1c0.275,0,0.5-0.225,0.5-0.5V7z"/>
		<path class="surface" d="M2,9.75h3v1.75H2V9.75z M15,6v3c0,0.825-0.675,1.5-1.5,1.5h-1C11.675,10.5,11,9.825,11,9V8.5H5v1H2v-1
			H1.513C1.231,8.5,1,8.275,1,8V7c0-0.275,0.231-0.5,0.513-0.5H11V6c0-0.825,0.675-1.5,1.5-1.5h1C14.325,4.5,15,5.175,15,6z M14,6
			c0-0.275-0.225-0.5-0.5-0.5h-1C12.225,5.5,12,5.725,12,6v3c0,0.275,0.225,0.5,0.5,0.5h1C13.775,9.5,14,9.275,14,9V6z"/>
	</g>
</svg>
