<?xml version="1.0" encoding="utf-8"?>
<!--<?xml-stylesheet type="text/css" href="svg.css"?>-->
<!DOCTYPE svg PUBLIC "-//W3C//DTD SVG 1.1//EN" "http://www.w3.org/Graphics/SVG/1.1/DTD/svg11.dtd">
<svg version="1.1" xmlns="http://www.w3.org/2000/svg" xmlns:xlink="http://www.w3.org/1999/xlink" x="0px" y="0px" width="16px" height="16px" viewBox="0 0 16 16" xml:space="preserve">
	
	<title>Label</title> 
	<desc>Label Icon</desc> 
	
	<!--
		@author		Harald Szekely 
		@copyright	2011 WoltLab GmbH 
		@license	GNU Lesser General Public License <http://opensource.org/licenses/lgpl-license.php> 
	--> 
	
	<defs>
		<style type="text/css">
			<![CDATA[
				.Upper1 {fill: #666;}
				.Lower1 {fill: #fff;}
			]]>
		</style>
	</defs>
	
	<g id="IconLabel">
		<path class="Lower1" style="fill-rule: evenodd; clip-rule: evenodd;f" d="M15,8.5009766
			c0-1.1352539-0.7949219-2.1391602-2.0009766-2.7792969V5.0004883h-10v0.722168
			c-1.2050781,0.640625-1.9985352,1.644043-1.9985352,2.7783203c0,1.1337891,0.793457,2.1376953,1.9985352,2.7783203V12h2.9946289
			c0.0024414,0,0.0043945,0,0.0068359,0H10c0.0019531,0,0.0048828,0,0.0068359,0h2.9921875v-0.71875
			C14.2050781,10.640625,15,9.6367188,15,8.5009766z"/>
		<path class="Upper1" style="fill-rule: evenodd; clip-rule: evenodd;" d="M15,7.5004883
			c0-1.1352539-0.7949219-2.1391602-2.0009766-2.7792969V4h-10v0.722168c-1.2050781,0.640625-1.9985352,1.644043-1.9985352,2.7783203
			s0.793457,2.1381836,1.9985352,2.7788086V11h2.9946289c0.0024414,0,0.0043945,0,0.0068359,0H10
			c0.0019531,0,0.0048828,0,0.0068359,0h2.9921875v-0.7207031C14.2050781,9.6396484,15,8.6357422,15,7.5004883z"/>
	</g>
</svg>
