<?xml version="1.0" encoding="utf-8"?>
<!--<?xml-stylesheet type="text/css" href="svg.css"?>-->
<!DOCTYPE svg PUBLIC "-//W3C//DTD SVG 1.1//EN" "http://www.w3.org/Graphics/SVG/1.1/DTD/svg11.dtd">
<svg version="1.1" xmlns="http://www.w3.org/2000/svg" xmlns:xlink="http://www.w3.org/1999/xlink" x="0px" y="0px" width="16px" height="16px" viewBox="0 0 16 16" xml:space="preserve">
	
	<title>Language</title>
	<desc>Language Icon</desc>
	
	<!--
		@author		Harald Szekely 
		@copyright	2011 WoltLab GmbH 
		@license	GNU Lesser General Public License <http://opensource.org/licenses/lgpl-license.php> 
	--> 
	
	<defs>
		<style type="text/css">
			<![CDATA[
				.Upper1 {fill: #666;}
				.Lower1 {fill: #fff;}
			]]>
		</style>
	</defs>
	
	<g id="IconLanguage">
		<g class="Lower1">
			<path id="Flag23" d="M1,7.7158203c0,2.3339844,0,4.6669922,0,7.0009766
				c3.3334961,0.9804688,6.6665039-0.9804688,10,0c0-2.3339844,0-4.6669922,0-7.0009766
				C7.6665039,6.7358398,4.3334961,8.6953125,1,7.7158203z"/>
			<path id="Flag22" d="M5,1.7163086c0,0.9189453,0,1.8378906,0,2.7568359
				c2.8334961,0.1953125,5.6669922-1.0898438,8.5-0.2568359c0,1.4145508,0,2.8291016,0,4.2426758
				c0.5,0.0351562,1,0.1113281,1.5,0.2578125c0-2.3339844,0-4.6669922,0-7.0004883
				C11.6669922,0.7363281,8.3334961,2.6962891,5,1.7163086z"/>
			<path id="Flag21" d="M3,4.7163086c0,0.9189453,0,1.8374023,0,2.7563477
				c2.8334961,0.1958008,5.6665039-1.0898438,8.5-0.2568359c0,1.4150391,0,2.8291016,0,4.2431641
				c0.5,0.0351562,1,0.109375,1.5,0.2578125c0-2.3339844,0-4.6669922,0-7.0004883
				C9.6669922,3.7363281,6.3334961,5.6962891,3,4.7163086z"/>
		</g>
		<g class="Upper1">
			<path id="Flag13" d="M1,6.9995117C1,9.3330078,1,11.6660156,1,14
				c3.3334961,0.9804688,6.6665039-0.9804688,10,0c0-2.3339844,0-4.6669922,0-7.0004883
				C7.6665039,6.0195312,4.3334961,7.9794922,1,6.9995117z"/>
			<path id="Flag12" d="M5,1c0,0.9189453,0,1.8378906,0,2.7568359
				C7.8334961,3.9521484,10.6669922,2.6669922,13.5,3.5c0,1.4145508,0,2.8291016,0,4.2431641C14,7.777832,14.5,7.8530273,15,8
				c0-2.3334961,0-4.6665039,0-7C11.6669922,0.0200195,8.3334961,1.9799805,5,1z"/>
			<path id="Flag11" d="M3,4c0,0.9189453,0,1.8374023,0,2.7563477
				c2.8334961,0.1958008,5.6665039-1.0898438,8.5-0.2568359c0,1.4145508,0,2.8286133,0,4.2436523
				C12,10.7773438,12.5,10.8525391,13,11c0-2.3334961,0-4.6665039,0-7C9.6669922,3.0200195,6.3334961,4.9799805,3,4z"/>
		</g>
	</g>
</svg>
