<?xml version="1.0" encoding="utf-8"?>
<!-- Generator: Adobe Illustrator 15.1.0, SVG Export Plug-In . SVG Version: 6.00 Build 0)  -->
<!DOCTYPE svg PUBLIC "-//W3C//DTD SVG 1.1//EN" "http://www.w3.org/Graphics/SVG/1.1/DTD/svg11.dtd">
<svg version="1.1" id="Ebene_1" xmlns="http://www.w3.org/2000/svg" xmlns:xlink="http://www.w3.org/1999/xlink" x="0px" y="0px" width="16px" height="16px" viewBox="0 0 16 16" enable-background="new 0 0 16 16" xml:space="preserve">
	<title>Link</title>
	<desc>Link Icon</desc>
	
	<!--
		@author		Harald Szekely
		@copyright	2001-2012 WoltLab GmbH 
		@license	GNU Lesser General Public License <http://opensource.org/licenses/lgpl-license.php> 
	--> 
	
	<defs>
		<style type="text/css">
			<![CDATA[
				.surface { fill: #666; }
				.shadow { fill: #fff; }
			]]>
		</style>
	</defs>
	
	<g id="IconLink">
		<g>
			<path id="Part32" class="shadow" d="M4.205,8.76l-2.121,2.121c-0.778,0.778-0.778,2.051,0,2.829l0.707,0.707
				c0.778,0.777,2.051,0.777,2.829,0l2.122-2.122c0.778-0.777,0.778-2.051,0-2.828L7.034,8.76C6.255,7.982,4.982,7.982,4.205,8.76z
				 M7.033,10.174c0.389,0.389,0.389,1.025,0,1.414L4.912,13.71c-0.389,0.389-1.025,0.389-1.414,0l-0.707-0.708
				c-0.389-0.389-0.389-1.025,0-1.414l2.121-2.121c0.389-0.389,1.025-0.389,1.415,0L7.033,10.174z"/>
			<path id="Part22" class="shadow" d="M10.449,6.05c0.292,0.291,0.345,0.716,0.117,0.943l-4.123,4.124
				c-0.227,0.226-0.651,0.173-0.942-0.118L5.5,11c-0.292-0.293-0.345-0.718-0.118-0.942l4.124-4.125
				c0.228-0.227,0.652-0.174,0.942,0.116V6.05z"/>
			<path id="Part12" class="shadow" d="M10.381,2.583L8.26,4.705c-0.777,0.778-0.778,2.051,0,2.829L8.967,8.24
				c0.778,0.777,2.051,0.777,2.829,0l2.121-2.121c0.778-0.778,0.777-2.051,0-2.829L13.21,2.583
				C12.432,1.806,11.159,1.805,10.381,2.583z M13.21,3.997c0.389,0.389,0.389,1.025,0,1.414l-2.122,2.122
				c-0.388,0.388-1.025,0.389-1.414,0L8.967,6.826c-0.389-0.389-0.389-1.026,0-1.415l2.121-2.121c0.39-0.39,1.025-0.389,1.414,0
				L13.21,3.997z"/>
		</g>
		<g>
			<path id="Part31" class="surface" d="M4.205,7.759L2.083,9.881c-0.778,0.778-0.778,2.051,0,2.829l0.707,0.707
				c0.778,0.777,2.05,0.776,2.829,0l2.121-2.122c0.779-0.777,0.779-2.051,0-2.828L7.034,7.76C6.255,6.982,4.982,6.982,4.205,7.759z
				 M7.033,9.174c0.389,0.389,0.389,1.025,0,1.414L4.912,12.71c-0.389,0.389-1.025,0.389-1.414,0l-0.707-0.708
				c-0.389-0.389-0.389-1.025,0-1.414l2.121-2.121c0.389-0.389,1.025-0.389,1.415,0L7.033,9.174z"/>
			<path id="Part21" class="surface" d="M10.449,5.05c0.292,0.291,0.346,0.716,0.117,0.943l-4.123,4.124
				C6.217,10.343,5.792,10.29,5.501,10H5.5C5.209,9.707,5.156,9.282,5.383,9.057l4.124-4.124C9.734,4.706,10.159,4.759,10.449,5.05
				L10.449,5.05z"/>
			<path id="Part11" class="surface" d="M10.381,1.583L8.26,3.705c-0.777,0.778-0.778,2.051,0,2.829L8.967,7.24
				c0.778,0.777,2.051,0.777,2.828,0l2.122-2.121c0.778-0.779,0.777-2.051,0-2.829L13.21,1.583
				C12.432,0.806,11.159,0.805,10.381,1.583z M13.21,2.997c0.389,0.389,0.389,1.025,0,1.415l-2.122,2.122
				c-0.388,0.388-1.025,0.389-1.414,0L8.967,5.826c-0.389-0.389-0.389-1.026,0-1.415l2.121-2.121c0.39-0.39,1.025-0.389,1.414,0
				L13.21,2.997z"/>
		</g>
	</g>
</svg>
