<?xml version="1.0" encoding="utf-8"?>
<!--<?xml-stylesheet type="text/css" href="svg.css"?>-->
<!DOCTYPE svg PUBLIC "-//W3C//DTD SVG 1.1//EN" "http://www.w3.org/Graphics/SVG/1.1/DTD/svg11.dtd">
<svg version="1.1" xmlns="http://www.w3.org/2000/svg" xmlns:xlink="http://www.w3.org/1999/xlink" x="0px" y="0px" width="16px" height="16px" viewBox="0 0 16 16" xml:space="preserve">
	
	<title>Link</title>
	<desc>Link Icon (linked)</desc>
	
	<!--
		@author		Harald Szekely 
		@copyright	2011 WoltLab GmbH 
		@license	GNU Lesser General Public License <http://opensource.org/licenses/lgpl-license.php> 
	--> 
	
	<defs>
		<style type="text/css">
			<![CDATA[
				.Upper1 {fill: #369;}
				.Lower1 {fill: #fff;}
			]]>
		</style>
	</defs>
	
	<g id="IconLink">
		<g class="Lower1">
			<path id="Part32" style="fill-rule: evenodd; clip-rule: evenodd;" d="M3.7045898,8.7597656l-2.1210938,2.1210938
				c-0.777832,0.7783203-0.777832,2.0507812,0,2.8291016l0.7070312,0.7070312c0.777832,0.7773438,2.0507812,0.7773438,2.8286133,0
				l2.121582-2.1220703c0.777832-0.7773438,0.777832-2.0507812-0.0004883-2.828125l-0.706543-0.7070312
				C5.7553711,7.9819336,4.4824219,7.9819336,3.7045898,8.7597656z M6.5332031,10.1738281
				c0.3891602,0.3886719,0.3891602,1.0253906,0.0004883,1.4140625l-2.1220703,2.1220703
				c-0.3886719,0.3886719-1.0253906,0.3886719-1.4140625,0l-0.7070312-0.7080078
				c-0.3886719-0.3886719-0.3886719-1.0253906,0-1.4140625l2.1210938-2.1210938c0.3891602-0.3886719,1.0253906-0.3886719,1.4145508,0
				L6.5332031,10.1738281z"/>
			<path id="Part22" style="fill-rule: evenodd; clip-rule: evenodd;" d="M9.9492188,6.050293
				c0.2919922,0.2910156,0.3447266,0.7163086,0.1171875,0.9428711l-4.1230469,4.1240234
				c-0.2265625,0.2255859-0.6508789,0.1728516-0.9423828-0.1181641L5.0004883,11
				c-0.2915039-0.2929688-0.3447266-0.7177734-0.1176758-0.9423828l4.1240234-4.125
				C9.234375,5.7055664,9.6591797,5.7587891,9.9492188,6.0488281V6.050293z"/>
			<path id="Part12" style="fill-rule: evenodd; clip-rule: evenodd;" d="M9.8808594,2.5830078l-2.1210938,2.121582
				c-0.7773438,0.777832-0.777832,2.0507812,0,2.8286133l0.7070312,0.7070312c0.7783203,0.7773438,2.0507812,0.7773438,2.8291016,0
				l2.1210938-2.1210938c0.7783203-0.7783203,0.7773438-2.0507812,0-2.8286133l-0.7070312-0.7070312
				C11.9316406,1.8056641,10.6591797,1.8051758,9.8808594,2.5830078z M12.7099609,3.9970703
				c0.3886719,0.3886719,0.3886719,1.0253906,0,1.4140625l-2.1220703,2.1220703
				C10.2001953,7.9213867,9.5625,7.921875,9.1738281,7.5327148l-0.7070312-0.706543
				c-0.3891602-0.3891602-0.3881836-1.0263672,0-1.4145508l2.1210938-2.1210938c0.3896484-0.3896484,1.0253906-0.3891602,1.4140625,0
				L12.7099609,3.9970703z"/>
		</g>
		<g class="Upper1">
			<path id="Part31" style="fill-rule: evenodd; clip-rule: evenodd;" d="M3.7045898,7.7592773l-2.1210938,2.121582
				c-0.777832,0.7783203-0.777832,2.0507812,0,2.8291016l0.7070312,0.7070312c0.777832,0.7773438,2.050293,0.7763672,2.8286133,0
				l2.1206055-2.1220703c0.7788086-0.7773438,0.7788086-2.0507812,0.0004883-2.828125l-0.706543-0.7070312
				C5.7553711,6.9819336,4.4824219,6.9819336,3.7045898,7.7592773z M6.5332031,9.1738281
				C6.921875,9.5625,6.9223633,10.1992188,6.5336914,10.5878906l-2.1220703,2.1220703
				c-0.3886719,0.3886719-1.0253906,0.3886719-1.4140625,0l-0.706543-0.7080078
				c-0.3891602-0.3886719-0.3891602-1.0253906-0.0004883-1.4140625l2.1210938-2.1210938
				c0.3891602-0.3886719,1.0253906-0.3886719,1.4145508,0L6.5332031,9.1738281z"/>
			<path id="Part21" style="fill-rule: evenodd; clip-rule: evenodd;" d="M9.9492188,5.050293
				c0.2919922,0.2910156,0.3457031,0.7158203,0.1171875,0.9433594l-4.1230469,4.1235352
				C5.7167969,10.3427734,5.2924805,10.2900391,5.0009766,10H5C4.7089844,9.7070312,4.6557617,9.2822266,4.8828125,9.0566406
				l4.1240234-4.1240234C9.234375,4.7060547,9.6591797,4.7587891,9.9492188,5.0493164V5.050293z"/>
			<path id="Part11" style="fill-rule: evenodd; clip-rule: evenodd;" d="M9.8808594,1.5834961L7.7597656,3.7045898
				c-0.7773438,0.777832-0.777832,2.0507812,0,2.8286133l0.7070312,0.7070312
				c0.7783203,0.7773438,2.0507812,0.7773438,2.828125-0.0004883l2.1220703-2.1206055
				c0.7783203-0.7788086,0.7773438-2.0507812,0-2.8291016l-0.7070312-0.7070312
				C11.9316406,0.8056641,10.6591797,0.8051758,9.8808594,1.5834961z M12.7099609,2.9970703
				c0.3886719,0.3886719,0.3886719,1.0253906,0,1.4145508l-2.1220703,2.121582c-0.3876953,0.3881836-1.0253906,0.3886719-1.4140625,0
				L8.4667969,5.8261719c-0.3891602-0.3891602-0.3881836-1.0263672,0-1.4145508l2.1210938-2.1210938
				c0.3896484-0.3896484,1.0253906-0.3886719,1.4140625,0L12.7099609,2.9970703z"/>
		</g>
	</g>
</svg>
