<?xml version="1.0" encoding="utf-8"?>
<!-- Generator: Adobe Illustrator 15.1.0, SVG Export Plug-In . SVG Version: 6.00 Build 0)  -->
<!DOCTYPE svg PUBLIC "-//W3C//DTD SVG 1.1//EN" "http://www.w3.org/Graphics/SVG/1.1/DTD/svg11.dtd">
<svg version="1.1" id="Ebene_1" xmlns="http://www.w3.org/2000/svg" xmlns:xlink="http://www.w3.org/1999/xlink" x="0px" y="0px" width="16px" height="16px" viewBox="0 0 16 16" enable-background="new 0 0 16 16" xml:space="preserve">
	<title>List</title>
	<desc>List Icon</desc>
	
	<!--
		@author		Alexander Ebert 
		@copyright	2001-2012 WoltLab GmbH 
		@license	GNU Lesser General Public License <http://opensource.org/licenses/lgpl-license.php> 
	--> 
	
	<defs>
		<style type="text/css">
			<![CDATA[
				.surface { fill: #369; }
				.shadow { fill: #fff; }
			]]>
		</style>
	</defs>
	
	<g>
		<path class="surface" d="M14,3.501c0,0.276-0.167,0.5-0.374,0.5h-8.25C5.168,4.001,5,3.777,5,3.501l0,0c0-0.276,0.168-0.5,0.376-0.5
			h8.25C13.833,3.001,14,3.225,14,3.501L14,3.501z"/>
		<path class="surface" d="M14,7.501c0,0.276-0.168,0.5-0.374,0.5h-8.25C5.168,8.001,5,7.777,5,7.501l0,0c0-0.276,0.168-0.5,0.376-0.5
			h8.25C13.832,7.001,14,7.225,14,7.501L14,7.501z"/>
		<circle class="surface" cx="2.5" cy="3.501" r="0.5"/>
		<circle class="surface" cx="2.5" cy="7.501" r="0.5"/>
		<circle class="surface" cx="2.5" cy="11.499" r="0.5"/>
		<path class="surface" d="M14,11.499c0,0.275-0.167,0.5-0.374,0.5h-8.25c-0.208,0-0.376-0.225-0.376-0.5l0,0
			c0-0.275,0.168-0.5,0.375-0.5h8.25C13.833,10.999,14,11.224,14,11.499L14,11.499z"/>
	</g>
	<g>
		<path class="shadow" opacity=".8" d="M14,4.501c0,0.276-0.167,0.5-0.374,0.5h-8.25C5.168,5.001,5,4.777,5,4.501l0,0c0-0.276,0.168-0.5,0.376-0.5
			h8.25C13.833,4.001,14,4.225,14,4.501L14,4.501z"/>
		<path class="shadow" opacity=".8" d="M14,8.501c0,0.276-0.168,0.5-0.374,0.5h-8.25C5.168,9.001,5,8.777,5,8.501l0,0c0-0.276,0.168-0.5,0.376-0.5
			h8.25C13.832,8.001,14,8.225,14,8.501L14,8.501z"/>
		<circle class="shadow" opacity=".8" cx="2.5" cy="4.501" r="0.5"/>
		<circle class="shadow" opacity=".8" cx="2.5" cy="8.501" r="0.5"/>
		<circle class="shadow" opacity=".8" cx="2.5" cy="12.499" r="0.5"/>
		<path class="shadow" opacity=".8" d="M14,12.499c0,0.275-0.167,0.5-0.374,0.5h-8.25c-0.208,0-0.376-0.225-0.376-0.5l0,0
			c0-0.275,0.168-0.5,0.375-0.5h8.25C13.833,11.999,14,12.224,14,12.499L14,12.499z"/>
	</g>
</svg>
