<?xml version="1.0" encoding="utf-8"?>
<!--<?xml-stylesheet type="text/css" href="svg.css"?>-->
<!DOCTYPE svg PUBLIC "-//W3C//DTD SVG 1.1//EN" "http://www.w3.org/Graphics/SVG/1.1/DTD/svg11.dtd">
<svg version="1.1" xmlns="http://www.w3.org/2000/svg" xmlns:xlink="http://www.w3.org/1999/xlink" x="0px" y="0px" width="16px" height="16px" viewBox="0 0 16 16" xml:space="preserve">
	
	<title>Lock</title>
	<desc>Padlock Icon (closed)</desc>
	
	<!--
		@author		Harald Szekely 
		@copyright	2011 WoltLab GmbH 
		@license	GNU Lesser General Public License <http://opensource.org/licenses/lgpl-license.php> 
	--> 
	
	<defs>
		<style type="text/css">
			<![CDATA[
				.Upper1 {fill: #666;}
				.Lower1 {fill: #fff;}
			]]>
		</style>
	</defs>
	
	<g id="IconPadlock">
		<path class="Lower1" d="M4.7724609,10.2294922c0,0.4755859,0.3330078,0.96875,0.7998047,1.1269531
			l-0.2490234,2.3417969C5.3232422,13.8632812,5.4736328,14,5.6582031,14h0.6835938
			c0.1855469,0,0.3359375-0.1367188,0.3359375-0.3017578l-0.25-2.3417969
			c0.4677734-0.1582031,0.8007812-0.6513672,0.8007812-1.1269531C7.2285156,9.6191406,6.8955078,9,6,9
			C5.0546875,9,4.7724609,9.6191406,4.7724609,10.2294922z M3.4794922,8H8.5V5c0-0.4375-0.5205078-1.5-2-1.5h-1
			c-1.5205078,0-2,1.0151367-2,1.5L3.4794922,8z M1,8.6523438C1,8.2924805,1.2871094,8,1.6425781,8H2V5c0-1.5,1.5-3,3.4384766-3
			H6.5625C8.5,2,10,3.4790039,10,5v3h0.3583984C10.7138672,8,11,8.2924805,11,8.6523438v5.6943359
			C11,14.7080078,10.7138672,15,10.3583984,15H1.6425781C1.2871094,15,1,14.7080078,1,14.3466797V8.6523438z"/>
		<path class="Upper1" d="M4.7724609,9.2294922c0,0.4755859,0.3330078,0.96875,0.7998047,1.1269531
			l-0.2490234,2.3417969C5.3232422,12.8632812,5.4736328,13,5.6582031,13h0.6835938
			c0.1855469,0,0.3359375-0.1367188,0.3359375-0.3017578l-0.25-2.3417969
			c0.4677734-0.1582031,0.8007812-0.6513672,0.8007812-1.1269531C7.2285156,8.6186523,6.8955078,8,6,8
			C5.0546875,8,4.7724609,8.6186523,4.7724609,9.2294922z M3.4794922,7H8.5V4c0-0.4375-0.5205078-1.5-2-1.5h-1
			c-1.5205078,0-2,1.0151367-2,1.5L3.4794922,7z M1,7.6523438C1,7.2924805,1.2871094,7,1.6425781,7H2V4c0-1.5,1.5-3,3.4384766-3
			H6.5625C8.5,1,10,2.4790039,10,4v3h0.3583984C10.7138672,7,11,7.2924805,11,7.6523438v5.6943359
			C11,13.7080078,10.7138672,14,10.3583984,14H1.6425781C1.2871094,14,1,13.7080078,1,13.3466797V7.6523438z"/>
	</g>
</svg>
