<?xml version="1.0" encoding="utf-8"?>
<!--<?xml-stylesheet type="text/css" href="svg.css"?>-->
<!DOCTYPE svg PUBLIC "-//W3C//DTD SVG 1.1//EN" "http://www.w3.org/Graphics/SVG/1.1/DTD/svg11.dtd">
<svg version="1.1" xmlns="http://www.w3.org/2000/svg" xmlns:xlink="http://www.w3.org/1999/xlink" x="0px" y="0px" width="16px" height="16px" viewBox="0 0 16 16" xml:space="preserve">
	
	<title>Lock</title>
	<desc>Padlock Icon (unlocked)</desc>
	
	<!--
		@author		Harald Szekely 
		@copyright	2011 WoltLab GmbH 
		@license	GNU Lesser General Public License <http://opensource.org/licenses/lgpl-license.php> 
	--> 
	
	<defs>
		<style type="text/css">
			<![CDATA[
				.Upper1 {fill: #369;}
				.Lower1 {fill: #fff;}
			]]>
		</style>
	</defs>
	
	<g id="IconPadlock">
		<path class="Lower1" d="M5.362793,10.21875c0,0.4755859,0.2231445,1.109375,0.5375977,1.265625
			l-0.1679688,2.2138672C5.7324219,13.8662109,5.8334961,14,5.9575195,14h0.4594727
			c0.125,0,0.2255859-0.1337891,0.2255859-0.3017578l-0.168457-2.2138672c0.3144531-0.15625,0.5390625-0.7900391,0.5390625-1.265625
			C7.0131836,9.6074219,6.7885742,9,6.1875,9C5.5522461,9,5.362793,9.6074219,5.362793,10.21875z M6,8V5c0-2,1-3,3.5-3S13,3,13,5v2
			h-1.5V6.4467773c0,0,0.5-0.0097656,0.5-0.4467773c0-0.4848633-0.5-0.4462891-0.5-0.4462891V5c0-0.4418945,0.0214844-1.5-2-1.5
			c-1.9580078,0-2,1.03125-2,1.5v3.0004883l1.3051758,0.0043945C8.9130859,8.0048828,9,8.140625,9,8.3085938v6.3876953
			C9,14.8652344,8.9130859,15,8.8051758,15H3.25V8.0048828L6,8z M3,15H1.1948242C1.0874023,15,1,14.8652344,1,14.6962891V8.3085938
			C1,8.140625,1.0874023,8.0048828,1.1948242,8.0048828H3V15z"/>
		<path class="Upper1" d="M5.362793,9.21875c0,0.4755859,0.2231445,1.109375,0.5375977,1.265625
			l-0.1679688,2.2138672C5.7324219,12.8662109,5.8334961,13,5.9575195,13h0.4594727
			c0.125,0,0.2255859-0.1337891,0.2255859-0.3017578l-0.168457-2.2138672c0.3144531-0.15625,0.5390625-0.7900391,0.5390625-1.265625
			C7.0131836,8.6079102,6.7885742,8,6.1875,8C5.5522461,8,5.362793,8.6079102,5.362793,9.21875z M6,7V4c0-2,1-3,3.5-3S13,2,13,4v2
			h-1.5V5.4467773c0,0,0.5-0.0097656,0.5-0.4467773c0-0.4848633-0.5-0.4462891-0.5-0.4462891V4c0-0.4418945,0.0214844-1.5-2-1.5
			c-1.9580078,0-2,1.03125-2,1.5v3.0004883l1.3051758,0.0043945C8.9130859,7.0048828,9,7.140625,9,7.3085938v6.3876953
			C9,13.8652344,8.9130859,14,8.8051758,14H3.25V7.0048828L6,7z M3,14H1.1948242C1.0874023,14,1,13.8652344,1,13.6962891V7.3085938
			C1,7.140625,1.0874023,7.0048828,1.1948242,7.0048828H3V14z"/>
	</g>
</svg>
