<?xml version="1.0" encoding="utf-8"?>
<!-- Generator: Adobe Illustrator 15.1.0, SVG Export Plug-In . SVG Version: 6.00 Build 0)  -->
<!DOCTYPE svg PUBLIC "-//W3C//DTD SVG 1.1//EN" "http://www.w3.org/Graphics/SVG/1.1/DTD/svg11.dtd">
<svg version="1.1" id="Ebene_1" xmlns="http://www.w3.org/2000/svg" xmlns:xlink="http://www.w3.org/1999/xlink" x="0px" y="0px" width="16px" height="16px" viewBox="0 0 16 16" enable-background="new 0 0 16 16" xml:space="preserve">
	<title>Lock</title>
	<desc>Lock Icon</desc>
	
	<!--
		@author		Harald Szekely
		@copyright	2001-2012 WoltLab GmbH 
		@license	GNU Lesser General Public License <http://opensource.org/licenses/lgpl-license.php> 
	--> 
	
	<defs>
		<style type="text/css">
			<![CDATA[
				.surface { fill: #fff; }
				.shadow { fill: #000; }
			]]>
		</style>
	</defs>
	
	<g id="IconPadlock">
		<path class="shadow" transform="translate(0 -1)" opacity=".8" d="M6.772,10.229c0,0.476,0.333,0.969,0.8,1.127l-0.249,2.342c0,0.165,0.15,0.302,0.335,0.302h0.684
			c0.186,0,0.336-0.137,0.336-0.302l-0.25-2.342c0.468-0.158,0.801-0.651,0.801-1.127C9.229,9.619,8.896,9,8,9
			C7.055,9,6.772,9.619,6.772,10.229z M5.479,8H10.5V5c0-0.438-0.521-1.5-2-1.5h-1c-1.521,0-2,1.015-2,1.5L5.479,8z M3,8.652
			C3,8.292,3.287,8,3.643,8H4V5c0-1.5,1.5-3,3.438-3h1.124C10.5,2,12,3.479,12,5v3h0.358C12.714,8,13,8.292,13,8.652v5.694
			C13,14.708,12.714,15,12.358,15H3.643C3.287,15,3,14.708,3,14.347V8.652z"/>
		<path class="surface" transform="translate(0 1)" d="M6.772,9.229c0,0.476,0.333,0.969,0.8,1.127l-0.249,2.342c0,0.165,0.15,0.302,0.335,0.302h0.684
			c0.186,0,0.336-0.137,0.336-0.302l-0.25-2.342c0.468-0.158,0.801-0.651,0.801-1.127C9.229,8.619,8.896,8,8,8
			C7.055,8,6.772,8.619,6.772,9.229z M5.479,7H10.5V4c0-0.438-0.521-1.5-2-1.5h-1c-1.521,0-2,1.015-2,1.5L5.479,7z M3,7.652
			C3,7.292,3.287,7,3.643,7H4V4c0-1.5,1.5-3,3.438-3h1.124C10.5,1,12,2.479,12,4v3h0.358C12.714,7,13,7.292,13,7.652v5.694
			C13,13.708,12.714,14,12.358,14H3.643C3.287,14,3,13.708,3,13.347V7.652z"/>
	</g>
</svg>
