<?xml version="1.0" encoding="utf-8"?>
<!-- Generator: Adobe Illustrator 15.1.0, SVG Export Plug-In . SVG Version: 6.00 Build 0)  -->
<!DOCTYPE svg PUBLIC "-//W3C//DTD SVG 1.1//EN" "http://www.w3.org/Graphics/SVG/1.1/DTD/svg11.dtd">
<svg version="1.1" id="Ebene_1" xmlns="http://www.w3.org/2000/svg" xmlns:xlink="http://www.w3.org/1999/xlink" x="0px" y="0px" width="16px" height="16px" viewBox="0 0 16 16" enable-background="new 0 0 16 16" xml:space="preserve">
	<title>Lock Open</title>
	<desc>Lock Open Icon</desc>
	
	<!--
		@author		Alexander Ebert
		@copyright	2001-2012 WoltLab GmbH 
		@license	GNU Lesser General Public License <http://opensource.org/licenses/lgpl-license.php> 
	--> 
	
	<defs>
		<style type="text/css">
			<![CDATA[
				.surface { fill: #369; }
				.shadow { fill: #fff; }
			]]>
		</style>
	</defs>
	
	<g id="IconPadlock">
		<path class="shadow" opacity=".8" d="M6.363,10.219c0,0.476,0.223,1.109,0.538,1.266l-0.168,2.214C6.732,13.866,6.833,14,6.958,14h0.459
			c0.125,0,0.226-0.134,0.226-0.302l-0.168-2.214c0.314-0.156,0.539-0.79,0.539-1.266C8.013,9.607,7.789,9,7.188,9
			C6.552,9,6.363,9.607,6.363,10.219z M7,8V5c0-2,1-3,3.5-3S14,3,14,5v2h-1.5V6.447c0,0,0.5-0.01,0.5-0.447
			c0-0.485-0.5-0.446-0.5-0.446V5c0-0.442,0.021-1.5-2-1.5c-1.958,0-2,1.031-2,1.5v3l1.305,0.004C9.913,8.005,10,8.141,10,8.309
			v6.388C10,14.865,9.913,15,9.805,15H4.25V8.005L7,8z M4,15H2.195C2.087,15,2,14.865,2,14.696V8.309
			c0-0.168,0.087-0.304,0.195-0.304H4V15z"/>
		<path class="surface" d="M6.363,9.219c0,0.476,0.223,1.109,0.538,1.266l-0.168,2.214C6.732,12.866,6.833,13,6.958,13h0.459
			c0.125,0,0.226-0.134,0.226-0.302l-0.168-2.214c0.314-0.156,0.539-0.79,0.539-1.266C8.013,8.607,7.789,8,7.188,8
			C6.552,8,6.363,8.607,6.363,9.219z M7,7V4c0-2,1-3,3.5-3S14,2,14,4v2h-1.5V5.447c0,0,0.5-0.01,0.5-0.447
			c0-0.485-0.5-0.446-0.5-0.446V4c0-0.442,0.021-1.5-2-1.5c-1.958,0-2,1.031-2,1.5v3l1.305,0.004C9.913,7.005,10,7.141,10,7.309
			v6.388C10,13.865,9.913,14,9.805,14H4.25V7.005L7,7z M4,14H2.195C2.087,14,2,13.865,2,13.696V7.309
			c0-0.168,0.087-0.304,0.195-0.304H4V14z"/>
	</g>
</svg>
