<?xml version="1.0" encoding="utf-8"?>
<!-- Generator: Adobe Illustrator 15.1.0, SVG Export Plug-In . SVG Version: 6.00 Build 0)  -->
<!DOCTYPE svg PUBLIC "-//W3C//DTD SVG 1.1//EN" "http://www.w3.org/Graphics/SVG/1.1/DTD/svg11.dtd">
<svg version="1.1" id="Ebene_1" xmlns="http://www.w3.org/2000/svg" xmlns:xlink="http://www.w3.org/1999/xlink" x="0px" y="0px" width="16px" height="16px" viewBox="0 0 16 16" enable-background="new 0 0 16 16" xml:space="preserve">
	<title>Message Open</title>
	<desc>Message Open Icon</desc>
	
	<!--
		@author		Alexander Ebert
		@copyright	2001-2012 WoltLab GmbH 
		@license	GNU Lesser General Public License <http://opensource.org/licenses/lgpl-license.php> 
	--> 
	
	<defs>
		<style type="text/css">
			<![CDATA[
				.surface { fill: #369; }
				.shadow { fill: #fff; }
			]]>
		</style>
	</defs>
	
	<g id="IconPrivateMessage1">
		<g>
			<path id="Frame2" class="shadow" opacity=".8" d="M13.5,5h-11c-0.594,0-1,0.484-1,1v8c0,0.5,0.453,1,1,1h11c0.547,0,1-0.5,1-1V6
				C14.5,5.484,14.094,5,13.5,5z M12.5,14h-9c-0.984,0-1-0.016-1-1V6h11v7C13.5,13.984,13.484,14,12.5,14z"/>
			<path id="XComplex2" class="shadow" opacity=".8" d="M13.647,13.798L9.043,10.45c0.018-0.017,0.039-0.028,0.056-0.045L13.5,6h-0.969
				L9.099,9.541c-0.602,0.621-1.615,0.602-2.2-0.002L3.469,6H2.5l4.398,4.404c0.018,0.018,0.039,0.029,0.057,0.046l-4.603,3.348
				l0.294,0.404l4.764-3.464c0.374,0.148,0.802,0.15,1.179,0l4.763,3.464L13.647,13.798z"/>
			<path id="FlapUnread2" class="shadow" opacity=".8" d="M13.5,6l-4.401,4.405c-0.602,0.604-1.615,0.585-2.2-0.001L2.5,6H13.5z"/>
			<path id="FlapRead2" class="shadow" opacity=".8" d="M2.031,5.118l4.871-2.772c0.828-0.462,1.411-0.462,2.2,0.001l4.87,2.771H2.031z"/>
		</g>
		<g>
			<path id="Frame1" class="surface" d="M13.5,4h-11c-0.594,0-1,0.484-1,1v8c0,0.5,0.453,1,1,1h11c0.547,0,1-0.5,1-1V5
				C14.5,4.484,14.094,4,13.5,4z M12.5,13h-9c-0.984,0-1-0.016-1-1V5h11v7C13.5,12.984,13.484,13,12.5,13z"/>
			<path id="XComplex1" class="surface" d="M13.647,12.798L9.043,9.45c0.018-0.017,0.039-0.028,0.056-0.045L13.5,5h-0.969L9.099,8.541
				c-0.602,0.621-1.615,0.602-2.2-0.002L3.469,5H2.5l4.398,4.404C6.916,9.422,6.938,9.434,6.956,9.45l-4.603,3.348l0.294,0.404
				l4.764-3.464c0.374,0.148,0.802,0.15,1.179,0l4.763,3.464L13.647,12.798z"/>
			<path id="FlapUnread1" class="surface" d="M13.5,5L9.099,9.405c-0.602,0.604-1.615,0.585-2.2-0.001L2.5,5H13.5z"/>
			<path id="FlapRead1" class="surface" d="M2.031,4.118l4.871-2.772c0.828-0.462,1.411-0.462,2.2,0.001l4.87,2.771H2.031z"/>
		</g>
	</g>
</svg>
