<?xml version="1.0" encoding="utf-8"?>
<!-- Generator: Adobe Illustrator 15.1.0, SVG Export Plug-In . SVG Version: 6.00 Build 0)  -->
<!DOCTYPE svg PUBLIC "-//W3C//DTD SVG 1.1//EN" "http://www.w3.org/Graphics/SVG/1.1/DTD/svg11.dtd">
<svg version="1.1" id="Ebene_1" xmlns="http://www.w3.org/2000/svg" xmlns:xlink="http://www.w3.org/1999/xlink" x="0px" y="0px" width="16px" height="16px" viewBox="0 0 16 16" enable-background="new 0 0 16 16" xml:space="preserve">
	<title>Message</title>
	<desc>Message Icon</desc>
	
	<!--
		@author		Alexander Ebert
		@copyright	2001-2012 WoltLab GmbH 
		@license	GNU Lesser General Public License <http://opensource.org/licenses/lgpl-license.php> 
	--> 
	
	<defs>
		<style type="text/css">
			<![CDATA[
				.surface { fill: #369; }
				.shadow { fill: #fff; }
			]]>
		</style>
	</defs>
	
	<g id="IconPrivateMessage1" transform="translate(-0.5 0.5)">
		<g>
			<path id="Frame2" class="shadow" opacity=".8" d="M13.5,3.405h-11c-0.594,0-1,0.484-1,1v8c0,0.5,0.453,1,1,1h11c0.547,0,1-0.5,1-1v-8
				C14.5,3.89,14.094,3.405,13.5,3.405z M12.5,12.405h-9c-0.984,0-1-0.016-1-1v-7h11v7C13.5,12.39,13.484,12.405,12.5,12.405z"/>
			<path id="XComplex2" class="shadow" opacity=".8" d="M13.647,12.203L9.043,8.855c0.018-0.017,0.039-0.028,0.056-0.045L13.5,4.406h-0.969
				L9.099,7.946c-0.602,0.621-1.615,0.602-2.2-0.002L3.469,4.406H2.5L6.898,8.81c0.018,0.018,0.039,0.029,0.057,0.046l-4.603,3.348
				l0.294,0.404l4.764-3.464c0.374,0.148,0.802,0.15,1.179,0l4.763,3.464L13.647,12.203z"/>
		</g>
		<g>
			<path id="Frame1" class="surface" d="M13.5,2.405h-11c-0.594,0-1,0.484-1,1v8c0,0.5,0.453,1,1,1h11c0.547,0,1-0.5,1-1v-8
				C14.5,2.89,14.094,2.405,13.5,2.405z M12.5,11.405h-9c-0.984,0-1-0.016-1-1v-7h11v7C13.5,11.39,13.484,11.405,12.5,11.405z"/>
			<path id="XComplex1" class="surface" d="M13.647,11.203L9.043,7.855c0.018-0.017,0.039-0.028,0.056-0.045L13.5,3.406h-0.969
				L9.099,6.946c-0.602,0.621-1.615,0.602-2.2-0.002L3.469,3.406H2.5L6.898,7.81c0.018,0.018,0.039,0.029,0.057,0.046l-4.603,3.348
				l0.294,0.404l4.764-3.464c0.374,0.148,0.802,0.15,1.179,0l4.763,3.464L13.647,11.203z"/>
		</g>
	</g>
</svg>
