<?xml version="1.0" encoding="utf-8"?>
<!--<?xml-stylesheet type="text/css" href="svg.css"?>-->
<!DOCTYPE svg PUBLIC "-//W3C//DTD SVG 1.1//EN" "http://www.w3.org/Graphics/SVG/1.1/DTD/svg11.dtd">
<svg version="1.1" xmlns="http://www.w3.org/2000/svg" xmlns:xlink="http://www.w3.org/1999/xlink" x="0px" y="0px" width="16px" height="16px" viewBox="0 0 16 16" xml:space="preserve">
	
	<title>New</title>
	<desc>New Icon</desc>
	
	<!--
		@author		Harald Szekely 
		@copyright	2011 WoltLab GmbH 
		@license	GNU Lesser General Public License <http://opensource.org/licenses/lgpl-license.php> 
	--> 
	
	<defs>
		<style type="text/css">
			<![CDATA[
				.Upper1 {fill: #666;}
				.Lower1 {fill: #fff;}
			]]>
		</style>
	</defs>
	
	<g id="IconNew">
		<g class="Lower1">
			<g id="Part32">
				<path d="M1.8706055,11.75c-0.2749023-0.4765625-0.1103516-1.0908203,0.3662109-1.3662109l9.5258789-5.5
					C12.2392578,4.6088867,12.8535156,4.7734375,13.1289062,5.25l0,0c0.2753906,0.4765625,0.1103516,1.0913086-0.3662109,1.3662109
					l-9.5258789,5.5C2.7602539,12.3916016,2.1455078,12.2265625,1.8706055,11.75L1.8706055,11.75z"/>
			</g>
			<g id="Part22">
				<path d="M13.1289062,11.75c-0.2753906,0.4765625-0.8896484,0.6416016-1.3662109,0.3662109l-9.5258789-5.5
					C1.7602539,6.3413086,1.5957031,5.7265625,1.8706055,5.25l0,0c0.2749023-0.4765625,0.8896484-0.6411133,1.3662109-0.3662109
					l9.5258789,5.5C13.2392578,10.6591797,13.4042969,11.2734375,13.1289062,11.75L13.1289062,11.75z"/>
			</g>
			<g id="Part12">
				<path d="M7.5,15c-0.5498047,0-1-0.4501953-1-1V3c0-0.5498047,0.4501953-1,1-1l0,0
					c0.5498047,0,1,0.4501953,1,1v11C8.5,14.5498047,8.0498047,15,7.5,15L7.5,15z"/>
			</g>
		</g>
		<g class="Upper1">
			<g id="Part31">
				<path d="M1.8706055,10.75c-0.2749023-0.4765625-0.1103516-1.0908203,0.3662109-1.3662109l9.5258789-5.5
					C12.2392578,3.6088867,12.8535156,3.7734375,13.1289062,4.25l0,0c0.2753906,0.4765625,0.1103516,1.0913086-0.3662109,1.3662109
					l-9.5258789,5.5C2.7602539,11.3916016,2.1455078,11.2265625,1.8706055,10.75L1.8706055,10.75z"/>
			</g>
			<g id="Part21">
				<path d="M13.1289062,10.75c-0.2753906,0.4765625-0.8896484,0.6416016-1.3662109,0.3662109l-9.5258789-5.5
					C1.7602539,5.3413086,1.5957031,4.7265625,1.8706055,4.25l0,0c0.2749023-0.4765625,0.8896484-0.6411133,1.3662109-0.3662109
					l9.5258789,5.5C13.2392578,9.6591797,13.4042969,10.2734375,13.1289062,10.75L13.1289062,10.75z"/>
			</g>
			<g id="Part11">
				<path d="M7.5,14c-0.5498047,0-1-0.4501953-1-1V2c0-0.5498047,0.4501953-1,1-1l0,0
					c0.5498047,0,1,0.4501953,1,1v11C8.5,13.5498047,8.0498047,14,7.5,14L7.5,14z"/>
			</g>
		</g>
	</g>
</svg>
