<?xml version="1.0" encoding="utf-8"?>
<!--<?xml-stylesheet type="text/css" href="svg.css"?>-->
<!DOCTYPE svg PUBLIC "-//W3C//DTD SVG 1.1//EN" "http://www.w3.org/Graphics/SVG/1.1/DTD/svg11.dtd">
<svg version="1.1" xmlns="http://www.w3.org/2000/svg" xmlns:xlink="http://www.w3.org/1999/xlink" x="0px" y="0px" width="16px" height="16px" viewBox="0 0 16 16" xml:space="preserve">
	
	<title>New</title>
	<desc>New Icon</desc>
	
	<!--
		@author		Harald Szekely 
		@copyright	2011 WoltLab GmbH 
		@license	GNU Lesser General Public License <http://opensource.org/licenses/lgpl-license.php> 
	--> 
	
	<defs>
		<style type="text/css">
			<![CDATA[
				.Upper1 {fill: #666;}
				.Lower1 {fill: #fff;}
			]]>
		</style>
	</defs>
	
	<g id="IconNew">
		<g class="Lower1">
			<path d="M14,8.4995117c0-0.5498047-0.4501953-1-1-1h-2.0859375
				c-0.5498047,0-0.6816406-0.3183594-0.2929688-0.7070312l1.4755859-1.4750977c0.3886719-0.3886719,0.3886719-1.0249023,0-1.4140625
				h-0.0009766c-0.3886719-0.3891602-1.0253906-0.3886719-1.4140625,0L9.2070312,5.3779297
				C8.8183594,5.7666016,8.5,5.6347656,8.5,5.0849609V2.9995117c0-0.5498047-0.4501953-1-1-1l0,0c-0.5498047,0-1,0.4501953-1,1
				v2.0859375c0,0.5498047-0.3183594,0.6816406-0.7070312,0.2929688L4.3178711,3.9033203
				c-0.3886719-0.3886719-1.0253906-0.3886719-1.4140625,0s-0.3886719,1.0253906,0,1.4140625l1.4750977,1.4750977
				c0.3886719,0.3886719,0.2568359,0.7070312-0.2929688,0.7070312H2c-0.5498047,0-1,0.4501953-1,1V8.5c0,0.5498047,0.4501953,1,1,1
				h2.0854492c0.5498047,0,0.6816406,0.3183594,0.2929688,0.7070312l-1.4746094,1.4746094
				c-0.3886719,0.3886719-0.3886719,1.0253906,0,1.4140625s1.0253906,0.3886719,1.4140625,0l1.4750977-1.4746094
				C6.1816406,11.2324219,6.5,11.3642578,6.5,11.9140625V14c0,0.5498047,0.4501953,1,1,1l0,0c0.5498047,0,1-0.4501953,1-1v-2.0859375
				c0-0.5498047,0.3183594-0.6816406,0.7070312-0.2929688l1.4746094,1.4746094c0.3886719,0.3886719,1.0253906,0.3886719,1.4140625,0
				h0.0009766c0.3886719-0.3886719,0.3886719-1.0253906,0-1.4140625l-1.4746094-1.4746094
				C10.2333984,9.8183594,10.3652344,9.5,10.9150391,9.5H13c0.5498047,0,1-0.4501953,1-1V8.4995117z"/>
		</g>
		<g class="Upper1">
			<path d="M14,7.5c0-0.5498047-0.4501953-1-1-1h-2.0859375
				c-0.5498047,0-0.6816406-0.3183594-0.2929688-0.7070312l1.4755859-1.4750977c0.3886719-0.3886719,0.3886719-1.0249023,0-1.4140625
				h-0.0009766c-0.3886719-0.3891602-1.0253906-0.3886719-1.4140625,0L9.2070312,4.378418
				C8.8183594,4.7670898,8.5,4.6352539,8.5,4.0854492V2c0-0.5498047-0.4501953-1-1-1l0,0c-0.5498047,0-1,0.4501953-1,1v2.0854492
				c0,0.5498047-0.3183594,0.6816406-0.7070312,0.2929688L4.3178711,2.9038086c-0.3886719-0.3886719-1.0253906-0.3886719-1.4140625,0
				s-0.3886719,1.0253906,0,1.4140625L4.378418,5.7929688C4.7670898,6.1816406,4.6352539,6.5,4.0854492,6.5H2
				c-0.5498047,0-1,0.4501953-1,1l0,0c0,0.5498047,0.4501953,1,1,1h2.0854492c0.5498047,0,0.6816406,0.3183594,0.2929688,0.7070312
				l-1.4746094,1.4746094c-0.3886719,0.3886719-0.3891602,1.0253906,0,1.4140625v0.0009766
				c0.3891602,0.3886719,1.0253906,0.3886719,1.4140625,0l1.4750977-1.4755859C6.1816406,10.2324219,6.5,10.3642578,6.5,10.9140625
				V13c0,0.5498047,0.4501953,1,1,1l0,0c0.5498047,0,1-0.4501953,1-1v-2.0849609
				c0-0.5498047,0.3183594-0.6816406,0.7070312-0.2929688l1.4746094,1.4746094c0.3886719,0.3886719,1.0253906,0.3886719,1.4140625,0
				l0.0009766-0.0009766c0.3886719-0.3886719,0.3886719-1.0253906,0-1.4140625l-1.4746094-1.4746094
				C10.2333984,8.8183594,10.3652344,8.5,10.9150391,8.5H13C13.5498047,8.5,14,8.0498047,14,7.5L14,7.5z"/>
		</g>
	</g>
</svg>
