<?xml version="1.0" encoding="utf-8"?>
<!-- Generator: Adobe Illustrator 15.1.0, SVG Export Plug-In . SVG Version: 6.00 Build 0)  -->
<!DOCTYPE svg PUBLIC "-//W3C//DTD SVG 1.1//EN" "http://www.w3.org/Graphics/SVG/1.1/DTD/svg11.dtd">
<svg version="1.1" id="Ebene_1" xmlns="http://www.w3.org/2000/svg" xmlns:xlink="http://www.w3.org/1999/xlink" x="0px" y="0px" width="16px" height="16px" viewBox="0 0 16 16" enable-background="new 0 0 16 16" xml:space="preserve">
	<title>Note</title>
	<desc>Note Icon</desc>
	
	<!--
		@author		Alexander Ebert
		@copyright	2001-2012 WoltLab GmbH 
		@license	GNU Lesser General Public License <http://opensource.org/licenses/lgpl-license.php> 
	--> 
	
	<defs>
		<style type="text/css">
			<![CDATA[
				.surface { fill: #666; }
				.shadow { fill: #fff; }
			]]>
		</style>
	</defs>
	
	<g id="IconNote">
		<g>
			<path id="Note2" class="shadow" opacity=".8" d="M12.478,4.5h-9c-0.984,0-0.984,0.031-0.984,0.984v6.031c0,0.984,0,0.984,0.984,0.984h6.076
				l3.939-3.96V5.5C13.493,4.531,13.493,4.5,12.478,4.5z M13.491,3.5c0.471,0,1,0.501,1,1l0.002,4l-5.002,5H2.493
				c-0.547,0-0.988-0.5-0.988-1v-8c0-0.516,0.457-1,1.051-1H13.491z"/>
			<path id="Flap2" class="shadow" opacity=".8" d="M9.491,13.5l0.003-4c0-0.547,0.468-1,0.999-1h3.998L9.491,13.5z"/>
		</g>
		<g>
			<path id="Note1" class="surface" d="M12.478,3.5H3.479c-0.984,0-0.984,0.031-0.984,0.984v6.031c0,0.984,0,0.984,0.984,0.984h6.077
				l3.939-3.96V4.5C13.495,3.531,13.495,3.5,12.478,3.5z M13.493,2.5c0.471,0,1,0.501,1,1l0.002,4l-5.002,5H2.494
				c-0.547,0-0.989-0.5-0.989-1v-8c0-0.516,0.458-1,1.052-1H13.493z"/>
			<path id="Flap1" class="surface" d="M9.493,12.5l0.002-4c0-0.547,0.469-1,1-1h3.998L9.493,12.5z"/>
		</g>
	</g>
</svg>
