<?xml version="1.0" encoding="utf-8"?>
<!--<?xml-stylesheet type="text/css" href="svg.css"?>-->
<!DOCTYPE svg PUBLIC "-//W3C//DTD SVG 1.1//EN" "http://www.w3.org/Graphics/SVG/1.1/DTD/svg11.dtd">
<svg version="1.1" xmlns="http://www.w3.org/2000/svg" xmlns:xlink="http://www.w3.org/1999/xlink" x="0px" y="0px" width="16px" height="16px" viewBox="0 0 16 16" xml:space="preserve">
	
	<title>Package Standalone Add</title> 
	<desc>Package Standalone Add Icon</desc> 
	
	<!--
		@author		Harald Szekely 
		@copyright	2011 WoltLab GmbH 
		@license	GNU Lesser General Public License <http://opensource.org/licenses/lgpl-license.php> 
	--> 
	
	<defs>
		
	</defs>
	
	<g id="IconPackageStandaloneAdd">
		<g class="Lower">
			<path id="Front1" style="fill-rule: evenodd; clip-rule: evenodd; fill: #fff;" d="M14,5H1v10h13V5z M12.984375,14H2.015625L2,6
				h11L12.984375,14z"/>
			<polygon id="Upside1" style="fill-rule: evenodd; clip-rule: evenodd; fill: #fff;" points="12.5,2.5 2.5,2.5 1,4.75 14,4.75"/>
		</g>
		<g class="Upper">
			<path id="Front2" style="fill-rule: evenodd; clip-rule: evenodd; fill: #666;" d="M14,4H1v10h13V4z M12.984375,13H2.015625L2,5h11
				L12.984375,13z"/>
			<polygon id="Upside2" style="fill-rule: evenodd; clip-rule: evenodd; fill: #666;" points="12.5,1.5 2.5,1.5 1,3.75 14,3.75"/>
		</g>
		<g id="Plus">
			<g class="Lower">
				<path style="fill-rule: evenodd; clip-rule: evenodd; fill: #fff;" d="M10,10.5136719c0-0.2734375-0.2246094-0.5-0.5-0.5H8.5004883
					c-0.2753906,0-0.5-0.2246094-0.5-0.5V8.5146484c0-0.2749023-0.2246094-0.5-0.5-0.5l0,0c-0.2753906,0-0.5,0.2250977-0.5,0.5
					v0.9990234c0,0.2753906-0.2246094,0.5-0.5,0.5h-1c-0.2753906,0-0.5,0.2265625-0.5,0.5l0,0c0,0.2753906,0.2246094,0.5,0.5,0.5h1
					c0.2753906,0,0.5,0.2265625,0.5,0.5v1c0,0.2753906,0.2246094,0.5,0.5,0.5l0,0c0.2753906,0,0.5-0.2246094,0.5-0.5v-1
					c0-0.2734375,0.2246094-0.5,0.5-0.5H9.5C9.7753906,11.0136719,10,10.7890625,10,10.5136719L10,10.5136719z"/>
			</g>
			<g class="Upper">
				<path style="fill-rule: evenodd; clip-rule: evenodd; fill: #666;" d="M10,9.5136719
					c0-0.2744141-0.2246094-0.4990234-0.5-0.4990234H8.5004883c-0.2749023,0-0.5-0.2250977-0.5-0.5v-1
					c0-0.2749023-0.2250977-0.5-0.5-0.5l0,0c-0.2749023,0-0.5,0.2250977-0.5,0.5v1c0,0.2749023-0.2250977,0.5-0.5,0.5h-1
					c-0.2749023,0-0.5,0.2246094-0.5,0.4990234c0,0.2753906,0.2250977,0.5,0.5,0.5h1c0.2749023,0,0.5,0.2246094,0.5,0.5v1
					c0,0.2753906,0.2250977,0.5,0.5,0.5l0,0c0.2749023,0,0.5-0.2246094,0.5-0.5v-1c0-0.2753906,0.2250977-0.5,0.5-0.5H9.5
					C9.7753906,10.0136719,10,9.7890625,10,9.5136719z"/>
			</g>
		</g>
	</g>
</svg>
