<?xml version="1.0" encoding="utf-8"?>
<!--<?xml-stylesheet type="text/css" href="svg.css"?>-->
<!DOCTYPE svg PUBLIC "-//W3C//DTD SVG 1.1//EN" "http://www.w3.org/Graphics/SVG/1.1/DTD/svg11.dtd">
<svg version="1.1" xmlns="http://www.w3.org/2000/svg" xmlns:xlink="http://www.w3.org/1999/xlink" x="0px" y="0px" width="16px" height="16px" viewBox="0 0 16 16" xml:space="preserve">
	
	<title>Package Plugin</title>
	<desc>Package Plugin Icon (type 2)</desc>
	
	<!--
		@author		Harald Szekely 
		@copyright	2011 WoltLab GmbH 
		@license	GNU Lesser General Public License <http://opensource.org/licenses/lgpl-license.php> 
	--> 
	
	<defs>
		<style type="text/css">
			<![CDATA[
				.Upper1 {fill: #666;}
				.Lower1 {fill: #fff;}
			]]>
		</style>
	</defs>
	
	<g id="IconPackagePlugin2">
		<path class="Lower1" d="M11.375,5.7753906V5.5C11.375,5.2250977,11,5,10.53125,5
			c-0.2578125,0-0.6445312,0.171875-0.859375,0L7,2.3125C6.6953125,2.0078125,6.262207,2,5.9868164,2H4.5
			C4.2250977,2,4,2.2250977,4,2.5V4H1.5C1.2250977,4,1,4.2250977,1,4.5l0,0C1,4.7749023,1.2250977,5,1.5,5H4v3H1.5
			C1.2250977,8,1,8.2246094,1,8.5l0,0C1,8.7753906,1.2250977,9,1.5,9H4v1.4990234c0,0.2753906,0.2250977,0.5,0.5,0.5h1.4868164
			C6.262207,10.9990234,6.6870117,11,7,10.6865234L9.671875,8c0.2148438-0.171875,0.6015625,0,0.859375,0
			C11,8,11.375,7.7753906,11.375,7.5V7.2739258C12.7783203,7.3901367,13.5,8.1801758,13.5,10c0,1.6572266-1.8427734,4-3.5,4H4
			c0,0-0.5,0-0.5,0.5S4,15,4,15h6c2.4814453,0,5-2.5185547,5-5C15,7.1591797,13.6269531,5.9023438,11.375,5.7753906z"/>
		<path class="Upper1" d="M11.375,4.7753906V4.5C11.375,4.2250977,11,4,10.53125,4
			c-0.2578125,0-0.6445312,0.171875-0.859375,0L7,1.3125C6.6953125,1.0078125,6.262207,1,5.9868164,1H4.5
			C4.2250977,1,4,1.2250977,4,1.5V3H1.5C1.2250977,3,1,3.2250977,1,3.5l0,0C1,3.7749023,1.2250977,4,1.5,4H4v3H1.5
			C1.2250977,7,1,7.2246094,1,7.5l0,0C1,7.7753906,1.2250977,8,1.5,8H4v1.4990234c0,0.2753906,0.2250977,0.5,0.5,0.5h1.4868164
			C6.262207,9.9990234,6.6870117,10,7,9.6865234L9.671875,7c0.2148438-0.171875,0.6015625,0,0.859375,0
			C11,7,11.375,6.7753906,11.375,6.5V6.2739258C12.7783203,6.3901367,13.5,7.1801758,13.5,9c0,1.6572266-1.8427734,4-3.5,4H4
			c0,0-0.5,0-0.5,0.5S4,14,4,14h6c2.4814453,0,5-2.5185547,5-5C15,6.1591797,13.6269531,4.9023438,11.375,4.7753906z"/>
	</g>
</svg>
