<?xml version="1.0" encoding="utf-8"?>
<!--<?xml-stylesheet type="text/css" href="svg.css"?>-->
<!DOCTYPE svg PUBLIC "-//W3C//DTD SVG 1.1//EN" "http://www.w3.org/Graphics/SVG/1.1/DTD/svg11.dtd">
<svg version="1.1" xmlns="http://www.w3.org/2000/svg" xmlns:xlink="http://www.w3.org/1999/xlink" x="0px" y="0px" width="16px" height="16px" viewBox="0 0 16 16" xml:space="preserve">
	
	<title>Pin</title>
	<desc>Pin Icon</desc>
	
	<!--
		@author		Harald Szekely 
		@copyright	2011 WoltLab GmbH 
		@license	GNU Lesser General Public License <http://opensource.org/licenses/lgpl-license.php> 
	--> 
	
	<defs>
		<style type="text/css">
			<![CDATA[
				.Upper1 {fill: #666;}
				.Lower1 {fill: #fff;}
			]]>
		</style>
	</defs>
	
	<g id="IconPin">
		<path class="Lower1" style="fill-rule: evenodd; clip-rule: evenodd;" d="M8.0009766,9.1269531L1,15l5.8740234-7.0004883
			c0,0,0.0356445,0.1044922,0.5283203,0.5986328C7.8955078,9.0898438,8.0009766,9.1269531,8.0009766,9.1269531z
			 M11.2177734,9.3085938C11.0771484,9.1689453,10.6591797,8.75,10.6591797,8.75c0.25-1.4853516,1.4238281-2.25,2.1464844-2.0698242
			c0.1005859,0.0249023,0.2988281,0.2983398,0.2988281,0.2983398c0.1601562,0.1611328,0.5703125,0.0136719,0.7294922-0.1474609
			c0.1611328-0.1601562,0.2041016-0.5473633,0.1318359-0.7128906c-0.2949219-0.6591797-1.1054688-1.4145508-1.8886719-2.1962891
			c-0.7832031-0.7822266-1.5371094-1.5917969-2.1953125-1.8867188C9.7167969,1.9609375,9.328125,2.0048828,9.1679688,2.1655273
			C9.0078125,2.3266602,8.8613281,2.7348633,9.0214844,2.8955078c0,0,0.2734375,0.1958008,0.2988281,0.2988281
			C9.5,3.918457,8.7333984,5.0898438,7.2485352,5.3413086c0,0-0.421875-0.421875-0.5625-0.5634766
			c-0.1914062-0.1914062-0.746582-0.230957-0.9428711-0.0991211c-0.1879883,0.128418-0.2797852,0.6801758-0.1928711,0.890625
			c0.6552734,1.5957031,3.2475586,4.3251953,4.8803711,4.8798828c0.2148438,0.0742188,0.7617188-0.0039062,0.8886719-0.1933594
			C11.453125,10.0585938,11.4111328,9.5019531,11.2177734,9.3085938z"/>
		<path class="Upper1" style="fill-rule: evenodd; clip-rule: evenodd;" d="M8.0009766,8.1264648L1,14l5.8740234-7.0004883
			c0,0,0.0356445,0.1044922,0.5283203,0.5986328C7.8955078,8.0898438,8.0009766,8.1264648,8.0009766,8.1264648z
			 M11.2177734,8.3085938C11.0771484,8.1689453,10.6591797,7.75,10.6591797,7.75c0.25-1.4853516,1.4238281-2.25,2.1464844-2.0698242
			c0.1005859,0.0249023,0.2988281,0.2983398,0.2988281,0.2983398c0.1601562,0.1611328,0.5703125,0.0136719,0.7294922-0.1474609
			c0.1611328-0.1601562,0.2041016-0.5473633,0.1318359-0.7128906c-0.2949219-0.6591797-1.1054688-1.4145508-1.8886719-2.1962891
			c-0.7832031-0.7822266-1.5371094-1.5917969-2.1953125-1.8867188C9.7167969,0.9609375,9.328125,1.0048828,9.1679688,1.1655273
			C9.0078125,1.3266602,8.8613281,1.7348633,9.0214844,1.8955078c0,0,0.2734375,0.1958008,0.2988281,0.2988281
			C9.5,2.918457,8.7333984,4.0898438,7.2485352,4.3413086c0,0-0.421875-0.421875-0.5625-0.5634766
			c-0.1914062-0.1914062-0.746582-0.230957-0.9428711-0.0991211c-0.1879883,0.128418-0.2797852,0.6801758-0.1928711,0.890625
			c0.6552734,1.5957031,3.2475586,4.3256836,4.8803711,4.8798828c0.2148438,0.0742188,0.7617188-0.0039062,0.8886719-0.1933594
			C11.453125,9.0585938,11.4111328,8.5014648,11.2177734,8.3085938z"/>
	</g>
</svg>
