<?xml version="1.0" encoding="utf-8"?>
<!-- Generator: Adobe Illustrator 15.1.0, SVG Export Plug-In . SVG Version: 6.00 Build 0)  -->
<!DOCTYPE svg PUBLIC "-//W3C//DTD SVG 1.1//EN" "http://www.w3.org/Graphics/SVG/1.1/DTD/svg11.dtd">
<svg version="1.1" id="Ebene_1" xmlns="http://www.w3.org/2000/svg" xmlns:xlink="http://www.w3.org/1999/xlink" x="0px" y="0px" width="16px" height="16px" viewBox="0 0 16 16" enable-background="new 0 0 16 16" xml:space="preserve">
	<title>Pin</title>
	<desc>Pin Icon</desc>
	
	<!--
		@author		Harald Szekely
		@copyright	2001-2012 WoltLab GmbH 
		@license	GNU Lesser General Public License <http://opensource.org/licenses/lgpl-license.php> 
	--> 
	
	<defs>
		<style type="text/css">
			<![CDATA[
				.surface { fill: #fff; }
				.shadow { fill: #000; }
			]]>
		</style>
	</defs>
	
	<g id="IconPin">
		<path class="shadow" transform="translate(0 -1)" opacity=".8" d="M8.501,9.127L1.5,15l5.874-7c0,0,0.036,0.104,0.528,0.598C8.396,9.09,8.501,9.127,8.501,9.127z
			 M11.718,9.309c-0.141-0.14-0.559-0.559-0.559-0.559c0.25-1.485,1.424-2.25,2.146-2.07c0.101,0.025,0.299,0.298,0.299,0.298
			c0.16,0.161,0.57,0.014,0.729-0.147c0.161-0.16,0.204-0.547,0.132-0.713c-0.295-0.659-1.105-1.415-1.889-2.196
			C11.794,3.14,11.04,2.33,10.382,2.035c-0.165-0.074-0.554-0.03-0.714,0.13c-0.16,0.161-0.307,0.569-0.146,0.73
			c0,0,0.273,0.196,0.299,0.299C10,3.918,9.233,5.09,7.749,5.341c0,0-0.422-0.422-0.563-0.563C6.995,4.586,6.439,4.547,6.243,4.679
			c-0.188,0.128-0.28,0.68-0.193,0.891c0.655,1.596,3.248,4.325,4.88,4.88c0.215,0.074,0.762-0.004,0.889-0.193
			C11.953,10.059,11.911,9.502,11.718,9.309z"/>
		<path class="surface" transform="translate(0 1)" d="M8.501,8.126L1.5,14l5.874-7c0,0,0.036,0.104,0.528,0.599C8.396,8.09,8.501,8.126,8.501,8.126z
			 M11.718,8.309c-0.141-0.14-0.559-0.559-0.559-0.559c0.25-1.485,1.424-2.25,2.146-2.07c0.101,0.025,0.299,0.298,0.299,0.298
			c0.16,0.161,0.57,0.014,0.729-0.147c0.161-0.16,0.204-0.547,0.132-0.713c-0.295-0.659-1.105-1.415-1.889-2.196
			C11.794,2.14,11.04,1.33,10.382,1.035c-0.165-0.074-0.554-0.03-0.714,0.13c-0.16,0.161-0.307,0.569-0.146,0.73
			c0,0,0.273,0.196,0.299,0.299C10,2.918,9.233,4.09,7.749,4.341c0,0-0.422-0.422-0.563-0.563C6.995,3.586,6.439,3.547,6.243,3.679
			c-0.188,0.128-0.28,0.68-0.193,0.891c0.655,1.596,3.248,4.325,4.88,4.88c0.215,0.074,0.762-0.004,0.889-0.193
			C11.953,9.059,11.911,8.502,11.718,8.309z"/>
	</g>
</svg>
