<?xml version="1.0" encoding="utf-8"?>
<!-- Generator: Adobe Illustrator 15.1.0, SVG Export Plug-In . SVG Version: 6.00 Build 0)  -->
<!DOCTYPE svg PUBLIC "-//W3C//DTD SVG 1.1//EN" "http://www.w3.org/Graphics/SVG/1.1/DTD/svg11.dtd">
<svg version="1.1" id="Ebene_1" xmlns="http://www.w3.org/2000/svg" xmlns:xlink="http://www.w3.org/1999/xlink" x="0px" y="0px" width="16px" height="16px" viewBox="0 0 16 16" enable-background="new 0 0 16 16" xml:space="preserve">
	<title>Package</title>
	<desc>Package Icon</desc>
	
	<!--
		@author		Harald Szekely
		@copyright	2001-2012 WoltLab GmbH 
		@license	GNU Lesser General Public License <http://opensource.org/licenses/lgpl-license.php> 
	--> 
	
	<defs>
		<style type="text/css">
			<![CDATA[
				.surface { fill: #369; }
				.shadow { fill: #fff; }
			]]>
		</style>
	</defs>
	
	<g id="IconPackagePlugin1">
		<path class="shadow" d="M5.972,7.447L5.013,8.869C4.876,9.1,4.822,9.347,4.983,9.507l2.025,2.024
			c0.16,0.16,0.396,0.096,0.623-0.043l1.423-0.963c0.246,0.16,0.5,0.311,0.763,0.455c0.199,0.104,0.44,0.141,0.625-0.043l0.214-0.215
			l0.17,0.168c0.168,0.17,0.416,0.193,0.554,0.055c0.138-0.137,0.114-0.385-0.055-0.553l-0.169-0.17l1.262-1.262
			c0.185-0.184,0.204-0.462,0.043-0.623l-0.607-0.608l2.494-2.495c0.185-0.185,0.204-0.463,0.044-0.624l-0.104-0.104
			c-0.16-0.161-0.439-0.141-0.624,0.043l-2.494,2.495L9.455,5.331l2.494-2.495c0.184-0.185,0.203-0.464,0.043-0.625l-0.104-0.104
			c-0.16-0.16-0.439-0.14-0.624,0.044L8.771,4.646l-0.61-0.608c-0.16-0.161-0.438-0.14-0.623,0.044L6.277,5.343L6.108,5.174
			C5.94,5.006,5.693,4.982,5.555,5.12C5.416,5.258,5.44,5.505,5.608,5.674l0.17,0.169L5.563,6.058
			C5.379,6.242,5.418,6.488,5.519,6.681C5.661,6.944,5.812,7.201,5.972,7.447z M6.864,11.896c0.092-0.094,0.103-0.234,0.023-0.314
			L4.918,9.613C4.837,9.532,4.696,9.544,4.604,9.637c-0.091,0.09-0.102,0.23-0.021,0.311l1.97,1.969
			C6.633,11.998,6.773,11.986,6.864,11.896z M6.155,12.039c0.092-0.092,0.117-0.213,0.058-0.273l-1.478-1.479
			c-0.061-0.061-0.184-0.035-0.276,0.059c-0.092,0.09-0.118,0.215-0.058,0.275l1.478,1.477C5.939,12.158,6.063,12.133,6.155,12.039z
			 M5.446,12.184c0.091-0.094,0.134-0.197,0.094-0.238l-0.985-0.984c-0.04-0.041-0.146,0-0.238,0.094
			c-0.093,0.092-0.135,0.197-0.094,0.238l0.15,0.15L1.5,14.316L2.183,15l2.873-2.873l0.151,0.15
			C5.246,12.318,5.354,12.275,5.446,12.184z"/>
		<path class="surface" d="M5.972,6.448L5.013,7.869c-0.137,0.231-0.19,0.478-0.029,0.639l2.025,2.023
			c0.16,0.161,0.396,0.096,0.623-0.042l1.423-0.963c0.246,0.159,0.5,0.311,0.763,0.455c0.199,0.103,0.44,0.14,0.625-0.044
			l0.214-0.214l0.17,0.168c0.168,0.169,0.416,0.193,0.554,0.055c0.138-0.138,0.114-0.386-0.055-0.554l-0.169-0.17l1.262-1.261
			c0.185-0.184,0.204-0.463,0.043-0.624L11.854,6.73l2.494-2.495c0.185-0.185,0.204-0.463,0.044-0.624l-0.104-0.104
			c-0.16-0.161-0.439-0.141-0.624,0.043l-2.494,2.495L9.455,4.332l2.494-2.495c0.184-0.185,0.203-0.464,0.043-0.625l-0.104-0.104
			c-0.16-0.16-0.439-0.14-0.624,0.044L8.771,3.647l-0.61-0.608c-0.16-0.161-0.438-0.14-0.623,0.044L6.277,4.344L6.108,4.174
			C5.94,4.006,5.693,3.982,5.555,4.121C5.416,4.258,5.44,4.506,5.608,4.674l0.17,0.169L5.563,5.058
			C5.379,5.243,5.418,5.489,5.519,5.682C5.661,5.945,5.812,6.201,5.972,6.448z M6.864,10.897c0.092-0.094,0.103-0.234,0.023-0.314
			l-1.969-1.97c-0.081-0.08-0.222-0.068-0.313,0.023c-0.091,0.091-0.102,0.23-0.021,0.311l1.97,1.97
			C6.633,10.998,6.773,10.986,6.864,10.897z M6.155,11.04c0.092-0.092,0.117-0.214,0.058-0.274L4.735,9.287
			C4.675,9.227,4.552,9.253,4.459,9.346C4.367,9.437,4.341,9.561,4.401,9.621l1.478,1.477C5.939,11.158,6.063,11.134,6.155,11.04z
			 M5.446,11.185c0.091-0.094,0.134-0.198,0.094-0.238L4.555,9.961c-0.04-0.04-0.146,0.001-0.238,0.094
			c-0.093,0.093-0.135,0.198-0.094,0.238l0.15,0.151L1.5,13.317L2.183,14l2.873-2.873l0.151,0.151
			C5.246,11.318,5.354,11.276,5.446,11.185z"/>
	</g>
</svg>
