<?xml version="1.0" encoding="utf-8"?>
<!--<?xml-stylesheet type="text/css" href="svg.css"?>-->
<!DOCTYPE svg PUBLIC "-//W3C//DTD SVG 1.1//EN" "http://www.w3.org/Graphics/SVG/1.1/DTD/svg11.dtd">
<svg version="1.1" xmlns="http://www.w3.org/2000/svg" xmlns:xlink="http://www.w3.org/1999/xlink" x="0px" y="0px" width="16px" height="16px" viewBox="0 0 16 16" xml:space="preserve">
	
	<title>Package Plugin</title>
	<desc>Package Plugin Icon (type 1)</desc>
	
	<!--
		@author		Harald Szekely 
		@copyright	2011 WoltLab GmbH 
		@license	GNU Lesser General Public License <http://opensource.org/licenses/lgpl-license.php> 
	--> 
	
	<defs>
		<style type="text/css">
			<![CDATA[
				.Upper1 {fill: #666;}
				.Lower1 {fill: #fff;}
			]]>
		</style>
	</defs>
	
	<g id="IconPackagePlugin1">
		<path class="Lower1" d="M5.4716797,7.4472656L4.5126953,8.8686523
			c-0.1367188,0.230957-0.1904297,0.4780273-0.0292969,0.6381836L6.5083008,11.53125
			c0.159668,0.1601562,0.3955078,0.0957031,0.6230469-0.0429688l1.4228516-0.9628906
			c0.2460938,0.1601562,0.5004883,0.3105469,0.7631836,0.4550781c0.1992188,0.1035156,0.4404297,0.140625,0.625-0.0429688
			l0.2138672-0.2148438l0.1699219,0.1679688c0.1679688,0.1699219,0.4160156,0.1933594,0.5537109,0.0546875
			c0.1376953-0.1367188,0.1142578-0.3847656-0.0546875-0.5527344L10.65625,10.2226562l1.2617188-1.2612305
			c0.1845703-0.184082,0.2041016-0.4628906,0.0429688-0.6235352l-0.6074219-0.6083984l2.4941406-2.4946289
			c0.1845703-0.1845703,0.2041016-0.4633789,0.0439453-0.6235352l-0.1044922-0.1040039
			c-0.1601562-0.1606445-0.4394531-0.140625-0.6240234,0.043457l-2.4941406,2.4951172L8.9545898,5.3310547l2.4946289-2.4946289
			c0.1835938-0.1845703,0.203125-0.4638672,0.0429688-0.6245117l-0.1035156-0.1040039
			c-0.1601562-0.1601562-0.4394531-0.1401367-0.6240234,0.0444336L8.2709961,4.6464844l-0.609375-0.6083984
			c-0.159668-0.1606445-0.4384766-0.1401367-0.6225586,0.0444336L5.7773438,5.3432617L5.6083984,5.1738281
			C5.4404297,5.0058594,5.1933594,4.9819336,5.0546875,5.1201172C4.9160156,5.2578125,4.9404297,5.5053711,5.1083984,5.6738281
			l0.1699219,0.1694336L5.0634766,6.0576172C4.8789062,6.2421875,4.9179688,6.4882812,5.0185547,6.6811523
			C5.1611328,6.9443359,5.3115234,7.2006836,5.4716797,7.4472656z M6.3642578,11.8964844
			c0.0917969-0.09375,0.1030273-0.234375,0.0229492-0.3144531l-1.9692383-1.96875
			C4.3369141,9.5322266,4.1962891,9.5439453,4.1044922,9.6367188C4.0136719,9.7265625,4.0029297,9.8671875,4.0830078,9.9472656
			l1.9702148,1.96875C6.1328125,11.9980469,6.2734375,11.9863281,6.3642578,11.8964844z M5.6552734,12.0390625
			c0.0917969-0.0917969,0.1171875-0.2128906,0.0576172-0.2734375l-1.4775391-1.4785156
			c-0.0605469-0.0605469-0.1835938-0.0351562-0.2763672,0.0585938c-0.0917969,0.0898438-0.1181641,0.2148438-0.0576172,0.2753906
			l1.4775391,1.4765625C5.4394531,12.1582031,5.5625,12.1328125,5.6552734,12.0390625z M4.9462891,12.1835938
			c0.0908203-0.09375,0.1337891-0.1972656,0.09375-0.2382812l-0.9853516-0.984375
			c-0.0400391-0.0410156-0.1464844,0-0.2382812,0.09375c-0.0927734,0.0917969-0.1347656,0.1972656-0.09375,0.2382812
			l0.1503906,0.1503906L1,14.3164062L1.6826172,15l2.8730469-2.8730469l0.1513672,0.1503906
			C4.7460938,12.3183594,4.8535156,12.2753906,4.9462891,12.1835938z"/>
		<path class="Upper1" d="M5.4716797,6.4477539L4.5126953,7.8691406
			C4.3759766,8.1005859,4.3222656,8.347168,4.4833984,8.5073242L6.5083008,10.53125
			c0.159668,0.1611328,0.3955078,0.0957031,0.6230469-0.0419922l1.4228516-0.9628906
			C8.800293,9.6855469,9.0546875,9.8369141,9.3173828,9.9814453c0.1992188,0.1025391,0.4404297,0.1396484,0.625-0.0439453
			L10.15625,9.7236328l0.1699219,0.1679688c0.1679688,0.1689453,0.4160156,0.1933594,0.5537109,0.0546875
			c0.1376953-0.1376953,0.1142578-0.3857422-0.0546875-0.5537109L10.65625,9.2226562l1.2617188-1.2607422
			c0.1845703-0.184082,0.2041016-0.4628906,0.0429688-0.6235352l-0.6074219-0.6083984l2.4941406-2.4946289
			c0.1845703-0.1845703,0.2041016-0.4633789,0.0439453-0.6235352l-0.1044922-0.1040039
			c-0.1601562-0.1606445-0.4394531-0.140625-0.6240234,0.043457l-2.4941406,2.4951172L8.9545898,4.331543l2.4946289-2.4946289
			c0.1835938-0.1845703,0.203125-0.4638672,0.0429688-0.6245117l-0.1035156-0.1040039
			c-0.1601562-0.1601562-0.4394531-0.1401367-0.6240234,0.0444336L8.2709961,3.6469727l-0.609375-0.6083984
			c-0.159668-0.1606445-0.4384766-0.1401367-0.6225586,0.0444336L5.7773438,4.34375L5.6083984,4.1743164
			C5.4404297,4.0063477,5.1933594,3.9824219,5.0546875,4.1206055C4.9160156,4.2583008,4.9404297,4.5058594,5.1083984,4.6743164
			L5.2783203,4.84375L5.0634766,5.0581055C4.8789062,5.2426758,4.9179688,5.4887695,5.0185547,5.6816406
			C5.1611328,5.9448242,5.3115234,6.2011719,5.4716797,6.4477539z M6.3642578,10.8974609
			c0.0917969-0.09375,0.1030273-0.234375,0.0229492-0.3144531L4.4179688,8.6132812
			C4.3369141,8.5327148,4.1962891,8.5444336,4.1044922,8.6367188C4.0136719,8.7275391,4.0029297,8.8671875,4.0830078,8.9472656
			l1.9702148,1.9697266C6.1328125,10.9980469,6.2734375,10.9863281,6.3642578,10.8974609z M5.6552734,11.0400391
			c0.0917969-0.0917969,0.1171875-0.2138672,0.0576172-0.2744141L4.2353516,9.2871094
			C4.1748047,9.2265625,4.0517578,9.2529297,3.9589844,9.3457031C3.8671875,9.4365234,3.8408203,9.5605469,3.9013672,9.6210938
			l1.4775391,1.4765625C5.4394531,11.1582031,5.5625,11.1337891,5.6552734,11.0400391z M4.9462891,11.1845703
			c0.0908203-0.09375,0.1337891-0.1982422,0.09375-0.2382812L4.0546875,9.9609375
			c-0.0400391-0.0400391-0.1464844,0.0009766-0.2382812,0.09375c-0.0927734,0.0927734-0.1347656,0.1982422-0.09375,0.2382812
			l0.1503906,0.1513672L1,13.3173828L1.6826172,14l2.8730469-2.8730469l0.1513672,0.1513672
			C4.7460938,11.3183594,4.8535156,11.2763672,4.9462891,11.1845703z"/>
	</g>
</svg>
