<?xml version="1.0" encoding="utf-8"?>
<!--<?xml-stylesheet type="text/css" href="svg.css"?>-->
<!DOCTYPE svg PUBLIC "-//W3C//DTD SVG 1.1//EN" "http://www.w3.org/Graphics/SVG/1.1/DTD/svg11.dtd">
<svg version="1.1" xmlns="http://www.w3.org/2000/svg" xmlns:xlink="http://www.w3.org/1999/xlink" x="0px" y="0px" width="16px" height="16px" viewBox="0 0 16 16" xml:space="preserve">
	
	<title>Puzzle</title>
	<desc>Puzzle Icon</desc>
	
	<!--
		@author		Harald Szekely 
		@copyright	2011 WoltLab GmbH 
		@license	GNU Lesser General Public License <http://opensource.org/licenses/lgpl-license.php> 
	--> 
	
	<defs>
		<style type="text/css">
			<![CDATA[
				.Upper1 {fill: #369;}
				.Lower1 {fill: #fff;}
			]]>
		</style>
	</defs>
	
	<g id="IconPuzzle">
		<path class="Lower1" style="fill-rule: evenodd; clip-rule: evenodd;" d="M10.5878906,5.1030273
			c0.0019531,0.9199219-0.7363281,3.8393555,0.3847656,3.8452148c0.4521484,0.0029297,0.7119141-0.7075195,0.9863281-0.8237305
			c2.2773438-0.9643555,2.8359375,3.527832,0.7138672,3.5717773c-0.609375,0.0117188-1.2021484-1.0263672-1.8652344-0.7695312
			c-0.8476562,0.3261719-0.0458984,2.7216797-0.0546875,3.515625c-0.7480469,0.1152344-4.2641602,1.1162109-4.4438477-0.1103516
			c-0.1035156-0.7089844,0.8168945-0.9375,0.2744141-1.703125c-0.480957-0.6777344-2.4526367-0.6728516-2.4135742,0.7148438
			c0.0170898,0.6044922,0.7539062,1.0302734,0.2197266,1.5380859c-0.9438477,0.2998047-2.1323242-0.0449219-2.9624023-0.21875
			c-0.0795898-1.3867188-0.7910156-3.4169922-0.1645508-4.6162109c0.8496094-0.1035156,0.7519531,0.5146484,1.2617188,0.6591797
			c1.7851562,0.5048828,1.8032227-2.8984375-0.0551758-2.6914062c-0.5878906,0.065918-0.3686523,0.5136719-1.1518555,0.5493164
			C0.7460938,7.8110352,1.1259766,6.1601562,1.0981445,4.9926758c0.9936523-0.0214844,2.8657227,0.4907227,3.4008789-0.2749023
			C3.9575195,4.1772461,3.3725586,3.4101562,4.0605469,2.5756836C4.762207,1.7241211,7.6274414,1.6123047,7.1323242,3.6743164
			c-0.0825195,0.34375-0.7832031,0.6743164-0.7128906,1.1542969C6.565918,5.8271484,9.7021484,4.8242188,10.5878906,5.1030273z"/>
		<path class="Upper1" style="fill-rule: evenodd; clip-rule: evenodd;" d="M10.5878906,4.1030273
			c0.0019531,0.9199219-0.7363281,3.8393555,0.3847656,3.8452148c0.4521484,0.0029297,0.7119141-0.7075195,0.9863281-0.8237305
			c2.2773438-0.9643555,2.8359375,3.527832,0.7138672,3.5717773c-0.609375,0.0117188-1.2021484-1.0263672-1.8652344-0.7695312
			c-0.8476562,0.3261719-0.0458984,2.7216797-0.0546875,3.515625c-0.7480469,0.1152344-4.2641602,1.1162109-4.4438477-0.1103516
			c-0.1035156-0.7089844,0.8168945-0.9375,0.2744141-1.703125c-0.480957-0.6777344-2.4526367-0.6728516-2.4135742,0.7148438
			c0.0170898,0.6044922,0.7539062,1.0302734,0.2197266,1.5380859c-0.9438477,0.2998047-2.1323242-0.0449219-2.9624023-0.21875
			c-0.0795898-1.3867188-0.7910156-3.4169922-0.1645508-4.6162109c0.8496094-0.1035156,0.7519531,0.5146484,1.2617188,0.6591797
			c1.7851562,0.5048828,1.8032227-2.8984375-0.0551758-2.6914062c-0.5878906,0.065918-0.3686523,0.5136719-1.1518555,0.5493164
			C0.7460938,6.8110352,1.1259766,5.1601562,1.0981445,3.9926758c0.9936523-0.0214844,2.8657227,0.4907227,3.4008789-0.2749023
			C3.9575195,3.1772461,3.3725586,2.4101562,4.0605469,1.5756836C4.762207,0.7241211,7.6274414,0.6123047,7.1323242,2.6743164
			c-0.0825195,0.34375-0.7832031,0.6743164-0.7128906,1.1542969C6.565918,4.8271484,9.7021484,3.8242188,10.5878906,4.1030273z"/>
	</g>
</svg>
