<?xml version="1.0" encoding="utf-8"?>
<!-- Generator: Adobe Illustrator 15.1.0, SVG Export Plug-In . SVG Version: 6.00 Build 0)  -->
<!DOCTYPE svg PUBLIC "-//W3C//DTD SVG 1.1//EN" "http://www.w3.org/Graphics/SVG/1.1/DTD/svg11.dtd">
<svg version="1.1" id="Ebene_1" xmlns="http://www.w3.org/2000/svg" xmlns:xlink="http://www.w3.org/1999/xlink" x="0px" y="0px" width="16px" height="16px" viewBox="0 0 16 16" enable-background="new 0 0 16 16" xml:space="preserve">
	<title>Puzzle</title>
	<desc>Puzzle Icon</desc>
	
	<!--
		@author		Alexander Ebert
		@copyright	2001-2012 WoltLab GmbH 
		@license	GNU Lesser General Public License <http://opensource.org/licenses/lgpl-license.php> 
	--> 
	
	<defs>
		<style type="text/css">
			<![CDATA[
				.surface { fill: #666; }
				.shadow { fill: #fff; }
			]]>
		</style>
	</defs>
	
	<g id="IconPuzzle">
		<path class="shadow" opacity=".8" d="M11.088,5.103c0.002,0.92-0.736,3.839,0.385,3.845c0.452,0.003,0.712-0.708,0.986-0.824
			c2.277-0.964,2.836,3.528,0.714,3.572c-0.609,0.012-1.202-1.026-1.865-0.77c-0.848,0.326-0.046,2.722-0.055,3.516
			c-0.748,0.115-4.264,1.116-4.444-0.11c-0.104-0.709,0.817-0.938,0.274-1.703c-0.481-0.678-2.453-0.673-2.414,0.715
			c0.017,0.604,0.754,1.03,0.22,1.538c-0.944,0.3-2.132-0.045-2.962-0.219c-0.08-1.387-0.791-3.417-0.165-4.616
			c0.85-0.104,0.752,0.515,1.262,0.659c1.785,0.505,1.803-2.898-0.055-2.691c-0.588,0.066-0.369,0.514-1.152,0.55
			C1.246,7.811,1.626,6.16,1.598,4.993c0.994-0.021,2.866,0.491,3.401-0.275C4.458,4.177,3.873,3.41,4.561,2.576
			c0.702-0.852,3.567-0.963,3.072,1.099C7.55,4.018,6.849,4.349,6.919,4.829C7.066,5.827,10.202,4.824,11.088,5.103z"/>
		<path class="surface" d="M11.088,4.103c0.002,0.92-0.736,3.839,0.385,3.845c0.452,0.003,0.712-0.708,0.986-0.824
			c2.277-0.964,2.836,3.528,0.714,3.572c-0.609,0.012-1.202-1.026-1.865-0.77c-0.848,0.326-0.046,2.722-0.055,3.516
			c-0.748,0.115-4.264,1.116-4.444-0.11c-0.104-0.709,0.817-0.938,0.274-1.703c-0.481-0.678-2.453-0.673-2.414,0.715
			c0.017,0.604,0.754,1.03,0.22,1.538c-0.944,0.3-2.132-0.045-2.962-0.219c-0.08-1.387-0.791-3.417-0.165-4.616
			c0.85-0.104,0.752,0.515,1.262,0.659c1.785,0.505,1.803-2.898-0.055-2.691C2.381,7.081,2.601,7.528,1.817,7.564
			C1.246,6.811,1.626,5.16,1.598,3.993c0.994-0.021,2.866,0.491,3.401-0.275C4.458,3.177,3.873,2.41,4.561,1.576
			c0.702-0.852,3.567-0.963,3.072,1.099C7.55,3.018,6.849,3.349,6.919,3.829C7.066,4.827,10.202,3.824,11.088,4.103z"/>
	</g>
</svg>
