<?xml version="1.0" encoding="utf-8"?>
<!--<?xml-stylesheet type="text/css" href="svg.css"?>-->
<!DOCTYPE svg PUBLIC "-//W3C//DTD SVG 1.1//EN" "http://www.w3.org/Graphics/SVG/1.1/DTD/svg11.dtd">
<svg version="1.1" xmlns="http://www.w3.org/2000/svg" xmlns:xlink="http://www.w3.org/1999/xlink" x="0px" y="0px" width="16px" height="16px" viewBox="0 0 16 16" xml:space="preserve">
	
	<title>Quote</title>
	<desc>Quote Icon (outlined)</desc>
	
	<!--
		@author		Harald Szekely 
		@copyright	2011 WoltLab GmbH 
		@license	GNU Lesser General Public License <http://opensource.org/licenses/lgpl-license.php> 
	--> 
	
	<defs>
		<style type="text/css">
			<![CDATA[
				.Upper1 {fill: #666;}
				.Lower1 {fill: #fff;}
			]]>
		</style>
	</defs>
	
	<g id="IconQuote">
		<g class="Lower1">
			<path id="Bulb2" d="M8,2C4.1337891,2,1,4.4848633,1,7.5507812
				c0,1.2231445,0.5004883,2.3535156,1.3461914,3.2705078L1.0454102,14L5.5,12.6796875
				c0.578125,0.125,2.2792969,0.3837891,2.925293,0.4003906c0.0732422,0.0019531,0.1464844,0.0029297,0.21875,0.0029297
				C12.3916016,13.0830078,15,10.5576172,15,7.5507812C15,4.4848633,11.8662109,2,8,2z M8.5,12.078125
				c-0.7397461,0-2.3789062-0.265625-2.8999023-0.4316406l-2.887207,0.8681641L3.5,10.546875
				C2.71875,9.828125,2.1665039,8.75,2.1665039,7.6254883C2.1665039,5.0708008,4.7783203,3,8,3
				s5.8330078,2.0708008,5.8330078,4.6254883C13.8330078,10.1308594,11.6230469,12.078125,8.5,12.078125z"/>
			<path id="Text2" d="M12,5.5C12,5.7749023,11.7753906,6,11.5,6h-7C4.2250977,6,4,5.7749023,4,5.5l0,0
				C4,5.2250977,4.2250977,5,4.5,5h7C11.7753906,5,12,5.2250977,12,5.5L12,5.5z M12,7.5C12,7.2250977,11.7753906,7,11.5,7h-7
				C4.2250977,7,4,7.2250977,4,7.5l0,0C4,7.7749023,4.2250977,8,4.5,8h7C11.7753906,8,12,7.7749023,12,7.5L12,7.5z M12,9.5
				C12,9.2246094,11.7753906,9,11.5,9h-7C4.2250977,9,4,9.2246094,4,9.5l0,0C4,9.7753906,4.2250977,10,4.5,10h7
				C11.7753906,10,12,9.7753906,12,9.5L12,9.5z"/>
		</g>
		<g class="Upper1">
			<path id="Bulb1" d="M8,1C4.1337891,1,1,3.4848633,1,6.5507812
				c0,1.2231445,0.5004883,2.3535156,1.3461914,3.2705078L1.0454102,13L5.5,11.6796875
				c0.578125,0.125,2.2792969,0.3837891,2.925293,0.4003906c0.0732422,0.0019531,0.1464844,0.0029297,0.21875,0.0029297
				C12.3916016,12.0830078,15,9.5576172,15,6.5507812C15,3.4848633,11.8662109,1,8,1z M8.5,11.078125
				c-0.7397461,0-2.3789062-0.265625-2.8999023-0.4316406l-2.887207,0.8681641L3.5,9.546875
				C2.71875,8.828125,2.1665039,7.75,2.1665039,6.6254883C2.1665039,4.0708008,4.7783203,2,8,2
				s5.8330078,2.0708008,5.8330078,4.6254883C13.8330078,9.1308594,11.6230469,11.078125,8.5,11.078125z"/>
			<path id="Text1" d="M12,4.5C12,4.7749023,11.7753906,5,11.5,5h-7C4.2250977,5,4,4.7749023,4,4.5l0,0
				C4,4.2250977,4.2250977,4,4.5,4h7C11.7753906,4,12,4.2250977,12,4.5L12,4.5z M12,6.5C12,6.2250977,11.7753906,6,11.5,6h-7
				C4.2250977,6,4,6.2250977,4,6.5l0,0C4,6.7749023,4.2250977,7,4.5,7h7C11.7753906,7,12,6.7749023,12,6.5L12,6.5z M12,8.5
				C12,8.2250977,11.7753906,8,11.5,8h-7C4.2250977,8,4,8.2250977,4,8.5l0,0C4,8.7749023,4.2250977,9,4.5,9h7
				C11.7753906,9,12,8.7749023,12,8.5L12,8.5z"/>
		</g>
	</g>
</svg>
