<?xml version="1.0" encoding="utf-8"?>
<!-- Generator: Adobe Illustrator 16.0.0, SVG Export Plug-In . SVG Version: 6.00 Build 0)  -->
<!DOCTYPE svg PUBLIC "-//W3C//DTD SVG 1.1//EN" "http://www.w3.org/Graphics/SVG/1.1/DTD/svg11.dtd">
<svg version="1.1" id="Ebene_1" xmlns="http://www.w3.org/2000/svg" xmlns:xlink="http://www.w3.org/1999/xlink" x="0px" y="0px" width="16px" height="16px" viewBox="0 0 16 16" enable-background="new 0 0 16 16" xml:space="preserve">
	<title>Reddit Logo</title>
	<desc>Reddit Logo for WCF 2.0</desc>
	
	<!--
		@author		Suat Secmen
		@copyright	FirePanther.PRO
		@license	GNU Lesser General Public License <http://opensource.org/licenses/lgpl-license.php> 
	--> 
	
	<defs>
		<style type="text/css">
			<![CDATA[
				.surface, .background { fill: #fff; }
				.stroke { fill: none;stroke: #000; }
				.eye { fill: #ff4500; }
			]]>
		</style>
	</defs>
	<path class="background" d="M16,14c0,1.104-0.896,2-2,2H2c-1.104,0-2-0.896-2-2V2c0-1.104,0.896-2,2-2h12c1.104,0,2,0.896,2,2V14z"/>
	<ellipse class="surface" cx="1.75" cy="7.797" rx="1.425" ry="1.503"/>
	<path d="M1.75,6.619c0.606,0,1.1,0.529,1.1,1.178s-0.494,1.178-1.1,1.178s-1.1-0.528-1.1-1.178S1.144,6.619,1.75,6.619 M1.75,5.969
		C0.784,5.969,0,6.787,0,7.797s0.784,1.828,1.75,1.828S3.5,8.807,3.5,7.797S2.716,5.969,1.75,5.969L1.75,5.969z"/>
	<ellipse class="surface" cx="14.25" cy="7.797" rx="1.425" ry="1.503"/>
	<path d="M14.25,6.619c0.606,0,1.1,0.529,1.1,1.178s-0.493,1.178-1.1,1.178s-1.1-0.528-1.1-1.178S13.644,6.619,14.25,6.619
		 M14.25,5.969c-0.967,0-1.75,0.818-1.75,1.828s0.783,1.828,1.75,1.828S16,8.807,16,7.797S15.217,5.969,14.25,5.969L14.25,5.969z"/>
	<path class="surface" d="M8.016,14.519c-3.741,0-6.784-2.055-6.784-4.581c0-2.526,3.043-4.581,6.784-4.581
		c3.741,0,6.784,2.055,6.784,4.581C14.8,12.464,11.757,14.519,8.016,14.519z"/>
	<path d="M8.016,5.681c3.562,0,6.459,1.91,6.459,4.256s-2.897,4.256-6.459,4.256s-6.459-1.909-6.459-4.256S4.454,5.681,8.016,5.681
		 M8.016,5.031c-3.926,0-7.109,2.197-7.109,4.906c0,2.71,3.183,4.906,7.109,4.906c3.927,0,7.109-2.196,7.109-4.906
		C15.125,7.228,11.942,5.031,8.016,5.031L8.016,5.031z"/>
	<circle class="surface" cx="13.375" cy="2.75" r="1.3"/>
	<path d="M13.375,1.775c0.538,0,0.975,0.438,0.975,0.975s-0.437,0.975-0.975,0.975S12.4,3.288,12.4,2.75S12.837,1.775,13.375,1.775
		 M13.375,1.125c-0.897,0-1.625,0.728-1.625,1.625s0.728,1.625,1.625,1.625S15,3.647,15,2.75S14.272,1.125,13.375,1.125
		L13.375,1.125z"/>
	<polyline class="stroke" stroke-width="0.65" stroke-miterlimit="10" points="8.156,5.125 9.125,1.938 11.906,2.5 "/>
	<circle class="eye" cx="10.363" cy="9.154" r="1.133"/>
	<circle class="eye" cx="5.661" cy="9.154" r="1.133"/>
	<path d="M10.3,11.631c-0.007,0.008-0.862,0.862-2.298,0.869c-1.458-0.007-2.294-0.861-2.302-0.869l-0.449,0.441
		c0.042,0.043,1.055,1.051,2.75,1.059c1.696-0.008,2.704-1.016,2.747-1.059L10.3,11.631z"/>
</svg>
