<?xml version="1.0" encoding="utf-8"?>
<!--<?xml-stylesheet type="text/css" href="svg.css"?>-->
<!DOCTYPE svg PUBLIC "-//W3C//DTD SVG 1.1//EN" "http://www.w3.org/Graphics/SVG/1.1/DTD/svg11.dtd">
<svg version="1.1" xmlns="http://www.w3.org/2000/svg" xmlns:xlink="http://www.w3.org/1999/xlink" x="0px" y="0px" width="16px" height="16px" viewBox="0 0 16 16" xml:space="preserve">
	
	<title>Redo</title>
	<desc>Redo Icon</desc>
	
	<!--
		@author		Alexander Ebert 
		@copyright	2001-2012 WoltLab GmbH 
		@license	GNU Lesser General Public License <http://opensource.org/licenses/lgpl-license.php> 
	--> 
	
	<defs>
		<style type="text/css">
			<![CDATA[
				.surface {fill: #369;}
				.shadow {fill: #fff;}
			]]>
		</style>
	</defs>
	
	<g id="IconRedo">
		<path class="shadow" opacity=".8" d="M9,8C3.9707031,8,2,6,2,2H1c0,7,3,9,8,9v3.4833984
			c0,0.5498047,0.4023438,0.6816406,0.7939453,0.2929688l4.6982422-4.5732422c0.6455078-0.6455078,0.7070312-0.7070312,0-1.4140625
			L9.7939453,4.2236328C9.4023438,3.8349609,9,3.9667969,9,4.5166016V8z"/>
		<path class="surface" d="M9,7C3.9707031,7,2,5,2,1H1c0,6.9995117,3,8.9990234,8,8.9990234v3.484375
			c0,0.5498047,0.4023438,0.6816406,0.7939453,0.2929688l4.6982422-4.5742188c0.6455078-0.6445312,0.7070312-0.706543,0-1.4135742
			l-4.6982422-4.565918C9.4023438,2.8339844,9,2.9667969,9,3.515625V7z"/>
	</g>
</svg>
