<?xml version="1.0" encoding="utf-8"?>
<!-- Generator: Adobe Illustrator 15.1.0, SVG Export Plug-In . SVG Version: 6.00 Build 0)  -->
<!DOCTYPE svg PUBLIC "-//W3C//DTD SVG 1.1//EN" "http://www.w3.org/Graphics/SVG/1.1/DTD/svg11.dtd">
<svg version="1.1" id="Ebene_1" xmlns="http://www.w3.org/2000/svg" xmlns:xlink="http://www.w3.org/1999/xlink" x="0px" y="0px" width="16px" height="16px" viewBox="0 0 16 16" enable-background="new 0 0 16 16" xml:space="preserve">
	<title>Reload</title>
	<desc>Reload Icon</desc>
	
	<!--
		@author		Harald Szekely
		@copyright	2001-2012 WoltLab GmbH 
		@license	GNU Lesser General Public License <http://opensource.org/licenses/lgpl-license.php> 
	--> 
	
	<defs>
		<style type="text/css">
			<![CDATA[
				.surface { fill: #666; }
				.shadow { fill: #fff; }
			]]>
		</style>
	</defs>
	
	<g id="IconRefresh">
		<g>
			<g id="Arrow12">
				<polygon class="shadow" opacity=".8" points="3.5,15 3.5,11 7.5,11 5.5,9 1.5,9 1.5,13 			"/>
				<path class="shadow" opacity=".8" d="M11.932,11.682C11.117,12.496,9.992,13,8.75,13c-1.957,0-3.604-1.256-4.225-3H2.431
					c0.679,2.865,3.247,5,6.319,5c1.795,0,3.42-0.728,4.596-1.904L11.932,11.682z"/>
			</g>
			<g id="Arrow22">
				<polygon class="shadow" opacity=".8" points="12.5,2 12.5,6 8.5,6 10.5,8 14.5,8 14.5,4 			"/>
				<path class="shadow" opacity=".8" d="M4.068,5.318C4.882,4.504,6.007,4,7.25,4c1.957,0,3.604,1.256,4.225,3h2.095
					c-0.679-2.865-3.247-5-6.319-5C5.455,2,3.83,2.728,2.654,3.904L4.068,5.318z"/>
			</g>
		</g>
		<g>
			<g id="Arrow11">
				<polygon class="surface" points="3.5,14 3.5,10 7.5,10 5.5,8 1.5,8 1.5,12 			"/>
				<path class="surface" d="M11.932,10.682C11.117,11.496,9.992,12,8.75,12c-1.957,0-3.604-1.256-4.225-3H2.431
					c0.679,2.865,3.247,5,6.319,5c1.795,0,3.42-0.728,4.596-1.904L11.932,10.682z"/>
			</g>
			<g id="Arrow21">
				<polygon class="surface" points="12.5,1 12.5,5 8.5,5 10.5,7 14.5,7 14.5,3 			"/>
				<path class="surface" d="M4.068,4.318C4.882,3.504,6.007,3,7.25,3c1.957,0,3.604,1.256,4.225,3h2.095
					c-0.679-2.865-3.247-5-6.319-5C5.455,1,3.83,1.728,2.654,2.904L4.068,4.318z"/>
			</g>
		</g>
	</g>
</svg>
