<?xml version="1.0" encoding="utf-8"?>
<!-- Generator: Adobe Illustrator 15.1.0, SVG Export Plug-In . SVG Version: 6.00 Build 0)  -->
<!DOCTYPE svg PUBLIC "-//W3C//DTD SVG 1.1//EN" "http://www.w3.org/Graphics/SVG/1.1/DTD/svg11.dtd">
<svg version="1.1" id="Ebene_1" xmlns="http://www.w3.org/2000/svg" xmlns:xlink="http://www.w3.org/1999/xlink" x="0px" y="0px" width="16px" height="16px" viewBox="0 0 16 16" enable-background="new 0 0 16 16" xml:space="preserve">
	<title>Remove</title>
	<desc>Remove Icon</desc>
	
	<!--
		@author		Alexander Ebert
		@copyright	2001-2012 WoltLab GmbH 
		@license	GNU Lesser General Public License <http://opensource.org/licenses/lgpl-license.php> 
	--> 
	
	<defs>
		<style type="text/css">
			<![CDATA[
				.surface { fill: #666; }
				.shadow { fill: #fff; }
			]]>
		</style>
	</defs>
	
	<g id="IconRemove">
		<path class="shadow" opacity=".8" d="M8,2C4.41,2,1.5,4.91,1.5,8.5C1.5,12.091,4.41,15,8,15c3.59,0,6.5-2.909,6.5-6.5C14.5,4.91,11.59,2,8,2z
			 M12,9.5H4c-0.551,0-1-0.449-1-1c0-0.549,0.449-1,1-1h8c0.551,0,1,0.451,1,1C13,9.051,12.551,9.5,12,9.5z"/>
		<path class="surface" d="M8,1C4.41,1,1.5,3.91,1.5,7.5C1.5,11.091,4.41,14,8,14c3.59,0,6.5-2.909,6.5-6.5C14.5,3.91,11.59,1,8,1z
			 M12.001,8.5H4c-0.551,0-1-0.449-1-1c0-0.55,0.449-1,1-1h8.001C12.551,6.5,13,6.95,13,7.5C13,8.051,12.551,8.5,12.001,8.5z"/>
	</g>
</svg>
