<?xml version="1.0" encoding="utf-8"?>
<!-- Generator: Adobe Illustrator 15.1.0, SVG Export Plug-In . SVG Version: 6.00 Build 0)  -->
<!DOCTYPE svg PUBLIC "-//W3C//DTD SVG 1.1//EN" "http://www.w3.org/Graphics/SVG/1.1/DTD/svg11.dtd">
<svg version="1.1" id="Ebene_1" xmlns="http://www.w3.org/2000/svg" xmlns:xlink="http://www.w3.org/1999/xlink" x="0px" y="0px" width="16px" height="16px" viewBox="0 0 16 16" enable-background="new 0 0 16 16" xml:space="preserve">
	<title>RSS</title>
	<desc>RSS Icon</desc>
	
	<!--
		@author		Alexander Ebert
		@copyright	2001-2012 WoltLab GmbH 
		@license	GNU Lesser General Public License <http://opensource.org/licenses/lgpl-license.php> 
	--> 
	
	<defs>
		<style type="text/css">
			<![CDATA[
				.surface { fill: #666; }
				.shadow { fill: #fff; }
			]]>
		</style>
	</defs>
	
	<g id="IconRSS" transform="translate(-0.5 0)">
		<path class="shadow" opacity=".8" d="M5.5,12.975c0,1.105-0.896,2-2,2s-2-0.895-2-2s0.896-2,2-2S5.5,11.869,5.5,12.975z M8.5,13.008
			c0,0.699-0.146,1.363-0.406,1.967h2.121c0.183-0.623,0.285-1.283,0.285-1.967c0-3.865-3.135-7-7-7c-0.695,0-1.366,0.105-2,0.293
			v2.13c0.614-0.27,1.288-0.424,2-0.424C6.257,8.008,8.5,10.252,8.5,13.008z M12.5,13.008c0,0.676-0.081,1.334-0.224,1.967h2.038
			c0.116-0.639,0.186-1.293,0.186-1.967c0-6.076-4.926-11-11-11c-0.684,0-1.351,0.071-2,0.19V4.24c0.645-0.147,1.312-0.232,2-0.232
			C8.462,4.008,12.5,8.046,12.5,13.008z"/>
		<path class="surface" d="M5.5,11.992c0,1.105-0.896,2-2,2s-2-0.895-2-2s0.896-2,2-2S5.5,10.887,5.5,11.992z M8.5,12.025
			c0,0.697-0.146,1.361-0.406,1.967h2.121c0.183-0.625,0.285-1.283,0.285-1.967c0-3.867-3.135-7-7-7c-0.695,0-1.366,0.105-2,0.293
			v2.13c0.614-0.27,1.288-0.424,2-0.424C6.257,7.025,8.5,9.268,8.5,12.025z M12.5,12.025c0,0.676-0.081,1.332-0.224,1.967h2.038
			c0.116-0.639,0.186-1.295,0.186-1.967c0-6.077-4.926-11-11-11c-0.684,0-1.351,0.071-2,0.19v2.042c0.645-0.147,1.312-0.232,2-0.232
			C8.462,3.025,12.5,7.063,12.5,12.025z"/>
	</g>
</svg>
