<?xml version="1.0" encoding="utf-8"?>
<!--<?xml-stylesheet type="text/css" href="svg.css"?>-->
<!DOCTYPE svg PUBLIC "-//W3C//DTD SVG 1.1//EN" "http://www.w3.org/Graphics/SVG/1.1/DTD/svg11.dtd">
<svg version="1.1" xmlns="http://www.w3.org/2000/svg" xmlns:xlink="http://www.w3.org/1999/xlink" x="0px" y="0px" width="16px" height="16px" viewBox="0 0 16 16" xml:space="preserve">
	
	<title>RSS Feed</title>
	<desc>RSS Feed Icon</desc>
	
	<!--
		@author		Harald Szekely 
		@copyright	2011 WoltLab GmbH 
		@license	GNU Lesser General Public License <http://opensource.org/licenses/lgpl-license.php> 
	--> 
	
	<defs>
		<style type="text/css">
			<![CDATA[
				.Upper1 {fill: #666;}
				.Lower1 {fill: #fff;}
			]]>
		</style>
	</defs>
	
	<g id="IconRSS">
		<path class="Lower1" style="fill-rule: evenodd; clip-rule: evenodd;" d="M5,12.9833984c0,1.1054688-0.8955078,2-2,2
			s-2-0.8945312-2-2s0.8955078-2,2-2S5,11.8779297,5,12.9833984z M8,13.0166016c0,0.6982422-0.1459961,1.3623047-0.4057617,1.9667969
			h2.1206055C9.8974609,14.359375,10,13.7001953,10,13.0166016c0-3.8662109-3.1347656-7-7-7
			c-0.6953125,0-1.3657227,0.1049805-2,0.293457v2.1303711c0.6137695-0.2695312,1.2880859-0.4238281,2-0.4238281
			C5.7568359,8.0166016,8,10.2597656,8,13.0166016z M12,13.0166016c0,0.6757812-0.0810547,1.3330078-0.2236328,1.9667969h2.0380859
			C13.9306641,14.3447266,14,13.6894531,14,13.0166016c0-6.0761719-4.9257812-11-11-11c-0.684082,0-1.3505859,0.0708008-2,0.1904297
			v2.0415039c0.6445312-0.1469727,1.3120117-0.2319336,2-0.2319336C7.9624023,4.0166016,12,8.0541992,12,13.0166016z"/>
		<path class="Upper1" style="fill-rule: evenodd; clip-rule: evenodd;" d="M5,12c0,1.1054688-0.8955078,2-2,2
			s-2-0.8945312-2-2s0.8955078-2,2-2S5,10.8945312,5,12z M8,12.0332031C8,12.7314453,7.8540039,13.3955078,7.5942383,14h2.1206055
			C9.8974609,13.3759766,10,12.7167969,10,12.0332031c0-3.8666992-3.1347656-7-7-7c-0.6953125,0-1.3657227,0.1049805-2,0.293457
			v2.1303711C1.6137695,7.1875,2.2880859,7.0332031,3,7.0332031C5.7568359,7.0332031,8,9.2763672,8,12.0332031z M12,12.0332031
			C12,12.7089844,11.9189453,13.3662109,11.7763672,14h2.0380859C13.9306641,13.3613281,14,12.7060547,14,12.0332031
			c0-6.0761719-4.9257812-11-11-11c-0.684082,0-1.3505859,0.0708008-2,0.1904297v2.0415039
			c0.6445312-0.1469727,1.3120117-0.2319336,2-0.2319336C7.9624023,3.0332031,12,7.0708008,12,12.0332031z"/>
	</g>
</svg>
