<?xml version="1.0" encoding="utf-8"?>
<!--<?xml-stylesheet type="text/css" href="svg.css"?>-->
<!DOCTYPE svg PUBLIC "-//W3C//DTD SVG 1.1//EN" "http://www.w3.org/Graphics/SVG/1.1/DTD/svg11.dtd">
<svg version="1.1" xmlns="http://www.w3.org/2000/svg" xmlns:xlink="http://www.w3.org/1999/xlink" x="0px" y="0px" width="16px" height="16px" viewBox="0 0 16 16" xml:space="preserve">
	
	<title>Search</title>
	<desc>Search Icon</desc>
	
	<!--
		@author		Harald Szekely 
		@copyright	2011 WoltLab GmbH 
		@license	GNU Lesser General Public License <http://opensource.org/licenses/lgpl-license.php> 
	--> 
	
	<defs>
		<style type="text/css">
			<![CDATA[
				.Upper1 {fill: #666;}
				.Lower1 {fill: #fff;}
			]]>
		</style>
	</defs>
	
	<g id="IconSearch">
		<path class="Lower1" d="M2.5375977,6.4790039c0,1.6157227,1.3134766,2.925293,2.934082,2.925293
			c1.6196289,0,2.9331055-1.3095703,2.9331055-2.925293c0-1.6152344-1.3134766-2.9248047-2.9331055-2.9248047
			C3.8510742,3.5541992,2.5375977,4.8637695,2.5375977,6.4790039z M1,6.4589844C1,3.996582,3.0024414,2.0004883,5.4716797,2.0004883
			S9.9433594,3.996582,9.9433594,6.4589844c0,0.8935547-0.2636719,1.7255859-0.7167969,2.4228516
			c0.0263672,0.0224609,0.0527344,0.046875,0.0791016,0.0737305l4.4228516,4.5151367
			c0.8339844,0.8496094-0.4453125,2.0957031-1.2792969,1.2441406l-4.4228516-4.5136719
			c-0.0161133-0.015625-0.0322266-0.0332031-0.0473633-0.0507812c-0.7148438,0.484375-1.578125,0.7675781-2.5073242,0.7675781
			C3.0024414,10.9179688,1,8.921875,1,6.4589844z"/>
		<path class="Upper1" d="M2.5375977,5.4785156c0,1.6157227,1.3134766,2.9257812,2.934082,2.9257812
			c1.6196289,0,2.9331055-1.3100586,2.9331055-2.9257812c0-1.6152344-1.3134766-2.9248047-2.9331055-2.9248047
			C3.8510742,2.5537109,2.5375977,3.8632812,2.5375977,5.4785156z M1,5.4584961C1,2.9960938,3.0024414,1,5.4716797,1
			s4.4716797,1.9960938,4.4716797,4.4584961c0,0.8935547-0.2636719,1.7255859-0.7167969,2.4233398
			c0.0263672,0.0224609,0.0527344,0.046875,0.0791016,0.0737305l4.4228516,4.5141602
			c0.8339844,0.8505859-0.4453125,2.0966797-1.2792969,1.2460938L8.0263672,9.2011719
			C8.0102539,9.1845703,7.9941406,9.1679688,7.9790039,9.1503906c-0.7148438,0.484375-1.578125,0.7675781-2.5073242,0.7675781
			C3.0024414,9.9179688,1,7.921875,1,5.4584961z"/>
	</g>
</svg>
