<?xml version="1.0" encoding="utf-8"?>
<!-- Generator: Adobe Illustrator 15.1.0, SVG Export Plug-In . SVG Version: 6.00 Build 0)  -->
<!DOCTYPE svg PUBLIC "-//W3C//DTD SVG 1.1//EN" "http://www.w3.org/Graphics/SVG/1.1/DTD/svg11.dtd">
<svg version="1.1" id="Ebene_1" xmlns="http://www.w3.org/2000/svg" xmlns:xlink="http://www.w3.org/1999/xlink" x="0px" y="0px" width="16px" height="16px" viewBox="0 0 16 16" enable-background="new 0 0 16 16" xml:space="preserve">
	<title>Search</title>
	<desc>Search Icon</desc>
	
	<!--
		@author		Harald Szekely
		@copyright	2001-2012 WoltLab GmbH 
		@license	GNU Lesser General Public License <http://opensource.org/licenses/lgpl-license.php> 
	--> 
	
	<defs>
		<style type="text/css">
			<![CDATA[
				.surface { fill: #666; }
				.shadow { fill: #fff; }
			]]>
		</style>
	</defs>
	
	<g id="IconSearch">
		<path class="shadow" d="M3.038,6.479c0,1.616,1.313,2.925,2.934,2.925c1.62,0,2.933-1.31,2.933-2.925
			c0-1.615-1.313-2.925-2.933-2.925C4.351,3.554,3.038,4.864,3.038,6.479z M1.5,6.459C1.5,3.997,3.502,2,5.972,2
			s4.472,1.996,4.472,4.458c0,0.894-0.264,1.726-0.717,2.423c0.026,0.022,0.053,0.047,0.079,0.073l4.423,4.516
			c0.834,0.85-0.445,2.096-1.279,1.244l-4.423-4.514c-0.017-0.016-0.032-0.033-0.047-0.051c-0.715,0.484-1.578,0.768-2.507,0.768
			C3.502,10.918,1.5,8.922,1.5,6.459z"/>
		<path class="surface" d="M3.038,5.479c0,1.616,1.313,2.926,2.934,2.926c1.62,0,2.933-1.31,2.933-2.926
			c0-1.615-1.313-2.925-2.933-2.925C4.351,2.554,3.038,3.863,3.038,5.479z M1.5,5.458C1.5,2.996,3.502,1,5.972,1
			s4.472,1.996,4.472,4.458c0,0.894-0.264,1.726-0.717,2.423c0.026,0.022,0.053,0.047,0.079,0.074l4.423,4.514
			c0.834,0.851-0.445,2.097-1.279,1.246L8.526,9.201C8.51,9.185,8.494,9.168,8.479,9.15C7.764,9.635,6.901,9.918,5.972,9.918
			C3.502,9.918,1.5,7.922,1.5,5.458z"/>
	</g>
</svg>
