<?xml version="1.0" encoding="utf-8"?>
<!-- Generator: Adobe Illustrator 15.1.0, SVG Export Plug-In . SVG Version: 6.00 Build 0)  -->
<!DOCTYPE svg PUBLIC "-//W3C//DTD SVG 1.1//EN" "http://www.w3.org/Graphics/SVG/1.1/DTD/svg11.dtd">
<svg version="1.1" id="Ebene_1" xmlns="http://www.w3.org/2000/svg" xmlns:xlink="http://www.w3.org/1999/xlink" x="0px" y="0px" width="16px" height="16px" viewBox="0 0 16 16" enable-background="new 0 0 16 16" xml:space="preserve">
	<title>Server</title>
	<desc>Server Icon</desc>
	
	<!--
		@author		Alexander Ebert
		@copyright	2001-2012 WoltLab GmbH 
		@license	GNU Lesser General Public License <http://opensource.org/licenses/lgpl-license.php> 
	--> 
	
	<defs>
		<style type="text/css">
			<![CDATA[
				.surface { fill: #fff; }
				.shadow { fill: #000; }
			]]>
		</style>
	</defs>
	
	<g id="IconServer" transform="translate(-0.5 0)">
		<g>
			<path id="Rack2" class="shadow" transform="translate(0 -1)" opacity=".8" d="M1.5,15h13v-3h-13V15z M3,13c0.276,0,0.5,0.224,0.5,0.5S3.276,14,3,14s-0.5-0.224-0.5-0.5
				S2.724,13,3,13z M1.5,8v3h13V8H1.5z M3,10c-0.276,0-0.5-0.224-0.5-0.5S2.724,9,3,9s0.5,0.224,0.5,0.5S3.276,10,3,10z M1.5,4v3h13
				V4H1.5z M3,6C2.724,6,2.5,5.776,2.5,5.5S2.724,5,3,5s0.5,0.224,0.5,0.5S3.276,6,3,6z"/>
			<polygon id="Upside2" class="shadow" transform="translate(0 -1)" opacity=".8" points="13,2 3,2 1.5,3.75 14.5,3.75 		"/>
		</g>
		<g>
			<path id="Rack1" class="surface" transform="translate(0 1)" d="M1.5,14h13v-3h-13V14z M3,12c0.276,0,0.5,0.224,0.5,0.5S3.276,13,3,13s-0.5-0.224-0.5-0.5
				S2.724,12,3,12z M1.5,7v3h13V7H1.5z M3,9C2.724,9,2.5,8.776,2.5,8.5S2.724,8,3,8s0.5,0.224,0.5,0.5S3.276,9,3,9z M1.5,3v3h13V3
				H1.5z M3,5C2.724,5,2.5,4.776,2.5,4.5S2.724,4,3,4s0.5,0.224,0.5,0.5S3.276,5,3,5z"/>
			<polygon id="Upside1" class="surface" transform="translate(0 1)" points="13,1 3,1 1.5,2.75 14.5,2.75 		"/>
		</g>
	</g>
</svg>
