<?xml version="1.0" encoding="utf-8"?>
<!--<?xml-stylesheet type="text/css" href="svg.css"?>-->
<!DOCTYPE svg PUBLIC "-//W3C//DTD SVG 1.1//EN" "http://www.w3.org/Graphics/SVG/1.1/DTD/svg11.dtd">
<svg version="1.1" xmlns="http://www.w3.org/2000/svg" xmlns:xlink="http://www.w3.org/1999/xlink" x="0px" y="0px" width="16px" height="16px" viewBox="0 0 16 16" xml:space="preserve">
	
	<title>Server</title>
	<desc>Server Icon</desc>
	
	<!--
		@author		Harald Szekely 
		@copyright	2011 WoltLab GmbH 
		@license	GNU Lesser General Public License <http://opensource.org/licenses/lgpl-license.php> 
	--> 
	
	<defs>
		<style type="text/css">
			<![CDATA[
				.Upper1 {fill: #666;}
				.Lower1 {fill: #fff;}
			]]>
		</style>
	</defs>
	
	<g id="IconServer">
		<g class="Lower1">
			<path id="Rack2" d="M1,15h13v-3H1V15z M2.5,13C2.7763672,13,3,13.2236328,3,13.5S2.7763672,14,2.5,14
				S2,13.7763672,2,13.5S2.2236328,13,2.5,13z M1,8v3h13V8H1z M2.5,10C2.2236328,10,2,9.7763672,2,9.5S2.2236328,9,2.5,9
				S3,9.2236328,3,9.5S2.7763672,10,2.5,10z M1,4v3h13V4H1z M2.5,6C2.2236328,6,2,5.7763672,2,5.5S2.2236328,5,2.5,5
				S3,5.2236328,3,5.5S2.7763672,6,2.5,6z"/>
			<polygon id="Upside2" style="fill-rule: evenodd; clip-rule: evenodd;" points="12.5,2 2.5,2 1,3.75 14,3.75"/>
		</g>
		<g class="Upper1">
			<path id="Rack1" d="M1,14h13v-3H1V14z M2.5,12C2.7763672,12,3,12.2236328,3,12.5S2.7763672,13,2.5,13
				S2,12.7763672,2,12.5S2.2236328,12,2.5,12z M1,7v3h13V7H1z M2.5,9C2.2236328,9,2,8.7763672,2,8.5S2.2236328,8,2.5,8
				S3,8.2236328,3,8.5S2.7763672,9,2.5,9z M1,3v3h13V3H1z M2.5,5C2.2236328,5,2,4.7763672,2,4.5S2.2236328,4,2.5,4S3,4.2236328,3,4.5
				S2.7763672,5,2.5,5z"/>
			<polygon id="Upside1" style="fill-rule: evenodd; clip-rule: evenodd;" points="12.5,1 2.5,1 1,2.75 14,2.75"/>
		</g>
	</g>
</svg>
