<?xml version="1.0" encoding="utf-8"?>
<!-- Generator: Adobe Illustrator 15.1.0, SVG Export Plug-In . SVG Version: 6.00 Build 0)  -->
<!DOCTYPE svg PUBLIC "-//W3C//DTD SVG 1.1//EN" "http://www.w3.org/Graphics/SVG/1.1/DTD/svg11.dtd">
<svg version="1.1" id="Ebene_1" xmlns="http://www.w3.org/2000/svg" xmlns:xlink="http://www.w3.org/1999/xlink" x="0px" y="0px" width="16px" height="16px" viewBox="0 0 16 16" enable-background="new 0 0 16 16" xml:space="preserve">
	<title>Signature</title>
	<desc>Signature Icon</desc>
	
	<!--
		@author		Harald Szekely
		@copyright	2001-2012 WoltLab GmbH 
		@license	GNU Lesser General Public License <http://opensource.org/licenses/lgpl-license.php> 
	--> 
	
	<defs>
		<style type="text/css">
			<![CDATA[
				.surface { fill: #fff; }
				.shadow { fill: #000; }
			]]>
		</style>
	</defs>
	
	<g id="IconWrite">
		<g>
			<path id="Writing2" class="shadow" transform="translate(0 -1)" opacity=".8" d="M14.649,14.438c-1.543,0.08-3.146,0.141-4.669-0.147c-0.626-0.117-0.855-0.413-0.331-0.853
				c0.472-0.395,1.869-1.654,0.313-0.79c-1.225,0.681-2.283,1.329-3.712,1.535c-0.455,0.066-5.295-0.088-4.362-0.926
				c-0.269,0.156-0.537,0.313-0.806,0.469c1.747-0.956,3.783-0.643,5.514-1.777c3.519-2.306-3.791-2.499-4.947-2.511
				c-0.291-0.003-0.583,0.503-0.866,0.5c1.37,0.015,5.172-0.346,5.991,1.206c0.71,1.345-3.91,1.579-4.724,2.023
				c-0.392,0.215-0.828,0.411-1.162,0.71c-0.569,0.511,2.909,0.883,3.096,0.886c1.236,0.024,2.603-0.139,3.693-0.759
				c0.393-0.224,2.602-1.564,2.105-0.872c-0.255,0.355-1.581,0.839-1.276,1.397c0.21,0.385,1.299,0.369,1.645,0.401
				c1.2,0.111,2.43,0.069,3.633,0.007C14.084,14.922,14.356,14.453,14.649,14.438L14.649,14.438z"/>
			<path id="Pen2" class="shadow" transform="translate(0 -1)" opacity=".8" d="M4.8,1.958L3.445,3.214c0.015,0.071,0.01,0.134-0.031,0.172
				C3.333,3.461,3.374,3.648,3.511,3.792l2.941,3.22c0.14,0.146,0.355,0.388,0.49,0.535l2.948,3.218
				c0.071,0.075,0.192,0.091,0.329,0.053l0.015,0.012l1.554-1.443l-0.014-0.015c0.047-0.135,0.047-0.258-0.025-0.337L8.807,5.819
				C8.672,5.672,8.446,5.431,8.315,5.282L6,2.754C6.037,2.726,6.078,2.69,6.123,2.646c0.051-0.047,0.094-0.09,0.128-0.125
				l3.871,4.122c0.083,0.089,0.218,0.096,0.303,0.015c0.084-0.079,0.093-0.217,0.013-0.304L6.249,1.889
				C6.167,1.801,6.032,1.793,5.943,1.873C5.861,1.952,5.855,2.089,5.941,2.178l0.04,0.055c-0.03,0.029-0.076,0.07-0.129,0.116
				C5.805,2.394,5.767,2.433,5.735,2.466l-0.368-0.4C5.232,1.918,5.053,1.859,4.972,1.937C4.936,1.975,4.872,1.977,4.8,1.958z
				 M4.535,1.764l0.041,0.045C4.6,1.834,4.628,1.855,4.658,1.875l-1.28,1.188C3.362,3.033,3.341,3.004,3.315,2.978l-0.04-0.045
				C3.144,2.785,3.239,2.47,3.497,2.231L3.83,1.927C4.082,1.689,4.398,1.616,4.535,1.764z M15.146,14.315
				c0.092,0.096,0.095,0.239,0.008,0.319c-0.087,0.081-0.229,0.068-0.315-0.037l-0.06,0.061l-0.802-0.742l0.555-0.522l0.672,0.868
				L15.146,14.315z M14.449,13.285l-0.574,0.535l-0.138,0.129l-3.367-2.996l1.527-1.418l2.689,3.622L14.449,13.285z"/>
		</g>
		<g>
			<path id="Writing1" class="surface" transform="translate(0 1)" d="M14.649,13.75c-1.543,0.08-3.146,0.141-4.669-0.147c-0.626-0.117-0.855-0.413-0.331-0.853
				c0.472-0.395,1.869-1.654,0.313-0.79c-1.225,0.681-2.283,1.329-3.712,1.535c-0.455,0.066-5.295-0.088-4.362-0.926
				c-0.269,0.156-0.537,0.313-0.806,0.469c1.747-0.956,3.783-0.643,5.514-1.777C10.115,8.955,2.806,8.762,1.65,8.75
				c-0.291-0.003-0.583,0.503-0.866,0.5c1.37,0.015,5.172-0.346,5.991,1.206c0.71,1.345-3.91,1.579-4.724,2.023
				c-0.392,0.215-0.828,0.411-1.162,0.71C0.32,13.7,3.798,14.072,3.985,14.075c1.236,0.024,2.603-0.139,3.693-0.759
				c0.393-0.224,2.602-1.564,2.105-0.872c-0.255,0.355-1.581,0.839-1.276,1.397c0.21,0.385,1.299,0.369,1.645,0.401
				c1.2,0.111,2.43,0.069,3.633,0.007C14.084,14.234,14.356,13.766,14.649,13.75L14.649,13.75z"/>
			<path id="Pen1" class="surface" transform="translate(0 1)" d="M4.8,1.271L3.445,2.526C3.46,2.597,3.456,2.66,3.415,2.698C3.333,2.773,3.374,2.96,3.511,3.105
				l2.941,3.22c0.14,0.146,0.355,0.388,0.49,0.535l2.948,3.218c0.071,0.075,0.192,0.091,0.329,0.053l0.015,0.012l1.554-1.443
				l-0.014-0.015c0.047-0.135,0.047-0.258-0.025-0.337L8.807,5.131C8.672,4.984,8.446,4.744,8.315,4.594L6,2.066
				c0.037-0.028,0.078-0.063,0.122-0.108c0.051-0.047,0.094-0.09,0.128-0.125l3.871,4.122c0.083,0.089,0.218,0.096,0.303,0.015
				c0.084-0.079,0.093-0.217,0.013-0.304L6.249,1.201C6.167,1.113,6.032,1.105,5.943,1.186C5.861,1.264,5.855,1.402,5.941,1.491
				l0.04,0.055c-0.03,0.029-0.076,0.07-0.129,0.116C5.805,1.706,5.767,1.745,5.735,1.779l-0.368-0.4
				C5.232,1.23,5.053,1.172,4.972,1.25C4.936,1.287,4.872,1.29,4.8,1.271z M4.535,1.076l0.041,0.045
				C4.6,1.147,4.628,1.167,4.658,1.188l-1.28,1.188C3.362,2.345,3.341,2.317,3.315,2.291l-0.04-0.045
				C3.144,2.098,3.239,1.783,3.497,1.544L3.83,1.239C4.082,1.001,4.398,0.929,4.535,1.076z M15.146,13.628
				c0.092,0.096,0.095,0.239,0.008,0.319c-0.087,0.081-0.229,0.068-0.315-0.037l-0.06,0.061l-0.802-0.742l0.555-0.522l0.672,0.868
				L15.146,13.628z M14.449,12.598l-0.574,0.535l-0.138,0.129l-3.367-2.996l1.527-1.418l2.689,3.622L14.449,12.598z"/>
		</g>
	</g>
</svg>
