<?xml version="1.0" encoding="utf-8"?>
<!-- Generator: Adobe Illustrator 15.1.0, SVG Export Plug-In . SVG Version: 6.00 Build 0)  -->
<!DOCTYPE svg PUBLIC "-//W3C//DTD SVG 1.1//EN" "http://www.w3.org/Graphics/SVG/1.1/DTD/svg11.dtd">
<svg version="1.1" id="Ebene_1" xmlns="http://www.w3.org/2000/svg" xmlns:xlink="http://www.w3.org/1999/xlink" x="0px" y="0px" width="16px" height="16px" viewBox="0 0 16 16" enable-background="new 0 0 16 16" xml:space="preserve">
	<title>Smiley</title>
	<desc>Smiley Icon</desc>
	
	<!--
		@author		Alexander Ebert
		@copyright	2001-2012 WoltLab GmbH 
		@license	GNU Lesser General Public License <http://opensource.org/licenses/lgpl-license.php> 
	--> 
	
	<defs>
		<style type="text/css">
			<![CDATA[
				.surface { fill: #666; }
				.shadow { fill: #fff; }
			]]>
		</style>
	</defs>
	
	<g id="IconSmiley">
		<g>
			<path id="Circle2" class="shadow" opacity=".8" d="M2.847,8.5c0,2.848,2.307,5.153,5.153,5.153c2.845,0,5.152-2.306,5.152-5.153
				c0-2.847-2.308-5.153-5.152-5.153C5.154,3.347,2.847,5.653,2.847,8.5z M1.5,8.5C1.5,4.91,4.41,2,8,2c3.59,0,6.5,2.91,6.5,6.5
				c0,3.591-2.91,6.5-6.5,6.5C4.41,15,1.5,12.091,1.5,8.5z"/>
			<path id="Smile2" class="shadow" opacity=".8" d="M10.752,9.369c0.411-0.438,0.611-0.282,0.444,0.347c0,0-0.475,1.784-3.196,1.784
				c-2.722,0-3.196-1.784-3.196-1.784C4.637,9.087,4.835,8.933,5.245,9.374c0,0,0.811,0.871,2.754,0.871
				C9.929,10.245,10.752,9.369,10.752,9.369z M10.5,7c0-0.55-0.338-1-0.75-1S9,6.45,9,7l0,0c0,0.55,0.338,1,0.75,1S10.5,7.55,10.5,7
				L10.5,7z M7,7c0-0.55-0.337-1-0.75-1C5.837,6,5.5,6.45,5.5,7l0,0c0,0.55,0.337,1,0.75,1C6.663,8,7,7.55,7,7L7,7z"/>
		</g>
		<g>
			<path id="Circle1" class="surface" d="M2.847,7.5c0,2.848,2.307,5.153,5.153,5.153c2.845,0,5.152-2.306,5.152-5.153
				c0-2.847-2.308-5.153-5.152-5.153C5.154,2.347,2.847,4.653,2.847,7.5z M1.5,7.5C1.5,3.91,4.41,1,8,1c3.59,0,6.5,2.91,6.5,6.5
				c0,3.591-2.91,6.5-6.5,6.5C4.41,14,1.5,11.091,1.5,7.5z"/>
			<path id="Smile1" class="surface" d="M10.752,8.369c0.411-0.438,0.611-0.282,0.444,0.347c0,0-0.475,1.784-3.196,1.784
				c-2.722,0-3.196-1.784-3.196-1.784C4.637,8.087,4.835,7.933,5.245,8.374c0,0,0.811,0.872,2.754,0.872
				C9.929,9.245,10.752,8.369,10.752,8.369z M10.5,6c0-0.55-0.338-1-0.75-1S9,5.45,9,6l0,0c0,0.55,0.338,1,0.75,1S10.5,6.55,10.5,6
				L10.5,6z M7,6c0-0.55-0.337-1-0.75-1C5.837,5,5.5,5.45,5.5,6l0,0c0,0.55,0.337,1,0.75,1C6.663,7,7,6.55,7,6L7,6z"/>
		</g>
	</g>
</svg>
