<?xml version="1.0" encoding="utf-8"?>
<!--<?xml-stylesheet type="text/css" href="svg.css"?>-->
<!DOCTYPE svg PUBLIC "-//W3C//DTD SVG 1.1//EN" "http://www.w3.org/Graphics/SVG/1.1/DTD/svg11.dtd">
<svg version="1.1" xmlns="http://www.w3.org/2000/svg" xmlns:xlink="http://www.w3.org/1999/xlink" x="0px" y="0px" width="16px" height="16px" viewBox="0 0 16 16" xml:space="preserve">
	
	<title>Smiley</title>
	<desc>Smiley Icon (outlined)</desc>
	
	<!--
		@author		Harald Szekely 
		@copyright	2011 WoltLab GmbH 
		@license	GNU Lesser General Public License <http://opensource.org/licenses/lgpl-license.php> 
	--> 
	
	<defs>
		<style type="text/css">
			<![CDATA[
				.Upper1 {fill: #666;}
				.Lower1 {fill: #fff;}
			]]>
		</style>
	</defs>
	
	<g id="IconSmiley">
		<g class="Lower1">
			<path id="Circle2" style="fill-rule:evenodd;clip-rule:evenodd;" d="M2.347168,8.5
				c0,2.8476562,2.3066406,5.1533203,5.152832,5.1533203c2.8447266,0,5.1523438-2.3056641,5.1523438-5.1533203
				c0-2.8466797-2.3076172-5.1533203-5.1523438-5.1533203C4.6538086,3.3466797,2.347168,5.6533203,2.347168,8.5z M1,8.5
				C1,4.9101562,3.909668,2,7.5,2C11.0898438,2,14,4.9101562,14,8.5c0,3.5908203-2.9101562,6.5-6.5,6.5
				C3.909668,15,1,12.0908203,1,8.5z"/>
			<path id="Smile2" style="fill-rule:evenodd;clip-rule:evenodd;" d="M10.2519531,9.3691406
				c0.4111328-0.4379883,0.6113281-0.2822266,0.4443359,0.3466797c0,0-0.4746094,1.7841797-3.1962891,1.7841797
				c-2.722168,0-3.1962891-1.7841797-3.1962891-1.7841797c-0.1669922-0.6289062,0.03125-0.7832031,0.440918-0.3417969
				c0,0,0.8110352,0.8710938,2.7539062,0.8710938C9.4287109,10.2451172,10.2519531,9.3691406,10.2519531,9.3691406z M10,7
				c0-0.5498047-0.3378906-1-0.75-1C8.8374023,6,8.5,6.4501953,8.5,7l0,0c0,0.5498047,0.3374023,1,0.75,1
				C9.6621094,8,10,7.5498047,10,7L10,7z M6.5004883,7c0-0.5498047-0.3374023-1-0.7504883-1C5.3374023,6,5,6.4501953,5,7l0,0
				c0,0.5498047,0.3374023,1,0.75,1C6.1630859,8,6.5004883,7.5498047,6.5004883,7L6.5004883,7z"/>
		</g>
		<g class="Upper1">
			<path id="Circle1" style="fill-rule:evenodd;clip-rule:evenodd;" d="M2.347168,7.5
				c0,2.8476562,2.3066406,5.1533203,5.152832,5.1533203c2.8447266,0,5.1523438-2.3056641,5.1523438-5.1533203
				c0-2.8466797-2.3076172-5.1533203-5.1523438-5.1533203C4.6538086,2.3466797,2.347168,4.6533203,2.347168,7.5z M1,7.5
				C1,3.9101562,3.909668,1,7.5,1C11.0898438,1,14,3.9101562,14,7.5c0,3.5908203-2.9101562,6.5-6.5,6.5
				C3.909668,14,1,11.0908203,1,7.5z"/>
			<path id="Smile1" style="fill-rule:evenodd;clip-rule:evenodd;" d="M10.2519531,8.3691406
				c0.4111328-0.4379883,0.6113281-0.2822266,0.4443359,0.3466797c0,0-0.4746094,1.7841797-3.1962891,1.7841797
				c-2.722168,0-3.1962891-1.7841797-3.1962891-1.7841797c-0.1669922-0.6289062,0.03125-0.7832031,0.440918-0.3422852
				c0,0,0.8110352,0.871582,2.7539062,0.871582C9.4287109,9.2451172,10.2519531,8.3691406,10.2519531,8.3691406z M10,6
				c0-0.5498047-0.3378906-1-0.75-1C8.8374023,5,8.5,5.4501953,8.5,6l0,0c0,0.5498047,0.3374023,1,0.75,1
				C9.6621094,7,10,6.5498047,10,6L10,6z M6.5004883,6c0-0.5498047-0.3374023-1-0.7504883-1C5.3374023,5,5,5.4501953,5,6l0,0
				c0,0.5498047,0.3374023,1,0.75,1C6.1630859,7,6.5004883,6.5498047,6.5004883,6L6.5004883,6z"/>
		</g>
	</g>
</svg>
