<?xml version="1.0" encoding="utf-8"?>
<!-- Generator: Adobe Illustrator 15.1.0, SVG Export Plug-In . SVG Version: 6.00 Build 0)  -->
<!DOCTYPE svg PUBLIC "-//W3C//DTD SVG 1.1//EN" "http://www.w3.org/Graphics/SVG/1.1/DTD/svg11.dtd">
<svg version="1.1" id="Ebene_1" xmlns="http://www.w3.org/2000/svg" xmlns:xlink="http://www.w3.org/1999/xlink" x="0px" y="0px" width="16px" height="16px" viewBox="0 0 16 16" enable-background="new 0 0 16 16" xml:space="preserve">
	<title>Spinner</title>
	<desc>Spinner Icon (type 4) (animated)</desc>
	
	<!--
		@author		Harald Szekely
		@copyright	2001-2012 WoltLab GmbH 
		@license	GNU Lesser General Public License <http://opensource.org/licenses/lgpl-license.php> 
	--> 
	
	<defs>
		<style type="text/css">
			<![CDATA[
				.surface { fill: #fff; }
				.shadow { fill: #000; }
			]]>
		</style>
	</defs>
	
	<g id="IconSpinner" transform="translate(8, 8)">
		<animateTransform  type="rotate" fill="remove" begin="0s" values="0;45;90;135;180;225;270;315" dur="1s" restart="always" repeatCount="indefinite" calcMode="discrete" accumulate="none" attributeName="transform" additive="sum" attributeType="XML">
		</animateTransform>
		
		<g transform="translate(-8, -8)">
			<g id="x315degrees">
				<path class="surface" d="M6.586,7.335c-0.201,0-0.389-0.078-0.53-0.219L3.227,4.288c-0.292-0.292-0.292-0.768,0-1.061
					c0.141-0.141,0.33-0.219,0.53-0.219c0.2,0,0.389,0.078,0.53,0.219l2.829,2.829c0.292,0.292,0.292,0.768,0,1.061
					C6.975,7.257,6.787,7.335,6.586,7.335L6.586,7.335z"/>
				<path class="shadow" opacity=".8" d="M3.757,3.258c0.128,0,0.256,0.049,0.354,0.146L6.94,6.233c0.194,0.194,0.194,0.513,0,0.707
					C6.842,7.037,6.714,7.085,6.586,7.085S6.33,7.036,6.232,6.939L3.404,4.111c-0.194-0.194-0.194-0.513,0-0.707
					C3.501,3.307,3.629,3.258,3.757,3.258 M3.757,2.758c-0.268,0-0.519,0.104-0.707,0.292S2.758,3.49,2.758,3.757
					c0,0.267,0.104,0.519,0.292,0.707l2.829,2.829c0.188,0.188,0.439,0.292,0.707,0.292s0.519-0.104,0.707-0.292
					s0.292-0.439,0.292-0.707S7.481,6.067,7.293,5.879L4.464,3.05C4.276,2.862,4.025,2.758,3.757,2.758L3.757,2.758z"/>
			</g>
			<g id="x270degrees" opacity="0.5">
				<path class="surface" d="M2,8.75C1.586,8.75,1.25,8.414,1.25,8S1.586,7.25,2,7.25h4c0.414,0,0.75,0.336,0.75,0.75
					S6.414,8.75,6,8.75H2z"/>
				<path class="shadow" opacity=".8" d="M6,7.5c0.275,0,0.5,0.225,0.5,0.5S6.275,8.5,6,8.5H2C1.725,8.5,1.5,8.275,1.5,8S1.725,7.5,2,7.5H6 M6,7H2
					C1.449,7,1,7.449,1,8s0.449,1,1,1h4c0.551,0,1-0.449,1-1S6.551,7,6,7L6,7z"/>
			</g>
			<g id="x225degrees" opacity="0.4">
				<path class="surface" d="M3.758,12.992c-0.201,0-0.389-0.077-0.53-0.219c-0.142-0.143-0.22-0.33-0.22-0.531
					s0.078-0.389,0.219-0.53l2.83-2.829c0.141-0.141,0.33-0.219,0.53-0.219c0.2,0,0.389,0.078,0.53,0.219
					c0.292,0.292,0.292,0.77,0,1.061l-2.828,2.83C4.147,12.915,3.959,12.992,3.758,12.992L3.758,12.992z"/>
				<path class="shadow" opacity=".8" d="M6.586,8.914c0.128,0,0.256,0.049,0.354,0.146l0,0c0.194,0.193,0.194,0.513,0,0.707l-2.828,2.828
					c-0.097,0.098-0.225,0.146-0.354,0.146c-0.129,0-0.256-0.049-0.354-0.146H3.403c-0.194-0.195-0.194-0.514,0-0.707l2.83-2.828
					C6.33,8.963,6.458,8.914,6.586,8.914 M6.586,8.414c-0.268,0-0.519,0.104-0.707,0.292l-2.83,2.829
					c-0.188,0.188-0.292,0.439-0.292,0.707s0.104,0.519,0.292,0.707l0.034,0.033l0.008,0.007c0.183,0.163,0.417,0.253,0.666,0.253
					c0.268,0,0.519-0.104,0.707-0.292l2.828-2.829C7.48,9.934,7.584,9.682,7.584,9.414S7.48,8.895,7.292,8.707
					C7.106,8.52,6.854,8.414,6.586,8.414L6.586,8.414z"/>
			</g>
			<g id="x180degrees" opacity="0.3">
				<path class="surface" d="M8.001,14.75c-0.415,0-0.751-0.337-0.751-0.75v-4c0-0.414,0.336-0.75,0.75-0.75S8.75,9.586,8.75,10v4
					C8.751,14.413,8.415,14.75,8.001,14.75L8.001,14.75z"/>
				<path class="shadow" opacity=".8" d="M8,9.5c0.275,0,0.5,0.225,0.5,0.5v4c0,0.275-0.225,0.5-0.5,0.5l0,0c-0.275,0-0.5-0.225-0.5-0.5v-4
					C7.5,9.725,7.725,9.5,8,9.5L8,9.5 M8,9c-0.552,0-1,0.449-1,1v4c0,0.552,0.449,1,1,1c0.553,0,1.001-0.448,1.001-1L9,10
					C9,9.448,8.553,9,8,9L8,9z"/>
			</g>
			<g id="x135degrees" opacity="0.2">
				<path class="surface" d="M12.242,12.992c-0.201,0-0.389-0.077-0.53-0.219l-2.829-2.83c-0.292-0.291-0.292-0.769,0-1.061
					c0.143-0.142,0.33-0.22,0.531-0.22s0.389,0.078,0.529,0.219l2.83,2.829c0.142,0.143,0.219,0.329,0.219,0.53
					c0,0.2-0.077,0.389-0.219,0.53C12.631,12.912,12.443,12.992,12.242,12.992L12.242,12.992z"/>
				<path class="shadow" opacity=".8" d="M9.414,8.914c0.128,0,0.256,0.049,0.354,0.146l2.83,2.828c0.193,0.193,0.193,0.512,0,0.707h-0.002
					c-0.098,0.098-0.226,0.146-0.354,0.146c-0.129,0-0.258-0.049-0.354-0.146L9.061,9.768c-0.194-0.193-0.194-0.513,0-0.707l0,0
					C9.158,8.963,9.285,8.914,9.414,8.914 M9.414,8.414c-0.268,0-0.52,0.104-0.707,0.292s-0.292,0.44-0.292,0.708
					s0.104,0.52,0.292,0.707l2.829,2.829c0.188,0.188,0.438,0.292,0.707,0.292s0.519-0.104,0.707-0.292
					c0.188-0.189,0.293-0.44,0.293-0.708s-0.104-0.52-0.292-0.707l-2.83-2.828C9.934,8.518,9.682,8.414,9.414,8.414L9.414,8.414z"/>
			</g>
			<g id="x090degrees" opacity="0.1">
				<path class="surface" d="M10,8.75C9.586,8.75,9.25,8.414,9.25,8S9.586,7.25,10,7.25h4c0.413,0,0.75,0.336,0.75,0.75
					S14.413,8.75,14,8.75H10z"/>
				<path class="shadow" opacity=".8" d="M14,7.5c0.275,0,0.5,0.225,0.5,0.5S14.275,8.5,14,8.5h-4C9.725,8.5,9.5,8.275,9.5,8S9.725,7.5,10,7.5H14
					 M14,7h-4C9.447,7,9,7.449,9,8s0.449,1,1,1h4c0.553,0,1-0.449,1-1S14.553,7,14,7L14,7z"/>
			</g>
			<g id="x045degrees" opacity="0.05">
				<path class="surface" d="M9.414,7.335c-0.201,0-0.389-0.078-0.53-0.218c-0.292-0.293-0.292-0.769,0-1.061l2.829-2.829
					c0.143-0.141,0.329-0.219,0.53-0.219c0.2,0,0.389,0.078,0.53,0.219c0.291,0.292,0.291,0.768,0,1.061l-2.83,2.828
					C9.803,7.257,9.613,7.335,9.414,7.335L9.414,7.335z"/>
				<path class="shadow" opacity=".8" d="M12.243,3.258c0.128,0,0.257,0.048,0.354,0.146c0.193,0.194,0.193,0.513,0,0.707l-2.83,2.828
					C9.67,7.036,9.542,7.085,9.414,7.085c-0.129,0-0.256-0.049-0.354-0.146c-0.194-0.194-0.194-0.513,0-0.707l2.828-2.829
					C11.986,3.307,12.115,3.258,12.243,3.258 M12.243,2.758c-0.269,0-0.519,0.104-0.707,0.292L8.708,5.879
					c-0.39,0.39-0.39,1.023-0.001,1.414c0.189,0.189,0.439,0.292,0.708,0.292s0.519-0.104,0.707-0.292l2.829-2.828
					c0.188-0.188,0.292-0.439,0.292-0.707c0-0.268-0.104-0.519-0.293-0.708C12.762,2.861,12.512,2.758,12.243,2.758L12.243,2.758z"/>
			</g>
			<g id="x000degrees" opacity="0.01">
				<path class="surface" d="M8,6.75C7.587,6.75,7.25,6.414,7.25,6V2c0-0.414,0.336-0.75,0.75-0.75S8.75,1.586,8.75,2v4
					C8.75,6.414,8.414,6.75,8,6.75L8,6.75z"/>
				<path class="shadow" opacity=".8" d="M8,1.5c0.275,0,0.5,0.225,0.5,0.5v4c0,0.275-0.225,0.5-0.5,0.5C7.726,6.5,7.5,6.275,7.5,6V2
					C7.5,1.725,7.726,1.5,8,1.5 M8,1C7.449,1,7,1.449,7,2v4c0,0.551,0.448,1,1,1c0.553,0,1-0.449,1-1V2C9,1.449,8.551,1,8,1L8,1z"/>
			</g>
		</g>
	</g>
</svg>
