<?xml version="1.0" encoding="utf-8"?>
<!--<?xml-stylesheet type="text/css" href="svg.css"?>-->
<!DOCTYPE svg PUBLIC "-//W3C//DTD SVG 1.1//EN" "http://www.w3.org/Graphics/SVG/1.1/DTD/svg11.dtd">
<svg version="1.1" xmlns="http://www.w3.org/2000/svg" xmlns:xlink="http://www.w3.org/1999/xlink" x="0px" y="0px" width="16px" height="16px" viewBox="0 0 16 16" xml:space="preserve">
	
	<title>Spinner</title>
	<desc>Spinner Icon (type 4) (animated)</desc>
	
	<!--
		@author		Harald Szekely 
		@copyright	2011 WoltLab GmbH 
		@license	GNU Lesser General Public License <http://opensource.org/licenses/lgpl-license.php> 
	--> 
	
	<defs>
		<style type="text/css">
			<![CDATA[
				#x315degrees {opacity: 1; fill: #666;}
				#x270degrees {opacity: .5; fill: #666;}
				#x225degrees {opacity: .4; fill: #666;}
				#x180degrees {opacity: .3; fill: #666;}
				#x135degrees {opacity: .2; fill: #666;}
				#x090degrees {opacity: .1; fill: #666;}
				#x045degrees {opacity: .05; fill: #666;}
				#x000degrees {opacity: .01; fill: #666;}
				
				.Upper1 {fill: #666;}
				.Lower1 {fill: #fff;}
			]]>
		</style>
	</defs>
	
	<g id="IconSpinner" transform="translate(7.5, 7.5)">
		<animateTransform attributeName="transform" attributeType="XML" type="rotate" values="0;45;90;135;180;225;270;315" begin="0s" dur="1s" repeatCount="indefinite" calcMode="discrete" additive="sum" />
		
		<g transform="translate(-7.5, -7.5)">
			<g id="x315degrees">
				<path class="Upper1" d="M6.0859375,6.8349609c-0.2006836,0-0.3891602-0.0776367-0.5302734-0.21875L2.7270508,3.7875977
					c-0.2924805-0.2924805-0.2924805-0.7680664,0-1.0605469c0.1411133-0.1411133,0.3295898-0.2192383,0.5302734-0.2192383
					s0.3891602,0.078125,0.5302734,0.2192383l2.8286133,2.8286133c0.2924805,0.2924805,0.2924805,0.7680664,0,1.0605469
					C6.4750977,6.7573242,6.2866211,6.8349609,6.0859375,6.8349609L6.0859375,6.8349609z"/>
				<path class="Lower1" d="M3.2573242,2.7578125c0.1279297,0,0.2563477,0.0488281,0.3535156,0.1459961l2.8286133,2.8286133
					c0.1943359,0.1943359,0.1943359,0.5126953,0,0.7070312c-0.097168,0.097168-0.2250977,0.1459961-0.3535156,0.1459961
					c-0.1279297,0-0.2563477-0.0488281-0.3535156-0.1459961L2.9038086,3.6108398
					c-0.1943359-0.1943359-0.1943359-0.5126953,0-0.7070312C3.0009766,2.8066406,3.1289062,2.7578125,3.2573242,2.7578125
					 M3.2573242,2.2578125c-0.2675781,0-0.5185547,0.1040039-0.7070312,0.2924805S2.2583008,2.9897461,2.2583008,3.2573242
					S2.3618164,3.7758789,2.550293,3.9643555l2.8286133,2.8286133c0.1884766,0.1884766,0.4394531,0.2919922,0.7070312,0.2919922
					s0.5185547-0.1035156,0.7070312-0.2919922s0.2919922-0.4394531,0.2924805-0.7070312
					c0-0.2675781-0.1040039-0.5185547-0.2924805-0.7070312L3.9643555,2.550293
					C3.7758789,2.3618164,3.5249023,2.2578125,3.2573242,2.2578125L3.2573242,2.2578125z"/>
			</g>
			<g id="x270degrees">
				<path class="Upper1" d="M1.5,8.25c-0.4135742,0-0.75-0.3364258-0.75-0.75S1.0864258,6.75,1.5,6.75h4
					c0.4135742,0,0.75,0.3364258,0.75,0.75S5.9135742,8.25,5.5,8.25H1.5z"/>
				<path class="Lower1" d="M5.5,7C5.7749023,7,6,7.2250977,6,7.5S5.7749023,8,5.5,8h-4C1.2250977,8,1,7.7749023,1,7.5
					S1.2250977,7,1.5,7H5.5 M5.5,6.5h-4c-0.5512695,0-1,0.4487305-1,1s0.4487305,1,1,1h4c0.5512695,0,1-0.4487305,1-1
					S6.0512695,6.5,5.5,6.5L5.5,6.5z"/>
			</g>
			<g id="x225degrees">
				<path class="Upper1" d="M3.2583008,12.4921875c-0.2006836,0-0.3891602-0.0771484-0.5302734-0.21875
					c-0.1420898-0.1416016-0.2202148-0.3300781-0.2202148-0.53125s0.0776367-0.3886719,0.21875-0.5302734l2.8295898-2.8286133
					c0.1411133-0.1411133,0.3295898-0.2192383,0.5302734-0.2192383s0.3891602,0.078125,0.5302734,0.2192383
					c0.2924805,0.2929688,0.2919922,0.769043,0,1.0610352l-2.828125,2.8291016
					C3.6474609,12.4150391,3.4589844,12.4921875,3.2583008,12.4921875L3.2583008,12.4921875z"/>
				<path class="Lower1" d="M6.0864258,8.4140625c0.1279297,0,0.2563477,0.0488281,0.3535156,0.1459961v0.0004883
					c0.1943359,0.1943359,0.1943359,0.5126953,0,0.7070312l-2.828125,2.8291016
					c-0.097168,0.0976562-0.2250977,0.1455078-0.3535156,0.1455078s-0.2563477-0.0478516-0.3535156-0.1455078l-0.0014648-0.0009766
					c-0.1943359-0.1943359-0.1943359-0.5126953,0-0.7070312l2.8295898-2.8286133
					C5.8300781,8.4628906,5.9584961,8.4140625,6.0864258,8.4140625 M6.0864258,7.9140625
					c-0.2675781,0-0.5185547,0.1040039-0.7070312,0.2924805l-2.8295898,2.8286133
					c-0.1884766,0.1884766-0.2919922,0.4394531-0.2919922,0.7070312s0.1035156,0.5185547,0.2919922,0.7070312l0.0341797,0.0341797
					l0.0083008,0.0058594c0.1831055,0.1640625,0.4174805,0.2529297,0.6660156,0.2529297
					c0.2675781,0,0.5185547-0.1035156,0.7070312-0.2919922l2.828125-2.8291016
					c0.1884766-0.1884766,0.2919922-0.4394531,0.2924805-0.7070312C7.0854492,8.6464844,6.9819336,8.3955078,6.793457,8.2070312
					C6.605957,8.0185547,6.3544922,7.9140625,6.0864258,7.9140625L6.0864258,7.9140625z"/>
			</g>
			<g id="x180degrees">
				<path class="Upper1" d="M7.5009766,14.25c-0.4145508,0-0.7514648-0.3369141-0.7514648-0.75L6.75,9.5
					c0-0.4140625,0.3364258-0.7504883,0.75-0.7504883c0.4140625,0,0.7504883,0.3364258,0.7504883,0.7504883l0.0004883,4
					C8.2509766,13.9130859,7.9145508,14.25,7.5009766,14.25L7.5009766,14.25z"/>
				<path class="Lower1" d="M7.5004883,8.9995117c0.2749023,0,0.5,0.2250977,0.5,0.5004883l0.0004883,4
					c0,0.2753906-0.2250977,0.5-0.5,0.5H7.4995117c-0.2749023,0-0.5-0.2246094-0.5-0.5L7,9.5
					c0-0.2753906,0.2250977-0.5004883,0.5-0.5004883H7.5004883 M7.5004883,8.4995117C6.9487305,8.4995117,6.5,8.9482422,6.5,9.5
					l-0.0004883,4c0,0.5517578,0.4487305,1,1,1c0.5527344,0,1.0014648-0.4482422,1.0014648-1l-0.0004883-4
					C8.5004883,8.9482422,8.0517578,8.4995117,7.5004883,8.4995117L7.5004883,8.4995117z"/>
			</g>
			<g id="x135degrees">
				<path class="Upper1" d="M11.7421875,12.4921875c-0.2011719,0-0.3886719-0.0771484-0.5302734-0.21875L8.3833008,9.4443359
					c-0.2924805-0.2919922-0.2924805-0.7680664,0-1.0605469c0.1416016-0.1416016,0.3300781-0.2197266,0.5307617-0.2197266
					c0.2011719,0,0.3886719,0.078125,0.5302734,0.2192383l2.8291016,2.8286133
					c0.1416016,0.1416016,0.21875,0.3291016,0.21875,0.5302734s-0.0771484,0.3886719-0.21875,0.5302734
					S11.9433594,12.4921875,11.7421875,12.4921875L11.7421875,12.4921875z"/>
				<path class="Lower1" d="M8.9140625,8.4140625c0.1279297,0,0.2558594,0.0488281,0.3535156,0.1459961l2.8291016,2.8286133
					c0.1943359,0.1943359,0.1943359,0.5126953,0,0.7070312l-0.0009766,0.0009766
					c-0.0976562,0.0976562-0.2255859,0.1455078-0.3535156,0.1455078s-0.2568359-0.0478516-0.3535156-0.1455078L8.5600586,9.2675781
					c-0.1943359-0.1943359-0.1943359-0.5126953,0-0.7070312l0.0004883-0.0004883
					C8.6577148,8.4628906,8.7856445,8.4140625,8.9140625,8.4140625 M8.9140625,7.9140625
					c-0.2675781,0-0.5185547,0.1040039-0.7070312,0.2924805S7.9145508,8.6464844,7.9145508,8.9135742
					C7.9140625,9.1816406,8.0180664,9.4326172,8.206543,9.6210938l2.8286133,2.8291016
					c0.1884766,0.1884766,0.4394531,0.2919922,0.7070312,0.2919922s0.5185547-0.1035156,0.7070312-0.2919922
					c0.1894531-0.1894531,0.2929688-0.4404297,0.2929688-0.7080078s-0.1035156-0.5185547-0.2919922-0.7070312L9.6210938,8.206543
					C9.4326172,8.0180664,9.1816406,7.9140625,8.9140625,7.9140625L8.9140625,7.9140625z"/>
			</g>
			<g id="x090degrees">
				<path class="Upper1" d="M9.5,8.25c-0.4140625,0-0.7504883-0.3364258-0.7504883-0.75S9.0859375,6.75,9.5,6.75h4
					c0.4130859,0,0.75,0.3364258,0.75,0.75s-0.3369141,0.75-0.75,0.75H9.5z"/>
				<path class="Lower1" d="M13.5,7C13.7753906,7,14,7.2250977,14,7.5S13.7753906,8,13.5,8h-4
					C9.2246094,8,8.9995117,7.7749023,8.9995117,7.5S9.2246094,7,9.5,7H13.5 M13.5,6.5h-4
					c-0.5517578,0-1.0004883,0.4487305-1.0004883,1S8.9482422,8.5,9.5,8.5h4c0.5517578,0,1-0.4487305,1-1S14.0517578,6.5,13.5,6.5
					L13.5,6.5z"/>
			</g>
			<g id="x045degrees">
				<path class="Upper1" d="M8.9140625,6.8349609c-0.2006836,0-0.3891602-0.0776367-0.5302734-0.2182617
					c-0.2919922-0.2929688-0.2915039-0.769043,0.0004883-1.0610352l2.8286133-2.8286133
					c0.1416016-0.1411133,0.3291016-0.21875,0.5302734-0.21875s0.3886719,0.0776367,0.5302734,0.21875
					c0.2919922,0.2924805,0.2919922,0.7680664,0,1.0605469l-2.8291016,2.828125
					C9.3027344,6.7568359,9.1142578,6.8349609,8.9140625,6.8349609L8.9140625,6.8349609z"/>
				<path class="Lower1" d="M11.7431641,2.7583008c0.1279297,0,0.2568359,0.0483398,0.3535156,0.1455078
					c0.1943359,0.1943359,0.1943359,0.5126953,0,0.7070312l-2.8291016,2.828125
					c-0.0976562,0.097168-0.2255859,0.1459961-0.3535156,0.1459961c-0.128418,0-0.2563477-0.0488281-0.3535156-0.1455078
					C8.3666992,6.2451172,8.3666992,5.9267578,8.5610352,5.7324219l2.8286133-2.8286133
					C11.4873047,2.8066406,11.6152344,2.7583008,11.7431641,2.7583008 M11.7431641,2.2578125
					c-0.2675781,0-0.5185547,0.1040039-0.7070312,0.2924805L8.2075195,5.3789062
					C7.8178711,5.7685547,7.8173828,6.4023438,8.206543,6.7924805c0.1894531,0.1889648,0.4399414,0.2924805,0.7070312,0.2924805
					c0.2680664,0,0.519043-0.1040039,0.7075195-0.2924805l2.8291016-2.828125
					c0.1884766-0.1884766,0.2919922-0.4394531,0.2919922-0.7070312s-0.1035156-0.5185547-0.2919922-0.7070312
					S12.0107422,2.2578125,11.7431641,2.2578125L11.7431641,2.2578125z"/>
			</g>
			<g id="x000degrees">
				<path class="Upper1" d="M7.5,6.25c-0.4130859,0-0.7495117-0.3364258-0.7495117-0.75v-4
					c0-0.4135742,0.3364258-0.75,0.7495117-0.75c0.4135742,0,0.75,0.3364258,0.75,0.75v4C8.25,5.9135742,7.9135742,6.25,7.5,6.25
					L7.5,6.25z"/>
				<path class="Lower1" d="M7.5,1C7.7749023,1,8,1.2250977,8,1.5v4C8,5.7749023,7.7749023,6,7.5,6
					C7.2255859,6,7.0004883,5.7749023,7.0004883,5.5v-4C7.0004883,1.2250977,7.2255859,1,7.5,1 M7.5,0.5
					c-0.5512695,0-0.9995117,0.4487305-0.9995117,1v4c0,0.5512695,0.4482422,1,0.9995117,1s1-0.4487305,1-1v-4
					C8.5,0.9487305,8.0512695,0.5,7.5,0.5L7.5,0.5z"/>
			</g>
		</g>
	</g>
</svg>
