<?xml version="1.0" encoding="utf-8"?>
<!-- Generator: Adobe Illustrator 15.1.0, SVG Export Plug-In . SVG Version: 6.00 Build 0)  -->
<!DOCTYPE svg PUBLIC "-//W3C//DTD SVG 1.1//EN" "http://www.w3.org/Graphics/SVG/1.1/DTD/svg11.dtd">
<svg version="1.1" id="Ebene_1" xmlns="http://www.w3.org/2000/svg" xmlns:xlink="http://www.w3.org/1999/xlink" x="0px" y="0px" width="16px" height="16px" viewBox="0 0 16 16" enable-background="new 0 0 16 16" xml:space="preserve">
	<title>Success</title>
	<desc>Success Icon</desc>
	
	<!--
		@author		Alexander Ebert
		@copyright	2001-2012 WoltLab GmbH 
		@license	GNU Lesser General Public License <http://opensource.org/licenses/lgpl-license.php> 
	--> 
	
	<defs>
		<style type="text/css">
			<![CDATA[
				.surface { fill: #666; }
				.shadow { fill: #fff; }
			]]>
		</style>
	</defs>
	
	<g id="IconSuccess">
		<path class="shadow" opacity=".8" d="M8,2C4.41,2,1.5,4.91,1.5,8.5C1.5,12.089,4.41,15,8,15c3.59,0,6.5-2.911,6.5-6.5C14.5,4.91,11.59,2,8,2z
			 M7.186,13.74c-0.018,0.028-0.048,0.046-0.082,0.048H7.099c-0.032,0-0.062-0.015-0.082-0.04l-3.69-4.805
			C3.304,8.912,3.3,8.871,3.317,8.836C3.334,8.801,3.37,8.779,3.409,8.779l1.773,0.004l1.629,2.208l3.92-6.47
			c0.019-0.03,0.052-0.049,0.087-0.049l2.058-0.013c0.001,0,0.001,0,0.001,0c0.037,0,0.071,0.02,0.09,0.053
			c0.018,0.033,0.017,0.073-0.003,0.104L7.186,13.74z"/>
		<path class="surface" d="M8,1C4.41,1,1.5,3.91,1.5,7.5C1.5,11.089,4.41,14,8,14c3.59,0,6.5-2.911,6.5-6.5C14.5,3.91,11.59,1,8,1z
			 M7.186,12.74c-0.018,0.028-0.048,0.046-0.082,0.048H7.099c-0.032,0-0.062-0.015-0.082-0.04l-3.69-4.804
			C3.304,7.913,3.3,7.871,3.317,7.836C3.334,7.801,3.37,7.779,3.409,7.779l1.773,0.004l1.629,2.208l3.92-6.47
			c0.019-0.03,0.052-0.049,0.087-0.049l2.058-0.013c0.001,0,0.001,0,0.001,0c0.037,0,0.071,0.02,0.09,0.053
			c0.018,0.033,0.017,0.073-0.003,0.104L7.186,12.74z"/>
	</g>
</svg>
