<?xml version="1.0" encoding="utf-8"?>
<!-- Generator: Adobe Illustrator 15.1.0, SVG Export Plug-In . SVG Version: 6.00 Build 0)  -->
<!DOCTYPE svg PUBLIC "-//W3C//DTD SVG 1.1//EN" "http://www.w3.org/Graphics/SVG/1.1/DTD/svg11.dtd">
<svg version="1.1" id="Ebene_1" xmlns="http://www.w3.org/2000/svg" xmlns:xlink="http://www.w3.org/1999/xlink" x="0px" y="0px" width="16px" height="16px" viewBox="0 0 16 16" enable-background="new 0 0 16 16" xml:space="preserve">
	<title>Switch</title>
	<desc>Switch Icon</desc>
	
	<!--
		@author		Alexander Ebert
		@copyright	2001-2012 WoltLab GmbH 
		@license	GNU Lesser General Public License <http://opensource.org/licenses/lgpl-license.php> 
	--> 
	
	<defs>
		<style type="text/css">
			<![CDATA[
				.surface { fill: #666; }
				.shadow { fill: #fff; }
			]]>
		</style>
	</defs>
	
	<g id="IconSwitch">
		<g>
			<polygon id="ArrowUp2" class="shadow" opacity=".8" points="14.5,9.584 8.908,4.001 11.512,4.001 9.508,2 5.5,2 5.5,6.002 7.504,8.002 
				7.504,5.429 13.083,11 		"/>
			<polygon id="ArrowDown2" class="shadow" opacity=".8" points="8.503,9 8.503,11.6 2.913,6 1.5,7.414 7.077,13 4.509,13 6.506,15 10.5,15 
				10.5,11 		"/>
		</g>
		<g>
			<polygon id="ArrowUp1" class="surface" points="14.5,8.584 8.908,3.001 11.512,3.001 9.508,1 5.5,1 5.5,5.002 7.504,7.002 
				7.504,4.429 13.083,10 		"/>
			<polygon id="ArrowDown1" class="surface" points="8.503,8 8.503,10.6 2.913,5 1.5,6.414 7.077,12 4.509,12 6.506,14 10.5,14 
				10.5,10 		"/>
		</g>
	</g>
</svg>
