<?xml version="1.0" encoding="utf-8"?>
<!--<?xml-stylesheet type="text/css" href="svg.css"?>-->
<!DOCTYPE svg PUBLIC "-//W3C//DTD SVG 1.1//EN" "http://www.w3.org/Graphics/SVG/1.1/DTD/svg11.dtd">
<svg version="1.1" xmlns="http://www.w3.org/2000/svg" xmlns:xlink="http://www.w3.org/1999/xlink" x="0px" y="0px" width="16px" height="16px" viewBox="0 0 16 16" xml:space="preserve">
	
	<title>Switch</title>
	<desc>Switch Icon (tilt)</desc>
	
	<!--
		@author		Harald Szekely 
		@copyright	2011 WoltLab GmbH 
		@license	GNU Lesser General Public License <http://opensource.org/licenses/lgpl-license.php> 
	--> 
	
	<defs>
		<style type="text/css">
			<![CDATA[
				.Upper1 {fill: #666;}
				.Lower1 {fill: #fff;}
			]]>
		</style>
	</defs>
	
	<g id="IconSwitch">
		<g class="Lower1">
			<polygon id="ArrowUp2" style="fill-rule: evenodd; clip-rule: evenodd;" points="14,9.5839844 8.4082031,4.0009766 
				11.0117188,4.0009766 9.0078125,2 5,2 5,6.0019531 7.0039062,8.0024414 7.0039062,5.4287109 12.5830078,11"/>
			<polygon id="ArrowDown2" style="fill-rule: evenodd; clip-rule: evenodd;" points="8.0029297,8.9995117 
				8.0029297,11.5996094 2.4125977,6 1,7.4140625 6.5771484,13 4.0092773,13 6.0058594,15 10,15 10,11"/>
		</g>
		<g class="Upper1">
			<polygon id="ArrowUp1" style="fill-rule: evenodd; clip-rule: evenodd;" points="14,8.5844727 8.4082031,3.0009766 
				11.0117188,3.0009766 9.0078125,1 5,1 5,5.0019531 7.0039062,7.0024414 7.0039062,4.4287109 12.5830078,10"/>
			<polygon id="ArrowDown1" style="fill-rule: evenodd; clip-rule: evenodd;" points="8.0029297,7.9995117 8.0029297,10.5996094 
				2.4125977,5 1,6.4140625 6.5771484,12 4.0092773,12 6.0058594,14 10,14 10,10"/>
		</g>
	</g>
</svg>
