<?xml version="1.0" encoding="utf-8"?>
<!--<?xml-stylesheet type="text/css" href="svg.css"?>-->
<!DOCTYPE svg PUBLIC "-//W3C//DTD SVG 1.1//EN" "http://www.w3.org/Graphics/SVG/1.1/DTD/svg11.dtd">
<svg version="1.1" xmlns="http://www.w3.org/2000/svg" xmlns:xlink="http://www.w3.org/1999/xlink" x="0px" y="0px" width="16px" height="16px" viewBox="0 0 16 16" xml:space="preserve">
	
	<title>System Notification: Error</title> 
	<desc>Error Icon Used For System Notifications</desc> 
	
	<!--
		@author		Harald Szekely 
		@copyright	2011 WoltLab GmbH 
		@license	GNU Lesser General Public License <http://opensource.org/licenses/lgpl-license.php> 
	--> 
	
	<defs>
		
	</defs>
	
	<g id="IconSystemError">
		<path id="Lower" style="fill-rule: evenodd; clip-rule: evenodd; fill: #fff;" d="M10.1914062,1.9995117H4.8076172L1,5.8071289
			v5.3842773L4.8076172,15h5.3837891L14,11.1914062V5.8071289L10.1914062,1.9995117z M11.8974609,7.6943359
			c0.0458984,0.1064453-0.3808594,0.9941406-0.3808594,0.9941406c-0.125,0.1733398-0.4726562,1.2333984-0.4726562,1.2333984
			c-0.2128906,1.0664062-1.1972656,2.3632812-1.1972656,2.3632812c-0.2558594,0.484375-1.2773438,0.6621094-1.2773438,0.6621094
			l-0.7124023-0.0019531c-1.0195312,0.2265625-1.6601562-0.3183594-1.6601562-0.3183594
			c-0.480957-0.4296875-0.9008789-1.15625-0.9008789-1.15625c0.0234375-0.1152344-0.6269531-1.7421875-0.6269531-1.7421875
			C4.6474609,9.6054688,3.9570312,8.6420898,3.9570312,8.6420898C3.8701172,8.5068359,3.4023438,7.7841797,3.4023438,7.7841797
			C2.6064453,6.6630859,3.1796875,6.5166016,3.1796875,6.5166016c0.3251953-0.1557617,0.6943359,0.6074219,0.6943359,0.6074219
			c0.0673828,0.2299805,0.3046875,0.5136719,0.3046875,0.5136719c0.1015625,0.1767578,0.53125,0.6342773,0.53125,0.6342773
			c0.1552734,0.1293945,0.3759766,0.3891602,0.3759766,0.3891602c0.2119141,0.4160156,0.5107422,0.0585938,0.5107422,0.0585938
			c0.0322266-0.0527344-0.40625-1.2641602-0.40625-1.2641602c-0.1298828-0.144043-0.2666016-1.277832-0.2666016-1.277832
			C4.8427734,6.0244141,4.7529297,5.453125,4.7529297,5.453125C4.6074219,4.7128906,5.1337891,4.7954102,5.1337891,4.7954102
			c0.4550781-0.0117188,0.4931641,0.925293,0.4931641,0.925293c0.0585938,0.168457,0.0908203,0.4521484,0.0908203,0.4521484
			c0.0595703,0.0507812,0.3041992,0.7495117,0.3041992,0.7495117C6.203125,7.1557617,6.3979492,7.7651367,6.3979492,7.7651367
			c0.152832,0.484375,0.2612305,0.1689453,0.2612305,0.1689453C6.590332,7.8227539,6.543457,6.5874023,6.543457,6.5874023
			c-0.0478516-0.1079102-0.1308594-0.934082-0.1308594-0.934082C6.4316406,5.5581055,6.284668,4.8178711,6.284668,4.8178711
			c-0.2758789-0.546875,0.0932617-0.8120117,0.0932617-0.8120117C6.9594727,3.9389648,7.0561523,4.472168,7.0561523,4.472168
			c0.0615234,0.0307617,0.2368164,0.8549805,0.2368164,0.8549805C7.4204102,5.3720703,7.581543,6.4897461,7.581543,6.4897461
			c0.0844727,0.0366211,0.1450195,0.9770508,0.1450195,0.9770508c0.0395508,0.4824219,0.1401367,0.3242188,0.1401367,0.3242188
			C8.0522461,7.7670898,8.0410156,7.487793,8.0410156,7.487793C8.0229492,7.3461914,8.0986328,6.6289062,8.0986328,6.6289062
			c-0.0322266-0.184082,0.0820312-0.7553711,0.0820312-0.7553711c0.0532227-0.1479492-0.0126953-0.496582-0.0126953-0.496582
			L8.097168,5.0473633C7.9711914,4.0932617,8.6020508,4.3334961,8.6020508,4.3334961
			C8.9370117,4.3583984,9.03125,5.3642578,9.03125,5.3642578C9.0078125,5.5966797,9.0634766,5.7666016,9.0634766,5.7666016
			C9.1181641,5.8359375,9.1367188,6.769043,9.1367188,6.769043c0.0273438,0.0839844,0.0029297,0.7709961,0.0029297,0.7709961
			C9.1015625,7.730957,9.1474609,7.956543,9.1474609,7.956543c0.0615234,0.0327148,0.1289062,0.7172852,0.1289062,0.7172852
			c0.0732422,0.4296875,0.6347656,0.6757812,0.6347656,0.6757812c0.1494141,0.0488281,0.4931641-0.8745117,0.4931641-0.8745117
			c0.0585938-0.0688477,0.15625-0.3261719,0.15625-0.3261719c0.328125-1.0844727,1.0830078-0.9985352,1.0830078-0.9985352
			C12.2001953,7.1977539,11.8974609,7.6943359,11.8974609,7.6943359z"/>
		<path id="Upper" style="fill-rule: evenodd; clip-rule: evenodd; fill: #c00;" d="M10.1914062,1H4.8076172L1,4.8076172v5.3847656
			L4.8076172,14h5.3837891L14,10.1923828V4.8076172L10.1914062,1z M11.8974609,6.6948242
			c0.0458984,0.1064453-0.3808594,0.9941406-0.3808594,0.9941406c-0.125,0.1733398-0.4726562,1.2338867-0.4726562,1.2338867
			c-0.2128906,1.0654297-1.1972656,2.3623047-1.1972656,2.3623047c-0.2558594,0.484375-1.2773438,0.6621094-1.2773438,0.6621094
			l-0.7124023-0.0019531c-1.0195312,0.2265625-1.6601562-0.3183594-1.6601562-0.3183594
			c-0.480957-0.4296875-0.9008789-1.15625-0.9008789-1.15625c0.0234375-0.1152344-0.6269531-1.7421875-0.6269531-1.7421875
			C4.6474609,8.605957,3.9570312,7.6425781,3.9570312,7.6425781C3.8701172,7.5073242,3.4023438,6.784668,3.4023438,6.784668
			C2.6064453,5.6635742,3.1796875,5.5170898,3.1796875,5.5170898c0.3251953-0.1557617,0.6943359,0.6074219,0.6943359,0.6074219
			c0.0673828,0.2299805,0.3046875,0.5136719,0.3046875,0.5136719c0.1015625,0.1767578,0.53125,0.6342773,0.53125,0.6342773
			c0.1552734,0.1293945,0.3759766,0.3891602,0.3759766,0.3891602c0.2119141,0.4160156,0.5107422,0.0585938,0.5107422,0.0585938
			c0.0322266-0.0527344-0.40625-1.2641602-0.40625-1.2641602c-0.1298828-0.144043-0.2666016-1.277832-0.2666016-1.277832
			C4.8427734,5.0249023,4.7529297,4.4536133,4.7529297,4.4536133C4.6074219,3.7133789,5.1337891,3.7958984,5.1337891,3.7958984
			c0.4550781-0.0117188,0.4931641,0.925293,0.4931641,0.925293c0.0585938,0.168457,0.0908203,0.4521484,0.0908203,0.4521484
			c0.0595703,0.0507812,0.3041992,0.7495117,0.3041992,0.7495117C6.203125,6.15625,6.3979492,6.765625,6.3979492,6.765625
			C6.5507812,7.25,6.6591797,6.9345703,6.6591797,6.9345703C6.590332,6.8232422,6.543457,5.5878906,6.543457,5.5878906
			c-0.0478516-0.1079102-0.1308594-0.934082-0.1308594-0.934082C6.4316406,4.5585938,6.284668,3.8183594,6.284668,3.8183594
			c-0.2758789-0.546875,0.0932617-0.8120117,0.0932617-0.8120117c0.581543-0.0668945,0.6782227,0.4663086,0.6782227,0.4663086
			C7.1176758,3.503418,7.2929688,4.3276367,7.2929688,4.3276367C7.4204102,4.3725586,7.581543,5.4902344,7.581543,5.4902344
			c0.0844727,0.0366211,0.1450195,0.9770508,0.1450195,0.9770508C7.7661133,6.949707,7.8666992,6.7915039,7.8666992,6.7915039
			c0.1855469-0.0239258,0.1743164-0.3032227,0.1743164-0.3032227C8.0229492,6.3466797,8.0986328,5.6293945,8.0986328,5.6293945
			c-0.0322266-0.184082,0.0820312-0.7553711,0.0820312-0.7553711c0.0532227-0.1479492-0.0126953-0.496582-0.0126953-0.496582
			L8.097168,4.0478516C7.9711914,3.09375,8.6020508,3.3339844,8.6020508,3.3339844
			C8.9370117,3.3588867,9.03125,4.3647461,9.03125,4.3647461C9.0078125,4.597168,9.0634766,4.7670898,9.0634766,4.7670898
			c0.0546875,0.0693359,0.0732422,1.0024414,0.0732422,1.0024414c0.0273438,0.0839844,0.0029297,0.7709961,0.0029297,0.7709961
			c-0.0380859,0.190918,0.0078125,0.4165039,0.0078125,0.4165039c0.0615234,0.0327148,0.1289062,0.7172852,0.1289062,0.7172852
			c0.0732422,0.4296875,0.6347656,0.6757812,0.6347656,0.6757812c0.1494141,0.0483398,0.4931641-0.8745117,0.4931641-0.8745117
			c0.0585938-0.0688477,0.15625-0.3261719,0.15625-0.3261719c0.328125-1.0844727,1.0830078-0.9985352,1.0830078-0.9985352
			C12.2001953,6.1982422,11.8974609,6.6948242,11.8974609,6.6948242z"/>
	</g>
</svg>
