<?xml version="1.0" encoding="utf-8"?>
<!--<?xml-stylesheet type="text/css" href="svg.css"?>-->
<!DOCTYPE svg PUBLIC "-//W3C//DTD SVG 1.1//EN" "http://www.w3.org/Graphics/SVG/1.1/DTD/svg11.dtd">
<svg version="1.1" xmlns="http://www.w3.org/2000/svg" xmlns:xlink="http://www.w3.org/1999/xlink" x="0px" y="0px" width="16px" height="16px" viewBox="0 0 16 16" xml:space="preserve">
	
	<title>System Notification: Success</title>
	<desc>Success Icon Used For System Notifications</desc>
	
	<!--
		@author		Harald Szekely 
		@copyright	2011 WoltLab GmbH 
		@license	GNU Lesser General Public License <http://opensource.org/licenses/lgpl-license.php> 
	--> 
	
	<defs>
		<style type="text/css">
			<![CDATA[
				.UpperSuccess {fill: #090;}
				.Lower {fill: #fff;}
			]]>
		</style>
	</defs>
	
	<g id="IconSystemSuccess">
		<path class="Lower" style="fill-rule: evenodd; clip-rule: evenodd;" d="M7.5,2C3.909668,2,1,4.909668,1,8.5
			C1,12.0888672,3.909668,15,7.5,15c3.5898438,0,6.5-2.9111328,6.5-6.5C14,4.909668,11.0898438,2,7.5,2z M6.6855469,13.7402344
			c-0.0175781,0.0283203-0.0483398,0.0458984-0.0820312,0.0478516H6.5991211c-0.0317383,0-0.0620117-0.0146484-0.081543-0.0400391
			L2.8276367,8.9438477c-0.0234375-0.03125-0.027832-0.0727539-0.0102539-0.1079102
			c0.0170898-0.0351562,0.0527344-0.0571289,0.0917969-0.0571289l1.7734375,0.0039062l1.6293945,2.2084961l3.9204102-6.4697266
			c0.0185547-0.0302734,0.0517578-0.0493164,0.0869141-0.0493164l2.0576172-0.0126953c0.0009766,0,0.0009766,0,0.0009766,0
			c0.0371094,0,0.0712891,0.0200195,0.0898438,0.0527344c0.0175781,0.0327148,0.0166016,0.0727539-0.0029297,0.1044922
			L6.6855469,13.7402344z"/>
		<path class="UpperSuccess" style="fill-rule: evenodd; clip-rule: evenodd;" d="M7.5,1C3.909668,1,1,3.909668,1,7.5
			C1,11.0888672,3.909668,14,7.5,14c3.5898438,0,6.5-2.9111328,6.5-6.5C14,3.909668,11.0898438,1,7.5,1z M6.6855469,12.7402344
			c-0.0175781,0.0283203-0.0483398,0.0458984-0.0820312,0.0478516H6.5991211c-0.0317383,0-0.0620117-0.0146484-0.081543-0.0400391
			L2.8276367,7.9438477c-0.0234375-0.03125-0.027832-0.0727539-0.0102539-0.1079102
			c0.0170898-0.0351562,0.0527344-0.0571289,0.0917969-0.0571289l1.7734375,0.0039062l1.6293945,2.2084961l3.9204102-6.4697266
			c0.0185547-0.0302734,0.0517578-0.0493164,0.0869141-0.0493164l2.0576172-0.0126953c0.0009766,0,0.0009766,0,0.0009766,0
			c0.0371094,0,0.0712891,0.0200195,0.0898438,0.0527344c0.0175781,0.0327148,0.0166016,0.0727539-0.0029297,0.1044922
			L6.6855469,12.7402344z"/>
	</g>
</svg>
