<?xml version="1.0" encoding="utf-8"?>
<!-- Generator: Adobe Illustrator 15.1.0, SVG Export Plug-In . SVG Version: 6.00 Build 0)  -->
<!DOCTYPE svg PUBLIC "-//W3C//DTD SVG 1.1//EN" "http://www.w3.org/Graphics/SVG/1.1/DTD/svg11.dtd">
<svg version="1.1" id="Ebene_1" xmlns="http://www.w3.org/2000/svg" xmlns:xlink="http://www.w3.org/1999/xlink" x="0px" y="0px" width="16px" height="16px" viewBox="0 0 16 16" enable-background="new 0 0 16 16" xml:space="preserve">
	<title>Tag</title>
	<desc>Tag Icon</desc>
	
	<!--
		@author		Harald Szekely
		@copyright	2001-2012 WoltLab GmbH 
		@license	GNU Lesser General Public License <http://opensource.org/licenses/lgpl-license.php> 
	--> 
	
	<defs>
		<style type="text/css">
			<![CDATA[
				.surface { fill: #fff; }
				.shadow { fill: #000; }
			]]>
		</style>
	</defs>
	
	<g id="IconTag">
		<path class="shadow" transform="translate(0 -1)" opacity=".8" d="M8.585,2.915c0.389-0.389,1.157-0.707,1.707-0.707h3c0.578,0,1,0.5,1,1v3c0,0.55-0.318,1.318-0.707,1.707
			l-6.586,6.586c-0.389,0.389-1.025,0.389-1.414,0l-3.586-3.586c-0.389-0.389-0.389-1.025,0-1.414L8.585,2.915z M11.792,6.208
			c0.829,0,1.5-0.671,1.5-1.5s-0.671-1.5-1.5-1.5c-0.828,0-1.5,0.671-1.5,1.5S10.964,6.208,11.792,6.208z"/>
		<path class="surface" transform="translate(0 1)" d="M8.585,1.915c0.389-0.389,1.157-0.707,1.707-0.707h3c0.578,0,1,0.5,1,1v3c0,0.55-0.318,1.318-0.707,1.707
			l-6.586,6.586c-0.389,0.389-1.025,0.389-1.414,0L1.999,9.915c-0.389-0.389-0.389-1.025,0-1.414L8.585,1.915z M11.792,5.208
			c0.829,0,1.5-0.671,1.5-1.5s-0.671-1.5-1.5-1.5c-0.828,0-1.5,0.671-1.5,1.5S10.964,5.208,11.792,5.208z"/>
	</g>
</svg>
