<?xml version="1.0" encoding="utf-8"?>
<!--<?xml-stylesheet type="text/css" href="svg.css"?>-->
<!DOCTYPE svg PUBLIC "-//W3C//DTD SVG 1.1//EN" "http://www.w3.org/Graphics/SVG/1.1/DTD/svg11.dtd">
<svg version="1.1" xmlns="http://www.w3.org/2000/svg" xmlns:xlink="http://www.w3.org/1999/xlink" x="0px" y="0px" width="16px" height="16px" viewBox="0 0 16 16" xml:space="preserve">
	
	<title>Telephone</title>
	<desc>Telephone Icon</desc>
	
	<!--
		@author		Harald Szekely 
		@copyright	2011 WoltLab GmbH 
		@license	GNU Lesser General Public License <http://opensource.org/licenses/lgpl-license.php> 
	--> 
	
	<defs>
		<style type="text/css">
			<![CDATA[
				.Upper1 {fill: #369;}
				.Lower1 {fill: #fff;}
			]]>
		</style>
	</defs>
	
	<g id="IconTelephone">
		<path class="Lower1" d="M12.8730469,12.3408203l-2.4013672-1.9921875
			c-0.1240234-0.1005859-0.3632812-0.1767578-0.515625-0.0029297l-0.5771484,0.5878906L9.375,10.9316406
			c-0.21875,0.2050781-0.2939453,0.2675781-0.5576172,0.4160156c-0.284668,0.1621094-0.512207,0.0537109-0.831543-0.1191406
			c-0.2915039-0.2265625-1.152832-0.9189453-2.0625-1.8457031C5.2578125,8.5253906,4.7495117,7.7148438,4.5161133,7.3261719
			C4.5,7.2832031,4.4921875,7.2573242,4.4921875,7.2573242c-0.1381836-0.3486328-0.2241211-0.59375-0.034668-0.8681641
			c0.1743164-0.2524414,0.4726562-0.5195312,0.4726562-0.5195312l0.644043-0.5322266
			C5.7563477,5.199707,5.7080078,4.949707,5.6220703,4.8125L3.9296875,2.168457
			c-0.109375-0.1362305-0.3398438-0.2089844-0.5395508-0.144043L2.6948242,2.4990234L2.6904297,2.4926758
			C2.421875,2.6923828,2.0043945,3.1435547,1.6611328,3.6430664C1.3427734,4.1181641,1.0742188,4.6450195,1,5.019043
			c0.3886719,1.4296875,1.8847656,4.4135742,3.2143555,5.934082C5.980957,12.9746094,8.3847656,14.4375,9.7929688,15
			c0.3720703-0.0341797,0.9130859-0.2558594,1.4091797-0.5283203c0.5146484-0.2929688,0.9882812-0.6601562,1.2148438-0.9121094
			l0.0029297,0.0019531l0.5371094-0.6591797C13.0419922,12.7080078,12.9941406,12.4648438,12.8730469,12.3408203z"/>
		<path class="Upper1" d="M12.8730469,11.3408203l-2.4013672-1.9921875
			c-0.1240234-0.1005859-0.3632812-0.1767578-0.515625-0.0029297L9.3789062,9.9335938L9.375,9.9316406
			c-0.21875,0.2050781-0.2939453,0.2675781-0.5576172,0.4160156c-0.284668,0.1621094-0.512207,0.0537109-0.831543-0.1191406
			c-0.2915039-0.2265625-1.152832-0.9189453-2.0625-1.8457031C5.2578125,7.5249023,4.7495117,6.7148438,4.5161133,6.3261719
			C4.5,6.2832031,4.4921875,6.2573242,4.4921875,6.2573242c-0.1381836-0.3486328-0.2241211-0.59375-0.034668-0.8681641
			c0.1743164-0.2524414,0.4726562-0.5195312,0.4726562-0.5195312l0.644043-0.5322266
			C5.7563477,4.199707,5.7080078,3.949707,5.6220703,3.8125L3.9296875,1.168457
			c-0.109375-0.1362305-0.3398438-0.2089844-0.5395508-0.144043L2.6948242,1.4990234L2.6904297,1.4926758
			C2.421875,1.6923828,2.0043945,2.1435547,1.6611328,2.6430664C1.3427734,3.1181641,1.0742188,3.6450195,1,4.019043
			c0.3886719,1.4296875,1.8847656,4.4135742,3.2143555,5.934082C5.980957,11.9746094,8.3847656,13.4375,9.7929688,14
			c0.3720703-0.0341797,0.9130859-0.2558594,1.4091797-0.5283203c0.5146484-0.2929688,0.9882812-0.6601562,1.2148438-0.9121094
			l0.0029297,0.0019531l0.5371094-0.6591797C13.0419922,11.7080078,12.9941406,11.4648438,12.8730469,11.3408203z"/>
	</g>
</svg>
