<?xml version="1.0" encoding="utf-8"?>
<!-- Generator: Adobe Illustrator 15.1.0, SVG Export Plug-In . SVG Version: 6.00 Build 0)  -->
<!DOCTYPE svg PUBLIC "-//W3C//DTD SVG 1.1//EN" "http://www.w3.org/Graphics/SVG/1.1/DTD/svg11.dtd">
<svg version="1.1" id="Ebene_1" xmlns="http://www.w3.org/2000/svg" xmlns:xlink="http://www.w3.org/1999/xlink" x="0px" y="0px" width="16px" height="16px" viewBox="0 0 16 16" enable-background="new 0 0 16 16" xml:space="preserve">
	<title>Telephone</title>
	<desc>Telephone Icon</desc>
	
	<!--
		@author		Harald Szekely
		@copyright	2001-2012 WoltLab GmbH 
		@license	GNU Lesser General Public License <http://opensource.org/licenses/lgpl-license.php> 
	--> 
	
	<defs>
		<style type="text/css">
			<![CDATA[
				.surface { fill: #666; }
				.shadow { fill: #fff; }
			]]>
		</style>
	</defs>
	
	<g id="IconTelephone">
		<path class="shadow" d="M13.873,12.341l-2.401-1.992c-0.124-0.101-0.363-0.177-0.516-0.003l-0.577,0.588l-0.004-0.002
			c-0.219,0.205-0.294,0.268-0.558,0.416c-0.284,0.162-0.513,0.054-0.831-0.119c-0.292-0.227-1.153-0.919-2.063-1.846
			C6.258,8.525,5.75,7.715,5.516,7.326C5.5,7.283,5.492,7.257,5.492,7.257C5.354,6.909,5.268,6.664,5.458,6.389
			C5.632,6.137,5.93,5.87,5.93,5.87l0.644-0.532C6.756,5.2,6.708,4.95,6.622,4.813L4.93,2.168C4.82,2.032,4.59,1.959,4.39,2.024
			L3.695,2.499L3.69,2.493c-0.269,0.2-0.686,0.651-1.029,1.15C2.343,4.118,2.074,4.645,2,5.019c0.389,1.43,1.885,4.414,3.214,5.934
			c1.767,2.021,4.17,3.484,5.579,4.047c0.372-0.034,0.913-0.256,1.409-0.528c0.515-0.293,0.988-0.66,1.215-0.912l0.003,0.002
			l0.537-0.659C14.042,12.708,13.994,12.465,13.873,12.341z"/>
		<path class="surface" d="M13.873,11.341l-2.401-1.992c-0.124-0.101-0.363-0.177-0.516-0.003l-0.577,0.588l-0.004-0.002
			c-0.219,0.205-0.294,0.268-0.558,0.416c-0.284,0.162-0.513,0.054-0.831-0.119C8.694,10.002,7.833,9.31,6.923,8.383
			C6.258,7.525,5.75,6.715,5.516,6.326C5.5,6.283,5.492,6.257,5.492,6.257C5.354,5.909,5.268,5.664,5.458,5.389
			C5.632,5.137,5.93,4.87,5.93,4.87l0.644-0.532C6.756,4.2,6.708,3.95,6.622,3.813L4.93,1.168C4.82,1.032,4.59,0.959,4.39,1.024
			L3.695,1.499L3.69,1.493c-0.269,0.2-0.686,0.651-1.029,1.15C2.343,3.118,2.074,3.645,2,4.019c0.389,1.43,1.885,4.414,3.214,5.934
			c1.767,2.021,4.17,3.484,5.579,4.047c0.372-0.034,0.913-0.256,1.409-0.528c0.515-0.293,0.988-0.66,1.215-0.912l0.003,0.002
			l0.537-0.659C14.042,11.708,13.994,11.465,13.873,11.341z"/>
	</g>
</svg>
