<?xml version="1.0" encoding="utf-8"?>
<!--<?xml-stylesheet type="text/css" href="svg.css"?>-->
<!DOCTYPE svg PUBLIC "-//W3C//DTD SVG 1.1//EN" "http://www.w3.org/Graphics/SVG/1.1/DTD/svg11.dtd">
<svg version="1.1" xmlns="http://www.w3.org/2000/svg" xmlns:xlink="http://www.w3.org/1999/xlink" x="0px" y="0px" width="16px" height="16px" viewBox="0 0 16 16" xml:space="preserve">
	
	<title>Thumbs Up</title> 
	<desc>Thumbs Up Icon</desc> 
	
	<!--
		@author		Alexander Ebert 
		@copyright	2001-2012 WoltLab GmbH 
		@license	GNU Lesser General Public License <http://opensource.org/licenses/lgpl-license.php> 
	--> 
	
	<defs>
		<style type="text/css">
			<![CDATA[
				.surface {fill: #666;}
				.shadow {fill: #fff;}
			]]>
		</style>
	</defs>
	
	<g id="IconLike">
		<path class="shadow" opacity=".8" d="M1,14.2353516V9.1591797c0,0,3.5332031,0,3.5327148,0
			C4.8623047,9.0732422,5.4375,8.8774414,5.6669922,8.5727539c0.4174805-0.9418945,0.8701172-1.8125,1.3588867-2.6118164
			C7.3120117,5.581543,7.6401367,5.2587891,8.0083008,4.9926758C8.456543,4.4199219,8.7900391,3.5249023,8.7900391,3.1435547
			V2.3803711c0-0.159668,0.0742188-0.2543945,0.1728516-0.3261719c0.1259766-0.0898438,0.4238281-0.0634766,0.6132812,0.046875
			c0.3291016,0.1928711,0.5771484,0.5380859,0.7167969,0.9541016c0.1152344,0.5092773,0.1660156,1.0947266,0,1.7285156
			c-0.1738281,0.6635742-0.6220703,1.0874023-0.8378906,1.7900391C9.3095703,7.043457,9.4560547,7.2275391,9.9746094,7.2524414
			c0.8447266,0.0488281,2.5888672,0.0439453,3.6523438-0.003418C14.2177734,7.2226562,15.0185547,7.6113281,15,8.2470703
			c-0.0146484,0.4887695-0.3515625,0.9765625-0.5205078,1.0488281c-0.0712891,0.0292969-0.1083984,0.0976562-0.0722656,0.1542969
			c0,0,0.4873047,0.3623047,0.4189453,0.9238281c-0.0771484,0.6328125-0.5917969,0.9394531-0.5917969,0.9394531
			c-0.0439453,0.0273438-0.0361328,0.1503906,0,0.1757812c0,0,0.3798828,0.2011719,0.3027344,0.71875
			c-0.0869141,0.5820312-0.6416016,0.8359375-0.7089844,0.8515625c-0.0683594,0.015625-0.1015625,0.1503906-0.0390625,0.1796875
			c0.4111328,0.1972656-0.1269531,1.4882812-1.3769531,1.6425781c-1.2714844,0.1582031-3.5263672,0.15625-4.7211914,0
			c-0.5932617,0-1.0620117-0.6464844-3.1582031-0.6464844H1z"/>
		<path class="surface" d="M1,13.2363281V8.1601562h3.5327148
			C4.8623047,8.0732422,5.4375,7.8774414,5.6669922,7.5727539c0.4174805-0.9418945,0.8701172-1.8125,1.3588867-2.6118164
			C7.3120117,4.581543,7.6401367,4.2587891,8.0083008,3.9926758C8.456543,3.4199219,8.7900391,2.5249023,8.7900391,2.1435547
			V1.3803711c0-0.159668,0.0742188-0.2543945,0.1728516-0.3261719c0.1259766-0.0898438,0.4238281-0.0634766,0.6132812,0.046875
			c0.3291016,0.1928711,0.5771484,0.5380859,0.7167969,0.9541016c0.1152344,0.5092773,0.1660156,1.0947266,0,1.7285156
			c-0.1738281,0.6635742-0.6220703,1.0874023-0.8378906,1.7900391C9.3095703,6.043457,9.4560547,6.2275391,9.9746094,6.2524414
			c0.8447266,0.0488281,2.5888672,0.0439453,3.6523438-0.003418C14.2177734,6.2226562,15.0185547,6.6113281,15,7.2470703
			c-0.0146484,0.4887695-0.3515625,0.9775391-0.5205078,1.0493164c-0.0712891,0.0297852-0.1083984,0.0976562-0.0722656,0.1538086
			c0,0,0.4873047,0.362793,0.4189453,0.9248047c-0.0771484,0.6318359-0.5917969,0.9384766-0.5917969,0.9384766
			c-0.0439453,0.0283203-0.0361328,0.1513672,0,0.1767578c0,0,0.3798828,0.2001953,0.3027344,0.71875
			c-0.0869141,0.5820312-0.6416016,0.8349609-0.7089844,0.8505859c-0.0683594,0.0166016-0.1015625,0.1503906-0.0390625,0.1796875
			c0.4111328,0.1982422-0.1269531,1.4882812-1.3769531,1.6425781c-1.2714844,0.1582031-3.5263672,0.1572266-4.7211914,0
			c-0.5932617,0-1.0620117-0.6455078-3.1582031-0.6455078H1z"/>
	</g>
</svg>
