<?xml version="1.0" encoding="utf-8"?>
<!--<?xml-stylesheet type="text/css" href="svg.css"?>-->
<!DOCTYPE svg PUBLIC "-//W3C//DTD SVG 1.1//EN" "http://www.w3.org/Graphics/SVG/1.1/DTD/svg11.dtd">
<svg version="1.1" xmlns="http://www.w3.org/2000/svg" xmlns:xlink="http://www.w3.org/1999/xlink" x="0px" y="0px" width="16px" height="16px" viewBox="0 0 16 16" xml:space="preserve">
	
	<title>Thumbs Down Red</title> 
	<desc>Thumbs Down Red Icon</desc> 
	
	<!--
		@author		Alexander Ebert 
		@copyright	2001-2012 WoltLab GmbH 
		@license	GNU Lesser General Public License <http://opensource.org/licenses/lgpl-license.php> 
	--> 
	
	<defs>
		<style type="text/css">
			<![CDATA[
				.Upper {fill: #900;}
				.Lower {fill: #fff;}
			]]>
		</style>
	</defs>
	
	<g id="IconDislike">
		<path class="Lower" d="M15,2.7641602V7.840332c0,0-3.5332031,0-3.5322266,0
			C11.1376953,7.9262695,10.5625,8.1225586,10.3330078,8.4272461c-0.4169922,0.9418945-0.8701172,1.8129883-1.3583984,2.6118164
			c-0.2871094,0.3789062-0.6152344,0.7011719-0.9824219,0.96875c-0.4492188,0.5722656-0.7822266,1.4667969-0.7822266,1.8476562
			v0.7636719c0,0.1601562-0.0742188,0.2539062-0.1728516,0.3261719c-0.1254883,0.0898438-0.4233398,0.0644531-0.612793-0.046875
			c-0.3291016-0.1933594-0.5771484-0.5371094-0.7167969-0.953125c-0.1152344-0.5097656-0.1660156-1.0957031,0-1.7285156
			c0.1738281-0.6640625,0.6220703-1.0878906,0.8378906-1.7910156c0.1455078-0.46875-0.0009766-0.6533203-0.5195312-0.6777344
			C5.1811523,9.6992188,3.4370117,9.703125,2.3735352,9.7509766C1.7827148,9.7773438,0.9819336,9.3886719,1.0004883,8.7529297
			c0.0146484-0.4887695,0.3515625-0.9770508,0.5205078-1.0493164C1.5922852,7.6743164,1.6293945,7.605957,1.5932617,7.5493164
			c0,0-0.4873047-0.3623047-0.4189453-0.9238281c0.0771484-0.6328125,0.5917969-0.9394531,0.5917969-0.9394531
			c0.0439453-0.0273438,0.0361328-0.1503906,0-0.1757812c0,0-0.3798828-0.2011719-0.3027344-0.71875
			C1.550293,4.2094727,2.1049805,3.9555664,2.1723633,3.9399414c0.0683594-0.015625,0.1015625-0.1503906,0.0390625-0.1796875
			C1.800293,3.5629883,2.3383789,2.2719727,3.5883789,2.1176758c1.2714844-0.1582031,3.5258789-0.15625,4.7202148,0
			c0.59375,0,1.0625,0.6464844,3.1591797,0.6464844H15z"/>
		<path class="Upper" d="M15,1.7641602V6.840332h-3.5322266
			C11.1376953,6.9272461,10.5625,7.1230469,10.3330078,7.4277344c-0.4169922,0.9418945-0.8701172,1.8125-1.3583984,2.6113281
			c-0.2871094,0.3789062-0.6152344,0.703125-0.9824219,0.96875c-0.4492188,0.5722656-0.7822266,1.4667969-0.7822266,1.8496094
			v0.7617188c0,0.1601562-0.0742188,0.2558594-0.1728516,0.3261719c-0.1254883,0.0898438-0.4233398,0.0644531-0.612793-0.046875
			c-0.3291016-0.1914062-0.5771484-0.5371094-0.7167969-0.953125c-0.1152344-0.5097656-0.1660156-1.0957031,0-1.7285156
			c0.1738281-0.6640625,0.6220703-1.0878906,0.8378906-1.7910156C6.690918,8.956543,6.5444336,8.7729492,6.0258789,8.7475586
			C5.1811523,8.6987305,3.4370117,8.7036133,2.3735352,8.7514648C1.7827148,8.777832,0.9819336,8.3891602,1.0004883,7.753418
			c0.0146484-0.4887695,0.3515625-0.9775391,0.5205078-1.0493164C1.5922852,6.6743164,1.6293945,6.6064453,1.5932617,6.550293
			c0,0-0.4873047-0.362793-0.4189453-0.9248047c0.0771484-0.6318359,0.5917969-0.9384766,0.5917969-0.9384766
			c0.0439453-0.0283203,0.0361328-0.1513672,0-0.1767578c0,0-0.3798828-0.2001953-0.3027344-0.71875
			C1.550293,3.2094727,2.1049805,2.956543,2.1723633,2.940918c0.0683594-0.0166016,0.1015625-0.1503906,0.0390625-0.1796875
			C1.800293,2.5629883,2.3383789,1.2729492,3.5883789,1.1186523c1.2714844-0.1582031,3.5258789-0.1572266,4.7202148,0
			c0.59375,0,1.0625,0.6455078,3.1591797,0.6455078H15z"/>
	</g>
</svg>
