<?xml version="1.0" encoding="utf-8"?>
<!--<?xml-stylesheet type="text/css" href="svg.css"?>-->
<!DOCTYPE svg PUBLIC "-//W3C//DTD SVG 1.1//EN" "http://www.w3.org/Graphics/SVG/1.1/DTD/svg11.dtd">
<svg version="1.1" xmlns="http://www.w3.org/2000/svg" xmlns:xlink="http://www.w3.org/1999/xlink" x="0px" y="0px" width="16px" height="16px" viewBox="0 0 16 16" xml:space="preserve">
	
	<title>Trash</title>
	<desc>Trash Icon</desc>
	
	<!--
		@author		Harald Szekely 
		@copyright	2011 WoltLab GmbH 
		@license	GNU Lesser General Public License <http://opensource.org/licenses/lgpl-license.php> 
	--> 
	
	<defs>
		<style type="text/css">
			<![CDATA[
				.Upper1 {fill: #666;}
				.Lower1 {fill: #fff;}
			]]>
		</style>
	</defs>
	
	<g id="IconTrash">
		<g class="Lower1">
			<path id="Bin2" d="M8.2744141,15c0.3110352,0,0.6108398-0.2207031,0.6660156-0.4921875
				l2.0507812-10.0151367c0.0546875-0.2709961-0.1533203-0.4921875-0.4648438-0.4921875H9.9570312
				c-0.3115234,0-0.6123047,0.2211914-0.6689453,0.4916992l-1.7539062,8.4121094
				c-0.0561523,0.2695312-0.3574219,0.4921875-0.668457,0.4921875H5.1572266c-0.3110352,0-0.612793-0.2207031-0.6699219-0.4921875
				L2.6987305,4.4916992C2.6416016,4.2216797,2.3398438,4.0004883,2.0288086,4.0004883H1.4731445
				c-0.3105469,0-0.5200195,0.2211914-0.4643555,0.4916992l2.0600586,10.015625C3.1245117,14.7792969,3.4248047,15,3.7353516,15
				H8.2744141z"/>
			<path id="Litter2" d="M5.9868164,7.5288086V6.0004883H4.4584961v1.5283203H5.9868164z
				 M7.1210938,4.2163086L6,3.1074219L4.8789062,4.2163086L6,5.3378906L7.1210938,4.2163086z M5.6391602,2.1088867L4.5170898,1
				l-1.109375,1.1088867l1.109375,1.121582L5.6391602,2.1088867z"/>
		</g>
		<g class="Upper1">
			<path id="Bin1" d="M8.2744141,14c0.3110352,0,0.6108398-0.2216797,0.6660156-0.4921875l2.0507812-10.015625
				C11.0458984,3.2211914,10.8378906,3,10.5263672,3H9.9570312C9.6455078,3,9.3447266,3.2211914,9.2880859,3.4916992
				l-1.7539062,8.4116211c-0.0561523,0.2705078-0.3574219,0.4921875-0.668457,0.4921875H5.1572266
				c-0.3110352,0-0.612793-0.2207031-0.6699219-0.4912109L2.6987305,3.4912109C2.6416016,3.2211914,2.3398438,3,2.0288086,3
				H1.4731445C1.1625977,3,0.953125,3.2211914,1.0087891,3.4916992l2.0600586,10.0161133
				C3.1245117,13.7783203,3.4248047,14,3.7353516,14H8.2744141z"/>
			<path id="Litter1" d="M4.4584961,5h1.5283203v1.5283203H4.4584961V5z M6,2.1069336L4.8789062,3.2158203
				L6,4.3374023l1.1210938-1.121582L6,2.1069336z M5.6391602,1.1083984L4.5170898-0.0004883l-1.109375,1.1088867l1.109375,1.121582
				L5.6391602,1.1083984z"/>
		</g>
	</g>
</svg>
