<?xml version="1.0" encoding="utf-8"?>
<!-- Generator: Adobe Illustrator 15.1.0, SVG Export Plug-In . SVG Version: 6.00 Build 0)  -->
<!DOCTYPE svg PUBLIC "-//W3C//DTD SVG 1.1//EN" "http://www.w3.org/Graphics/SVG/1.1/DTD/svg11.dtd">
<svg version="1.1" id="Ebene_1" xmlns="http://www.w3.org/2000/svg" xmlns:xlink="http://www.w3.org/1999/xlink" x="0px" y="0px" width="16px" height="16px" viewBox="0 0 16 16" enable-background="new 0 0 16 16" xml:space="preserve">
	<title>Trash</title>
	<desc>Trash Icon</desc>
	
	<!--
		@author		Harald Szekely
		@copyright	2001-2012 WoltLab GmbH 
		@license	GNU Lesser General Public License <http://opensource.org/licenses/lgpl-license.php> 
	--> 
	
	<defs>
		<style type="text/css">
			<![CDATA[
				.surface { fill: #fff; }
				.shadow { fill: #000; }
			]]>
		</style>
	</defs>
	
	<g id="IconTrash">
		<g>
			<path id="Bin2" class="shadow" transform="translate(0 -1)" opacity=".8" d="M10.274,15.5c0.312,0,0.61-0.221,0.666-0.492l2.051-10.015C13.046,4.722,12.838,4.5,12.526,4.5
				h-0.569c-0.312,0-0.612,0.221-0.669,0.492l-1.754,8.412c-0.056,0.27-0.357,0.492-0.669,0.492H7.157
				c-0.311,0-0.613-0.221-0.67-0.492L4.699,4.992C4.642,4.722,4.34,4.5,4.029,4.5H3.473c-0.311,0-0.52,0.221-0.464,0.492l2.06,10.016
				C5.125,15.279,5.425,15.5,5.735,15.5H10.274z"/>
			<path id="Litter2" class="shadow" transform="translate(0 -1)" opacity=".8" d="M7.987,8.029V6.5H6.458v1.528H7.987z M9.121,4.716L8,3.607L6.879,4.716L8,5.838L9.121,4.716z
				 M7.639,2.609L6.517,1.5L5.408,2.609L6.517,3.73L7.639,2.609z"/>
		</g>
		<g>
			<path id="Bin1" class="surface" transform="translate(0 1)" d="M10.274,14.5c0.312,0,0.61-0.222,0.666-0.492l2.051-10.016C13.046,3.721,12.838,3.5,12.526,3.5
				h-0.569c-0.312,0-0.612,0.221-0.669,0.492l-1.754,8.412c-0.056,0.271-0.357,0.492-0.669,0.492H7.157
				c-0.311,0-0.613-0.221-0.67-0.491L4.699,3.991C4.642,3.721,4.34,3.5,4.029,3.5H3.473c-0.311,0-0.52,0.221-0.464,0.492l2.06,10.016
				C5.125,14.278,5.425,14.5,5.735,14.5H10.274z"/>
			<path id="Litter1" class="surface" transform="translate(0 1)" d="M6.458,5.5h1.528v1.528H6.458V5.5z M8,2.607L6.879,3.716L8,4.837l1.121-1.122L8,2.607z
				 M7.639,1.608L6.517,0.5L5.408,1.608L6.517,2.73L7.639,1.608z"/>
		</g>
	</g>
</svg>
