<?xml version="1.0" encoding="utf-8"?>
<!--<?xml-stylesheet type="text/css" href="svg.css"?>-->
<!DOCTYPE svg PUBLIC "-//W3C//DTD SVG 1.1//EN" "http://www.w3.org/Graphics/SVG/1.1/DTD/svg11.dtd">
<svg version="1.1" xmlns="http://www.w3.org/2000/svg" xmlns:xlink="http://www.w3.org/1999/xlink" x="0px" y="0px" width="16px" height="16px" viewBox="0 0 16 16" xml:space="preserve">
	
	<title>Upload</title>
	<desc>Upload Icon</desc>
	
	<!--
		@author		Harald Szekely 
		@copyright	2011 WoltLab GmbH 
		@license	GNU Lesser General Public License <http://opensource.org/licenses/lgpl-license.php> 
	--> 
	
	<defs>
		<style type="text/css">
			<![CDATA[
				.Upper1 {fill: #666;}
				.Lower1 {fill: #fff;}
			]]>
		</style>
	</defs>
	
	<g id="IconUpload">
		<g id="Drive">
			<path class="Lower1" d="M1,4v3h13V4H1z M2.5,6C2.2236328,6,2,5.7763672,2,5.5S2.2236328,5,2.5,5
				S3,5.2236328,3,5.5S2.7763672,6,2.5,6z M14,3.75H1L2.5,2h10L14,3.75z"/>
			<path class="Upper1" d="M1,3v3h13V3H1z M2.5,5C2.2236328,5,2,4.7763672,2,4.5S2.2236328,4,2.5,4
				S3,4.2236328,3,4.5S2.7763672,5,2.5,5z M14,2.75H1L2.5,1h10L14,2.75z"/>
		</g>
		<g id="Arrow">
			<polygon class="Lower1" points="6,15 6,11 4,11 4,10 7.5,6.5004883 11,10 11,11 9,11 9,15"/>
			<polygon class="Upper1" points="6,14 6,10 4,10 7.5,6.5 11,10 9,10 9,14"/>
		</g>
	</g>
</svg>
