<?xml version="1.0" encoding="utf-8"?>
<!-- Generator: Adobe Illustrator 15.1.0, SVG Export Plug-In . SVG Version: 6.00 Build 0)  -->
<!DOCTYPE svg PUBLIC "-//W3C//DTD SVG 1.1//EN" "http://www.w3.org/Graphics/SVG/1.1/DTD/svg11.dtd">
<svg version="1.1" id="Ebene_1" xmlns="http://www.w3.org/2000/svg" xmlns:xlink="http://www.w3.org/1999/xlink" x="0px" y="0px" width="16px" height="16px" viewBox="0 0 16 16" enable-background="new 0 0 16 16" xml:space="preserve">
	<title>Upload</title>
	<desc>Upload Icon</desc>
	
	<!--
		@author		Harald Szekely
		@copyright	2001-2012 WoltLab GmbH 
		@license	GNU Lesser General Public License <http://opensource.org/licenses/lgpl-license.php> 
	--> 
	
	<defs>
		<style type="text/css">
			<![CDATA[
				.surface { fill: #369; }
				.shadow { fill: #fff; }
			]]>
		</style>
	</defs>
	
	<g id="IconUpload">
		<g id="Drive">
			<path class="shadow" d="M1.5,4v3h13V4H1.5z M3,6C2.724,6,2.5,5.776,2.5,5.5S2.724,5,3,5s0.5,0.224,0.5,0.5S3.276,6,3,6z
				 M14.5,3.75h-13L3,2h10L14.5,3.75z"/>
			<path class="surface" d="M1.5,3v3h13V3H1.5z M3,5C2.724,5,2.5,4.776,2.5,4.5S2.724,4,3,4s0.5,0.224,0.5,0.5S3.276,5,3,5z
				 M14.5,2.75h-13L3,1h10L14.5,2.75z"/>
		</g>
		<g id="Arrow">
			<polygon class="shadow" points="6.5,15 6.5,11 4.5,11 4.5,10 8,6.5 11.5,10 11.5,11 9.5,11 9.5,15 		"/>
			<polygon class="surface" points="6.5,14 6.5,10 4.5,10 8,6.5 11.5,10 9.5,10 9.5,14 		"/>
		</g>
	</g>
</svg>
