<?xml version="1.0" encoding="utf-8"?>
<!--<?xml-stylesheet type="text/css" href="svg.css"?>-->
<!DOCTYPE svg PUBLIC "-//W3C//DTD SVG 1.1//EN" "http://www.w3.org/Graphics/SVG/1.1/DTD/svg11.dtd">
<svg version="1.1" xmlns="http://www.w3.org/2000/svg" xmlns:xlink="http://www.w3.org/1999/xlink" x="0px" y="0px" width="16px" height="16px" viewBox="0 0 16 16" xml:space="preserve">
	
	<title>Users</title>
	<desc>Users Icon</desc>
	
	<!--
		@author		Harald Szekely 
		@copyright	2001-2012 WoltLab GmbH 
		@license	GNU Lesser General Public License <http://opensource.org/licenses/lgpl-license.php> 
	--> 
	
	<defs>
		<style type="text/css">
			<![CDATA[
				.surface {fill: #fff;}
				.shadow {fill: #000;}
			]]>
		</style>
	</defs>
	
	<g id="IconUsers">
		<g id="SilhouetteRight">
			<path class="shadow" transform="translate(0 -1)" opacity=".8" style="fill-rule: evenodd; clip-rule: evenodd;" d="M14.65625,11.7490234
				c-0.6640625-0.2939453-1.2050781-0.6552734-1.6220703-1.0830078c-0.1884766-0.2744141-0.5048828-0.4257812-0.9443359-0.4599609
				c-0.1171875-0.2958984-0.1113281-0.6611328,0.015625-1.0966797c0.265625-0.2910156,0.4394531-0.7036133,0.5253906-1.2382812
				C12.625,7.6962891,12.5273438,7.6254883,12.3369141,7.6572266c-0.0205078-0.3632812,0.0449219-0.7607422,0.2001953-1.190918
				l-0.1367188-0.4570312l-0.1552734-0.1074219c-0.0380859-0.1464844-0.2695312-0.3139648-0.6962891-0.503418L11.3789062,5.046875
				l-0.2480469-0.0615234l0.03125-0.1826172L10.9140625,4.925293C10.4013672,4.8046875,9.9375,4.9169922,9.5234375,5.2607422
				l-0.125-0.2294922C9.25,5.4746094,8.9970703,5.8457031,8.6416016,6.1459961H8.6279297
				C8.5649414,6.4423828,8.4785156,6.7060547,8.3671875,6.9365234L8.671875,7.8261719L8.5332031,7.8413086
				C8.3007812,8.1733398,8.421875,8.0839844,8.75,8.8789062l0.0146484,0.1533203
				c0.0083008,0.03125,0.0170898,0.0566406,0.0249023,0.0869141c0.1616211,0.0927734,0.2993164,0.2070312,0.402832,0.3564453
				c0.53125,0.5449219,1.2226562,1.0058594,2.0673828,1.3798828C12.3164062,11.3222656,12.5,13.8544922,12.5,15H15v-2.9697266
				C14.8945312,11.9082031,14.7832031,11.8046875,14.65625,11.7490234z"/>
			<path class="surface" transform="translate(0 1)" style="fill-rule: evenodd; clip-rule: evenodd;" d="M14.65625,10.75
				c-0.6640625-0.2939453-1.2050781-0.65625-1.6220703-1.0820312c-0.1884766-0.2753906-0.5048828-0.4277344-0.9443359-0.4599609
				c-0.1171875-0.2958984-0.1113281-0.6625977,0.015625-1.0981445c0.265625-0.2905273,0.4394531-0.7021484,0.5253906-1.2373047
				C12.625,6.6972656,12.5273438,6.6269531,12.3369141,6.6586914c-0.0205078-0.3632812,0.0449219-0.7612305,0.2001953-1.1914062
				l-0.1367188-0.456543l-0.1552734-0.1074219c-0.0380859-0.1464844-0.2695312-0.3139648-0.6962891-0.503418l-0.1699219-0.3515625
				l-0.2480469-0.0615234l0.03125-0.1826172l-0.2480469,0.1220703C10.4013672,3.8056641,9.9375,3.9179688,9.5234375,4.262207
				l-0.125-0.2294922C9.25,4.4755859,8.9970703,4.8466797,8.6416016,5.1469727H8.6289062
				C8.5654297,5.4433594,8.4785156,5.7075195,8.3671875,5.9375L8.671875,6.8271484L8.5332031,6.8422852
				C8.3007812,7.1748047,8.421875,7.0854492,8.75,7.8803711l0.0146484,0.152832
				C8.7724609,8.0634766,8.78125,8.0878906,8.7890625,8.1171875c0.1616211,0.0932617,0.3007812,0.2089844,0.4042969,0.359375
				c0.53125,0.5419922,1.2226562,1.0039062,2.0673828,1.3789062C12.3173828,10.3232422,12.5,12.7949219,12.5,14H15v-2.96875
				C14.8945312,10.9091797,14.7832031,10.8066406,14.65625,10.75z"/>
		</g>
		<g id="SilhouetteLeft">
			<path class="shadow" transform="translate(0 -1)" opacity=".8" style="fill-rule: evenodd; clip-rule: evenodd;" d="M3.1313477,5.8544922L2.9545898,5.8740234
				C2.6582031,6.296875,2.8120117,6.1831055,3.2299805,7.1962891l0.0195312,0.1958008
				c0.1704102,0.6586914,0.315918,1.0898438,0.9453125,1.4785156l0.0405273,0.3911133L3.309082,9.9414062
				C2.6240234,10.4511719,1.8432617,10.8945312,1,11.2910156V15h11c0-1.1455078-0.1835938-3.6777344-1.2402344-4.1445312
				c-0.8447266-0.3740234-1.5361328-0.8349609-2.0673828-1.3798828C8.4506836,9.1259766,8.0488281,8.9326172,7.4887695,8.887207
				c-0.1499023-0.3754883-0.1430664-0.8413086,0.019043-1.3969727c0.3383789-0.371582,0.5605469-0.8964844,0.6704102-1.578125
				C8.1699219,5.6889648,8.0454102,5.5986328,7.8027344,5.6386719c-0.0263672-0.4628906,0.0576172-0.96875,0.2563477-1.5180664
				l-0.175293-0.5830078L7.6860352,3.4018555c-0.0483398-0.1870117-0.34375-0.4008789-0.8876953-0.6420898L6.581543,2.3115234
				L6.2661133,2.2329102L6.3046875,2L5.9897461,2.15625C5.3359375,2.0024414,4.7436523,2.1464844,4.2158203,2.5839844
				L4.0576172,2.2910156c-0.1904297,0.565918-0.512207,1.0380859-0.965332,1.4213867H2.8549805l0.0205078,0.3515625
				L2.6972656,4.5883789L3.1313477,5.8544922z"/>
			<path class="surface" transform="translate(0 1)" style="fill-rule: evenodd; clip-rule: evenodd;" d="M3.1318359,4.8540039L2.9545898,4.8735352
				C2.6582031,5.2973633,2.8120117,5.1835938,3.2304688,6.1977539L3.25,6.3920898
				c0.1699219,0.659668,0.315918,1.090332,0.9453125,1.4804688L4.2353516,8.262207L3.3095703,8.9418945
				C2.6240234,9.4501953,1.8432617,9.8955078,1,10.2929688V14h11c0-1.2050781-0.1826172-3.6767578-1.2392578-4.1445312
				c-0.8447266-0.375-1.5361328-0.8369141-2.0673828-1.3789062C8.4511719,8.125,8.0498047,7.9306641,7.4897461,7.8901367
				C7.3398438,7.512207,7.3466797,7.0449219,7.5083008,6.4897461C7.847168,6.1191406,8.0688477,5.5942383,8.1791992,4.9121094
				C8.1704102,4.6884766,8.0463867,4.5986328,7.8037109,4.6391602C7.7773438,4.1762695,7.8608398,3.6689453,8.0600586,3.1206055
				L7.8842773,2.5385742l-0.1977539-0.137207C7.6381836,2.2148438,7.3432617,2.0009766,6.7988281,1.7597656L6.5820312,1.3110352
				L6.2666016,1.2324219L6.3051758,1L5.9907227,1.1557617C5.3364258,1.0014648,4.7436523,1.1455078,4.2163086,1.5839844
				L4.0576172,1.2910156c-0.1899414,0.5654297-0.512207,1.0380859-0.965332,1.4208984H2.8549805l0.0209961,0.3510742
				L2.6977539,3.5883789L3.1318359,4.8540039z"/>
		</g>
	</g>
</svg>
