<?xml version="1.0" encoding="utf-8"?>
<!-- Generator: Adobe Illustrator 15.1.0, SVG Export Plug-In . SVG Version: 6.00 Build 0)  -->
<!DOCTYPE svg PUBLIC "-//W3C//DTD SVG 1.1//EN" "http://www.w3.org/Graphics/SVG/1.1/DTD/svg11.dtd">
<svg version="1.1" id="Ebene_1" xmlns="http://www.w3.org/2000/svg" xmlns:xlink="http://www.w3.org/1999/xlink" x="0px" y="0px" width="16px" height="16px" viewBox="0 0 16 16" enable-background="new 0 0 16 16" xml:space="preserve">
	<title>User</title>
	<desc>User Icon</desc>
	
	<!--
		@author		Harald Szekely
		@copyright	2001-2012 WoltLab GmbH 
		@license	GNU Lesser General Public License <http://opensource.org/licenses/lgpl-license.php> 
	--> 
	
	<defs>
		<style type="text/css">
			<![CDATA[
				.surface { fill: #369; }
				.shadow { fill: #fff; }
			]]>
		</style>
	</defs>
	
	<g id="IconUser">
		<g id="Silhouette">
			<path class="shadow" opacity=".8" d="M14.5,15c-0.233-1.172-0.67-3.678-1.747-4.145c-0.863-0.375-1.567-0.836-2.109-1.381
				c-0.245-0.35-0.655-0.543-1.228-0.586c-0.152-0.377-0.146-0.844,0.02-1.399c0.346-0.371,0.572-0.896,0.685-1.578
				c-0.009-0.223-0.136-0.313-0.383-0.273C9.711,5.175,9.796,4.668,9.998,4.12L9.819,3.538L9.618,3.4
				C9.568,3.214,9.268,3,8.713,2.759L8.491,2.311L8.17,2.232L8.209,2L7.888,2.155C7.221,2.002,6.618,2.145,6.08,2.583L5.917,2.291
				C5.724,2.855,5.396,3.329,4.934,3.712H4.692l0.021,0.351L4.531,4.588l0.442,1.265l-0.181,0.02
				c-0.302,0.424-0.145,0.31,0.281,1.323l0.02,0.195c0.174,0.659,0.323,1.09,0.965,1.479L6.1,9.262l-0.945,0.68
				c-0.805,0.586-1.716,1.1-2.734,1.537c-0.244,0.213-0.906,3.123-0.917,3.506C1.502,14.988,1.5,14.996,1.5,15H14.5z"/>
			<path class="surface" d="M14.5,14c-0.233-1.171-0.67-3.678-1.747-4.144c-0.863-0.375-1.567-0.837-2.109-1.381
				C10.398,8.125,9.988,7.932,9.416,7.89c-0.152-0.378-0.146-0.844,0.02-1.4c0.346-0.371,0.572-0.896,0.685-1.578
				c-0.009-0.223-0.136-0.313-0.383-0.273c-0.026-0.463,0.059-0.97,0.261-1.519L9.819,2.538L9.618,2.401
				c-0.05-0.187-0.351-0.4-0.905-0.642L8.491,1.311L8.17,1.233L8.209,1L7.888,1.156C7.221,1.002,6.618,1.145,6.08,1.584L5.917,1.292
				C5.724,1.856,5.396,2.33,4.934,2.712H4.692l0.021,0.351L4.531,3.589l0.442,1.265l-0.181,0.02c-0.302,0.424-0.145,0.31,0.281,1.323
				l0.02,0.195c0.174,0.66,0.323,1.09,0.965,1.48L6.1,8.262L5.155,8.942c-0.805,0.586-1.716,1.1-2.734,1.537
				c-0.244,0.213-0.906,3.122-0.917,3.505C1.502,13.989,1.5,13.996,1.5,14H14.5z"/>
		</g>
	</g>
</svg>
