<?xml version="1.0" encoding="utf-8"?>
<!--<?xml-stylesheet type="text/css" href="svg.css"?>-->
<!DOCTYPE svg PUBLIC "-//W3C//DTD SVG 1.1//EN" "http://www.w3.org/Graphics/SVG/1.1/DTD/svg11.dtd">
<svg version="1.1" xmlns="http://www.w3.org/2000/svg" xmlns:xlink="http://www.w3.org/1999/xlink" x="0px" y="0px" width="16px" height="16px" viewBox="0 0 16 16" xml:space="preserve">
	
	<title>User</title>
	<desc>User Icon</desc>
	
	<!--
		@author		Harald Szekely 
		@copyright	2011 WoltLab GmbH 
		@license	GNU Lesser General Public License <http://opensource.org/licenses/lgpl-license.php> 
	--> 
	
	<defs>
		<style type="text/css">
			<![CDATA[
				.Upper1 {fill: #666;}
				.Lower1 {fill: #fff;}
			]]>
		</style>
	</defs>
	
	<g id="IconUser">
		<g id="Silhouette">
			<path class="Lower1" style="fill-rule: evenodd; clip-rule: evenodd;" d="M14,15
				c-0.2333984-1.171875-0.6699219-3.6777344-1.7470703-4.1445312c-0.8632812-0.375-1.5673828-0.8359375-2.109375-1.3808594
				C9.8984375,9.125,9.4882812,8.9316406,8.9165039,8.8886719c-0.152832-0.3769531-0.1459961-0.84375,0.019043-1.3994141
				C9.28125,7.1186523,9.5078125,6.5932617,9.6201172,5.9116211C9.6113281,5.6884766,9.484375,5.5981445,9.2373047,5.6386719
				C9.2109375,5.175293,9.2958984,4.668457,9.4980469,4.1201172L9.3193359,3.5375977l-0.2011719-0.137207
				C9.0683594,3.2138672,8.7675781,3.0004883,8.2128906,2.7587891L7.9912109,2.3105469l-0.3208008-0.078125l0.0390625-0.2329102
				L7.3881836,2.1552734C6.7211914,2.0019531,6.1176758,2.1445312,5.5795898,2.5834961L5.4174805,2.2910156
				C5.2236328,2.8554688,4.8955078,3.3291016,4.4335938,3.7119141H4.1918945l0.0205078,0.3510742L4.03125,4.5883789
				l0.4423828,1.2651367L4.2929688,5.8730469C3.9907227,6.296875,4.1479492,6.1826172,4.5737305,7.1962891l0.0195312,0.1953125
				c0.1738281,0.6591797,0.3232422,1.0898438,0.9648438,1.4794922l0.0415039,0.390625L4.6547852,9.9414062
				c-0.8051758,0.5859375-1.7163086,1.0996094-2.734375,1.5371094c-0.2436523,0.2128906-0.9057617,3.1230469-0.9174805,3.5058594
				C1.0019531,14.9882812,1.0004883,14.9960938,1,15H14z"/>
			<path class="Upper1" style="fill-rule: evenodd; clip-rule: evenodd;" d="M14,14
				c-0.2333984-1.1708984-0.6699219-3.6777344-1.7470703-4.1435547c-0.8632812-0.375-1.5673828-0.8369141-2.109375-1.3808594
				C9.8984375,8.125,9.4882812,7.9316406,8.9165039,7.8896484c-0.152832-0.3779297-0.1459961-0.8442383,0.019043-1.3999023
				C9.28125,6.1191406,9.5078125,5.59375,9.6201172,4.9121094C9.6113281,4.6889648,9.484375,4.5986328,9.2373047,4.6391602
				C9.2109375,4.1757812,9.2958984,3.6689453,9.4980469,3.1206055L9.3193359,2.5380859l-0.2011719-0.137207
				C9.0683594,2.2143555,8.7675781,2.0009766,8.2128906,1.7592773L7.9912109,1.3110352l-0.3208008-0.078125L7.7094727,1
				L7.3881836,1.1557617C6.7211914,1.0024414,6.1176758,1.1450195,5.5795898,1.5839844L5.4174805,1.2915039
				C5.2236328,1.855957,4.8955078,2.3295898,4.4335938,2.7124023H4.1918945l0.0205078,0.3510742L4.03125,3.5888672
				l0.4423828,1.2651367L4.2929688,4.8735352C3.9907227,5.2973633,4.1479492,5.1831055,4.5737305,6.1967773l0.0195312,0.1953125
				c0.1738281,0.659668,0.3232422,1.0898438,0.9648438,1.4799805l0.0415039,0.3896484L4.6547852,8.9423828
				c-0.8051758,0.5859375-1.7163086,1.0996094-2.734375,1.5371094c-0.2436523,0.2128906-0.9057617,3.1220703-0.9174805,3.5048828
				C1.0019531,13.9892578,1.0004883,13.9960938,1,14H14z"/>
		</g>
	</g>
</svg>
