<?xml version="1.0" encoding="utf-8"?>
<!--<?xml-stylesheet type="text/css" href="svg.css"?>-->
<!DOCTYPE svg PUBLIC "-//W3C//DTD SVG 1.1//EN" "http://www.w3.org/Graphics/SVG/1.1/DTD/svg11.dtd">
<svg version="1.1" xmlns="http://www.w3.org/2000/svg" xmlns:xlink="http://www.w3.org/1999/xlink" x="0px" y="0px" width="16px" height="16px" viewBox="0 0 16 16" xml:space="preserve">
	
	<title>Video Provider</title> 
	<desc>Video Provider Icon</desc> 
	
	<!--
		@author		Harald Szekely 
		@copyright	2011 WoltLab GmbH 
		@license	GNU Lesser General Public License <http://opensource.org/licenses/lgpl-license.php> 
	--> 
	
	<defs>
		<style type="text/css">
			<![CDATA[
				.Upper1 {fill: #666;}
				.Lower1 {fill: #fff;}
			]]>
		</style>
	</defs>
	
	<g id="VideoProvider">
		<g class="Lower1">
			<path id="TV2" style="fill-rule: evenodd; clip-rule: evenodd;" d="M12,5H3C1.8999023,5,1,5.8999023,1,7v6
				c0,1.0996094,0.8999023,2,2,2h9c1.0996094,0,2-0.9003906,2-2V7C14,5.8999023,13.0996094,5,12,5z M5,13.5V6.5004883L10.9228516,10
				L5,13.5z"/>
			<g id="AntennaRight2">
				<path d="M7.8041992,5.375c-0.0961914,0-0.1928711-0.0371094-0.2661133-0.1108398
					C7.3920898,5.1171875,7.3930664,4.8798828,7.5400391,4.7338867l2.7646484-2.7451172
					c0.1474609-0.1459961,0.3837891-0.1450195,0.53125,0.0019531C10.9814453,2.1376953,10.9804688,2.375,10.8339844,2.5209961
					l-2.765625,2.7451172C7.9951172,5.3388672,7.8999023,5.375,7.8041992,5.375L7.8041992,5.375z"/>
			</g>
			<g id="AntennaLeft2">
				<path d="M7.2207031,5.375C7.125,5.375,7.0297852,5.3388672,6.956543,5.2661133L4.1904297,2.5205078
					C4.043457,2.3745117,4.0424805,2.137207,4.1884766,1.9902344C4.3349609,1.8432617,4.5717773,1.8422852,4.71875,1.9882812
					l2.7661133,2.7456055c0.1469727,0.1459961,0.1479492,0.3833008,0.0019531,0.5302734
					C7.4135742,5.3378906,7.3168945,5.375,7.2207031,5.375L7.2207031,5.375z"/>
			</g>
		</g>
		<g class="Upper1">
			<path id="TV1" style="fill-rule: evenodd; clip-rule: evenodd;" d="M12,4H3C1.8999023,4,1,4.8999023,1,6v6
				c0,1.0996094,0.8999023,2,2,2h9c1.0996094,0,2-0.9003906,2-2V6C14,4.8999023,13.0996094,4,12,4z M5,12.5V5.5004883L10.9228516,9
				L5,12.5z"/>
			<g id="AntennaRight1">
				<path d="M7.8041992,4.375c-0.0961914,0-0.1928711-0.0371094-0.2661133-0.1108398
					C7.3920898,4.1171875,7.3930664,3.8798828,7.5400391,3.7338867l2.7646484-2.7451172
					c0.1474609-0.1464844,0.3837891-0.1445312,0.53125,0.0019531C10.9814453,1.1376953,10.9804688,1.375,10.8339844,1.5209961
					l-2.765625,2.7451172C7.9951172,4.3388672,7.8999023,4.375,7.8041992,4.375L7.8041992,4.375z"/>
			</g>
			<g id="AntennaLeft1">
				<path d="M7.2207031,4.375C7.125,4.375,7.0297852,4.3388672,6.956543,4.2661133L4.1904297,1.5205078
					C4.043457,1.3745117,4.0424805,1.137207,4.1884766,0.9902344C4.3349609,0.8432617,4.5717773,0.8422852,4.71875,0.9882812
					l2.7661133,2.7456055c0.1469727,0.1459961,0.1479492,0.3833008,0.0019531,0.5302734
					C7.4135742,4.3378906,7.3168945,4.375,7.2207031,4.375L7.2207031,4.375z"/>
			</g>
		</g>
	</g>
</svg>
