<?xml version="1.0" encoding="utf-8"?>
<!-- Generator: Adobe Illustrator 15.1.0, SVG Export Plug-In . SVG Version: 6.00 Build 0)  -->
<!DOCTYPE svg PUBLIC "-//W3C//DTD SVG 1.1//EN" "http://www.w3.org/Graphics/SVG/1.1/DTD/svg11.dtd">
<svg version="1.1" id="Ebene_1" xmlns="http://www.w3.org/2000/svg" xmlns:xlink="http://www.w3.org/1999/xlink" x="0px" y="0px" width="16px" height="16px" viewBox="0 0 16 16" enable-background="new 0 0 16 16" xml:space="preserve">
	<title>Video</title>
	<desc>Video Icon</desc>
	
	<!--
		@author		Harald Szekely
		@copyright	2001-2012 WoltLab GmbH 
		@license	GNU Lesser General Public License <http://opensource.org/licenses/lgpl-license.php> 
	--> 
	
	<defs>
		<style type="text/css">
			<![CDATA[
				.surface { fill: #666; }
				.shadow { fill: #fff; }
			]]>
		</style>
	</defs>
	
	<g id="VideoProvider">
		<g>
			<path id="TV2" class="shadow" d="M12.5,5.061h-9c-1.1,0-2,0.9-2,2v6c0,1.1,0.9,2,2,2h9c1.1,0,2-0.9,2-2v-6
				C14.5,5.96,13.6,5.061,12.5,5.061z M5.5,13.561v-7l5.923,3.5L5.5,13.561z"/>
			<g id="AntennaRight2">
				<path class="shadow" d="M8.304,5.436c-0.096,0-0.193-0.037-0.266-0.111C7.892,5.178,7.893,4.94,8.04,4.794l2.765-2.745
					c0.147-0.146,0.384-0.145,0.531,0.002c0.146,0.147,0.145,0.384-0.002,0.53L8.568,5.327C8.495,5.399,8.4,5.436,8.304,5.436
					L8.304,5.436z"/>
			</g>
			<g id="AntennaLeft2">
				<path class="shadow" d="M7.721,5.436c-0.096,0-0.191-0.036-0.264-0.109L4.69,2.581c-0.147-0.146-0.148-0.383-0.002-0.53
					c0.146-0.147,0.383-0.148,0.53-0.002l2.766,2.746c0.147,0.146,0.148,0.383,0.002,0.53C7.914,5.398,7.817,5.436,7.721,5.436
					L7.721,5.436z"/>
			</g>
		</g>
		<g>
			<path id="TV1" class="surface" d="M12.5,4.061h-9c-1.1,0-2,0.9-2,2v6c0,1.1,0.9,2,2,2h9c1.1,0,2-0.9,2-2v-6
				C14.5,4.96,13.6,4.061,12.5,4.061z M5.5,12.561v-7l5.923,3.5L5.5,12.561z"/>
			<g id="AntennaRight1">
				<path class="surface" d="M8.304,4.436c-0.096,0-0.193-0.037-0.266-0.111C7.892,4.178,7.893,3.94,8.04,3.794l2.765-2.745
					c0.147-0.146,0.384-0.145,0.531,0.002c0.146,0.147,0.145,0.384-0.002,0.53L8.568,4.327C8.495,4.399,8.4,4.436,8.304,4.436
					L8.304,4.436z"/>
			</g>
			<g id="AntennaLeft1">
				<path class="surface" d="M7.721,4.436c-0.096,0-0.191-0.036-0.264-0.109L4.69,1.581c-0.147-0.146-0.148-0.383-0.002-0.53
					c0.146-0.147,0.383-0.148,0.53-0.002l2.766,2.746c0.147,0.146,0.148,0.383,0.002,0.53C7.914,4.398,7.817,4.436,7.721,4.436
					L7.721,4.436z"/>
			</g>
		</g>
	</g>
</svg>
