<?xml version="1.0" encoding="utf-8"?>
<!--<?xml-stylesheet type="text/css" href="svg.css"?>-->
<!DOCTYPE svg PUBLIC "-//W3C//DTD SVG 1.1//EN" "http://www.w3.org/Graphics/SVG/1.1/DTD/svg11.dtd">
<svg version="1.1" xmlns="http://www.w3.org/2000/svg" xmlns:xlink="http://www.w3.org/1999/xlink" x="0px" y="0px" width="16px" height="16px" viewBox="0 0 16 16" xml:space="preserve">
	
	<title>Warning</title>
	<desc>Warning Icon (inverted)</desc>
	
	<!--
		@author		Harald Szekely 
		@copyright	2011 WoltLab GmbH 
		@license	GNU Lesser General Public License <http://opensource.org/licenses/lgpl-license.php> 
	--> 
	
	<defs>
		<style type="text/css">
			<![CDATA[
				.Upper1 {fill: #fff;}
				.Lower1 {fill: #000;}
			]]>
		</style>
	</defs>
	
	<g id="IconWarning">
		<path class="Lower1" d="M8.4799805,2.3774414c-0.2636719-0.4824219-0.6953125-0.4824219-0.9589844,0L1.1049805,14.1220703
			C0.8413086,14.6054688,1.0756836,15,1.6254883,15H14.375c0.5498047,0,0.7841797-0.3945312,0.5205078-0.8779297
			L8.4799805,2.3774414z M7.0532227,6.5c0-0.5498047,0.4262695-1,0.9472656-1s0.9472656,0.4501953,0.9472656,1v1.3554688
			c0,0.5498047-0.1020508,1.4384766-0.2265625,1.9736328L8.675293,10.0263672C8.5507812,10.5615234,8.2441406,11,7.9941406,11
			c-0.2495117,0-0.5537109-0.4384766-0.675293-0.9755859L7.2744141,9.8310547
			C7.152832,9.2939453,7.0532227,8.4052734,7.0532227,7.8554688V6.5z M8.0014648,13.9628906
			c-0.5825195,0-1.0541992-0.4667969-1.0541992-1.0390625c0-0.5761719,0.4716797-1.0390625,1.0541992-1.0390625
			c0.5805664,0,1.0512695,0.4628906,1.0512695,1.0390625C9.0527344,13.4960938,8.5820312,13.9628906,8.0014648,13.9628906z"/>
		<path class="Upper1" d="M8.4799805,1.3774414c-0.2636719-0.4824219-0.6953125-0.4824219-0.9589844,0L1.1049805,13.1220703
			C0.8413086,13.6054688,1.0756836,14,1.6254883,14H14.375c0.5498047,0,0.7841797-0.3945312,0.5205078-0.8779297
			L8.4799805,1.3774414z M7.0532227,5.5c0-0.5498047,0.4262695-1,0.9472656-1s0.9472656,0.4501953,0.9472656,1v1.3554688
			c0,0.5498047-0.1020508,1.4384766-0.2265625,1.9741211L8.675293,9.0263672C8.5507812,9.5615234,8.2441406,10,7.9941406,10
			c-0.2495117,0-0.5537109-0.4384766-0.675293-0.9755859L7.2744141,8.8305664
			c-0.121582-0.5361328-0.2211914-1.425293-0.2211914-1.9750977V5.5z M8.0014648,12.9628906
			c-0.5825195,0-1.0541992-0.4667969-1.0541992-1.0390625c0-0.5761719,0.4716797-1.0390625,1.0541992-1.0390625
			c0.5805664,0,1.0512695,0.4628906,1.0512695,1.0390625C9.0527344,12.4960938,8.5820312,12.9628906,8.0014648,12.9628906z"/>
	</g>
</svg>
