<?xml version="1.0" encoding="utf-8"?>
<!--<?xml-stylesheet type="text/css" href="svg.css"?>-->
<!DOCTYPE svg PUBLIC "-//W3C//DTD SVG 1.1//EN" "http://www.w3.org/Graphics/SVG/1.1/DTD/svg11.dtd">
<svg version="1.1" xmlns="http://www.w3.org/2000/svg" xmlns:xlink="http://www.w3.org/1999/xlink" x="0px" y="0px" width="16px" height="16px" viewBox="0 0 16 16" xml:space="preserve">
	
	<title>WoltLab Burning Board</title>
	<desc>WoltLab Burning Board Icon</desc>
	
	<!--
		@author		Harald Szekely 
		@copyright	2011 WoltLab GmbH 
		@license	GNU Lesser General Public License <http://opensource.org/licenses/lgpl-license.php> 
	--> 
	
	<defs>
		<style type="text/css">
			<![CDATA[
				.Upper1 {fill: #666;}
				.Lower1 {fill: #fff;}
			]]>
		</style>
	</defs>
	
	<g id="IconWBBIcon">
		<path class="Lower1" d="M12.6083984,15H8.8251953c-0.1186523-0.2314453-0.2211914-0.4755859-0.2910156-0.734375
			l-0.0039062-0.0126953c-0.081543-0.3095703-0.125-0.6376953-0.125-0.9726562c0-0.3378906,0.043457-0.6650391,0.125-0.9746094
			l0.0048828-0.0126953c0.1728516-0.6474609,0.5136719-1.2285156,0.9707031-1.6884766l0.0107422-0.0117188
			c0.4609375-0.4599609,1.0380859-0.8017578,1.6835938-0.9775391l0.0205078-0.0068359
			c0.3154297-0.0849609,0.6455078-0.1289062,0.984375-0.1289062c0.3320312,0,0.6523438,0.0439453,0.9589844,0.1220703
			l0.0273438,0.0078125C13.4785156,9.6855469,13.7460938,9.7998047,14,9.9365234v3.6708984
			C14,14.3779297,13.3779297,15,12.6083984,15z M3.3588867,13.2802734c0-0.2998047,1.2646484-1.7226562,2.4506836-1.7226562
			h0.0473633l-0.0395508-0.0214844C4.7885742,10.9414062,4.4033203,9.078125,4.5537109,8.8178711
			s1.9560547-0.8579102,2.9838867-0.2651367L7.578125,8.5766602L7.5561523,8.5380859
			C6.9609375,7.5092773,7.559082,5.7026367,7.8193359,5.5532227c0.2602539-0.1513672,2.1240234,0.234375,2.7158203,1.2612305
			l0.0234375,0.0405273V6.8105469c0-1.1884766,1.421875-2.4536133,1.7226562-2.4536133
			c0.2988281,0,1.7109375,1.2568359,1.71875,2.4394531v-3.402832C14,2.6240234,13.3779297,2,12.6083984,2H2.394043
			C1.6245117,2,1.0004883,2.6240234,1.0004883,3.3935547v10.2138672C1.0004883,14.3779297,1.6245117,15,2.394043,15h3.4174805
			C4.6235352,15,3.3588867,13.5800781,3.3588867,13.2802734z M7.7797852,15h0.5576172
			c-0.0913086-0.203125-0.1723633-0.4130859-0.2319336-0.6337891c-0.0913086-0.3525391-0.1396484-0.7177734-0.1396484-1.0859375
			c0-0.3691406,0.0483398-0.7353516,0.1445312-1.1015625c0.1904297-0.7099609,0.5649414-1.359375,1.0966797-1.8955078
			c0.5234375-0.5224609,1.1728516-0.9003906,1.9003906-1.0986328c0.3535156-0.0947266,0.7236328-0.1445312,1.0976562-0.1445312
			c0.3603516,0,0.7216797,0.0478516,1.0996094,0.1455078C13.5449219,9.25,13.7753906,9.34375,14,9.4492188V8.8808594
			c-0.1904297-0.0791016-0.390625-0.1459961-0.5957031-0.2021484c-0.7949219-0.2045898-1.6210938-0.2080078-2.4550781,0.0166016
			C10.15625,8.9116211,9.4277344,9.3339844,8.8295898,9.9335938c-0.5820312,0.5839844-1.0024414,1.3173828-1.2211914,2.1269531
			c-0.1035156,0.3974609-0.1567383,0.8056641-0.1567383,1.2197266c0,0.4111328,0.0532227,0.8193359,0.1616211,1.234375
			C7.6582031,14.6806641,7.7163086,14.8417969,7.7797852,15z"/>
		<path class="Upper1" d="M12.6083984,14H8.8251953c-0.1186523-0.2314453-0.2211914-0.4755859-0.2910156-0.734375
			l-0.0039062-0.0126953c-0.081543-0.3095703-0.125-0.6376953-0.125-0.9726562c0-0.3378906,0.043457-0.6650391,0.125-0.9746094
			l0.0048828-0.0126953c0.1728516-0.6474609,0.5136719-1.2285156,0.9707031-1.6884766l0.0107422-0.0117188
			c0.4609375-0.4599609,1.0380859-0.8022461,1.6835938-0.9780273l0.0205078-0.0063477
			c0.3154297-0.0844727,0.6455078-0.1289062,0.984375-0.1289062c0.3320312,0,0.6523438,0.043457,0.9589844,0.1225586
			l0.0273438,0.0073242C13.4785156,8.6855469,13.7460938,8.7998047,14,8.9365234v3.6708984
			C14,13.3779297,13.3779297,14,12.6083984,14z M3.3588867,12.2802734c0-0.2998047,1.2646484-1.7226562,2.4506836-1.7226562
			h0.0473633l-0.0395508-0.0214844C4.7885742,9.9414062,4.4033203,8.078125,4.5537109,7.8178711
			s1.9560547-0.8579102,2.9838867-0.2651367L7.578125,7.5766602L7.5561523,7.5380859
			C6.9609375,6.5092773,7.559082,4.7026367,7.8193359,4.5532227c0.2602539-0.1513672,2.1240234,0.234375,2.7158203,1.2612305
			l0.0234375,0.0405273V5.8105469c0-1.1884766,1.421875-2.4536133,1.7226562-2.4536133
			c0.2988281,0,1.7109375,1.2568359,1.71875,2.4394531v-3.402832C14,1.6240234,13.3779297,1,12.6083984,1H2.394043
			C1.6245117,1,1.0004883,1.6240234,1.0004883,2.3935547v10.2138672C1.0004883,13.3779297,1.6245117,14,2.394043,14h3.4174805
			C4.6235352,14,3.3588867,12.5800781,3.3588867,12.2802734z M7.7797852,14h0.5576172
			c-0.0913086-0.203125-0.1723633-0.4130859-0.2319336-0.6337891c-0.0913086-0.3525391-0.1396484-0.7177734-0.1396484-1.0859375
			c0-0.3691406,0.0483398-0.7353516,0.1445312-1.1015625C8.3007812,10.46875,8.675293,9.8193359,9.2070312,9.2832031
			c0.5234375-0.5224609,1.1728516-0.8999023,1.9003906-1.0986328c0.3535156-0.0952148,0.7236328-0.1445312,1.0976562-0.1445312
			c0.3603516,0,0.7216797,0.0473633,1.0996094,0.1459961C13.5449219,8.2495117,13.7753906,8.34375,14,8.449707V7.8808594
			c-0.1904297-0.0791016-0.390625-0.1459961-0.5957031-0.2021484c-0.7949219-0.2045898-1.6210938-0.2080078-2.4550781,0.0166016
			C10.15625,7.9116211,9.4277344,8.3344727,8.8295898,8.9331055c-0.5820312,0.5844727-1.0024414,1.3178711-1.2211914,2.1274414
			c-0.1035156,0.3974609-0.1567383,0.8056641-0.1567383,1.2197266c0,0.4111328,0.0532227,0.8193359,0.1616211,1.234375
			C7.6582031,13.6806641,7.7163086,13.8417969,7.7797852,14z"/>
	</g>
</svg>
