<?xml version="1.0" encoding="utf-8"?>
<!--<?xml-stylesheet type="text/css" href="svg.css"?>-->
<!DOCTYPE svg PUBLIC "-//W3C//DTD SVG 1.1//EN" "http://www.w3.org/Graphics/SVG/1.1/DTD/svg11.dtd">
<svg version="1.1" xmlns="http://www.w3.org/2000/svg" xmlns:xlink="http://www.w3.org/1999/xlink" x="0px" y="0px" width="16px" height="16px" viewBox="0 0 16 16" xml:space="preserve">
	
	<title>WoltLab Community Framework</title>
	<desc>WCF Icon</desc>
	
	<!--
		@author		Harald Szekely 
		@copyright	2011 WoltLab GmbH 
		@license	GNU Lesser General Public License <http://opensource.org/licenses/lgpl-license.php> 
	--> 
	
	<defs>
		<style type="text/css">
			<![CDATA[
				.Upper1 {fill: #666;}
				.Lower1 {fill: #fff;}
			]]>
		</style>
	</defs>
	
	<g id="IconWCFIcon">
		<path class="Lower1" d="M9.1425781,9.3037109c-1.7382812,0.3916016-2.3359375,0.9677734-3.3452148,3.0166016
			C7.9956055,11.65625,8.5546875,11.0878906,9.1425781,9.3037109L9.1425781,9.3037109z M9.4248047,9.0107422v3.1083984
			c0,0.859375-0.6962891,1.5566406-1.5541992,1.5566406H3.2070312v-3.109375c0-0.859375,0.6958008-1.5556641,1.5541992-1.5556641
			H9.4248047L9.4248047,9.0107422z M4.5024414,3.7392578c0.7973633,2.4228516,1.5561523,3.1918945,4.5395508,4.0932617
			C7.6713867,5.0537109,6.8618164,4.2724609,4.5024414,3.7392578L4.5024414,3.7392578z M9.4248047,4.109375v4.2192383H3.0957031
			c-1.1645508,0-2.109375-0.9443359-2.109375-2.1088867V2h6.3286133C8.4804688,2,9.4248047,2.9448242,9.4248047,4.109375
			L9.4248047,4.109375z M12.8408203,5.6015625c-1.4023438,0.3173828-1.8828125,0.78125-2.6972656,2.4326172
			C11.9160156,7.4985352,12.3671875,7.0410156,12.8408203,5.6015625L12.8408203,5.6015625z M9.9726562,5.8222656
			c0-0.6928711,0.5615234-1.253418,1.2539062-1.253418h3.7597656v2.5063477c0,0.6923828-0.5605469,1.253418-1.2529297,1.253418
			H9.9726562V5.8222656L9.9726562,5.8222656z M12.1621094,11.09375c-1.0703125-0.2421875-1.4375-0.5976562-2.0585938-1.8574219
			C11.4570312,9.6445312,11.8017578,9.9941406,12.1621094,11.09375L12.1621094,11.09375z M9.9726562,10.9257812
			c0,0.5273438,0.4296875,0.9570312,0.9580078,0.9570312h2.8710938V9.9677734c0-0.5283203-0.4277344-0.9570312-0.9570312-0.9570312
			H9.9726562V10.9257812L9.9726562,10.9257812z"/>
		<path class="Upper1" d="M9.1425781,8.2924805c-1.7382812,0.3920898-2.3359375,0.9682617-3.3452148,3.0161133
			C7.9956055,10.6445312,8.5546875,10.0771484,9.1425781,8.2924805L9.1425781,8.2924805z M9.4248047,7.9995117v3.1088867
			c0,0.859375-0.6962891,1.5556641-1.5541992,1.5556641H3.2070312v-3.109375c0-0.859375,0.6958008-1.5551758,1.5541992-1.5551758
			H9.4248047L9.4248047,7.9995117z M4.5024414,2.7280273c0.7973633,2.4228516,1.5561523,3.1918945,4.5395508,4.0932617
			C7.6713867,4.0424805,6.8618164,3.2612305,4.5024414,2.7280273L4.5024414,2.7280273z M9.4248047,3.0981445v4.2192383H3.0957031
			c-1.1645508,0-2.109375-0.9443359-2.109375-2.1088867V0.9887695h6.3286133
			C8.4804688,0.9887695,9.4248047,1.9335938,9.4248047,3.0981445L9.4248047,3.0981445z M12.8408203,4.590332
			c-1.4023438,0.3173828-1.8828125,0.78125-2.6972656,2.4326172C11.9160156,6.4873047,12.3671875,6.0297852,12.8408203,4.590332
			L12.8408203,4.590332z M9.9726562,4.8110352c0-0.6928711,0.5615234-1.253418,1.2539062-1.253418h3.7597656v2.5063477
			c0,0.6923828-0.5605469,1.253418-1.2529297,1.253418H9.9726562V4.8110352L9.9726562,4.8110352z M12.1621094,10.0820312
			c-1.0703125-0.2421875-1.4375-0.5966797-2.0585938-1.8569336C11.4570312,8.6337891,11.8017578,8.9833984,12.1621094,10.0820312
			L12.1621094,10.0820312z M9.9726562,9.9140625c0,0.5283203,0.4296875,0.9580078,0.9580078,0.9580078h2.8710938V8.956543
			c0-0.5283203-0.4277344-0.9570312-0.9570312-0.9570312H9.9726562V9.9140625L9.9726562,9.9140625z"/>
	</g>
</svg>
