<?xml version="1.0" encoding="utf-8"?>
<!-- Generator: Adobe Illustrator 15.1.0, SVG Export Plug-In . SVG Version: 6.00 Build 0)  -->
<!DOCTYPE svg PUBLIC "-//W3C//DTD SVG 1.1//EN" "http://www.w3.org/Graphics/SVG/1.1/DTD/svg11.dtd">
<svg version="1.1" id="Ebene_1" xmlns="http://www.w3.org/2000/svg" xmlns:xlink="http://www.w3.org/1999/xlink" x="0px" y="0px" width="16px" height="16px" viewBox="0 0 16 16" enable-background="new 0 0 16 16" xml:space="preserve">
	<title>Window</title>
	<desc>Window Icon</desc>
	
	<!--
		@author		Alexander Ebert
		@copyright	2001-2012 WoltLab GmbH 
		@license	GNU Lesser General Public License <http://opensource.org/licenses/lgpl-license.php> 
	--> 
	
	<defs>
		<style type="text/css">
			<![CDATA[
				.surface { fill: #369; }
				.shadow { fill: #fff; }
			]]>
		</style>
	</defs>
	
	<g id="IconPackageACP">
		<path class="shadow" opacity=".8" d="M13.5,2h-11c-0.552,0-1,0.448-1,1v11c0,0.553,0.448,1,1,1h11c0.553,0,1-0.447,1-1V3
			C14.5,2.448,14.053,2,13.5,2z M13.5,14h-11V5h11V14z"/>
		<path class="surface" d="M13.5,1h-11c-0.552,0-1,0.448-1,1v11c0,0.553,0.448,1,1,1h11c0.553,0,1-0.447,1-1V2
			C14.5,1.448,14.053,1,13.5,1z M13.5,13h-11V4h11V13z"/>
	</g>
</svg>
