<?xml version="1.0" encoding="utf-8"?>
<!-- Generator: Adobe Illustrator 15.1.0, SVG Export Plug-In . SVG Version: 6.00 Build 0)  -->
<!DOCTYPE svg PUBLIC "-//W3C//DTD SVG 1.1//EN" "http://www.w3.org/Graphics/SVG/1.1/DTD/svg11.dtd">
<svg version="1.1" id="Ebene_1" xmlns="http://www.w3.org/2000/svg" xmlns:xlink="http://www.w3.org/1999/xlink" x="0px" y="0px" width="16px" height="16px" viewBox="0 0 16 16" enable-background="new 0 0 16 16" xml:space="preserve">
	<title>Working</title>
	<desc>Working Icon</desc>
	
	<!--
		@author		Alexander Ebert
		@copyright	2001-2012 WoltLab GmbH 
		@license	GNU Lesser General Public License <http://opensource.org/licenses/lgpl-license.php> 
	--> 
	
	<defs>
		<style type="text/css">
			<![CDATA[
				.surface { fill: #fff; }
				.shadow { fill: #000; }
			]]>
		</style>
	</defs>
	
	<g id="IconWorkingA">
		<g>
			
			<animateTransform  type="rotate" fill="remove" to="360 8 8" from="0 8 8" begin="0s" dur="10s" restart="always" repeatCount="indefinite" calcMode="linear" accumulate="none" attributeName="transform" additive="replace" attributeType="XML">
			</animateTransform>
			
			<path class="shadow" opacity="0.8" enable-background="new    " d="M14.006,6.424l-1.732-0.267c-0.08-0.254-0.18-0.498-0.301-0.73l1.035-1.413
				c0.163-0.222,0.137-0.563-0.058-0.757L12.243,2.55c-0.194-0.194-0.535-0.221-0.757-0.058l-1.414,1.036
				C9.84,3.406,9.598,3.307,9.343,3.227L9.076,1.494C9.034,1.222,8.775,1,8.5,1h-1C7.226,1,6.966,1.222,6.924,1.494L6.658,3.227
				c-0.255,0.08-0.498,0.18-0.731,0.302L4.514,2.493C4.292,2.33,3.952,2.356,3.757,2.55L3.05,3.257
				C2.856,3.452,2.83,3.792,2.993,4.014l1.036,1.413C3.907,5.66,3.807,5.903,3.727,6.157L1.994,6.424C1.722,6.466,1.5,6.725,1.5,7v1
				c0,0.275,0.222,0.534,0.494,0.576l1.732,0.267c0.08,0.255,0.179,0.497,0.301,0.73l-1.036,1.411
				c-0.163,0.223-0.137,0.563,0.058,0.758l0.708,0.708c0.194,0.194,0.535,0.221,0.757,0.058l1.412-1.035
				c0.232,0.121,0.476,0.221,0.73,0.301l0.266,1.732C6.965,13.777,7.225,14,7.5,14h1.001c0.274,0,0.534-0.223,0.576-0.494
				l0.267-1.732c0.254-0.08,0.497-0.18,0.729-0.301l1.412,1.035c0.223,0.163,0.563,0.137,0.758-0.058l0.708-0.708
				c0.194-0.194,0.221-0.535,0.058-0.758l-1.035-1.411c0.121-0.233,0.221-0.476,0.301-0.73l1.732-0.267
				C14.277,8.534,14.5,8.275,14.5,8V7C14.5,6.725,14.277,6.466,14.006,6.424z M8,10c-1.381,0-2.5-1.119-2.5-2.5C5.5,6.12,6.619,5,8,5
				s2.5,1.12,2.5,2.5C10.5,8.881,9.381,10,8,10z M9.5,7.5C9.5,8.329,8.828,9,8,9S6.5,8.329,6.5,7.5C6.5,6.672,7.172,6,8,6
				S9.5,6.672,9.5,7.5z"/>
		</g>
		<g>
			
			<animateTransform  type="rotate" fill="remove" to="360 8 9" from="0 8 9" begin="0s" dur="10s" restart="always" repeatCount="indefinite" calcMode="linear" accumulate="none" attributeName="transform" additive="replace" attributeType="XML">
			</animateTransform>
			
			<path class="surface" d="M14.006,7.424l-1.732-0.267c-0.08-0.254-0.18-0.498-0.301-0.73l1.035-1.413
				c0.163-0.222,0.137-0.563-0.058-0.757L12.243,3.55c-0.194-0.194-0.535-0.221-0.757-0.058l-1.414,1.036
				C9.84,4.406,9.598,4.307,9.343,4.227L9.076,2.494C9.034,2.222,8.775,2,8.5,2h-1C7.226,2,6.966,2.222,6.924,2.494L6.658,4.227
				c-0.255,0.08-0.498,0.18-0.731,0.302L4.514,3.493C4.292,3.33,3.952,3.356,3.757,3.55L3.05,4.257
				C2.856,4.452,2.83,4.792,2.993,5.014l1.036,1.413C3.907,6.66,3.807,6.903,3.727,7.157L1.994,7.424C1.722,7.466,1.5,7.725,1.5,8v1
				c0,0.275,0.222,0.534,0.494,0.576l1.732,0.267c0.08,0.255,0.179,0.497,0.301,0.73l-1.036,1.411
				c-0.163,0.223-0.137,0.563,0.058,0.758l0.708,0.708c0.194,0.194,0.535,0.221,0.757,0.058l1.412-1.035
				c0.232,0.121,0.476,0.221,0.73,0.301l0.266,1.732C6.965,14.777,7.225,15,7.5,15h1.001c0.274,0,0.534-0.223,0.576-0.494
				l0.267-1.732c0.254-0.08,0.497-0.18,0.729-0.301l1.412,1.035c0.223,0.163,0.563,0.137,0.758-0.058l0.708-0.708
				c0.194-0.194,0.221-0.535,0.058-0.758l-1.035-1.411c0.121-0.233,0.221-0.476,0.301-0.73l1.732-0.267
				C14.277,9.534,14.5,9.275,14.5,9V8C14.5,7.725,14.277,7.466,14.006,7.424z M8,11c-1.381,0-2.5-1.119-2.5-2.5C5.5,7.12,6.619,6,8,6
				s2.5,1.12,2.5,2.5C10.5,9.881,9.381,11,8,11z M9.5,8.5C9.5,9.329,8.828,10,8,10S6.5,9.329,6.5,8.5C6.5,7.672,7.172,7,8,7
				S9.5,7.672,9.5,8.5z"/>
		</g>
	</g>
</svg>
