<?xml version="1.0" encoding="utf-8"?>
<!--<?xml-stylesheet type="text/css" href="svg.css"?>-->
<!DOCTYPE svg PUBLIC "-//W3C//DTD SVG 1.1//EN" "http://www.w3.org/Graphics/SVG/1.1/DTD/svg11.dtd">
<svg version="1.1" xmlns="http://www.w3.org/2000/svg" xmlns:xlink="http://www.w3.org/1999/xlink" x="0px" y="0px" width="16px" height="16px" viewBox="0 0 16 16" xml:space="preserve">
	
	<title>Options</title>
	<desc>Options Icon</desc>
	
	<!--
		@author		Harald Szekely 
		@copyright	2011 WoltLab GmbH 
		@license	GNU Lesser General Public License <http://opensource.org/licenses/lgpl-license.php> 
	--> 
	
	<defs>
		<style type="text/css">
			<![CDATA[
				.Upper1 {fill: #369;}
				.Lower1 {fill: #fff;}
			]]>
		</style>
	</defs>
	
	<g id="IconOptions">
		<path class="Lower1" style="fill-rule: evenodd; clip-rule: evenodd;" d="M8.9516602,7.050293L8.4077148,5.0239258
			l2.7954102-2.7954102C10.7949219,2.0917969,10.3671875,2,9.9140625,2C7.6567383,2,5.8266602,3.8300781,5.8271484,6.0864258
			c0,0.4541016,0.0913086,0.8828125,0.2280273,1.2905273l-4.7758789,4.7753906c-0.3725586,0.3730469-0.3725586,0.9824219,0,1.3544922
			l1.2148438,1.2138672c0.3725586,0.3730469,0.9814453,0.3730469,1.3540039,0l4.7753906-4.7753906
			c0.4077148,0.1367188,0.8374023,0.2285156,1.2905273,0.2285156C12.171875,10.1738281,14,8.3447266,14,6.0869141
			c0-0.4541016-0.0917969-0.8818359-0.2285156-1.2895508l-2.7949219,2.7949219L8.9516602,7.050293z M3.4921875,13.1503906
			c-0.1777344,0.1777344-0.4648438,0.1777344-0.6420898,0c-0.1777344-0.1777344-0.1777344-0.4648438,0-0.6425781
			c0.1772461-0.1767578,0.4643555-0.1767578,0.6420898,0C3.6699219,12.6855469,3.6699219,12.9726562,3.4921875,13.1503906z"/>
		<path class="Upper1" style="fill-rule: evenodd; clip-rule: evenodd;" d="M8.9516602,6.050293L8.4077148,4.0239258
			l2.7954102-2.7954102C10.7949219,1.0917969,10.3671875,1,9.9140625,1C7.6567383,1,5.8266602,2.8300781,5.8271484,5.0864258
			c0,0.4541016,0.0913086,0.8828125,0.2280273,1.2905273l-4.7758789,4.7753906c-0.3725586,0.3730469-0.3725586,0.9824219,0,1.3544922
			l1.2148438,1.2138672c0.3725586,0.3730469,0.9814453,0.3730469,1.3540039,0l4.7753906-4.7749023
			C9.03125,9.0820312,9.4609375,9.1738281,9.9140625,9.1738281C12.171875,9.1738281,14,7.3447266,14,5.0869141
			c0-0.4541016-0.0917969-0.8818359-0.2285156-1.2895508l-2.7949219,2.7949219L8.9516602,6.050293z M3.4921875,12.1503906
			c-0.1777344,0.1777344-0.4648438,0.1777344-0.6420898,0c-0.1777344-0.1777344-0.1777344-0.4648438,0-0.6425781
			c0.1772461-0.1767578,0.4643555-0.1767578,0.6420898,0C3.6699219,11.6855469,3.6699219,11.9726562,3.4921875,12.1503906z"/>
	</g>
</svg>
