<?xml version="1.0" encoding="utf-8"?>
<!-- Generator: Adobe Illustrator 15.1.0, SVG Export Plug-In . SVG Version: 6.00 Build 0)  -->
<!DOCTYPE svg PUBLIC "-//W3C//DTD SVG 1.1//EN" "http://www.w3.org/Graphics/SVG/1.1/DTD/svg11.dtd">
<svg version="1.1" id="Ebene_1" xmlns="http://www.w3.org/2000/svg" xmlns:xlink="http://www.w3.org/1999/xlink" x="0px" y="0px" width="16px" height="16px" viewBox="0 0 16 16" enable-background="new 0 0 16 16" xml:space="preserve">
	<title>Wrench</title>
	<desc>Wrench Icon</desc>
	
	<!--
		@author		Harald Szekely
		@copyright	2001-2012 WoltLab GmbH 
		@license	GNU Lesser General Public License <http://opensource.org/licenses/lgpl-license.php> 
	--> 
	
	<defs>
		<style type="text/css">
			<![CDATA[
				.surface { fill: #fff; }
				.shadow { fill: #000; }
			]]>
		</style>
	</defs>
	
	<g id="IconOptions">
		<path class="shadow" transform="translate(0 -1)" opacity=".8" d="M9.451,7.05L8.908,5.024l2.795-2.795C11.295,2.092,10.867,2,10.414,2C8.157,2,6.327,3.83,6.327,6.086
			c0,0.454,0.091,0.883,0.228,1.291l-4.776,4.775c-0.373,0.373-0.373,0.982,0,1.354l1.215,1.214c0.373,0.373,0.981,0.373,1.354,0
			l4.775-4.775c0.408,0.137,0.838,0.229,1.291,0.229c2.258,0,4.086-1.829,4.086-4.087c0-0.454-0.092-0.882-0.229-1.29l-2.795,2.795
			L9.451,7.05z M3.992,13.15c-0.178,0.178-0.465,0.178-0.642,0c-0.178-0.178-0.178-0.465,0-0.643c0.177-0.177,0.464-0.177,0.642,0
			C4.17,12.686,4.17,12.973,3.992,13.15z"/>
		<path class="surface" transform="translate(0 1)" d="M9.451,6.05L8.908,4.024l2.795-2.795C11.295,1.092,10.867,1,10.414,1C8.157,1,6.327,2.83,6.327,5.086
			c0,0.454,0.091,0.883,0.228,1.291l-4.776,4.775c-0.373,0.373-0.373,0.982,0,1.354l1.215,1.214c0.373,0.373,0.981,0.373,1.354,0
			l4.775-4.775c0.408,0.137,0.838,0.229,1.291,0.229c2.258,0,4.086-1.829,4.086-4.087c0-0.454-0.092-0.882-0.229-1.29l-2.795,2.795
			L9.451,6.05z M3.992,12.15c-0.178,0.178-0.465,0.178-0.642,0c-0.178-0.178-0.178-0.465,0-0.643c0.177-0.177,0.464-0.177,0.642,0
			C4.17,11.686,4.17,11.973,3.992,12.15z"/>
	</g>
</svg>
