<?xml version="1.0" encoding="utf-8"?>
<!--<?xml-stylesheet type="text/css" href="svg.css"?>-->
<!DOCTYPE svg PUBLIC "-//W3C//DTD SVG 1.1//EN" "http://www.w3.org/Graphics/SVG/1.1/DTD/svg11.dtd">
<svg version="1.1" xmlns="http://www.w3.org/2000/svg" xmlns:xlink="http://www.w3.org/1999/xlink" x="0px" y="0px" width="16px" height="16px" viewBox="0 0 16 16" xml:space="preserve">
	
	<title>Write</title> 
	<desc>Write Icon</desc> 
	
	<!--
		@author		Harald Szekely 
		@copyright	2011 WoltLab GmbH 
		@license	GNU Lesser General Public License <http://opensource.org/licenses/lgpl-license.php> 
	--> 
	
	<defs>
		<style type="text/css">
			<![CDATA[
				.Upper1 {fill: #666;}
				.Lower1 {fill: #fff;}
			]]>
		</style>
	</defs>
	
	<g id="IconWrite">
		<g class="Lower1">
			<path id="Writing2" d="M14.4326172,14.4375c-1.5429688,0.0800781-3.1455078,0.140625-4.6689453-0.1474609
				c-0.6259766-0.1171875-0.855957-0.4130859-0.3310547-0.8525391c0.4716797-0.3945312,1.8691406-1.6542969,0.3134766-0.7900391
				c-1.2246094,0.6806641-2.2832031,1.3291016-3.7119141,1.5351562c-0.4550781,0.0664062-5.2954102-0.0878906-4.3623047-0.9257812
				c-0.2685547,0.15625-0.5371094,0.3125-0.8056641,0.46875c1.7470703-0.9560547,3.7832031-0.6425781,5.5136719-1.7773438
				C9.8984375,9.6425781,2.5888672,9.4492188,1.4331055,9.4375c-0.2905273-0.0029297-0.5834961,0.5029297-0.8662109,0.5
				c1.3701172,0.0146484,5.171875-0.3457031,5.9912109,1.2060547c0.7099609,1.3447266-3.9101562,1.5791016-4.7241211,2.0234375
				c-0.3916016,0.2148438-0.828125,0.4111328-1.1616211,0.7099609c-0.5693359,0.5107422,2.9086914,0.8828125,3.0961914,0.8857422
				c1.2358398,0.0244141,2.6030273-0.1386719,3.6928711-0.7587891c0.3930664-0.2236328,2.6020508-1.5644531,2.1049805-0.8720703
				c-0.2548828,0.3554688-1.5805664,0.8388672-1.2763672,1.3974609c0.2094727,0.3847656,1.2988281,0.3691406,1.6445312,0.4013672
				C11.1347656,15.0419922,12.3642578,15,13.5673828,14.9375C13.8671875,14.921875,14.1396484,14.453125,14.4326172,14.4375
				L14.4326172,14.4375z"/>
			<path id="Pen2" d="M4.5830078,1.9584961L3.2285156,3.2138672
				c0.0146484,0.0708008,0.0102539,0.1337891-0.0307617,0.171875c-0.0820312,0.0751953-0.0405273,0.262207,0.0961914,0.4067383
				l2.940918,3.2197266C6.3745117,7.1577148,6.590332,7.3999023,6.7250977,7.5473633l2.9477539,3.2182617
				c0.0712891,0.0751953,0.1923828,0.0908203,0.3291016,0.0527344l0.0146484,0.0117188l1.5537109-1.4433594l-0.0136719-0.0146484
				c0.046875-0.1347656,0.046875-0.2578125-0.0253906-0.3369141L8.590332,5.8188477
				C8.4550781,5.671875,8.2290039,5.4311523,8.0981445,5.2817383l-2.3144531-2.527832
				c0.0366211-0.027832,0.0776367-0.0634766,0.1220703-0.1083984c0.0512695-0.046875,0.09375-0.0898438,0.128418-0.125
				l3.8710938,4.121582c0.0830078,0.0888672,0.2177734,0.0961914,0.3027344,0.0151367
				c0.0839844-0.0786133,0.0927734-0.2167969,0.0126953-0.3037109L6.0317383,1.8886719
				c-0.081543-0.0878906-0.2163086-0.0957031-0.3051758-0.015625C5.644043,1.9516602,5.6386719,2.0893555,5.7241211,2.1782227
				l0.0400391,0.0546875C5.7338867,2.262207,5.6884766,2.3027344,5.6347656,2.3491211
				C5.5883789,2.3935547,5.550293,2.4326172,5.5180664,2.4663086L5.1503906,2.065918
				C5.0151367,1.9179688,4.8364258,1.859375,4.7548828,1.9370117C4.7192383,1.9746094,4.6547852,1.9770508,4.5830078,1.9584961z
				 M4.3178711,1.7636719L4.3588867,1.809082C4.3833008,1.8344727,4.4111328,1.8549805,4.440918,1.875L3.1606445,3.0634766
				c-0.015625-0.0307617-0.0366211-0.059082-0.0620117-0.0854492L3.059082,2.9331055
				C2.9267578,2.7851562,3.0219727,2.4702148,3.2797852,2.2314453l0.3334961-0.3046875
				C3.8647461,1.6889648,4.1816406,1.6162109,4.3178711,1.7636719z M14.9287109,14.3154297
				c0.0917969,0.0957031,0.0947266,0.2392578,0.0078125,0.3193359c-0.0869141,0.0810547-0.2285156,0.0683594-0.3154297-0.0371094
				l-0.0595703,0.0605469l-0.8017578-0.7421875l0.5546875-0.5224609l0.671875,0.8681641L14.9287109,14.3154297z
				 M14.2324219,13.2851562l-0.5742188,0.5351562l-0.1376953,0.1289062l-3.3671875-2.9960938l1.5273438-1.4179688
				l2.6894531,3.6220703L14.2324219,13.2851562z"/>
		</g>
		<g class="Upper1">
			<path id="Writing1" d="M14.4326172,13.75c-1.5429688,0.0800781-3.1455078,0.140625-4.6689453-0.1474609
				C9.1376953,13.4853516,8.9077148,13.1894531,9.4326172,12.75c0.4716797-0.3945312,1.8691406-1.6542969,0.3134766-0.7900391
				c-1.2246094,0.6806641-2.2832031,1.3291016-3.7119141,1.5351562c-0.4550781,0.0664062-5.2954102-0.0878906-4.3623047-0.9257812
				c-0.2685547,0.15625-0.5371094,0.3125-0.8056641,0.46875c1.7470703-0.9560547,3.7832031-0.6425781,5.5136719-1.7773438
				C9.8984375,8.9545898,2.5888672,8.762207,1.4331055,8.75c-0.2905273-0.0029297-0.5834961,0.5029297-0.8662109,0.5
				c1.3701172,0.0146484,5.171875-0.3457031,5.9912109,1.2060547c0.7099609,1.3447266-3.9101562,1.5791016-4.7241211,2.0234375
				c-0.3916016,0.2148438-0.828125,0.4111328-1.1616211,0.7099609c-0.5693359,0.5107422,2.9086914,0.8828125,3.0961914,0.8857422
				c1.2358398,0.0244141,2.6030273-0.1386719,3.6928711-0.7587891c0.3930664-0.2236328,2.6020508-1.5644531,2.1049805-0.8720703
				c-0.2548828,0.3554688-1.5805664,0.8388672-1.2763672,1.3974609c0.2094727,0.3847656,1.2988281,0.3691406,1.6445312,0.4013672
				C11.1347656,14.3544922,12.3642578,14.3125,13.5673828,14.25C13.8671875,14.234375,14.1396484,13.765625,14.4326172,13.75
				L14.4326172,13.75z"/>
			<path id="Pen1" d="M4.5830078,1.2709961L3.2285156,2.5263672
				c0.0146484,0.0708008,0.0102539,0.1337891-0.0307617,0.171875c-0.0820312,0.0751953-0.0405273,0.262207,0.0961914,0.4067383
				l2.940918,3.2197266C6.3745117,6.4702148,6.590332,6.7124023,6.7250977,6.8598633l2.9477539,3.2182617
				c0.0712891,0.0751953,0.1923828,0.0908203,0.3291016,0.0527344l0.0146484,0.0117188l1.5537109-1.4428711l-0.0136719-0.0151367
				c0.046875-0.1347656,0.046875-0.2578125-0.0253906-0.3369141L8.590332,5.1313477
				C8.4550781,4.984375,8.2290039,4.7436523,8.0981445,4.5942383l-2.3144531-2.527832
				c0.0366211-0.027832,0.0776367-0.0634766,0.1220703-0.1083984c0.0512695-0.046875,0.09375-0.0898438,0.128418-0.125
				l3.8710938,4.121582c0.0830078,0.0888672,0.2177734,0.0961914,0.3027344,0.0151367
				c0.0839844-0.0786133,0.0927734-0.2167969,0.0126953-0.3037109L6.0317383,1.2011719
				c-0.081543-0.0878906-0.2163086-0.0957031-0.3051758-0.015625C5.644043,1.2641602,5.6386719,1.4018555,5.7241211,1.4907227
				l0.0400391,0.0546875C5.7338867,1.574707,5.6884766,1.6152344,5.6347656,1.6616211
				C5.5883789,1.7060547,5.550293,1.7451172,5.5180664,1.7788086L5.1503906,1.378418
				C5.0151367,1.2304688,4.8364258,1.171875,4.7548828,1.2495117C4.7192383,1.2871094,4.6547852,1.2895508,4.5830078,1.2709961z
				 M4.3178711,1.0761719L4.3588867,1.121582C4.3833008,1.1469727,4.4111328,1.1674805,4.440918,1.1875L3.1606445,2.3759766
				c-0.015625-0.0307617-0.0366211-0.059082-0.0620117-0.0854492L3.059082,2.2456055
				C2.9267578,2.0976562,3.0219727,1.7827148,3.2797852,1.5439453l0.3334961-0.3046875
				C3.8647461,1.0014648,4.1816406,0.9287109,4.3178711,1.0761719z M14.9287109,13.6279297
				c0.0917969,0.0957031,0.0947266,0.2392578,0.0078125,0.3193359c-0.0869141,0.0810547-0.2285156,0.0683594-0.3154297-0.0371094
				l-0.0595703,0.0605469l-0.8017578-0.7421875l0.5546875-0.5224609l0.671875,0.8681641L14.9287109,13.6279297z
				 M14.2324219,12.5976562l-0.5742188,0.5351562l-0.1376953,0.1289062l-3.3671875-2.9960938l1.5273438-1.418457l2.6894531,3.6225586
				L14.2324219,12.5976562z"/>
		</g>
	</g>
</svg>
